<svg xmlns="http://www.w3.org/2000/svg" width="160" height="160" style="fill-opacity:1;color-rendering:auto;color-interpolation:auto;text-rendering:auto;stroke:#000;stroke-linecap:square;stroke-miterlimit:10;shape-rendering:auto;stroke-opacity:1;fill:#000;stroke-dasharray:none;font-weight:400;stroke-width:1;font-family:&quot;Dialog&quot;;font-style:normal;stroke-linejoin:miter;font-size:12px;stroke-dashoffset:0;image-rendering:auto">
    <g style="stroke-linecap:round;fill:#8f8f8f;stroke:#8f8f8f">
        <path stroke="none" d="M69 80.5v-5l7.5-7.5h14l4 4h14l4-4h8l3.5-3.5v-9l-4-4v-8l6.5-6.5h3L144 51.5v22L130.5 87h-14l-4 4h-25l-4-4h-8Z" style="stroke:none"/>
    </g>
    <g stroke="none" style="stroke-linecap:round;fill:#8f8f8f;stroke:#8f8f8f">
        <path d="M73 76.5v3l3.5 3.5h8l4 4h23l4-4h14L140 72.5v-20l-12-12-4 4v6l4 4v11l-6.5 6.5h-8l-4 4h-16l-4-4h-12Z" style="stroke:none"/>
        <path d="M73 79.5v-3l4.5-4.5h12l4 4h16l4-4h8l6.5-6.5v-11l-4-4v-6l4-4 12 12v20L129.5 83h-14l-4 4h-23l-4-4h-8Z" style="fill:#fff;stroke:none"/>
    </g>
</svg>
