<svg xmlns="http://www.w3.org/2000/svg" width="160" height="160" style="fill-opacity:1;color-rendering:auto;color-interpolation:auto;text-rendering:auto;stroke:#000;stroke-linecap:square;stroke-miterlimit:10;shape-rendering:auto;stroke-opacity:1;fill:#000;stroke-dasharray:none;font-weight:400;stroke-width:1;font-family:&quot;Dialog&quot;;font-style:normal;stroke-linejoin:miter;font-size:12px;stroke-dashoffset:0;image-rendering:auto">
    <g style="stroke-linecap:round;fill:#4a4b53;stroke:#4a4b53">
        <path stroke="none" d="M38 83.5v-16l9-9v-40l7.5-7.5h4l4-4h6L57 18.5v9l.5.5L69 16.5v6L56.5 35l6.5 6.5 14-14 3 3V78h-4.5l-8 8h-8l-8 8h-3Z" style="stroke:none"/>
    </g>
    <g stroke="none" style="stroke-linecap:round;fill:#bb68c3;stroke:#bb68c3">
        <path d="m57.5 28-.5-.5v-9L68.5 7h.5v9.5Zm-1 7L69 22.5v12l.5.5-6.5 6.5Z" style="stroke:none"/>
        <path d="M69 16.5V7h2.5l3.5 3.5Z" style="fill:#ffcbdd;stroke:none"/>
        <path d="M69 22v-5.5l6-6 5 5v14l.5.5 2.5-2.5 14 14 6.5-6.5L91 22.5v-6L102.5 28l.5-.5v-9L91.5 7h6l4 4h4l7.5 7.5v40l9 9v16L111.5 94h-3l-8-8h-8l-8-8H80V30.5L71.5 22Z" style="fill:#6e7080;stroke:none"/>
        <path d="m69.5 35-.5-.5V22h2.5l5.5 5.5Z" style="fill:#ffcbdd;stroke:none"/>
        <path d="m80.5 30-.5-.5v-14l5-5 6 6V22h-2.5Z" style="fill:#4a4b53;stroke:none"/>
        <path d="m83 27.5 5.5-5.5H91v12.5l-.5.5Zm2-17L88.5 7H91v9.5Z" style="stroke:none"/>
        <path d="M103 18.5v9l-.5.5L91 16.5V7h.5Zm.5 16.5L97 41.5 90.5 35l.5-.5v-12Z" style="fill:#ffcbdd;stroke:none"/>
    </g>
</svg>
