<svg xmlns="http://www.w3.org/2000/svg" width="160" height="160" style="fill-opacity:1;color-rendering:auto;color-interpolation:auto;text-rendering:auto;stroke:#000;stroke-linecap:square;stroke-miterlimit:10;shape-rendering:auto;stroke-opacity:1;fill:#000;stroke-dasharray:none;font-weight:400;stroke-width:1;font-family:&quot;Dialog&quot;;font-style:normal;stroke-linejoin:miter;font-size:12px;stroke-dashoffset:0;image-rendering:auto">
    <g style="stroke-linecap:round;fill:#6e7080;stroke:#6e7080">
        <path stroke="none" d="M38 83.5v-16l9-9v-40l7.5-7.5h4l4-4h6L57 18.5v9l.5.5L69 16.5v6L56.5 35l6.5 6.5 14-14 3 3 3-3 14 14 6.5-6.5L91 22.5v-6L102.5 28l.5-.5v-9L91.5 7h6l4 4h4l7.5 7.5v40l9 9v16l-5 5v12l-5 5-6.5-6.5h-11l-3 3-8-8h-7l-8 8-3-3h-11l-6.5 6.5-5-5v-12Z" style="stroke:none"/>
    </g>
    <g stroke="none" style="stroke-linecap:round;fill:#bb68c3;stroke:#bb68c3">
        <path d="M48 107.5v-2l6.5-6.5h11l-6.5 6.5v4.5h-8.5Z" style="stroke:none"/>
        <path d="M50.5 110h11L80 128.5 98.5 110h11l2.5-2.5v18l-8 8v2l-8.5-8.5-8 8 13 13-6 6h-6l-5-5h-7l-5 5h-6l-6-6 13-13-8-8-8.5 8.5v-2l-8-8v-18ZM57 58.5v3L78.5 83h3L103 61.5v-3L81.5 37h-3Z" style="fill:#6e7080;stroke:none"/>
        <path d="M56 144.5v-9l4.5-4.5 8 8-9 9ZM57.5 28l-.5-.5v-9L68.5 7h.5v9.5Zm-1 7L69 22.5v12l.5.5-6.5 6.5Z" style="fill:#ffcbdd;stroke:none"/>
        <path d="M57 61.5v-3L78.5 37h3L103 58.5v3L81.5 83h-3Z" style="fill:#4a4b53;stroke:none"/>
        <path d="m57.5 76 8.5 8.5 4.5-4.5-8.5-8.5Z" style="fill:#6e7080;stroke:none"/>
        <path d="m57.5 76 4.5-4.5 8.5 8.5-4.5 4.5Z" style="fill:#4a4b53;stroke:none"/>
        <path d="M59 110v-4.5l6.5-6.5L80 113.5 94.5 99l6.5 6.5v4.5h-2.5L80 128.5 61.5 110Z" style="fill:#ffcbdd;stroke:none"/>
        <path d="m60.5 131 4-4 8 8-4 4Zm6-71L80 73.5 93.5 60 80 46.5Z" style="fill:#4a4b53;stroke:none"/>
        <path d="M66.5 60 80 46.5 93.5 60 80 73.5Z" style="fill:#ffcbdd;stroke:none"/>
        <path d="M69 16.5V7h2.5l3.5 3.5Z" style="stroke:none"/>
        <path d="M69 22v-5.5l6-6 5 5 5-5 6 6V22h-2.5L80 30.5 71.5 22Z" style="fill:#4a4b53;stroke:none"/>
        <path d="m69.5 35-.5-.5V22h2.5l5.5 5.5Z" style="stroke:none"/>
        <path d="m68.5 102 8-8h7l8 8L80 113.5Z" style="fill:#4a4b53;stroke:none"/>
        <path d="m83 27.5 5.5-5.5H91v12.5l-.5.5Zm2-17L88.5 7H91v9.5Z" style="stroke:none"/>
        <path d="m87.5 135 8-8 4 4-8 8Z" style="fill:#4a4b53;stroke:none"/>
        <path d="m89.5 80 4.5 4.5 8.5-8.5-4.5-4.5Z" style="fill:#6e7080;stroke:none"/>
        <path d="m89.5 80 8.5-8.5 4.5 4.5-8.5 8.5Z" style="fill:#4a4b53;stroke:none"/>
        <path d="M103 18.5v9l-.5.5L91 16.5V7h.5Zm.5 16.5L97 41.5 90.5 35l.5-.5v-12Zm-12 104 8-8 4.5 4.5v9l-3.5 3.5Z" style="fill:#ffcbdd;stroke:none"/>
        <path d="M94.5 99h11l6.5 6.5v2l-2.5 2.5H101v-4.5Z" style="stroke:none"/>
    </g>
</svg>
