<svg xmlns="http://www.w3.org/2000/svg" width="128" height="128" style="fill-opacity:1;color-rendering:auto;color-interpolation:auto;text-rendering:auto;stroke:#000;stroke-linecap:square;stroke-miterlimit:10;shape-rendering:auto;stroke-opacity:1;fill:#000;stroke-dasharray:none;font-weight:400;stroke-width:1;font-family:&quot;Dialog&quot;;font-style:normal;stroke-linejoin:miter;font-size:12px;stroke-dashoffset:0;image-rendering:auto">
    <g style="stroke-linecap:round;fill:#4a4b53;stroke:#4a4b53">
        <path stroke="none" d="M4 64.5v-9l10-10v-8l-.5-.5L7 43.5v-8l4.5-4.5H16v6.5l6 6v9l-3 3v4l-10 10Z" style="stroke:none"/>
    </g>
    <g stroke="none" style="stroke-linecap:round;fill:#4a4b53;stroke:#4a4b53">
        <path d="M7 57.5v7l.5.5 6.5-6.5v-7l-.5-.5Z" style="stroke:none"/>
        <path d="m7.5 52-.5-.5v-8l6.5-6.5.5.5v8Zm0 13-.5-.5v-7l6.5-6.5.5.5v7Z" style="fill:#ea8878;stroke:none"/>
        <path d="m9 69.5 10-10v-4l3-3v-9l-6-6V31h4v2.5l8.5 8.5-.5.5v14l-4 4v3L13.5 74Z" style="fill:#6e7080;stroke:none"/>
        <path d="M9 114.5v-5l10-10v-1l8-8v-9l-.5-.5-7.5 7.5v2l-6-6v-10l11-11v-3l4-4v-14l.5-.5 3.5 3.5v3l3.5 3.5H39v.5l-8 8v47l-6.5 6.5h-4l-6 6Z" style="stroke:none"/>
        <path d="m14.5 120 6-6h4l6.5-6.5v-8l7 7v6l-4 4-.5-.5h-3l-7 7h-6Z" style="fill:#6e7080;stroke:none"/>
        <path d="M19 73.5v8l.5.5 7.5-7.5v-8l-.5-.5Z" style="stroke:none"/>
        <path d="m19.5 82-.5-.5v-8l7.5-7.5.5.5v8ZM19 98.5v-10l7.5-7.5.5.5v9Z" style="fill:#ea8878;stroke:none"/>
        <path d="M20 33.5V31h.5l4.5-4.5v-11l2.5-2.5.5.5v7L38.5 31H40v9h-1.5l-13-13-.5.5v10l-.5.5Z" style="stroke:none"/>
        <path d="M38.5 40h.5v12h-3.5L32 48.5v-3L24.5 38l.5-.5v-10l.5-.5ZM28 20.5v-7l-.5-.5 6-6 .5.5v9l5.5 5.5h.5v9h-1.5Z" style="fill:#ea8878;stroke:none"/>
        <path d="M31 83.5v-23l8-8 5 5-6 6v27Z" style="fill:#6e7080;stroke:none"/>
        <path d="M38 90.5v16l-7-7v-16Z" style="fill:#feb380;stroke:none"/>
        <path d="M34 16.5v-9l-.5-.5 3-3H40v18h-.5Zm0 100 4-4V107h2.5l5-5 7.5 7.5v5l2 2-6.5 6.5h-8Zm4-26v-27l6-6 5 5v5l4 4-7 7v5L61.5 99H64v14h-4v-6.5L46.5 93h-6Z" style="stroke:none"/>
        <path d="M40.5 93h6L60 106.5v6.5h-.5l-4 4-2.5-2.5v-5l-7.5-7.5-5 5H38V90.5Z" style="fill:#ea8878;stroke:none"/>
        <path d="M39 52.5V40h2.5l4.5 4.5v11l-2 2Z" style="fill:#feb380;stroke:none"/>
        <path d="M50 13.5v4l-4 4v4L42.5 22H40V4h.5Z" style="fill:#6e7080;stroke:none"/>
        <path d="M40 31.5V22h2.5l3.5 3.5v12Z" style="fill:#feb380;stroke:none"/>
        <path d="M46 37.5v7L41.5 40H40v-8.5Z" style="fill:#6e7080;stroke:none"/>
        <path d="m41 111.5 4.5 4.5 4.5-4.5-4.5-4.5Z" style="stroke:none"/>
        <path d="m41 111.5 4.5-4.5 4.5 4.5-4.5 4.5Zm3-54 2-2v-11l4 4v5l6 6v15l-7-7v-5Z" style="fill:#ea8878;stroke:none"/>
        <path d="M46 44.5v-4l3.5-3.5h2l9-9H64v10.5l.5.5h1l6.5 6.5v8L65.5 47H64v-7.5l-1-1-7 7v14l-6-6v-5Z" style="stroke:none"/>
        <path d="M46 83.5v-5l7-7 3 3v6l-5 5v2l-.5.5Zm10-30v-8l7-7 1 1V47h-1.5Zm8 59.5V99h2.5L82 83.5v-5l-7-7 4-4v-5l5-5 6 6v27L87.5 93h-6L68 106.5v6.5Zm1.5-74h-1l-.5-.5V28h3.5l9 9h2l3.5 3.5v4l-4 4v5l-6 6v-14Z" style="fill:#6e7080;stroke:none"/>
        <path d="M68.5 113H68v-6.5L81.5 93h6l2.5-2.5V107h-2.5l-5-5-7.5 7.5v5l-2.5 2.5ZM72 74.5v-15l6-6v-5l4-4v11l2 2-5 5v5Z" style="fill:#feb380;stroke:none"/>
        <path d="M72 80.5v-6l3-3 7 7v5L77.5 88l-.5-.5v-2Z" style="stroke:none"/>
        <path d="m73 116.5 2-2v-5l7.5-7.5 5 5H90v5.5l4 4-6.5 6.5h-8Z" style="fill:#6e7080;stroke:none"/>
        <path d="m78 111.5 4.5 4.5 4.5-4.5-4.5-4.5Z" style="fill:#6e7080;stroke:none"/>
        <path d="M78 17.5v-4L87.5 4h.5v18h-2.5L82 25.5v-4Z" style="stroke:none"/>
        <path d="m78 111.5 4.5-4.5 4.5 4.5-4.5 4.5Z" style="fill:#feb380;stroke:none"/>
        <path d="M82 37.5v-12l3.5-3.5H88v9.5Z" style="fill:#ea8878;stroke:none"/>
        <path d="M82 44.5v-7l6-6V40h-1.5Z" style="stroke:none"/>
        <path d="M82 55.5v-11l4.5-4.5H89v12.5l-5 5Z" style="fill:#ea8878;stroke:none"/>
        <path d="m84 57.5 5-5 8 8v23l-7 7v-27Z" style="stroke:none"/>
        <path d="M88.5 22H88V4h3.5l3 3-.5.5v9Z" style="fill:#6e7080;stroke:none"/>
        <path d="M88 31v-9h.5l5.5-5.5v-9l.5-.5 6 6-.5.5v7L89.5 31Z" style="fill:#feb380;stroke:none"/>
        <path d="M88 40v-9h1.5L100 20.5v-7l.5-.5 2.5 2.5v11l4.5 4.5h.5v2.5l-4.5 4.5-.5-.5v-10l-.5-.5-13 13Z" style="fill:#6e7080;stroke:none"/>
        <path d="M89 52V40h.5l13-13 .5.5v10l.5.5-7.5 7.5v3L92.5 52Z" style="fill:#feb380;stroke:none"/>
        <path d="M89 52.5V52h3.5l3.5-3.5v-3l3.5-3.5.5.5v14l4 4v3l11 11v10l-6 6v-2l-7.5-7.5-.5.5v9l8 8v1l10 10v5l-5.5 5.5-6-6h-4l-6.5-6.5v-47Z" style="fill:#6e7080;stroke:none"/>
        <path d="M90 106.5v-16l7-7v16Z" style="fill:#ea8878;stroke:none"/>
        <path d="M90 112.5v-6l7-7v8l6.5 6.5h4l6 6-3 3h-6l-7-7h-3l-.5.5Zm10-56v-14l-.5-.5 8.5-8.5V31h4v6.5l-6 6v9l3 3v4l10 10-4.5 4.5L104 63.5v-3Z" style="stroke:none"/>
        <path d="M101 66.5v8l7.5 7.5.5-.5v-8l-7.5-7.5Z" style="fill:#6e7080;stroke:none"/>
        <path d="M109 73.5v8l-.5.5-7.5-7.5v-8l.5-.5Zm0 15v10l-8-8v-9l.5-.5Z" style="fill:#feb380;stroke:none"/>
        <path d="M106 52.5v-9l6-6V31h4.5l4.5 4.5v8l-6.5-6.5-.5.5v8l10 10v9l-5 5-10-10v-4Z" style="fill:#6e7080;stroke:none"/>
        <path d="M114 51.5v7l6.5 6.5.5-.5v-7l-6.5-6.5Z" style="fill:#6e7080;stroke:none"/>
        <path d="M121 43.5v8l-.5.5-6.5-6.5v-8l.5-.5Zm0 14v7l-.5.5-6.5-6.5v-7l.5-.5Z" style="fill:#feb380;stroke:none"/>
    </g>
</svg>
