<svg xmlns="http://www.w3.org/2000/svg" width="128" height="128" style="fill-opacity:1;color-rendering:auto;color-interpolation:auto;text-rendering:auto;stroke:#000;stroke-linecap:square;stroke-miterlimit:10;shape-rendering:auto;stroke-opacity:1;fill:#000;stroke-dasharray:none;font-weight:400;stroke-width:1;font-family:&quot;Dialog&quot;;font-style:normal;stroke-linejoin:miter;font-size:12px;stroke-dashoffset:0;image-rendering:auto">
    <g style="stroke-linecap:round;fill:#6e7080;stroke:#6e7080">
        <path stroke="none" d="M100 56.5v-15l8-8V31h4v6.5l-6 6v9l3 3v4l10 10-4.5 4.5L104 63.5v-3Z" style="stroke:none"/>
    </g>
    <g stroke="none" style="stroke-linecap:round;fill:#4a4b53;stroke:#4a4b53">
        <path d="M106 52.5v-9l6-6V31h4.5l4.5 4.5v8l-6.5-6.5-.5.5v8l10 10v9l-5 5-10-10v-4Z" style="stroke:none"/>
        <path d="M114 51.5v7l6.5 6.5.5-.5v-7l-6.5-6.5Z" style="stroke:none"/>
        <path d="M121 43.5v8l-.5.5-6.5-6.5v-8l.5-.5Zm0 14v7l-.5.5-6.5-6.5v-7l.5-.5Z" style="fill:#ea8878;stroke:none"/>
    </g>
</svg>
