<svg xmlns="http://www.w3.org/2000/svg" width="32" height="32" style="fill-opacity:1;color-rendering:auto;color-interpolation:auto;text-rendering:auto;stroke:#000;stroke-linecap:square;stroke-miterlimit:10;shape-rendering:auto;stroke-opacity:1;fill:#000;stroke-dasharray:none;font-weight:400;stroke-width:1;font-family:&quot;Dialog&quot;;font-style:normal;stroke-linejoin:miter;font-size:12px;stroke-dashoffset:0;image-rendering:auto">
    <g style="stroke-linecap:round;fill:#6e7080;stroke:#6e7080">
        <path stroke="none" d="M.5 8V.5H8v1l.5.5L2 8.5 1.5 8Z" style="stroke:none"/>
    </g>
    <g stroke="none" style="stroke-linecap:round;fill:#4a4b53;stroke:#4a4b53">
        <path d="M.5 24V8h1l4 4-.5.5v7l.5.5-4 4Z" style="stroke:none"/>
        <path d="m2 8.5 3-3L8.5 9l-3 3Zm0 15L5.5 20l6.5 6.5L8.5 30Z" style="fill:#d4816b;stroke:none"/>
        <path d="m8.5 30-.5.5v1H.5V24h1l.5-.5Z" style="fill:#6e7080;stroke:none"/>
        <path d="m6 6.5-1-1 .5-.5.5.5Z" style="fill:#eab678;stroke:none"/>
        <path d="M5 19.5v-7L12.5 5h7l7.5 7.5v7L19.5 27h-7Z" style="fill:#6e7080;stroke:none"/>
        <path d="m5.5 5 3-3L12 5.5l-3 3Z" style="fill:#ffd37f;stroke:none"/>
        <path d="m8 8.5-3-3 .5-.5L8 7.5Z" style="fill:#eab678;stroke:none"/>
        <path d="M8 14.5v3l6.5 6.5h3l3-3-2.5-2.5-2 2-4.5-4.5 2-2-2.5-2.5Z" style="fill:#6e7080;stroke:none"/>
        <path d="M8 1.5v-1h16v1l-4 4-.5-.5h-7l-.5.5Zm0 16v-3l3-3 2.5 2.5-2 2 4.5 4.5 2-2 2.5 2.5-3 3h-3Z" style="fill:#989aa4;stroke:none"/>
        <path d="m11.5 11 2.5 2.5 2-2 4.5 4.5-2 2 2.5 2.5 3-3v-3L17.5 8h-3Z" style="fill:#6e7080;stroke:none"/>
        <path d="m11.5 11 3-3h3l6.5 6.5v3l-3 3-2.5-2.5 2-2-4.5-4.5-2 2Z" style="stroke:none"/>
        <path d="M20 5.5 23.5 2 30 8.5 26.5 12Z" style="fill:#ffd37f;stroke:none"/>
        <path d="m20 26.5 3-3 3.5 3.5-3 3Z" style="fill:#d4816b;stroke:none"/>
        <path d="M24 30.5v1H8v-1l4-4 .5.5h7l.5-.5Z" style="stroke:none"/>
        <path d="m24 24.5-1-1 .5-.5.5.5Z" style="fill:#eab678;stroke:none"/>
        <path d="m23.5 2 .5-.5v-1h7.5V8h-1l-.5.5Z" style="fill:#6e7080;stroke:none"/>
        <path d="m23.5 23 3-3 3.5 3.5-3 3Z" style="fill:#ffd37f;stroke:none"/>
        <path d="m26 26.5-3-3 .5-.5 2.5 2.5Z" style="fill:#eab678;stroke:none"/>
        <path d="m26.5 20 .5-.5v-7l-.5-.5 4-4h1v16h-1Z" style="fill:#989aa4;stroke:none"/>
    </g>
</svg>
