<svg xmlns="http://www.w3.org/2000/svg" width="32" height="32" style="fill-opacity:1;color-rendering:auto;color-interpolation:auto;text-rendering:auto;stroke:#000;stroke-linecap:square;stroke-miterlimit:10;shape-rendering:auto;stroke-opacity:1;fill:#000;stroke-dasharray:none;font-weight:400;stroke-width:1;font-family:&quot;Dialog&quot;;font-style:normal;stroke-linejoin:miter;font-size:12px;stroke-dashoffset:0;image-rendering:auto">
    <g style="stroke-linecap:round;fill:#6e7080;stroke:#6e7080">
        <path stroke="none" d="M.5 9V.5H9v2L2.5 9Z" style="stroke:none"/>
    </g>
    <g stroke="none" style="stroke-linecap:round;fill:#4a4b53;stroke:#4a4b53">
        <path d="M.5 23V9h2L9 2.5v-2h14v2L29.5 9h2v14h-2L23 29.5v2H9v-2L2.5 23Z" style="stroke:none"/>
        <path d="M9 29.5v2H.5V23h2Z" style="fill:#6e7080;stroke:none"/>
        <path d="m4 21.5 6.5 6.5h11l6.5-6.5v-11L21.5 4h-11L4 10.5Z" style="stroke:none"/>
        <path d="M4 21.5v-11L6.5 8l3.5 3.5-1 1v7l3.5 3.5h7l1.5-1.5 3.5 3.5-3 3h-11Z" style="fill:#d4816b;stroke:none"/>
        <path d="m6.5 8 4-4h11l6.5 6.5v11L24.5 25 21 21.5l2-2v-7L19.5 9h-7L10 11.5Z" style="fill:#ffd37f;stroke:none"/>
        <path d="M9 19.5v-7L12.5 9h7l3.5 3.5v7L19.5 23h-7Z" style="stroke:none"/>
        <path d="M23 2.5v-2h8.5V9h-2Z" style="fill:#6e7080;stroke:none"/>
    </g>
</svg>
