<svg xmlns="http://www.w3.org/2000/svg" width="32" height="32" style="fill-opacity:1;color-rendering:auto;color-interpolation:auto;text-rendering:auto;stroke:#000;stroke-linecap:square;stroke-miterlimit:10;shape-rendering:auto;stroke-opacity:1;fill:#000;stroke-dasharray:none;font-weight:400;stroke-width:1;font-family:&quot;Dialog&quot;;font-style:normal;stroke-linejoin:miter;font-size:12px;stroke-dashoffset:0;image-rendering:auto">
    <g style="stroke-linecap:round;fill:#b0bac0;stroke:#b0bac0">
        <path stroke="none" d="M.5 8V.5H8V4h-.5L4 7.5V8Z" style="stroke:none"/>
    </g>
    <g stroke="none" style="stroke-linecap:round;fill:#989aa4;stroke:#989aa4">
        <path d="M.5 24V8H4v16Z" style="stroke:none"/>
        <path d="M7.5 28H8v3.5H.5V24H4v.5Z" style="fill:#b0bac0;stroke:none"/>
        <path d="M4 12V7.5L7.5 4h17L28 7.5v17L24.5 28H20v-4h1.5l2.5-2.5v-11L21.5 8h-11L8 10.5V12Z" style="fill:#ffd37f;stroke:none"/>
        <path d="M4 24.5V12h4v9.5l2.5 2.5H20v4H7.5Z" style="fill:#d4816b;stroke:none"/>
        <path d="M8 4V.5h16V4Zm16 27.5H8V28h16Z" style="stroke:none"/>
        <path d="M24.5 4H24V.5h7.5V8H28v-.5Z" style="fill:#b0bac0;stroke:none"/>
        <path d="M28 24V8h3.5v16Z" style="stroke:none"/>
    </g>
</svg>
