<svg xmlns="http://www.w3.org/2000/svg" width="32" height="32" style="fill-opacity:1;color-rendering:auto;color-interpolation:auto;text-rendering:auto;stroke:#000;stroke-linecap:square;stroke-miterlimit:10;shape-rendering:auto;stroke-opacity:1;fill:#000;stroke-dasharray:none;font-weight:400;stroke-width:1;font-family:&quot;Dialog&quot;;font-style:normal;stroke-linejoin:miter;font-size:12px;stroke-dashoffset:0;image-rendering:auto">
    <g style="stroke-linecap:round;fill:#989aa4;stroke:#989aa4">
        <path stroke="none" d="M.5 1V.5H1l5 5L7.5 4h17L28 7.5v17L26.5 26l5 5v.5H31l-5-5-1.5 1.5h-17L4 24.5v-17L5.5 6Z" style="stroke:none"/>
    </g>
    <g stroke="none" style="stroke-linecap:round;fill:#6e7080;stroke:#6e7080">
        <path d="M5.5 6 4 7.5v17L7.5 28h17l1.5-1.5 5 5H.5V1Z" style="stroke:none"/>
        <path d="M1 .5h30.5V31l-5-5 1.5-1.5v-17L24.5 4h-17L6 5.5Z" style="fill:#b0bac0;stroke:none"/>
        <path d="M8 13.5v5l5.5 5.5h5l5.5-5.5v-5L18.5 8h-5Z" style="fill:#989aa4;stroke:none"/>
        <path d="M8 18.5v-5L13.5 8h5l5.5 5.5v5L18.5 24h-5Z" style="fill:#b0bac0;stroke:none"/>
        <path d="m11.5 16 4.5 4.5 4.5-4.5-4.5-4.5Z" style="fill:#b0bac0;stroke:none"/>
        <path d="m11.5 16 4.5-4.5 4.5 4.5-4.5 4.5Z" style="fill:#989aa4;stroke:none"/>
    </g>
</svg>
