<svg xmlns="http://www.w3.org/2000/svg" width="128" height="128" style="fill-opacity:1;color-rendering:auto;color-interpolation:auto;text-rendering:auto;stroke:#000;stroke-linecap:square;stroke-miterlimit:10;shape-rendering:auto;stroke-opacity:1;fill:#000;stroke-dasharray:none;font-weight:400;stroke-width:1;font-family:&quot;Dialog&quot;;font-style:normal;stroke-linejoin:miter;font-size:12px;stroke-dashoffset:0;image-rendering:auto">
    <g style="stroke-linecap:round;fill:#989aa4;stroke:#989aa4">
        <path stroke="none" d="M.5 1V.5H1l16 16 5.5-5.5h83L117 22.5v83l-5.5 5.5 16 16v.5h-.5l-16-16-5.5 5.5h-83L11 105.5v-83l5.5-5.5Z" style="stroke:none"/>
    </g>
    <g stroke="none" style="stroke-linecap:round;fill:#6e7080;stroke:#6e7080">
        <path d="M16.5 17 11 22.5v83L22.5 117h83l5.5-5.5 16 16H.5V1Z" style="stroke:none"/>
        <path d="M1 .5h126.5V127l-16-16 5.5-5.5v-83L105.5 11h-83L17 16.5Z" style="fill:#b0bac0;stroke:none"/>
        <path d="M15 25.5v6l4 4L35.5 19l-4-4h-6Zm0 17v2l2.5 2.5h2l3.5-3.5v-2L20.5 39h-2Zm0 41v2l3.5 3.5h2l2.5-2.5v-2L19.5 81h-2Zm0 13v6L25.5 113h6l4-4L19 92.5Z" style="fill:#989aa4;stroke:none"/>
        <path d="M15 31.5v-6L25.5 15h6l4 4L19 35.5Zm0 13v-2l3.5-3.5h2l2.5 2.5v2L19.5 47h-2Zm0 41v-2l2.5-2.5h2l3.5 3.5v2L20.5 89h-2Zm0 17v-6l4-4L35.5 109l-4 4h-6Z" style="fill:#b0bac0;stroke:none"/>
        <path d="M27 44.5v39L44.5 101h39L101 83.5v-39L83.5 27h-39Z" style="fill:#989aa4;stroke:none"/>
        <path d="M27 83.5v-39L44.5 27h39L101 44.5v39L83.5 101h-39Z" style="fill:#b0bac0;stroke:none"/>
        <path d="M35 49.5v29L49.5 93h29L93 78.5v-29L78.5 35h-29Z" style="fill:#b0bac0;stroke:none"/>
        <path d="M35 78.5v-29L49.5 35h29L93 49.5v29L78.5 93h-29Zm4-60v2l2.5 2.5h2l3.5-3.5v-2L44.5 15h-2Z" style="fill:#989aa4;stroke:none"/>
        <path d="M39 53.5v4l1.5 1.5h4L59 44.5v-4L57.5 39h-4Zm0 17v4L53.5 89h4l1.5-1.5v-4L44.5 69h-4Zm0 37v2l3.5 3.5h2l2.5-2.5v-2l-3.5-3.5h-2Z" style="fill:#989aa4;stroke:none"/>
        <path d="M39 20.5v-2l3.5-3.5h2l2.5 2.5v2L43.5 23h-2Zm0 37v-4L53.5 39h4l1.5 1.5v4L44.5 59h-4Zm0 17v-4l1.5-1.5h4L59 83.5v4L57.5 89h-4Zm0 35v-2l2.5-2.5h2l3.5 3.5v2l-2.5 2.5h-2Z" style="fill:#b0bac0;stroke:none"/>
        <path d="M69 40.5v4L83.5 59h4l1.5-1.5v-4L74.5 39h-4Zm0 43v4l1.5 1.5h4L89 74.5v-4L87.5 69h-4Z" style="fill:#989aa4;stroke:none"/>
        <path d="M69 44.5v-4l1.5-1.5h4L89 53.5v4L87.5 59h-4Zm0 43v-4L83.5 69h4l1.5 1.5v4L74.5 89h-4Z" style="fill:#b0bac0;stroke:none"/>
        <path d="M81 17.5v2l3.5 3.5h2l2.5-2.5v-2L85.5 15h-2Zm0 91v2l2.5 2.5h2l3.5-3.5v-2l-2.5-2.5h-2Z" style="fill:#989aa4;stroke:none"/>
        <path d="M81 19.5v-2l2.5-2.5h2l3.5 3.5v2L86.5 23h-2Zm0 91v-2l3.5-3.5h2l2.5 2.5v2l-3.5 3.5h-2Z" style="fill:#b0bac0;stroke:none"/>
        <path d="M92.5 19 109 35.5l4-4v-6L102.5 15h-6Zm0 90 4 4h6l10.5-10.5v-6l-4-4Z" style="fill:#989aa4;stroke:none"/>
        <path d="m92.5 19 4-4h6L113 25.5v6l-4 4Zm0 90L109 92.5l4 4v6L102.5 113h-6Z" style="fill:#b0bac0;stroke:none"/>
        <path d="M105 41.5v2l3.5 3.5h2l2.5-2.5v-2l-3.5-3.5h-2Zm0 43v2l2.5 2.5h2l3.5-3.5v-2l-2.5-2.5h-2Z" style="fill:#989aa4;stroke:none"/>
        <path d="M105 43.5v-2l2.5-2.5h2l3.5 3.5v2l-2.5 2.5h-2Zm0 43v-2l3.5-3.5h2l2.5 2.5v2l-3.5 3.5h-2Z" style="fill:#b0bac0;stroke:none"/>
    </g>
</svg>
