<svg xmlns="http://www.w3.org/2000/svg" width="64" height="64" style="fill-opacity:1;color-rendering:auto;color-interpolation:auto;text-rendering:auto;stroke:#000;stroke-linecap:square;stroke-miterlimit:10;shape-rendering:auto;stroke-opacity:1;fill:#000;stroke-dasharray:none;font-weight:400;stroke-width:1;font-family:&quot;Dialog&quot;;font-style:normal;stroke-linejoin:miter;font-size:12px;stroke-dashoffset:0;image-rendering:auto">
    <g style="stroke-linecap:round;fill:#989aa4;stroke:#989aa4">
        <path stroke="none" d="M.5 1V.5H1L6.5 6l2-2h47L60 8.5v47l-2 2 5.5 5.5v.5H63L57.5 58l-2 2h-47L4 55.5v-47l2-2Z" style="stroke:none"/>
    </g>
    <g stroke="none" style="stroke-linecap:round;fill:#6e7080;stroke:#6e7080">
        <path d="m6 6.5-2 2v47L8.5 60h47l2-2 5.5 5.5H.5V1Z" style="stroke:none"/>
        <path d="M1 .5h62.5V63L58 57.5l2-2v-47L55.5 4h-47l-2 2Z" style="fill:#b0bac0;stroke:none"/>
        <path d="m7.5 12 4.5 4.5 4.5-4.5L12 7.5ZM8 29.5v5l3.5 3.5.5-.5v-11l-.5-.5ZM7.5 52l4.5 4.5 4.5-4.5-4.5-4.5Z" style="fill:#989aa4;stroke:none"/>
        <path d="M7.5 12 12 7.5l4.5 4.5-4.5 4.5ZM8 34.5v-5l3.5-3.5.5.5v11l-.5.5ZM7.5 52l4.5-4.5 4.5 4.5-4.5 4.5Z" style="fill:#b0bac0;stroke:none"/>
        <path d="M16 24.5v15l8.5 8.5h15l8.5-8.5v-15L39.5 16h-15Z" style="fill:#989aa4;stroke:none"/>
        <path d="M16 39.5v-15l8.5-8.5h15l8.5 8.5v15L39.5 48h-15Z" style="fill:#b0bac0;stroke:none"/>
        <path d="m22.5 32 9.5 9.5 9.5-9.5-9.5-9.5Z" style="fill:#b0bac0;stroke:none"/>
        <path d="m22.5 32 9.5-9.5 9.5 9.5-9.5 9.5ZM26 11.5l.5.5h11l.5-.5L34.5 8h-5Zm0 41 3.5 3.5h5l3.5-3.5-.5-.5h-11Z" style="fill:#989aa4;stroke:none"/>
        <path d="m26.5 12-.5-.5L29.5 8h5l3.5 3.5-.5.5ZM26 52.5l.5-.5h11l.5.5-3.5 3.5h-5Z" style="fill:#b0bac0;stroke:none"/>
        <path d="m47.5 12 4.5 4.5 4.5-4.5L52 7.5Zm0 40 4.5 4.5 4.5-4.5-4.5-4.5Z" style="fill:#989aa4;stroke:none"/>
        <path d="M47.5 12 52 7.5l4.5 4.5-4.5 4.5Zm0 40 4.5-4.5 4.5 4.5-4.5 4.5Z" style="fill:#b0bac0;stroke:none"/>
        <path d="M52 26.5v11l.5.5 3.5-3.5v-5L52.5 26Z" style="fill:#989aa4;stroke:none"/>
        <path d="M56 29.5v5L52.5 38l-.5-.5v-11l.5-.5Z" style="fill:#b0bac0;stroke:none"/>
    </g>
</svg>
