<svg xmlns="http://www.w3.org/2000/svg" width="96" height="96" style="fill-opacity:1;color-rendering:auto;color-interpolation:auto;text-rendering:auto;stroke:#000;stroke-linecap:square;stroke-miterlimit:10;shape-rendering:auto;stroke-opacity:1;fill:#000;stroke-dasharray:none;font-weight:400;stroke-width:1;font-family:&quot;Dialog&quot;;font-style:normal;stroke-linejoin:miter;font-size:12px;stroke-dashoffset:0;image-rendering:auto">
    <g style="stroke-linecap:round;fill:#989aa4;stroke:#989aa4">
        <path stroke="none" d="M.5 1V.5H1l9 9L11.5 8h73l3.5 3.5v73L86.5 86l9 9v.5H95l-9-9-1.5 1.5h-73L8 84.5v-73L9.5 10Z" style="stroke:none"/>
    </g>
    <g stroke="none" style="stroke-linecap:round;fill:#6e7080;stroke:#6e7080">
        <path d="M9.5 10 8 11.5v73l3.5 3.5h73l1.5-1.5 9 9H.5V1Z" style="stroke:none"/>
        <path d="M1 .5h94.5V95l-9-9 1.5-1.5v-73L84.5 8h-73L10 9.5Z" style="fill:#b0bac0;stroke:none"/>
        <path d="M12 15.5v7l2 2L24.5 14l-2-2h-7ZM11.5 48l4.5 4.5 4.5-4.5-4.5-4.5Zm.5 25.5v7l3.5 3.5h7l2-2L14 71.5Z" style="fill:#989aa4;stroke:none"/>
        <path d="M12 22.5v-7l3.5-3.5h7l2 2L14 24.5ZM11.5 48l4.5-4.5 4.5 4.5-4.5 4.5Zm.5 32.5v-7l2-2L24.5 82l-2 2h-7Z" style="fill:#b0bac0;stroke:none"/>
        <path d="M20 26.5v8l5 5v17l-5 5v8l1 1v1l4.5 4.5h9l5-5h17l5 5h9l4.5-4.5v-1l1-1v-8l-5-5v-17l5-5v-8l-1-1v-1L70.5 20h-9l-5 5h-17l-5-5h-9L21 24.5v1Z" style="fill:#989aa4;stroke:none"/>
        <path d="M20 34.5v-8l1-1v-1l4.5-4.5h9l5 5h17l5-5h9l4.5 4.5v1l1 1v8l-5 5v17l5 5v8l-1 1v1L70.5 76h-9l-5-5h-17l-5 5h-9L21 71.5v-1l-1-1v-8l5-5v-17Z" style="fill:#b0bac0;stroke:none"/>
        <path d="M27 30.5v3l2.5 2.5h3l3.5 3.5v3L30.5 48l5.5 5.5v3L32.5 60h-3L27 62.5v3l3.5 3.5h3l2.5-2.5v-3l3.5-3.5h3l5.5 5.5 5.5-5.5h3l3.5 3.5v3l2.5 2.5h3l1-1h1l.5-.5v-1l1-1v-3L66.5 60h-3L60 56.5v-3l5.5-5.5-5.5-5.5v-3l3.5-3.5h3l2.5-2.5v-3L65.5 27h-3L60 29.5v3L56.5 36h-3L48 30.5 42.5 36h-3L36 32.5v-3L33.5 27h-3l-1 1h-1l-.5.5v1Z" style="fill:#b0bac0;stroke:none"/>
        <path d="M27 33.5v-3l1-1v-1l.5-.5h1l1-1h3l2.5 2.5v3l3.5 3.5h3l5.5-5.5 5.5 5.5h3l3.5-3.5v-3l2.5-2.5h3l3.5 3.5v3L66.5 36h-3L60 39.5v3l5.5 5.5-5.5 5.5v3l3.5 3.5h3l2.5 2.5v3l-1 1v1l-.5.5h-1l-1 1h-3L60 66.5v-3L56.5 60h-3L48 65.5 42.5 60h-3L36 63.5v3L33.5 69h-3L27 65.5v-3l2.5-2.5h3l3.5-3.5v-3L30.5 48l5.5-5.5v-3L32.5 36h-3ZM43.5 16l4.5 4.5 4.5-4.5-4.5-4.5Zm0 64 4.5 4.5 4.5-4.5-4.5-4.5Z" style="fill:#989aa4;stroke:none"/>
        <path d="m43.5 16 4.5-4.5 4.5 4.5-4.5 4.5Zm0 64 4.5-4.5 4.5 4.5-4.5 4.5Z" style="fill:#b0bac0;stroke:none"/>
        <path d="M71.5 14 82 24.5l2-2v-7L80.5 12h-7Zm0 68 2 2h7l3.5-3.5v-7l-2-2Z" style="fill:#989aa4;stroke:none"/>
        <path d="m71.5 14 2-2h7l3.5 3.5v7l-2 2Zm0 68L82 71.5l2 2v7L80.5 84h-7Z" style="fill:#b0bac0;stroke:none"/>
        <path d="m75.5 48 4.5 4.5 4.5-4.5-4.5-4.5Z" style="fill:#989aa4;stroke:none"/>
        <path d="m75.5 48 4.5-4.5 4.5 4.5-4.5 4.5Z" style="fill:#b0bac0;stroke:none"/>
    </g>
</svg>
