<svg xmlns="http://www.w3.org/2000/svg" width="32" height="32" style="fill-opacity:1;color-rendering:auto;color-interpolation:auto;text-rendering:auto;stroke:#000;stroke-linecap:square;stroke-miterlimit:10;shape-rendering:auto;stroke-opacity:1;fill:#000;stroke-dasharray:none;font-weight:400;stroke-width:1;font-family:&quot;Dialog&quot;;font-style:normal;stroke-linejoin:miter;font-size:12px;stroke-dashoffset:0;image-rendering:auto">
    <g style="stroke-linecap:round;fill:#4a4b53;stroke:#4a4b53">
        <path stroke="none" d="M.5 6V.5H4v9Z" style="stroke:none"/>
    </g>
    <g stroke="none" style="stroke-linecap:round;fill:#8ca9e8;stroke:#8ca9e8">
        <path d="M4 9.5v13L.5 26V6Z" style="stroke:none"/>
        <path d="M4 31.5H.5V26L4 22.5Z" style="fill:#4a4b53;stroke:none"/>
        <path d="M4 9.5v-9h4v13Z" style="fill:#6e7080;stroke:none"/>
        <path d="M8 13.5v5l-4 4v-13Z" style="fill:#d1efff;stroke:none"/>
        <path d="M8 31.5H4v-9l4-4Z" style="fill:#6e7080;stroke:none"/>
        <path d="m10 8.5.5-.5h6l8 8-8 8h-6l-.5-.5 7.5-7.5Z" style="fill:#fff;stroke:none"/>
        <path d="M24 2.5v-2h4L31.5 4v4h-2Zm4 29h-4v-2l5.5-5.5h2v4Z" style="fill:#6e7080;stroke:none"/>
        <path d="M28 .5h3.5V4Z" style="fill:#4a4b53;stroke:none"/>
    </g>
</svg>
