<svg xmlns="http://www.w3.org/2000/svg" width="32" height="32" style="fill-opacity:1;color-rendering:auto;color-interpolation:auto;text-rendering:auto;stroke:#000;stroke-linecap:square;stroke-miterlimit:10;shape-rendering:auto;stroke-opacity:1;fill:#000;stroke-dasharray:none;font-weight:400;stroke-width:1;font-family:&quot;Dialog&quot;;font-style:normal;stroke-linejoin:miter;font-size:12px;stroke-dashoffset:0;image-rendering:auto">
    <g style="stroke-linecap:round;fill:#4a4b53;stroke:#4a4b53">
        <path stroke="none" d="M.5 6V.5H4v8l-.5.5Z" style="stroke:none"/>
    </g>
    <g stroke="none" style="stroke-linecap:round;fill:#6e7080;stroke:#6e7080">
        <path d="m3.5 9 .5-.5v-8h4v31H4v-8l-.5-.5-3 3V6Z" style="stroke:none"/>
        <path d="M4 31.5H.5V26l3-3 .5.5Z" style="fill:#4a4b53;stroke:none"/>
        <path d="m10 8.5.5-.5h6l8 8-8 8h-6l-.5-.5 7.5-7.5Z" style="fill:#fff;stroke:none"/>
        <path d="M24 2.5v-2h4L31.5 4v4h-2Zm4 29h-4v-2l5.5-5.5h2v4Z" style="stroke:none"/>
        <path d="M28 .5h3.5V4Z" style="fill:#4a4b53;stroke:none"/>
    </g>
</svg>
