<svg xmlns="http://www.w3.org/2000/svg" width="32" height="32" style="fill-opacity:1;color-rendering:auto;color-interpolation:auto;text-rendering:auto;stroke:#000;stroke-linecap:square;stroke-miterlimit:10;shape-rendering:auto;stroke-opacity:1;fill:#000;stroke-dasharray:none;font-weight:400;stroke-width:1;font-family:&quot;Dialog&quot;;font-style:normal;stroke-linejoin:miter;font-size:12px;stroke-dashoffset:0;image-rendering:auto">
    <g style="stroke-linecap:round;fill:#4a4b53;stroke:#4a4b53">
        <path stroke="none" d="M.5 4V.5H4Z" style="stroke:none"/>
    </g>
    <g stroke="none" style="stroke-linecap:round;fill:#6e7080;stroke:#6e7080">
        <path d="M.5 8V4L4 .5h4L11.5 4h-4L6 5.5 9.5 9l1-1h11l2.5 2.5v11l-1 1 3.5 3.5 1.5-1.5v-4l3.5 3.5v4L28 31.5h-4l-3-3 .5-.5h3l1.5-1.5-3.5-3.5-1 1h-11L8 21.5v-11l1-1L5.5 6 4 7.5v3l-.5.5Z" style="stroke:none"/>
        <path d="m3.5 11 .5-.5v-3L5.5 6 9 9.5l-1 1v11l2.5 2.5h11l1-1 3.5 3.5-1.5 1.5h-3l-.5.5 3 3H8l3-3-.5-.5h-3L4 24.5v-3l-.5-.5-3 3V8Z" style="fill:#4a4b53;stroke:none"/>
        <path d="M.5 28v-4l3-3 .5.5v3L7.5 28h3l.5.5-3 3H4Z" style="stroke:none"/>
        <path d="M4 31.5H.5V28Z" style="fill:#4a4b53;stroke:none"/>
        <path d="M6 5.5 7.5 4h17L28 7.5v17L26.5 26 23 22.5l1-1v-11L21.5 8h-11l-1 1Z" style="fill:#989aa4;stroke:none"/>
        <path d="M8 .5h16L20.5 4h-9Z" style="fill:#4a4b53;stroke:none"/>
        <path d="M20.5 4 24 .5h4L31.5 4v4L28 11.5v-4L24.5 4Z" style="stroke:none"/>
        <path d="M28 .5h3.5V4Zm0 20v-9L31.5 8v16Z" style="fill:#4a4b53;stroke:none"/>
    </g>
</svg>
