<svg xmlns="http://www.w3.org/2000/svg" width="32" height="32" style="fill-opacity:1;color-rendering:auto;color-interpolation:auto;text-rendering:auto;stroke:#000;stroke-linecap:square;stroke-miterlimit:10;shape-rendering:auto;stroke-opacity:1;fill:#000;stroke-dasharray:none;font-weight:400;stroke-width:1;font-family:&quot;Dialog&quot;;font-style:normal;stroke-linejoin:miter;font-size:12px;stroke-dashoffset:0;image-rendering:auto">
    <g style="stroke-linecap:round;fill:#6e7080;stroke:#6e7080">
        <path stroke="none" d="M.5 6V4L4 .5h2L8.5 3 6 5.5 9.5 9l1-1h11l2.5 2.5v11l-1 1 3.5 3.5 2.5-2.5 2.5 2.5v2L28 31.5h-2L23.5 29l2.5-2.5-3.5-3.5-1 1h-11L8 21.5v-11l1-1L5.5 6 3 8.5Z" style="stroke:none"/>
    </g>
    <g stroke="none" style="stroke-linecap:round;fill:#4a4b53;stroke:#4a4b53">
        <path d="M3 8.5 5.5 6 9 9.5l-1 1v11l2.5 2.5h11l1-1 3.5 3.5-2.5 2.5 2.5 2.5H6L8.5 29 3 23.5.5 26V6Z" style="stroke:none"/>
        <path d="M.5 28v-2L3 23.5 8.5 29 6 31.5H4Z" style="fill:#6e7080;stroke:none"/>
        <path d="M6 .5h20L23.5 3 29 8.5 31.5 6v20L29 23.5 26.5 26 23 22.5l1-1v-11L21.5 8h-11l-1 1L6 5.5 8.5 3Z" style="fill:#989aa4;stroke:none"/>
        <path d="M23.5 3 26 .5h2L31.5 4v2L29 8.5Z" style="fill:#6e7080;stroke:none"/>
    </g>
</svg>
