<svg xmlns="http://www.w3.org/2000/svg" width="32" height="32" style="fill-opacity:1;color-rendering:auto;color-interpolation:auto;text-rendering:auto;stroke:#000;stroke-linecap:square;stroke-miterlimit:10;shape-rendering:auto;stroke-opacity:1;fill:#000;stroke-dasharray:none;font-weight:400;stroke-width:1;font-family:&quot;Dialog&quot;;font-style:normal;stroke-linejoin:miter;font-size:12px;stroke-dashoffset:0;image-rendering:auto">
    <g style="stroke-linecap:round;fill:#4a4b53;stroke:#4a4b53">
        <path stroke="none" d="M.5 4V.5H4Z" style="stroke:none"/>
    </g>
    <g stroke="none" style="stroke-linecap:round;fill:#6e7080;stroke:#6e7080">
        <path d="M.5 8V4L4 .5h4V3h-.5l-5 5Zm0 20v-4H3v.5l5 5v2H4Z" style="stroke:none"/>
        <path d="M4 31.5H.5V28Z" style="fill:#4a4b53;stroke:none"/>
        <path d="M9.5 8h7l8 8-8 8h-7l8-8Z" style="fill:#fff;stroke:none"/>
        <path d="M24 2.5v-2h4L31.5 4v4H29v-.5Zm4 29h-4v-2l5.5-5.5h2v4Z" style="stroke:none"/>
        <path d="M28 .5h3.5V4Z" style="fill:#4a4b53;stroke:none"/>
    </g>
</svg>
