<svg xmlns="http://www.w3.org/2000/svg" width="32" height="32" style="fill-opacity:1;color-rendering:auto;color-interpolation:auto;text-rendering:auto;stroke:#000;stroke-linecap:square;stroke-miterlimit:10;shape-rendering:auto;stroke-opacity:1;fill:#000;stroke-dasharray:none;font-weight:400;stroke-width:1;font-family:&quot;Dialog&quot;;font-style:normal;stroke-linejoin:miter;font-size:12px;stroke-dashoffset:0;image-rendering:auto">
    <g style="stroke-linecap:round;fill:#4a4b53;stroke:#4a4b53">
        <path stroke="none" d="M.5 11V6L3 3.5l4 4-1 1v2l2 2v7l-2 2v2L8.5 26h2l2-2h7l2 2h2l1-1 4 4-2.5 2.5h-5L17.5 28h-3L11 31.5H6L.5 26v-5L4 17.5v-3Z" style="stroke:none"/>
    </g>
    <g stroke="none" style="stroke-linecap:round;fill:#6e7080;stroke:#6e7080">
        <path d="M4 14.5v3L.5 21V11Zm0-10-1-1 .5-.5.5.5Z" style="stroke:none"/>
        <path d="M3.5 3 6 .5h5L14.5 4h3L21 .5h5L31.5 6v5L28 14.5v3l3.5 3.5v5L29 28.5l-4-4 1-1v-2l-2-2v-7l2-2v-2L23.5 6h-2l-2 2h-7l-2-2h-2l-1 1Z" style="fill:#989aa4;stroke:none"/>
        <path d="m6 6.5-3-3 .5-.5L6 5.5Z" style="stroke:none"/>
        <path d="M6 10.5v-2l1-1-4-4 .5-.5 4 4 1-1h2l2 2h7l2-2h2L26 8.5v2l-2 2v7l2 2v2l-1 1 4 4-.5.5-4-4-1 1h-2l-2-2h-7l-2 2h-2L6 23.5v-2l2-2v-7Zm5-10h10L17.5 4h-3Zm10 31H11l3.5-3.5h3Zm7-14v-3l3.5-3.5v10Z" style="stroke:none"/>
    </g>
</svg>
