<svg xmlns="http://www.w3.org/2000/svg" width="32" height="32" style="fill-opacity:1;color-rendering:auto;color-interpolation:auto;text-rendering:auto;stroke:#000;stroke-linecap:square;stroke-miterlimit:10;shape-rendering:auto;stroke-opacity:1;fill:#000;stroke-dasharray:none;font-weight:400;stroke-width:1;font-family:&quot;Dialog&quot;;font-style:normal;stroke-linejoin:miter;font-size:12px;stroke-dashoffset:0;image-rendering:auto">
    <g style="stroke-linecap:round;fill:#d4816b;stroke:#d4816b">
        <path stroke="none" d="M.5 4 4 7.5v6l-.5.5-3-3V.5H4Z" style="stroke:none"/>
    </g>
    <g stroke="none" style="stroke-linecap:round;fill:#4a4b53;stroke:#4a4b53">
        <path d="m3.5 14 .5-.5v-6L5.5 6 9 9.5l-1 1v11l2.5 2.5h11l1-1 3.5 3.5-1.5 1.5h-6l-.5.5 3 3H11l3-3-.5-.5h-6L4 24.5v-6l-.5-.5-3 3V11Z" style="stroke:none"/>
        <path d="M.5 4 4 .5 7.5 4 4 7.5Z" style="fill:#eab678;stroke:none"/>
        <path d="M4 24.5 7.5 28h6l.5.5-3 3H.5V21l3-3 .5.5Z" style="fill:#d4816b;stroke:none"/>
        <path d="M4 .5h7l3 3-.5.5h-6Z" style="fill:#ffd37f;stroke:none"/>
        <path d="M6 5.5 7.5 4h6l.5-.5-3-3h10l-3 3 .5.5h6L28 7.5v6l.5.5 3-3v10l-3-3-.5.5v6L26.5 26 23 22.5l1-1v-11L21.5 8h-11l-1 1Z" style="fill:#989aa4;stroke:none"/>
        <path d="M7 7.5 5.5 6l.5-.5 1 1Z" style="fill:#6e7080;stroke:none"/>
        <path d="M9 9.5 5.5 6l.5-.5 3 3Z" style="fill:#6e7080;stroke:none"/>
        <path d="M8 21.5v-11l1-1L5.5 6l.5-.5L9.5 9l1-1h11l2.5 2.5v11l-1 1 3.5 3.5-.5.5-3.5-3.5-1 1h-11Z" style="fill:#6e7080;stroke:none"/>
        <path d="m18.5 4-.5-.5 3-3h7L31.5 4v7l-3 3-.5-.5v-6L24.5 4Z" style="fill:#ffd37f;stroke:none"/>
        <path d="m18 28.5.5-.5h6l3.5 3.5 3.5-3.5v3.5H21Z" style="fill:#d4816b;stroke:none"/>
        <path d="m24.5 28 3.5-3.5 3.5 3.5-3.5 3.5Z" style="fill:#eab678;stroke:none"/>
        <path d="M28 .5h3.5V4Z" style="fill:#d4816b;stroke:none"/>
        <path d="M31.5 21v7L28 24.5v-6l.5-.5Z" style="fill:#ffd37f;stroke:none"/>
    </g>
</svg>
