<svg xmlns="http://www.w3.org/2000/svg" width="58" height="39" style="fill-opacity:1;color-rendering:auto;color-interpolation:auto;text-rendering:auto;stroke:#000;stroke-linecap:square;stroke-miterlimit:10;shape-rendering:auto;stroke-opacity:1;fill:#000;stroke-dasharray:none;font-weight:400;stroke-width:1;font-family:&quot;Dialog&quot;;font-style:normal;stroke-linejoin:miter;font-size:12px;stroke-dashoffset:0;image-rendering:auto">
    <g style="stroke-linecap:round;fill:#6e7080;stroke:#6e7080">
        <path stroke="none" d="M26 27V13.5l.5-.5h13l2.5 2.5v6L39.5 19h-5l-.5.5v5l3.5 3.5h4l-3 3h-2l-4-4Z" style="stroke:none"/>
    </g>
    <g stroke="none" style="stroke-linecap:round;fill:#ffcbdd;stroke:#ffcbdd">
        <path d="M34 24.5v-5l.5-.5h5l2.5 2.5V28h-4.5Z" style="stroke:none"/>
        <path d="m39 30.5 2.5-2.5h1l2 2h6l.5-.5v-5L48.5 22H42v-5h7.5l3.5 3.5v12l-.5.5h-11Z" style="fill:#4a4b53;stroke:none"/>
        <path d="M42.5 28H42v-6h6.5l2.5 2.5v5l-.5.5h-6Z" style="fill:#bb68c3;stroke:none"/>
    </g>
</svg>
