<svg xmlns="http://www.w3.org/2000/svg" width="96" height="96" style="fill-opacity:1;color-rendering:auto;color-interpolation:auto;text-rendering:auto;stroke:#000;stroke-linecap:square;stroke-miterlimit:10;shape-rendering:auto;stroke-opacity:1;fill:#000;stroke-dasharray:none;font-weight:400;stroke-width:1;font-family:&quot;Dialog&quot;;font-style:normal;stroke-linejoin:miter;font-size:12px;stroke-dashoffset:0;image-rendering:auto">
    <g style="stroke-linecap:round;fill:#6e7080;stroke:#6e7080">
        <path stroke="none" d="M48 45v-5.5l3-3v-5l6.5-6.5-7.5-7.5v-9l.5-.5H54v7.5l9 9v1l-7 7v6L49.5 45Z" style="stroke:none"/>
    </g>
    <g stroke="none" style="stroke-linecap:round;fill:#4a4b53;stroke:#4a4b53">
        <path d="m48.5 51-.5-.5V45h1.5l4.5-4.5 7 7-3.5 3.5ZM54 15.5V8h2.5L73 24.5v11l-8 8-9-9v-2l1.5-1.5 4.5 4.5 5.5-5.5-4.5-4.5v-1Z" style="stroke:none"/>
        <path d="m54 40.5 2-2v-4l9 9-4 4Zm3.5-9.5 5.5-5.5 4.5 4.5-5.5 5.5Z" style="fill:#bb68c3;stroke:none"/>
    </g>
</svg>
