<svg xmlns="http://www.w3.org/2000/svg" width="96" height="96" style="fill-opacity:1;color-rendering:auto;color-interpolation:auto;text-rendering:auto;stroke:#000;stroke-linecap:square;stroke-miterlimit:10;shape-rendering:auto;stroke-opacity:1;fill:#000;stroke-dasharray:none;font-weight:400;stroke-width:1;font-family:&quot;Dialog&quot;;font-style:normal;stroke-linejoin:miter;font-size:12px;stroke-dashoffset:0;image-rendering:auto">
    <g style="stroke-linecap:round;fill:#4a4b53;stroke:#4a4b53">
        <path stroke="none" d="m4.5 45-.5-.5v-12L7.5 29H15v5H8.5L6 36.5v5l.5.5h6l2-2h1l2.5 2.5-2.5 2.5Z" style="stroke:none"/>
    </g>
    <g stroke="none" style="stroke-linecap:round;fill:#bb68c3;stroke:#bb68c3">
        <path d="m6.5 42-.5-.5v-5L8.5 34H15v6h-.5l-2 2Z" style="stroke:none"/>
        <path d="M6 62.5v-3L20.5 45l8.5 8.5 13-13 4.5 4.5h1l.5.5v2l.5.5h1l10 10-.5.5v8l.5.5L49 77.5l-1-1v-4l7-7v-6l-7-7v-4l-1-1L36.5 58l-3-3-8.5 8.5-3.5-3.5 4-4-5-5-10 10 8.5 8.5-3 3Z" style="fill:#4a4b53;stroke:none"/>
        <path d="m10.5 61 10-10 5 5-10 10Z" style="stroke:none"/>
        <path d="M15 33.5v-6l2.5-2.5H23v6h-5.5Z" style="fill:#6e7080;stroke:none"/>
        <path d="M15 40v-6.5l2.5-2.5H23v4.5l.5.5-4 4Z" style="fill:#ffcbdd;stroke:none"/>
        <path d="M15.5 40h4l4-4L35 47.5l-6 6Zm0 26 6-6 3.5 3.5-6 6Z" style="fill:#6e7080;stroke:none"/>
        <path d="M23 35.5v-11L39.5 8H42v7.5l-9 9v1L28.5 30l5.5 5.5 4.5-4.5 1.5 1.5v2l-9 9Zm1 41v-2l5.5-5.5 8.5 8.5v7l-3 3-3-3 3.5-3.5-6.5-6.5-3.5 3.5Z" style="fill:#4a4b53;stroke:none"/>
        <path d="m24.5 64 9-9 3.5 3.5v1l-4 4L44.5 75l-.5.5v6l3.5 3.5h.5v5h-4.5L38 84.5v-7Z" style="stroke:none"/>
        <path d="m25.5 78 3.5-3.5 6.5 6.5-3.5 3.5Z" style="fill:#6e7080;stroke:none"/>
        <path d="m28.5 30 4.5-4.5 5.5 5.5-4.5 4.5ZM31 43.5l9-9v4l2 2-7 7Z" style="stroke:none"/>
        <path d="M33 25.5v-1l9-9V8h3.5l.5.5v9L38.5 25l6.5 6.5v5l3 3v5l1 1 5-5 13 13 8.5-8.5L90 59.5v3l-10 10-3-3 8.5-8.5-10-10-5 5 4 4-3.5 3.5-8.5-8.5-3 3-10-10h-1l-.5-.5v-2l-.5-.5h-1L40 38.5v-6Z" style="fill:#6e7080;stroke:none"/>
        <path d="m33 63.5 4-4v7l-.5.5Z" style="fill:#4a4b53;stroke:none"/>
        <path d="m36.5 67 .5-.5v-8l-.5-.5L47 47.5l1 1v4l-7 7v6l7 7v4l1 1 2.5-2.5.5.5v6L48.5 85H48v-7.5l-.5-.5h-1Z" style="fill:#6e7080;stroke:none"/>
        <path d="M41 65.5v-6l7-7 7 7v6l-7 7Z" style="fill:#2c2d38;stroke:none"/>
        <path d="M46.5 77h1l.5.5V85h-.5L44 81.5v-6l.5-.5Z" style="fill:#4a4b53;stroke:none"/>
        <path d="M48 90v-5h.5l3.5-3.5v-6l-.5-.5L63 63.5l-4-4v-1l3.5-3.5 9 9L58 77.5v7L52.5 90Z" style="fill:#ffcbdd;stroke:none"/>
        <path d="m49 45.5-1-1v-5l3-3v-5l6.5-6.5-7.5-7.5v-9l.5-.5H54v7.5l9 9v1l-7 7v6Z" style="fill:#4a4b53;stroke:none"/>
        <path d="M54 15.5V8h2.5L73 24.5v11l-8 8-9-9v-2l1.5-1.5 4.5 4.5 5.5-5.5-4.5-4.5v-1Z" style="fill:#6e7080;stroke:none"/>
        <path d="m54 40.5 2-2v-4l9 9-4 4Zm3.5-9.5 5.5-5.5 4.5 4.5-5.5 5.5Z" style="fill:#ffcbdd;stroke:none"/>
        <path d="M58 84.5v-7l8.5-8.5 5.5 5.5v2L70.5 78 67 74.5 60.5 81l3.5 3.5-3 3Zm5-21L59.5 67l-.5-.5v-7Z" style="fill:#6e7080;stroke:none"/>
        <path d="M61 47.5 72.5 36l4 4h4L67 53.5ZM60.5 81l6.5-6.5 3.5 3.5-6.5 6.5Z" style="fill:#4a4b53;stroke:none"/>
        <path d="m70.5 56 5-5 10 10-5 5Z" style="fill:#ffcbdd;stroke:none"/>
        <path d="m71 63.5 3.5-3.5 6 6-3.5 3.5ZM73 31v-6h5.5l2.5 2.5v6L78.5 31Z" style="fill:#4a4b53;stroke:none"/>
        <path d="m72.5 36 .5-.5V31h5.5l2.5 2.5V40h-4.5Z" style="stroke:none"/>
        <path d="m78 42.5 2.5-2.5h1l2 2h6l.5-.5v-5L87.5 34H81v-5h7.5l3.5 3.5v12l-.5.5h-11Z" style="fill:#6e7080;stroke:none"/>
        <path d="M81.5 40H81v-6h6.5l2.5 2.5v5l-.5.5h-6Z" style="fill:#ffcbdd;stroke:none"/>
    </g>
</svg>
