<svg xmlns="http://www.w3.org/2000/svg" width="96" height="96" style="fill-opacity:1;color-rendering:auto;color-interpolation:auto;text-rendering:auto;stroke:#000;stroke-linecap:square;stroke-miterlimit:10;shape-rendering:auto;stroke-opacity:1;fill:#000;stroke-dasharray:none;font-weight:400;stroke-width:1;font-family:&quot;Dialog&quot;;font-style:normal;stroke-linejoin:miter;font-size:12px;stroke-dashoffset:0;image-rendering:auto">
    <g style="stroke-linecap:round;fill:#6e7080;stroke:#6e7080">
        <path stroke="none" d="M.5 1V.5H1L14.5 14l-.5.5Z" style="stroke:none"/>
    </g>
    <g stroke="none" style="stroke-linecap:round;fill:#4a4b53;stroke:#4a4b53">
        <path d="m13.5 14-4 4-9-9V1Z" style="stroke:none"/>
        <path d="M1 .5h8l9 9-4 4Z" style="fill:#989aa4;stroke:none"/>
        <path d="M9 95.5H.5V87l9-9 8.5 8.5Z" style="stroke:none"/>
        <path d="m9.5 18 4-4 6 6-4 4Zm0 60 6-6 8.5 8.5-6 6Z" style="fill:#7c514a;stroke:none"/>
        <path d="m14 13.5 4-4 6 6-4 4Z" style="fill:#e3a76a;stroke:none"/>
        <path d="m15 15.5-1-1 .5-.5.5.5Z" style="fill:#9c6d57;stroke:none"/>
        <path d="m17 17.5-3-3 .5-.5 2.5 2.5Z" style="fill:#9c6d57;stroke:none"/>
        <path d="m15.5 24 4-4 5.5 5.5-4 4Z" style="stroke:none"/>
    </g>
    <g style="fill:#000;fill-opacity:.0039;stroke-opacity:.0039;stroke-linecap:round;stroke:#000">
        <path stroke="none" d="M16.5 36H16v-.5l5.5-5.5.5.5Z" style="stroke:none"/>
    </g>
    <g style="stroke-linecap:round;fill:#4a4b53;stroke:#4a4b53">
        <path stroke="none" d="M16 59.5V36h.5l5.5-5.5 5.5 5.5-5.5 5.5v13l5.5 5.5-5.5 5.5Z" style="stroke:none"/>
    </g>
    <g style="fill:#000;fill-opacity:.0039;stroke-opacity:.0039;stroke-linecap:round;stroke:#000">
        <path stroke="none" d="m17 61.5-1-1v-1l1 1Z" style="stroke:none"/>
    </g>
    <g stroke="none" style="stroke-linecap:round;fill:#4a4b53;stroke:#4a4b53">
        <path d="m15.5 72 5.5-5.5 8.5 8.5-5.5 5.5Z" style="stroke:none"/>
        <path d="m19 19.5-5-5 .5-.5 4.5 4.5Z" style="fill:#9c6d57;stroke:none"/>
    </g>
    <g style="fill:#000;fill-opacity:.0039;stroke-opacity:.0039;stroke-linecap:round;stroke:#000">
        <path stroke="none" d="m19 63.5-3-3v-1l3 3Z" style="stroke:none"/>
    </g>
    <g stroke="none" style="stroke-linecap:round;fill:#989aa4;stroke:#989aa4">
        <path d="m20 19.5 4-4 5.5 5.5-4 4Z" style="stroke:none"/>
        <path d="m21 21.5-1-1 .5-.5.5.5Z" style="fill:#6e7080;stroke:none"/>
    </g>
    <g style="fill:#000;fill-opacity:.0039;stroke-opacity:.0039;stroke-linecap:round;stroke:#000">
        <path stroke="none" d="m21 65.5-5-5v-1l5 5Z" style="stroke:none"/>
    </g>
    <g stroke="none" style="stroke-linecap:round;fill:#6e7080;stroke:#6e7080">
        <path d="m21 29.5 4-4-5-5 .5-.5 5 5 4-4 6.5 6.5-4 4 4 4-.5.5-4-4-4 4Zm0 37 6.5-6.5 8.5 8.5-6.5 6.5Z" style="stroke:none"/>
        <path d="M22 54.5v-13l9.5-9.5 4 4-7.5 7.5v9L43.5 68h9l7.5-7.5 4 4-9.5 9.5h-13Z" style="fill:#989aa4;stroke:none"/>
    </g>
    <g stroke="none" style="fill:#000;fill-opacity:.0039;stroke-opacity:.0039;stroke-linecap:round;stroke:#000">
        <path d="m29 46.5.5.5.5-.5v-3l-.5-.5-.5.5Zm0 3v3l.5.5.5-.5v-3l-.5-.5ZM30.5 22l-.5-.5 5.5-5.5h1Z" style="stroke:none"/>
        <path d="M28 52.5v-9l5.5-5.5.5.5v19l-.5.5Zm3 23-1-1 .5-.5.5.5Z" style="stroke:none"/>
    </g>
    <g stroke="none" style="stroke-linecap:round;fill:#989aa4;stroke:#989aa4">
        <path d="m30.5 22 6-6H60v.5l5.5 5.5-5.5 5.5-5.5-5.5h-13L36 27.5Z" style="stroke:none"/>
        <path d="m30.5 74 5.5-5.5 5.5 5.5h13l5.5-5.5 5.5 5.5-6 6H36v-.5ZM32 31.5l9.5-9.5h13L74 41.5v13L64.5 64l-4-4 7.5-7.5v-9L52.5 28h-9L36 35.5Z" style="fill:#4a4b53;stroke:none"/>
    </g>
    <g stroke="none" style="fill:#000;fill-opacity:.0039;stroke-opacity:.0039;stroke-linecap:round;stroke:#000">
        <path d="m33 77.5-3-3 .5-.5 2.5 2.5Z" style="stroke:none"/>
        <path d="m35 79.5-5-5 .5-.5 4.5 4.5ZM38.5 34l-.5-.5 5.5-5.5h9l5.5 5.5-.5.5ZM38 62.5l.5-.5h19l.5.5-5.5 5.5h-9Z" style="stroke:none"/>
        <path d="m43.5 66-.5.5.5.5h3l.5-.5-.5-.5Zm6-36h3l.5-.5-.5-.5h-3l-.5.5ZM49 66.5l.5.5h3l.5-.5-.5-.5h-3Zm12-49-1-1V16h.5l.5.5Z" style="stroke:none"/>
    </g>
    <g stroke="none" style="stroke-linecap:round;fill:#6e7080;stroke:#6e7080">
        <path d="m60 27.5 6.5-6.5 8.5 8.5-6.5 6.5Zm1 34-1-1 .5-.5.5.5Z" style="stroke:none"/>
        <path d="m60 68.5 4-4-4-4 .5-.5 4 4 4-4 6.5 6.5-4 4 5.5 5.5-.5.5-5.5-5.5-4 4Z" style="stroke:none"/>
    </g>
    <g stroke="none" style="fill:#000;fill-opacity:.0039;stroke-opacity:.0039;stroke-linecap:round;stroke:#000">
        <path d="M60.5 80h-1l6-6 .5.5ZM63 19.5l-3-3V16h.5l2.5 2.5Zm5 24v9L62.5 58l-.5-.5v-19l.5-.5Z" style="stroke:none"/>
        <path d="m65 21.5-5-5V16h.5l4.5 4.5Zm1 25 .5.5.5-.5v-3l-.5-.5-.5.5Zm0 3v3l.5.5.5-.5v-3l-.5-.5Z" style="stroke:none"/>
    </g>
    <g stroke="none" style="stroke-linecap:round;fill:#989aa4;stroke:#989aa4">
        <path d="m66.5 21 5.5-5.5 8.5 8.5-5.5 5.5Z" style="stroke:none"/>
        <path d="m66.5 75 4-4 5.5 5.5-4 4Z" style="fill:#4a4b53;stroke:none"/>
        <path d="m68.5 36 5.5-5.5 6 6V60h-.5L74 65.5 68.5 60l5.5-5.5v-13ZM71 70.5l4-4 5.5 5.5-4 4Z" style="stroke:none"/>
        <path d="m72 15.5 6-6 8.5 8.5-6 6Z" style="fill:#e3a76a;stroke:none"/>
        <path d="m72 80.5 4-4 6 6-4 4Z" style="fill:#7c514a;stroke:none"/>
    </g>
    <g stroke="none" style="fill:#000;fill-opacity:.0039;stroke-opacity:.0039;stroke-linecap:round;stroke:#000">
        <path d="m75 31.5-1-1 .5-.5.5.5ZM74.5 66l-.5-.5 5.5-5.5h.5v.5Z" style="stroke:none"/>
        <path d="m77 33.5-3-3 .5-.5 2.5 2.5Z" style="stroke:none"/>
    </g>
    <g stroke="none" style="stroke-linecap:round;fill:#9c6d57;stroke:#9c6d57">
        <path d="m77 77.5-1-1 .5-.5.5.5Z" style="stroke:none"/>
        <path d="m76.5 76 4-4 6 6-4 4Z" style="fill:#e3a76a;stroke:none"/>
        <path d="m78 9.5 9-9h8.5V9l-9 9Z" style="fill:#989aa4;stroke:none"/>
    </g>
    <g style="fill:#000;fill-opacity:.0039;stroke-opacity:.0039;stroke-linecap:round;stroke:#000">
        <path stroke="none" d="m79 35.5-5-5 .5-.5 4.5 4.5Z" style="stroke:none"/>
    </g>
    <g stroke="none" style="stroke-linecap:round;fill:#9c6d57;stroke:#9c6d57">
        <path d="m79 79.5-3-3 .5-.5 2.5 2.5Z" style="stroke:none"/>
        <path d="m78 86.5 4-4 13 13h-8Z" style="fill:#4a4b53;stroke:none"/>
        <path d="m81 81.5-5-5 .5-.5 4.5 4.5Z" style="stroke:none"/>
        <path d="m83 83.5-1-1 .5-.5.5.5Z" style="fill:#6e7080;stroke:none"/>
        <path d="m82.5 82 4-4 9 9v8Z" style="fill:#989aa4;stroke:none"/>
        <path d="m85 85.5-3-3 .5-.5 2.5 2.5Z" style="fill:#6e7080;stroke:none"/>
        <path d="m87 87.5-5-5 .5-.5 4.5 4.5Z" style="fill:#6e7080;stroke:none"/>
        <path d="m89 89.5-7-7 .5-.5 6.5 6.5Z" style="fill:#6e7080;stroke:none"/>
        <path d="m91 91.5-9-9 .5-.5 8.5 8.5Z" style="fill:#6e7080;stroke:none"/>
        <path d="m93 93.5-11-11 .5-.5L93 92.5Z" style="fill:#6e7080;stroke:none"/>
        <path d="m95 95.5-13-13 .5-.5L95 94.5Z" style="fill:#6e7080;stroke:none"/>
    </g>
</svg>
