<svg xmlns="http://www.w3.org/2000/svg" width="160" height="160" style="fill-opacity:1;color-rendering:auto;color-interpolation:auto;text-rendering:auto;stroke:#000;stroke-linecap:square;stroke-miterlimit:10;shape-rendering:auto;stroke-opacity:1;fill:#000;stroke-dasharray:none;font-weight:400;stroke-width:1;font-family:&quot;Dialog&quot;;font-style:normal;stroke-linejoin:miter;font-size:12px;stroke-dashoffset:0;image-rendering:auto">
    <g style="stroke-linecap:round;fill:#6e7080;stroke:#6e7080">
        <path stroke="none" d="M.5 1V.5H1l17 17 10-10 8.5 8.5h-5L24 23.5l5 5v.5h-.5l-5-5-7.5 7.5v5L7.5 28l10-10Z" style="stroke:none"/>
    </g>
    <g stroke="none" style="stroke-linecap:round;fill:#4a4b53;stroke:#4a4b53">
        <path d="m17.5 18-10 10-7-7V1Z" style="stroke:none"/>
        <path d="M7.5 28 6 29.5v11L.5 35V21Z" style="fill:#bc5452;stroke:none"/>
        <path d="M6 40.5v20l6 6V74h-.5L.5 63V35Z" style="stroke:none"/>
        <path d="M11.5 74h.5v12h-.5L.5 97V63Z" style="fill:#bc5452;stroke:none"/>
        <path d="M.5 125V97l11-11h.5v7.5l-6 6v20Z" style="stroke:none"/>
        <path d="M.5 139v-14l5.5-5.5v11l1.5 1.5Z" style="fill:#bc5452;stroke:none"/>
        <path d="M1 .5h20l7 7-10 10Z" style="fill:#989aa4;stroke:none"/>
        <path d="M6 41.5v-12L7.5 28l8.5 8.5v1l-7 7Z" style="fill:#ea8878;stroke:none"/>
        <path d="m9 44.5 6.5-6.5 4.5 4.5-8 8 3 3-4 4v3l7 7V72h-3.5l-2 2H12v-7.5l-6-6v-19Zm-3 74v-19l6-6V86h.5l2 2H18v4.5l-7 7v3l4 4-3 3 8 8-4.5 4.5-6.5-6.5Z" style="fill:#6e7080;stroke:none"/>
        <path d="M6 130.5v-12l3-3 7 7v1L7.5 132Z" style="fill:#ea8878;stroke:none"/>
        <path d="m28 152.5-7 7H.5V139l7-7Z" style="stroke:none"/>
        <path d="m7.5 132 8.5-8.5v5L31.5 144h5l-8.5 8.5Z" style="fill:#6e7080;stroke:none"/>
        <path d="M11 60.5v-3l4-4 3.5 3.5H21v2.5l6 6v13L20.5 72H18v-4.5Zm0 42v-3l7-7V88h2.5l6.5-6.5v13l-6 6v2.5h-2.5l-3.5 3.5Z" style="fill:#989aa4;stroke:none"/>
        <path d="m12 50.5 8.5-8.5 3 3-8.5 8.5Zm.5 35.5H12V74h.5l2-2H18v16h-3.5Zm-.5 23.5 3-3 8.5 8.5-3 3Z" style="fill:#ea8878;stroke:none"/>
        <path d="m15 53.5 8.5-8.5 4.5 4.5-7 7v.5h-2.5Zm0 53 3.5-3.5H21v.5l7 7-4.5 4.5Z" style="fill:#feb380;stroke:none"/>
        <path d="m15.5 38 .5-.5v-6l7.5-7.5 5 5h.5v.5l-6 6v2l7 7v3l-2 2-7.5-7.5-.5.5Zm.5 90.5v-6l-.5-.5 4.5-4.5.5.5 7.5-7.5 2 2v3l-7 7v2L35.5 137h2l7-7h3l2 2-7.5 7.5.5.5-4.5 4.5-.5-.5h-6Z" style="fill:#989aa4;stroke:none"/>
        <path d="M18 88V72h2.5l6.5 6.5v3L20.5 88ZM21 .5h14L40.5 6h-11L28 7.5Z" style="fill:#feb380;stroke:none"/>
        <path d="M21 59.5v-3l9-9v-3l-7-7v-2l2.5-2.5 7.5 7.5 7.5-7.5-7.5-7.5 2.5-2.5h2l7 7h3l9-9h3l6 6h29l6-6h3l9 9h3l7-7h2l2.5 2.5-7.5 7.5 7.5 7.5 7.5-7.5 2.5 2.5v2l-7 7v3l9 9v3l-6 6v29l6 6v3l-9 9v3l7 7v2l-2.5 2.5-7.5-7.5-7.5 7.5 7.5 7.5-2.5 2.5h-2l-7-7h-3l-9 9h-3l-6-6h-29l-6 6h-3l-9-9h-3l-7 7h-2l-2.5-2.5 7.5-7.5-7.5-7.5-7.5 7.5-2.5-2.5v-2l7-7v-3l-9-9v-3l6-6v-29Z" style="fill:#2e2f34;stroke:none"/>
        <path d="m24 23.5 7.5-7.5h6l.5-.5 4.5 4.5-.5.5 7.5 7.5-2 2h-3l-7-7h-2L33 25.5l7.5 7.5-7.5 7.5-7.5-7.5 3.5-3.5v-1ZM25.5 127l7.5-7.5 7.5 7.5-7.5 7.5Z" style="stroke:none"/>
        <path d="M28 7.5 29.5 6h11L44 9.5 37.5 16h-1Zm0 145 8.5-8.5h1l6.5 6.5-3.5 3.5h-11Z" style="fill:#ea8878;stroke:none"/>
        <path d="M29.5 154h11l-5.5 5.5H21l7-7Z" style="fill:#bc5452;stroke:none"/>
        <path d="M35 .5h28l11 11v.5h-7.5l-6-6h-20Z" style="fill:#989aa4;stroke:none"/>
        <path d="m38 15.5 6-6L40.5 6h20l6 6H74v.5l-2 2V18h-4.5l-7-7h-3l-4 4-3-3-8 8Zm0 129 4.5-4.5 8 8 3-3 4 4h3l7-7H72v3.5l2 2v.5h-7.5l-6 6h-20l3.5-3.5Z" style="fill:#6e7080;stroke:none"/>
        <path d="m42 20.5 8.5-8.5 3 3-8.5 8.5Zm0 119 3-3 8.5 8.5-3 3Z" style="fill:#ea8878;stroke:none"/>
        <path d="M45 48.5v4l3 3v3l3 3L61.5 51l-3-3h-3l-3-3h-4ZM44.5 80l7 7h2l5.5-5.5v-3L53.5 73h-2Zm.5 27.5v4l3.5 3.5h4l3-3h3l3-3L51 98.5l-3 3v3Z" style="fill:#2e2f34;stroke:none"/>
        <path d="m45 23.5 8.5-8.5 3.5 3.5V21h-.5l-7 7Z" style="fill:#c45f5f;stroke:none"/>
        <path d="M45 52.5v-4l3.5-3.5h4l3 3h3l3 3L51 61.5l-3-3v-3ZM44.5 80l7-7h2l5.5 5.5v3L53.5 87h-2Zm.5 31.5v-4l3-3v-3l3-3L61.5 109l-3 3h-3l-3 3h-4Z" style="stroke:none"/>
        <path d="m45 136.5 4.5-4.5 7 7h.5v2.5l-3.5 3.5Z" style="fill:#feb380;stroke:none"/>
        <path d="m53.5 15 4-4h3l7 7H72v2.5l6.5 6.5h-13l-6-6H57v-2.5Z" style="stroke:none"/>
        <path d="m53.5 145 3.5-3.5V139h2.5l6-6h13l-6.5 6.5v2.5h-4.5l-7 7h-3Z" style="fill:#989aa4;stroke:none"/>
        <path d="m56.5 67 6 6h2l8.5-8.5v-2l-6-6Zm0 26L67 103.5l6-6v-2L64.5 87h-2Z" style="fill:#2e2f34;stroke:none"/>
        <path d="M56.5 67 67 56.5l6 6v2L64.5 73h-2Zm0 26 6-6h2l8.5 8.5v2l-6 6Zm6.5 66.5H35l5.5-5.5h20l6-6H74v.5Z" style="stroke:none"/>
        <path d="M63 .5h34l-11 11v.5H74v-.5Z" style="fill:#feb380;stroke:none"/>
        <path d="M65.5 80 80 94.5 94.5 80 80 65.5Z" style="fill:#2e2f34;stroke:none"/>
        <path d="M65.5 80 80 65.5 94.5 80 80 94.5Z" style="stroke:none"/>
        <path d="M72 18v-3.5l2-2V12h12v.5l2 2V18Z" style="fill:#ea8878;stroke:none"/>
        <path d="M72 20.5V18h16v2.5L81.5 27h-3Z" style="fill:#c45f5f;stroke:none"/>
        <path d="M73 51.5v2l5.5 5.5h3l5.5-5.5v-2l-7-7Zm0 55v2l7 7 7-7v-2l-5.5-5.5h-3Z" style="fill:#2e2f34;stroke:none"/>
        <path d="M72 142v-2.5l6.5-6.5h3l6.5 6.5v2.5Z" style="fill:#feb380;stroke:none"/>
        <path d="M72 145.5V142h16v3.5l-2 2v.5H74v-.5Z" style="fill:#ea8878;stroke:none"/>
        <path d="M73 53.5v-2l7-7 7 7v2L81.5 59h-3Zm0 55v-2l5.5-5.5h3l5.5 5.5v2l-7 7ZM81.5 27l6.5-6.5V18h4.5l7-7h3l4 4-3.5 3.5V21h-2.5l-6 6Z" style="stroke:none"/>
        <path d="M81.5 133h13l6 6h2.5v2.5l3.5 3.5-4 4h-3l-7-7H88v-2.5Z" style="fill:#989aa4;stroke:none"/>
        <path d="M97 159.5H63l11-11v-.5h12v.5Z" style="fill:#bc5452;stroke:none"/>
        <path d="M86 12v-.5l11-11h28L119.5 6h-20l-6 6Z" style="fill:#989aa4;stroke:none"/>
        <path d="M86 12.5V12h7.5l6-6h20L116 9.5l6 6-4.5 4.5-8-8-3 3-4-4h-3l-7 7H88v-3.5Z" style="fill:#6e7080;stroke:none"/>
        <path d="M87 62.5v2l8.5 8.5h2l6-6L93 56.5Zm0 33v2l6 6L103.5 93l-6-6h-2Z" style="fill:#2e2f34;stroke:none"/>
        <path d="M86 148v-.5l2-2V142h4.5l7 7h3l4-4 3 3 8-8 4.5 4.5-6 6 3.5 3.5h-20l-6-6Z" style="fill:#6e7080;stroke:none"/>
        <path d="M86 148.5v-.5h7.5l6 6h20l5.5 5.5H97Zm1-84v-2l6-6L103.5 67l-6 6h-2Zm0 33v-2l8.5-8.5h2l6 6L93 103.5Z" style="stroke:none"/>
        <path d="M98.5 51 109 61.5l3-3v-3l3-3v-4l-3.5-3.5h-4l-3 3h-3Zm0 58 3 3h3l3 3h4l3.5-3.5v-4l-3-3v-3l-3-3Z" style="fill:#2e2f34;stroke:none"/>
        <path d="m98.5 51 3-3h3l3-3h4l3.5 3.5v4l-3 3v3l-3 3Zm0 58L109 98.5l3 3v3l3 3v4l-3.5 3.5h-4l-3-3h-3Z" style="stroke:none"/>
        <path d="M101 78.5v3l5.5 5.5h2l7-7-7-7h-2Z" style="fill:#2e2f34;stroke:none"/>
        <path d="M101 81.5v-3l5.5-5.5h2l7 7-7 7h-2Z" style="stroke:none"/>
        <path d="M103.5 21h-.5v-2.5l3.5-3.5 8.5 8.5-4.5 4.5Z" style="fill:#c45f5f;stroke:none"/>
        <path d="M103 141.5V139h.5l7-7 4.5 4.5-8.5 8.5Z" style="fill:#feb380;stroke:none"/>
        <path d="m106.5 15 3-3 8.5 8.5-3 3Zm0 130 8.5-8.5 3 3-8.5 8.5Z" style="fill:#ea8878;stroke:none"/>
        <path d="m110.5 28 7.5-7.5-.5-.5 4.5-4.5.5.5h6L144 31.5v6l.5.5-4.5 4.5-.5-.5-7.5 7.5-2-2v-3l7-7v-2l-2.5-2.5-7.5 7.5-7.5-7.5 7.5-7.5-2.5-2.5h-2l-7 7h-3Z" style="stroke:none"/>
        <path d="m110.5 132 2-2h3l7 7h2l6-6h.5v.5l5 5-7.5 7.5h-6l-.5.5-4.5-4.5.5-.5Z" style="fill:#989aa4;stroke:none"/>
        <path d="m116 9.5 3.5-3.5h11l1.5 1.5-8.5 8.5h-1Zm0 141 6.5-6.5h1l8.5 8.5-1.5 1.5h-11Z" style="fill:#ea8878;stroke:none"/>
        <path d="M119.5 6 125 .5h14l-7 7-1.5-1.5Z" style="fill:#feb380;stroke:none"/>
        <path d="m119.5 127 7.5-7.5 7.5 7.5 2.5-2.5v-2l-7-7v-3l2-2 7.5 7.5.5-.5 4.5 4.5-.5.5v6l-7.5 7.5-5-5h-1l-3.5 3.5Z" style="stroke:none"/>
        <path d="M119.5 154h11l1.5-1.5 7 7h-14Z" style="fill:#bc5452;stroke:none"/>
        <path d="m123.5 16 8.5-8.5L152.5 28l-8.5 8.5v-5L128.5 16Zm0 128h5l7.5-7.5-5-5v-.5h.5l5 5 7.5-7.5v-5l8.5 8.5-10 10 17 17v.5h-.5l-17-17-10 10Z" style="fill:#6e7080;stroke:none"/>
        <path d="m132 7.5 7-7h20.5V21l-7 7Z" style="fill:#989aa4;stroke:none"/>
        <path d="m132 49.5 4.5-4.5 8.5 8.5-3.5 3.5H139v-.5Zm0 61 7-7v-.5h2.5l3.5 3.5-8.5 8.5Z" style="fill:#c45f5f;stroke:none"/>
        <path d="m132 152.5 10-10 17 17h-20Zm1-74v-13l6-6V57h2.5l3.5-3.5 4 4v3l-7 7V72h-2.5Z" style="stroke:none"/>
        <path d="M133 81.5v-3l6.5-6.5h2.5v16h-2.5Z" style="fill:#c45f5f;stroke:none"/>
        <path d="M139.5 88h2.5v4.5l7 7v3l-4 4-3.5-3.5H139v-2.5l-6-6v-13Z" style="stroke:none"/>
        <path d="m136.5 45 3-3 8.5 8.5-3 3Zm0 70 8.5-8.5 3 3-8.5 8.5Z" style="fill:#ea8878;stroke:none"/>
        <path d="m140 42.5 4.5-4.5 6.5 6.5 3-3v19l-6 6V74h-.5l-2-2H142v-4.5l7-7v-3l-4-4 3-3Zm0 75 8-8-3-3 4-4v-3l-7-7V88h3.5l2-2h.5v7.5l6 6v19l-3-3-6.5 6.5Z" style="fill:#6e7080;stroke:none"/>
        <path d="M142 88V72h3.5l2 2h.5v12h-.5l-2 2Z" style="fill:#ea8878;stroke:none"/>
        <path d="m142.5 142 10-10 7 7v20Z" style="fill:#989aa4;stroke:none"/>
        <path d="M144 37.5v-1l8.5-8.5 1.5 1.5v12l-3 3Zm0 86v-1l7-7 3 3v12l-1.5 1.5Z" style="fill:#ea8878;stroke:none"/>
        <path d="M148.5 74h-.5v-7.5l6-6v-20l5.5-5.5v28Z" style="fill:#989aa4;stroke:none"/>
        <path d="M148.5 86h-.5V74h.5l11-11v34Z" style="fill:#feb380;stroke:none"/>
        <path d="M159.5 97v28l-5.5-5.5v-20l-6-6V86h.5Z" style="fill:#989aa4;stroke:none"/>
        <path d="m152.5 28 7-7v14l-5.5 5.5v-11Zm0 104 1.5-1.5v-11l5.5 5.5v14Z" style="fill:#feb380;stroke:none"/>
    </g>
</svg>
