<svg xmlns="http://www.w3.org/2000/svg" width="160" height="160" style="fill-opacity:1;color-rendering:auto;color-interpolation:auto;text-rendering:auto;stroke:#000;stroke-linecap:square;stroke-miterlimit:10;shape-rendering:auto;stroke-opacity:1;fill:#000;stroke-dasharray:none;font-weight:400;stroke-width:1;font-family:&quot;Dialog&quot;;font-style:normal;stroke-linejoin:miter;font-size:12px;stroke-dashoffset:0;image-rendering:auto">
    <g style="stroke-linecap:round;fill:#4a4b53;stroke:#4a4b53">
        <path stroke="none" d="m14.5 30 7.5-7.5 9 9-3.5 3.5-3.5-3.5-9 9L.5 26V16Z" style="stroke:none"/>
    </g>
    <g stroke="none" style="stroke-linecap:round;fill:#4a4b53;stroke:#4a4b53">
        <path d="M.5 144v-10L15 119.5l9 9 3.5-3.5 7.5 7.5-3.5 3.5 9 9L26 159.5H16l14-14L14.5 130Z" style="stroke:none"/>
        <path d="M16 .5h10L40.5 15l-9 9 3.5 3.5-3.5 3.5-9-9 7.5-7.5Z" style="fill:#989aa4;stroke:none"/>
        <path d="m23 23.5-1-1 .5-.5.5.5Z" style="fill:#6e7080;stroke:none"/>
        <path d="m25 25.5-3-3 .5-.5 2.5 2.5Z" style="fill:#6e7080;stroke:none"/>
        <path d="M25 90.5v-21l3-3 5.5 5.5-.5.5v15l.5.5-5.5 5.5Z" style="stroke:none"/>
        <path d="m27 27.5-5-5 .5-.5 4.5 4.5Z" style="fill:#6e7080;stroke:none"/>
        <path d="m29 29.5-7-7 .5-.5 6.5 6.5Z" style="fill:#6e7080;stroke:none"/>
        <path d="m27.5 35 7.5-7.5 7 7-3.5 3.5 7 7-.5.5-7-7-3.5 3.5Z" style="fill:#ea8878;stroke:none"/>
        <path d="M28 66.5 40.5 54l5.5 5.5L33.5 72Zm0 27 5.5-5.5L46 100.5l-5.5 5.5Z" style="fill:#bc5452;stroke:none"/>
        <path d="m27.5 125 7-7 7.5 7.5-7 7Z" style="fill:#ea8878;stroke:none"/>
        <path d="m31.5 31-.5.5-9-9 .5-.5Z" style="fill:#6e7080;stroke:none"/>
        <path d="m34.5 42 3.5-3.5 6.5 6.5-3.5 3.5Zm0 76 6.5-6.5 7.5 7.5-6.5 6.5Z" style="fill:#bc5452;stroke:none"/>
        <path d="m38.5 38 3.5-3.5 6.5 6.5-3.5 3.5Z" style="fill:#feb380;stroke:none"/>
        <path d="m41 48.5 3.5-3.5 8 8-6.5 6.5-5.5-5.5 3-3Zm-.5 57.5 5.5-5.5L59.5 114l-5.5 5.5-3-3-2.5 2.5-7.5-7.5 2.5-2.5Z" style="stroke:none"/>
        <path d="m45 44.5 3.5-3.5 2.5 2.5 3-3 5.5 5.5-6.5 6.5Z" style="fill:#989aa4;stroke:none"/>
        <path d="m46 46.5-1-1 .5-.5.5.5Z" style="fill:#6e7080;stroke:none"/>
        <path d="m48 48.5-3-3 .5-.5 2.5 2.5Z" style="fill:#6e7080;stroke:none"/>
        <path d="m50 50.5-5-5 .5-.5 4.5 4.5Z" style="fill:#6e7080;stroke:none"/>
        <path d="m52 52.5-7-7 .5-.5 6.5 6.5Z" style="fill:#6e7080;stroke:none"/>
        <path d="M54 40.5 66.5 28l5.5 5.5L59.5 46Z" style="fill:#feb380;stroke:none"/>
        <path d="m54 119.5 5.5-5.5L72 126.5l-5.5 5.5Z" style="fill:#bc5452;stroke:none"/>
        <path d="m66.5 28 3-3h21l3 3-5.5 5.5-.5-.5h-15l-.5.5Z" style="fill:#989aa4;stroke:none"/>
        <path d="m66.5 132 5.5-5.5.5.5h15l.5-.5 5.5 5.5-3 3h-21Z" style="stroke:none"/>
        <path d="m88 33.5 5.5-5.5L106 40.5l-5.5 5.5Z" style="fill:#feb380;stroke:none"/>
        <path d="m88 126.5 12.5-12.5 5.5 5.5L93.5 132Z" style="fill:#bc5452;stroke:none"/>
        <path d="m100.5 46 5.5-5.5 3 3 2.5-2.5 7.5 7.5-2.5 2.5 3 3-5.5 5.5Z" style="fill:#989aa4;stroke:none"/>
        <path d="m100.5 114 6.5-6.5 8 8-3.5 3.5-2.5-2.5-3 3Z" style="stroke:none"/>
        <path d="m108 108.5-1-1 .5-.5.5.5Z" style="fill:#6e7080;stroke:none"/>
        <path d="m107.5 107 6.5-6.5 5.5 5.5-3 3 2.5 2.5-3.5 3.5Z" style="fill:#989aa4;stroke:none"/>
        <path d="m110 110.5-3-3 .5-.5 2.5 2.5Z" style="fill:#6e7080;stroke:none"/>
        <path d="m112 112.5-5-5 .5-.5 4.5 4.5Z" style="fill:#6e7080;stroke:none"/>
        <path d="m111.5 41 6.5-6.5 7.5 7.5-6.5 6.5Z" style="fill:#feb380;stroke:none"/>
        <path d="m111.5 119 3.5-3.5 6.5 6.5-3.5 3.5Z" style="fill:#bc5452;stroke:none"/>
        <path d="m114 114.5-7-7 .5-.5 6.5 6.5Z" style="fill:#6e7080;stroke:none"/>
        <path d="m114 59.5 5.5-5.5L132 66.5l-5.5 5.5Zm0 41L126.5 88l5.5 5.5-12.5 12.5Z" style="fill:#feb380;stroke:none"/>
        <path d="m116 116.5-1-1 .5-.5.5.5Z" style="fill:#ea8878;stroke:none"/>
        <path d="m115.5 115 3.5-3.5 6.5 6.5-3.5 3.5Z" style="fill:#feb380;stroke:none"/>
        <path d="m118 118.5-3-3 .5-.5 2.5 2.5Zm0-84 7-7 7.5 7.5-7 7Z" style="fill:#ea8878;stroke:none"/>
        <path d="m118 125.5 3.5-3.5-6.5-6.5.5-.5 6.5 6.5 3.5-3.5 7 7-7.5 7.5Z" style="fill:#ea8878;stroke:none"/>
        <path d="M119.5 15 134 .5h10l-14 14L145.5 30l14-14v10L145 40.5l-9-9-3.5 3.5-7.5-7.5 3.5-3.5Z" style="fill:#989aa4;stroke:none"/>
        <path d="m119.5 145 9-9-3.5-3.5 3.5-3.5 9 9-7.5 7.5 14 14h-10Z" style="stroke:none"/>
        <path d="m126.5 88 .5-.5v-15l-.5-.5 5.5-5.5 3 3v21l-3 3Zm2.5 40.5 3.5-3.5 3.5 3.5 9-9 14.5 14.5v10l-14-14-7.5 7.5Z" style="fill:#989aa4;stroke:none"/>
        <path d="m130 130.5-1.5-1.5.5-.5 1 1Z" style="fill:#6e7080;stroke:none"/>
        <path d="m132 132.5-3.5-3.5.5-.5 3 3Z" style="fill:#6e7080;stroke:none"/>
        <path d="m134 134.5-5.5-5.5.5-.5 5 5Z" style="fill:#6e7080;stroke:none"/>
        <path d="m136 136.5-7.5-7.5.5-.5 7 7Z" style="fill:#6e7080;stroke:none"/>
        <path d="m137.5 138-9-9 .5-.5 9 9Z" style="fill:#6e7080;stroke:none"/>
    </g>
</svg>
