<svg xmlns="http://www.w3.org/2000/svg" width="96" height="96" style="fill-opacity:1;color-rendering:auto;color-interpolation:auto;text-rendering:auto;stroke:#000;stroke-linecap:square;stroke-miterlimit:10;shape-rendering:auto;stroke-opacity:1;fill:#000;stroke-dasharray:none;font-weight:400;stroke-width:1;font-family:&quot;Dialog&quot;;font-style:normal;stroke-linejoin:miter;font-size:12px;stroke-dashoffset:0;image-rendering:auto">
    <g style="stroke-linecap:round;fill:#6e7080;stroke:#6e7080">
        <path stroke="none" d="M18 22.5 10.5 30 .5 20V5Z" style="stroke:none"/>
    </g>
    <g stroke="none" style="stroke-linecap:round;fill:#4a4b53;stroke:#4a4b53">
        <path d="m10.5 30 6.5-6.5.5.5h11l.5.5V40h-1.5l-.5.5v3l4.5 4.5-4.5 4.5v3l.5.5H29v15.5l-.5.5h-11l-.5.5-6.5-6.5-10 10V20Z" style="stroke:none"/>
        <path d="M.5 91V76l10-10 7.5 7.5Z" style="fill:#6e7080;stroke:none"/>
        <path d="M3 40.5v3L7.5 48 3 52.5v3l.5.5h3l6.5-6.5v-3L6.5 40h-3Z" style="stroke:none"/>
        <path d="M3 43.5v-3l.5-.5h3l6.5 6.5v3L6.5 56h-3l-.5-.5v-3L7.5 48Z" style="fill:#6e7080;stroke:none"/>
        <path d="M15 40.5v3l4.5 4.5-4.5 4.5v3l.5.5h3l6.5-6.5v-3L18.5 40h-3Z" style="stroke:none"/>
        <path d="M15 43.5v-3l.5-.5h3l6.5 6.5v3L18.5 56h-3l-.5-.5v-3l4.5-4.5Zm12 0v-3l.5-.5h3l6.5 6.5v3L30.5 56h-3l-.5-.5v-3l4.5-4.5Z" style="fill:#6e7080;stroke:none"/>
        <path d="M30.5 40h6l.5.5v6Zm0 16 6.5-6.5v6l-.5.5Z" style="stroke:none"/>
    </g>
</svg>
