<svg xmlns="http://www.w3.org/2000/svg" width="96" height="96" style="fill-opacity:1;color-rendering:auto;color-interpolation:auto;text-rendering:auto;stroke:#000;stroke-linecap:square;stroke-miterlimit:10;shape-rendering:auto;stroke-opacity:1;fill:#000;stroke-dasharray:none;font-weight:400;stroke-width:1;font-family:&quot;Dialog&quot;;font-style:normal;stroke-linejoin:miter;font-size:12px;stroke-dashoffset:0;image-rendering:auto">
    <g style="stroke-linecap:round;fill:#4a4b53;stroke:#4a4b53">
        <path stroke="none" d="M5.5 10h6l6.5 6.5v6l-11 11v6l6 6v5l-6 6v6l11 11v6L11.5 86h-6l-5 5V5Z" style="stroke:none"/>
    </g>
    <g stroke="none" style="stroke-linecap:round;fill:#2e2f34;stroke:#2e2f34">
        <path d="M7 39.5v-6l10-10 .5.5h11l.5.5v15l.5.5h3l.5.5v15l-.5.5h-3l-.5.5v15l-.5.5h-11l-.5.5-10-10v-6l6-6v-5Z" style="stroke:none"/>
        <path d="M16 40.5v3l4.5 4.5-4.5 4.5v3l.5.5h3l6.5-6.5v-3L19.5 40h-3Z" style="stroke:none"/>
        <path d="M16 43.5v-3l.5-.5h3l6.5 6.5v3L19.5 56h-3l-.5-.5v-3l4.5-4.5Z" style="fill:#4a4b53;stroke:none"/>
    </g>
</svg>
