<svg xmlns="http://www.w3.org/2000/svg" width="224" height="224" style="fill-opacity:1;color-rendering:auto;color-interpolation:auto;text-rendering:auto;stroke:#000;stroke-linecap:square;stroke-miterlimit:10;shape-rendering:auto;stroke-opacity:1;fill:#000;stroke-dasharray:none;font-weight:400;stroke-width:1;font-family:&quot;Dialog&quot;;font-style:normal;stroke-linejoin:miter;font-size:12px;stroke-dashoffset:0;image-rendering:auto">
    <g style="stroke-linecap:round;fill:#6e7080;stroke:#6e7080">
        <path stroke="none" d="m42.5 52-17 17h-2L.5 46V10Z" style="stroke:none"/>
    </g>
    <g stroke="none" style="stroke-linecap:round;fill:#4a4b53;stroke:#4a4b53">
        <path d="M23.5 69h2L39 55.5l.5.5h27l.5.5v18l16 16v43l-16 16v18l-.5.5h-27l-.5.5L25.5 155h-2l-23 23V46Z" style="stroke:none"/>
        <path d="M.5 214v-36l23-23h2l17 17Z" style="fill:#6e7080;stroke:none"/>
        <path d="M4 95.5v6l9 9v3l-9 9v6l1.5 1.5h8L29 114.5v-5L13.5 94h-8Z" style="stroke:none"/>
        <path d="M4 101.5v-6L5.5 94h8L29 109.5v5L13.5 130h-8L4 128.5v-6l9-9v-3Z" style="fill:#6e7080;stroke:none"/>
        <path d="M31 95.5v6l9 9v3l-9 9v6l1.5 1.5h7L56 113.5v-3L39.5 94h-7Z" style="stroke:none"/>
        <path d="M31 101.5v-6l1.5-1.5h7L56 110.5v3L39.5 130h-7l-1.5-1.5v-6l9-9v-3Z" style="fill:#6e7080;stroke:none"/>
        <path d="M57 95.5v6L67.5 112 57 122.5v6l1.5 1.5h8L82 114.5v-5L66.5 94h-8Z" style="stroke:none"/>
        <path d="M57 101.5v-6l1.5-1.5h8L82 109.5v5L66.5 130h-8l-1.5-1.5v-6L67.5 112Z" style="fill:#6e7080;stroke:none"/>
    </g>
</svg>
