<svg xmlns="http://www.w3.org/2000/svg" width="288" height="288" style="fill-opacity:1;color-rendering:auto;color-interpolation:auto;text-rendering:auto;stroke:#000;stroke-linecap:square;stroke-miterlimit:10;shape-rendering:auto;stroke-opacity:1;fill:#000;stroke-dasharray:none;font-weight:400;stroke-width:1;font-family:&quot;Dialog&quot;;font-style:normal;stroke-linejoin:miter;font-size:12px;stroke-dashoffset:0;image-rendering:auto">
    <g style="stroke-linecap:round;fill:#4a4b53;stroke:#4a4b53">
        <path stroke="none" d="M181 171.5v-55l21-21v-23l.5-.5h34l.5-.5 19 19L287.5 59v170L256 197.5l-19 19-.5-.5h-34l-.5-.5v-23Z" style="stroke:none"/>
    </g>
    <g stroke="none" style="stroke-linecap:round;fill:#4a4b53;stroke:#4a4b53">
        <path d="M184 123.5v7l12 12v3l-12 12v7l2.5 2.5h9l20.5-20.5v-5L195.5 121h-9Z" style="stroke:none"/>
        <path d="M184 130.5v-7l2.5-2.5h9l20.5 20.5v5L195.5 167h-9l-2.5-2.5v-7l12-12v-3Z" style="fill:#6e7080;stroke:none"/>
        <path d="M218 123.5v7l12 12v3l-12 12v7l2.5 2.5h9l20.5-20.5v-5L229.5 121h-9Z" style="stroke:none"/>
        <path d="M218 130.5v-7l2.5-2.5h9l20.5 20.5v5L229.5 167h-9l-2.5-2.5v-7l12-12v-3Zm15-63L287.5 13v46L256 90.5 236.5 71h-.5v-.5Zm0 153 3-3v-.5h.5l19.5-19.5 31.5 31.5v46Z" style="fill:#6e7080;stroke:none"/>
        <path d="M251 123.5v7l13.5 13.5-13.5 13.5v7l2.5 2.5h9l20.5-20.5v-5L262.5 121h-9Z" style="stroke:none"/>
        <path d="M251 130.5v-7l2.5-2.5h9l20.5 20.5v5L262.5 167h-9l-2.5-2.5v-7l13.5-13.5Z" style="fill:#6e7080;stroke:none"/>
    </g>
</svg>
