<svg xmlns="http://www.w3.org/2000/svg" width="160" height="160" style="fill-opacity:1;color-rendering:auto;color-interpolation:auto;text-rendering:auto;stroke:#000;stroke-linecap:square;stroke-miterlimit:10;shape-rendering:auto;stroke-opacity:1;fill:#000;stroke-dasharray:none;font-weight:400;stroke-width:1;font-family:&quot;Dialog&quot;;font-style:normal;stroke-linejoin:miter;font-size:12px;stroke-dashoffset:0;image-rendering:auto">
    <g style="stroke-linecap:round;fill:#989aa4;stroke:#989aa4">
        <path stroke="none" d="M.5 1V.5H1L7.5 7l-.5.5Z" style="stroke:none"/>
    </g>
    <g stroke="none" style="stroke-linecap:round;fill:#6e7080;stroke:#6e7080">
        <path d="M7 7.5v29L8.5 38 23 23.5l4.5 4.5-14 14 20 20 14-14 8.5 8.5-9 9v29L65.5 113h29l9-9 8.5 8.5-14 14 20 20 14-14 4.5 4.5-14.5 14.5 1.5 1.5h29l6.5 6.5h-40L86.5 127h-13L41 159.5H.5V119L33 86.5v-13L.5 41V1Z" style="stroke:none"/>
        <path d="M1 .5h40L73.5 33h13L119 .5h40.5V41L127 73.5v13l32.5 32.5v40l-6.5-6.5v-29l-1.5-1.5-14.5 14.5-4.5-4.5 14-14-20-20-14 14-8.5-8.5 9-9v-29L94.5 47h-29l-9 9-8.5-8.5 14-14-20-20-14 14-4.5-4.5L38 8.5 36.5 7h-29Z" style="fill:#b0bac0;stroke:none"/>
        <path d="M7 123.5v29l.5.5h29l1.5-1.5L8.5 122Z" style="stroke:none"/>
        <path d="M7 36.5v-8L28.5 7h8L38 8.5 23.5 23l4.5 4.5-.5.5-4.5-4.5L8.5 38Zm0 95v-8l1.5-1.5L38 151.5l-1.5 1.5h-8Z" style="fill:#989aa4;stroke:none"/>
        <path d="M13.5 118 42 146.5l20-20L33.5 98Z" style="stroke:none"/>
        <path d="M49 49.5 47.5 48l.5-.5 1 1Z" style="fill:#989aa4;stroke:none"/>
        <path d="M51 51.5 47.5 48l.5-.5 3 3Z" style="fill:#989aa4;stroke:none"/>
        <path d="M53 53.5 47.5 48l.5-.5 5 5Z" style="fill:#989aa4;stroke:none"/>
        <path d="M55 55.5 47.5 48l.5-.5 7 7Z" style="fill:#989aa4;stroke:none"/>
        <path d="M98 33.5 126.5 62l20-20L118 13.5Z" style="fill:#b0bac0;stroke:none"/>
        <path d="m105 105.5-1.5-1.5.5-.5 1 1Z" style="fill:#989aa4;stroke:none"/>
        <path d="m107 107.5-3.5-3.5.5-.5 3 3Z" style="fill:#989aa4;stroke:none"/>
        <path d="m109 109.5-5.5-5.5.5-.5 5 5Z" style="fill:#989aa4;stroke:none"/>
        <path d="m111 111.5-7.5-7.5.5-.5 7 7Z" style="fill:#989aa4;stroke:none"/>
        <path d="M122 8.5 151.5 38l1.5-1.5v-29l-.5-.5h-29Z" style="fill:#b0bac0;stroke:none"/>
        <path d="m122 8.5 1.5-1.5h8L153 28.5v8l-1.5 1.5Zm0 143 14.5-14.5-4.5-4.5.5-.5 4.5 4.5 14.5-14.5 1.5 1.5v8L131.5 153h-8Zm32 3-1.5-1.5.5-.5 1 1Z" style="fill:#989aa4;stroke:none"/>
        <path d="m156 156.5-3.5-3.5.5-.5 3 3Z" style="fill:#989aa4;stroke:none"/>
        <path d="m158 158.5-5.5-5.5.5-.5 5 5Z" style="fill:#989aa4;stroke:none"/>
    </g>
</svg>
