<svg xmlns="http://www.w3.org/2000/svg" width="288" height="288" style="fill-opacity:1;color-rendering:auto;color-interpolation:auto;text-rendering:auto;stroke:#000;stroke-linecap:square;stroke-miterlimit:10;shape-rendering:auto;stroke-opacity:1;fill:#000;stroke-dasharray:none;font-weight:400;stroke-width:1;font-family:&quot;Dialog&quot;;font-style:normal;stroke-linejoin:miter;font-size:12px;stroke-dashoffset:0;image-rendering:auto">
    <g style="stroke-linecap:round;fill:#6e7080;stroke:#6e7080">
        <path stroke="none" d="m55 67.5-23 23L.5 59V13Z" style="stroke:none"/>
    </g>
    <g stroke="none" style="stroke-linecap:round;fill:#4a4b53;stroke:#4a4b53">
        <path d="m32 90.5 19-19 .5.5h34l.5.5v23l21 21v55l-21 21v23l-.5.5h-34l-.5.5-19-19L.5 229V59Z" style="stroke:none"/>
        <path d="M.5 275v-46L32 197.5l23 23Z" style="fill:#6e7080;stroke:none"/>
        <path d="M6 123.5v7l12 12v3l-12 12v7l2.5 2.5h9L38 146.5v-5L17.5 121h-9Z" style="stroke:none"/>
        <path d="M6 130.5v-7l2.5-2.5h9L38 141.5v5L17.5 167h-9L6 164.5v-7l12-12v-3Z" style="fill:#6e7080;stroke:none"/>
        <path d="M40 123.5v7l12 12v3l-12 12v7l2.5 2.5h9L72 146.5v-5L51.5 121h-9Z" style="stroke:none"/>
        <path d="M40 130.5v-7l2.5-2.5h9L72 141.5v5L51.5 167h-9l-2.5-2.5v-7l12-12v-3Z" style="fill:#6e7080;stroke:none"/>
        <path d="M73 123.5v7L86.5 144 73 157.5v7l2.5 2.5h9l20.5-20.5v-5L84.5 121h-9Z" style="stroke:none"/>
        <path d="M73 130.5v-7l2.5-2.5h9l20.5 20.5v5L84.5 167h-9l-2.5-2.5v-7L86.5 144Z" style="fill:#6e7080;stroke:none"/>
    </g>
</svg>
