<svg xmlns="http://www.w3.org/2000/svg" width="96" height="96" style="fill-opacity:1;color-rendering:auto;color-interpolation:auto;text-rendering:auto;stroke:#000;stroke-linecap:square;stroke-miterlimit:10;shape-rendering:auto;stroke-opacity:1;fill:#000;stroke-dasharray:none;font-weight:400;stroke-width:1;font-family:&quot;Dialog&quot;;font-style:normal;stroke-linejoin:miter;font-size:12px;stroke-dashoffset:0;image-rendering:auto">
    <g style="stroke-linecap:round;fill:#6e7080;stroke:#6e7080">
        <path stroke="none" d="M.5 1V.5H1L19.5 19l-.5.5Z" style="stroke:none"/>
    </g>
    <g stroke="none" style="stroke-linecap:round;fill:#4a4b53;stroke:#4a4b53">
        <path d="M18.5 19 15 22.5.5 8V1Z" style="stroke:none"/>
        <path d="M1 .5h7L22.5 15 19 18.5Z" style="fill:#989aa4;stroke:none"/>
        <path d="M8 95.5H.5V88L15 73.5l7.5 7.5Z" style="stroke:none"/>
        <path d="m15 22.5 3.5-3.5 4.5 4.5-3.5 3.5Zm0 51 4.5-4.5 7.5 7.5-4.5 4.5Z" style="fill:#665c9f;stroke:none"/>
        <path d="m19 18.5 3.5-3.5 4.5 4.5-3.5 3.5Z" style="fill:#bf92f9;stroke:none"/>
        <path d="m20 20.5-1-1 .5-.5.5.5Z" style="fill:#8a73c6;stroke:none"/>
        <path d="m19.5 27 7.5-7.5 4.5 4.5-7.5 7.5Zm0 42 4.5-4.5 7.5 7.5-4.5 4.5Z" style="fill:#6e7080;stroke:none"/>
        <path d="m22 22.5-3-3 .5-.5 2.5 2.5Z" style="fill:#8a73c6;stroke:none"/>
        <path d="m64.5 24 4.5-4.5 7.5 7.5-4.5 4.5Zm0 48 7.5-7.5 4.5 4.5-7.5 7.5Z" style="fill:#6e7080;stroke:none"/>
        <path d="m69 19.5 4.5-4.5 7.5 7.5-4.5 4.5Z" style="fill:#bf92f9;stroke:none"/>
        <path d="m69 76.5 3.5-3.5 4.5 4.5-3.5 3.5Z" style="fill:#665c9f;stroke:none"/>
        <path d="m73 72.5 3.5-3.5 4.5 4.5-3.5 3.5Z" style="fill:#bf92f9;stroke:none"/>
        <path d="M74 74.5 72.5 73l.5-.5 1 1Z" style="fill:#8a73c6;stroke:none"/>
        <path d="M73.5 15 88 .5h7.5V8L81 22.5Z" style="fill:#989aa4;stroke:none"/>
        <path d="m73.5 81 3.5-3.5 18 18h-7Z" style="stroke:none"/>
        <path d="M76 76.5 72.5 73l.5-.5 3 3Z" style="fill:#8a73c6;stroke:none"/>
        <path d="m78 78.5-1-1 .5-.5.5.5Z" style="fill:#6e7080;stroke:none"/>
        <path d="m77.5 77 3.5-3.5L95.5 88v7Z" style="fill:#989aa4;stroke:none"/>
        <path d="m80 80.5-3-3 .5-.5 2.5 2.5Z" style="fill:#6e7080;stroke:none"/>
        <path d="m82 82.5-5-5 .5-.5 4.5 4.5Z" style="fill:#6e7080;stroke:none"/>
        <path d="m84 84.5-7-7 .5-.5 6.5 6.5Z" style="fill:#6e7080;stroke:none"/>
        <path d="m86 86.5-9-9 .5-.5 8.5 8.5Z" style="fill:#6e7080;stroke:none"/>
        <path d="m88 88.5-11-11 .5-.5L88 87.5Z" style="fill:#6e7080;stroke:none"/>
        <path d="m90 90.5-13-13 .5-.5L90 89.5Z" style="fill:#6e7080;stroke:none"/>
        <path d="m92 92.5-15-15 .5-.5L92 91.5Z" style="fill:#6e7080;stroke:none"/>
        <path d="m94 94.5-17-17 .5-.5L94 93.5Z" style="fill:#6e7080;stroke:none"/>
    </g>
</svg>
