<svg xmlns="http://www.w3.org/2000/svg" width="160" height="160" style="fill-opacity:1;color-rendering:auto;color-interpolation:auto;text-rendering:auto;stroke:#000;stroke-linecap:square;stroke-miterlimit:10;shape-rendering:auto;stroke-opacity:1;fill:#000;stroke-dasharray:none;font-weight:400;stroke-width:1;font-family:&quot;Dialog&quot;;font-style:normal;stroke-linejoin:miter;font-size:12px;stroke-dashoffset:0;image-rendering:auto">
    <g style="stroke-linecap:round;fill:#989aa4;stroke:#989aa4">
        <path stroke="none" d="M80 111.5v-13L91.5 87h8l5.5-5.5v5l6 6v4l-.5.5-5-5-.5.5v8L94.5 111H94v-7.5l-3-3Z" style="stroke:none"/>
    </g>
    <g stroke="none" style="stroke-linecap:round;fill:#b0bac0;stroke:#b0bac0">
        <path d="M80 123.5v-12l2.5-2.5.5.5v7l6.5 6.5H94v12.5l5 5-5 5v9.5h-3.5L80 144.5v-8l5-5v-3Z" style="stroke:none"/>
        <path d="m81.5 142 5.5 5.5 6-6-5.5-5.5Z" style="stroke:none"/>
        <path d="m81.5 142 6-6 5.5 5.5-6 6Z" style="fill:#989aa4;stroke:none"/>
        <path d="M83 116.5v-7l-.5-.5 2.5-2.5.5.5h3l4 4H94v12h-4.5Z" style="fill:#ffd37f;stroke:none"/>
        <path d="m85.5 107-.5-.5 6-6 3 3v7.5h-1.5l-4-4Z" style="stroke:none"/>
        <path d="M95 96.5v4l1.5 1.5h2l5.5-5.5v-6l-1.5-1.5Z" style="fill:#989aa4;stroke:none"/>
        <path d="M94 123v-12h.5l10.5-10.5v13l-9.5 9.5Z" style="fill:#d4816b;stroke:none"/>
        <path d="M94 135.5V123h1.5l9.5-9.5v6l-5 5v7l.5.5 4-4 .5.5v16L94.5 155H94v-9.5l5-5Z" style="fill:#989aa4;stroke:none"/>
        <path d="M95 100.5v-4l7.5-7.5 1.5 1.5v6l-5.5 5.5h-2Z" style="fill:#d4816b;stroke:none"/>
        <path d="m100.5 132-.5-.5v-7l5-5v-6l6-6v-.5h4.5l11 11h4l6-6-16-16h-2l-7 7-3-3H105v-7.5l.5-.5 5 5 .5-.5v-4l-6-6v-18l7.5 7.5.5-.5V66h.5L125 77.5v7l.5.5h2l8.5-8.5v-34l-5.5-5.5 6.5-6.5V30h1.5l15 15-3.5 3.5-5-5-5.5 5.5 5 5-3.5 3.5v8l6 6v10l9 9v12l-7 7v4l-15 15v4l-4.5 4.5-.5-.5v-2l-6-6-6.5 6.5 7.5 7.5-10.5 10.5h-8l-4.5-4.5 4-4v3l.5.5h2l6.5-6.5v-20l-.5-.5h-2Z" style="stroke:none"/>
        <path d="M105 40.5v-28l3.5-3.5h4.5v5.5l4 4v6l-.5.5-3-3-.5.5V48h-.5Z" style="fill:#989aa4;stroke:none"/>
        <path d="M112.5 48h.5v18h-.5l-7.5-7.5v-18Z" style="fill:#d4816b;stroke:none"/>
        <path d="M112.5 66h.5v9.5l-.5.5-7.5-7.5v-10Z" style="fill:#989aa4;stroke:none"/>
        <path d="M105 113.5V100h3.5l3 3-.5.5v4Zm.5 34.5-.5-.5v-19l-.5-.5 7-7h2l.5.5v20l-6.5 6.5Z" style="fill:#ffd37f;stroke:none"/>
        <path d="M111 107v-3.5l7.5-7.5h2l3 3-8 8Z" style="fill:#989aa4;stroke:none"/>
        <path d="M113 14.5V9h6.5l5.5 5.5v4l4 4v9l-.5.5-3-3-.5.5v29L114.5 48H113V22.5l.5-.5 3 3 .5-.5v-6Z" style="stroke:none"/>
        <path d="M113.5 66h-.5V48h1.5L125 58.5v19Z" style="fill:#ffd37f;stroke:none"/>
        <path d="M115 29.5v15l6.5 6.5.5-.5v-15l-6.5-6.5Zm0 43v14l6.5 6.5.5-.5v-14l-6.5-6.5Zm-.5 45.5 7.5 7.5 3-3-7.5-7.5Z" style="stroke:none"/>
        <path d="M122 35.5v15l-.5.5-6.5-6.5v-15l.5-.5Zm0 43v14l-.5.5-6.5-6.5v-14l.5-.5Z" style="fill:#ffd37f;stroke:none"/>
        <path d="m114.5 118 3-3 7.5 7.5-3 3Z" style="fill:#989aa4;stroke:none"/>
        <path d="M117 57.5v6l3.5 3.5.5-.5v-6l-3.5-3.5Z" style="fill:#ffd37f;stroke:none"/>
        <path d="M121 60.5v6l-.5.5-3.5-3.5v-6l.5-.5Z" style="stroke:none"/>
        <path d="m116.5 135 6.5-6.5 6 6v2l.5.5-5.5 5.5ZM125 18.5V15h6.5l5.5 5.5v10l-6.5 6.5 5.5 5.5v13l-11-11v-15l.5-.5 3 3 .5-.5v-9Z" style="fill:#989aa4;stroke:none"/>
        <path d="M136 55.5v11l-11-11v-11Z" style="fill:#d4816b;stroke:none"/>
        <path d="M136 66.5v10l-8.5 8.5h-2l-.5-.5v-29Z" style="fill:#989aa4;stroke:none"/>
        <path d="M128 64.5v9l3.5 3.5 2.5-2.5v-5l-5.5-5.5Z" style="fill:#989aa4;stroke:none"/>
        <path d="M134 69.5v5l-2.5 2.5-3.5-3.5v-9l.5-.5Z" style="fill:#d4816b;stroke:none"/>
        <path d="m132 92.5 10.5 10.5 7-7L139 85.5Z" style="stroke:none"/>
        <path d="m139.5 49 5.5-5.5 5 5-5.5 5.5Z" style="fill:#989aa4;stroke:none"/>
    </g>
</svg>
