<svg xmlns="http://www.w3.org/2000/svg" width="96" height="96" style="fill-opacity:1;color-rendering:auto;color-interpolation:auto;text-rendering:auto;stroke:#000;stroke-linecap:square;stroke-miterlimit:10;shape-rendering:auto;stroke-opacity:1;fill:#000;stroke-dasharray:none;font-weight:400;stroke-width:1;font-family:&quot;Dialog&quot;;font-style:normal;stroke-linejoin:miter;font-size:12px;stroke-dashoffset:0;image-rendering:auto">
    <g style="fill:#989aa4;fill-opacity:.0039;stroke-opacity:.0039;stroke-linecap:round;stroke:#989aa4">
        <path stroke="none" d="M82.5 18H82v-.5l7-7 .5.5Z" style="stroke:none"/>
    </g>
    <g stroke="none" style="stroke-linecap:round;fill:#989aa4;stroke:#989aa4">
        <path d="M82 30.5V18h.5l13-13v10L89 21.5v6l1.5 1.5 5-5v10l-4 4h-2Zm0 47v-12l7.5-7.5h2l4 4v10l-5-5-1.5 1.5v6l6.5 6.5v10Z" style="stroke:none"/>
        <path d="m83 79.5-1-1v-1l1 1Z" style="fill-opacity:.0039;stroke-opacity:.0039;stroke:none"/>
        <path d="M84 52.5v-9l5.5-5.5h2l4-4v28l-4-4h-2Z" style="fill:#6e7080;stroke:none"/>
        <path d="m85 81.5-3-3v-1l3 3Z" style="fill-opacity:.0039;stroke-opacity:.0039;stroke:none"/>
        <path d="m87 83.5-5-5v-1l5 5Z" style="fill-opacity:.0039;stroke-opacity:.0039;stroke:none"/>
        <path d="m89.5 85-.5.5-7-7v-1Z" style="fill-opacity:.0039;stroke-opacity:.0039;stroke:none"/>
        <path d="m89.5 11-.5-.5V.5h6.5V5ZM89 27.5v-6l6.5-6.5v9l-5 5Zm0 47v-6l1.5-1.5 5 5v9ZM95.5 91v4.5H89v-10l.5-.5Z" style="fill:#6e7080;stroke:none"/>
    </g>
</svg>
