<svg xmlns="http://www.w3.org/2000/svg" width="48" height="48" style="fill-opacity:1;color-rendering:auto;color-interpolation:auto;text-rendering:auto;stroke:#000;stroke-linecap:square;stroke-miterlimit:10;shape-rendering:auto;stroke-opacity:1;fill:#000;stroke-dasharray:none;font-weight:400;stroke-width:1;font-family:&quot;Dialog&quot;;font-style:normal;stroke-linejoin:miter;font-size:12px;stroke-dashoffset:0;image-rendering:auto">
    <g style="stroke-linecap:round;fill:#3f523d;stroke:#3f523d">
        <path stroke="none" d="M5 34.5v-4l1-1v-1l.5-.5L9 30.5v2l2.5 2.5h1l1 1h2l2.5 2.5-1.5 1.5h-7L6 36.5v-1Z" style="stroke:none"/>
    </g>
    <g stroke="none" style="stroke-linecap:round;fill:#567148;stroke:#567148">
        <path d="m6.5 28 .5-.5v-1L8.5 25H9v1.5l2 2v2l3 3 2-2 2 2v1l2 2-2 2-2.5-2.5h-2l-1-1h-1L9 32.5v-2Z" style="stroke:none"/>
        <path d="M9 26.5V25h1.5l1-1h5l2 2h1l2.5 2.5v6l-2 2-2-2v-1l-2-2-2 2-3-3v-2Z" style="fill:#82a467;stroke:none"/>
        <path d="M11 13.5v-4l2-2v-1l2-2 1 1v1l2 2v4l2.5 2.5h1l1 1h2l2 2h1l1 1-3 3h-2l-1-1h-1l-1-1h-1l-2-2h-2Z" style="fill:#3f523d;stroke:none"/>
        <path d="m15 4.5.5-.5h1l1-1 .5.5v1L19.5 6h5l1 1h1l2 2-2 2h-1l-2 2 2 2h1l1 1H31v1.5l-2 2-1.5-1.5h-1l-2-2h-2l-1-1h-1L18 12.5v-4l-2-2v-1Z" style="stroke:none"/>
        <path d="M18 4.5v-1l-.5-.5 1-1h1l1-1h4l1 1h2L33 7.5v7L31.5 16h-4l-1-1h-1l-2-2 2-2h1l2-2-2-2h-1l-1-1h-5Z" style="fill:#82a467;stroke:none"/>
        <path d="M27 34.5v-6l2.5-2.5H31v2.5l1 1v5l2.5 2.5 1.5-1.5v-2l2-2 3 3v1l1 1v1l2.5 2.5-1 1h-1l-3 3h-4l-1-1h-2L29 39.5v-1l-1-1v-2Z" style="fill:#3f523d;stroke:none"/>
        <path d="M31 28.5v-3l1.5-1.5H34v1.5l1.5 1.5h2l1 1h1l1.5 1.5v1l1 1v1l1 1v1l2 2v3l-.5.5-2.5-2.5v-1l-1-1v-1l-3-3-2 2v2L34.5 37 32 34.5v-5Z" style="stroke:none"/>
        <path d="M34 25.5v-2l.5-.5h1l1-1h4l4.5 4.5v1l1 1v7l-1 1-2-2v-1l-1-1v-1l-1-1v-1L39.5 28h-1l-1-1h-2Z" style="fill:#82a467;stroke:none"/>
    </g>
</svg>
