<svg xmlns="http://www.w3.org/2000/svg" width="48" height="48" style="fill-opacity:1;color-rendering:auto;color-interpolation:auto;text-rendering:auto;stroke:#000;stroke-linecap:square;stroke-miterlimit:10;shape-rendering:auto;stroke-opacity:1;fill:#000;stroke-dasharray:none;font-weight:400;stroke-width:1;font-family:&quot;Dialog&quot;;font-style:normal;stroke-linejoin:miter;font-size:12px;stroke-dashoffset:0;image-rendering:auto">
    <g style="stroke-linecap:round;fill:#3f523d;stroke:#3f523d">
        <path stroke="none" d="M7 23.5v-3l1-1v-1l3.5-3.5h1l.5-.5 2 2v2l1 1v2l1 1v2l3 3v1l1.5 1.5h3l1-1h2l3 3h4l1 1h1l1.5 1.5v1l1.5 1.5-2 2h-1l-1 1h-4l-1 1h-2l-1 1h-4l-1-1h-1l-1-1h-2l-1-1h-1L14 36.5v-1l-1-1v-1l-1-1v-1l-1-1v-1l-3-3v-2Z" style="stroke:none"/>
    </g>
    <g stroke="none" style="stroke-linecap:round;fill:#567148;stroke:#567148">
        <path d="m13 14.5 1-1V11h1.5l3 3h2l1.5 1.5v3l-2 2v2l1.5 1.5h4l2.5-2.5v-1l3-3 2.5 2.5-4 4 1.5 1.5v1l2.5 2.5h2l1 1h1l4 4-2.5 2.5-1-1v-1L36.5 33h-1l-1-1h-4l-3-3h-2l-1 1h-3L20 28.5v-1l-3-3v-2l-1-1v-2l-1-1v-2Z" style="stroke:none"/>
        <path d="M14 11V9.5L17.5 6h1l1-1h3l1 1h2l1 1h3l1 1h2l5.5 5.5v1l1 1v2l2 2v3l1 1v9l-1 1-3.5-3.5h-1l-1-1h-2L31 26.5v-1L29.5 24l4-4-2.5-2.5-3 3v1L25.5 24h-4L20 22.5v-2l2-2v-3L20.5 14h-2l-3-3Z" style="fill:#82a467;stroke:none"/>
    </g>
</svg>
