<svg xmlns="http://www.w3.org/2000/svg" width="48" height="48" style="fill-opacity:1;color-rendering:auto;color-interpolation:auto;text-rendering:auto;stroke:#000;stroke-linecap:square;stroke-miterlimit:10;shape-rendering:auto;stroke-opacity:1;fill:#000;stroke-dasharray:none;font-weight:400;stroke-width:1;font-family:&quot;Dialog&quot;;font-style:normal;stroke-linejoin:miter;font-size:12px;stroke-dashoffset:0;image-rendering:auto">
    <g style="stroke-linecap:round;fill:#323935;stroke:#323935">
        <path stroke="none" d="M2 30.5v-9l1-1v-1l1-1v-1l1-1v-1l3-3v-1L9.5 10l1.5 1.5v1l2 2v3l-3 3v2l-1 1v1L7.5 26 9 27.5v1l1.5 1.5h1l4 4h1l1 1h1l1 1h2l1.5-1.5 1.5 1.5h5l1.5 1.5 3-3 4.5 4.5-2.5 2.5v1L34.5 44h-1l-1 1h-5l-1 1h-3l-1-1h-4l-1-1h-2l-3 3h-2L6 42.5v-2l-1-1v-4L3.5 34l.5-.5-1-1v-1Z" style="stroke:none"/>
    </g>
    <g stroke="none" style="stroke-linecap:round;fill:#465248;stroke:#465248">
        <path d="M7.5 26 9 24.5v-1l1-1v-2l3-3v-3l-2-2v-1l-1-1 1-1v-1l.5-.5L13 9.5v1l1 1v1l.5.5h1l4.5 4.5v4L18.5 23l3 3h2l4-4h1l2-2h4l1.5 1.5v4l1 1v3l3 3v5L38.5 39 34 34.5l-3 3-1.5-1.5h-5L23 34.5 21.5 36h-2l-1-1h-1l-1-1h-1l-4-4h-1L9 28.5v-1Z" style="stroke:none"/>
        <path d="M11.5 8 14 5.5V5h3.5l1-1h2l1-1h3l3 3h1l2 2h2l2-2h2L38 7.5v1l1 1v1l.5.5h1l2.5 2.5v1l1 1v2l1 1v1l1 1v8l-1 1v1l-1 1v2L41.5 36H40v-3.5l-3-3v-3l-1-1v-4L34.5 20h-4l-2 2h-1l-4 4h-2l-3-3 1.5-1.5v-4L15.5 13h-1l-.5-.5v-1l-1-1v-1Z" style="fill:#647b64;stroke:none"/>
        <path d="M26 28.5v3l1.5 1.5h3l2.5-2.5v-3L31.5 26h-2l-1 1h-1Z" style="stroke:none"/>
        <path d="M26 31.5v-3l1.5-1.5h1l1-1h2l1.5 1.5v3L30.5 33h-3Z" style="fill:#323935;stroke:none"/>
    </g>
</svg>
