<svg xmlns="http://www.w3.org/2000/svg" width="48" height="48" style="fill-opacity:1;color-rendering:auto;color-interpolation:auto;text-rendering:auto;stroke:#000;stroke-linecap:square;stroke-miterlimit:10;shape-rendering:auto;stroke-opacity:1;fill:#000;stroke-dasharray:none;font-weight:400;stroke-width:1;font-family:&quot;Dialog&quot;;font-style:normal;stroke-linejoin:miter;font-size:12px;stroke-dashoffset:0;image-rendering:auto">
    <g style="stroke-linecap:round;fill:#323935;stroke:#323935">
        <path stroke="none" d="M2 30.5v-8l1-1v-1l1-1V18h.5L6 16.5v-1l1-1v-1l3.5-3.5 1.5 1.5v3l4.5 4.5-2 2h-1l-1 1h-1l-4 4 3.5 3.5v1l1 1v1l2.5 2.5h1l.5.5v1l1.5 1.5h1l1.5 1.5 1.5-1.5h1l1-1h5l1 1h2l2.5-2.5 3 3v1l.5.5-1.5 1.5v1l-.5.5h-1l-.5.5v1L32.5 46h-4l-1 1h-10l-1-1h-1l-1-1h-1l-1-1h-1l-2-2h-2L5 39.5v-2l-1-1v-2l-1-1v-2Z" style="stroke:none"/>
    </g>
    <g stroke="none" style="stroke-linecap:round;fill:#465248;stroke:#465248">
        <path d="m7.5 26 4-4h1l1-1h1l2-2-4.5-4.5v-3L10.5 10l2-2L14 9.5v3l5 5 3.5-3.5h2l1-1h3l5 5-2.5 2.5v1l-1 1v3l1.5 1.5h3l1 1h1l1 1h1l.5.5v4l1.5 1.5h1l.5.5-.5.5h-1l-.5.5v1L37.5 40l-.5-.5v-1l-3-3-2.5 2.5h-2l-1-1h-5l-1 1h-1L20 39.5 18.5 38h-1L16 36.5v-1l-.5-.5h-1L12 32.5v-1l-1-1v-1Z" style="stroke:none"/>
        <path d="m12 7.5.5-.5h1l2-2h2l1-1h3l1-1h4l1 1 .5-.5L29.5 5h1l1 1H35v.5L36.5 8h2l3 3h.5v1.5l2 2v4l1 1v11l-1 1v2l-2 2-.5-.5h-1L39 33.5v-4l-.5-.5h-1l-1-1h-1l-1-1h-3L30 25.5v-3l1-1v-1l2.5-2.5-5-5h-3l-1 1h-2L19 17.5l-5-5v-3Z" style="fill:#647b64;stroke:none"/>
        <path d="M16 26.5v2l1 1v1l1.5 1.5h3l1.5-1.5v-1l1-1v-2L21.5 24h-3Z" style="stroke:none"/>
        <path d="M16 28.5v-2l2.5-2.5h3l2.5 2.5v2l-1 1v1L21.5 32h-3L17 30.5v-1Z" style="fill:#323935;stroke:none"/>
    </g>
</svg>
