<svg xmlns="http://www.w3.org/2000/svg" width="48" height="48" style="fill-opacity:1;color-rendering:auto;color-interpolation:auto;text-rendering:auto;stroke:#000;stroke-linecap:square;stroke-miterlimit:10;shape-rendering:auto;stroke-opacity:1;fill:#000;stroke-dasharray:none;font-weight:400;stroke-width:1;font-family:&quot;Dialog&quot;;font-style:normal;stroke-linejoin:miter;font-size:12px;stroke-dashoffset:0;image-rendering:auto">
    <g style="stroke-linecap:round;fill:#52525c;stroke:#52525c">
        <path stroke="none" d="M2 30.5v-6l1-1v-2l1-1v-1l1-1v-1l1-1v-1l1-1v-1l1-1v-1L9.5 10l1.5 1.5v1l2 2v3l-3 3v2l-1 1v1L7.5 26 9 27.5v1l1.5 1.5h1l4 4h1l1 1h1l1 1h1l1 1h1l1 1h3l1 1h2l4.5-4.5 4.5 4.5-4.5 4.5v.5h-1.5l-2 2H23v-.5l-.5-.5h-4l-1-1h-2l-1-1h-1l-1-1h-1L10 40.5v-1L8.5 38h-1L6 36.5v-1l-3-3v-1Z" style="stroke:none"/>
    </g>
    <g stroke="none" style="stroke-linecap:round;fill:#706f74;stroke:#706f74">
        <path d="M7.5 26 9 24.5v-1l1-1v-2l3-3v-3l-2-2v-1l-1-1 1-1v-1l.5-.5L13 9.5v1l1 1v1l1 1v1l1 1v3l2 2 2-2v-1l4-4 2.5 2.5-1.5 1.5v1l-1 1v2l2.5 2.5h2l1-1h1l.5-.5v-1l1-1v-1l3.5-3.5h3l2 2-4.5 4.5v2l-4 4v2l2 2 3-3 3 3v5L38.5 39 34 34.5 29.5 39h-2l-1-1h-3l-1-1h-1l-1-1h-1l-1-1h-1l-1-1h-1l-4-4h-1L9 28.5v-1Z" style="stroke:none"/>
        <path d="M11.5 8 14 5.5V5h3.5l1 1h1L22 8.5l2-2v-1L26.5 3h5l1 1H34v.5L35.5 6h1L38 7.5v1l1 1v1l1.5 1.5-.5.5 1 1v1l1 1v1l2 2v1l1 1v3l1 1V29h-.5l-.5.5v1l-1 1v2L41.5 36H40v-3.5l-3-3-3 3-2-2v-2l4-4v-2l4.5-4.5-2-2h-3L32 19.5v1l-1 1v1l-.5.5h-1l-1 1h-2L24 21.5v-2l1-1v-1l1.5-1.5-2.5-2.5-4 4v1l-2 2-2-2v-3l-1-1v-1l-1-1v-1l-1-1v-1Z" style="fill:#8c8c8c;stroke:none"/>
    </g>
</svg>
