<svg xmlns="http://www.w3.org/2000/svg" width="160" height="160" style="fill-opacity:1;color-rendering:auto;color-interpolation:auto;text-rendering:auto;stroke:#000;stroke-linecap:square;stroke-miterlimit:10;shape-rendering:auto;stroke-opacity:1;fill:#000;stroke-dasharray:none;font-weight:400;stroke-width:1;font-family:&quot;Dialog&quot;;font-style:normal;stroke-linejoin:miter;font-size:12px;stroke-dashoffset:0;image-rendering:auto">
    <g style="stroke-linecap:round;fill:#91788b;stroke:#91788b">
        <path stroke="none" d="m22 50.5.5-.5h4l1 1h4l1 1H36v.5l8.5 8.5-1 1-1-1h-1l-1-1h-1l-2-2h-1l-1-1h-1l-1-1h-1l-2-2h-2l-1-1h-2l-1-1-.5.5Z" style="stroke:none"/>
    </g>
    <g stroke="none" style="stroke-linecap:round;fill:#91788b;stroke:#91788b">
        <path d="M25.5 32h1l1 1h1l1 1h1l1 1h1l3 3h1l1 1h1l2 2H42v.5l2.5 2.5h1l1 1h1l2 2h1l4 4h1l2 2h1l1 1H61v.5l4.5 4.5h1l1 1h1l3.5 3.5v3l-1 1v1l-.5.5h-1l-.5.5v1L67.5 72h-3l-2-2h-1l-4-4h-1l-11-11h-1L26 36.5v-1l-1-1v-1L23.5 32l1-1Z" style="stroke:none"/>
        <path d="m25 53.5-1-1 .5-.5.5.5Zm2-15-1-1v-1l1 1Z" style="fill:#57485b;stroke:none"/>
        <path d="M26.5 54h-1L24 52.5l.5-.5 1 1h2l1 1h2l2 2h1l1 1h1l1 1h1l2 2h1l1 1h1l1 1 1-1-8.5-8.5v-2L33.5 48l.5-.5-2.5-2.5.5-.5-5-5v-1l-1-1v-1L44.5 55h1l11 11h1l4 4h1l2 2h3l1.5-1.5v-1l.5-.5h1l.5-.5v-1l1-1v-3L68.5 60h-1l-1-1h-1l-3-3 .5-.5V53h.5l.5-.5v-2l-.5-.5 1.5-1.5v-18l1-1v-4l1-1v6l1 1v13l1 1v5l1 1v2l1 1v1l5 5 2.5-2.5h1l4 4h1l1 1h2l1-1h1l15-15h.5v.5l-1 1 .5.5-1.5 1.5v1l-3 3v1l-1 1v1l-1 1V60h-.5l-.5.5v1l-2 2v1l.5.5-2.5 2.5v4l1.5 1.5h1l2 2h3l1-1h1l1-1h3l2-2h1l2-2h1l1-1h1l1-1h1l3-3h1l1-1h1l1-1h1l2-2h1l1-1h2l1-1h1l2-2h2l1-1h1l2-2h2l1-1 .5.5-6 6v.5h-1.5l-6 6h-1l-1 1h-1l-11 11h-1l-3.5 3.5-.5-.5-2.5 2.5-1.5-1.5h-1l-1-1h-11l-1 1h-1l-3 3 2 2h1l1 1h1l1 1h1l1 1h1l1 1h1l1 1h1l4 4h1l1 1h1l4 4h1l1 1h1l1 1h1l1 1h1l2 2h-3l-1-1H115v-.5l-.5-.5H112v-.5l-.5-.5h-2l-1-1h-1l-1-1h-1l-2-2h-2l-2-2h-1l-1-1h-2l-1-1h-1l-2-2H90v-.5l-.5-.5h-4l-4 4h-1l-2 2h-1l-1 1h-1L74 99.5v.5h-1.5l-3.5 3.5-.5-.5-1 1h-1l-1 1h-1l-1 1h-1l-1 1h-1l-2 2h-1l-4 4h-1l-2 2h-1l-1 1h-1l-2 2h-2L61 100.5v-1l5.5-5.5h1l3-3h1l1-1h1l9-9h1l2.5-2.5v-1l1-1v-2L81.5 69h-4l-2 2h-1l-2 2h-1l-3 3h-1L62 81.5l-9-9v-1L47.5 66h-1l-1-1h-1l-1-1h-2l-1-1H39v-.5l-.5-.5h-1l-1-1h-1l-2-2h-1l-2-2h-1Z" style="fill:#57485b;stroke:none"/>
        <path d="m40 120.5-1-1v-2l1-1v-1l1-1v-1l1-1v-1l2-2v-1l2-2v-1l2-2v-1l2-2v-1l1-1v-1l3-3v-1l1-1v-1l3-3v-1l2-2v-1l2.5-2.5-.5-.5 5.5-5.5h1l3-3h1l2-2h1l2-2h4l5.5 5.5v2l-1 1v1L83.5 81h-1l-9 9h-1l-1 1h-1l-3 3h-1L61 99.5v1L43.5 118h-1Zm28-97 1 1v1l1 1v2l1 1v1l1 1v3l1 1v3l1 1v3l1 1v2l1 1v2l.5.5h.5v2.5l1 1v5l.5.5-2.5 2.5-5-5v-1l-1-1v-2l-1-1v-5l-1-1v-13l-1-1v-8l.5-.5.5.5ZM79.5 58l.5-.5v-1l4.5-4.5h1l2-2h1l1-1h1l1-1h1l1-1h1l1-1h1l1-1h1l2-2h1l1-1h1l1-1h1l1-1h3l.5.5-5 5V47h-.5l-15 15h-1l-1 1h-2l-1-1h-1Zm10 26 3-3h1l1-1h11l1 1h1L120 93.5v1l7 7v1l3.5 3.5-1 1h-2l-1-1h-2l-1-1h-1l-2-2h-1l-1-1h-1l-1-1h-1l-1-1h-1l-4-4h-1l-1-1h-1l-4-4h-1l-1-1h-1l-1-1h-1l-1-1h-1l-1-1h-1l-1-1h-1ZM93 71.5v-4l3.5-3.5h1l1-1 .5.5 1-1V62h1.5l1-1h1l1-1h1l1-1h1l1-1h1l1-1h3l1-1h2l1-1h3l1-1h1l1-1h3l1-1h1l1-1h3l1-1h4l1-1h3l1-1h5l.5.5-4 4-.5-.5-1 1h-2l-2 2h-1l-1 1h-2l-2 2h-1l-1 1h-2l-1 1h-1l-2 2h-1l-1 1h-1l-1 1h-1l-3 3h-1l-1 1h-1l-1 1h-1l-2 2h-1l-2 2h-3l-1 1h-1l-1 1h-3l-2-2h-1Z" style="stroke:none"/>
        <path d="M105.5 46h-.5v-.5l.5-.5.5.5Z" style="fill:#57485b;stroke:none"/>
    </g>
</svg>
