<svg xmlns="http://www.w3.org/2000/svg" width="208" height="208" style="fill-opacity:1;color-rendering:auto;color-interpolation:auto;text-rendering:auto;stroke:#000;stroke-linecap:square;stroke-miterlimit:10;shape-rendering:auto;stroke-opacity:1;fill:#000;stroke-dasharray:none;font-weight:400;stroke-width:1;font-family:&quot;Dialog&quot;;font-style:normal;stroke-linejoin:miter;font-size:12px;stroke-dashoffset:0;image-rendering:auto">
    <g style="stroke-linecap:round;fill:#91788b;stroke:#91788b">
        <path stroke="none" d="m2.5 145-.5-.5L21.5 125l-.5-.5L35.5 110h1l2-2h1l8-8 .5.5 3.5-3.5h1l2-2-1-1h-2l-1-1h-1l-1-1h-2l-1-1h-2l-1-1h-1l-1-1h-1l-1-1h-1l-2-2h-1l-1-1h-1l-1-1h-2l-2-2 1-1h2l1 1h2l1 1h2l1 1h2l1 1h3l1 1h4l1 1h1l1 1h6l1 1h2l1.5 1.5 1.5-1.5h1l1-1h1l1-1h1l1-1h1l1-1h1l1-1h1l1-1h2l2 2h1l10 10-3 3h-3l-1 1h-1l-1 1h-1l-1 1h-1l-1.5 1.5v1l-1 1v5l-2 2v1l-2 2v2l-1 1v2l-1 1v1l-1 1v2l-1.5 1.5-.5-.5v-2l-1-1v-7l-1-1v-2l-.5-.5-1 1h-1l-4 4h-1l-2 2h-1l-1 1h-1l-2 2h-1l-2 2h-1l-2 2h-1l-2 2h-1l-1 1h-1l-2 2h-1l-3 3h-1l-1 1h-1l-1 1h-2l-1 1h-1l-1 1h-1l-1 1h-1l-1 1h-1l-2 2h-1l-1 1h-1l-1 1h-2l-1 1Z" style="stroke:none"/>
    </g>
    <g stroke="none" style="stroke-linecap:round;fill:#57485b;stroke:#57485b">
        <path d="m12.5 144 1-1h1l1-1h1l2-2h1l1-1h1l1-1h1l1-1h1l1-1h2l1-1h1l1-1h1l3-3h1l2-2h1l1-1h1l2-2h1l2-2h1l2-2h1l2-2h1l1-1h1l2-2h1l4-4h1l1-1 .5.5v2l1 1v7l1 1v2l.5.5 1.5-1.5v-2l1-1v-1l1-1v-2l1-1v-2l2-2v-1l2-2v-5l1-1v-1l1.5-1.5h1l1-1h1l1-1h1l1-1h3l3-3-10-10h-1l-2-2H76v-.5L74.5 81h-1l-4-4h-1l-6-6h-1l-3-3h-1l-6-6 .5-.5-5-5v-1l-2-2v-1l-4-4v-1l-2-2v-1l-1-1v-1l-1-1v-2l-1-1v-1l-2-2v-1l-1-1v-1L30.5 30l.5-.5-2-2v-1l-1-1v-1l-1-1v-2l1 1v1L42.5 38h1l5 5h1l3 3h1l7 7h1l4 4h1l3 3h1l1 1h1l1 1h1l1 1h1l.5.5v1l1 1v4l-1 1v4l.5.5 7.5-7.5 2.5 2.5h1l1 1h1l1 1h3l2-2h1l9-9 .5.5v10l-1 1v7l-1 1v3l-1 1v6l-1 1v5l-1 1v3l5.5 5.5h1l1 1h12l1-1h3l2 2h1l1 1h1l4 4 .5-.5v-5l-1-1v-3l1-1v-1l1.5-1.5h2l1-1h2l1-1h3l1-1h4l1-1h1l1-1h5l1-1h2l1-1h2l1-1h2l1-1h2l1-1h1l1-1h1l1-1h1l1-1h2l1-1h1l3-3h1l1-1h1l1-1h1l1-1h1l1-1h1l2-2h1l1-1h1l2-2h1.5v.5L180.5 96h-1l-3 3h-1l-2.5 2.5v.5h-2v-.5l-1.5-1.5h-1l-1-1h-2l-5 5 1.5 1.5v1l8.5 8.5h1l5 5h1l1 1h1l7 7h1l4 4h1.5v.5l2 2-.5.5h-2l-1-1h-2l-1-1h-2l-1-1h-2l-1-1h-1l-2-2h-1l-2-2h-1l-1-1h-1l-1-1h-1l-1-1h-1l-1-1h-1l-1-1h-1l-10-10h-1l-1-1h-5l-1 1h-1l-3.5 3.5v.5h-.5l-1-1h-1l-1-1h-3l-1 1h-2l-1 1h-2l-1 1h-2l-1 1h-2l-1 1h-2l-1 1h-1l-1 1h-1l-2.5 2.5v1l-1 1v1l-1.5 1.5 1.5 1.5v1l1 1v1l3 3v1l1 1v1l1 1v1l1 1v1l2 2v1l1 1v1l4 4v1l2 2v1l2 2v1l1 1v1l1 1v1l2 2v2l1 1v1l3 3v1l2 2v1l6 6v1l7 7v1l3.5 3.5h-2l-1-1h-2l-2-2h-1l-2-2h-1l-1.5-1.5-.5.5-6-6h-1l-20-20h-3l-1 1h-2l-1 1h-4l-1 1h-3l-1 1h-2l-1 1h-6l3-3h1l1-1h1l1-1h1l2-2h1l8.5-8.5v-3l-2.5-2.5h-6l-2.5 2.5v.5h-4.5l-1 1h-1l-1 1h-1l-1 1h-1l-1 1h-1l-1 1h-1l-1 1h-1l-1 1h-2l-.5.5v.5h-2.5l-1 1h-2l-1 1h-2l-1 1h-5l-1 1h-3l-.5-.5.5-.5h1l9.5-9.5v-1l2-2v-1l11-11v-1l5-5v-1l6-6v-1l1-1v-3l-4.5-4.5h-1l-1.5-1.5-1.5 1.5h-2l-1 1h-1l-1 1h-1l-4.5 4.5v1l-1 1v1l-1 1v1l-1 1v1l-2 2v1l-1 1v1l-2 2-.5-.5h-6l-1 1h-4l-1 1h-2l-1 1h-2l-1 1h-2l-1 1h-3l-1 1h-2l-1 1h-4l-1 1h-3l-1 1h-4l-1 1h-5l-1 1Z" style="stroke:none"/>
        <path d="m25.5 19 1-1H28v.5l.5.5.5-.5 1.5 1.5h1l.5-.5 2.5 2.5h1l3 3h1l1 1h1l1 1h1l1 1h1l1 1h1l1 1h1l1 1h1l1 1h1l1 1h1l1 1h1l1 1h1l1 1h1l1 1h1l1 1h1l1 1h1l1 1h1l2.5 2.5 1-1v-2l-1-1v-7l-1-1v-1l-1-1v-5l-1-1v-4l-.5-.5 1-1 1.5 1.5v1l1 1v1l1 1v1l1 1v2l1 1v2l1 1v1l1 1v2l1 1v4l1 1v4l.5.5h2l1 1h2l1 1h2l1 1h1l1 1h4l1 1h1l1 1h1l1 1h2.5v.5l1.5 1.5.5-.5 2.5 2.5 1.5-1.5v-2l1-1v-3l1-1v-2l.5-.5 1.5 1.5v2l1 1v1l1 1v1l1 1v2l1 1v1l1 1v1l1 1v1l1 1v1l1 1v2l1 1v4l1 1v1l1 1v7l1 1v1l1.5 1.5h1l.5.5v1l.5.5h1l1 1h7l1-1h1l1-1h1l1-1h1l1-1h1l1-1h1l2.5-2.5v-1l2.5-2.5h4l1-1h4l1-1h4l1-1h3l1-1h3l1-1h5l1-1h4l1-1h4l1-1h14l1 1-3.5 3.5v.5h-1.5l-2 2h-1l-1 1h-1l-2 2h-1l-1 1h-1l-1 1h-1l-1 1h-1l-1 1h-1l-3 3h-1l-1 1h-2l-1 1h-1l-1 1h-1l-1 1h-1l-1 1h-2l-1 1h-2l-1 1h-2l-1 1h-2l-1 1h-5l-1 1h-1l-1 1h-4l-1 1h-3l-1 1h-2l-1 1h-2l-1.5 1.5v1l-1 1v3l1 1v5l-.5.5-4-4h-1l-1-1h-1l-2-2h-3l-1 1h-12l-1-1h-1l-5.5-5.5v-3l1-1v-5l1-1v-6l1-1v-3l1-1v-7l1-1v-10l-.5-.5-9 9h-1l-2 2h-3l-1-1h-1l-1-1h-1L85 67.5 77.5 75l-.5-.5v-4l1-1v-4l-1-1v-1l-.5-.5h-1l-1-1h-1l-1-1h-1l-1-1h-1l-3-3h-1l-4-4h-1l-7-7h-1l-3-3h-1l-5-5h-1L28 23.5v-1l-1-1v-1Z" style="fill:#91788b;stroke:none"/>
        <path d="M30 85.5V84h1.5l1 1h1l1 1h1l2 2h1l1 1h1l1 1h1l1 1h2l1 1h2l1 1h1l1 1h2l1 1-2 2h-1l-3.5 3.5-2-2-.5.5-1-1h-1l-4-4h-1l-1-1h-1L32 88.5v-1Z" style="stroke:none"/>
        <path d="m59.5 162-1-1 1.5-1.5-.5-.5 1.5-1.5v-1l2-2v-1l1-1v-1l1-1v-1l1-1v-1l1-1v-1l1-1v-1l1-1v-1l1-1v-1l1-1v-2l1.5-1.5-1-1 2.5-2.5v-1l1-1v-1l2-2v-1l1-1v-1l1-1v-1l1-1v-1l4.5-4.5h1l1-1h1l1-1h2l1.5-1.5 1.5 1.5h1l4.5 4.5v3l-1 1v1l-6 6v1l-5 5v1l-11 11v1l-2 2v1l-9.5 9.5h-1l-2 2Z" style="fill:#91788b;stroke:none"/>
        <path d="M65.5 38H65v-3.5l1-1v-6l1-1v-4l1-1v-3l.5-.5.5.5v4l1 1v5l1 1v1l1 1v7l1 1v2l-1 1-2.5-2.5h-1l-1-1h-1Z" style="stroke:none"/>
        <path d="M91 167v-.5l2-2v-1l5-5v-1l2-2v-1l1.5-1.5-1-1 1.5-1.5v-2l2.5-2.5h6l2.5 2.5v3l-8.5 8.5h-1l-2 2h-1l-1 1h-1l-1 1h-1l-3 3Z" style="fill:#91788b;stroke:none"/>
        <path d="m104 53.5 1-1v-2l1-1v-2l1-1v-1l1-1v-1l1-1v-1l1-1v-2l1-1v-2l1-1v-2l2-2v-1l1-1V27h.5l.5-.5-.5-.5 2.5-2.5V22h.5l.5-.5v-1l1-1v15l1 1v5l1 1v3l1 1v4l1 1v8l1 1v2l1 1v2l1 1v1l1 1v1l1 1v1l1 1v1l1 1v1l.5.5h1l1 1h1l1 1h3l3.5-3.5v-1l1-1v-1l1-1v-1l1-1v-1l1-1v-1l1-1v-1l1-1v-1l2-2v-1l1-1v-1l1-1v-2l1-1v-1l4-4v-1l2-2v-1l1-1v-1l5-5v-1l2-2v-1l2-2v-1l1-1v-1l1.5-1.5h.5v2.5l-1 1v2l-1 1v1l-1 1v1l-1 1V39h-.5l-.5.5v2l-1 1v2l-1 1v1l-1 1v1l-1 1V51h-.5l-1 1h-4l-.5.5v1l-1 1v1l-1 1v2l-1 1 1 1 1.5-1.5h2l1-1h2l1-1h2l1-1h2l1-1h2l1-1h1l2-2h1.5v.5l-2.5 2.5h-1l-3 3h-1l-6 6h-1l-.5.5v.5h-1.5l-1 1h-1l-4.5 4.5v1l-1 1v1l-1 1v1l-1 1v1l.5.5-1.5 1.5v1l-2.5 2.5h-1l-1 1h-1l-1 1h-1l-1 1h-1l-1 1h-1l-1 1h-7l-1-1h-1l-.5-.5v-1l-.5-.5h-1l-1.5-1.5v-1l-1-1v-7l-1-1v-1l-1-1v-4l-1-1v-2l-1-1v-1l-1-1v-1l-1-1v-1l-1-1v-1l-1-1v-2l-1-1v-1l-1-1v-1l-1-1v-2l-1.5-1.5-.5.5v2l-1 1v3l-1 1v2l-1.5 1.5Z" style="stroke:none"/>
        <path d="m112.5 128 1.5-1.5v-1l1-1v-1l2.5-2.5h1l1-1h1l1-1h2l1-1h2l1-1h2l1-1h2l1-1h2l1-1h3l1 1h1l1 1h.5v3.5l1 1v5l1.5 1.5h2l.5-.5 1.5 1.5h4l1 1h6l1 1h6l1 1h1l.5.5-1 1-.5-.5h-3l-1 1h-3l-1 1h-5l-1 1h-8l-1 1 1.5 1.5v2l1 1v1l1 1v4l1 1v2l1 1v4l1 1v3l1 1v3l1 1v5l1 1v3l1 1v2l1.5 1.5-1 1 1.5 1.5v3l1 1v10l-.5.5-3.5-3.5v-1l-7-7v-1l-6-6v-1l-2-2v-1l-3-3v-1l-1-1v-2l-2-2v-1l-1-1v-1l-1-1v-1l-2-2v-1l-2-2v-1l-4-4v-1l-1-1v-1l-2-2v-1l-1-1v-1l-1-1v-1l-1-1v-1l-3-3v-1l-1-1v-1Zm7.5-93.5v-17l1-1v-2l1-1V11h.5l.5-.5v-1l1-1v-1l.5-.5 1.5 1.5v4l1.5 1.5-1 1 1.5 1.5v4l1 1v1l1 1v5l1 1v6l1 1v1l1 1v3l1 1v2l1 1 7.5-7.5h1l1-1h1l6-6h1l7.5-7.5v-1l4.5-4.5h1l8-8h1l3-3 .5.5v3l-1 1v2l-1 1v2l-1 1v3l-1 1v1l-1 1v1l-.5.5h-1l-1.5 1.5v1l-1 1v1l-2 2v1l-2 2v1l-5 5v1l-1 1v1l-2 2v1l-4 4v1l-1 1v2l-1 1v1l-1 1v1l-2 2v1l-1 1v1l-1 1v1l-1 1v1l-1 1v1l-1 1v1l-1 1v1l-3.5 3.5h-3l-1-1h-1l-1-1h-1l-.5-.5v-1l-1-1v-1l-1-1v-1l-1-1v-1l-1-1v-1l-1-1v-2l-1-1v-2l-1-1v-8l-1-1v-4l-1-1v-3l-1-1v-5Z" style="fill:#91788b;stroke:none"/>
        <path d="m145.5 136 1-1h8l1-1h5l1-1h3l1-1h3l.5.5-1.5 1.5h-1l-3 3h-1l-2 2h-1l-1 1h-1l-1 1h-1l-1 1h-1l-1 1h-1l-1 1H149v-1.5l-1-1v-1l-1-1v-2Z" style="stroke:none"/>
        <path d="m155 60.5-1-1 1-1v-2l1-1v-1l1-1v-1l.5-.5h4l1-1h13l.5.5v.5h-1.5l-2 2h-1l-1 1h-2l-1 1h-2l-1 1h-2l-1 1h-2l-1 1h-2Zm5.5 43.5 5-5h2l1 1h1l1.5 1.5v1l.5.5h.5v1.5l1 1v1l1.5 1.5-.5.5 3 3v1l8 8v1l4 4v1l3 3-.5.5 1.5 1.5v.5h-1.5l-4-4h-1l-7-7h-1l-1-1h-1l-5-5h-1l-8.5-8.5v-1Z" style="fill:#91788b;stroke:none"/>
    </g>
</svg>
