<svg xmlns="http://www.w3.org/2000/svg" width="128" height="134" style="fill-opacity:1;color-rendering:auto;color-interpolation:auto;text-rendering:auto;stroke:#000;stroke-linecap:square;stroke-miterlimit:10;shape-rendering:auto;stroke-opacity:1;fill:#000;stroke-dasharray:none;font-weight:400;stroke-width:1;font-family:&quot;Dialog&quot;;font-style:normal;stroke-linejoin:miter;font-size:12px;stroke-dashoffset:0;image-rendering:auto">
    <g style="stroke-linecap:round;fill:#925e46;stroke:#925e46">
        <path stroke="none" d="M4.5 66 7 63.5v-1l3.5-3.5 4 4-2 2h-1l-.5.5 6.5 6.5h2l1 1h3l1.5 1.5v3L23.5 79h-2l-1-1h-3l-.5.5v1l-2 2v1l-2 2v1l-1 1 2.5 2.5h1l4 4h1l3 3h1l2 2h1l1 1h1l1 1h1l1 1h3l2.5-2.5v-1l1-1v-1l1-1v-1l2-2v-1l1-1 4.5 4.5-3.5 3.5v2l-3 3v1l-4.5 4.5h-3l-2-2h-1l-1-1h-2l-1-1h-1l-1-1h-1l-3-3h-2l-.5.5v1l-1 1v1l-1 1v1l-1 1v1l-2.5 2.5 1 1h1l5 5h1l4 4h1l2 2h1l1 1h1l1 1h1l2 2h3l5.5-5.5v-1l3.5-3.5-3.5-3.5v-4l3-3v-1l1-1V102h.5l.5-.5 4 4-2 2v2l1.5 1.5h1l.5.5v1l1.5 1.5h1l2 2h1l3 3h1l1.5 1.5 2-2v-1l1-1v-1l.5-.5 1 1h1l1 1H72v1.5l-2 2v1l-1 1v1l-1 1v1l-1.5 1.5h-2l-1-1h-1l-1-1h-1l-2-2h-1l-3-3h-1l-1.5-1.5-4 4v1l-5 5v1l-2.5 2.5h-6l-1-1h-1l-1-1h-1l-1-1h-1l-1-1h-1l-2-2h-1l-1-1h-1l-4-4h-1l-7-7h-1L7 112.5v-1L5.5 110l1.5-1.5v-1l2-2v-1l2-2v-1l1-1v-1l2-2v-2l-8-8v-1L4.5 85 9 80.5v-1l2-2v-1l2.5-2.5-1-1h-1l-3-3h-1L6 68.5v-1Z" style="stroke:none"/>
    </g>
    <g stroke="none" style="stroke-linecap:round;fill:#ba914d;stroke:#ba914d">
        <path d="m11 59.5-1-1 .5-.5.5.5Z" style="stroke:none"/>
        <path d="m10.5 58 7-7h4l3 3 1.5-1.5v-1l1-1v-1l1.5-1.5h5l.5.5v1l.5.5h1l2 2h1l1 1h1l1 1h1l1 1h1l1 1h1l1 1h1l2 2h1l2 2h1l.5-.5 1.5 1.5h1l3.5 3.5v1l1.5 1.5-1.5 1.5v5l-1 1v1l-2 2V80h-.5l-.5.5v1l-3 3v1l-1 1v1l-1 1v1l-1 1v1L49.5 93l-5-5 4.5-4.5v-1l1-1v-1l1-1v-1l1-1v-1l2-2v-1l1-1v-1l1-1v-2L54.5 67h-1l-1-1h-1l-1-1h-1l-2-2h-1l-1-1h-1l-2-2h-1l-1-1h-1l-1-1h-1l-2-2h-1l-1-1h-2L29 57.5l.5.5h2l1 1h1l2 2h1l1 1h1l2 2h1l1 1h2l1 1h1l2 2h1l1.5 1.5v2l-1 1v3l-1 1v1l-3 3v1L42.5 85h-1l-1 1h-2L37 84.5v-2l1-1v-1l2-2v-1l1.5-1.5-3-3h-1L33 68.5 27.5 74l-4-4 2.5-2.5v-1l2.5-2.5-2-2h-1l-4-4h-1l-1-1-4.5 4.5-1.5-1.5h-1Z" style="fill:#dab560;stroke:none"/>
        <path d="m11 65.5.5-.5h1l2-2-4.5-4.5.5-.5 2 2h1l1.5 1.5 4.5-4.5 1 1h1l4 4h1l2 2-2.5 2.5v1L23.5 70l4 4 5.5-5.5 4.5 4.5h1l3 3-1.5 1.5v1l-2 2v1l-1 1v2l1.5 1.5h2l1-1h1l3.5-3.5v-1l3-3v-1l1-1v-3l1-1v-2L49.5 68h-1l-2-2h-1l-1-1h-2l-1-1h-1l-2-2h-1l-1-1h-1l-2-2h-1l-1-1h-2l-.5-.5 2.5-2.5h2l1 1h1l2 2h1l1 1h1l1 1h1l2 2h1l1 1h1l2 2h1l1 1h1l1 1h1l1.5 1.5v2l-1 1v1l-1 1v1l-2 2v1l-1 1v1l-1 1v1l-1 1v1L44.5 88l7 7-1 1-2.5-2.5-.5.5-4.5-4.5-1 1v1l-2 2v1l-1 1v1l-1 1v1l-2.5 2.5h-3l-1-1h-1l-1-1h-1l-1-1h-1l-2-2h-1l-3-3h-1l-4-4h-1L12 86.5l1-1v-1l2-2v-1l2-2v-1l.5-.5h3l1 1h2l1.5-1.5v-3L23.5 73h-3l-1-1h-2Z" style="stroke:none"/>
        <path d="m12.5 49 1.5-1.5v-1l2-2v-1l3-3v-1l3-3v-1l1.5-1.5-1-1h-1L15 26.5v-3l1-1v-1l4-4 3 3v2l-1 1v2l2.5 2.5h1l2 2h1l2.5 2.5 4-4 3 3V34h-.5l-4 4h-5L25 41.5v1l-2 2v1l-1 1 1 1v1l.5.5h1l2 2-.5.5v1L24.5 54l-3-3h-4L16 52.5Z" style="fill:#925e46;stroke:none"/>
        <path d="m13.5 111-1-1 2.5-2.5v-1l1-1v-1l1-1v-1l1-1v-1l.5-.5h2l3 3h1l1 1h1l1 1h2l1 1h1l2 2h3l4.5-4.5v-1l3-3 2.5 2.5h.5v1.5l-1 1v1l-3 3v4l3.5 3.5-3.5 3.5v1l-5.5 5.5h-3l-2-2h-1l-1-1h-1l-1-1h-1l-2-2h-1l-4-4h-1l-5-5ZM17 63.5l3.5 3.5h2l1-1h1l1-1-5-5h-2L17 61.5Z" style="stroke:none"/>
        <path d="M17 63.5v-2l1.5-1.5h2l5 5-1 1h-1l-1 1h-2Z" style="fill:#dab560;stroke:none"/>
        <path d="m20 17.5 1-1 2.5 2.5h2l1-1h1l1-1h2l1 1h1l1 1h1l1 1h1l2 2-1.5 1.5v2L35.5 27l3.5 3.5 1-1v-1l1-1v-1l1-1v-1l1-1v-3l6-6 2 2-2 2v1l-1 1v1l-1 1v2L45.5 26h-1L43 27.5v1l-4 4v1l-.5.5H38v-2.5l-3-3-4 4-2.5-2.5h-1l-2-2h-1L22 25.5v-2l1-1v-2Z" style="stroke:none"/>
        <path d="M21 16.5v-1l1.5-1.5h1l5-5h2l4 4h1l1 1h1l1 1h2l3-3h1l3-3h3l1 1h1l2 2 .5-.5v-1L58.5 7h4l3 3h2l1 1h1l1 1h1l1 1h1l1.5 1.5 2-2v-1l6-6L84.5 7h2l1 1h2l1 1h1l1 1h2l2 2h1l2 2h1l2 2h1l1 1h1l2 2h2l1 1h1l1 1h1l1 1h2l3 3h1l3.5 3.5v4l-1 1v1l-1 1v1l-1 1v1l-1 1v1l-1 1v1l-2 2v1l-1 1v1l-1 1v1l-1.5 1.5-2-2h-1l-2-2 2.5-2.5v-1l2-2v-1l1-1v-1l2-2v-1l1-1v-4l-.5-.5h-1l-2-2h-1l-1-1h-2l-2-2h-2l-2-2h-1l-2-2h-1l-1-1h-1l-2-2h-1l-2-2h-1l-1-1h-1l-1-1h-1L86 12.5 84.5 14h-1L76 21.5v3l.5.5h2l7-7h3l1 1h1l3 3h1l2 2h1l2 2h1l1 1h1l1 1h1l1 1h1l1 1h2l3.5 3.5v3l-1 1v1l-4 4v1l-2 2v1l-3 3-2-2V46h.5l1-1h1l2.5-2.5v-3l-3-3v-2l-.5-.5h-1l-1.5-1.5-1.5 1.5-2-2h-1L94 30.5v-1L92.5 28h-2l-1-1h-1l-1-1h-1L85 24.5 81.5 28l3 3h1l4.5 4.5v3l-2 2v1l-1 1v1l-2 2 1.5 1.5h1l1 1h1l1 1h1l1 1h1l1 1h1l1 1h1l1 1h1l1 1h1l1 1h1l2 2h1l1 1h1l2 2h1l2 2h1l5.5 5.5v2l-2 2v1l-2 2v1l-2 2v1l-2 2v1l-2 2v1l-1 1v1l-2 2V90h-.5l-1.5 1.5 1 1 1-1V91h1.5l2.5 2.5v1l2 2v3l1 1v2l1 1v4l1 1v2l1 1v8l-1.5 1.5H114v-1.5l-1-1v-1l-2-2v-4l-1-1v-4l-1-1v-3l-1-1v-2l-1-1-1.5 1.5h-3l-1 1h-2l-1 1h-1l-1 1h-1l-1 1h-3l-2 2h-5l-.5-.5v-2l3.5-3.5h1l1-1h2l1-1h1l1.5-1.5.5.5 1-1h2l1-1h1l1-1h2l1.5-1.5-.5-.5h-1l-.5-.5v-1l-2.5-2.5 2.5-2.5v-1l1-1v-1l2-2v-1l2-2v-1l1-1v-1l3-3v-1l1.5-1.5-2-2h-1l-3-3h-1l-2-2h-1l-1-1h-1l-1-1h-1l-1-1h-1l-1-1h-1l-1-1h-1l-1-1h-1l-1-1h-1l-1-1h-3l-2 2 2 2h1l1 1h1l1 1h1l1 1h1l1 1h1l1 1h1l1 1h1l1 1h1l2 2h2l1 1h1l1.5 1.5v3l-2 2v1l-1 1v1l-4 4v1L99.5 84h-2l-1-1h-3l-1-1h-1l-.5-.5v-2l1-1v-1l1.5-1.5-3-3h-1l-1-1h-1l-1-1h-2L80 75.5 75.5 71l3-3h1l2.5-2.5v-1l1.5-1.5-2-2h-1L77 57.5l2-2v-2l1-1v-3L75.5 45h-2L72 43.5 67.5 48h-2l-2-2h-1l-.5-.5 1-1v-1l5-5-.5-.5h-1L64 35.5V34h2.5l1.5-1.5v-1l2-2 6.5 6.5h2l3 3-2 2 1.5 1.5 1-1v-1l1-1v-3l-.5-.5h-1l-3-3h-1L73 28.5v-1l-1-1v-2L69.5 22l1.5-1.5v-2L69.5 17h-1l-1-1h-2l-1-1h-1l-1-1h-2l-1 1h-1l-1 1h-2l-1-1h-2L51 16.5l-2-2-6 6v3l-1 1v1l-1 1v1l-1 1v1l-1 1-3.5-3.5 1.5-1.5v-2l1.5-1.5-2-2h-1l-1-1h-1l-1-1h-1l-1-1h-2l-1 1h-1l-1 1h-2Z" style="fill:#dab560;stroke:none"/>
        <path d="m22 46.5 1-1v-1l2-2v-1l3.5-3.5h5l2-2 .5.5v1l1 1v1l2.5 2.5h4l5-5h1l4.5-4.5V31h.5l1 1h2l1 1h2l1 1H64v1.5l2.5 2.5h1l.5.5-5 5v1l-1 1 .5.5h1l2 2h2l4.5-4.5 1.5 1.5h2l4.5 4.5v3l-1 1v2l-2 2 3.5 3.5h1l2 2-1.5 1.5v1L79.5 68h-1l-3 3 4.5 4.5 4.5-4.5h2l1 1h1l1 1h1l3 3-1.5 1.5v1l-1 1v2l.5.5h1l1 1h3l1 1h2l1.5-1.5v-1l4-4v-1l1-1v-1l2-2v-3l-1.5-1.5h-1l-1-1h-2l-2-2h-1l-1-1h-1l-1-1h-1l-1-1h-1l-1-1h-1l-1-1h-1l-1-1h-1l-1-1h-1l-2-2 2-2h3l1 1h1l1 1h1l1 1h1l1 1h1l1 1h1l1 1h1l1 1h1l1 1h1l2 2h1l3 3h1l2 2-1.5 1.5v1l-3 3v1l-1 1v1l-2 2v1l-2 2v1l-1 1v1l-2.5 2.5 2.5 2.5v1l.5.5h1l.5.5-1.5 1.5h-2l-.5.5-2-2-5.5 5.5h-1l-1 1h-2l-1 1h-1l-3.5 3.5v2l.5.5h5l2-2h3l1-1h1l1-1h1l1-1h2l1-1h3l1.5-1.5 1 1v2l1 1v3l1 1v4l1 1v4l2 2v1l1 1v1.5h-2v-2.5l-1.5-1.5h-2l-1 1h-1l-1 1h-2l-1 1h-1l-1 1h-1l-1 1h-2l-1 1h-3l-.5-.5v-4l-1-1v-3l-1-1v-5l-.5-.5h-3l-1.5-1.5-2 2v1l-1 1v1l-.5.5h-2l-2-2H76v-.5l3-3v-3l-1.5-1.5h-1l-3-3h-1l-2-2h-1l-1-1h-1l-1-1h-1l-1-1h-1l-1-1h-1l-1-1h-1l-1-1h-4L53 92.5v-2l-1-1v-1l1-1v-1l1-1v-1l3-3v-1l.5-.5h2l4-4h1l.5-.5v-1l4.5-4.5h4l5.5-5.5v-2l-1-1v-1L76.5 59h-2l-3 3h-3l-2-2h-1l-4-4 5-5-2-2h-1L61 46.5l-4 4v1l-1 1v1l-2 2v4l1 1-.5.5h-1l-2-2h-1l-2-2h-1l-1-1h-1l-1-1h-1l-1-1h-1l-1-1h-1l-1-1h-1l-2-2h-1l-.5-.5v-1l-.5-.5h-5L27 49.5v1l-.5.5-2-2h-1l-.5-.5v-1ZM25.5 22l5 5h2l2.5-2.5v-2L32.5 20h-1l-1-1h-2Z" style="stroke:none"/>
        <path d="m25.5 22 3-3h2l1 1h1l2.5 2.5v2L32.5 27h-2ZM36 37.5v-1l-.5-.5 2-2h1l.5-.5v-1l4-4v-1l1.5-1.5h1l1.5-1.5 1 1v1l1 1v1l1.5 1.5h1l1 1H54v1.5L49.5 37h-1l-5 5h-4L37 39.5v-1Zm8 62v-2l4-4 2.5 2.5 2.5-2.5v-1l1.5-1.5h4l1 1h1l1 1h1l1 1h1l1 1h1l1 1h1l1 1h1l2 2h1l3 3h1l1.5 1.5v3l-3 3v1l-2 2v1l-1 1v1l-1 1-1.5-1.5h-1l-2-2 3.5-3.5v-2l1.5-1.5-3-3h-1l-2-2h-1l-1-1h-1l-1-1h-1l-1-1h-1L58 96.5l-4 4v1l-1 1-1.5-1.5h-3l-1 1h-1Z" style="fill:#dab560;stroke:none"/>
        <path d="M47 24.5v-2l1-1v-1l1-1v-1l3-3 3 3v2l-1 1v3l1.5 1.5h2l1 1h2l1 1h2l1.5-1.5v-1l.5-.5h1l1-1 2.5 2.5v3l-2 2v1L66.5 34h-5l-1-1h-2l-1-1h-2l-1-1h-2l-1-1h-1L49 28.5v-1l-1-1v-1Z" style="fill:#925e46;stroke:none"/>
        <path d="m48 101.5.5-.5h3l1.5 1.5 1-1v-1l4-4 1.5 1.5h1l1 1h1l1 1h1l1 1h1l2 2h1l3 3-1.5 1.5v2l-3.5 3.5 2 2h1l1.5 1.5v.5h-1.5l-1-1h-1l-1-1-.5.5v1l-1 1v1l-2 2-1.5-1.5h-1l-3-3h-1l-2-2h-1l-1.5-1.5v-1l-.5-.5h-1l-1.5-1.5v-2l2-2Z" style="stroke:none"/>
        <path d="m49.5 93 1.5-1.5v-1l1-1 1 1v3L51.5 95Z" style="fill:#925e46;stroke:none"/>
        <path d="m52 15.5.5-.5h2l1 1h2l1-1h1l1-1h2l1 1h1l1 1h2l1 1h1l1.5 1.5v2L69.5 22l2.5 2.5v2l1 1v1l4.5 4.5h1l3 3h1l.5.5v3l-1 1v1l-1 1-1.5-1.5 2-2-3-3h-2L70 29.5v-3L67.5 24l-1 1h-1l-.5.5v1L63.5 28h-2l-1-1h-2l-1-1h-2L54 24.5v-3l1-1v-2Zm1 89v2l2 2 1.5-1.5h3l2.5 2.5-1.5 1.5 2 2h2l1.5-1.5v-1l2-2v-2l-1.5-1.5h-1l-1-1h-1l-1-1h-1l-1-1h-1l-1-1h-2Z" style="stroke:none"/>
        <path d="M53 106.5v-2l3.5-3.5h2l1 1h1l1 1h1l1 1h1l1 1h1l1.5 1.5v2l-2 2v1l-1.5 1.5h-2l-2-2 1.5-1.5-2.5-2.5h-3l-1.5 1.5Z" style="fill:#dab560;stroke:none"/>
        <path d="M54 59.5v-4l2-2v-1l1-1v-1l4-4 2.5 2.5h1l2 2-5 5 4 4h1l2 2h3l3-3h2l1.5 1.5v1l1 1v2L73.5 70h-4L65 74.5v1l-.5.5h-1l-4 4H58v-1.5l2-2v-1l1-1v-5l1.5-1.5-1.5-1.5v-1L57.5 62h-1Z" style="fill:#925e46;stroke:none"/>
        <path d="M57 18.5v2l1.5 1.5h2l2.5 2.5 3-3v-2L63.5 17h-1L61 15.5 59.5 17h-1Z" style="stroke:none"/>
        <path d="M57 20.5v-2l1.5-1.5h1l1.5-1.5 1.5 1.5h1l2.5 2.5v2l-3 3-2.5-2.5h-2Z" style="fill:#dab560;stroke:none"/>
        <path d="M68 50.5v2l.5.5h1l2 2h1l1.5 1.5 4-4v-2L76.5 49h-1l-2-2h-2Z" style="stroke:none"/>
        <path d="m68.5 53-.5-.5v-2l3.5-3.5h2l2 2h1l1.5 1.5v2l-4 4-1.5-1.5h-1l-2-2Z" style="fill:#dab560;stroke:none"/>
        <path d="M71 81.5v4l1.5 1.5h1l1 1h1l1 1h1l1 1h2l1 1h2l1 1h1l1 1h5l1.5-1.5v-1l1-1v-1l1-1v-2l-.5-.5h-1l-1-1h-2l-.5.5v1L88.5 87h-2l-1-1h-2l-1-1h-2l-2-2h-1l-1-1 1.5-1.5v-1l1-1v-2l-.5-.5h-1l-1-1h-2L73 76.5v2l-1 1v1Z" style="stroke:none"/>
        <path d="M71 85.5v-4l1-1v-1l1-1v-2l1.5-1.5h2l1 1h1l.5.5v2l-1 1v1L76.5 82l1 1h1l2 2h2l1 1h2l1 1h2l1.5-1.5v-1l.5-.5h2l1 1h1l.5.5v2l-1 1v1l-1 1v1L91.5 93h-5l-1-1h-1l-1-1h-2l-1-1h-2l-1-1h-1l-1-1h-1l-1-1h-1Zm2.5 28.5.5-.5v-1l2-2v-.5h1.5l2 2h2l.5-.5v-1l1-1v-1l2-2 1.5 1.5h3l.5.5v5l1 1v3l1 1v4l.5.5h3l1-1h2l1-1h1l1-1h1l1-1h2l1-1h1l1-1h2l1.5 1.5v3l-1.5 1.5h-1l-1 1h-2l-1 1h-2l-1 1h-1l-1 1h-2l-1 1h-3l-1 1h-4l-2.5-2.5v-6l-1-1v-3l-.5-.5-3 3h-4Z" style="fill:#925e46;stroke:none"/>
        <path d="m76.5 25-.5-.5v-3l7.5-7.5h1l1.5-1.5 1.5 1.5h1l1 1h1l1 1h1l2 2h1l2 2h1l1 1h1l2 2h1l2 2h2l2 2h2l1 1h1l2 2h1l.5.5v4l-1 1v1l-2 2v1l-1 1v1l-2 2v1l-2.5 2.5 2 2h1l2 2-.5.5v1l-.5.5-3-3h-2l-2.5 2.5v1l-1.5 1.5h-1l-1-1h-1l-1-1h-1l-1-1h-1l-1-1h-1l-1-1h-1l-1-1h-1l-1-1h-1l-1-1h-1L85 45.5l2-2v-1l1-1v-1l1.5-1.5 4 4h1l1 1h1l1 1h1l1 1h1.5v1.5l2 2 3-3v-1l2-2v-1l4-4v-1l1-1v-3l-3.5-3.5h-2l-1-1h-1l-1-1h-1l-1-1h-1l-1-1h-1l-2-2h-1l-2-2h-1l-3-3h-1l-1-1h-3l-7 7ZM82 78.5l1.5 1.5h1l1 1h2l3-3-3-3h-1L85 73.5l-3 3Z" style="stroke:none"/>
        <path d="m81.5 28 3.5-3.5 1.5 1.5h1l1 1h1l1 1h2l1.5 1.5v1l1.5 1.5h1l2 2 1.5-1.5 1.5 1.5h1l.5.5v2l3 3v1l-1.5-1.5h-1l-1.5-1.5-1.5 1.5h-2l-2-2 1.5-1.5-4-4-2 2v2l-2 2v-2L85.5 31h-1Z" style="stroke:none"/>
        <path d="M82 78.5v-2l3-3 1.5 1.5h1l3 3-3 3h-2l-1-1h-1Z" style="fill:#dab560;stroke:none"/>
        <path d="m89.5 39 .5-.5v-1l2-2v-2l2-2 4 4-1.5 1.5 2 2h2l1.5-1.5 1.5 1.5h1l1.5 1.5v2l-2.5 2.5h-1l-1 1h-2l-1-1h-1l-1-1h-1l-1-1h-1Z" style="fill:#925e46;stroke:none"/>
        <path d="m93.5 107 3 3h5l1.5 1.5v2l2 2 2-2v-1l1-1v-4l-1-1v-1l-1-1v-1l-.5-.5h-2l-1 1h-3l-1 1h-2l-1 1h-1Z" style="stroke:none"/>
        <path d="m93.5 107 1-1h1l1-1h2l1-1h3l1-1h2l.5.5v1l1 1v1l1 1v4l-1 1v1l-2 2-2-2v-2l-1.5-1.5h-5Z" style="fill:#dab560;stroke:none"/>
        <path d="m95.5 97-.5-.5 4-4 2 2-.5.5h-1l-1 1h-2Zm8-42 1.5-1.5v-1l2.5-2.5h2l3 3-1.5 1.5v2l-2 2-.5-.5h-1l-1-1h-1Z" style="fill:#925e46;stroke:none"/>
        <path d="m107 91.5-1 1-1-1 1.5-1.5h.5Z" style="stroke:none"/>
    </g>
</svg>
