<svg xmlns="http://www.w3.org/2000/svg" width="111" height="121" style="fill-opacity:1;color-rendering:auto;color-interpolation:auto;text-rendering:auto;stroke:#000;stroke-linecap:square;stroke-miterlimit:10;shape-rendering:auto;stroke-opacity:1;fill:#000;stroke-dasharray:none;font-weight:400;stroke-width:1;font-family:&quot;Dialog&quot;;font-style:normal;stroke-linejoin:miter;font-size:12px;stroke-dashoffset:0;image-rendering:auto">
    <g style="stroke-linecap:round;fill:#567148;stroke:#567148">
        <path stroke="none" d="M1 42.5v-3l1-1v-1l1-1v-4l1-1v-3l1-1v-1L9.5 22h1l2-2h3l1-1h2l.5-.5v-5l1-1v-2l1-1v-2L24.5 4h1l2-2h1l1-1h6l-2 2h-1l-1 1h-1L29 5.5v1l-1 1v1l-1 1v3l1 1v2l2.5 2.5h1l2 2h1l1 1h2l1-1h2l3-3h1l2.5-2.5v-1l1.5-1.5.5.5v4l-2 2v1L45.5 21h-1L43 22.5v1l-1 1v1l-1 1v3l-.5.5-3-3h-1l-3-3h-1l-1-1h-2l-1-1h-1l-1-1h-4L19 24.5v1l-3 3v1l-1 1v2l-1 1v8l1 1v1l4.5 4.5h3l1 1h1l1 1h4l1 1h5l2.5-2.5v-1l1-1 1 1v9l1 1v2l4.5 4.5h1l2 2h1l1 1h1l1 1h10l1-1h1l1-1h3l1-1h1l1-1h2l1-1h1l1-1h1l4.5-4.5v-1l2-2v-1l1-1v-1l1-1v-3l-1-1v-3l2-2 5 5 1.5-1.5h1l1-1h4l4-4h.5v1.5l-1 1v1l-1 1v1l-1 1v1l-1 1v1L96.5 53h-1l-1 1h-1l-1 1h-2l-1 1h-1l-1 1h-1l-.5.5v2l1 1v3l-1 1v1l-.5.5h-1l-.5.5v1l-1 1v1l-1 1v1l-2 2v1l-3 3v2L72.5 84h-1L69 86.5v2l-1 1v3l1 1v1l4.5 4.5h1l3.5 3.5 2.5-2.5h2l2 2h7l1-1H97v1.5l-1 1v1l-6.5 6.5h-1l-2 2h-1l-3 3h-1l-1 1h-1l-1 1h-13l-1-1h-2l-1-1h-2l-3-3h-1l-6.5-6.5v-1l-2-2v-1l-1-1v-1L44.5 99h-6l-1-1h-1l-1-1h-1L31 93.5v-1l-1-1v-1l-1-1v-1l-2-2v-4l1-1v-2l1-1v-2l-1-1v-1L23.5 70h-2l-1 1h-1l-1 1h-2l-1-1h-2L10 67.5v-1l-1-1v-5l1-1v-2l1-1L8.5 54h-1L6 52.5v-1l-2-2v-1l-1-1v-1l-1-1v-2Z" style="stroke:none"/>
    </g>
    <g stroke="none" style="stroke-linecap:round;fill:#567148;stroke:#567148">
        <path d="M14 58.5v3l1 1v1l2.5 2.5h2l1-1h2l2.5-2.5v-4L21.5 55h-1L19 53.5Z" style="stroke:none"/>
        <path d="M14 41.5v-8l1-1v-2l1-1v-1l3-3v-1l3.5-3.5h4l1 1h1l1 1h2l1 1h1l3 3h1l3 3 .5-.5v-3l1-1v-1l1-1v-1l1.5-1.5h1l1.5-1.5v-1l2-2V16h6v.5l.5.5h3l1 1h1l1 1h2l1 1h1l1 1h1l1 1h1l3 3h1l1 1h1l2 2h3l.5-.5v-3l1-1v-1l1-1v-4l1-1v-2l1.5-1.5h1l1-1h1l3-3 2 2h2l4 4h1l1.5 1.5v1l3 3v3l1 1v1l1 1v2l1 1v3l-1 1v2l-1 1v1l-1 1v1l-.5.5h-1l-4 4h-4l-1 1h-1L92 46.5l-5-5-2 2v3l1 1v3l-1 1v1l-1 1v1l-2 2v1L77.5 62h-1l-1 1h-1l-1 1h-2l-1 1h-1l-1 1h-3l-1 1h-1l-1 1h-10l-1-1h-1l-1-1h-1l-2-2h-1L41 59.5v-2l-1-1v-9l-1-1-1 1v1L35.5 51h-5l-1-1h-4l-1-1h-1l-1-1h-3L15 43.5v-1Zm0 20v-3l5-5 1.5 1.5h1l3.5 3.5v4L22.5 65h-2l-1 1h-2L15 63.5v-1Z" style="fill:#82a467;stroke:none"/>
        <path d="M17 38.5v3l3 3 3-3v-3l-3-3Zm0 22 3 3 3.5-3.5-3-3h-2L17 58.5Z" style="fill:#82a467;stroke:none"/>
        <path d="M17 41.5v-3l3-3 3 3v3l-3 3Z" style="stroke:none"/>
        <path d="M17 60.5v-2l1.5-1.5h2l3 3-3.5 3.5Z" style="fill:#b5c678;stroke:none"/>
        <path d="m21.5 32 2 2h1l1 1h2l1.5 1.5v1l1 1v1l1.5 1.5h2l3.5-3.5v-6l-1-1v-1L34.5 28h-1l-1-1h-1l-1-1h-2l-1 1h-2L23 29.5v1Z" style="fill:#82a467;stroke:none"/>
        <path d="m21.5 32 1.5-1.5v-1l2.5-2.5h2l1-1h2l1 1h1l1 1h1l1.5 1.5v1l1 1v6L33.5 41h-2L30 39.5v-1l-1-1v-1L27.5 35h-2l-1-1h-1Z" style="fill:#b5c678;stroke:none"/>
        <path d="M27 12.5v-3l1-1v-1l1-1v-1L30.5 4h1l1-1h1l2-2h2l1 1h1l1 1h1L48 9.5v2l.5.5-1.5 1.5v1L44.5 17h-1l-3 3h-2l-1 1h-2l-1-1h-1l-2-2h-1L28 15.5v-2Z" style="fill:#82a467;stroke:none"/>
        <path d="m29.5 11 4 4h2l1.5-1.5v-2l-4-4Z" style="fill:#82a467;stroke:none"/>
        <path d="M29.5 11 33 7.5l4 4v2L35.5 15h-2ZM35 75.5v7l2 2v1l2 2v2l3.5 3.5h6l1-1h1l1-1h2l1-1h1l1.5-1.5v-9l-1-1v-2l-2-2v-1L50.5 70h-1l-1-1h-6l-1-1h-2L36 71.5v3Z" style="stroke:none"/>
        <path d="M35 82.5v-7l1-1v-3l3.5-3.5h2l1 1h6l1 1h1l3.5 3.5v1l2 2v2l1 1v9L55.5 90h-1l-1 1h-2l-1 1h-1l-1 1h-6L39 89.5v-2l-2-2v-1Zm3-76v2l1 1v1l2 2 3-3v-2L41.5 5h-2Z" style="fill:#82a467;stroke:none"/>
        <path d="M38 8.5v-2L39.5 5h2L44 7.5v2l-3 3-2-2v-1Z" style="fill:#b5c678;stroke:none"/>
        <path d="M42 76.5v3l.5.5h1l1 1h1l4.5 4.5 3-3v-1l1-1v-3l-1-1v-1L50.5 73h-1l-1-1h-3L43 74.5v1Zm0 10v2l1.5 1.5h2l1.5-1.5v-2L45.5 85h-2Z" style="fill:#82a467;stroke:none"/>
        <path d="m42.5 80-.5-.5v-3l1-1v-1l2.5-2.5h3l1 1h1l2.5 2.5v1l1 1v3l-1 1v1l-3 3-4.5-4.5h-1l-1-1Z" style="fill:#b5c678;stroke:none"/>
        <path d="M42 88.5v-2l1.5-1.5h2l1.5 1.5v2L45.5 90h-2Z" style="stroke:none"/>
        <path d="M44 43.5v2l1 1v4l1 1v1l2.5 2.5h1l2 2h1l1 1h2l1 1h4l1-1h1l5.5-5.5v-5l-2-2-1.5 1.5h-1l-3 3h-4l-1-1h-1L51 45.5v-1l-1-1v-3l1-1v-1l1-1v-1l1-1v-1l2-2-.5-.5h-2l-1 1h-1L48 35.5v1l-2 2v1l-1 1v2Z" style="fill:#82a467;stroke:none"/>
        <path d="M44 45.5v-2l1-1v-2l1-1v-1l2-2v-1l2.5-2.5h1l1-1h2l.5.5-2 2v1l-1 1v1l-1 1v1l-1 1v3l1 1v1l3.5 3.5h1l1 1h4l3-3h1l1.5-1.5 2 2v5L62.5 58h-1l-1 1h-4l-1-1h-2l-1-1h-1l-2-2h-1L46 52.5v-1l-1-1v-4Z" style="stroke:none"/>
        <path d="m45.5 27 2 2h3l1.5-1.5v-3L50.5 23h-2L47 24.5v1Z" style="fill:#82a467;stroke:none"/>
        <path d="m45.5 27 1.5-1.5v-1l1.5-1.5h2l1.5 1.5v3L50.5 29h-3Z" style="stroke:none"/>
        <path d="M54 38.5v4l4.5 4.5h2l1-1h1l1.5-1.5v-2l-1-1v-2L60.5 37h-5Z" style="fill:#82a467;stroke:none"/>
        <path d="M54 42.5v-4l1.5-1.5h5l2.5 2.5v2l1 1v2L62.5 46h-1l-1 1h-2Z" style="fill:#b5c678;stroke:none"/>
        <path d="m55.5 17-.5-.5v-2l1-1v-1l1-1v-1l1-1v-2L62.5 3h3l1-1h3L66 5.5v1l-1 1v2l1 1v2l1 1v2l1 1v1l1.5 1.5h1l1 1h2l1-1h3l3.5-3.5V7h6.5l1 1h2l1 1-3 3h-1l-1 1h-1L84 14.5v2l-1 1v4l-1 1v1l-1 1v3l-.5.5h-3l-2-2h-1l-1-1h-1l-3-3h-1l-1-1h-1l-1-1h-1l-1-1h-2l-1-1h-1l-1-1Z" style="stroke:none"/>
        <path d="m58 29.5 3.5 3.5h1l4.5 4.5v1l1 1v2l3.5 3.5h2l1.5-1.5v-2l1-1v-5l-2-2v-1l-1-1v-1L70.5 28h-1l-1-1h-7l-1 1h-1Z" style="fill:#82a467;stroke:none"/>
        <path d="m58 29.5 1.5-1.5h1l1-1h7l1 1h1l2.5 2.5v1l1 1v1l2 2v5l-1 1v2L73.5 45h-2L68 41.5v-2l-1-1v-1L62.5 33h-1Z" style="fill:#b5c678;stroke:none"/>
        <path d="M65 9.5v-2l1-1v-1L69.5 2h5l1 1h1l2 2h1L81 6.5v9L77.5 19h-3l-1 1h-2l-1-1h-1L68 17.5v-1l-1-1v-2l-1-1v-2Zm3 83v-3l1-1v-2l2.5-2.5h1l4.5-4.5v-2l3-3v-1l2-2v-1l1-1v-1l1-1v-1l.5-.5h1l.5-.5v-1l1-1V62h1.5l1 1h1l2 2-1.5 1.5v1l-.5.5h-1L85 72.5v1l-1 1v1l-1 1v1l-1 1v2l-1 1v3l1 1v3l1 1v1l4.5 4.5h1l1 1h1l1 1H99v1.5l-1 1v1l-.5.5h-5l-1 1h-7l-2-2h-2l-2.5 2.5-3.5-3.5h-1L69 94.5v-1Z" style="fill:#82a467;stroke:none"/>
        <path d="M70 8.5v4l3.5 3.5h2l2.5-2.5v-4L75.5 7h-4Z" style="fill:#82a467;stroke:none"/>
        <path d="M70 12.5v-4L71.5 7h4L78 9.5v4L75.5 16h-2Z" style="fill:#b5c678;stroke:none"/>
        <path d="M81 84.5v-3l1-1v-2l1-1v-1l1-1v-1l1-1v-1l4.5-4.5h1l.5-.5v-1l1.5-1.5 3 3-5.5 5.5v2l.5.5h1l1.5 1.5v3l-2 2v2l3.5 3.5h1l1 1h6l1-1h1l2-2h1l1.5-1.5v3L99.5 97h-8l-1-1h-1l-1-1h-1L83 90.5v-1l-1-1v-3Z" style="stroke:none"/>
        <path d="M89 22.5v5l1 1v2l2.5 2.5h4l1-1h1l2.5-2.5v-3l-1-1v-1l-2-2v-1L95.5 19h-2l-1 1h-1Z" style="fill:#82a467;stroke:none"/>
        <path d="M89 27.5v-5l2.5-2.5h1l1-1h2l2.5 2.5v1l2 2v1l1 1v3L98.5 32h-1l-1 1h-4L90 30.5v-2Z" style="fill:#b5c678;stroke:none"/>
        <path d="m90.5 76-.5-.5v-2l5.5-5.5h5l1 1h1l1 1h1l1.5 1.5v1l2 2v2l1 1v7l-1.5 1.5h-1l-2 2h-1l-1 1h-6l-1-1h-1L91 84.5v-2l2-2v-3L91.5 76ZM92 37.5v2l1.5 1.5h3l.5-.5v-2l-3-3Z" style="fill:#82a467;stroke:none"/>
        <path d="M92 39.5v-2l2-2 3 3v2l-.5.5h-3Z" style="stroke:none"/>
        <path d="m95.5 76 3 3-1.5 1.5 1.5 1.5h2l1-1h1l2.5-2.5v-2l-1-1v-1l-2.5-2.5h-2Z" style="fill:#82a467;stroke:none"/>
        <path d="m95.5 76 4-4h2l2.5 2.5v1l1 1v2l-2.5 2.5h-1l-1 1h-2L97 80.5l1.5-1.5Z" style="fill:#b5c678;stroke:none"/>
    </g>
</svg>
