<svg xmlns="http://www.w3.org/2000/svg" width="166" height="166" style="fill-opacity:1;color-rendering:auto;color-interpolation:auto;text-rendering:auto;stroke:#000;stroke-linecap:square;stroke-miterlimit:10;shape-rendering:auto;stroke-opacity:1;fill:#000;stroke-dasharray:none;font-weight:400;stroke-width:1;font-family:&quot;Dialog&quot;;font-style:normal;stroke-linejoin:miter;font-size:12px;stroke-dashoffset:0;image-rendering:auto">
    <g style="stroke-linecap:round;fill:#91788b;stroke:#91788b">
        <path stroke="none" d="m26 34.5.5-.5h6l1 1h3l1 1h4l1 1h1l1 1h1l1 1h3l1 1h1l1 1h3l1.5-1.5v-1l8-8V29h.5l2.5-2.5 1.5 1.5-1.5 1.5v2l-1 1v2l-1 1v2l-1 1v1l-1 1 .5.5-2.5 2.5.5.5h2l1 1h1l1 1h3l1 1h2l1 1h1l1 1h1l1 1h1l1 1h1l1 1h1l1 1h1l1 1h1l1 1h2l2 2h3l1 1h1l1 1h1l2 2-8 8h-1l-1 1h-4l-1-1h-1l-1-1h-1l-1-1h-1l-1-1h-1l-1-1h-1l-1-1h-1l-2-2h-1l-1-1h-1l-1-1h-1l-3-3h-1l-1-1h-1l-4-4h-1l-2-2h-1l-2-2h-2l-1-1h-1l-2-2h-1l-1-1h-1l-1-1h-1l-1-1h-3l-2-2h-1L33 38.5l-1 1-1.5-1.5h-1Z" style="stroke:none"/>
    </g>
    <g stroke="none" style="stroke-linecap:round;fill:#57485b;stroke:#57485b">
        <path d="m32 39.5 1-1 1.5 1.5h1l2 2h3l1 1h1l1 1h1l1 1h1l2 2h1l1 1h2l2 2h1l2 2h1l4 4h1l1 1h1l3 3h1l1 1h1l1 1h1l2 2h1l1 1h1l1 1h1l1 1h1l1 1h1l1 1h1l1 1h4l1-1h1l8-8-2-2h-1l-1-1h-1l-1-1 1.5-1.5v-1l.5-.5 1 1h1l1 1h1l1 1h1l1.5 1.5 2.5-2.5h1l4.5-4.5v-1l2-2v-1l4-4v-1l1-1v-1l1-1v-1l1-1v-1l1-1v-1l1-1v-2l1-1v-1l1-1v4l-1 1V37h-.5l-.5.5v3l-1 1V44h-.5l-.5.5.5.5-1.5 1.5v2l-1 1v1l-1 1v1l-1.5 1.5 3 3h1l1 1h1l1 1h1l1 1h1l1 1h1l1 1h2l1 1h2l1 1h-9l-1-1h-4l-1-1h-3l-2.5 2.5v3l-1 1v1l-1 1V73H97.5l-1 1h-1l-1 1h-1l-1 1h-1l-1 1h-1l-1 1h-1l-2 2h-1l-2 2 2 2h1l1 1h1l1 1h20l1-1h6l1-1h5l1-1h26l-.5.5v.5h-1.5l-1 1h-5l-1 1h-2l-1 1h-2l-1 1h-2l-1 1h-2l-1 1h-1l-1 1h-2l-1 1h-1l-1 1h-2l-1 1h-2l-1 1h-3l-1-1h-1l-1-1h-1l-1-1h-1l-1.5-1.5-5 5v5l4 4v1l5 5v1l2 2v1l5 5v1l3 3v1l8 8v1l1 1v1.5h-.5l-1-1h-1l-2-2h-1l-1-1h-1l-1-1h-1l-1-1h-1l-2-2h-1l-1-1h-1l-1-1h-1l-1-1h-1L94 112.5l-.5.5-1.5-1.5v-14l-1-1v-1l-2-2v-1L85.5 89h-1L83 87.5l-3 3v3l1 1v1l1 1v1l2 2v1l1 1v4l1 1v3l2 2v1l2 2-.5.5-4.5-4.5v-1l-4.5-4.5h-1l-1-1h-4l-1 1h-1l-1 1h-1l-1 1h-1l-2 2h-1l-2 2h-1l-2 2h-1l-2 2h-1l-1 1h-2l-1 1h-2l-1 1h-1l-1 1h-1l-2.5 2.5-.5-.5h-1l-1 1h-1l-.5-.5 8.5-8.5h1l4-4h1l2-2h1L72 92.5v-1l1-1v-1l2-2v-2l-.5-.5h-1l-4-4h-1l-3-3h-1l-1 1h-2l-1 1h-6l-1 1h-1l-1 1h-1l-1 1h-3l-1 1h-1l-1 1h-2l-.5-.5 7.5-7.5h1l1-1h1l1-1h1l7-7h1l1-1h1l2-2-1.5-1.5v-1L62.5 61h-1l-1-1h-4l-1 1h-1l-1 1L42 50.5v-1Z" style="stroke:none"/>
        <path d="m34 89.5-1-1v-2l2-2V83h.5l2.5-2.5v-1l6-6v-1l3.5-3.5-.5-.5 7.5-7.5h1l1-1h4l1 1h1l1.5 1.5v1l1.5 1.5-2 2h-1l-1 1h-1l-7 7h-1l-1 1h-1l-1 1h-1l-10 10h-1l-1 1h-1Zm2.5 33.5-1-1 1.5-1.5v-1l1-1v-1l2-2v-1l4-4-.5-.5 4.5-4.5v-1l2-2v-1l2-2v-1l2-2v-1l2-2v-1l9-9V83h.5l2.5-2.5.5.5h1l4 4h1l.5.5v2l-2 2v1l-1 1v1L57.5 107h-1l-2 2h-1l-4 4h-1l-10 10Z" style="fill:#91788b;stroke:none"/>
        <path d="m52.5 41-1-1 4-4h1l4-4h1l3-3h.5v1.5l-8 8v1L55.5 41Z" style="stroke:none"/>
        <path d="M80 93.5v-3l3-3 1.5 1.5h1l3.5 3.5v1l2 2v1l1 1v19l-.5.5-2-2 .5-.5-2-2v-1l-2-2v-3l-1-1v-4l-1-1v-1l-2-2v-1l-1-1v-1ZM82.5 82l2-2h1l2-2h1l1-1h1l1-1h1l1-1h1l1-1h1l1-1H119v.5l.5.5h11l1 1h3l1 1h3l1 1h1l1 1h4.5v.5l1.5 1.5h1l2.5 2.5-.5.5h-28l-1 1h-5l-1 1h-6l-1 1h-20l-1-1h-1l-1-1h-1Zm16-27-1-1 .5-.5V52h.5l.5-.5v-1l1.5-1.5-.5-.5 8-8v-1l18-18 1 1v2l-1 1v3l-1 1v1l-1 1v2l-1 1v1l-1 1v1l-1 1v1l-1 1v1l-1 1v1l-4 4v1l-2 2v1l-4.5 4.5h-1l-2.5 2.5-1.5-1.5h-1l-1-1h-1l-1-1Zm.5 45.5v-5l5-5 1.5 1.5h1l1 1h1l1 1h1l1 1h1l2 2h.5v1.5l1 1v1l1.5 1.5-.5.5v2l1 1v2l1 1v1l1 1v1l1 1v1l1 1v3l1 1v1l1 1v1l1 1v1l1 1v1l1 1v1l1 1v1l1 1v1l1 1v1l1 1v3l-1 1-2.5-2.5h-.5v-1.5l-1-1v-1l-8-8v-1l-3-3v-1l-5-5v-1l-2-2v-1l-5-5v-1ZM117.5 54l1.5-1.5v-1l1-1v-1l1-1v-2L136.5 62h1l1.5 1.5-.5.5h-2l-1-1h-2l-1-1h-2l-1-1h-1l-1-1h-1l-1-1h-1l-1-1h-1l-1-1h-1Z" style="fill:#91788b;stroke:none"/>
    </g>
</svg>
