<svg xmlns="http://www.w3.org/2000/svg" width="112" height="119" style="fill-opacity:1;color-rendering:auto;color-interpolation:auto;text-rendering:auto;stroke:#000;stroke-linecap:square;stroke-miterlimit:10;shape-rendering:auto;stroke-opacity:1;fill:#000;stroke-dasharray:none;font-weight:400;stroke-width:1;font-family:&quot;Dialog&quot;;font-style:normal;stroke-linejoin:miter;font-size:12px;stroke-dashoffset:0;image-rendering:auto">
    <g style="stroke-linecap:round;fill:#567148;stroke:#567148">
        <path stroke="none" d="M22 55.5v-6l1-1v-2l2-2v-4l-1-1v-11l1-1v-3l1-1v-1l2.5-2.5h1l1-1h1l1-1h1l1-1h2l1.5-1.5v-1l1-1v-2l1-1v-1l2-2v-1l.5-.5h1l1-1h1l1-1h1l1-1h2l1 1L49 6.5v1l-3 3v1l-1 1v1l-1 1v2l5.5 5.5h3l1-1h1l1-1h1l2.5-2.5v-1l3-3v-3l2 2v4L61.5 19l1.5 1.5 1.5-1.5H66v1.5l-1 1v2l1 1v4l4 4 2.5-2.5h1l4-4 .5.5v6l-1 1v1l-1 1v1L74.5 38h-1l-3 3h-5l-.5.5v1l-2 2v1L61.5 47h-1l-4 4h-1l-1 1h-1l-1 1h-4l-1 1h-4L42 55.5v1l-1 1v2l-1 1v3l-1 1v3l-1 1v2l1 1v1l2.5 2.5h1l1.5 1.5 1.5-1.5h1l1.5-1.5v-1l5.5-5.5h1l1-1h3l1.5 1.5v2l-2 2v1L56.5 74l3.5 3.5 1.5-1.5h1l6.5-6.5v-1l2-2v-2l3.5-3.5.5.5v3l2 2v1l2.5 2.5h1l1 1h5l2.5-2.5v-1l3-3v-1l1-1v-1l1-1v-1l1-1V52h.5l1 1h2l1.5 1.5-1 1v1l-.5.5h-1l-.5.5v6l-1 1v2l1.5 1.5h1l1 1h2l5.5-5.5v-1l2-2v7l-1 1v2l-2 2v1l-1.5 1.5h-1l-3 3h-5L94 76.5 86.5 84h-1l-1 1h-3l-1 1h-3L73 90.5v1L70.5 94h-1l-1 1h-2l-1 1h-1l-.5.5v1l-1 1v2l-1 1v1l-2 2v1l-3.5 3.5h-1l-1 1h-2l-1 1h-1l-1 1h-1l-1 1h-5l-1-1h-5l-1-1h-1l-1-1h-1l-2.5-2.5v-1l-4-4v-1l-2-2v-1l-1-1v-2l-1-1v-6l1-1v-1l1-1v-3l2-2v-1l1-1v-4l-1-1v-8l1-1v-3l-3-3v-1Z" style="stroke:none"/>
    </g>
    <g stroke="none" style="stroke-linecap:round;fill:#567148;stroke:#567148">
        <path d="M29 48.5v3l2.5 2.5h1l1 1h1l1 1h2l3.5-3.5v-2l1-1v-4L38.5 42h-1L36 40.5 34.5 42h-1L31 44.5v1l-1 1v1Z" style="stroke:none"/>
        <path d="M29 51.5v-3l1-1v-1l1-1v-1l2.5-2.5h1l1.5-1.5 1.5 1.5h1l3.5 3.5v4l-1 1v2L37.5 56h-2l-1-1h-1l-1-1h-1Z" style="fill:#82a467;stroke:none"/>
        <path d="M34 46.5v2l1.5 1.5h3l3-3-3-3h-2Z" style="fill:#82a467;stroke:none"/>
        <path d="M34 86.5v2l1 1v1l1 1v1l2 2v1l1.5 1.5h1l1 1h1l1 1h2l1 1h5l1-1h1l8-8-2-2-1 1h-1l-1 1h-1l-1 1h-10l-1-1h-1l-1-1h-2l-2-2h-1l-2-2Z" style="stroke:none"/>
        <path d="M34 48.5v-2l2.5-2.5h2l3 3-3 3h-3Z" style="fill:#b5c678;stroke:none"/>
        <path d="M36.5 88h1l2 2h2l1 1h1l1 1h10l1-1h1l1-1h1l1-1 2 2-8 8h-1l-1 1h-5l-1-1h-2l-1-1h-1l-1-1h-1L38 95.5v-1l-2-2v-1l-1-1v-1l-1-1v-2l.5-.5Z" style="fill:#82a467;stroke:none"/>
        <path d="M38 25.5v7l1 1v1l5.5 5.5h1l2 2h3l1-1h1l1-1h1l2-2h2l3.5-3.5v-1l1-1v-5L60.5 25h-2l-1 1h-1l-1 1h-1l-1 1h-2l-1 1h-6l-1-1h-1L39 24.5Z" style="stroke:none"/>
        <path d="M38 32.5v-7l1-1 3.5 3.5h1l1 1h6l.5-.5 4.5 4.5h2l2.5-2.5v-3l-2-2 .5-.5h2l2.5 2.5v5l-1 1v1L58.5 38h-2l-2 2h-1l-1 1h-1l-1 1h-3l-2-2h-1L39 34.5v-1Zm0 38v-2l1-1v-3l1-1v-3l1-1v-2l1-1v-1l1.5-1.5h4l1-1h4l1-1h.5v1.5l1.5 1.5h1l2.5 2.5v3l2.5 2.5h2l3.5-3.5v-2l1-1v-3l-1-1v-1l-1-1v-1l-1-1v-1l-2-2v-1l1.5-1.5 4.5 4.5 2.5-2.5.5.5v2l1 1v2l.5.5 8-8h2l1 1h1l1 1h2l3.5 3.5v1l2.5 2.5h.5v6.5l-1 1v1l-1 1v1l-1 1v1l-3 3v1L86.5 71h-5l-1-1h-1L77 67.5v-1l-2-2v-3l-.5-.5-3.5 3.5v2l-2 2v1L62.5 76h-1L60 77.5 56.5 74l1.5-1.5v-1l2-2v-2L58.5 66h-3l-1 1h-1L48 72.5v1L46.5 75h-1L44 76.5 42.5 75h-1L39 72.5v-1Z" style="fill:#82a467;stroke:none"/>
        <path d="M43 63.5v2l1.5 1.5h2l2.5-2.5v-2L46.5 60Zm.5-28.5 2 2h1l1.5 1.5 2-2v-2L48.5 33h-3Z" style="fill:#82a467;stroke:none"/>
        <path d="M43 65.5v-2l3.5-3.5 2.5 2.5v2L46.5 67h-2Z" style="stroke:none"/>
        <path d="M44 16.5v-2l1-1v-1l1-1v-1l3-3v-1L51.5 4h3l1 1h2L62 9.5v4l-3 3v1L56.5 20h-1l-1 1h-1l-1 1h-3Z" style="fill:#82a467;stroke:none"/>
        <path d="m43.5 35 2-2h3l1.5 1.5v2l-2 2-1.5-1.5h-1Z" style="stroke:none"/>
        <path d="m49.5 11 2 2h1l2 2h2l2.5-2.5v-2L56.5 8h-1L54 6.5Z" style="fill:#82a467;stroke:none"/>
        <path d="M49.5 11 54 6.5 55.5 8h1l2.5 2.5v2L56.5 15h-2l-2-2h-1ZM51 28.5l.5-.5h2l1-1h1l1-1h1l.5-.5 2 2v3L57.5 33h-2Zm3 25V52h.5l1-1h1l4-4h1l1.5-1.5 2 2v1l1 1v1l1 1v1l1 1v3l-1 1v2L63.5 63h-2L59 60.5v-3L56.5 55h-1Z" style="fill:#b5c678;stroke:none"/>
        <path d="M65 84.5v3l1.5 1.5h2l1-1h1l.5-.5v-3L69.5 83h-1L67 81.5l-1 1v1Z" style="stroke:none"/>
        <path d="M65 23.5v-2l1-1v-2l.5-.5h3l2 2h1l1 1h1l1.5 1.5v1l1 1v1l.5.5-4 4h-1L70 32.5l-4-4v-4Zm0 64v-3l1-1v-1l1-1 1.5 1.5h1l1.5 1.5v3l-.5.5h-1l-1 1h-2Z" style="fill:#82a467;stroke:none"/>
        <path d="m67.5 24 4.5 4.5 2-2v-2L71.5 22h-2Z" style="fill:#82a467;stroke:none"/>
        <path d="m67.5 24 2-2h2l2.5 2.5v2l-2 2Z" style="fill:#b5c678;stroke:none"/>
        <path d="M72 47.5v-2l-.5-.5 2-2h2l1-1h3l1.5 1.5-7.5 7.5-.5-.5v-2Z" style="stroke:none"/>
        <path d="M80 49.5v3l1.5 1.5h1l1.5 1.5v1l2.5 2.5h2l3.5-3.5v-2l-2-2v-1L87.5 48h-1l-1-1h-3ZM79.5 64l3 3h2l2.5-2.5v-2L85.5 61h-3Z" style="fill:#82a467;stroke:none"/>
        <path d="M80 52.5v-3l2.5-2.5h3l1 1h1l2.5 2.5v1l2 2v2L88.5 59h-2L84 56.5v-1L82.5 54h-1Z" style="fill:#b5c678;stroke:none"/>
        <path d="m79.5 64 3-3h3l1.5 1.5v2L84.5 67h-2Z" style="stroke:none"/>
        <path d="M96 66.5v-2l1-1v-6l.5-.5h1l.5-.5v-1l1.5-1.5h2l1 1h1l3.5 3.5v1l1 1-2 2v-3l-1.5-1.5h-3l-2 2 4.5 4.5 1.5-1.5h.5v.5l-5.5 5.5h-2l-1-1h-1Z" style="fill:#82a467;stroke:none"/>
        <path d="m100.5 60 2-2h3l1.5 1.5V63h-.5l-1.5 1.5Z" style="fill:#b5c678;stroke:none"/>
    </g>
</svg>
