<svg xmlns="http://www.w3.org/2000/svg" width="48" height="48" style="fill-opacity:1;color-rendering:auto;color-interpolation:auto;text-rendering:auto;stroke:#000;stroke-linecap:square;stroke-miterlimit:10;shape-rendering:auto;stroke-opacity:1;fill:#000;stroke-dasharray:none;font-weight:400;stroke-width:1;font-family:&quot;Dialog&quot;;font-style:normal;stroke-linejoin:miter;font-size:12px;stroke-dashoffset:0;image-rendering:auto">
    <g style="stroke-linecap:round;fill:#2e2a30;stroke:#2e2a30">
        <path stroke="none" d="M2 30.5v-7l1-1v-2l1-1v-2l1-1v-1l3-3v-1L9.5 10l.5.5v4l-1 1v5l-1 1v5l5 5 1.5-1.5h1l3-3h2l5.5 5.5v1l1.5 1.5h1l2.5 2.5 2.5-2.5h2l2.5 2.5v2l-2 2v1L34.5 44h-1l-1 1h-1l-1 1h-2l-1 1h-4l-4-4h-1l-1-1h-2l-2 2h-2L5 37.5v-2L3.5 34l.5-.5-1-1v-1Z" style="stroke:none"/>
    </g>
    <g stroke="none" style="stroke-linecap:round;fill:#57485b;stroke:#57485b">
        <path d="M8 26.5v-5l1-1v-5l1-1v-4l1-1v-1l.5-.5L13 9.5v1l1 1v1l3.5 3.5h2l2.5-2.5 5 5v4l1 1v1l1.5 1.5h3l2.5-2.5 1 1v1l1 1v3l3 3v5l-2 2v-2L35.5 35h-2L31 37.5 28.5 35h-1L26 33.5v-1L20.5 27h-2l-3 3h-1L13 31.5Z" style="stroke:none"/>
        <path d="M11.5 8 14 5.5V5h3.5l1-1h2l1-1h4l1 1h1l1 1h2l1 1h2l1 1h1l3 3h1l3.5 3.5v4l3 3v8l-1 1v1l-1 1v2L41.5 36H40v-3.5l-3-3v-3l-1-1v-1l-1-1-2.5 2.5h-3L28 24.5v-1l-1-1v-4l-5-5-2.5 2.5h-2L14 12.5v-1l-1-1v-1Z" style="fill:#91788b;stroke:none"/>
    </g>
</svg>
