<svg xmlns="http://www.w3.org/2000/svg" width="121" height="128" style="fill-opacity:1;color-rendering:auto;color-interpolation:auto;text-rendering:auto;stroke:#000;stroke-linecap:square;stroke-miterlimit:10;shape-rendering:auto;stroke-opacity:1;fill:#000;stroke-dasharray:none;font-weight:400;stroke-width:1;font-family:&quot;Dialog&quot;;font-style:normal;stroke-linejoin:miter;font-size:12px;stroke-dashoffset:0;image-rendering:auto">
    <g style="stroke-linecap:round;fill:#567148;stroke:#567148">
        <path stroke="none" d="M27 79.5v-3l1-1v-2l2-2v-1l4-4v-5l1-1v-3l1-1v-4l1-1v-1l1-1v-1l2-2v-2L36.5 41h-1L31 36.5v-2l-1-1v-2l1-1v-3l1-1v-7l1-1v-1l1-1v-1l2-2v-2l4-4v-1L41.5 5h2l1-1h1l1-1h1l1-1h3l1-1h12l1 1h-3l-1 1h-1l-1 1h-1l-1 1h-2l-.5.5v1l-1 1v1l-1 1v1l-1 1v1l-2 2v1l-2 2v3l1 1v1l1 1v1l.5.5h1l1 1h5l2-2h1l1-1h2l1 1h3l1 1h2l1-1h3l1-1h1l2-2h2l1-1h2l1.5-1.5 2 2 1.5-1.5h3L82 28.5v1l-1 1v3l1 1v3l1 1v1l3.5 3.5h1l1 1h1l1 1h1l1 1h5l1-1h2l3-3h1l1.5-1.5v-1l1.5-1.5.5.5v9l-2.5 2.5 1 1h2l1.5 1.5-1.5 1.5h-1l-2 2h-1l-3.5 3.5v1l-1 1v3l1 1v1l1.5 1.5h1l1 1h1l1 1h5l1-1h1l3.5-3.5v-2l1-1 1 1v6l-1 1v1l-1 1v1l-1 1v1l-2.5 2.5h-2l-1 1h-1l-1 1h-10l-1-1h-2l-1-1h-1l-2-2h-1l-1-1h-1l-.5-.5v-1l-.5-.5h-1l-1-1h-4l-1 1h-3l-1 1h-2L72 76.5v1l-3 3v7l1 1v1l4.5 4.5h4l1 1h2l1 1h5l1-1h1l1.5-1.5v-1l1-1v-1l1-1v-1l1.5-1.5h1l1-1h2l2-2h2.5v2.5l-1.5 1.5h-1L97 91.5v1l-1 1v1l-1 1v2l1 1v1l2 2v1l1.5 1.5h2l1-1h2l2-2h1l1-1h1.5v.5l-1 1v1l-6.5 6.5h-2l-1 1h-5l-1-1h-2l-1.5-1.5-1.5 1.5h-1l-1 1h-1l-1 1h-1l-1 1h-3l-1-1h-3l-1-1h-1l-1-1h-2l-2-2h-1l-1-1h-1l-3.5-3.5v-1l-1-1v-1l-1-1v-1L57.5 95h-1l-1-1h-1l-1-1h-1l-1-1h-1l-1-1h-1l-1-1h-1l-1-1h-2l-1 1h-2l-1 1h-4l-1-1h-1L30 86.5v-1l-1-1v-3Z" style="stroke:none"/>
    </g>
    <g stroke="none" style="stroke-linecap:round;fill:#567148;stroke:#567148">
        <path d="M34 72.5v5l6.5 6.5h4l1-1h1l1.5-1.5v-1l1-1v-6l-1-1v-1L43.5 67h-3l-1 1h-1Z" style="stroke:none"/>
        <path d="M34 77.5v-5l4.5-4.5h1l1-1h3l4.5 4.5v1l1 1v6l-1 1v1L46.5 83h-1l-1 1h-4Z" style="fill:#82a467;stroke:none"/>
        <path d="M40 71.5v4l1.5 1.5h3l1.5-1.5v-2L43.5 71h-3Z" style="fill:#82a467;stroke:none"/>
        <path d="M40 75.5v-4l.5-.5h3l2.5 2.5v2L44.5 77h-3Z" style="fill:#b5c678;stroke:none"/>
        <path d="M46 53.5v6l1 1v3l1 1v1l2 2v1l2.5 2.5h1l4 4h9l1.5-1.5v-2L66.5 70h-2l-1-1h-1L58 64.5v-1l-1-1v-1l-1-1v-1l-1-1v-1l-1-1v-1l-1-1v-7l-1-1v-2l-1-1-1 1v1l-1 1v1l-1 1v2l-1 1v1Z" style="stroke:none"/>
        <path d="M46 59.5v-6l1-1v-1l1-1v-2l1-1v-1l1-1v-1l1-1 1 1v2l1 1v7l1 1v1l1 1v1l1 1v1l1 1v1l1 1v1l4.5 4.5h1l1 1h2l1.5 1.5v2L66.5 75h-9l-4-4h-1L50 68.5v-1l-2-2v-1l-1-1v-3Zm2-39v-3l2-2v-1l2-2v-1l1-1v-1l1-1v-1l1-1v-1l.5-.5h2l1-1h1l1-1h1l1-1h6l1 1h3l3 3h1l5.5 5.5v1l2 2v1l1 1v2L83.5 20h-2l-1 1h-2l-2 2h-1l-1 1h-3l-1 1h-2l-1-1h-3l-1-1h-2l-1 1h-1l-2 2h-5l-1-1h-1l-.5-.5v-1l-1-1v-1Z" style="fill:#82a467;stroke:none"/>
        <path d="m53.5 17 3 3h2l1.5-1.5v-2l-3-3Z" style="fill:#82a467;stroke:none"/>
        <path d="m53.5 17 3.5-3.5 3 3v2L58.5 20h-2Z" style="fill:#b5c678;stroke:none"/>
        <path d="M65 7.5v5l2 2v1l4.5 4.5h2l2.5-2.5v-4l-1-1v-1L69.5 6h-1l-1-1Z" style="fill:#82a467;stroke:none"/>
        <path d="M65 12.5v-5L67.5 5l1 1h1l5.5 5.5v1l1 1v4L73.5 20h-2L67 15.5v-1Z" style="fill:#b5c678;stroke:none"/>
        <path d="M67 43.5v3l1 1v2l1 1v3l1 1v1l8 8 1.5-1.5h3l3-3h2l1-1h1l1-1h1l1-1h1l1-1h1l2.5-2.5-.5-.5h-2l-1 1h-6l-1 1h-3l-1-1h-2l-2-2h-1L75 47.5v-1l-1-1v-5l-1-1v-2l1-1v-2l1-1v-2l-1-1-3 3v1l-1 1v1l-1 1v2l-1 1v2Z" style="stroke:none"/>
        <path d="M67 46.5v-3l1-1v-2l1-1v-2l1-1v-1l1-1v-1l3-3 1 1v2l-1 1v2l-1 1v2l1 1v5l1 1v1l3.5 3.5h1l2 2h2l1 1h3l1-1h6l1-1h2l.5.5-2.5 2.5h-1l-1 1h-1l-1 1h-1l-1 1h-1l-1 1h-2l-3 3h-3L78 63.5l-8-8v-1l-1-1v-3l-1-1v-2Zm2 41v-7l3-3v-1l2.5-2.5h2l1-1h3l1-1h4l1 1h1l.5.5v1l.5.5h1l1 1h1l2 2h1l1 1h2l1 1h3.5v1.5l1 1V84h-2.5l-2 2h-2l-1 1h-1L93 88.5v1l-1 1v1l-1 1v1L89.5 95h-1l-1 1h-5l-1-1h-2l-1-1h-4L70 89.5v-1Z" style="fill:#82a467;stroke:none"/>
        <path d="m72.5 86 3.5 3.5 2-2v-3l-2-2Z" style="fill:#82a467;stroke:none"/>
        <path d="m72.5 86 3.5-3.5 2 2v3l-2 2Z" style="stroke:none"/>
        <path d="M79 78.5v3l1 1v1l1.5 1.5h2l1-1h1l3-3-4-4h-4Z" style="fill:#82a467;stroke:none"/>
        <path d="M79 81.5v-3l1.5-1.5h4l4 4-3 3h-1l-1 1h-2L80 83.5v-1Z" style="fill:#b5c678;stroke:none"/>
        <path d="M81 33.5v-3l1-1v-1l9.5-9.5h1l1 1h3l1 1h2l1 1h1l2.5 2.5v3l1 1v1l1 1v2l1 1v4l.5.5-1.5 1.5v1l-1.5 1.5h-1l-3 3h-2l-1 1h-5l-1-1h-1l-1-1h-1l-1-1h-1L83 39.5v-1l-1-1v-3ZM82.5 90l2 2h3l1.5-1.5v-2L87.5 87h-2Z" style="fill:#82a467;stroke:none"/>
        <path d="m82.5 90 3-3h2l1.5 1.5v2L87.5 92h-3Z" style="stroke:none"/>
        <path d="m84.5 37 3 3h2l1.5-1.5v-3l-2-2-1.5 1.5h-1Z" style="fill:#82a467;stroke:none"/>
        <path d="m84.5 37 2-2h1l1.5-1.5 2 2v3L89.5 40h-2Z" style="stroke:none"/>
        <path d="m90 30.5 6 6v4l1 1 3.5-3.5h1l.5-.5v-1l1-1v-3l-2-2v-1L98.5 27h-5Z" style="fill:#82a467;stroke:none"/>
        <path d="m90 30.5 3.5-3.5h5l2.5 2.5v1l2 2v3l-1 1v1l-.5.5h-1L97 41.5l-1-1v-4Z" style="fill:#b5c678;stroke:none"/>
        <path d="M95 97.5v-2l1-1v-1l1-1v-1l3.5-3.5h1l1.5-1.5 6 6v1l1 1v5.5h-1.5l-1 1h-1l-2 2h-2l-1 1h-2l-1.5-1.5v-1l-2-2v-1Z" style="fill:#82a467;stroke:none"/>
        <path d="m99.5 94 4.5 4.5 3.5-3.5-4.5-4.5Zm.5-29.5v-3l1-1v-1l3.5-3.5h1l2-2h1l2-2 3 3h1l1.5 1.5v1l1 1v1l1 1v2l-1 1v2l-3.5 3.5h-1l-1 1h-5l-1-1h-1l-1-1h-1l-1.5-1.5v-1Z" style="fill:#82a467;stroke:none"/>
        <path d="m99.5 94 3.5-3.5 4.5 4.5-3.5 3.5Z" style="fill:#b5c678;stroke:none"/>
        <path d="m105.5 61 3 3h4l2.5-2.5v-2l-1.5-1.5h-1l-1.5-1.5-1.5 1.5h-1Z" style="fill:#82a467;stroke:none"/>
        <path d="m105.5 61 3-3h1l1.5-1.5 1.5 1.5h1l1.5 1.5v2l-2.5 2.5h-4Z" style="fill:#b5c678;stroke:none"/>
    </g>
</svg>
