<svg xmlns="http://www.w3.org/2000/svg" width="48" height="48" style="fill-opacity:1;color-rendering:auto;color-interpolation:auto;text-rendering:auto;stroke:#000;stroke-linecap:square;stroke-miterlimit:10;shape-rendering:auto;stroke-opacity:1;fill:#000;stroke-dasharray:none;font-weight:400;stroke-width:1;font-family:&quot;Dialog&quot;;font-style:normal;stroke-linejoin:miter;font-size:12px;stroke-dashoffset:0;image-rendering:auto">
    <g style="stroke-linecap:round;fill:#2e2a30;stroke:#2e2a30">
        <path stroke="none" d="M2 30.5v-8l1-1v-1l1-1V18h.5L6 16.5v-1l1-1v-1l3.5-3.5 1.5 1.5v3l1 1v4l-1 1v1l-2 2v1L8.5 26l1.5 1.5v1l2 2v2l2 2v1l1.5 1.5h2l1-1h3l1-1h1l1-1h3l1 1h1l2 2h1l1 1h1l1 1h1l1 1-1.5 1.5v1l-.5.5h-1l-.5.5v1L32.5 46h-4l-1 1h-2l-3-3h-3l-1 1h-1l-1 1h-1l-1 1h-3l-1-1h-1L8 44.5v-1l-2-2v-3l-2-2v-2l-1-1v-2Z" style="stroke:none"/>
    </g>
    <g stroke="none" style="stroke-linecap:round;fill:#57485b;stroke:#57485b">
        <path d="m8.5 26 1.5-1.5v-1l2-2v-1l1-1v-4l-1-1v-3L10.5 10 12 8.5V8h.5l4 4h1l1 1h3l1 1h2l5.5 5.5v1l2 2v1l2 2v2l-1 1v2L31.5 32l3 3h7l.5.5-4.5 4.5-1-1h-1l-1-1h-1l-1-1h-1l-2-2h-1l-1-1h-3l-1 1h-1l-1 1h-3l-1 1h-2L14 35.5v-1l-2-2v-2l-2-2v-1Z" style="stroke:none"/>
        <path d="m12.5 8 3-3h2l1-1h1l2-2h4l3 3h1l1 1h1L34 8.5 36.5 6h3L42 8.5v1l1 1v1l2 2v2l-1 1v1l-1 1v3l1 1v2l1 1v5l-1 1v2l-2 2-.5-.5h-7l-3-3 1.5-1.5v-2l1-1v-2l-2-2v-1l-2-2v-1L24.5 14h-2l-1-1h-3l-1-1h-1Z" style="fill:#91788b;stroke:none"/>
        <path d="m14.5 27 3 3h3l2-2h1l3.5-3.5v-3L24.5 19h-1l-1-1h-2L19 19.5v2l-1 1v1Z" style="stroke:none"/>
        <path d="m14.5 27 3.5-3.5v-1l1-1v-2l1.5-1.5h2l1 1h1l2.5 2.5v3L23.5 28h-1l-2 2h-3Z" style="fill:#91788b;stroke:none"/>
    </g>
</svg>
