<svg xmlns="http://www.w3.org/2000/svg" width="32" height="32" style="fill-opacity:1;color-rendering:auto;color-interpolation:auto;text-rendering:auto;stroke:#000;stroke-linecap:square;stroke-miterlimit:10;shape-rendering:auto;stroke-opacity:1;fill:#000;stroke-dasharray:none;font-weight:400;stroke-width:1;font-family:&quot;Dialog&quot;;font-style:normal;stroke-linejoin:miter;font-size:12px;stroke-dashoffset:0;image-rendering:auto">
    <g style="stroke-linecap:round;fill:#48396d;stroke:#48396d">
        <path stroke="none" d="M1 18.5v-5L2.5 12h1l1-1h4l4 4h3l3.5 3.5-1.5 1.5h-5l-1 1h-2l-1 1h-4Z" style="stroke:none"/>
    </g>
    <g style="stroke-linecap:round;fill:#5f65b8;stroke:#5f65b8">
        <path stroke="none" d="m9 11.5 1.5-1.5h9l1-1h1l1-1h1l1-1h1l1-1h3L31 7.5v3l-1 1v1L26.5 16h-2l-1 1h-1l-1 1h-1l-1 1-4-4h-3Z" style="stroke:none"/>
    </g>
</svg>
