<svg xmlns="http://www.w3.org/2000/svg" width="48" height="48" style="fill-opacity:1;color-rendering:auto;color-interpolation:auto;text-rendering:auto;stroke:#000;stroke-linecap:square;stroke-miterlimit:10;shape-rendering:auto;stroke-opacity:1;fill:#000;stroke-dasharray:none;font-weight:400;stroke-width:1;font-family:&quot;Dialog&quot;;font-style:normal;stroke-linejoin:miter;font-size:12px;stroke-dashoffset:0;image-rendering:auto">
    <g style="stroke-linecap:round;fill:#b785a5;stroke:#b785a5">
        <path stroke="none" d="M2 30.5v-6l1-1v-2l1-1v-2l-.5-.5L7 14.5v-1l1-1v-1L9.5 10l1.5 1.5v1l2 2v3l-2 2v1l-1 1v1l-1 1v1L7.5 26 9 27.5v1l2.5 2.5h1l3 3h1l2 2h1l1 1h1l1 1h3l2-2h1l1-1h5l4 4-4.5 4.5v.5h-1.5l-2 2h-7l-1-1h-4l-1-1h-3l-1-1h-2l-1-1h-1L7 39.5v-1l-2-2v-2l-2-2v-1Z" style="stroke:none"/>
    </g>
    <g stroke="none" style="stroke-linecap:round;fill:#f6d4ca;stroke:#f6d4ca">
        <path d="M7.5 26 9 24.5v-1l1-1v-1l1-1v-1l2-2v-3l-2-2v-1l-1-1 1-1v-1l.5-.5L13 9.5v1l1 1v1l1 1v1l1 1v2l2 2 6-6 1.5 1.5h1l1 1h2l1 1h1l2 2h1l1.5 1.5v3l-1 1v1l-3 3v2l1.5 1.5h1l2 2h2l1.5 1.5v2L38.5 39l-4-4h-5l-1 1h-1l-2 2h-3l-1-1h-1l-1-1h-1l-2-2h-1l-3-3h-1L9 28.5v-1Z" style="stroke:none"/>
        <path d="m11.5 8 3-3h3l1-1h11l1 1h2l1 1h2l1 1h1l.5.5v1l3.5 3.5h.5v1.5l.5.5h.5v2.5l1 1v2l1 1v3l1 1v4l-1 1v1l-1 1v2L41.5 36H40v-.5L38.5 34h-2l-2-2h-1L32 30.5v-2l3-3v-1l1-1v-3L34.5 19h-1l-2-2h-1l-1-1h-2l-1-1h-1L24 13.5l-6 6-2-2v-2l-1-1v-1l-1-1v-1l-1-1v-1Z" style="fill:#ffefe9;stroke:none"/>
        <path d="M16 25.5v2l1 1v1l4.5 4.5h2l1-1h1l3.5-3.5v-1l1-1v-5L26.5 19h-2l-1 1h-1l-1 1h-1Z" style="stroke:none"/>
        <path d="M16 27.5v-2l4.5-4.5h1l1-1h1l1-1h2l3.5 3.5v5l-1 1v1L25.5 33h-1l-1 1h-2L17 29.5v-1Z" style="fill:#ffefe9;stroke:none"/>
    </g>
</svg>
