<svg xmlns="http://www.w3.org/2000/svg" width="48" height="48" style="fill-opacity:1;color-rendering:auto;color-interpolation:auto;text-rendering:auto;stroke:#000;stroke-linecap:square;stroke-miterlimit:10;shape-rendering:auto;stroke-opacity:1;fill:#000;stroke-dasharray:none;font-weight:400;stroke-width:1;font-family:&quot;Dialog&quot;;font-style:normal;stroke-linejoin:miter;font-size:12px;stroke-dashoffset:0;image-rendering:auto">
    <g style="stroke-linecap:round;fill:#b785a5;stroke:#b785a5">
        <path stroke="none" d="M2 28.5v-6l2-2v-4l1-1v-1L6.5 13h1l2-2h.5v.5l1 1v1l2 2v2l1 1v2L12.5 22h-1L10 23.5v5l1 1v1l6 6 1.5-1.5h1l5-5h2l1.5 1.5v1l2.5 2.5h1l1 1h1l2 2h1l1.5 1.5-1 1v2L33.5 46h-1L31 47.5 29.5 46h-1l-1-1h-1l-1-1h-4l-2 2h-4l-1-1h-1l-1-1h-1l-5-5H6v-2.5l-2-2v-3l-1-1v-1Z" style="stroke:none"/>
    </g>
    <g stroke="none" style="stroke-linecap:round;fill:#ffefe9;stroke:#ffefe9">
        <path d="M10 11v-.5L12.5 8h1l1-1h6l2-2h10l1 1h2l1 1h1l.5.5v1l1.5 1.5h1l2.5 2.5v1l1 1v1l1 1v1l1 1v4l-1 1v7l-1 1v2l-2 2-.5-.5h-1l-1-1h-1L37 32.5v-2l-1-1v-3l-1-1v-2l-2-2v-1l-1-1v-1L28.5 15h-2l-3 3h-3l-1-1h-2l-6-6Z" style="stroke:none"/>
        <path d="M10 11.5V11h1.5l6 6h2l1 1h3l3-3h2l3.5 3.5v1l1 1v1l2 2v2l1 1v3l1 1v2l1.5 1.5h1l1 1h1l.5.5-.5.5h-1l-.5.5v1l-2 2-1.5-1.5h-1l-2-2h-1l-1-1h-1L28 32.5v-1L26.5 30h-2l-5 5h-1L17 36.5l-6-6v-1l-1-1v-5l1.5-1.5h1l1.5-1.5v-2l-1-1v-2l-2-2v-1Z" style="fill:#f6d4ca;stroke:none"/>
    </g>
</svg>
