<svg xmlns="http://www.w3.org/2000/svg" width="50" height="50" style="fill-opacity:1;color-rendering:auto;color-interpolation:auto;text-rendering:auto;stroke:#000;stroke-linecap:square;stroke-miterlimit:10;shape-rendering:auto;stroke-opacity:1;fill:#000;stroke-dasharray:none;font-weight:400;stroke-width:1;font-family:&quot;Dialog&quot;;font-style:normal;stroke-linejoin:miter;font-size:12px;stroke-dashoffset:0;image-rendering:auto">
    <g style="stroke-linecap:round;fill:#e27f52;stroke:#e27f52">
        <path stroke="none" d="m13.5 4 2-2h3l1 1h1L24 6.5v1l1 1v1l1 1v1l1 1v1L24.5 16H20v-.5l-1-1v-1l-1-1v-1l-1-1v-3Z" style="stroke:none"/>
    </g>
    <g style="stroke-linecap:round;fill:#b5513f;stroke:#b5513f">
        <path stroke="none" d="M17 31.5v-2l1-1v-2l1-1v-3l1-1V16h4.5l2.5-2.5 1 1v5l1 1v4l-1 1v3l-1 1v3l-1 1v2l-3 3-5-5v-1Z" style="stroke:none"/>
    </g>
</svg>
