<svg xmlns="http://www.w3.org/2000/svg" width="50" height="50" style="fill-opacity:1;color-rendering:auto;color-interpolation:auto;text-rendering:auto;stroke:#000;stroke-linecap:square;stroke-miterlimit:10;shape-rendering:auto;stroke-opacity:1;fill:#000;stroke-dasharray:none;font-weight:400;stroke-width:1;font-family:&quot;Dialog&quot;;font-style:normal;stroke-linejoin:miter;font-size:12px;stroke-dashoffset:0;image-rendering:auto">
    <g style="stroke-linecap:round;fill:#e27f52;stroke:#e27f52">
        <path stroke="none" d="M14 14.5v-4l1-1v-1l1-1v-2l3-3 2 2v2l-1 1v6l1 1v3l3 3-4.5 4.5-1.5-1.5v-1l-1-1v-1l-2-2v-3Z" style="stroke:none"/>
    </g>
    <g stroke="none" style="stroke-linecap:round;fill:#b5513f;stroke:#b5513f">
        <path d="M15 40.5v-2l3-3v-2l2-2v-5l-1-1 5-5 .5.5 3.5-3.5v-1l1-1 1.5 1.5h4l1-1h1l2.5 2.5v6l-.5.5h-1l-1 1h-2L30 30.5v1l-1 1v2L22.5 41h-1l-1 1h-4Z" style="stroke:none"/>
        <path d="m29 15.5 1-1v-1l1-1v-4l1-1v-3l2-2 2 2V16h-.5l-1 1h-4Zm7.5.5 2.5-2.5v-1l1-1v-2l2-2 2 2v8l-1 1v1l-1 1v2L40.5 24H39v-5.5Z" style="fill:#e27f52;stroke:none"/>
    </g>
</svg>
