<svg xmlns="http://www.w3.org/2000/svg" width="48" height="48" style="fill-opacity:1;color-rendering:auto;color-interpolation:auto;text-rendering:auto;stroke:#000;stroke-linecap:square;stroke-miterlimit:10;shape-rendering:auto;stroke-opacity:1;fill:#000;stroke-dasharray:none;font-weight:400;stroke-width:1;font-family:&quot;Dialog&quot;;font-style:normal;stroke-linejoin:miter;font-size:12px;stroke-dashoffset:0;image-rendering:auto">
    <g style="stroke-linecap:round;fill:#623c35;stroke:#623c35">
        <path stroke="none" d="M6 26.5v-7l1-1v-2l1-1v-1l2-2 .5.5.5-.5V12h3.5l.5-.5 2 2v1l1 1v3L15.5 21h-1L13 22.5v5l6 6 3-3v-2l1-1v-1l.5-.5h2l2.5 2.5v2l1 1v1l2 2v1l1 1v1l1.5 1.5-.5.5v1L31.5 42h-1l-1 1h-12l-3-3h-1L11 37.5v-1l-3-3v-2l-1-1v-3Z" style="stroke:none"/>
    </g>
    <g stroke="none" style="stroke-linecap:round;fill:#925e46;stroke:#925e46">
        <path d="M13 27.5v-5l1.5-1.5h1l2.5-2.5v-3l-1-1v-1l-2-2 .5-.5h1l.5-.5 5 5v3l1 1v1l2.5 2.5h2l2-2-2-2 2-2h2l3.5 3.5v4l-1 1v1l-2 2v4l2 2v1l.5.5h.5v1.5L33.5 39 32 37.5v-1l-1-1v-1l-2-2v-1l-1-1v-2L25.5 26h-2l-.5.5v1l-1 1v2l-3 3Z" style="stroke:none"/>
        <path d="M17 10.5 19.5 8h3l1-1h1l1-1h3l4 4h1l1 1h1l1 1h1l4.5 4.5v1l1 1v6l-1 1v2l-2 2v2L35.5 36h-1l-.5-.5v-1l-2-2v-4l2-2v-1l1-1v-4L31.5 17h-2l-2 2 2 2-2 2h-2L23 20.5v-1l-1-1v-3Z" style="fill:#b58459;stroke:none"/>
    </g>
</svg>
