<svg xmlns="http://www.w3.org/2000/svg" width="48" height="48" style="fill-opacity:1;color-rendering:auto;color-interpolation:auto;text-rendering:auto;stroke:#000;stroke-linecap:square;stroke-miterlimit:10;shape-rendering:auto;stroke-opacity:1;fill:#000;stroke-dasharray:none;font-weight:400;stroke-width:1;font-family:&quot;Dialog&quot;;font-style:normal;stroke-linejoin:miter;font-size:12px;stroke-dashoffset:0;image-rendering:auto">
    <g style="stroke-linecap:round;fill:#623c35;stroke:#623c35">
        <path stroke="none" d="M6 26.5v-5l1-1v-1l1-1v-1l1-1v-1l3-3V12h2.5l.5-.5 3 3v1l1 1v2l6 6v2L23.5 28h-2l-1-1h-1l-1-1h-1L14 22.5l-2 2v2l6.5 6.5h2l3 3h3l1-1h2l4 4-.5.5v1L30.5 43h-10l-1-1h-2l-1-1h-1l-3-3h-1L9 35.5v-1l-1-1v-2l-1-1v-3Z" style="stroke:none"/>
    </g>
    <g stroke="none" style="stroke-linecap:round;fill:#925e46;stroke:#925e46">
        <path d="M12 26.5v-2l2-2 3.5 3.5h1l1 1h1l1 1h2l1.5-1.5v-2l-6-6v-2l-1-1v-1l-3-3 .5-.5h1l.5-.5 3.5 3.5h1l1 1h3l2 2h4l3 3-2 2h-1L29 24.5v2l1 1v1l2 2v2l2 2v1l.5.5h.5v1.5L33.5 39l-4-4h-2l-1 1h-3l-3-3h-2Z" style="stroke:none"/>
        <path d="M17 10.5 19.5 8h4l1 1h5l1 1h2l1 1h2l1 1h1l1.5 1.5v1l1 1v1l1 1v1l1 1v1l1 1v3l-1 1v1l-1 1v1l-2 2v2L35.5 36h-1l-.5-.5v-1l-2-2v-2l-2-2v-1l-1-1v-2l2.5-2.5h1l2-2-3-3h-4l-2-2h-3l-1-1h-1Z" style="fill:#b58459;stroke:none"/>
    </g>
</svg>
