<svg xmlns="http://www.w3.org/2000/svg" width="32" height="32" style="fill-opacity:1;color-rendering:auto;color-interpolation:auto;text-rendering:auto;stroke:#000;stroke-linecap:square;stroke-miterlimit:10;shape-rendering:auto;stroke-opacity:1;fill:#000;stroke-dasharray:none;font-weight:400;stroke-width:1;font-family:&quot;Dialog&quot;;font-style:normal;stroke-linejoin:miter;font-size:12px;stroke-dashoffset:0;image-rendering:auto">
    <g style="stroke-linecap:round;fill:#d3ae8d;stroke:#d3ae8d">
        <path stroke="none" d="M2 11.5v-2l3-3v-1L6.5 4h1L9 5.5v1l1 1v1l1.5 1.5-3 3h-1L5 15.5v4l1 1v1l1 1v1l4 4 2.5-2.5L9 20.5v-1L7.5 18l2.5-2.5 1.5 1.5h1l6 6h1l5 5-2 2h-1l-1 1h-11l-1-1h-1L6 28.5v-1l-3-3v-2l-1-1v-7L3.5 13Z" style="stroke:none"/>
    </g>
    <g stroke="none" style="stroke-linecap:round;fill:#f7cba4;stroke:#f7cba4">
        <path d="M5 19.5v-4L7.5 13h1l3-3L10 8.5v-1l-1-1v-1L7.5 4l.5-.5L10.5 6h2L14 7.5v1l5 5v1l1 1v1l1 1v1l1 1v1l1 1v1l1 1v3l1 1-.5.5-5-5h-1l-6-6h-1L10 15.5 7.5 18 9 19.5v1l4.5 4.5-2.5 2.5-4-4v-1l-1-1v-1Z" style="stroke:none"/>
        <path d="M8 3.5 10.5 1h4l1 1h2l1 1h2l1 1h2l1 1h1L28 7.5v1l1 1v1l1 1v1l1 1v8l-1 1v1l-1 1v1L26.5 28h-1L24 26.5v-3l-1-1v-1l-1-1v-1l-1-1v-1l-1-1v-1l-1-1v-1l-5-5v-1L12.5 6h-2Z" style="fill:#ffe4ca;stroke:none"/>
        <path d="m19.5 10 6.5 6.5 2.5-2.5L22 7.5Z" style="fill:#ffe4ca;stroke:none"/>
        <path d="M19.5 10 22 7.5l6.5 6.5-2.5 2.5Z" style="stroke:none"/>
    </g>
</svg>
