<svg xmlns="http://www.w3.org/2000/svg" width="32" height="32" style="fill-opacity:1;color-rendering:auto;color-interpolation:auto;text-rendering:auto;stroke:#000;stroke-linecap:square;stroke-miterlimit:10;shape-rendering:auto;stroke-opacity:1;fill:#000;stroke-dasharray:none;font-weight:400;stroke-width:1;font-family:&quot;Dialog&quot;;font-style:normal;stroke-linejoin:miter;font-size:12px;stroke-dashoffset:0;image-rendering:auto">
    <g style="stroke-linecap:round;fill:#5f5982;stroke:#5f5982">
        <path stroke="none" d="M1 17.5v-8l1-1v-1L6.5 3H7v.5l1 1-1 1v1l-1 1v1l-1 1v1l-1 1v2l2 2 4-4L20.5 22l-2 2h-3l-1-1h-1L10 19.5 7.5 22l6 6h7l1-1h1l1-1h1l1-1h1l1-1h.5v3h-.5l-3 3h-1l-1 1h-15l-1-1h-2L2 27.5v-1L.5 25 3 22.5v-2l-1-1v-1Z" style="stroke:none"/>
    </g>
    <g stroke="none" style="stroke-linecap:round;fill:#6b699c;stroke:#6b699c">
        <path d="M4 13.5v-2l1-1v-1l1-1v-1l1-1v-1l1-1-1-1V3h.5l2 2h1l1 1h1L14 7.5v1l1 1v1l1 1v1l1 1v1l.5.5h1l1.5 1.5 4.5-4.5h2l2 2-2 2h-2l-2 2 5.5 5.5v.5h-.5l-1 1h-1l-1 1h-1l-1 1h-1l-1 1h-7l-6-6 2.5-2.5 3.5 3.5h1l1 1h3l2-2L10 11.5l-4 4Z" style="stroke:none"/>
        <path d="m7.5 3 1-1h1l1-1h8l1 1h1l1 1h1l1 1h1l1 1h1l.5.5v1l1 1v1l1 1v1l2 2v7l-1 1v2L28.5 24H28v-.5L22.5 18l2-2h2l2-2-2-2h-2L20 16.5 18.5 15h-1l-.5-.5v-1l-1-1v-1l-1-1v-1l-1-1v-1L12.5 6h-1l-1-1h-1Z" style="fill:#7d8cb2;stroke:none"/>
    </g>
</svg>
