<svg xmlns="http://www.w3.org/2000/svg" width="40" height="40" style="fill-opacity:1;color-rendering:auto;color-interpolation:auto;text-rendering:auto;stroke:#000;stroke-linecap:square;stroke-miterlimit:10;shape-rendering:auto;stroke-opacity:1;fill:#000;stroke-dasharray:none;font-weight:400;stroke-width:1;font-family:&quot;Dialog&quot;;font-style:normal;stroke-linejoin:miter;font-size:12px;stroke-dashoffset:0;image-rendering:auto">
    <g style="stroke-linecap:round;fill:#7457ce;stroke:#7457ce">
        <path stroke="none" d="M8 13.5v-3L10.5 8h3l2.5 2.5v2L12.5 16h-2Z" style="stroke:none"/>
    </g>
    <g stroke="none" style="stroke-linecap:round;fill:#7457ce;stroke:#7457ce">
        <path d="M12 25.5v-3l2.5-2.5h3l2.5 2.5v3L17.5 28h-3Z" style="stroke:none"/>
        <path d="m12.5 16 3.5-3.5 7.5 7.5h6l2.5-2.5v4L30.5 23h-1l-1 1h-1l-4 4h-6l2.5-2.5v-3L17.5 20h-1Z" style="fill:#fff;stroke:none"/>
        <path d="M24 17.5v-3l2.5-2.5h4l.5.5v1l1 1v3L29.5 20h-3Z" style="stroke:none"/>
    </g>
</svg>
