<svg xmlns="http://www.w3.org/2000/svg" width="40" height="40" style="fill-opacity:1;color-rendering:auto;color-interpolation:auto;text-rendering:auto;stroke:#000;stroke-linecap:square;stroke-miterlimit:10;shape-rendering:auto;stroke-opacity:1;fill:#000;stroke-dasharray:none;font-weight:400;stroke-width:1;font-family:&quot;Dialog&quot;;font-style:normal;stroke-linejoin:miter;font-size:12px;stroke-dashoffset:0;image-rendering:auto">
    <g style="stroke-linecap:round;fill:#7457ce;stroke:#7457ce">
        <path stroke="none" d="M8 29.5v-3l2.5-2.5h3l2.5 2.5v3L13.5 32h-3Z" style="stroke:none"/>
    </g>
    <g stroke="none" style="stroke-linecap:round;fill:#7457ce;stroke:#7457ce">
        <path d="M12 13.5v-3L14.5 8h3l2.5 2.5V12h-.5L16 15.5v.5h-1.5Z" style="stroke:none"/>
        <path d="m14 24.5 2-2v-7l3.5-3.5h.5v.5l4 4v1l2.5 2.5H28v1.5L25.5 24h-2l-4 4H16v-1.5Z" style="fill:#fff;stroke:none"/>
        <path d="M24 17.5v-3l2.5-2.5h3l2.5 2.5v3L29.5 20h-3Z" style="stroke:none"/>
    </g>
</svg>
