<svg xmlns="http://www.w3.org/2000/svg" width="133" height="140" style="fill-opacity:1;color-rendering:auto;color-interpolation:auto;text-rendering:auto;stroke:#000;stroke-linecap:square;stroke-miterlimit:10;shape-rendering:auto;stroke-opacity:1;fill:#000;stroke-dasharray:none;font-weight:400;stroke-width:1;font-family:&quot;Dialog&quot;;font-style:normal;stroke-linejoin:miter;font-size:12px;stroke-dashoffset:0;image-rendering:auto">
    <g style="stroke-linecap:round;fill:#c384b7;stroke:#c384b7">
        <path stroke="none" d="m8.5 78-1-1 1-1h2l1-1h1l1-1h3l1-1h1l1-1h3l1-1h1l1-1h2l1-1h1l1-1h2l1-1h2l1-1h1l1-1h2l1-1h1l1-1h1l1-1h1l.5-.5v-2l-3-3v-1l-4-4v-1l-3-3v-1l-1-1v-1l-2-2v-1l-2-2v-1L28.5 35H28v-.5l1-1 2.5 2.5-.5.5.5.5h2l4 4h1l3 3h1l4 4h1l4.5 4.5v1l1.5 1.5h1l2 2h1l1 1h1l3.5 3.5v1l3 3 2-2v-3l1-1v-9l1-1v-4l1-1v-2l1-1v-4l1-1v-5l1-1v-4l1-1v-3l1-1v-4l1-1v-3l1-1V10h.5l.5-.5v-2l.5-.5.5.5v21l-1 1v11l-1 1v10l-1 1v13l-1 1v1l-1 1v1L73.5 71h-1l-1 1h-2l-1 1h-2l-4 4h-1l-16 16h-1l-1 1h-1l-2 2h-1l-2 2h-1l-3 3h-1l-1 1h-1l-4 4h-1l-1.5 1.5v.5h-.5l-1-1 2.5-2.5v-1l1-1v-1l2-2v-1l2-2v-1l2-2v-1l2.5-2.5-.5-.5 9.5-9.5h1l1-1h1l2-2h1l1-1h1l1-1h1l.5-.5-.5-.5h-4l-1 1h-12l-1 1h-6l-1 1h-8l-1 1Z" style="stroke:none"/>
    </g>
    <g stroke="none" style="stroke-linecap:round;fill:#7b5682;stroke:#7b5682">
        <path d="m11.5 79-1-1h9l1-1h8l1-1h6l1-1h12l1-1h4l.5.5-.5.5h-1l-1 1h-1l-1 1h-1l-2 2h-1l-1 1h-1L34 89.5 32.5 88h-1l-2-2h-1l-1-1h-1l-1-1h-2l-1-1h-2l-1-1h-1l-1-1h-2l-1-1h-1l-1-1Zm13 29H24v-.5l1.5-1.5h1l4-4h1l1-1h1l3-3h1l2-2h1l2-2h1l1-1h1l16-16h1l4-4h2l1-1h2l1-1h1l1.5-1.5v-1l1-1v-1l1-1v-10L99.5 33h.5v2.5l1 1-.5.5-1-1-1 1 2 2-1.5 1.5v-2l-.5-.5-1.5 1.5v1l-1 1v1l-1 1v1l-2 2v1l-1 1v1l-2 2v1l-1 1v1l-1 1v2l2.5 2.5H93v2.5l-1 1-.5-.5h-2l-1-1h-4L83 63.5v1l-2 2v1l-3 3v5l-1 1v3l-1 1v1L74.5 83h-3l-1-1h-8l-1 1h-1l-1 1h-1L55 87.5v2l-1 1v3l-1 1v4L51.5 97h-2l-1 1h-1l-1 1h-1l-1 1h-1l-1 1h-1l-1 1h-2l-1 1h-2l-1 1h-1l-1 1h-2l-1 1h-1l-1 1h-2ZM29 36.5l-1-1V35h.5l.5.5Z" style="stroke:none"/>
        <path d="M29 38.5v-2l-1-1V35h.5l3.5 3.5v1l2 2v1l2 2v1l1 1v1l3 3v1l4 4v1l3 3v2l-.5.5h-1l-1 1h-1l-1 1h-1l-.5.5-2-2v-2l-1-1v-1l-1-1v-1l-1-1v-1l-1-1v-1l-1-1v-2l-1-1v-2l-2-2v-2l-1-1v-2Z" style="stroke:none"/>
        <path d="m44.5 134-.5-.5v-3l1-1v-2l1-1v-1l1-1v-3l2-2v-2l1-1v-2l1-1v-3l1-1v-3l1-1v-11l1-1v-3l1-1v-2l3.5-3.5h1l1-1h1l1-1h8l1 1h3l1.5-1.5v-1l1-1v-3l1-1v-5l3-3v-1l2-2v-1l1.5-1.5h4l1 1h2l1 1h1l1 1h1l1 1h2l1 1h3l1 1h4l1 1h2l1 1h3l1 1h2l1 1h1l1.5 1.5-.5.5h-11l-1 1h-10L97 76.5v2l4 4v2l-1 1v4l-1 1v4l-1 1v3l-1 1v3l-1 1v2l-1 1v3l-1 1v1l-1 1v2l-1 1v1l-1 1v3l-1 1v2l-1 1v3l-1.5 1.5-.5-.5v-6l-1-1v-8l-1-1v-7l-1-1v-5l-1-1v-5l-1-1v-2l-1-1v-2l-1-1-4 4v1l-3 3v1l-1 1v1l-3 3v1l-3 3v1l-1 1v1l-.5.5h-1l-.5.5v1l-2 2v1l-2 2v1l-4 4v1l-1 1v1l-2 2v1l-4 4v1Zm1-108H45v-.5l.5-.5h5l1 1h3l1 1h2l1 1h3l1 1h3l1 1H68v2.5l-1 1v2l-2 2-1.5-1.5h-1l-1-1h-1l-1-1h-1l-1-1h-1l-1-1h-1l-2-2h-1l-2-2h-1l-1-1h-1Z" style="fill:#c384b7;stroke:none"/>
        <path d="m46 27.5-1-1V26h.5l.5.5Z" style="stroke:none"/>
        <path d="M48.5 28h1l2 2h1l2 2h1l1 1h1l1 1h1l1 1h1l1 1h1l1.5 1.5 2-2v-2l1-1v-3l2-2v-2l1-1v-2l1-1v-1l2-2v-1l1-1v-2l2-2v-1l1-1v2l-1 1v3l-1 1v4l-1 1v3l-1 1v4l-1 1v5l-1 1v4l-1 1v2l-1 1v4l-1 1v9l-1 1v3l-2 2-3-3v-1L59.5 58H59v-2.5l1-1v-1l1-1v-3l1-1v-2l1-1v-3L60.5 40h-1l-11-11h-1L45 26.5V26h.5l1 1h1ZM48 130v-.5l4-4v-1l2-2v-1l1-1v-1l4-4v-1l2-2v-1l2-2v-1l.5-.5h1l.5-.5v-1l1-1v-1l3-3v-1l3-3v-1l1-1v-1l3-3v-1l4-4 1 1v2l1 1v2l1 1v5l1 1v5l1 1v7l1 1v8l1 1v5l-1-1v-1l-1-1v-1l-1-1v-1l-2-2v-1l-3-3v-1l-4.5-4.5-1 1h-1l-4 4h-1l-4 4h-1l-2 2h-1l-3 3h-1l-6 6ZM78.5 10H78v-.5l.5-.5h.5v.5Z" style="stroke:none"/>
        <path d="M88 57.5v-2l1-1v-1l1-1v-1l2-2v-1l1-1v-1l2-2v-1l1-1v-1l1-1v-1l1.5-1.5.5.5v4l-1 1v2l-1 1v3l-1 1v3l-1 1v2l-1 1v2l-.5.5h-3Z" style="fill:#c384b7;stroke:none"/>
        <path d="M97 78.5v-2l1.5-1.5h10l1-1h10l-1 1h-1l-1 1h-2l-1 1h-1l-1 1h-3l-1 1h-1l-1 1h-1l-1 1h-2l-1 1Z" style="stroke:none"/>
        <path d="m100.5 37-1 1-1-1 1-1Zm.5-2.5v2l-1-1V33h.5l1-1 .5.5V34h-.5Z" style="fill:#c384b7;stroke:none"/>
        <path d="M101.5 35h-.5v-.5l.5-.5h.5v.5Z" style="stroke:none"/>
    </g>
</svg>
