<svg xmlns="http://www.w3.org/2000/svg" width="169" height="173" style="fill-opacity:1;color-rendering:auto;color-interpolation:auto;text-rendering:auto;stroke:#000;stroke-linecap:square;stroke-miterlimit:10;shape-rendering:auto;stroke-opacity:1;fill:#000;stroke-dasharray:none;font-weight:400;stroke-width:1;font-family:&quot;Dialog&quot;;font-style:normal;stroke-linejoin:miter;font-size:12px;stroke-dashoffset:0;image-rendering:auto">
    <g style="stroke-linecap:round;fill:#c384b7;stroke:#c384b7">
        <path stroke="none" d="m5.5 81-.5-.5 5-5v-1L23.5 61l.5.5v1l1 1v1l1 1v1l1.5 1.5-2 2h-1l-1 1h-1l-1 1h-2l-2 2h-1l-1 1h-1l-1 1h-1l-2 2h-1L8 79.5V81Z" style="stroke:none"/>
    </g>
    <g stroke="none" style="stroke-linecap:round;fill:#7b5682;stroke:#7b5682">
        <path d="M8.5 81H8v-1.5L9.5 78h1l2-2h1l1-1h1l1-1h1l2-2h2l1-1h1l1-1h1l2-2-1.5-1.5v-1l-1-1v-1l-1-1v-1l-1-1v-1l-1-1v-1l-2-2v-1l-1-1v-1l-1-1v-1l-1-1v-2l-1-1v-1l8 8v1l6 6v1l4 4v2l3 3v1l2 2v1l1.5 1.5h1l1 1h1L55 88.5l-.5.5h-5l-1 1h-5l-1 1h-5L36 92.5l-1-1v-1l-1-1v-1l-1-1v-2l-1-1v-1l-1-1v-1l-1-1v-3L28.5 76h-1l-1-1h-2l-1 1h-1l-1 1h-2l-1 1h-2l-1 1h-2l-1 1h-3Z" style="stroke:none"/>
        <path d="M17.5 45h2l1 1h1l1 1h2l1 1h1l1 1h1l2 2h1l1 1h1l1 1h1l1 1h1l3.5 3.5 3-3v-1l1-1v-1l2-2v-1l1.5-1.5-.5-.5 3-3v-1l4.5-4.5-2.5-2.5v-1l-4-4v-1l-2-2v-1l-5-5v-1l-2-2v-1l-1-1v-1L37.5 14H37v-2.5l-1-1 1-1 4.5 4.5h1l6 6h1l7 7h1l2 2h1l3 3h1l3 3h1l2 2h1l4 4h1l9 9h1l1.5 1.5-4 4v1L82.5 58h-1l-6 6-5.5-5.5v-1L68.5 56h-2l-4 4h-1L59 62.5 57.5 61l1.5-1.5v-1l2-2v-1l1-1v-1l1-1v-1l1-1-2-2v-1l-2-2v-1L56.5 41l-.5.5v2l-1 1v2l-1 1v1l-1 1v1l-1 1v1l-1 1v1l-1 1v1l-2 2v1L46.5 61l1 1h1l3 3h1l7 7h1l7 7h2l1-1h1l1-1h1l2-2h1l1.5-1.5 1 1-1 1v2l-1 1v2l-1 1v2l-1 1 8 8v1l1 1v1l1 1v7l-1 1v4l-1 1v2l-1 1v2l-1 1v1l-1 1v2l-1 1v1l-1 1v2l-1 1v1l-1 1v2l-1 1v1l-1 1v2l-1 1v3l-1 1v1l-1 1v2l-1 1v1l-1 1v4.5h-.5l-.5.5.5.5-1 1-1.5-1.5v-4l1-1v-8l1-1v-9l1-1v-7l1-1v-5l1-1v-6l1-1v-4l-.5-.5h-1l-1-1h-18l-1-1h-9l-1-1h-9l-1-1h-5l-1-1H17v-.5l.5-.5h5l1-1h4l1-1h4l1-1h2l2-2h5l1-1h5l1-1h5l.5-.5L43.5 77h-1l-1-1h-1L39 74.5v-1l-2-2v-1l-3-3v-2l-4-4v-1l-6-6v-1l-8-8v-1l.5-.5h.5v.5Z" style="fill:#c384b7;stroke:none"/>
        <path d="M18 45h-.5l-.5-.5V44h.5l.5.5Zm-.5 53-.5-.5V97h7.5l1 1h5l1 1h9l1 1h9l1 1h18l1 1h1l.5.5v4l-1 1v6l-1 1v5l-1 1v4l-1.5 1.5h-1l-2 2h-1l-4 4h-2l-2 2h-1l-3 3h-1l-2 2h-1l-1 1h-2l3.5-3.5v-1l4-4v-1l4-4v-1l3-3v-1l2-2v-2l-.5-.5h-2l-1-1h-2l-1-1h-1l-1-1h-1l-1-1h-1l-1-1h-3l-1-1h-2l-2-2h-1l-1-1h-1l-2-2h-1l-2-2h-1l-1-1h-1l-1-1h-2l-1-1h-1l-1-1h-1l-1-1h-2l-1-1ZM37 13.5l-1-1v-2l1 1Zm1 2-1-1V14h.5l.5.5Z" style="stroke:none"/>
        <path d="M40 17.5v1l2 2v1l5 5v1l2 2v1l4 4v1l2.5 2.5-4.5 4.5v1l-3 3-1-1v-2l-1-1v-1l-1-1v-2l-1-1v-3l-1-1v-2l-1-1v-3l-1-1v-3l-1-1v-1l-1-1v-1l-1-1v-3l-1-1V14h.5l1.5 1.5v1Z" style="stroke:none"/>
        <path d="m44.5 140-.5-.5v-2l1-1v-1l1-1v-2l1-1v-2l1-1v-1l1-1v-2l1-1v-2l1-1v-2l1-1v-2l1-1 .5.5h1l1 1h2l1 1h2l.5.5v2l-2 2v1l-3 3v1l-4 4v1l-4 4v1Z" style="fill:#c384b7;stroke:none"/>
        <path d="m47.5 62-1-1 1.5-1.5v-1l2-2v-1l1-1v-1l1-1v-1l1-1v-1l1-1v-1l1-1v-2l1-1v-2l.5-.5 3.5 3.5v1l2 2v1l2 2-1 1v1l-1 1v1l-1 1v1l-2 2v1L57.5 61l1.5 1.5 2.5-2.5h1l4-4h2l1.5 1.5v1l5.5 5.5 6-6h1l1.5-1.5v-1l7-7v-1l.5-.5h1l.5-.5v-1l6-6v-1l4-4v-1l2-2v-1l2.5-2.5h.5v.5l-1 1v1l-1 1v1l-1 1v2l-1 1v1l-1 1v1l-1 1v1l-1 1v1l-1 1v1l-1 1v2l-1 1v1l-1 1v1l-2 2v1l-1 1v1l-1 1v1l-1 1v1l-1 1v1l-2 2v1l-2 2v2l-4 4v3l1 1v2l1 1v1l1 1v2l2 2v1l1 1v1l2.5 2.5h1l4 4h1l1 1h1l6 6h1l5 5h1l2 2h1l1 1h1l1 1h1l1 1h1l4 4h1l2 2h1l2 2h1l1 1h1l2 2h1l2 2h1l1 1h1l.5.5-.5.5h-2l-1-1h-3l-1-1h-4l-1-1h-1l-1-1h-3l-1-1h-1l-1-1h-2l-1-1h-1l-1-1h-2l-1-1h-2l-1-1h-1l-1-1h-1l-1-1h-1l-1-1-3.5 3.5v-2l-1-1v-11l-.5-.5-1.5 1.5v1l-1 1v1l-1 1v1l-2 2v1l-1 1v1l-1 1v1l-1 1v1l-1 1v3l1 1v1l1 1v2l1 1v1l1 1v1l1 1v1l2 2v1l1 1v1l1 1v1l1 1v1l2 2v1l1 1v1l1 1v1l1 1-.5.5-4-4h-1l-1-1h-1l-2-2h-1l-2-2h-1l-2-2h-1l-1-1h-1l-3-3h-1l-1-1-5 5h-1l-1.5 1.5v1l-6 6v-4l1-1v-1l1-1v-2l1-1v-1l1-1v-3l1-1v-2l1-1v-1l1-1v-2l1-1v-1l1-1v-2l1-1v-1l1-1v-2l1-1v-1l1-1v-2l1-1v-2l1-1v-4l1-1v-7l-1-1v-1l-1-1v-1l-8-8 1-1v-2l1-1v-2l1-1v-2l1-1-1-1-1.5 1.5h-1l-2 2h-1l-1 1h-1l-1 1h-2l-7-7h-1l-7-7h-1l-3-3Zm21 90-.5-.5.5-.5h.5v.5Z" style="stroke:none"/>
        <path d="M83 77.5v-3l4-4v-2l2-2v-1l2-2v-1l1-1v-1l1-1v-1l1-1v-1l1-1v-1l2-2v-1l1-1v-1l1-1v-2l1-1v-1l1-1v-1l1-1v-1l1-1v-1l1-1v-1l1-1v-2l1-1v-1l1-1v-1l1-1v-2l1.5-1.5.5.5v6l-1 1v4l-1 1v4l-1 1v5l-1 1v4l-1 1v2l-1 1v1l-1 1v4l-1.5 1.5 1 1 1-1h1l1-1h1l1-1h1l1-1h2l2-2h1l1-1h3l1-1h1l1-1h1l1-1h1l1.5-1.5-1-1v-3l-1-1v-4l-1-1v-2l-1-1v-1l-1.5-1.5 1-1 2.5 2.5v1l2 2v1l2 2v1l1 1v1l1 1v1l.5.5h5l1-1h1l1-1h1l1-1h3l1-1h1l1-1h1l1-1h2l1-1h2l1-1h1l1-1h3l.5.5-4.5 4.5h-1l-1 1h-1l-2 2h-1l-1 1h-1l-1 1h-1l-1 1h-2l-3 3h-1l-1 1h-1l-3 3h-2l-2 2h-1l-2 2h-1l-2 2h-1l-3 3h-1l-2 2h-1l-1 1h-1l-3 3h-1l-3 3h-1l-2.5 2.5v2l3 3v1l5.5 5.5h1l5.5 5.5v1l1 1v1l2 2v1l4 4v1l9 9v1l8 8v1.5h-.5l-1-1h-1l-2-2h-1l-2-2h-1l-1-1h-1l-2-2h-1l-2-2h-1l-4-4h-1l-1-1h-1l-1-1h-1l-1-1h-1l-2-2h-1l-5-5h-1l-6-6h-1l-1-1h-1l-4-4h-1L89 90.5v-1l-1-1v-1l-2-2v-2l-1-1v-1l-1-1v-2Zm8 47v-3l1-1v-1l1-1v-1l1-1v-1l1-1v-1l2-2v-1l1-1v-1l1-1v-1l1.5-1.5.5.5v11l1 1v9l1 1v6l1 1v5l1 1v4l1 1v1l1 1v2l1 1v4l-.5.5-2-2 .5-.5-1-1v-1l-1-1v-1l-1-1v-1l-2-2v-1l-1-1v-1l-1-1v-1l-1-1v-1l-2-2v-1l-1-1v-1l-1-1v-1l-1-1v-2l-1-1v-1Z" style="fill:#c384b7;stroke:none"/>
        <path d="M103 82.5v-2l2.5-2.5h1l3-3h1l3-3h1l1-1h1l2-2h1l3-3h1l2-2h1l2-2h1l2-2h2l3-3h1l1-1h1l3-3h2l1-1h1l1-1h1l1-1h1l2-2h1l1-1h1l4.5-4.5v2l-1 1v1l-2 2v1l-1 1v1l-1 1v1l-.5.5h-1l-.5.5v2l-2 2v1l-4.5 4.5h-1l-2.5 2.5v1l-2.5 2.5 1.5 1.5v1l1 1v1l4 4v1l5 5v1l7 7V94h-.5l-3-3h-1l-2-2h-1l-2-2h-1l-1-1h-1l-2-2h-1l-2-2h-1l-1-1h-1l-2-2h-3l-.5.5v1l-5 5v1l-.5.5h-1l-2.5 2.5v1l-2.5 2.5h-1l-.5.5v1l-2.5 2.5-5-5h-1l-5.5-5.5v-1ZM118.5 58h-.5v-5.5l1-1v-7l1-1v-5l.5-.5 1.5 1.5v1l1 1v2l1 1v4l1 1v3l1 1-1.5 1.5h-1l-1 1h-1l-1 1h-1Z" style="stroke:none"/>
        <path d="m140.5 70 2.5-2.5v-1l2.5-2.5h1l2-2 .5.5v2l1 1v2l1 1v2l1 1v2l1 1v3l1 1v1l1 1v1l1 1v1l1 1v2l1 1v1l1 1v1l1 1v2l-.5.5h-.5v-1.5l-7-7v-1l-5-5v-1l-4-4v-1l-1-1v-1Z" style="fill:#c384b7;stroke:none"/>
    </g>
</svg>
