<svg xmlns="http://www.w3.org/2000/svg" width="193" height="183" style="fill-opacity:1;color-rendering:auto;color-interpolation:auto;text-rendering:auto;stroke:#000;stroke-linecap:square;stroke-miterlimit:10;shape-rendering:auto;stroke-opacity:1;fill:#000;stroke-dasharray:none;font-weight:400;stroke-width:1;font-family:&quot;Dialog&quot;;font-style:normal;stroke-linejoin:miter;font-size:12px;stroke-dashoffset:0;image-rendering:auto">
    <g style="stroke-linecap:round;fill:#c384b7;stroke:#c384b7">
        <path stroke="none" d="m13.5 96-.5-.5.5-.5h1l1-1h1l2-2h1l1-1h1l1-1h1l1-1h2l2-2h1l2-2h1l1-1h1l2-2h2l.5-.5v-1l.5-.5h1l1-1h1l2-2h1l.5-.5v-1l.5-.5h1l1-1h1l3-3h1l2-2h1l2-2h1l1-1 .5.5v1l1 1v1l1 1v2l1 1v2l1 1v1l1.5 1.5-1 1h-1l-1 1h-3l-1 1h-2l-1 1h-3l-1 1h-2l-1 1h-3l-1 1h-2l-1 1h-2l-1 1h-2l-1 1h-2l-1 1h-2l-1 1h-2l-1 1h-2l-1 1h-2l-1 1h-2l-1 1h-2l-1 1Z" style="stroke:none"/>
    </g>
    <g stroke="none" style="stroke-linecap:round;fill:#7b5682;stroke:#7b5682">
        <path d="m15.5 96 1-1h2l1-1h2l1-1h2l1-1h2l1-1h2l1-1h2l1-1h2l1-1h2l1-1h2l1-1h2l1-1h3l1-1h2l1-1h3l1-1h2l1-1h3l1-1h1l1-1-1.5-1.5v-1l-1-1v-2l-1-1v-2l-1-1v-1l-1-1v-1l-.5-.5-.5.5-1-1v-1l-1-1v-1l-1-1v-1l-2-2v-1l-.5-.5-2 2h-1l-1 1h-1l-2 2h-1l-1 1h-1l-2 2H42v-.5l1-1v-1l10-10v-2l-1-1v-2l-2-2v-1l-2-2v-1l-1-1v-1l-1-1v-2l-1-1v-1l-1-1v-2l-1-1v-1l-1-1v-2l.5-.5 1.5 1.5v1l4 4v1l2 2v1l6 6v1l4 4v1l8 8v1l4 4v1l3 3v1l2 2v1l3 3v2L75.5 79h-1l-7 7h-1L62 90.5v.5h-5.5l-1 1h-6l-1 1h-5l-1 1h-9l-1 1h-9l-1 1Z" style="stroke:none"/>
        <path d="m16.5 130-.5-.5 6.5-6.5h1l1-1h1l10-10h1l5-5h1l4-4h1l3-3h1l2-2h1l5-5h1l1.5-1.5v-1l4.5-4.5h1l7-7h1l4.5-4.5v-2l-3-3v-1l-2-2v-1l-3-3v-1l-4-4v-1l-8-8v-1l-4-4v-1l-6-6v-1l-2-2v-1l-4-4v-1L42.5 26h3l2 2h1l2 2h1l4 4h1l2 2h1l2 2h1l10 10h2l4-4h1l5-5h1l5-5h1l1.5-1.5 1 1-1 1v1l-2 2v1l-1 1v1l-1 1v1l-1 1v1l-3 3v1l-1 1v1l-1 1v1l-1 1v1l-1 1 4.5 4.5H87v1.5l1.5 1.5h1l3 3h1l1 1 1.5-1.5 1 1v5l-1 1v2l-1 1v5l2 2v2L93.5 88h-1l-1 1h-1l-2 2h-1l-1 1h-1l-2 2h-1l-2 2h-1l-2 2h-1l-1 1h-1l-1 1h-1l-2 2h-1l-1 1h-1l-1 1h-1l-5 5h-2l-1 1h-1l-1 1h-2l-2 2h-1l-1 1h-2l-1 1h-1l-1 1h-2l-2 2h-1l-1 1h-1l-1 1h-1l-2 2h-1l-1 1h-1l-2 2h-1l-1 1h-1l-1 1h-2l-1 1h-1l-1 1h-1l-1 1Z" style="fill:#c384b7;stroke:none"/>
        <path d="m17.5 130 1-1h1l1-1h1l1-1h2l1-1h1l1-1h1l2-2h1l1-1h1l2-2h1l1-1h1l1-1h1l2-2h2l1-1h1l1-1h2l1-1h1l2-2h2l1-1h1l1-1h2l5-5h1l1-1h1l1-1h1l2-2h1l1-1h1l1-1h1l2-2h1l2-2h1l2-2h1l1-1h1l2-2h1l1-1h1l3.5-3.5v-2l-2-2v-5l1-1v-2l1-1v-5l-1-1v-2l1-1v-10l1-1v-10l1-1v-5l-2-2v-1l-1-1v-1l-2-2v-1l-2-2v-1l-2-2 .5-.5 3 3h1l1 1h1l3.5 3.5 1-1v-2l-1-1v-18l.5-.5h.5v2.5l1 1v6l1 1v4l1 1v3l1 1v6l1 1v4l1 1v4l1 1v4l1 1v1l1 1v2l1 1v4l1 1v3l1 1v13l1 1v2l-1.5 1.5h-1l-6.5 6.5v2l-1 1v7l-1 1v4l-1 1v5l-1 1v3l-1 1v4l-1 1v1l-1 1v5l-1 1v3l-1 1v3l-1 1v3l-1 1v8l-1 1v3l-1 1v4l-1 1v4l-1 1v4l-1 1v9l1 1-.5.5-1.5-1.5v-7l-1-1v-9l-1-1v-17l1-1v-6l1-1v-7l-.5-.5-1.5 1.5v1l-1 1v1l-1 1v3l-1 1v2l-1 1v2l-1 1v1l-1 1v2l-1 1v1l-1 1v-3l1-1v-5l1-1v-6l1-1v-9l1-1v-2l-.5-.5h-1l-.5-.5v-1l-.5-.5h-4l-1 1h-3l-1.5-1.5-1.5 1.5h-1l-1 1h-1l-1 1h-1l-1 1h-1l-1.5 1.5v8l-1 1v5l-1 1v3l-1-1v-5l-1-1v-5l-1-1v-3l-1-1-1.5 1.5h-2l-1 1h-1l-1 1h-3l-1 1h-3l-1 1h-2l-1 1h-1l-1 1h-10l-1 1Z" style="stroke:none"/>
        <path d="M42 64.5v.5h-.5l-1-1 1.5-1.5v-2l1-1v-1l1-1v-1l1-1v-1l1-1v-2l1-1v-1l1-1v-2l1-1v-1l.5-.5.5.5v1l2 2v2l1 1v2l-10 10v1Zm17 76-1-1v-4l1-1v-5l1-1v-8l1.5-1.5h1l1-1h1l1-1h1l1-1h1l1.5-1.5 1 1-1 1v1l-1 1v2l-1 1v1l-1 1v1l-1 1v3l-1 1v1l-1 1v1l-1 1v1l-2 2v1l-1 1v1Zm19 12-1.5-1.5 1.5-1.5v-3l1-1v-1l1-1v-2l1-1v-1l1-1v-2l1-1v-2l1-1v-3l1-1v-1l1-1v-1l1.5-1.5.5.5v7l-1 1v6l-1 1v1l-1 1v1l-3 3v1l-1 1v1l-2 2v1Z" style="fill:#c384b7;stroke:none"/>
        <path d="m81 55.5 1-1v-1l1-1v-1l1-1v-1l1-1v-1l3-3v-1l1-1v-1l1-1v-1l1-1v-1l2-2v-1l1-1v2l-1 1v3l-1 1v1l-1 1v4l-1 1v2l-1 1v2l-1 1v2l-1 1V60h-1.5Zm3 54v2l1 1 9.5-9.5h1l5-5-3-3h-1l-2-2h-1l-1-1-2.5 2.5v1l-1 1v1l-1 1v2l-1 1v1l-1 1v3l-1 1v1Z" style="stroke:none"/>
        <path d="m85 112.5-1-1v-2l1-1v-1l1-1v-3l1-1v-1l1-1v-2l1-1v-1l1-1v-1l2.5-2.5 1 1h1l2 2h1l3 3-5 5h-1Zm2-93 .5-.5h2l1 1h2l1 1h2l1 1h2l1.5 1.5v2l1 1v2l-1 1-3.5-3.5h-1l-1-1h-1l-3-3-.5.5ZM89.5 176l-1 1-.5-.5v-2Z" style="fill:#c384b7;stroke:none"/>
        <path d="m89.5 175-.5-.5v-9l1-1v-4l1-1v-4l1-1v-4l1-1v-3l1-1v-8l1-1v-3l1-1v-3l1-1v-3l1-1v-5l1-1v-1l1-1v-4l1-1v-3l1-1v-5l1-1v-4l1-1v-7l1-1v-2l6.5-6.5h1l1.5-1.5v-2l-1-1v-13l-1-1v-3l-1-1v-4l-1-1v-2l-1-1v-1l-1-1v-4l-1-1v-4l-1-1v-4l-1-1v-6l-1-1v-3l-1-1v-4l-1-1v-6l-1-1V7h.5l1.5 1.5v1l1 1v1l2 2v1l1 1v1l2 2v1l1 1v1l1 1v2l2 2v1l1 1v1l1 1v2l1 1v2l1 1v1l1 1v1l1 1v1l1 1v2l1.5 1.5 1-1h1l1-1h1l3-3h1l3-3h1l2-2h1l2-2h1l2-2h1l1-1 .5.5v.5h-.5l-4.5 4.5v1l-4 4v1l-4 4v1l-4 4v1l-2 2v2l2 2v1l1.5 1.5-1 1 1 1 1-1h1l1-1h2l1-1h1l1-1h1l1-1h1l1-1h1l1-1h1l1-1h1l1-1h1l3-3h1l1-1h1l1-1h2l2-2h1l1-1h3l1-1h1l1-1h1l1-1h1l1-1h1l1.5-1.5 2 2-2 2-.5-.5-3 3h-1l-3 3h-1l-2 2h-1l-2 2h-1l-2 2h-1l-4 4h-1l-5 5h-1l-4 4h-1l-2 2h-1l-3 3h-1l-4 4h-1l-2 2h-1l-1.5 1.5 2.5 2.5h1l2 2h1l2 2h1l2 2h1l3 3h1.5v.5l1.5 1.5h1l1 1h1l1 1h1l1 1h1l1 1h1l2 2h1l1 1h1l1 1h1l1 1h2l1 1h1l1 1h1l1 1h1l1 1h2l1 1h1l2 2h1l1 1h1l1 1h2l1 1h2l4 4h1l3 3h1l.5.5v.5h-1.5l-1-1h-1l-1-1h-2l-1-1h-3l-1-1h-2l-1-1h-2l-1-1h-2l-1-1h-2l-1-1h-2l-1-1h-3l-1-1h-6l-1-1h-3l-1-1h-3l-1-1h-1l-1-1h-1l-1-1h-1l-1-1h-2l-1-1h-1l-1-1h-3l-1-1h-2l-1-1h-2l-1-1h-4l-.5.5v1l-1 1v2l-1 1v1l-1 1v2l-1 1v2l-1 1v1l-1 1v3l-1 1v1l-1 1v1l-2 2v3l-1 1v1l-1 1v1l-1 1v1l-1 1v2l-1 1v1l-1 1v2l-1 1v2l-1 1v2l-1 1v1l-1 1v1l-1 1v1l-1 1v1l-1 1v2l-1 1v1l-2 2v1l-1 1v1l-1 1v2l-2 2v2Z" style="fill:#c384b7;stroke:none"/>
        <path d="M113 123.5v-1l1-1v-1l1-1v-3l1-1v-1l1-1v-2l1-1v-2l1-1v-1l1-1v-2l1-1v-1l.5-.5h4l1 1h2l1 1h2l1 1h3l1 1h1l1 1h2l1 1h1l1 1h1l1 1h1l1 1h3l1 1h3l1 1h6l1 1h3l1 1h2l1 1h2l1 1h2l1 1h2l1 1h2l1 1h3l1 1h2l1 1h1l1 1h1.5v.5l-.5.5h-7l-1-1h-17l-1-1h-8l-1-1h-9l-1-1h-5l-1-1h-2L128 128.5v1l-2.5 2.5h-.5v-.5l1-1v-1l1-1v-1l1-1v-1l1-1v-1l1-1v-1l1-1v-2l1.5-1.5-1-1h-4l-1-1h-4l-1-1h-1l-2.5 2.5v1l-2 2v2l1 1v1l1 1v3l1 1v.5h-1.5l-1.5-1.5v-1Z" style="stroke:none"/>
        <path d="M116 121.5v-2l2-2v-1l2.5-2.5h.5v9.5l1 1v5l-1.5 1.5-1.5-1.5v-1l-1-1v-3l-1-1v-1Z" style="fill:#c384b7;stroke:none"/>
        <path d="m123 81.5 1.5-1.5h1l2-2h1l4-4h1l3-3h1l2-2h1l4-4h1l5-5h1l4-4h1l2-2h1l2-2h1l2-2h1l3-3h1l3-3 .5.5-4 4v1l-9 9v1l-3 3v1l-4 4v1l-1.5 1.5h-1l-.5.5v1l-2 2-.5-.5-3.5 3.5v3l.5.5h1l1 1h2l1 1h3l1 1h2l1 1h2l1 1h-8l-1 1h-11l-1.5 1.5v2l2 2V93h-1.5l-3-3h-1l-2-2h-1l-2-2h-1l-2-2h-1Zm.5 54.5h-.5v-.5l.5-.5h.5v.5Z" style="stroke:none"/>
        <path d="m124 138.5-1-1V136h.5l.5-.5V134h.5l.5-.5V132h.5l2.5-2.5v-1l10.5-10.5h2l1 1h5l1 1h-2l-5 5h-1l-5 5h-1l-3 3h-1Z" style="fill:#c384b7;stroke:none"/>
        <path d="M124.5 134h-.5v-.5l.5-.5h.5v.5Zm.5-77.5v-2l2-2v-1l4-4v-1l4-4v-1l4-4v-1l4.5-4.5h.5v.5l-1 1v1l-1 1v1l-1 1v1l-1 1v1l-1 1v1l-2 2v1l-1 1v1l-2 2v1l-1 1v1l-1 1v1l-1 1v1l-1 1v1l-1 1v1l-.5.5-1.5-1.5v-1Z" style="stroke:none"/>
        <path d="m144.5 80-.5-.5v-3l3.5-3.5 1 1h1l3 3h1l3 3h1l2 2h1l2 2-1 1h-2l-1-1h-2l-1-1h-2l-1-1h-3l-1-1h-2l-1-1Z" style="fill:#c384b7;stroke:none"/>
    </g>
</svg>
