<svg xmlns="http://www.w3.org/2000/svg" width="320" height="320" style="fill-opacity:1;color-rendering:auto;color-interpolation:auto;text-rendering:auto;stroke:#000;stroke-linecap:square;stroke-miterlimit:10;shape-rendering:auto;stroke-opacity:1;fill:#000;stroke-dasharray:none;font-weight:400;stroke-width:1;font-family:&quot;Dialog&quot;;font-style:normal;stroke-linejoin:miter;font-size:12px;stroke-dashoffset:0;image-rendering:auto">
    <g style="stroke-linecap:round;fill:#fff;stroke:#fff">
        <path stroke="none" d="M7 126.5V124h5v.5l.5.5h9l1 1h1l1 1-.5.5v1l-1 1v2l1.5 1.5 1.5-1.5 1.5 1.5.5-.5 2.5 2.5h2l1 1h2l1 1h2l1 1h3l1-1h7l2.5-2.5-.5-.5 1.5-1.5v-4l-1-1v-2l-1-1v-1l-2.5-2.5h-3l-1-1h-2l-2.5-2.5v-2l.5-.5h2l1 1h4l1 1h2l1 1h1l1 1h1l3.5 3.5v1l2 2v1l.5.5h2l1 1h4l1 1h6l1 1h2l1 1h2l1 1h2l7 7h2l1 1h4l1-1h2l1-1h1l1-1h5l1 1h2l1 1h1l2 2h1l2 2h1l3 3h1l2 2h1l2 2h1l1 1h16l1 1h2l1 1h2l2 2h1l1 1h1l1 1h1l1.5 1.5v2l1 1v6l-1 1v1l-2.5 2.5h-2l-1 1h-5l-.5.5v1l-1 1 4.5 4.5h1l.5.5v1l1 1v2l-2.5 2.5h-1l-4.5 4.5v1l-1 1v2l-1 1v4l-1 1v4l-1.5 1.5 4 4 1.5-1.5v-1l1-1v-1l2.5-2.5h1l1-1h1l1-1h3l1-1h1l.5-.5v-6l-.5-.5 2.5-2.5v-4l-1-1v-6l2.5-2.5h1l1-1h3l.5.5v4l-1 1v9l1 1v8l1 1v1l3 3v1l1 1v1l3 3v2l1 1v2l-1 1v3l1 1v1l3.5 3.5-.5.5 1 1v5l1 1v1l.5.5h1l1 1 .5-.5 1 1v4l-1 1v1l-1.5 1.5h-2l-1.5-1.5v-1l-1-1v-4l-1-1v-2l-2.5-2.5h-4l-2 2h-1l-1 1h-1l-2 2-1.5-1.5v-2l-1-1v-.5h1.5l2-2h1l1.5-1.5-.5-.5 1.5-1.5v-7l-1-1v-2l-1-1v-2l-1-1v-1l-3.5-3.5h-1l-1-1h-4l-1 1h-1l-1 1h-2l-1 1h-1l-1 1h-1l-1 1h-1l-2.5 2.5v1l-1 1v1l-1 1v1.5h-.5l-1-1h-3l-1 1h-2l-1 1h-2l-1.5 1.5v4l-.5.5h-2l-1 1h-1l-2 2 3 3h.5v1.5l-1 1v2l-1 1v1l-1 1v.5h-1.5l-1.5 1.5v3l.5.5-1.5 1.5v1l-1 1v2l-1 1v5l-1.5 1.5H118v-5.5l-1.5-1.5h-2l-3.5 3.5v2l-1 1v6l1 1v2l1 1v4l-2.5 2.5h-4l-1.5-1.5v-1l1-1v-1l1-1v-1l1-1v-6l-1.5-1.5h-2l-1.5 1.5v1l-1 1v2l-1 1v2l-2 2-1-1v-4l2-2v-3l-1-1v-1l-.5-.5h-3l-2 2h-1l-1 1h-1l-1.5 1.5v1l-1 1v1l-1 1v1l.5.5-1.5 1.5v1l-1 1v1l-1.5 1.5h-1l-1 1H77v-2.5l1-1v-2l1-1v-5l1-1v-1l1.5-1.5h1l4-4h1l1-1h1l1-1h2l3-3h1l1-1h2l1-1h1l1-1h1l1-1h1l.5-.5-1-1 3-3v-1l2-2v-1l3.5-3.5h2l4.5-4.5v-1l1-1v-1l1-1v-1l1-1v-1l6-6v-1l1-1V213h.5l1 1h1l1 1 1-1h1l1.5-1.5v-4l1-1v-5l-1-1v-1l-1-1V197h2.5l1.5-1.5v-1l1-1v-1l1-1v-1l1-1v-5l-1-1v-1l1-1v-5l-1-1v-2l-1-1v-1l-1-1v-1l-2.5-2.5h-1l-1.5-1.5v-1l-2-2v-1l-3.5-3.5h-1l-1-1h-1l-1-1h-2l-1-1h-1l-1-1h-6l-1 1h-1l-6 6h-1l-.5.5v2.5h-.5l-1-1h-2l-1-1h-3l-1.5 1.5-.5-.5h-2l-1-1-1 1h-2l-4 4h-1l-1 1h-1l-1 1h-1l-1.5 1.5-1-1v-1l-1-1 2.5-2.5h1l1-1h1l2.5-2.5v-.5h5.5l1-1h2l1-1h1l1-1 1.5 1.5 2-2 1 1 1.5-1.5h4l.5-.5v-1l1-1v-1l1.5-1.5h1l2.5-2.5v-2l-2.5-2.5h-1l-1-1h-3l-1 1h-2l-1 1h-11l-2-2h-1l-1-1h-2l-1-1h-2l-1-1H76v-2.5l-.5-.5h-1l-1-1h-1l-3-3h-6l-1 1h-1l-1 1h-1l-1 1h-1l-3 3h-1l-1 1h-5l-1 1h-2l-1 1h-1l-1 1h-2l-1 1h-4l-1-1h-1l-1.5-1.5v-1l-1.5-1.5h-1l-9-9h-2l-1-1h-2l-1-1h-2l-1-1h-2Z" style="stroke:none"/>
    </g>
    <g stroke="none" style="stroke-linecap:round;fill:#a1b1d0;stroke:#a1b1d0">
        <path d="M23 131.5v-2l1-1v-1l.5-.5 1.5 1.5v1l1 1v1l1 1-.5.5-1.5-1.5-1.5 1.5ZM33 94v-.5l-.5-.5 1.5-1.5v-1l.5-.5h3l.5.5v1l1 1v3l1 1v2l1 1v.5h-1.5l-1 1H36v-.5l2.5-2.5-2.5-2.5v-1l-.5-.5Z" style="stroke:none"/>
        <path d="M33 94.5V94h2.5l.5.5v1l2.5 2.5-2 2-1.5-1.5v-1l-1-1v-1Zm3 7v-.5h2.5l1-1H41v.5l2 2v2l1 1-1 1v1l-1 1v1l-1.5 1.5-1.5-1.5v-1l-1-1v-1l-1-1v-3Z" style="fill:#fff;stroke:none"/>
        <path d="M39 210.5v-6l1-1v-3l1-1v-2l1-1v-1l1-1v-1l6-6v-1l3-3v-1l1.5-1.5h1l1-1h1l1-1h1l1-1h2l1-1h2l1-1h3l1-1h2l1.5-1.5.5.5.5-.5v-.5h2.5l1-1 2 2h1l1 1h1l1 1h1l1 1h2l1 1h5l1-1h2l1-1h1l2.5-2.5v-4l-3-3v-1l-2-2 1.5-1.5h3l1 1h2l1 1h.5v1.5l1.5 1.5h2l1 1h19l1 1h1l1 1h2l1 1h1l1 1h2l1.5-1.5 1 1v1l1 1v2l1 1v5l-1 1v.5h-1.5l-1.5-1.5-1.5 1.5h-1l-3.5 3.5v1l-1 1v2l1 1v2l1 1v1l1.5 1.5h.5v2.5l1 1v1l1 1v5l-1 1v4l-1.5 1.5h-1l-1 1-1-1h-1l-1-1 .5-.5v-5l-.5-.5h-1l-1-1h-6l4-4-.5-.5 3-3v-3l-1-1v-2l-1-1v-3l1-1v-2l1-1v-4l-1.5-1.5h-1l-1-1h-2l-1-1h-3l-1-1h-6l-1 1h-1l-7 7h-1l-1 1h-1l-1 1h-1l-1 1h-2l-1 1h-1l-2.5 2.5v7l1 1v11l-3.5 3.5h-2l-1 1h-1l-1 1h-1l-.5.5v1l-1 1v2l3.5 3.5-2 2h-4l-1 1h-1l-1.5 1.5-2.5-2.5.5-.5v-1l1-1-.5-.5 3.5-3.5v-1l1-1V214h1.5l1-1h1l1-1h4l1.5-1.5v-3l-1-1v-1l1-1v-2l-1-1v-3l-1-1v-6l1-1v-2l-1-1v-1l-3.5-3.5h-2l-1-1h-2l-1-1h-3l-1 1h-3l-1 1h-2l-1 1h-1l-1.5 1.5-.5-.5h-6l-2.5 2.5v1l-7 7v2l-1 1v9l-1 1v1l-2.5 2.5h-2Z" style="stroke:none"/>
        <path d="M40 113.5v-2l2-2v-1l1-1v-1l.5-.5 1.5 1.5v2l1 1v1l1 1v1l.5.5h9l2.5 2.5v3l1 1v1l2.5 2.5h1l1 1h2l1 1h5l1-1h4l1 1h2l2 2h2l1 1H89v.5l.5.5h3l1 1h1l1 1h1l1 1h2l1 1h5l1-1h3l1 1h10l1 1h4l1.5 1.5v1l1 1-.5.5h-1l-1.5 1.5v2l4.5 4.5h1l1 1h1l1 1h3l1-1h10l1.5-1.5v-3l-4-4v-1l-1-1v-.5h.5l1 1h1l3.5 3.5v2l1 1v1l1 1v1l2.5 2.5h2l1-1h1l1.5-1.5v-3l-1-1v-1l-.5-.5h-1l-3.5-3.5v-1l-3.5-3.5h-1l-1.5-1.5v-1l-1-1v-8l-1-1v-3l-1-1v-2l-3-3-3 3v2l-1-1v-1l-1-1v-1l-2-2v-1l-1.5-1.5h-1l-1-1H127v-.5l1-1V103h3.5l.5-.5 2.5 2.5h2l1.5-1.5v-5l-.5-.5h-1l-1-1H134v-1.5l-1-1v-1l-1-1v-1l-1-1V90h1.5l3.5-3.5 2 2v1l1 1v1l1 1v1l1 1v2l1 1v2l-1 1v5l1 1v2l6 6v2l1 1v3l1 1v7l1 1v2l7.5 7.5h2l1.5-1.5v-4l-1-1v-2l-1-1v-4l-1-1v-11l1-1v-2l1-1v-1l2.5-2.5h1l1-1h1l1.5-1.5v-1l1-1v-6l-1-1v-3l-1-1v-5l1-1v-5l1-1v-2l1-1v-1l1-1v-1l1-1v-2l1-1v-4l-1-1v-1l-4-4v-3l1-1v-1l1-1v-6l-3-3v-1l-2-2v-1l-11-11v-1l-1-1 1.5-1.5h3l1 1h1l2.5 2.5v1l7 7v1l1 1v1l2.5 2.5h1l2.5 2.5v1l1 1v4l-1 1v4l1 1v2l1 1v1l2.5 2.5h6l1-1h1.5v3.5l-10 10v1l-1 1v1l-1 1v6l1 1V88h-.5l-.5.5v2l2 2 2-2 2 2v1l1 1v3l-1 1v2l1 1v2l2.5 2.5h4l2-2h2l1-1h1l1-1h1l.5-.5v-1l1-1v-7l1-1v-1l1-1v-1l2-2v-1L215.5 74h1l1-1h1.5v4.5l-2 2V81h-4.5l-3.5 3.5v1l-1.5 1.5h-1l-2.5 2.5v3l1.5 1.5h3.5v7.5l1 1v1l1.5 1.5-1.5 1.5-1.5-1.5h-2l-2-2h-2l-1.5 1.5v1l-1 1v1l-3.5 3.5h-1l-3 3h-2l-1 1h-5l-2.5 2.5v3l-1 1v1l-1 1v1l-1 1v1l-1 1v1l-1 1v1l-1 1v1l-1 1v5l-1 1v5l-1 1v1l-1.5 1.5h-1l-1 1h-2l-1 1h-2l-1 1h-1l-.5.5v2l-1 1 1.5 1.5h6l1.5 1.5v1l1 1v1l7.5 7.5h4l1 1h2l3 3h1l2 2h1l3 3h1l1 1h1l1 1h3l3.5-3.5 1.5 1.5h2.5v.5l-1.5 1.5 1.5 1.5v2l.5.5h5l1-1h1l1-1h2l1-1h6l1 1h4l1.5-1.5v-2l-1.5-1.5h-3l-1-1h-2l-1-1h-1l-2.5-2.5.5-.5h1l1-1h11l1.5-1.5 1 1 1-1v-1l2.5-2.5h1l1-1h.5v2.5l1.5 1.5h1l1.5 1.5v3l-.5.5h-1l-1 1h-1l-1 1h-1l-1 1h-1l-.5.5v5l5.5 5.5h1l1 1h2l1 1h3l1 1h4l1 1h7l.5-.5 1.5 1.5h3l.5-.5v-1l.5-.5h5l-2 2h-1l-1 1h-1l-1 1h-2l-1 1h-2l-1 1h-15l-1-1h-4l-1-1h-2l-1-1h-1l-7-7h-1l-1-1h-1l-1-1h-8l-2.5 2.5v3l1 1v3l1 1v2l5 5v1l2.5 2.5h1l1 1h7l1 1h1l.5.5v1l1 1v1l1 1v1l6.5 6.5h1l4 4h1l1 1h1l1 1h3l1 1h2l1 1h1l1 1 .5-.5 1.5 1.5h1l1 1-.5.5v1l-1.5 1.5h-4l-1-1h-2l-1-1h-2l-1-1h-3l-1-1h-1l-1-1h-2l-2-2h-1l-1-1h-1l-1-1h-1l-1-1h-5l-1 1h-3l-1-1h-2l-1-1h-2l-1-1h-1l-5-5h-4l-1.5 1.5v3l4.5 4.5h1l2 2h1l.5.5v3l-1.5 1.5h-5l-1-1h-1l-6.5-6.5v-2l-1-1v-2l-1-1v-2l-1.5-1.5h-1l-1-1h-1l-1-1h-1l-1-1h-1l-5.5-5.5v-1l-1-1v-1l-1-1v-1l-1-1v-1l-3.5-3.5h-1l-1-1h-2l-1-1h-1l-1-1h-5l-.5.5v5l4 4v1l1 1v2l1 1v1l1 1v2l-3-3v-1l-1-1v-1l-3-3v-1l-1-1v-8l-1-1v-9l1-1v-4l-.5-.5h-3l-1 1h-1l-2.5 2.5v6l1 1v4l-2.5 2.5-.5-.5v-1l-2.5-2.5h-2l-1 1h-2l-2.5 2.5v1l-1 1v2l-1 1v4l1.5 1.5h2l-2.5 2.5v1l-1 1v1l-1.5 1.5-4-4 1.5-1.5v-4l1-1v-4l1-1v-2l1-1v-1l4.5-4.5h1l2.5-2.5v-2l-1-1v-1l-.5-.5h-1l-4.5-4.5 1-1v-1l.5-.5h5l1-1h2l2.5-2.5v-1l1-1v-6l-1-1v-2l-1.5-1.5h-1l-1-1h-1l-1-1h-1l-2-2h-2l-1-1h-2l-1-1h-16l-1-1h-1l-2-2h-1l-2-2h-1l-3-3h-1l-2-2h-1l-2-2h-1l-1-1h-2l-1-1h-5l-1 1h-1l-1 1h-2l-1 1h-4l-1-1h-2l-7-7h-2l-1-1h-2l-1-1h-2l-1-1h-6l-1-1h-4l-1-1h-2l-.5-.5v-1l-2-2v-1l-3.5-3.5h-1l-1-1h-1l-1-1h-2l-1-1h-4l-1-1h-2ZM50.5 137h-1l1.5-1.5.5.5Z" style="stroke:none"/>
        <path d="m64 150.5 3.5-3.5h1l3-3h1l1-1h1l1.5-1.5v-.5h4.5l1 1h2l1 1h2l1 1h1l2 2h1l1 1-1.5 1.5v4l1 1v1l1.5 1.5h1l1 1h2l1.5 1.5-1 1-1.5-1.5-1 1h-1l-1 1h-2l-1 1H85v-.5l1-1v-2l1-1v-5l-1-1v-1l-1.5-1.5h-1l-1-1h-7l-1 1h-1l-1 1h-1l-1 1h-1l-3 3Z" style="stroke:none"/>
        <path d="M71 289v-1.5l3-3v-1l3-3v-2l.5-.5H84v3.5l1 1v1l2 2v2l-2 2-3.5-3.5h-2l-2.5 2.5-.5-.5-1.5 1.5-1.5-1.5-1 1Z" style="fill:#fff;stroke:none"/>
        <path d="m71.5 293-.5-.5V289h1.5l1-1 1.5 1.5 1.5-1.5.5.5-1 1v1l-2.5 2.5Zm5.5-18.5v-.5h3.5l1-1h1l.5.5v3l1 1v.5h-6v-2.5Z" style="stroke:none"/>
        <path d="M78 214v-2.5l1.5-1.5h3l1-1h1l2.5-2.5 1 1v3l-1.5 1.5h-4l-1 1h-1l-1 1ZM92 72.5l2.5-2.5 1 1h1l3.5 3.5-3 3Z" style="fill:#fff;stroke:none"/>
        <path d="m97 77.5 3-3 .5.5h1l4.5 4.5v1l2 2v1l1 1v2l1 1v2l1 1v6l1 1v1l2.5 2.5h1l1 1h2l1 1h2l1 1h.5v5h-.5l-1-1h-2l-1-1h-1l-1-1h-2l-1-1h-2l-1-1h-1l-2.5-2.5v-8l-1-1v-4l-1-1v-1l-1-1v-1Z" style="stroke:none"/>
        <path d="M97 213.5v-2l.5-.5h2l1-1h2.5v.5l-1.5 1.5 1.5 1.5-1 1v.5h-3.5Z" style="fill:#fff;stroke:none"/>
        <path d="m101.5 212 1.5-1.5v-.5h6.5l1 1h1l.5.5v1l1 1-.5.5h-9Zm1.5 63.5V274h.5l1-1 1 1h4l2.5-2.5v-4l-1-1v-2l-1-1v-6l1-1v-2l3.5-3.5h2l1.5 1.5v6l-2.5 2.5 1.5 1.5v1l-1 1v1l-1 1v4l-3 3v1.5h-.5l-1 1h-2l-2 2h-1l-1 1-.5-.5v-2Zm1.5-118.5 3-3h.5v.5l-1 1v1l-.5.5Z" style="stroke:none"/>
        <path d="M105 281.5v-2l-.5-.5 1-1h1l2-2h2l1-1h.5v4.5l1 1v6.5h-1.5l-2 2h-1l-1 1-.5-.5v-4l-1-1v-2Z" style="fill:#fff;stroke:none"/>
        <path d="M108 301.5v-11l-.5-.5 1-1h1l2-2h1.5v1.5l1 1v2l1 1v2l1 1v1l1 1v2l1 1v2l-1.5 1.5h-3l-1-1h-3Z" style="stroke:none"/>
        <path d="M110 244.5v2l.5.5h2l1.5-1.5v-1l1-1v-3l-.5-.5h-2l-.5.5v1l-1 1v1Zm.5-33.5-.5-.5 1.5-1.5h1l1-1h1l2.5-2.5v-1l2.5-2.5h2l1-1h3l1 1-4 4h-1l-.5.5.5.5-5 5h-1l-1 1h-1l-.5.5-1-1v-1l-.5-.5Zm4.5 59v-3.5l1-1v-1l1-1 1 1v4l-1.5 1.5Z" style="fill:#fff;stroke:none"/>
        <path d="m121.5 207-.5-.5.5-.5h.5v.5Z" style="stroke:none"/>
        <path d="M123 109v-5h2.5l1-1h1.5v3.5l-1 1v.5h-.5l-1 1Z" style="fill:#fff;stroke:none"/>
        <path d="M125 243.5v1l-.5.5-.5-.5v-3l1.5-1.5h1.5v.5l-1 1v1Z" style="stroke:none"/>
        <path d="m125.5 135 1-1h2l1-1h2l1-1h2l1-1h1l2.5-2.5v-1l1-1v-6l-1-1v-4l3-3 3 3v2l1 1v3l1 1v8l1 1v1l1.5 1.5h1l3.5 3.5v1l3.5 3.5h1l.5.5v1l1 1v3l-1.5 1.5h-1l-1 1h-2l-2.5-2.5v-1l-1-1v-1l-1-1v-2l-3.5-3.5h-1l-1-1h-.5v-1.5l-1-1v-1l-1.5-1.5-1 1h-1l-1 1h-3l-1.5-1.5-3 3v1l-1.5 1.5h-1l-.5.5-1-1v-1Z" style="fill:#fff;stroke:none"/>
        <path d="m126.5 229 2-2h1l1-1h1.5v.5l.5.5-1.5 1.5v2l-1 1v.5h-.5Z" style="stroke:none"/>
        <path d="M130 88.5v-2l2-2 1.5 1.5h1l1 1-3 3H131v-.5Z" style="fill:#fff;stroke:none"/>
        <path d="M130.5 138h-1l1.5-1.5v-1l3-3 1.5 1.5h3l1-1h1l1-1 1.5 1.5v1l1 1v.5h-.5l-1-1h-1l-1.5-1.5-1.5 1.5h-1l-1 1h-2l-1 1h-2Z" style="stroke:none"/>
        <path d="m132 102.5.5-.5h1l.5-.5V97h1.5l1 1h1l.5.5v5l-1.5 1.5h-2Z" style="fill:#fff;stroke:none"/>
        <path d="M133 225v-3.5l1.5-1.5h2l1-1h2l1-1h3l1 1-3 3h-1l-1 1h-1l-1 1h-2l-1 1Zm25 21v-1.5l1-1v-1l1-1v-1l2-2v-1l1-1v-1l1-1v-1l2-2 1 1v2l1.5 1.5-1.5 1.5v1l-1 1v1l-1 1v2l-1 1v1.5Z" style="stroke:none"/>
        <path d="M158 248.5V246h6v.5l1 1v2l.5.5h.5v1.5l.5.5h.5v.5l.5.5-1.5 1.5v1l-1.5 1.5-.5-.5v-1l-4-4v-1Zm3-94 1-1v-2l.5-.5h1l1-1h2l1-1h2l1-1h1l1.5-1.5v-1l1-1v-5l1-1v-5l1-1v-1l1-1v-1l1-1v-1l1-1v-1l1-1v-1l1-1v-1l1-1v-3l2.5-2.5h5l1-1h2l3-3h1l3.5-3.5v-1l1-1v-1l1.5-1.5h2l2 2h2l1.5 1.5 1.5-1.5 1 1h1l1 1h1l1 1h1.5v.5l4.5 4.5h2l1 1 .5-.5v-.5h1.5l4-4h5l1 1h5l1-1h3l1.5 1.5v2l-3.5 3.5h-4l-2-2h-4l-4 4h-1l-1.5 1.5v1l-1 1v.5h-.5l-1.5-1.5-1.5 1.5h-2l-1.5 1.5v4.5h-.5l-3.5 3.5v.5h-1.5l-2.5 2.5-.5-.5-4.5 4.5v.5h-1.5l-1.5 1.5v1l-1 1v2l-1.5 1.5h-1l-.5.5 1 1-1.5 1.5 4 4h1l.5-.5 1.5 1.5h2l1 1h7l1 1h1l1 1h5l1-1 1 1h4l3-3h1l2 2h1l1 1h2l1-1h1l1-1h1l2-2h3l1-1h2l3-3h2l1-1h4l1 1h1l2 2-2 2h-3l-1 1h-2l-1.5 1.5v.5h-1.5l-1-1h-3l-1 1h-1l-.5.5v1l-1.5 1.5 2 2h2l1 1h3l1.5-1.5v-1l1-1 .5.5h2l.5-.5v-.5h1.5l1.5 1.5v1.5h-.5l-1 1h-2l-1 1h-2l-1 1h-7l-1-1h-4l-.5.5v.5h-.5l-1 1h-1l-2.5 2.5v1l-1 1-1-1 1-1v-5l-1-1v-1l-.5-.5h-12l-1-1h-18l-1 1h-1l-5.5 5.5-.5-.5h-2l-1-1h-1l-1-1 1-1h1l3.5-3.5v-5l-7.5-7.5h-2l-1-1h-2l-1 1h-2l-1.5 1.5v1l-1 1v2.5h-.5l-1.5 1.5v3l1 1v1l1.5 1.5h1l3 3h7.5v.5l1 1v4l2.5 2.5h1l1 1h1l2 2h1l1 1h1l.5-.5 1.5 1.5-3 3h-3l-1-1h-1l-1-1h-1l-3-3h-1l-2-2h-1l-3-3h-2l-1-1h-4l-7.5-7.5v-1l-1-1v-1l-1.5-1.5h-6Z" style="fill:#fff;stroke:none"/>
        <path d="M166 250h-.5l-.5-.5v-1l1 1Zm-1 9.5v-2l-.5-.5 1.5-1.5v-1l1.5-1.5.5.5v1l1 1v1l1 1v2l1 1v10l-1 1v.5h-1.5l-1-1H166v-10.5Z" style="stroke:none"/>
        <path d="m165 279.5 1-1V271h1.5l1 1h1.5v1.5l-1 1v3l1 1-1 1v2l-.5.5h-2l-.5-.5v-1Z" style="fill:#fff;stroke:none"/>
        <path d="M167 252h-.5l-.5-.5v-.5h.5l.5.5Zm2-135.5v4l1.5 1.5h4l1-1h1l3.5-3.5v-1l1-1v-2l1-1v-2l-1-1 3-3v-2l-.5-.5h-3l-1.5 1.5v1.5h-2.5l-1.5 1.5v1l-5 5v1Z" style="stroke:none"/>
        <path d="M177 90.5v-2l.5-.5h1l2.5 2.5-2 2Z" style="fill:#fff;stroke:none"/>
        <path d="M178 156.5v-3l1.5-1.5h.5v3.5l6.5 6.5h2l1 1h-5l-3-3h-1l-1.5-1.5v-1Z" style="stroke:none"/>
        <path d="M179.5 107h-.5v-1.5l1.5-1.5h3l.5.5v2l-2.5 2.5Z" style="fill:#fff;stroke:none"/>
        <path d="M180 175.5v4l1 1v1l3.5 3.5h1l1 1h1l1 1h1l3 3h3l1-1h1l.5-.5v-2l1-1v-2l-3.5-3.5h-1l-6-6h-1l-1-1h-1l-1.5-1.5-1.5 1.5h-1l-.5.5v1Zm1 39-1-1v-2l1 1Zm0 7-1-1v-1l1 1Z" style="stroke:none"/>
        <path d="m181.5 74-.5-.5 8-8v-4l3-3v-1l1-1v-1l2-2v-2l1-1v-6l1-1V42h3.5l1-1h.5v3.5l.5.5-2.5 2.5v1l-1 1 1 1v4l-1 1v1l-3 3v1l-1 1v1l-3 3v1l-4.5 4.5h-1l-1 1h-1l-1 1h-1Zm.5 61.5v5l.5.5h4l1-1h3l1 1h1l1 1h1l2.5 2.5 1.5-1.5h1l.5-.5v-1l1-1v-1l1-1v-1l6.5-6.5h1l10.5-10.5v-3l-6.5-6.5h-1l-1-1h-4l-6 6h-1l-2 2h-2l-1 1h-3l-1 1h-2l-2.5 2.5v1l-1 1v1l-1 1v2l-1 1v2l-1 1v2Z" style="fill:#fff;stroke:none"/>
        <path d="m183 137.5 2.5 2.5h2l-1 1h-4l-.5-.5v-5l1-1Zm2 90-1-1 .5-.5.5.5Z" style="stroke:none"/>
        <path d="M185 232.5v-5l-1-1 .5-.5 3.5 3.5v2l1 1v3l-.5.5-1-1h-1l-.5-.5v-1Zm8-68-1-1v-.5h.5l.5.5Zm0-130v-5l2-2v-1l1-1 .5.5h2l1 1h.5v.5l-1.5 1.5 1.5 1.5v2l2 2v1l1 1v4l-.5.5h-1l-1 1H197v-2.5l-3-3v-1Z" style="stroke:none"/>
        <path d="M193 168.5v-4l-1-1v-.5h.5l1 1h1l1 1h2l1 1-.5.5v4l2.5 2.5h1l1 1h1l.5.5-.5.5h-1l-1-1h-1l-2-2h-1l-1-1h-1Z" style="stroke:none"/>
        <path d="m196.5 26-.5-.5v-2l1-1v-4l1-1V16h1.5l1.5 1.5v4l-1 1V27h-.5l-1-1Z" style="fill:#fff;stroke:none"/>
        <path d="M199 193.5v6l9.5 9.5h1l1 1h8l1 1h2l1.5-1.5v-3l-1.5-1.5H220v-1.5l-3-3v-1l-1-1v-4l-1-1v-2l-3.5-3.5h-1l-1-1h-3l-1 1h-2l-2.5 2.5v1Zm0-144 1-1v-1l2.5-2.5.5.5v2l-1 1v2l-1 1v1l-1 1v-3Zm1 97 .5-.5h1l1.5-1.5v-2l1-1v-1l1.5-1.5h.5v1.5l-1 1v2l-1 1v2l-1.5 1.5 1.5 1.5v2l1 1-.5.5h-1l-4-4 1.5-1.5Z" style="stroke:none"/>
        <path d="M204 92.5v-3l2.5-2.5h1l1.5-1.5v-1l3.5-3.5h4.5v1.5l-1 1v2l-2.5 2.5h-1l-2.5 2.5v1l-1 1V94h-3.5Zm4.5 86.5 1.5-1.5v-.5h4.5l1-1h1l4-4h1l.5-.5 2.5 2.5h1l1 1h2l1 1h3l1.5 1.5v2l-1.5 1.5h-4l-1-1h-6l-1 1h-2l-1 1h-1l-1 1h-5l-.5-.5v-2Z" style="fill:#fff;stroke:none"/>
        <path d="m217.5 156-1-1h12l1-1h4l-3 3h-4l-1-1-1 1h-5l-1-1Z" style="stroke:none"/>
        <path d="m216.5 210 3.5-3.5V205h1.5l1.5 1.5v3l-1.5 1.5h-2l-1-1Zm3-132-.5-.5V72h2.5l1-1h5l1-1h3l1-1h3l.5-.5 2.5 2.5h8l1 1h4l1.5 1.5v2l-.5.5h-1l-1 1h-3l-1-1h-2l-1-1h-2l-1-1h-4l-1 1h-2l-1 1h-1l-1 1h-1l-1 1Z" style="fill:#fff;stroke:none"/>
        <path d="M220 127v-3.5l1.5-1.5h2l1.5-1.5 1.5 1.5h.5v.5l-1 1v1l-.5.5h-1l-1 1h-1l-1 1Zm5.5-13-1-1h1.5v.5Zm.5 98.5v3l2.5 2.5h1l1 1h5l1.5-1.5v-3l-1-1v-1l-.5-.5h-1l-1-1h-6Zm10-144 .5-.5h5l1 1h1l2 2h-7Zm11.5 90.5 1.5-1.5v-1l.5-.5h1l1-1h3l1 1h1.5v1.5l1 1-1 1v1l-1.5 1.5h-3l-1-1h-2Z" style="stroke:none"/>
        <path d="m267 190.5 1.5-1.5h1l1-1h2l1-1h2l6.5-6.5v-1l1-1v-2l1-1v-6l-1-1v-1l-2.5-2.5h-1l-1-1h-2l-.5-.5 1-1v-1l1.5-1.5h5l2.5 2.5v4l1 1v1l3.5 3.5h2l1 1h6.5v1.5l-1.5 1.5h-3l-1 1h-2l-1 1h-1l-1 1h-1l-2.5 2.5v3.5h-.5l-4 4h-2l-1.5 1.5-.5-.5h-5l-.5.5v1l-.5.5h-3Z" style="fill:#fff;stroke:none"/>
        <path d="m275 161.5 1.5-1.5h2l-1.5 1.5v1l-.5.5Zm11 22v-2l2.5-2.5h.5v.5l-1 1v1Z" style="stroke:none"/>
    </g>
</svg>
