<svg xmlns="http://www.w3.org/2000/svg" width="48" height="48" style="fill-opacity:1;color-rendering:auto;color-interpolation:auto;text-rendering:auto;stroke:#000;stroke-linecap:square;stroke-miterlimit:10;shape-rendering:auto;stroke-opacity:1;fill:#000;stroke-dasharray:none;font-weight:400;stroke-width:1;font-family:&quot;Dialog&quot;;font-style:normal;stroke-linejoin:miter;font-size:12px;stroke-dashoffset:0;image-rendering:auto">
    <g style="stroke-linecap:round;fill:#6d3c2d;stroke:#6d3c2d">
        <path stroke="none" d="M2 30.5v-9l1-1v-1l1-1v-1l1-1v-1l3-3v-1L9.5 10l.5.5v3l1 1v2l-1 1v1l-1 1v5L7.5 26l3 3h2l1-1h4l2.5 2.5v3l.5.5h1l1 1h1l1 1h5l1.5 1.5 2.5-2.5h2l2.5 2.5v2l-2 2v1L34.5 44h-1l-1 1h-5l-1 1h-2l-1 1h-5l-3-3h-4L5 37.5v-2L3.5 34l.5-.5-1-1v-1Z" style="stroke:none"/>
    </g>
    <g stroke="none" style="stroke-linecap:round;fill:#925e46;stroke:#925e46">
        <path d="M7.5 26 9 24.5v-5l1-1v-1l1-1v-2l-1-1v-3l1-1v-1l.5-.5L13 9.5v1l1 1v1l.5.5h1l1.5 1.5v2l3.5 3.5h3l1-1h1l2-2h2l1 1h1l2 2h1l1.5 1.5v4l1 1v3l3 3v5l-2 2v-2L35.5 35h-2L31 37.5 29.5 36h-5l-1-1h-1l-1-1h-1l-.5-.5v-3L17.5 28h-4l-1 1h-2Z" style="stroke:none"/>
        <path d="M11.5 8 14 5.5V5h3.5l1-1h2l1-1h3l3 3h1L31 8.5 34.5 5h3l3 3h1L43 9.5v1l1 1v2l-1 1v3l3 3v8l-1 1v1l-1 1v2L41.5 36H40v-3.5l-3-3v-3l-1-1v-4L34.5 20h-1l-2-2h-1l-1-1h-2l-2 2h-1l-1 1h-3L17 16.5v-2L15.5 13h-1l-.5-.5v-1l-1-1v-1Z" style="fill:#ba914d;stroke:none"/>
        <path d="m23.5 28 2.5 2.5v1l1.5 1.5h3l2.5-2.5v-4L30.5 24h-4L25 25.5v1Z" style="stroke:none"/>
        <path d="m23.5 28 1.5-1.5v-1l1.5-1.5h4l2.5 2.5v4L30.5 33h-3L26 31.5v-1Z" style="fill:#6d3c2d;stroke:none"/>
    </g>
</svg>
