<svg xmlns="http://www.w3.org/2000/svg" width="48" height="48" style="fill-opacity:1;color-rendering:auto;color-interpolation:auto;text-rendering:auto;stroke:#000;stroke-linecap:square;stroke-miterlimit:10;shape-rendering:auto;stroke-opacity:1;fill:#000;stroke-dasharray:none;font-weight:400;stroke-width:1;font-family:&quot;Dialog&quot;;font-style:normal;stroke-linejoin:miter;font-size:12px;stroke-dashoffset:0;image-rendering:auto">
    <g style="stroke-linecap:round;fill:#6d3c2d;stroke:#6d3c2d">
        <path stroke="none" d="M2 30.5v-8l1-1v-1l1-1V18h.5L6 16.5v-1l1-1v-1l3.5-3.5 1.5 1.5v3l4.5 4.5-2 2h-1l-1 1h-1L9 24.5v3l1 1v1l1.5 1.5h1l1.5 1.5v1l3.5 3.5h3l2-2h1l1.5-1.5 1.5 1.5h1l1 1h2l1 1h1l1 1h1l1 1h1l1 1-1.5 1.5v1l-.5.5h-1l-.5.5v1L32.5 46h-4l-1 1h-10l-5-5h-2l-2 2h-2L3 40.5v-3l1-1v-2l-1-1v-2Z" style="stroke:none"/>
    </g>
    <g stroke="none" style="stroke-linecap:round;fill:#925e46;stroke:#925e46">
        <path d="M9 27.5v-3l2.5-2.5h1l1-1h1l2-2-4.5-4.5v-3L10.5 10l2-2 3.5 3.5v1l1.5 1.5h1l1 1h2l1-1h2l1-1h3l5 5-2.5 2.5v1l-1 1v3l1 1v3l1 1v1l2.5 2.5h3l1 1h3l.5.5-.5.5h-1l-.5.5v1L37.5 40l-1-1h-1l-1-1h-1l-1-1h-1l-1-1h-2l-1-1h-1L25 33.5 23.5 35h-1l-2 2h-3L14 33.5v-1L12.5 31h-1L10 29.5v-1Z" style="stroke:none"/>
        <path d="m12 7.5.5-.5h1l2-2h2l1-1h1l2-2h5l1 1h1l2 2h1l1 1H35v.5L36.5 8h2l3 3h.5v1.5l1 1v3l-2 2v4l1 1v1l3 3v3l-1 1v2l-2 2-.5-.5h-3l-1-1h-3L32 31.5v-1l-1-1v-3l-1-1v-3l1-1v-1l2.5-2.5-5-5h-3l-1 1h-2l-1 1h-2l-1-1h-1L16 12.5v-1Z" style="fill:#ba914d;stroke:none"/>
        <path d="m16.5 26 1.5 1.5v1l1.5 1.5h3l1-1h1l2.5-2.5v-4l-4-4-4 4v1Z" style="stroke:none"/>
        <path d="m16.5 26 2.5-2.5v-1l4-4 4 4v4L24.5 29h-1l-1 1h-3L18 28.5v-1Z" style="fill:#ba914d;stroke:none"/>
    </g>
</svg>
