<svg xmlns="http://www.w3.org/2000/svg" width="64" height="64" style="fill-opacity:1;color-rendering:auto;color-interpolation:auto;text-rendering:auto;stroke:#000;stroke-linecap:square;stroke-miterlimit:10;shape-rendering:auto;stroke-opacity:1;fill:#000;stroke-dasharray:none;font-weight:400;stroke-width:1;font-family:&quot;Dialog&quot;;font-style:normal;stroke-linejoin:miter;font-size:12px;stroke-dashoffset:0;image-rendering:auto">
    <g style="stroke-linecap:round;fill:#6e7080;stroke:#6e7080">
        <path stroke="none" d="M.5 7V.5H7l1 1L1.5 8Z" style="stroke:none"/>
    </g>
    <g stroke="none" style="stroke-linecap:round;fill:#4a4b53;stroke:#4a4b53">
        <path d="m1.5 8-1 1V7Z" style="stroke:none"/>
        <path d="M.5 19V9l1-1 5 5Z" style="fill:#476059;stroke:none"/>
        <path d="M.5 25v-6l5-5 .5.5v5ZM6 44.5v5l-.5.5-5-5v-6Z" style="stroke:none"/>
        <path d="M19 63.5H9L.5 55V45Z" style="fill:#476059;stroke:none"/>
        <path d="M9 63.5H.5V55Z" style="stroke:none"/>
        <path d="M1.5 8 8 1.5l5 5L6.5 13Z" style="fill:#468464;stroke:none"/>
        <path d="m8 1.5-1-1h2Z" style="fill:#989aa4;stroke:none"/>
        <path d="m8 1.5 1-1h10l-6 6Z" style="fill:#77bd7a;stroke:none"/>
        <path d="m14.5 6-.5-.5 5-5h6L19.5 6Z" style="fill:#989aa4;stroke:none"/>
        <path d="m14 58.5.5-.5h5l5.5 5.5h-6Z" style="stroke:none"/>
        <path d="M39 .5h6l5 5-.5.5h-5Z" style="fill:#989aa4;stroke:none"/>
        <path d="M45 63.5h-6l5.5-5.5h6Z" style="stroke:none"/>
        <path d="M45 .5h10L63.5 9v10Z" style="fill:#77bd7a;stroke:none"/>
        <path d="m51 57.5 6.5-6.5 5 5-6.5 6.5Z" style="fill:#468464;stroke:none"/>
        <path d="m56 62.5-1 1H45l6-6Z" style="fill:#476059;stroke:none"/>
        <path d="M55 .5h8.5V9Z" style="fill:#989aa4;stroke:none"/>
        <path d="m56 62.5 6.5-6.5 1 1v6.5H57Z" style="fill:#6e7080;stroke:none"/>
        <path d="M63.5 19v6L58 19.5v-5l.5-.5ZM58 50.5v-6l5.5-5.5v6Z" style="fill:#989aa4;stroke:none"/>
        <path d="m57.5 51 6-6v10l-1 1Z" style="fill:#77bd7a;stroke:none"/>
    </g>
</svg>
