<svg xmlns="http://www.w3.org/2000/svg" width="64" height="64" style="fill-opacity:1;color-rendering:auto;color-interpolation:auto;text-rendering:auto;stroke:#000;stroke-linecap:square;stroke-miterlimit:10;shape-rendering:auto;stroke-opacity:1;fill:#000;stroke-dasharray:none;font-weight:400;stroke-width:1;font-family:&quot;Dialog&quot;;font-style:normal;stroke-linejoin:miter;font-size:12px;stroke-dashoffset:0;image-rendering:auto">
    <g style="stroke-linecap:round;fill:#6e7080;stroke:#6e7080">
        <path stroke="none" d="M.5 7V.5H7l1 1L1.5 8Z" style="stroke:none"/>
    </g>
    <g stroke="none" style="stroke-linecap:round;fill:#4a4b53;stroke:#4a4b53">
        <path d="m1.5 8-1 1V7Z" style="stroke:none"/>
        <path d="M.5 19V9l1-1 5 5Z" style="fill:#476059;stroke:none"/>
        <path d="M.5 45V19l5-5 .5.5v8l5 5v9l-5 5v8l-.5.5Z" style="stroke:none"/>
        <path d="M19 63.5H9L.5 55V45Z" style="fill:#476059;stroke:none"/>
        <path d="M9 63.5H.5V55Z" style="stroke:none"/>
        <path d="M1.5 8 8 1.5l5 5L6.5 13Z" style="fill:#468464;stroke:none"/>
        <path d="M6 22.5v-8l-.5-.5L14 5.5l.5.5h8l5 5h9l5-5h8l.5-.5 8.5 8.5-.5.5v8l-5 5v9l5 5v9L50.5 58h-9l-5-5h-9l-5 5h-8l-.5.5L5.5 50l.5-.5v-8l5-5v-9Z" style="fill:#6e7080;stroke:none"/>
        <path d="m8 1.5-1-1h2Z" style="fill:#989aa4;stroke:none"/>
        <path d="m8 1.5 1-1h10l-6 6Z" style="fill:#77bd7a;stroke:none"/>
        <path d="M10 15.5v2l3 3 7.5-7.5-3-3h-2Zm0 31v2l5.5 5.5h2l3-3-7.5-7.5Z" style="fill:#6e7080;stroke:none"/>
        <path d="M10 17.5v-2l5.5-5.5h2l3 3-7.5 7.5Zm0 31v-2l3-3 7.5 7.5-3 3h-2ZM14.5 6l-.5-.5 5-5h26l5 5-.5.5h-8l-5 5h-9l-5-5Z" style="fill:#989aa4;stroke:none"/>
        <path d="M15 25.5v13L25.5 49h13l5-5-5-5-3 3h-7L22 35.5v-7l3-3-5-5Z" style="fill:#6e7080;stroke:none"/>
        <path d="m14 58.5.5-.5h8l5-5h9l5 5h9L45 63.5H19Zm1-20v-13l5-5 5 5-3 3v7l6.5 6.5h7l3-3 5 5-5 5h-13Z" style="stroke:none"/>
        <path d="m20.5 20 5 5 3-3h7l6.5 6.5v7l-3 3 5 5 5-5v-13L38.5 15h-13Z" style="fill:#6e7080;stroke:none"/>
        <path d="m20.5 20 5-5h13L49 25.5v13l-5 5-5-5 3-3v-7L35.5 22h-7l-3 3Z" style="fill:#989aa4;stroke:none"/>
        <path d="m43.5 13 7.5 7.5 3-3v-2L48.5 10h-2Zm0 38 3 3h2l5.5-5.5v-2l-3-3Z" style="fill:#6e7080;stroke:none"/>
        <path d="m43.5 13 3-3h2l5.5 5.5v2l-3 3Zm0 38 7.5-7.5 3 3v2L48.5 54h-2Z" style="fill:#989aa4;stroke:none"/>
        <path d="M45 .5h10L63.5 9v10Z" style="fill:#77bd7a;stroke:none"/>
        <path d="m51 57.5 6.5-6.5 5 5-6.5 6.5Z" style="fill:#468464;stroke:none"/>
        <path d="m56 62.5-1 1H45l6-6Z" style="fill:#476059;stroke:none"/>
        <path d="M53 36.5v-9l5-5v-8l.5-.5 5 5v26L58 50.5v-9Zm2-36h8.5V9Z" style="fill:#989aa4;stroke:none"/>
        <path d="m56 62.5 6.5-6.5 1 1v6.5H57Z" style="fill:#6e7080;stroke:none"/>
        <path d="m57.5 51 6-6v10l-1 1Z" style="fill:#77bd7a;stroke:none"/>
    </g>
</svg>
