<svg xmlns="http://www.w3.org/2000/svg" width="32" height="32" style="fill-opacity:1;color-rendering:auto;color-interpolation:auto;text-rendering:auto;stroke:#000;stroke-linecap:square;stroke-miterlimit:10;shape-rendering:auto;stroke-opacity:1;fill:#000;stroke-dasharray:none;font-weight:400;stroke-width:1;font-family:&quot;Dialog&quot;;font-style:normal;stroke-linejoin:miter;font-size:12px;stroke-dashoffset:0;image-rendering:auto">
    <g style="stroke-linecap:round;fill:#9a9fb4;stroke:#9a9fb4">
        <path stroke="none" d="M.5 1V.5H1l2 2-.5.5Z" style="stroke:none"/>
    </g>
    <g stroke="none" style="stroke-linecap:round;fill:#75788e;stroke:#75788e">
        <path d="m2.5 3-2 2V1Z" style="stroke:none"/>
        <path d="M.5 10V5l2-2L5 5.5Z" style="fill:#3c3837;stroke:none"/>
        <path d="M.5 22V10L5 5.5l2 2-3 3v11l6.5 6.5h11l3-3 2 2-4.5 4.5H10Z" style="stroke:none"/>
        <path d="M10 31.5H5L.5 27v-5Z" style="fill:#3c3837;stroke:none"/>
        <path d="M5 31.5H.5V27Z" style="stroke:none"/>
        <path d="M1 .5h4l-2 2Z" style="fill:#b2c6d2;stroke:none"/>
        <path d="M2.5 3 5 .5h5l-5 5Z" style="fill:#646567;stroke:none"/>
        <path d="M4 21.5v-11l3-3-2-2 .5-.5 2 2 3-3h11l6.5 6.5v11l-3 3 2 2-.5.5-2-2-3 3h-11Z" style="fill:#9a9fb4;stroke:none"/>
        <path d="M5.5 5 10 .5h12l9.5 9.5v12L27 26.5l-2-2 3-3v-11L21.5 4h-11l-3 3Z" style="fill:#b2c6d2;stroke:none"/>
        <path d="M8 12.5v7l4.5 4.5h7l4.5-4.5v-7L19.5 8h-7Z" style="fill:#9a9fb4;stroke:none"/>
        <path d="M8 19.5v-7L12.5 8h7l4.5 4.5v7L19.5 24h-7Z" style="fill:#b2c6d2;stroke:none"/>
        <path d="M22 .5h5L31.5 5v5Z" style="fill:#646567;stroke:none"/>
        <path d="m29 29.5-2 2h-5l4.5-4.5Z" style="fill:#3c3837;stroke:none"/>
        <path d="M27 .5h4.5V5Z" style="fill:#b2c6d2;stroke:none"/>
        <path d="m26.5 27 5-5v5L29 29.5Z" style="fill:#646567;stroke:none"/>
        <path d="m30 30.5-1-1 .5-.5.5.5Z" style="fill:#9a9fb4;stroke:none"/>
        <path d="M31 31.5h-4l2-2Z" style="stroke:none"/>
        <path d="m29.5 29 2-2v4Z" style="fill:#b2c6d2;stroke:none"/>
    </g>
</svg>
