<svg xmlns="http://www.w3.org/2000/svg" width="64" height="64" style="fill-opacity:1;color-rendering:auto;color-interpolation:auto;text-rendering:auto;stroke:#000;stroke-linecap:square;stroke-miterlimit:10;shape-rendering:auto;stroke-opacity:1;fill:#000;stroke-dasharray:none;font-weight:400;stroke-width:1;font-family:&quot;Dialog&quot;;font-style:normal;stroke-linejoin:miter;font-size:12px;stroke-dashoffset:0;image-rendering:auto">
    <g style="stroke-linecap:round;fill:#efca98;stroke:#efca98">
        <path stroke="none" d="M.5 1V.5H1L8.5 8l4-4h5l8 8h13l8-8h5l9.5 9.5v5l-8 8v11l8 8v5l-5 5 7.5 7.5v.5H63L55.5 56l-4 4h-5l-8-8h-13l-8 8h-5L3 50.5v-5l8-8v-11l-8-8v-5l5-5Z" style="stroke:none"/>
    </g>
    <g stroke="none" style="stroke-linecap:round;fill:#e3a880;stroke:#e3a880">
        <path d="m8 8.5-5 5v5l8 8v11l-8 8v5l9.5 9.5h5l8-8h13l8 8h5l4-4 7.5 7.5H.5V1Z" style="stroke:none"/>
        <path d="M1 .5h62.5V63L56 55.5l5-5v-5l-8-8v-11l8-8v-5L51.5 4h-5l-8 8h-13l-8-8h-5l-4 4Z" style="fill:#efe4ca;stroke:none"/>
        <path d="M11 17.5v3l3.5 3.5h2l3.5-3.5-6-6Zm0 26v3l5.5 5.5h3l3.5-3.5v-2L16.5 40h-2Z" style="fill:#efca98;stroke:none"/>
        <path d="M11 20.5v-3l3-3 6 6-3.5 3.5h-2Zm0 26v-3l3.5-3.5h2l6.5 6.5v2L19.5 52h-3Z" style="stroke:none"/>
        <path d="m14.5 14 6 6 2.5-2.5v-2L19.5 12h-3Z" style="fill:#efca98;stroke:none"/>
        <path d="m14.5 14 2-2h3l3.5 3.5v2L20.5 20Z" style="fill:#efe4ca;stroke:none"/>
        <path d="M19 27.5v9l7.5 7.5h11l3-3-5.5-5.5-1.5 1.5h-3L27 33.5v-3l1.5-1.5-5.5-5.5Z" style="fill:#efca98;stroke:none"/>
        <path d="M19 36.5v-9l4-4 5.5 5.5-1.5 1.5v3l3.5 3.5h3l1.5-1.5 5.5 5.5-3 3h-11Z" style="stroke:none"/>
        <path d="m23.5 23 5.5 5.5 1.5-1.5h3l3.5 3.5v3L35.5 35l5.5 5.5 4-4v-9L37.5 20h-11Z" style="fill:#efca98;stroke:none"/>
        <path d="m23.5 23 3-3h11l7.5 7.5v9l-4 4-5.5-5.5 1.5-1.5v-3L33.5 27h-3L29 28.5Z" style="fill:#efe4ca;stroke:none"/>
        <path d="M41 15.5v2l6.5 6.5h2l3.5-3.5v-3L47.5 12h-3Zm0 31v2l3.5 3.5h3l2-2-6-6Z" style="fill:#efca98;stroke:none"/>
        <path d="M41 17.5v-2l3.5-3.5h3l5.5 5.5v3L49.5 24h-2Z" style="fill:#efe4ca;stroke:none"/>
        <path d="M41 48.5v-2l2.5-2.5 6 6-2 2h-3Z" style="stroke:none"/>
        <path d="m44 43.5 6 6 3-3v-3L49.5 40h-2Z" style="fill:#efca98;stroke:none"/>
        <path d="m44 43.5 3.5-3.5h2l3.5 3.5v3l-3 3Z" style="fill:#efe4ca;stroke:none"/>
    </g>
</svg>
