<svg xmlns="http://www.w3.org/2000/svg" width="32" height="32" style="fill-opacity:1;color-rendering:auto;color-interpolation:auto;text-rendering:auto;stroke:#000;stroke-linecap:square;stroke-miterlimit:10;shape-rendering:auto;stroke-opacity:1;fill:#000;stroke-dasharray:none;font-weight:400;stroke-width:1;font-family:&quot;Dialog&quot;;font-style:normal;stroke-linejoin:miter;font-size:12px;stroke-dashoffset:0;image-rendering:auto">
    <g style="stroke-linecap:round;fill:#9a9fb4;stroke:#9a9fb4">
        <path stroke="none" d="M.5 3V.5H3L6.5 4h6L16 .5h5l7 7v2l3.5 3.5v4L28 20.5v5l3.5 3.5v2.5H29L25.5 28h-6l-4-4H11v-.5L7.5 20H4V6.5Z" style="stroke:none"/>
    </g>
    <g stroke="none" style="stroke-linecap:round;fill:#75788e;stroke:#75788e">
        <path d="M4 6.5V20H.5V3Z" style="stroke:none"/>
        <path d="M3 .5h13L12.5 4h-6Z" style="fill:#b2c6d2;stroke:none"/>
        <path d="M8 11.5v4l8.5 8.5h4l3.5-3.5v-9L20.5 8h-9Z" style="fill:#9a9fb4;stroke:none"/>
        <path d="M8 15.5v-4L11.5 8h9l3.5 3.5v9L20.5 24h-4Z" style="fill:#b2c6d2;stroke:none"/>
        <path d="M11.5 28H11v-4h4.5l4 4h6l3.5 3.5H15Z" style="stroke:none"/>
        <path d="M15 31.5H4L7.5 28h4Z" style="fill:#9a9fb4;stroke:none"/>
        <path d="M21 .5h10.5V13L28 9.5v-2Zm7 25v-5l3.5-3.5v12Z" style="fill:#b2c6d2;stroke:none"/>
    </g>
</svg>
