<svg xmlns="http://www.w3.org/2000/svg" width="32" height="32" style="fill-opacity:1;color-rendering:auto;color-interpolation:auto;text-rendering:auto;stroke:#000;stroke-linecap:square;stroke-miterlimit:10;shape-rendering:auto;stroke-opacity:1;fill:#000;stroke-dasharray:none;font-weight:400;stroke-width:1;font-family:&quot;Dialog&quot;;font-style:normal;stroke-linejoin:miter;font-size:12px;stroke-dashoffset:0;image-rendering:auto">
    <g style="stroke-linecap:round;fill:#9a9fb4;stroke:#9a9fb4">
        <path stroke="none" d="M.5 3V.5H3L6.5 4h18L28 7.5v7l3.5 3.5v4L28 25.5l3.5 3.5v2.5H29L26.5 29 24 31.5h-5L15.5 28h-8L4 24.5v-2L7.5 19h2l3.5-3.5v6l-2 2 .5.5h9l4-4-5-5 4-4L20 7.5 16.5 11h-4l-7-7h-4Z" style="stroke:none"/>
    </g>
    <g stroke="none" style="stroke-linecap:round;fill:#75788e;stroke:#75788e">
        <path d="M1.5 4h4l7 7h.5v4.5L9.5 19h-2L4 22.5v2L7.5 28h8l3.5 3.5H.5V22l4-4-2-2h-2V3Z" style="stroke:none"/>
        <path d="M3 .5h28.5V18L28 14.5v-7L24.5 4h-18Z" style="fill:#b2c6d2;stroke:none"/>
        <path d="m11.5 24-.5-.5 2-2V11h3.5L20 7.5l3.5 3.5-4 4 5 5-4 4Z" style="fill:#b2c6d2;stroke:none"/>
        <path d="M29 31.5h-5l2.5-2.5Z" style="stroke:none"/>
        <path d="m28 25.5 3.5-3.5v7Z" style="fill:#b2c6d2;stroke:none"/>
    </g>
</svg>
