<svg xmlns="http://www.w3.org/2000/svg" width="64" height="64" style="fill-opacity:1;color-rendering:auto;color-interpolation:auto;text-rendering:auto;stroke:#000;stroke-linecap:square;stroke-miterlimit:10;shape-rendering:auto;stroke-opacity:1;fill:#000;stroke-dasharray:none;font-weight:400;stroke-width:1;font-family:&quot;Dialog&quot;;font-style:normal;stroke-linejoin:miter;font-size:12px;stroke-dashoffset:0;image-rendering:auto">
    <g style="stroke-linecap:round;fill:#efca98;stroke:#efca98">
        <path stroke="none" d="M.5 1V.5H1L9.5 9l5-5h5l5 5h15l5-5h5L60 14.5v5l-5 5v15l5 5v5l-5 5 8.5 8.5v.5H63L54.5 55l-5 5h-5l-5-5h-15l-5 5h-5L4 49.5v-5l5-5v-15l-5-5v-5l5-5Z" style="stroke:none"/>
    </g>
    <g stroke="none" style="stroke-linecap:round;fill:#e3a880;stroke:#e3a880">
        <path d="m9 9.5-5 5v5l5 5v15l-5 5v5L14.5 60h5l5-5h15l5 5h5l5-5 8.5 8.5H.5V1Z" style="stroke:none"/>
        <path d="M1 .5h62.5V63L55 54.5l5-5v-5l-5-5v-15l5-5v-5L49.5 4h-5l-5 5h-15l-5-5h-5l-5 5Z" style="fill:#efe4ca;stroke:none"/>
        <path d="m7.5 17 4 4h2l3.5-3.5-5-5Zm0 30 9.5 9.5 4-4v-2L13.5 43h-2Z" style="fill:#efca98;stroke:none"/>
        <path d="m7.5 17 4.5-4.5 5 5-3.5 3.5h-2Zm0 30 4-4h2l7.5 7.5v2l-4 4Z" style="stroke:none"/>
        <path d="m12.5 12 5 5 3.5-3.5v-2l-4-4Z" style="fill:#efca98;stroke:none"/>
        <path d="M12.5 12 17 7.5l4 4v2L17.5 17Z" style="fill:#efe4ca;stroke:none"/>
        <path d="M14 26.5v11L26.5 50h11l6-6-4-4-4 4h-1l4.5-4.5-4-4-3 3-6.5-6.5 3-3-4-4-4 4H20v-.5l4-4-4-4Z" style="fill:#efca98;stroke:none"/>
        <path d="M14 37.5v-11l6-6 4 4-4 4v7l8.5 8.5h7l4-4 4 4-6 6h-11Z" style="stroke:none"/>
        <path d="m20.5 20 4 4 4-4h1L25 24.5l4 4 3-3 6.5 6.5-3 3 4 4 4-4h.5v.5l-4 4 4 4 6-6v-11L37.5 14h-11Z" style="fill:#efca98;stroke:none"/>
        <path d="M20 34.5V29h.5l4-4 4 4-3 3 6.5 6.5 3-3 4 4-4.5 4.5H29v-.5Z" style="fill:#efe4ca;stroke:none"/>
        <path d="m21 36.5-1-1v-1l1 1Z" style="fill:#efca98;stroke:none"/>
        <path d="m20.5 20 6-6h11L50 26.5v11l-6 6-4-4 4-4v-7L35.5 20h-7l-4 4Z" style="fill:#efe4ca;stroke:none"/>
        <path d="m23 38.5-3-3v-1l3 3Z" style="fill:#efca98;stroke:none"/>
        <path d="m25 40.5-5-5v-1l5 5Z" style="fill:#efca98;stroke:none"/>
        <path d="m25 24.5 4.5-4.5H35v.5l9 9V35h-.5l-4 4-4-4 3-3-6.5-6.5-3 3Z" style="stroke:none"/>
        <path d="m27 42.5-7-7v-1l7 7Z" style="fill:#efca98;stroke:none"/>
        <path d="M29 44h-.5L20 35.5v-1l9 9Zm7-22.5-1-1V20h.5l.5.5Z" style="fill:#efca98;stroke:none"/>
        <path d="m38 23.5-3-3V20h.5l2.5 2.5Z" style="fill:#efca98;stroke:none"/>
        <path d="m40 25.5-5-5V20h.5l4.5 4.5Z" style="fill:#efca98;stroke:none"/>
        <path d="m42 27.5-7-7V20h.5l6.5 6.5Zm1-16v2l7.5 7.5h2l4-4L47 7.5Zm0 39v2l4 4 4.5-4.5-5-5Z" style="fill:#efca98;stroke:none"/>
        <path d="M43 13.5v-2l4-4 9.5 9.5-4 4h-2Z" style="fill:#efe4ca;stroke:none"/>
        <path d="m44 29.5-9-9V20h.5l8.5 8.5Z" style="fill:#efca98;stroke:none"/>
        <path d="M43 52.5v-2l3.5-3.5 5 5-4.5 4.5Z" style="stroke:none"/>
        <path d="m47 46.5 5 5 4.5-4.5-4-4h-2Z" style="fill:#efca98;stroke:none"/>
        <path d="m47 46.5 3.5-3.5h2l4 4-4.5 4.5Z" style="fill:#efe4ca;stroke:none"/>
    </g>
</svg>
