<svg xmlns="http://www.w3.org/2000/svg" width="32" height="32" style="fill-opacity:1;color-rendering:auto;color-interpolation:auto;text-rendering:auto;stroke:#000;stroke-linecap:square;stroke-miterlimit:10;shape-rendering:auto;stroke-opacity:1;fill:#000;stroke-dasharray:none;font-weight:400;stroke-width:1;font-family:&quot;Dialog&quot;;font-style:normal;stroke-linejoin:miter;font-size:12px;stroke-dashoffset:0;image-rendering:auto">
    <g style="stroke-linecap:round;fill:#e8d174;stroke:#e8d174">
        <path stroke="none" d="M.5 3V.5H3L6.5 4h18L28 7.5v18l3.5 3.5v2.5H29L25.5 28h-18L4 24.5v-18Z" style="stroke:none"/>
    </g>
    <g stroke="none" style="stroke-linecap:round;fill:#d99f6b;stroke:#d99f6b">
        <path d="M4 6.5v18L7.5 28h18l3.5 3.5H.5V3Z" style="stroke:none"/>
        <path d="M3 .5h28.5V29L28 25.5v-18L24.5 4h-18Z" style="fill:#f3e979;stroke:none"/>
        <path d="M8 11.5v9l3.5 3.5h9l1.5-1.5-3.5-3.5-1 1h-3L12 17.5v-3l1-1L9.5 10Z" style="fill:#e8d174;stroke:none"/>
        <path d="M8 20.5v-9L9.5 10l3.5 3.5-1 1v3l2.5 2.5h3l1-1 3.5 3.5-1.5 1.5h-9Z" style="stroke:none"/>
        <path d="m10 9.5 3.5 3.5 1-1h3l2.5 2.5v3l-1 1 3.5 3.5 1.5-1.5v-9L20.5 8h-9Z" style="fill:#e8d174;stroke:none"/>
        <path d="M10 9.5 11.5 8h9l3.5 3.5v9L22.5 22 19 18.5l1-1v-3L17.5 12h-3l-1 1Z" style="fill:#f3e979;stroke:none"/>
    </g>
</svg>
