<svg xmlns="http://www.w3.org/2000/svg" width="64" height="64" style="fill-opacity:1;color-rendering:auto;color-interpolation:auto;text-rendering:auto;stroke:#000;stroke-linecap:square;stroke-miterlimit:10;shape-rendering:auto;stroke-opacity:1;fill:#000;stroke-dasharray:none;font-weight:400;stroke-width:1;font-family:&quot;Dialog&quot;;font-style:normal;stroke-linejoin:miter;font-size:12px;stroke-dashoffset:0;image-rendering:auto">
    <g style="stroke-linecap:round;fill:#6e7080;stroke:#6e7080">
        <path stroke="none" d="M.5 7V.5H7L12.5 6h10l5 5h9l5-5h9l7.5 7.5v9l-5 5v9l5 5v10l5.5 5.5v6.5H57L51.5 58h-10l-5-5h-9l-5 5h-9L6 50.5v-9l5-5v-9l-5-5v-10Z" style="stroke:none"/>
    </g>
    <g stroke="none" style="stroke-linecap:round;fill:#4a4b53;stroke:#4a4b53">
        <path d="M6 12.5v10l5 5v9l-5 5v9l7.5 7.5h9l5-5h9l5 5h10l5.5 5.5H.5V7Z" style="stroke:none"/>
        <path d="M7 .5h56.5V57L58 51.5v-10l-5-5v-9l5-5v-9L50.5 6h-9l-5 5h-9l-5-5h-10Z" style="fill:#989aa4;stroke:none"/>
        <path d="M10 15.5v2l3 3 7.5-7.5-3-3h-2Zm0 31v2l5.5 5.5h2l3-3-7.5-7.5Z" style="fill:#6e7080;stroke:none"/>
        <path d="M10 17.5v-2l5.5-5.5h2l3 3-7.5 7.5Zm0 31v-2l3-3 7.5 7.5-3 3h-2Z" style="fill:#989aa4;stroke:none"/>
        <path d="M15 25.5v13L25.5 49h13l5-5-5-5-3 3h-7L22 35.5v-7l3-3-5-5Z" style="fill:#6e7080;stroke:none"/>
        <path d="M15 38.5v-13l5-5 5 5-3 3v7l6.5 6.5h7l3-3 5 5-5 5h-13Z" style="stroke:none"/>
        <path d="m20.5 20 5 5 3-3h7l6.5 6.5v7l-3 3 5 5 5-5v-13L38.5 15h-13Z" style="fill:#6e7080;stroke:none"/>
        <path d="m20.5 20 5-5h13L49 25.5v13l-5 5-5-5 3-3v-7L35.5 22h-7l-3 3Z" style="fill:#989aa4;stroke:none"/>
        <path d="m43.5 13 7.5 7.5 3-3v-2L48.5 10h-2Zm0 38 3 3h2l5.5-5.5v-2l-3-3Z" style="fill:#6e7080;stroke:none"/>
        <path d="m43.5 13 3-3h2l5.5 5.5v2l-3 3Zm0 38 7.5-7.5 3 3v2L48.5 54h-2Z" style="fill:#989aa4;stroke:none"/>
    </g>
</svg>
