<svg xmlns="http://www.w3.org/2000/svg" width="32" height="32" style="fill-opacity:1;color-rendering:auto;color-interpolation:auto;text-rendering:auto;stroke:#000;stroke-linecap:square;stroke-miterlimit:10;shape-rendering:auto;stroke-opacity:1;fill:#000;stroke-dasharray:none;font-weight:400;stroke-width:1;font-family:&quot;Dialog&quot;;font-style:normal;stroke-linejoin:miter;font-size:12px;stroke-dashoffset:0;image-rendering:auto">
    <g style="stroke-linecap:round;fill:#6e7080;stroke:#6e7080">
        <path stroke="none" d="M.5 4V.5H4L7.5 4h15L28 9.5v15l3.5 3.5v3.5H28L24.5 28h-15L4 22.5v-15Z" style="stroke:none"/>
    </g>
    <g stroke="none" style="stroke-linecap:round;fill:#4a4b53;stroke:#4a4b53">
        <path d="M4 7.5v15L9.5 28h15l3.5 3.5H.5V4Z" style="stroke:none"/>
        <path d="M4 .5h27.5V28L28 24.5v-15L22.5 4h-15Z" style="fill:#989aa4;stroke:none"/>
        <path d="M9 12.5v7l3.5 3.5h7l3.5-3.5v-7L19.5 9h-7Z" style="fill:#6e7080;stroke:none"/>
        <path d="M9 19.5v-7L12.5 9h7l3.5 3.5v7L19.5 23h-7Z" style="fill:#989aa4;stroke:none"/>
    </g>
</svg>
