<svg xmlns="http://www.w3.org/2000/svg" width="48" height="48" style="fill-opacity:1;color-rendering:auto;color-interpolation:auto;text-rendering:auto;stroke:#000;stroke-linecap:square;stroke-miterlimit:10;shape-rendering:auto;stroke-opacity:1;fill:#000;stroke-dasharray:none;font-weight:400;stroke-width:1;font-family:&quot;Dialog&quot;;font-style:normal;stroke-linejoin:miter;font-size:12px;stroke-dashoffset:0;image-rendering:auto">
    <g style="stroke-linecap:round;fill:#fff;stroke:#fff">
        <path stroke="none" d="M2 28.5v-9l1-1v-2l1-1v-1l1-1v-1L12.5 5h1l1-1h1l1-1h2l1-1h9l1 1h2l1 1h1l1 1h1l7.5 7.5v1l1 1v1l1 1v2l1 1v9l-1 1v2l-1 1v1l-1 1v1L35.5 43h-1l-1 1h-1l-1 1h-2l-1 1h-9l-1-1h-2l-1-1h-1l-1-1h-1L5 35.5v-1l-1-1v-1l-1-1v-2Z" style="stroke:none"/>
    </g>
</svg>
