<svg xmlns="http://www.w3.org/2000/svg" width="48" height="48" style="fill-opacity:1;color-rendering:auto;color-interpolation:auto;text-rendering:auto;stroke:#000;stroke-linecap:square;stroke-miterlimit:10;shape-rendering:auto;stroke-opacity:1;fill:#000;stroke-dasharray:none;font-weight:400;stroke-width:1;font-family:&quot;Dialog&quot;;font-style:normal;stroke-linejoin:miter;font-size:12px;stroke-dashoffset:0;image-rendering:auto">
    <g style="stroke-linecap:round;fill:#fff;stroke:#fff">
        <path stroke="none" d="M9 27.5v-7l1-1v-1l1-1v-1l5.5-5.5h1l1-1h1l1-1h7l1 1h1l1 1h1l5.5 5.5v1l1 1v1l1 1v7l-1 1v1l-1 1v1L31.5 37h-1l-1 1h-1l-1 1h-7l-1-1h-1l-1-1h-1L11 31.5v-1l-1-1v-1Z" style="stroke:none"/>
    </g>
</svg>
