<svg xmlns="http://www.w3.org/2000/svg" width="72" height="72" style="fill-opacity:1;color-rendering:auto;color-interpolation:auto;text-rendering:auto;stroke:#000;stroke-linecap:square;stroke-miterlimit:10;shape-rendering:auto;stroke-opacity:1;fill:#000;stroke-dasharray:none;font-weight:400;stroke-width:1;font-family:&quot;Dialog&quot;;font-style:normal;stroke-linejoin:miter;font-size:12px;stroke-dashoffset:0;image-rendering:auto">
    <g style="fill:#da7971;fill-opacity:.4784;stroke-opacity:.4784;stroke-linecap:round;stroke:#da7971">
        <path stroke="none" d="M14 40.5v-9l1-1v-2l1-1v-1l1-1v-1l1.5-1.5h7l.5.5-4 4v1l-1 1v1l-1 1v9l1 1v1l1 1v1l4 4-.5.5h-7L17 47.5v-1l-1-1v-1l-1-1v-2Z" style="stroke:none"/>
    </g>
    <g stroke="none" style="stroke-linecap:round;fill:#fd9e81;stroke:#fd9e81">
        <path d="M20 40.5v-9l1-1v-1l1-1v-1l5.5-5.5h1l1-1h1l1-1h9l1 1h1l1 1h1l5.5 5.5v1l1 1v1l1 1v9l-1 1v1l-1 1v1L44.5 50h-1l-1 1h-1l-1 1h-9l-1-1h-1l-1-1h-1L22 44.5v-1l-1-1v-1Z" style="stroke:none"/>
        <path d="M25 31.5v9l.5.5h3l3 3h1l1 1h5l1-1h1l3.5-3.5v-1l1-1v-5l-1-1v-1L40.5 28h-1l-1-1h-5l-1 1h-1l-3 3h-3Z" style="stroke:none"/>
        <path d="m25.5 41-.5-.5v-9l.5-.5h3l3-3h1l1-1h5l1 1h1l3.5 3.5v1l1 1v5l-1 1v1L40.5 44h-1l-1 1h-5l-1-1h-1l-3-3Z" style="fill:#fff;stroke:none"/>
    </g>
    <g style="fill:#da7971;fill-opacity:.4784;stroke-opacity:.4784;stroke-linecap:round;stroke:#da7971">
        <path stroke="none" d="m26.5 17-.5-.5.5-.5h1l1-1h2l1-1h9l1 1h2l1 1h1l1 1h1l7.5 7.5v1l1 1v1l1 1v2l1 1v9l-1 1v2l-1 1v1l-1 1v1L47.5 55h-1l-1 1h-1l-1 1h-2l-1 1h-9l-1-1h-2l-1-1h-1l-.5-.5.5-.5h1l.5-.5V50h.5l1 1h1l1 1h9l1-1h1l1-1h1l5.5-5.5v-1l1-1v-1l1-1v-9l-1-1v-1l-1-1v-1L44.5 22h-1l-1-1h-1l-1-1h-9l-1 1h-1l-1 1H28v-4.5l-.5-.5Z" style="stroke:none"/>
    </g>
</svg>
