<svg xmlns="http://www.w3.org/2000/svg" width="48" height="48" style="fill-opacity:1;color-rendering:auto;color-interpolation:auto;text-rendering:auto;stroke:#000;stroke-linecap:square;stroke-miterlimit:10;shape-rendering:auto;stroke-opacity:1;fill:#000;stroke-dasharray:none;font-weight:400;stroke-width:1;font-family:&quot;Dialog&quot;;font-style:normal;stroke-linejoin:miter;font-size:12px;stroke-dashoffset:0;image-rendering:auto">
    <g style="stroke-linecap:round;fill:#fff;stroke:#fff">
        <path stroke="none" d="M3 23.5v4L5.5 30h3l1-1h1l.5-.5v-1l1-1v-4L9.5 20h-3l-1 1h-1l-.5.5v1Z" style="stroke:none"/>
    </g>
    <g stroke="none" style="stroke-linecap:round;fill:red;stroke:red">
        <path d="M3 27.5v-4l1-1v-1l.5-.5h1l1-1h3l2.5 2.5v4l-1 1v1l-.5.5h-1l-1 1h-3Z" style="stroke:none"/>
        <path d="M5 26.5 6.5 28h2l1.5-1.5v-3L8.5 22h-2L5 23.5Z" style="stroke:none"/>
        <path d="M5 26.5v-3L6.5 22h2l1.5 1.5v3L8.5 28h-2Zm8-12v15l1 1 1-1v-5l3-3 1 1v7l1 1 1-1v-8L19.5 20h-2L16 21.5l-1-1v-6l-1-1Z" style="fill:#fff;stroke:none"/>
        <path d="m14 30.5-1-1v-15l1-1 1 1v6l1 1 1.5-1.5h2l1.5 1.5v8l-1 1-1-1v-7l-1-1-3 3v5Z" style="stroke:none"/>
        <path d="M27 20.5v9l1 1 1-1v-5l3-3 1 1v7l1 1 1-1v-8L33.5 20h-2L30 21.5l-2-2Z" style="fill:#fff;stroke:none"/>
        <path d="m28 30.5-1-1v-9l1-1 2 2 1.5-1.5h2l1.5 1.5v8l-1 1-1-1v-7l-1-1-3 3v5Z" style="stroke:none"/>
        <path d="M37 21.5v1l-1 1v4l2.5 2.5h3l1-1h1l.5-.5v-1l1-1v-4L42.5 20h-3l-1 1h-1Z" style="fill:#fff;stroke:none"/>
        <path d="M36 27.5v-4l1-1v-1l.5-.5h1l1-1h3l2.5 2.5v4l-1 1v1l-.5.5h-1l-1 1h-3Z" style="stroke:none"/>
        <path d="m38 26.5 1.5 1.5h2l1.5-1.5v-3L41.5 22h-2L38 23.5Z" style="stroke:none"/>
        <path d="M38 26.5v-3l1.5-1.5h2l1.5 1.5v3L41.5 28h-2Z" style="fill:#fff;stroke:none"/>
    </g>
</svg>
