<svg xmlns="http://www.w3.org/2000/svg" width="80" height="80" style="fill-opacity:1;color-rendering:auto;color-interpolation:auto;text-rendering:auto;stroke:#000;stroke-linecap:square;stroke-miterlimit:10;shape-rendering:auto;stroke-opacity:1;fill:#000;stroke-dasharray:none;font-weight:400;stroke-width:1;font-family:&quot;Dialog&quot;;font-style:normal;stroke-linejoin:miter;font-size:12px;stroke-dashoffset:0;image-rendering:auto">
    <g style="stroke-linecap:round;fill:#fff;stroke:#fff">
        <path stroke="none" d="M27 43.5v-7l1-1v-1l1-1v-1l3.5-3.5h1l1-1h1l1-1h7l1 1h1l1 1h1l3.5 3.5v1l1 1v1l1 1v7l-1 1v1l-1 1v1L47.5 51h-1l-1 1h-1l-1 1h-7l-1-1h-1l-1-1h-1L29 47.5v-1l-1-1v-1Z" style="stroke:none"/>
    </g>
</svg>
