<svg xmlns="http://www.w3.org/2000/svg" width="72" height="72" style="fill-opacity:1;color-rendering:auto;color-interpolation:auto;text-rendering:auto;stroke:#000;stroke-linecap:square;stroke-miterlimit:10;shape-rendering:auto;stroke-opacity:1;fill:#000;stroke-dasharray:none;font-weight:400;stroke-width:1;font-family:&quot;Dialog&quot;;font-style:normal;stroke-linejoin:miter;font-size:12px;stroke-dashoffset:0;image-rendering:auto">
    <g style="stroke-linecap:round;fill:#f9dbb1;stroke:#f9dbb1">
        <path stroke="none" d="M20 40.5v-9l1-1v-1l1-1v-1l5-5V22h1.5l1-1h1l1-1h9l1 1h1l1 1h1l5.5 5.5v1l1 1v1l1 1v9l-1 1v1l-1 1v1L44.5 50h-1l-1 1h-1l-1 1h-9l-1-1h-1l-1-1H27v-.5l-5-5v-1l-1-1v-1Z" style="stroke:none"/>
    </g>
    <g stroke="none" style="stroke-linecap:round;fill:#f9dbb1;stroke:#f9dbb1">
        <path d="M28 32.5v7l.5.5h1l3 3h1l1 1h3l1-1h1l3.5-3.5v-1l1-1v-3l-1-1v-1L39.5 29h-1l-1-1h-3l-1 1h-1l-3 3h-1Z" style="stroke:none"/>
        <path d="m28.5 40-.5-.5v-7l.5-.5h1l3-3h1l1-1h3l1 1h1l3.5 3.5v1l1 1v3l-1 1v1L39.5 43h-1l-1 1h-3l-1-1h-1l-3-3Z" style="fill:#fff;stroke:none"/>
    </g>
</svg>
