<svg xmlns="http://www.w3.org/2000/svg" width="128" height="128" style="fill-opacity:1;color-rendering:auto;color-interpolation:auto;text-rendering:auto;stroke:#000;stroke-linecap:square;stroke-miterlimit:10;shape-rendering:auto;stroke-opacity:1;fill:#000;stroke-dasharray:none;font-weight:400;stroke-width:1;font-family:&quot;Dialog&quot;;font-style:normal;stroke-linejoin:miter;font-size:12px;stroke-dashoffset:0;image-rendering:auto">
    <g style="stroke-linecap:round;fill:#6e7080;stroke:#6e7080">
        <path stroke="none" d="M82 104.5v-19l7-7v-27l11-11v-19l3-3 13 13v36l5 5v23l-5 5v10l-6.5 6.5h-9l-.5-.5 9-9v-60l-.5-.5-6.5 6.5v52l-6.5 6.5h-6Z" style="stroke:none"/>
    </g>
    <g stroke="none" style="stroke-linecap:round;fill:#6e7080;stroke:#6e7080">
        <path d="M92 97.5v8l.5.5 3.5-3.5v-8l-.5-.5Z" style="stroke:none"/>
        <path d="m92.5 106-.5-.5v-8l3.5-3.5.5.5v8Zm2-60-.5-.5v-10l6-6v11Zm1 66 6.5-6.5v-14l7-7v23l-9 9Z" style="fill:#4a4b53;stroke:none"/>
        <path d="M102 60.5v-7l6.5-6.5.5.5v6Z" style="fill:#feb380;stroke:none"/>
        <path d="M102 66.5v-6l7-7v6Z" style="fill:#4a4b53;stroke:none"/>
        <path d="M102 91.5v-25l7-7v25Z" style="fill:#feb380;stroke:none"/>
        <path d="M112 70.5v10l.5.5 5.5-5.5-5.5-5.5Z" style="stroke:none"/>
        <path d="m118 75.5-5.5 5.5-.5-.5v-10l.5-.5Z" style="fill:#feb380;stroke:none"/>
        <path d="M121 56.5v16l-5-5v-16Z" style="fill:#4a4b53;stroke:none"/>
    </g>
</svg>
