<svg xmlns="http://www.w3.org/2000/svg" width="128" height="128" style="fill-opacity:1;color-rendering:auto;color-interpolation:auto;text-rendering:auto;stroke:#000;stroke-linecap:square;stroke-miterlimit:10;shape-rendering:auto;stroke-opacity:1;fill:#000;stroke-dasharray:none;font-weight:400;stroke-width:1;font-family:&quot;Dialog&quot;;font-style:normal;stroke-linejoin:miter;font-size:12px;stroke-dashoffset:0;image-rendering:auto">
    <g style="stroke-linecap:round;fill:#6e7080;stroke:#6e7080">
        <path stroke="none" d="M7 72.5v-16l5-5v16Z" style="stroke:none"/>
    </g>
    <g stroke="none" style="stroke-linecap:round;fill:#4a4b53;stroke:#4a4b53">
        <path d="M7 95.5v-23l5-5v-36l13-13 3 3v19L39.5 52 32 59.5v28l7 7V112h-6.5l-6.5-6.5v-52L19.5 47l-.5.5v60l9 9-.5.5h-9l-6.5-6.5v-10Z" style="stroke:none"/>
        <path d="m10 75.5 5.5 5.5.5-.5v-10l-.5-.5Z" style="stroke:none"/>
        <path d="m10 75.5 5.5-5.5.5.5v10l-.5.5Zm16-22v7l-7-7v-6l.5-.5Z" style="fill:#ea8878;stroke:none"/>
        <path d="M26 60.5v6l-7-7v-6Z" style="fill:#6e7080;stroke:none"/>
        <path d="M26 66.5v25l-7-7v-25Z" style="fill:#ea8878;stroke:none"/>
        <path d="M26 91.5v14l6.5 6.5-4.5 4.5-9-9v-23Zm8-56v10l-.5.5-5.5-5.5v-11Z" style="fill:#6e7080;stroke:none"/>
        <path d="M32 94.5v8l3.5 3.5.5-.5v-8L32.5 94Z" style="stroke:none"/>
        <path d="M32 77.5v-18l8-8v-17l5.5-5.5H47v25.5l.5.5-7.5 7.5v7Z" style="fill:#6e7080;stroke:none"/>
        <path d="M32 87.5v-10l8-8v13l.5.5-6.5 6.5Z" style="fill:#feb380;stroke:none"/>
        <path d="M36 97.5v8l-.5.5-3.5-3.5v-8l.5-.5Z" style="fill:#6e7080;stroke:none"/>
        <path d="m34 89.5 7-7 6.5 6.5-.5.5v21L59.5 123h-10L39 112.5v-18Z" style="fill:#6e7080;stroke:none"/>
        <path d="M40 69.5v-7l17-17v-12l-.5-.5-9.5 9.5v-8l10-10v-13l-.5-.5-9.5 9.5v-10L52.5 5h6l4 4H64v11.5l4 4v8L64.5 36l-.5-.5v-14l-.5-.5-3.5 3.5v8l4 4v2l4 4v7L64.5 53l-.5-.5v-13l-.5-.5-3.5 3.5v7l4 4v2l7 7v12l-6 6-.5-.5H64V56.5l-.5-.5-6.5 6.5v12l6 6-10 10v12l11 11v9.5h-4.5L47 110.5v-21l6-6v-7l-.5-.5-9 9-2.5-2.5 12-12v-13l-.5-.5Z" style="stroke:none"/>
        <path d="m40.5 83-.5-.5v-13L52.5 57l.5.5v13Zm3 2 9-9 .5.5v7L47.5 89ZM47 34.5v-14l5.5-5.5.5.5v12l.5.5Zm.5 20.5-.5-.5v-12l5.5-5.5.5.5v11l.5.5Z" style="fill:#ea8878;stroke:none"/>
        <path d="m53.5 28-.5-.5v-12l-.5-.5 4-4 .5.5v13Zm0 21-.5-.5v-11l-.5-.5 4-4 .5.5v12Z" style="fill:#6e7080;stroke:none"/>
        <path d="M53 102.5v-12L63.5 80h.5v12h-.5Z" style="fill:#ea8878;stroke:none"/>
        <path d="M53 102.5 63.5 92h.5v20.5l.5.5L75 102.5v-12l-10-10 6-6v-12l-7-7v-2l-4-4v-7l3.5-3.5.5.5v13l.5.5 3.5-3.5v-7l-4-4v-2l-4-4v-8l3.5-3.5.5.5v14l.5.5 3.5-3.5v-8l-4-4V9h1.5l4-4h6l5.5 5.5v10L71.5 11l-.5.5v13l10 10v8L71.5 33l-.5.5v12l17 17v7L75.5 57l-.5.5v13l12 12-2.5 2.5-9-9-.5.5v7l6 6v21L68.5 123H64v-9.5Z" style="fill:#6e7080;stroke:none"/>
        <path d="M57 74.5v-12l6.5-6.5.5.5V80h-.5l-.5.5Z" style="fill:#6e7080;stroke:none"/>
        <path d="M75 90.5v12L64.5 92H64V80h.5Z" style="fill:#feb380;stroke:none"/>
        <path d="M75 102.5 64.5 113l-.5-.5V92h.5ZM68.5 123 81 110.5v-21l-.5-.5 6.5-6.5 7 7-5 5v18L78.5 123Zm7-108-.5.5v12l-.5.5-3.5-3.5v-13l.5-.5Zm0 22-.5.5v11l-.5.5-3.5-3.5v-12l.5-.5Z" style="stroke:none"/>
        <path d="M81 20.5v14L74.5 28l.5-.5v-12l.5-.5Zm0 22v12l-.5.5-6-6 .5-.5v-11l.5-.5Zm7 27v13l-.5.5L75 70.5v-13l.5-.5ZM84.5 85l-4 4-5.5-5.5v-7l.5-.5Z" style="fill:#feb380;stroke:none"/>
        <path d="m80.5 55 .5-.5V29h1.5l5.5 5.5v17l8 8v18l-8-8v-7Z" style="stroke:none"/>
        <path d="M96 77.5v10l-2 2-6.5-6.5.5-.5v-13Z" style="fill:#ea8878;stroke:none"/>
        <path d="M88.5 52 100 40.5v-19l3-3 13 13v36l5 5v23l-5 5v10l-6.5 6.5h-9l-.5-.5 9-9v-60l-.5-.5-6.5 6.5v52l-6.5 6.5H89V94.5l7-7v-28Z" style="fill:#6e7080;stroke:none"/>
        <path d="M92 97.5v8l.5.5 3.5-3.5v-8l-.5-.5Z" style="fill:#6e7080;stroke:none"/>
        <path d="m92.5 106-.5-.5v-8l3.5-3.5.5.5v8Zm2-60-.5-.5v-10l6-6v11Zm1 66 6.5-6.5v-14l7-7v23l-9 9Z" style="stroke:none"/>
        <path d="M102 60.5v-7l6.5-6.5.5.5v6Z" style="fill:#feb380;stroke:none"/>
        <path d="M102 66.5v-6l7-7v6Z" style="stroke:none"/>
        <path d="M102 91.5v-25l7-7v25Z" style="fill:#feb380;stroke:none"/>
        <path d="M112 70.5v10l.5.5 5.5-5.5-5.5-5.5Z" style="fill:#6e7080;stroke:none"/>
        <path d="m118 75.5-5.5 5.5-.5-.5v-10l.5-.5Z" style="fill:#feb380;stroke:none"/>
        <path d="M121 56.5v16l-5-5v-16Z" style="stroke:none"/>
    </g>
</svg>
