<svg xmlns="http://www.w3.org/2000/svg" width="32" height="32" style="fill-opacity:1;color-rendering:auto;color-interpolation:auto;text-rendering:auto;stroke:#000;stroke-linecap:square;stroke-miterlimit:10;shape-rendering:auto;stroke-opacity:1;fill:#000;stroke-dasharray:none;font-weight:400;stroke-width:1;font-family:&quot;Dialog&quot;;font-style:normal;stroke-linejoin:miter;font-size:12px;stroke-dashoffset:0;image-rendering:auto">
    <g style="stroke-linecap:round;fill:#6e7080;stroke:#6e7080">
        <path stroke="none" d="M.5 4V.5H4Z" style="stroke:none"/>
    </g>
    <g stroke="none" style="stroke-linecap:round;fill:#b0bac0;stroke:#b0bac0">
        <path d="M.5 8V4L4 .5h4V3h-.5l-5 5Zm0 20v-4H3v.5l5 5v2H4Z" style="stroke:none"/>
        <path d="M4 31.5H.5V28Z" style="fill:#6e7080;stroke:none"/>
        <path d="M5 10.5V8h3v.5l4 4v7L7.5 24h-2l-1-1 .5-.5v-1l3-3v-5Zm6-8V1h10v1.5L18.5 5h-5l-1-1H12v-.5ZM11 31v-1.5l2.5-2.5h5l1 1h.5v.5l1 1V31Zm10-20.5v-2l.5-.5h2l4.5 4.5v7L23.5 24h-2l-.5-.5v-2l3-3v-5Z" style="fill:#fff;stroke:none"/>
        <path d="M24 2.5v-2h4L31.5 4v4h-2Zm4 29h-4v-2l5.5-5.5h2v4Z" style="stroke:none"/>
        <path d="M28 .5h3.5V4Z" style="fill:#6e7080;stroke:none"/>
    </g>
</svg>
