<svg xmlns="http://www.w3.org/2000/svg" width="32" height="32" style="fill-opacity:1;color-rendering:auto;color-interpolation:auto;text-rendering:auto;stroke:#000;stroke-linecap:square;stroke-miterlimit:10;shape-rendering:auto;stroke-opacity:1;fill:#000;stroke-dasharray:none;font-weight:400;stroke-width:1;font-family:&quot;Dialog&quot;;font-style:normal;stroke-linejoin:miter;font-size:12px;stroke-dashoffset:0;image-rendering:auto">
    <g style="stroke-linecap:round;fill:#6e7080;stroke:#6e7080">
        <path stroke="none" d="M.5 12V.5H4v8Z" style="stroke:none"/>
    </g>
    <g stroke="none" style="stroke-linecap:round;fill:#b0bac0;stroke:#b0bac0">
        <path d="M.5 20v-8L4 8.5v-8h4v31H4v-8Z" style="stroke:none"/>
        <path d="M4 23.5v8H.5V20Z" style="fill:#6e7080;stroke:none"/>
        <path d="M8.5 8 8 7.5V5h4v.5L13.5 7h5L20 5.5l.5.5h1l6.5 6.5v7L21.5 26H19v-.5l-.5-.5h-5l-2 2H8v-3h1.5l3-3h9l2.5-2.5v-5L21.5 11H12v-.5L9.5 8Z" style="fill:#fff;stroke:none"/>
        <path d="M24 2.5v-2h4L31.5 4v4h-2Zm4 29h-4v-2l5.5-5.5h2v4Z" style="stroke:none"/>
        <path d="M28 .5h3.5V4Z" style="fill:#6e7080;stroke:none"/>
    </g>
</svg>
