<svg xmlns="http://www.w3.org/2000/svg" width="32" height="32" style="fill-opacity:1;color-rendering:auto;color-interpolation:auto;text-rendering:auto;stroke:#000;stroke-linecap:square;stroke-miterlimit:10;shape-rendering:auto;stroke-opacity:1;fill:#000;stroke-dasharray:none;font-weight:400;stroke-width:1;font-family:&quot;Dialog&quot;;font-style:normal;stroke-linejoin:miter;font-size:12px;stroke-dashoffset:0;image-rendering:auto">
    <g style="stroke-linecap:round;fill:#6e7080;stroke:#6e7080">
        <path stroke="none" d="M.5 4V.5H4Z" style="stroke:none"/>
    </g>
    <g stroke="none" style="stroke-linecap:round;fill:#b0bac0;stroke:#b0bac0">
        <path d="M.5 8V4L4 .5h4ZM8 31.5H4L.5 28v-4Z" style="stroke:none"/>
        <path d="M4 31.5H.5V28Z" style="fill:#6e7080;stroke:none"/>
        <path d="M.5 8 8 .5v4L4.5 8Zm0 16h4L8 27.5v4Z" style="fill:#8676c1;stroke:none"/>
        <path d="M5 10.5v-2l.5-.5h2l4.5 4.5v7L7.5 24h-2l-.5-.5v-2l3-3v-5ZM10.5 2l1-1h9l1 1-3 3h-5Zm1 29-1-1 3-3h5l3 3-1 1ZM21 10.5v-2l.5-.5h2l4.5 4.5v7L23.5 24h-2l-.5-.5v-2l3-3v-5Z" style="fill:#fff;stroke:none"/>
        <path d="M24 .5h4L31.5 4v4Z" style="stroke:none"/>
        <path d="M31.5 8h-4L24 4.5v-4ZM24 31.5v-4l3.5-3.5h4Z" style="fill:#8676c1;stroke:none"/>
        <path d="M28 31.5h-4l7.5-7.5v4Z" style="stroke:none"/>
        <path d="M28 .5h3.5V4Z" style="fill:#6e7080;stroke:none"/>
    </g>
</svg>
