<svg xmlns="http://www.w3.org/2000/svg" width="32" height="32" style="fill-opacity:1;color-rendering:auto;color-interpolation:auto;text-rendering:auto;stroke:#000;stroke-linecap:square;stroke-miterlimit:10;shape-rendering:auto;stroke-opacity:1;fill:#000;stroke-dasharray:none;font-weight:400;stroke-width:1;font-family:&quot;Dialog&quot;;font-style:normal;stroke-linejoin:miter;font-size:12px;stroke-dashoffset:0;image-rendering:auto">
    <g style="stroke-linecap:round;fill:#6e7080;stroke:#6e7080">
        <path stroke="none" d="M.5 4V.5H8L4.5 4Z" style="stroke:none"/>
    </g>
    <g stroke="none" style="stroke-linecap:round;fill:#b0bac0;stroke:#b0bac0">
        <path d="M.5 8V4h4ZM8 31.5H4L.5 28v-4Z" style="stroke:none"/>
        <path d="M4 31.5H.5V28Z" style="fill:#6e7080;stroke:none"/>
        <path d="m.5 8 4-4h4L12 .5h8L23.5 4h4l4 4Zm0 16h3l.5-.5 4 4v4Z" style="fill:#88a4ff;stroke:none"/>
        <path d="M4.5 4 8 .5h4L8.5 4Z" style="fill:#6f80e8;stroke:none"/>
        <path d="M5 10.5V8h4v1.5l3 3v7l-3 3v1l-.5.5h-3l-1-1 .5-.5v-1l3-3v-5ZM11.5 31l-1-1 3-3h5l1 1h.5v.5l1.5 1.5-1 1Z" style="fill:#fff;stroke:none"/>
        <path d="M20 .5h4L27.5 4h-4Z" style="fill:#6f80e8;stroke:none"/>
        <path d="M21 10.5V8h4v1.5l3 3v7l-3 3v1l-.5.5h-3l-1-1 .5-.5v-1l3-3v-5Z" style="fill:#fff;stroke:none"/>
        <path d="M24 .5h7.5V4h-4Z" style="fill:#6e7080;stroke:none"/>
        <path d="M24 31.5v-4l3.5-3.5h4Z" style="fill:#88a4ff;stroke:none"/>
        <path d="M28 31.5h-4l7.5-7.5v4ZM27.5 4h4v4Z" style="stroke:none"/>
    </g>
</svg>
