<svg xmlns="http://www.w3.org/2000/svg" width="32" height="32" style="fill-opacity:1;color-rendering:auto;color-interpolation:auto;text-rendering:auto;stroke:#000;stroke-linecap:square;stroke-miterlimit:10;shape-rendering:auto;stroke-opacity:1;fill:#000;stroke-dasharray:none;font-weight:400;stroke-width:1;font-family:&quot;Dialog&quot;;font-style:normal;stroke-linejoin:miter;font-size:12px;stroke-dashoffset:0;image-rendering:auto">
    <g style="stroke-linecap:round;fill:#92dd7e;stroke:#92dd7e">
        <path stroke="none" d="M.5 5V.5H12v2l-5 5v8l-4-4v-4Z" style="stroke:none"/>
    </g>
    <g stroke="none" style="stroke-linecap:round;fill:#3a8f64;stroke:#3a8f64">
        <path d="M3 7.5v4L.5 9V5Z" style="stroke:none"/>
        <path d="M3 11.5v9L.5 23V9Z" style="fill:#4a4b53;stroke:none"/>
        <path d="M.5 25v-2l2-2 8.5 8.5-2 2H7Z" style="stroke:none"/>
        <path d="M7 15.5v1l-4 4v-9Z" style="fill:#6e7080;stroke:none"/>
        <path d="M2.5 21 7 16.5v3l5.5 5.5h3L11 29.5Z" style="fill:#92dd7e;stroke:none"/>
        <path d="M12 12.5v-3l.5-.5h5l5.5 5.5v5l-.5.5h-3Z" style="fill:#fff;stroke:none"/>
        <path d="m12.5 29-.5-.5 3.5-3.5h1l4 4Z" style="fill:#6e7080;stroke:none"/>
        <path d="M16.5 25h8l5-5h2v11.5H28L25.5 29h-5ZM20 2.5v-2h11.5V12h-2Z" style="fill:#92dd7e;stroke:none"/>
        <path d="M23 31.5H9l3-3 .5.5h8Z" style="fill:#4a4b53;stroke:none"/>
        <path d="M20.5 29h5l2.5 2.5h-5Z" style="stroke:none"/>
    </g>
</svg>
