<svg width="4096" height="4096" viewBox="0 0 1083.776 1083.776" xmlns="http://www.w3.org/2000/svg"><g style="display:inline;opacity:1"><path style="fill:#6e7080;fill-opacity:1;stroke-width:4.99999;stroke-linecap:round;stroke-linejoin:round" d="M0 0h8.467v8.467H0Z" transform="scale(128)"/><path style="fill:#b0bac0;fill-opacity:1;stroke:none;stroke-width:.264583px;stroke-linecap:butt;stroke-linejoin:miter;stroke-opacity:1" d="m0 0 8.467 8.467V0Z" transform="scale(128)"/><path style="fill:#989aa4;fill-opacity:1;stroke:none;stroke-width:.264583px;stroke-linecap:butt;stroke-linejoin:miter;stroke-opacity:1" d="M0 0h.132l8.335 8.334v.133h-.133L0 .132V0" transform="scale(128)"/><path style="fill:#989aa4;fill-opacity:1;stroke:none;stroke-width:.264583px;stroke-linecap:butt;stroke-linejoin:miter;stroke-opacity:1" d="m1.984 1.058-.926.926v4.498l.926.926h4.498l.926-.926V1.984l-.926-.926H1.984" transform="scale(128)"/><path style="fill:#b0bac0;fill-opacity:1;stroke:none;stroke-width:.264583px;stroke-linecap:butt;stroke-linejoin:miter;stroke-opacity:1" d="M3.572 2.117 2.117 3.572v1.323L3.572 6.35h1.323L6.35 4.895V3.572L4.895 2.117H3.572" transform="scale(128)"/><path style="display:inline;fill:#989aa4;fill-opacity:1;stroke:none;stroke-width:.15875px;stroke-linecap:butt;stroke-linejoin:miter;stroke-opacity:1" d="m4.233 3.043-1.19 1.19 1.19 1.191 1.191-1.19-1.19-1.191" transform="scale(128)"/></g><g style="display:inline;opacity:1"><path style="fill:#000;fill-opacity:1;stroke:#404049;stroke-width:1.5875;stroke-linecap:butt;stroke-linejoin:round;stroke-miterlimit:4;stroke-dasharray:none;stroke-opacity:1;paint-order:normal" d="m4.63.794.662.661L6.35 2.514v.793l1.058 1.059v1.323L6.35 6.747l-.926.926H3.043l-.926-.926-1.059-1.058V4.366l1.059-1.059v-.793l1.058-1.059.661-.661h.397z" transform="scale(128)"/><path style="fill:#c9a58f;fill-opacity:1;stroke:none;stroke-width:1.05833;stroke-miterlimit:4;stroke-dasharray:none;stroke-opacity:1" d="M4.233.794h.397l1.72 1.72v4.233l-.926.926h-1.19z" transform="scale(128)"/><path style="fill:#8f665b;fill-opacity:1;stroke:none;stroke-width:1.05833;stroke-miterlimit:4;stroke-dasharray:none;stroke-opacity:1" d="m6.35 3.307 1.058 1.059v1.323L6.35 6.747v-3.44" transform="scale(128)"/><path style="display:inline;fill:#8f665b;fill-opacity:1;stroke:none;stroke-width:1.05833;stroke-miterlimit:4;stroke-dasharray:none;stroke-opacity:1" d="m4.233 4.63 1.059 1.06v.793L4.233 7.541V4.63" transform="scale(128)"/><path style="fill:#f4f4f4;fill-opacity:1;stroke:none;stroke-width:1.05833;stroke-miterlimit:4;stroke-dasharray:none;stroke-opacity:1" d="M5.292 1.455 6.35 2.514v1.058l-.926.926h-1.19v-.926l1.058-1.058V1.455" transform="scale(128)"/><path style="display:inline;fill:#8f665b;fill-opacity:1;stroke:none;stroke-width:1.05833;stroke-miterlimit:4;stroke-dasharray:none;stroke-opacity:1" d="M4.233.794h-.397l-1.72 1.72v4.233l.927.926h1.19z" transform="scale(128)"/><path style="display:inline;fill:#c9a58f;fill-opacity:1;stroke:none;stroke-width:1.05833;stroke-miterlimit:4;stroke-dasharray:none;stroke-opacity:1" d="M2.117 3.307 1.058 4.366v1.323l1.059 1.058v-3.44M4.233 4.63 3.175 5.69v.793l1.058 1.059V4.63" transform="scale(128)"/><path style="display:inline;fill:#c1c3d4;fill-opacity:1;stroke:none;stroke-width:1.05833;stroke-miterlimit:4;stroke-dasharray:none;stroke-opacity:1" d="M3.175 1.455 2.117 2.514v1.058l.926.926h1.19v-.926L3.175 2.514V1.455" transform="scale(128)"/></g></svg>