<svg xmlns="http://www.w3.org/2000/svg" width="656.301" height="109.697" viewBox="0 0 173.646 29.024">
   <g font-weight="400" font-family="Loaded">
      <g stroke="#444" stroke-width="3.9" font-size="32.458" letter-spacing="-1.164">
         <g aria-label="&lt;MINDUSTRY&gt;" style="line-height:1.25;-inkscape-font-specification:Loaded">
            <path d="M6.3 15.584l4.186 2.142v5.064L1.95 18.473v-5.875l8.536-4.252v5.193z"
               style="-inkscape-font-specification:Loaded" />
            <path style="-inkscape-font-specification:Loaded"
               d="M33.53 5.457V27.01h17.43l2.694-2.5V7.925L50.96 5.457zm5.226 4.966h9.542v11.782h-9.542zM55.758 5.522v19.053l2.402 2.402h14.671l2.402-2.402V5.522h-4.836V22.14h-9.802V5.522z"
               stroke-width="3.8999091999999997" />
            <path
               d="M96.633 24.51l-2.467 2.5H77.32v-4.87H91.83v-3.472H77.32V7.956l2.467-2.499h16.846v4.836H82.124V13.8h14.509zM118.297 5.49v4.868h-7.368V27.01h-4.869V10.36h-7.335v-4.87z"
               style="-inkscape-font-specification:Loaded" />
            <g stroke="none" color="#000" paint-order="markers fill stroke">
               <path
                  style="line-height:1.25;-inkscape-font-specification:Loaded;font-variant-ligatures:normal;font-variant-position:normal;font-variant-caps:normal;font-variant-numeric:normal;font-variant-alternates:normal;font-variant-east-asian:normal;font-feature-settings:normal;font-variation-settings:normal;text-indent:0;text-align:start;text-decoration-line:none;text-decoration-style:solid;text-decoration-color:#000;text-transform:none;text-orientation:mixed;white-space:normal;shape-padding:0;shape-margin:0;inline-size:0;isolation:auto;mix-blend-mode:normal;solid-color:#000;solid-opacity:1"
                  d="M139.792 7.956v10.841h-5.777l5.777 8.212h-5.777l-5.42-8.212v-5.063h6.36V10.39h-9.704v16.618h-4.869V5.522h17.008z"
                  overflow="visible" />
               <path
                  style="line-height:1.25;-inkscape-font-specification:Loaded;font-variant-ligatures:normal;font-variant-position:normal;font-variant-caps:normal;font-variant-numeric:normal;font-variant-alternates:normal;font-variant-east-asian:normal;font-feature-settings:normal;font-variation-settings:normal;text-indent:0;text-align:start;text-decoration-line:none;text-decoration-style:solid;text-decoration-color:#000;text-transform:none;text-orientation:mixed;white-space:normal;shape-padding:0;shape-margin:0;inline-size:0;isolation:auto;mix-blend-mode:normal;solid-color:#000;solid-opacity:1"
                  d="M118.432.065V28.96h8.77v-8.733l5.763 8.733h8.777v-5.633l-1.682-2.578h1.682V17.24h.001V3.649l-.563-.568-2.974-3.016zm3.9 7.408h.97V21.552h-.97zm14.575.336l.935.947v4.584h-.935v-1.164zm-5.717 7.874h.718l.819 1.165h-.768zm1.316 5.501l1.972 1.66 1.558 2.215h-.973z"
                  overflow="visible" fill="#444" />
            </g>
            <path
               d="M154.086 17.207v9.802h-5.42V16.817l-6.816-7.854V5.49h3.473l6.297 6.816 5.94-6.816h3.862v3.473zM167.347 15.681l-4.187-2.142V8.476l8.536 4.317v5.875l-8.536 4.251v-5.193z"
               style="-inkscape-font-specification:Loaded" />
         </g>
         <g style="line-height:1.25;-inkscape-font-specification:Loaded" aria-label="&lt;MINDUSTRY&gt;">
            <path style="-inkscape-font-specification:Loaded"
               d="M6.3 12.077l4.186 2.142v5.064L1.95 14.966V9.09l8.536-4.252v5.193z" />
            <path
               d="M33.53 1.95v21.552h17.43l2.694-2.5V4.418L50.96 1.95zm5.226 4.966h9.543v11.782h-9.543zM55.759 2.015v19.053l2.402 2.402h14.67l2.402-2.402V2.015h-4.835v16.618h-9.803V2.015z"
               style="-inkscape-font-specification:Loaded" stroke-width="3.8999091999999997" />
            <path style="-inkscape-font-specification:Loaded"
               d="M96.633 21.003l-2.467 2.5H77.321v-4.87h14.508V15.16H77.321V4.45l2.466-2.5h16.846v4.836H82.124v3.506h14.51zM118.297 1.983V6.85h-7.368v16.651h-4.869V6.852h-7.335v-4.87z" />
            <path
               style="line-height:1.25;-inkscape-font-specification:Loaded;font-variant-ligatures:normal;font-variant-position:normal;font-variant-caps:normal;font-variant-numeric:normal;font-variant-alternates:normal;font-variant-east-asian:normal;font-feature-settings:normal;font-variation-settings:normal;text-indent:0;text-align:start;text-decoration-line:none;text-decoration-style:solid;text-decoration-color:#000;text-transform:none;text-orientation:mixed;white-space:normal;shape-padding:0;shape-margin:0;inline-size:0;isolation:auto;mix-blend-mode:normal;solid-color:#000;solid-opacity:1"
               d="M139.792 4.45v10.84h-5.777l5.777 8.212h-5.777l-5.42-8.212v-5.063h6.361V6.884h-9.705v16.618h-4.868V2.015h17.007z"
               color="#000" overflow="visible" stroke="none" />
            <path style="-inkscape-font-specification:Loaded"
               d="M154.087 13.7v9.802h-5.42V13.31l-6.817-7.854V1.983h3.473l6.297 6.816 5.94-6.816h3.862v3.473zM167.347 12.174l-4.187-2.142V4.97l8.536 4.317v5.874l-8.536 4.252V14.22z" />
         </g>
      </g>
      <g style="line-height:1.25;-inkscape-font-specification:Loaded" aria-label="&lt;MINDUSTRY&gt;" font-size="32.458"
         letter-spacing="-1.164" fill="#9a9a9a">
         <path style="-inkscape-font-specification:Loaded"
            d="M6.3 15.584l4.186 2.142v5.064L1.95 18.473v-5.875l8.536-4.252v5.193z" fill="#d4816b" />
         <path
            d="M33.53 5.457V27.01h17.43l2.694-2.5V7.925L50.96 5.457zm5.226 4.966h9.542v11.782h-9.542zM55.758 5.522v19.053l2.402 2.402h14.671l2.402-2.402V5.522h-4.836V22.14h-9.802V5.522zM96.633 24.51l-2.467 2.5H77.32v-4.87H91.83v-3.472H77.32V7.956l2.467-2.499h16.846v4.836H82.124V13.8h14.509zM118.297 5.49v4.868h-7.368V27.01h-4.869V10.36h-7.335v-4.87zM139.792 7.956v10.841h-5.777l5.777 4.705v3.507h-5.777l-5.42-8.212v-5.063h6.36V10.39h-9.704v16.618h-4.869V5.522h17.008zM154.086 17.207v9.802h-5.42V16.817l-6.816-7.854V5.49h3.473l6.297 6.816 5.94-6.816h3.862v3.473z"
            style="-inkscape-font-specification:Loaded" />
         <path style="-inkscape-font-specification:Loaded"
            d="M167.347 15.681l-4.187-2.142V8.476l8.536 4.317v5.875l-8.536 4.251v-5.193z" fill="#d4816b" />
      </g>
      <path style="line-height:1.25;-inkscape-font-specification:Loaded"
         d="M6.3 12.077l4.187 2.142v5.064L1.95 14.966V9.09l8.537-4.252v5.193z" font-size="32.458"
         letter-spacing="-1.164" fill="#ffd37f" />
      <path
         d="M33.53 1.95v21.552h17.43l2.694-2.5V4.418L50.96 1.95zm5.226 4.966h9.543v11.782h-9.543zM55.759 2.015v19.053l2.402 2.402h14.67l2.402-2.402V2.015h-4.835v16.618h-9.803V2.015zM96.633 21.003l-2.467 2.5H77.321v-4.87h14.508V15.16H77.321V4.45l2.466-2.5h16.846v4.836H82.124v3.506h14.51zM118.297 1.983V6.85h-7.368v16.651h-4.869V6.852h-7.335v-4.87zM139.792 4.45v10.84h-5.777l5.777 8.212h-5.777l-5.42-8.212v-5.063h6.361V6.884h-9.705v16.618h-4.868V2.015h17.007zM154.087 13.7v9.802h-5.42V13.31l-6.817-7.854V1.983h3.473l6.297 6.816 5.94-6.816h3.862v3.473z"
         style="line-height:1.25;-inkscape-font-specification:Loaded" font-size="32.458" letter-spacing="-1.164"
         fill="#fff" />
      <path style="line-height:1.25;-inkscape-font-specification:Loaded"
         d="M167.347 12.174l-4.187-2.142V4.97l8.536 4.317v5.874l-8.536 4.252V14.22z" font-size="32.458"
         letter-spacing="-1.164" fill="#ffd37f" />
      <g stroke="#444" stroke-width="3.9" font-size="37.646">
         <g style="line-height:1.25;-inkscape-font-specification:Loaded">
            <path d="M12.708 5.457v21.617h4.883V18.74h9.05v8.334h4.787V5.457h-4.786v8.334h-9.05V5.457z"
               style="-inkscape-font-specification:Loaded" aria-label="H" fill="#9a9a9a" />
         </g>
         <g style="line-height:1.25;-inkscape-font-specification:Loaded">
            <path style="-inkscape-font-specification:Loaded"
               d="M12.708 1.95v21.617h4.883v-8.334h9.05v8.334h4.787V1.95h-4.786v8.335h-9.05V1.95z" aria-label="H"
               fill="#fff" />
         </g>
      </g>
      <g font-size="37.646" stroke-width=".941">
         <g style="line-height:1.25;-inkscape-font-specification:Loaded">
            <path style="-inkscape-font-specification:Loaded"
               d="M12.708 5.457v21.617h4.883V18.74h9.05v8.334h4.787V5.457h-4.786v8.334h-9.05V5.457z" aria-label="H"
               fill="#9a9a9a" />
         </g>
         <g style="line-height:1.25;-inkscape-font-specification:Loaded">
            <path d="M12.708 1.95v21.617h4.883v-8.334h9.05v8.334h4.787V1.95h-4.786v8.335h-9.05V1.95z"
               style="-inkscape-font-specification:Loaded" aria-label="H" fill="#fff" />
         </g>
      </g>
   </g>
</svg>