<svg xmlns="http://www.w3.org/2000/svg" width="32" height="32" style="fill-opacity:1;color-rendering:auto;color-interpolation:auto;text-rendering:auto;stroke:#000;stroke-linecap:square;stroke-miterlimit:10;shape-rendering:auto;stroke-opacity:1;fill:#000;stroke-dasharray:none;font-weight:400;stroke-width:1;font-family:&quot;Dialog&quot;;font-style:normal;stroke-linejoin:miter;font-size:12px;stroke-dashoffset:0;image-rendering:auto">
    <g style="stroke-linecap:round;fill:#9799a3;stroke:#9799a3">
        <path stroke="none" d="M6 21.5v-11L10.5 6h11L25 9.5l-.5.5h-1l-.5.5v2l1.5 1.5h1l.5.5-1.5 1.5 1.5 1.5-.5.5h-1L23 19.5v2l.5.5h1l.5.5-3.5 3.5h-11Z" style="stroke:none"/>
    </g>
    <g stroke="none" style="stroke-linecap:round;fill:#9799a3;stroke:#9799a3">
        <path d="M10 12.5v7l2.5 2.5h7l2.5-2.5v-7L19.5 10h-7Z" style="stroke:none"/>
        <path d="M10 19.5v-7l2.5-2.5h7l2.5 2.5v7L19.5 22h-7Z" style="fill:#b0bac0;stroke:none"/>
        <path d="M23 12.5v-2l.5-.5h1l.5-.5 2 2v2l-1 1-.5-.5h-1Zm.5 9.5-.5-.5v-2l1.5-1.5h1l.5-.5 1 1v2l-2 2-.5-.5Z" style="fill:#ced78a;stroke:none"/>
        <path d="M26 17.5 24.5 16l1-1 .5.5Z" style="fill:#9cb664;stroke:none"/>
    </g>
</svg>
