<svg xmlns="http://www.w3.org/2000/svg" width="32" height="32" style="fill-opacity:1;color-rendering:auto;color-interpolation:auto;text-rendering:auto;stroke:#000;stroke-linecap:square;stroke-miterlimit:10;shape-rendering:auto;stroke-opacity:1;fill:#000;stroke-dasharray:none;font-weight:400;stroke-width:1;font-family:&quot;Dialog&quot;;font-style:normal;stroke-linejoin:miter;font-size:12px;stroke-dashoffset:0;image-rendering:auto">
    <g style="stroke-linecap:round;fill:#d4816b;stroke:#d4816b">
        <path stroke="none" d="M.5 5V.5H6L10.5 5Z" style="stroke:none"/>
    </g>
    <g stroke="none" style="stroke-linecap:round;fill:#4a4b53;stroke:#4a4b53">
        <path d="M.5 27V5h31v22Z" style="stroke:none"/>
        <path d="M6 31.5H.5V27h10Z" style="fill:#d4816b;stroke:none"/>
        <path d="M6 .5h20L21.5 5h-11Z" style="fill:#ffd37f;stroke:none"/>
        <path d="m10 8.5 7.5 7.5-7.5 7.5.5.5h6l8-8-8-8h-6Z" style="stroke:none"/>
        <path d="m10 8.5.5-.5h6l8 8-8 8h-6l-.5-.5 7.5-7.5Z" style="fill:#6e7080;stroke:none"/>
        <path d="M26 31.5H6l4.5-4.5h11Z" style="fill:#ffd37f;stroke:none"/>
        <path d="M21.5 5 26 .5h5.5V5Zm0 22h10v4.5H26Z" style="fill:#d4816b;stroke:none"/>
    </g>
</svg>
