<svg xmlns="http://www.w3.org/2000/svg" width="32" height="32" style="fill-opacity:1;color-rendering:auto;color-interpolation:auto;text-rendering:auto;stroke:#000;stroke-linecap:square;stroke-miterlimit:10;shape-rendering:auto;stroke-opacity:1;fill:#000;stroke-dasharray:none;font-weight:400;stroke-width:1;font-family:&quot;Dialog&quot;;font-style:normal;stroke-linejoin:miter;font-size:12px;stroke-dashoffset:0;image-rendering:auto">
    <g style="stroke-linecap:round;fill:#6e7080;stroke:#6e7080">
        <path stroke="none" d="M10 13.5v5L6.5 22l-.5-.5v-11l.5-.5Z" style="stroke:none"/>
    </g>
    <g stroke="none" style="stroke-linecap:round;fill:#9799a3;stroke:#9799a3">
        <path d="M6.5 10 10 6.5l3.5 3.5h6l3.5 3.5v5L19.5 22h-6L10 25.5 6.5 22l3.5-3.5v-5Z" style="stroke:none"/>
        <path d="m10 6.5.5-.5h5l4 4h-6Zm.5 19.5-.5-.5 3.5-3.5h6l-4 4Z" style="fill:#6e7080;stroke:none"/>
        <path d="M15.5 6h6L25 9.5l-.5.5h-5Zm0 20 4-4h5l.5.5-3.5 3.5Z" style="fill:#d4816b;stroke:none"/>
        <path d="M19.5 10h5l.5-.5 3 3v7l-3 3-.5-.5h-5l3.5-3.5v-5Z" style="fill:#ffd37f;stroke:none"/>
    </g>
</svg>
