<svg xmlns="http://www.w3.org/2000/svg" width="32" height="32" style="fill-opacity:1;color-rendering:auto;color-interpolation:auto;text-rendering:auto;stroke:#000;stroke-linecap:square;stroke-miterlimit:10;shape-rendering:auto;stroke-opacity:1;fill:#000;stroke-dasharray:none;font-weight:400;stroke-width:1;font-family:&quot;Dialog&quot;;font-style:normal;stroke-linejoin:miter;font-size:12px;stroke-dashoffset:0;image-rendering:auto">
    <g style="stroke-linecap:round;fill:#84a94b;stroke:#84a94b">
        <path stroke="none" d="M.5 8V.5H11L8.5 3h-1l-4 4h-1l-1 1Z" style="stroke:none"/>
    </g>
    <g stroke="none" style="stroke-linecap:round;fill:#60834e;stroke:#60834e">
        <path d="M.5 30V8h1l1-1h1l4-4h1L11 .5h20L29.5 2h-2l-1 1h-2l-1 1h-1L19 7.5v1l-1 1v2l-1 1v6L14.5 21h-1l-1 1h-3l-1 1h-1L5 25.5v1L3.5 28h-1Z" style="stroke:none"/>
        <path d="M12 31.5H.5V30l2-2h1L5 26.5v-1L7.5 23h1l1-1h3l1-1h1l2.5-2.5v-6l1-1v-2l1-1v-1L22.5 4h1l1-1h2l1-1h2L31 .5h.5V8h-1l-2 2h-1L26 11.5v3l-1 1v5l1 1v3L21.5 29h-3l-1 1h-4Z" style="fill:#84a94b;stroke:none"/>
        <path d="M25 20.5v-5l1-1v-3l1.5-1.5h1l2-2h1v23l-.5.5H12l1.5-1.5h4l1-1h3l4.5-4.5v-3Z" style="stroke:none"/>
    </g>
</svg>
