<svg xmlns="http://www.w3.org/2000/svg" width="32" height="32" style="fill-opacity:1;color-rendering:auto;color-interpolation:auto;text-rendering:auto;stroke:#000;stroke-linecap:square;stroke-miterlimit:10;shape-rendering:auto;stroke-opacity:1;fill:#000;stroke-dasharray:none;font-weight:400;stroke-width:1;font-family:&quot;Dialog&quot;;font-style:normal;stroke-linejoin:miter;font-size:12px;stroke-dashoffset:0;image-rendering:auto">
    <g style="stroke-linecap:round;fill:#567148;stroke:#567148">
        <path stroke="none" d="M.5 2V.5H2L4.5 3h3l5 5h2l3-3h1l1-1h2L24 6.5v2l-1 1v1l-1 1v2l2.5 2.5h2l1.5 1.5v5l1 1v4l1 1v1l1.5 1.5v.5H31L27.5 28h-3l-1-1h-4l-3-3 2.5-2.5v-3L16.5 16h-3L11 18.5v1l-2 2v1l-.5.5h-2L5 21.5v-1l-1-1v-3l1-1v-1l2-2v-2l-1-1v-1l-2-2v-1Z" style="stroke:none"/>
    </g>
    <g stroke="none" style="stroke-linecap:round;fill:#3f523d;stroke:#3f523d">
        <path d="M4 5.5v1l2 2v1l1 1v2l-2 2v1l-1 1v3l1 1v1L6.5 23h2l.5-.5v-1l2-2v-1l2.5-2.5h3l2.5 2.5v3L16.5 24l3 3h4l1 1h3l3.5 3.5H.5V2Z" style="stroke:none"/>
        <path d="M2 .5h29.5V31L30 29.5v-1l-1-1v-4l-1-1v-5L26.5 16h-2L22 13.5v-2l1-1v-1l1-1v-2L21.5 4h-2l-1 1h-1l-3 3h-2l-5-5h-3Z" style="fill:#82a467;stroke:none"/>
    </g>
</svg>
