<svg xmlns="http://www.w3.org/2000/svg" width="32" height="32" style="fill-opacity:1;color-rendering:auto;color-interpolation:auto;text-rendering:auto;stroke:#000;stroke-linecap:square;stroke-miterlimit:10;shape-rendering:auto;stroke-opacity:1;fill:#000;stroke-dasharray:none;font-weight:400;stroke-width:1;font-family:&quot;Dialog&quot;;font-style:normal;stroke-linejoin:miter;font-size:12px;stroke-dashoffset:0;image-rendering:auto">
    <g style="stroke-linecap:round;fill:#567148;stroke:#567148">
        <path stroke="none" d="M.5 2V.5H2L5.5 4h3l2 2h1l1 1h2l2-2h6l5.5 5.5v3l-2 2v1l-1 1v1l-1 1v2l1 1v1l.5.5h1l.5.5v1l1 1v1l3.5 3.5v.5H31L27.5 28h-1l-1-1h-3l-3-3h-3l-3 3h-2L8 23.5v-2l3-3v-1l2-2v-3L11.5 11h-2l-1 1h-1L5 14.5 2.5 12l4-4Z" style="stroke:none"/>
    </g>
    <g stroke="none" style="stroke-linecap:round;fill:#3f523d;stroke:#3f523d">
        <path d="m6.5 8-4 4L5 14.5 7.5 12h1l1-1h2l1.5 1.5v3l-2 2v1l-3 3v2l3.5 3.5h2l3-3h3l3 3h3l1 1h1l3.5 3.5H.5V2Z" style="stroke:none"/>
        <path d="M2 .5h29.5V31L28 27.5v-1l-1-1v-1l-.5-.5h-1l-.5-.5v-1l-1-1v-2l1-1v-1l1-1v-1l2-2v-3L22.5 5h-6l-2 2h-2l-1-1h-1l-2-2h-3Z" style="fill:#82a467;stroke:none"/>
        <path d="M16 11.5v3l3 3 4-4v-1l1.5-1.5-2-2h-4Z" style="fill:#567148;stroke:none"/>
        <path d="M16 14.5v-3L18.5 9h4l2 2-1.5 1.5v1l-4 4Z" style="fill:#82a467;stroke:none"/>
    </g>
</svg>
