<svg xmlns="http://www.w3.org/2000/svg" width="32" height="32" style="fill-opacity:1;color-rendering:auto;color-interpolation:auto;text-rendering:auto;stroke:#000;stroke-linecap:square;stroke-miterlimit:10;shape-rendering:auto;stroke-opacity:1;fill:#000;stroke-dasharray:none;font-weight:400;stroke-width:1;font-family:&quot;Dialog&quot;;font-style:normal;stroke-linejoin:miter;font-size:12px;stroke-dashoffset:0;image-rendering:auto">
    <g style="stroke-linecap:round;fill:#567148;stroke:#567148">
        <path stroke="none" d="M.5 6V.5H11L8.5 3h-1l-1 1h-1l-2 2Z" style="stroke:none"/>
    </g>
    <g stroke="none" style="stroke-linecap:round;fill:#3f523d;stroke:#3f523d">
        <path d="M.5 30V6h3l2-2h1l1-1h1L11 .5h19L26.5 4h-2l-1 1h-2L17 9.5v5l3.5 3.5h4l2.5-2.5v-1l1-1v-3L31.5 7v24l-.5.5H12l4-4v-2l-1-1v-1L13.5 22h-4l-1 1h-1L5 25.5v1L3.5 28h-1Z" style="stroke:none"/>
        <path d="M12 31.5H.5V30l2-2h1L5 26.5v-1L7.5 23h1l1-1h4l1.5 1.5v1l1 1v2Zm5-17v-5L21.5 5h2l1-1h2L30 .5h1.5V7L28 10.5v3l-1 1v1L24.5 18h-4Z" style="fill:#567148;stroke:none"/>
    </g>
</svg>
