<svg xmlns="http://www.w3.org/2000/svg" width="96" height="96" style="fill-opacity:1;color-rendering:auto;color-interpolation:auto;text-rendering:auto;stroke:#000;stroke-linecap:square;stroke-miterlimit:10;shape-rendering:auto;stroke-opacity:1;fill:#000;stroke-dasharray:none;font-weight:400;stroke-width:1;font-family:&quot;Dialog&quot;;font-style:normal;stroke-linejoin:miter;font-size:12px;stroke-dashoffset:0;image-rendering:auto">
    <g style="stroke-linecap:round;fill:#3f523d;stroke:#3f523d">
        <path stroke="none" d="M1 54.5v-4L4.5 47h1L9 43.5v-2l1-1v-2l1.5-1.5L8 33.5v-3l-1-1v-3l1-1v-1l1-1v-2l1-1v-2l1-1v-1l.5-.5h1l1-1h5l1.5-1.5v-1l2-2v-1l2-2v-1L27.5 3h1l1-1h1l1-1h10l2 2h5l1-1h9L62 5.5v1l3.5 3.5h4l1-1h1l1-1h4l1-1h3l1 1h3l1 1h1l4.5 4.5v4l-1 1v1l-2 2v2l-1 1v2l1 1v2l3 3v1l1 1v1l1 1v5l1 1v8l-1 1v4l-1 1v4l-1 1v4l-3 3v1L86.5 71H86v-3.5l1-1v-3l1-1v-7l1-1v-2l2-2v-11l-1-1v-1l-2-2v-1l-2-2v-4l-1-1v-4l1-1v-1l1-1v-4L83.5 13h-2l-1 1h-1l-1 1h-3l-2-2h-6l-1-1h-4L60 9.5v-1L57.5 6h-1l-1-1h-3l-2 2h-3l-1 1h-2l-1-1h-3l-1-1h-4l-1 1h-1l-2 2h-1L28 11.5v1l-1 1v4l2.5 2.5 1-1h1l3-3h2l-1 1h-1L33 18.5v1l-3 3v3l-5-5-.5.5-1-1h-2L20 21.5v1l-3 3v1l-3 3v2l-1 1v5l-1 1v2l-1 1v1l-1 1v1l-1 1v1l-1 1v1l-4 4v3L6.5 58h1l1 1h1l1.5 1.5v3l-1 1v3l1 1v2l2.5 2.5h1l1 1h1l1 1h1l.5.5v2l1 1v3l1 1v1l2.5 2.5h1l1.5 1.5 5-5 2 2v1l1.5 1.5h1l1 1h5l1-1h4l4 4h1l1 1h3l4-4h1l1-1h4l1-1h1l4.5-4.5v-1l1-1v-1l2.5-2.5-2-2h-2l-1-1h-3l-5 5h-6l-.5-.5.5-.5h5l3.5-3.5-1.5-1.5H63v-1.5l1-1V69h1.5l2.5 2.5 2-2v-3l1-1v-2l-1-1 2-2 2 2 4-4v-1l1-1v-3l1-1v-7l-1-1v-2l-1-1v-1l-3-3v-1L69.5 31h-1L65 27.5v-3L63.5 23h-1l-1-1h-2l-1-1h-1l-1-1h-2l-3-3h-1l-1-1h-6l-1 1h-3l-1-1h-2l1-1h2l1-1h10l2 2h2l1 1h5l2 2h1l1 1h1l1 1h4l2 2h2l1 1h1l.5.5v3l1 1v2l1 1v2l1 1v6l1 1v1l2 2v3l-1 1v1l-1 1v7l-1 1v4l-1 1v1L76.5 67h-2L72 69.5v2l3.5 3.5h1l1.5 1.5 3.5-3.5H83v1.5l-1 1v1l-2 2v3l-1 1v1L75.5 87h-2l-6 6h-4l-1 1h-1l-1 1h-8l-1-1h-1l-1-1h-2L46 91.5 43.5 94h-7l-1-1h-1L32 90.5v-1l-1-1-1.5 1.5h-1l-1 1h-2l-1-1h-1l-2-2h-1l-5-5h-6L5 78.5v-1l-1-1v-4l1-1v-2l1-1v-2L8.5 64 6 61.5v-2l-.5-.5h-1L3 57.5v-1Z" style="stroke:none"/>
    </g>
    <g stroke="none" style="stroke-linecap:round;fill:#323d39;stroke:#323d39">
        <path d="M4 55.5v-3l4-4v-1l1-1v-1l1-1v-1l1-1v-1l1-1v-2l1-1v-5l1-1v-2l3-3v-1l3-3v-1l1.5-1.5h2l1 1-1.5 1.5V25h-.5L21 26.5v1l-1 1v2l-1 1v3l-1 1v7l-3 3v1l-1 1v5l1 1v1l2 2v6l1 1v2l1 1v1l1 1v1l.5.5h1l1.5 1.5 1.5-1.5h2l1-1h3l1 1h1l1.5 1.5v1l2.5 2.5h1l1 1h1l1 1h1l3 3h1l1 1h5l1-1h1l2.5-2.5.5.5h6l5-5h3l1 1h2l2 2-2.5 2.5v1l-1 1v1L67.5 86h-1l-1 1h-4l-1 1h-1l-4 4h-3l-1-1h-1l-4-4h-4l-1 1h-5l-1-1h-1L33 85.5v-1l-2-2-5 5-1.5-1.5h-1L21 83.5v-1l-1-1v-3l-1-1v-2l-.5-.5h-1l-1-1h-1l-1-1h-1L11 70.5v-2l-1-1v-3l1-1v-3L9.5 59h-1l-1-1h-1Z" style="stroke:none"/>
        <path d="M14 52.5v-5l1-1v-1l3-3v4l-2 2v4l2 2v5l4 4 2.5-2.5h1l3.5-3.5 3 3v2l-2 2v2l2.5 2.5h1l1 1h1l2 2h1l.5.5v1l3.5 3.5h2l2 2h7l.5.5-.5.5h-1l-1 1h-5l-1-1h-1l-3-3h-1l-1-1h-1l-1-1h-1L34 72.5v-1L32.5 70h-1l-1-1h-3l-1 1h-2L23 71.5 21.5 70h-1l-.5-.5v-1l-1-1v-1l-1-1v-2l-1-1v-6l-2-2v-1Z" style="fill:#3f523d;stroke:none"/>
        <path d="M16 52.5v-4l2-2v-4l1-1v-3l1-1v-3l1-1v-3l1-1v-3l1-1v-3l2-2 5.5 5.5-3.5 3.5v1l-2 2v2l-1 1v1l-1 1v4l-1 1v5l-1 1v3l1 1v1l3 3 1.5-1.5h1l2-2h4l2.5 2.5v5L34.5 62l2 2h1l1.5 1.5v1l5 5v1l.5.5h5l1 1h7l1-1h2l1-1h2l1.5 1.5-3.5 3.5h-5L54 79.5l-.5-.5h-7l-2-2h-2L39 73.5v-1l-.5-.5h-1l-2-2h-1l-1-1h-1L30 66.5v-2l2-2v-2l-3-3-3.5 3.5h-1L22 63.5l-4-4v-5Z" style="fill:#567148;stroke:none"/>
        <path d="M19 38.5v3l-1 1v-7l1-1v-3l1-1v-2l1-1v-1l1.5-1.5h.5v.5l-1 1v3l-1 1v3l-1 1v3Z" style="fill:#3f523d;stroke:none"/>
        <path d="M21 51.5v-3l1-1v-5l1-1v-4l1-1v-1l1-1v-2l2-2v-1l3.5-3.5 1.5 1.5 3.5-3.5h3l1-1h2l3-3h4l6 6h2l1.5 1.5v2l1 1v2l2.5 2.5h2l1 1h3l5.5 5.5v2l1 1v1l1.5 1.5-1.5 1.5v1l-1 1v1l-1 1v4l-1 1-1.5-1.5h-3L65 57.5v3l2.5 2.5-1.5 1.5v1l-2 2v2l-1 1V72h-1.5l-1 1h-2l-1 1h-7l-1-1h-5l-.5-.5v-1l-5-5v-1L37.5 64h-1l-2-2 1.5-1.5v-5L33.5 53h-4l-2 2h-1L25 56.5l-3-3v-1Z" style="fill:#131f1d;stroke:none"/>
        <path d="M27 17.5v-4l1-1v-1L30.5 9h1l2-2h1l1-1h4l1 1h3l1 1h2l1-1h3l2-2h3l1 1h1L60 8.5v1l2.5 2.5h4l1 1h6l2 2h3l1-1h1l1-1h2l3.5 3.5v4l-1 1v1l-1 1v4l1 1v4l2 2v1l2 2v1l1 1v11l-2 2v2l-1 1v7l-1 1v3l-1 1V71h-.5l-2 2h-2L78 76.5 76.5 75h-1L72 71.5v-2l2.5-2.5h2l2.5-2.5v-1l1-1v-4l1-1v-7l1-1v-1l1-1v-3l-2-2v-1l-1-1v-6l-1-1v-2l-1-1v-2l-1-1v-3l-.5-.5h-1l-1-1h-2l-2-2h-4l-1-1h-1l-1-1h-1l-2-2h-5l-1-1h-2l-2-2h-10l-1 1h-2l-1 1h-2l-3 3h-1l-1 1Z" style="fill:#567148;stroke:none"/>
        <path d="M30 25.5v-3l3-3v-1l1.5-1.5h1l1-1h2l1 1h3l1-1h6l1 1h1l3 3h2l1 1h1l1 1h2l1 1h1l1.5 1.5v3l3.5 3.5h1l5.5 5.5v1l3 3v1l1 1v2l1 1v7l-1 1v3l-1 1v1l-4 4-2-2-2 2 1 1v2l-1 1v3l-2 2-2.5-2.5H64v-1.5l2-2v-1l1.5-1.5-2.5-2.5v-3l1.5-1.5h3l1.5 1.5 1-1v-4l1-1v-1l1-1v-1l1.5-1.5-1.5-1.5v-1l-1-1v-2L67.5 36h-3l-1-1h-2L59 32.5v-2l-1-1v-2L56.5 26h-2l-6-6h-4l-3 3h-2l-1 1h-3L32 27.5Z" style="stroke:none"/>
    </g>
</svg>
