<svg xmlns="http://www.w3.org/2000/svg" width="32" height="32" style="fill-opacity:1;color-rendering:auto;color-interpolation:auto;text-rendering:auto;stroke:#000;stroke-linecap:square;stroke-miterlimit:10;shape-rendering:auto;stroke-opacity:1;fill:#000;stroke-dasharray:none;font-weight:400;stroke-width:1;font-family:&quot;Dialog&quot;;font-style:normal;stroke-linejoin:miter;font-size:12px;stroke-dashoffset:0;image-rendering:auto">
    <g style="stroke-linecap:round;fill:#3c3838;stroke:#3c3838">
        <path stroke="none" d="M4 6.5v8l2 2L7.5 15h1l.5-.5v-1l1-1v-1l1.5-1.5h1l1-1h1l.5-.5v-1L16.5 6l-2-2h-8Z" style="stroke:none"/>
    </g>
    <g stroke="none" style="stroke-linecap:round;fill:#515151;stroke:#515151">
        <path d="M4 14.5v-8L6.5 4h8l2 2L15 7.5v1l-.5.5h-1l-1 1h-1L10 11.5v1l-1 1v1l-.5.5h-1L6 16.5Z" style="stroke:none"/>
        <path d="M8 27.5v2L9.5 31h2l5-5-2-2h-3l-1 1h-1l-.5.5v1Z" style="fill:#3c3838;stroke:none"/>
        <path d="M8 29.5v-2l1-1v-1l.5-.5h1l1-1h3l2 2-5 5h-2Z" style="stroke:none"/>
        <path d="m19.5 12 1.5 1.5v1l.5.5h1l1.5 1.5 1.5-1.5h1l.5-.5v-1l1.5-1.5-1.5-1.5v-1l-.5-.5h-1L24 7.5 22.5 9h-1l-.5.5v1Zm0 14 2.5 2.5 2.5-2.5-2.5-2.5Z" style="fill:#3c3838;stroke:none"/>
        <path d="m19.5 12 1.5-1.5v-1l.5-.5h1L24 7.5 25.5 9h1l.5.5v1l1.5 1.5-1.5 1.5v1l-.5.5h-1L24 16.5 22.5 15h-1l-.5-.5v-1Zm0 14 2.5-2.5 2.5 2.5-2.5 2.5Z" style="stroke:none"/>
    </g>
</svg>
