<svg xmlns="http://www.w3.org/2000/svg" width="32" height="32" style="fill-opacity:1;color-rendering:auto;color-interpolation:auto;text-rendering:auto;stroke:#000;stroke-linecap:square;stroke-miterlimit:10;shape-rendering:auto;stroke-opacity:1;fill:#000;stroke-dasharray:none;font-weight:400;stroke-width:1;font-family:&quot;Dialog&quot;;font-style:normal;stroke-linejoin:miter;font-size:12px;stroke-dashoffset:0;image-rendering:auto">
    <g style="stroke-linecap:round;fill:#3c3838;stroke:#3c3838">
        <path stroke="none" d="M4 2.5v5l2 2L10.5 5h2l2-2-2-2h-7Z" style="stroke:none"/>
    </g>
    <g stroke="none" style="stroke-linecap:round;fill:#3c3838;stroke:#3c3838">
        <path d="M3.5 26 6 28.5 8.5 26 6 23.5Z" style="stroke:none"/>
        <path d="M4 7.5v-5L5.5 1h7l2 2-2 2h-2L6 9.5ZM3.5 26 6 23.5 8.5 26 6 28.5Z" style="fill:#515151;stroke:none"/>
        <path d="M8 14.5v3l2.5 2.5h3l2.5-2.5v-3L13.5 12h-3Z" style="stroke:none"/>
        <path d="M8 17.5v-3l2.5-2.5h3l2.5 2.5v3L13.5 20h-3Z" style="fill:#515151;stroke:none"/>
        <path d="M20 6.5v4l2 2 1.5-1.5h1L27 8.5v-1L28.5 6l-2-2h-4Zm0 17v6l1.5 1.5h2l2.5-2.5v-1l1.5-1.5h1l2.5-2.5v-2L29.5 20h-6Z" style="stroke:none"/>
        <path d="M20 10.5v-4L22.5 4h4l2 2L27 7.5v1L24.5 11h-1L22 12.5Zm0 19v-6l3.5-3.5h6l1.5 1.5v2L28.5 26h-1L26 27.5v1L23.5 31h-2Z" style="fill:#515151;stroke:none"/>
    </g>
</svg>
