<svg xmlns="http://www.w3.org/2000/svg" width="32" height="32" style="fill-opacity:1;color-rendering:auto;color-interpolation:auto;text-rendering:auto;stroke:#000;stroke-linecap:square;stroke-miterlimit:10;shape-rendering:auto;stroke-opacity:1;fill:#000;stroke-dasharray:none;font-weight:400;stroke-width:1;font-family:&quot;Dialog&quot;;font-style:normal;stroke-linejoin:miter;font-size:12px;stroke-dashoffset:0;image-rendering:auto">
    <g style="stroke-linecap:round;fill:#3c3838;stroke:#3c3838">
        <path stroke="none" d="M4 7.5v3l2 2L7.5 11h1L11 8.5v-1L12.5 6l-2-2h-3l-1 1h-1l-.5.5v1Z" style="stroke:none"/>
    </g>
    <g stroke="none" style="stroke-linecap:round;fill:#3c3838;stroke:#3c3838">
        <path d="M3.5 24 5 25.5v1l.5.5h1L8 28.5 9.5 27h1l.5-.5v-1l1-1v-2L9.5 20h-2l-1 1h-1l-.5.5v1Z" style="stroke:none"/>
        <path d="M4 10.5v-3l1-1v-1l.5-.5h1l1-1h3l2 2L11 7.5v1L8.5 11h-1L6 12.5ZM3.5 24 5 22.5v-1l.5-.5h1l1-1h2l2.5 2.5v2l-1 1v1l-.5.5h-1L8 28.5 6.5 27h-1l-.5-.5v-1Z" style="fill:#515151;stroke:none"/>
        <path d="M12 13.5v4l2.5 2.5h7l2.5-2.5v-6L20.5 8h-3l-1 1h-1L13 11.5v1Z" style="stroke:none"/>
        <path d="M12 17.5v-4l1-1v-1L15.5 9h1l1-1h3l3.5 3.5v6L21.5 20h-7Z" style="fill:#515151;stroke:none"/>
        <path d="m15.5 14 2.5 2.5 2.5-2.5-2.5-2.5Z" style="fill:#515151;stroke:none"/>
        <path d="m15.5 14 2.5-2.5 2.5 2.5-2.5 2.5Zm8 12 2.5 2.5 2.5-2.5-2.5-2.5Z" style="stroke:none"/>
        <path d="m23.5 26 2.5-2.5 2.5 2.5-2.5 2.5Z" style="fill:#515151;stroke:none"/>
    </g>
</svg>
