<svg xmlns="http://www.w3.org/2000/svg" width="32" height="32" style="fill-opacity:1;color-rendering:auto;color-interpolation:auto;text-rendering:auto;stroke:#000;stroke-linecap:square;stroke-miterlimit:10;shape-rendering:auto;stroke-opacity:1;fill:#000;stroke-dasharray:none;font-weight:400;stroke-width:1;font-family:&quot;Dialog&quot;;font-style:normal;stroke-linejoin:miter;font-size:12px;stroke-dashoffset:0;image-rendering:auto">
    <g style="stroke-linecap:round;fill:#465248;stroke:#465248">
        <path stroke="none" d="M.5 2V.5H2L5.5 4h3l1 1h1l1 1h2l1 1h4l2-2h3L28 9.5v4l-3 3v4l2 2v3l1 1v1l3.5 3.5v.5H31l-4-4v-1l-.5-.5h-3l-2 2h-4l-1 1h-3L11 26.5v-1l-.5-.5h-1L8 23.5v-1l-2-2v-3l-2-2v-4l1-1v-1L6.5 8Z" style="stroke:none"/>
    </g>
    <g stroke="none" style="stroke-linecap:round;fill:#323935;stroke:#323935">
        <path d="M6.5 8 5 9.5v1l-1 1v4l2 2v3l2 2v1L9.5 25h1l.5.5v1l2.5 2.5h3l1-1h4l2-2h3l.5.5v1l4 4H.5V2Z" style="stroke:none"/>
        <path d="M2 .5h29.5V31L28 27.5v-1l-1-1v-3l-2-2v-4l3-3v-4L23.5 5h-3l-2 2h-4l-1-1h-2l-1-1h-1l-1-1h-3Z" style="fill:#647b64;stroke:none"/>
        <path d="m6.5 14 3 3h2l1.5-1.5v-3L11.5 11h-2Z" style="fill:#465248;stroke:none"/>
        <path d="m6.5 14 3-3h2l1.5 1.5v3L11.5 17h-2Z" style="stroke:none"/>
        <path d="m11.5 22 2 2h1l1 1h3l1.5-1.5v-3L17.5 18h-2Z" style="fill:#465248;stroke:none"/>
        <path d="m11.5 22 4-4h2l2.5 2.5v3L18.5 25h-3l-1-1h-1Z" style="stroke:none"/>
    </g>
</svg>
