<svg xmlns="http://www.w3.org/2000/svg" width="32" height="32" style="fill-opacity:1;color-rendering:auto;color-interpolation:auto;text-rendering:auto;stroke:#000;stroke-linecap:square;stroke-miterlimit:10;shape-rendering:auto;stroke-opacity:1;fill:#000;stroke-dasharray:none;font-weight:400;stroke-width:1;font-family:&quot;Dialog&quot;;font-style:normal;stroke-linejoin:miter;font-size:12px;stroke-dashoffset:0;image-rendering:auto">
    <g style="stroke-linecap:round;fill:#323935;stroke:#323935">
        <path stroke="none" d="M3 2.5v1L5.5 6h1l.5.5v5l-1 1v1l-1 1v2l-1 1v3l4 4v1l2.5 2.5h3l3-3h5l3 3h3l3.5 3.5H.5V.5H1Z" style="stroke:none"/>
    </g>
    <g stroke="none" style="stroke-linecap:round;fill:#465248;stroke:#465248">
        <path d="m2 1.5-1-1h1Z" style="stroke:none"/>
        <path d="M2 .5h29.5V31L27 26.5v-1L24.5 23l3.5-3.5v-1l1-1v-2L27.5 14h-2L22 10.5v-1l-1-1v-3L19.5 4h-2l-1 1h-1l-2 2h-4l-2-2h-1Z" style="fill:#647b64;stroke:none"/>
        <path d="M6.5 5h1l2 2h4l2-2h1l1-1h2L21 5.5v3l1 1v1l3.5 3.5h2l1.5 1.5v2l-1 1v1L24.5 23l2.5 2.5v1l4.5 4.5v.5H31L27.5 28h-3l-3-3h-5l-3 3h-3L8 25.5v-1l-4-4v-3l1-1v-2l1-1v-1l1-1v-5L6.5 6h-1L3 3.5v-1l-2-2h1Z" style="stroke:none"/>
        <path d="M9 18.5v2l2.5 2.5h2l1.5-1.5v-1l1-1v-2l-3-3Z" style="stroke:none"/>
        <path d="M9 20.5v-2l4-4 3 3v2l-1 1v1L13.5 23h-2Z" style="fill:#323935;stroke:none"/>
        <path d="m18 16.5 1 1v1l3 3 2-2v-3l-3-3Z" style="stroke:none"/>
        <path d="m18 16.5 3-3 3 3v3l-2 2-3-3v-1Z" style="fill:#647b64;stroke:none"/>
    </g>
</svg>
