<svg xmlns="http://www.w3.org/2000/svg" width="64" height="64" style="fill-opacity:1;color-rendering:auto;color-interpolation:auto;text-rendering:auto;stroke:#000;stroke-linecap:square;stroke-miterlimit:10;shape-rendering:auto;stroke-opacity:1;fill:#000;stroke-dasharray:none;font-weight:400;stroke-width:1;font-family:&quot;Dialog&quot;;font-style:normal;stroke-linejoin:miter;font-size:12px;stroke-dashoffset:0;image-rendering:auto">
    <g style="stroke-linecap:round;fill:#465248;stroke:#465248">
        <path stroke="none" d="M.5 2V.5H3l3 3v1l1 1v1L8.5 8h1L11 9.5v1l.5.5h3l2-2h1l3-3h9L31 7.5l-3 3v1l-.5.5h-2L23 14.5l1 1v1L21.5 14 20 15.5v1l-.5.5h-1l-1 1h-1L15 19.5v3l1 1v2l1 1v1l1 1v1l1 1v2l3 3v2l2.5 2.5h2l4.5 4.5v1l1.5 1.5h2l2-2h1l5-5-.5-.5 5-5v-1l1.5-1.5-1.5-1.5v-2l1-1v-3l-1-1v-1l-1-1v-1L42.5 17h-2L38 14.5l1-1v-1l1-1v-1L41.5 9h2l1-1h1l2-2h6L56 8.5v4l-4 4v8l-1 1 2 2v1l2 2v2l-2 2v3l2 2v1l2 2v2l-1 1v2l-1 1v2l1 1v1l1 1v1l1 1v1l2 2v1l1.5 1.5h1l1 1v1.5H62L56.5 58h-1l-6-6h-2L45 49.5l-6 6-1.5-1.5h-1l-1-1h-2l-1 1h-3l-1 1h-4l-3 3h-6L14 56.5v-2l1.5-1.5h2l1-1h1l1.5-1.5v-8l-1-1v-1L17.5 38h-2L13 40.5v4L11.5 46h-2l-3 3-3-3 4-4h1l1.5-1.5v-1l1-1v-3l-2-2v-1l-1-1v-2L4.5 26l3-3h1l.5-.5v-1l1-1v-1l1-1v-1l1.5-1.5-1.5-1.5v-1l-1-1v-1Z" style="stroke:none"/>
    </g>
    <g stroke="none" style="stroke-linecap:round;fill:#323935;stroke:#323935">
        <path d="M10 11.5v1l1 1v1l1.5 1.5-1.5 1.5v1l-1 1v1l-1 1v1l-.5.5h-1l-3 3L8 29.5v2l1 1v1l2 2v3l-1 1v1L8.5 42h-1l-4 4 3 3 3-3h2l1.5-1.5v-4l2.5-2.5h2l2.5 2.5v1l1 1v8L19.5 52h-1l-1 1h-2L14 54.5v2l1.5 1.5h6l3-3h4l1-1h3l1-1h2l1 1h1l1.5 1.5 6-6 2.5 2.5h2l6 6h1l5.5 5.5H.5V2Z" style="stroke:none"/>
        <path d="M3 .5h60.5V62l-1-1h-1L60 59.5v-1l-2-2v-1l-1-1v-1l-1-1v-1l-1-1v-2l1-1v-2l1-1v-2l-2-2v-1l-2-2v-3l2-2v-2l-2-2v-1l-2-2 1-1v-8l4-4v-4L53.5 6h-6l-2 2h-1l-1 1h-2L40 10.5v1l-1 1v1l-1 1 2.5 2.5h2l3.5 3.5v1l1 1v1l1 1v3l-1 1v2l1.5 1.5-1.5 1.5v1l-5 5-3-3v-1l-1-1v-2l2-2v-4l-4-4-2 2-3-3v-2l-.5-.5h-1l-1-1h-2l-1 1H24v-3.5l-1-1 2.5-2.5h2l.5-.5v-1l3-3L29.5 6h-9l-3 3h-1l-2 2h-3l-.5-.5v-1L9.5 8h-1L7 6.5v-1l-1-1v-1Z" style="fill:#647b64;stroke:none"/>
        <path d="M15 22.5v-3l1.5-1.5h1l1-1h1l.5-.5v-1l1.5-1.5 2.5 2.5V19h-.5L21 21.5v2l2 2v1l2.5 2.5h1l2 2h1l1.5 1.5v1l2 2v2l2 2 1.5-1.5h1l1.5-1.5 3.5 3.5-5 5h-1l-2 2h-2L31 45.5v-1L26.5 40h-2L22 37.5v-2l-3-3v-2l-1-1v-1l-1-1v-1l-1-1v-2Z" style="stroke:none"/>
        <path d="M21 23.5v-2l2.5-2.5h2l1-1h2l1 1h1l.5.5v2l3 3 2-2 4 4v4l-2 2v2l1 1v1L37.5 38h-1L35 39.5l-2-2v-2l-2-2v-1L29.5 31h-1l-2-2h-1L23 26.5v-1Zm24 19v2l3.5 3.5h2l1.5-1.5v-2l1.5-1.5-3.5-3.5v-1l-1-1-3 3v1Z" style="fill:#465248;stroke:none"/>
        <path d="M45 44.5v-2l1-1v-1l3-3 1 1v1l3.5 3.5-1.5 1.5v2L50.5 48h-2Z" style="fill:#647b64;stroke:none"/>
    </g>
</svg>
