<svg xmlns="http://www.w3.org/2000/svg" width="32" height="32" style="fill-opacity:1;color-rendering:auto;color-interpolation:auto;text-rendering:auto;stroke:#000;stroke-linecap:square;stroke-miterlimit:10;shape-rendering:auto;stroke-opacity:1;fill:#000;stroke-dasharray:none;font-weight:400;stroke-width:1;font-family:&quot;Dialog&quot;;font-style:normal;stroke-linejoin:miter;font-size:12px;stroke-dashoffset:0;image-rendering:auto">
    <g style="stroke-linecap:round;fill:#323935;stroke:#323935">
        <path stroke="none" d="M4 4.5v2L6.5 9h3l3-3-4-4h-2Z" style="stroke:none"/>
    </g>
    <g stroke="none" style="stroke-linecap:round;fill:#465248;stroke:#465248">
        <path d="M4 6.5v-2L6.5 2h2l4 4-3 3h-3Z" style="stroke:none"/>
        <path d="M5 18.5v3l4 4v1l1.5 1.5h3l1.5-1.5v-5l-1-1v-1L10.5 16h-3Z" style="fill:#323935;stroke:none"/>
        <path d="M5 21.5v-3L7.5 16h3l3.5 3.5v1l1 1v5L13.5 28h-3L9 26.5v-1Z" style="stroke:none"/>
        <path d="m16.5 14 8 8h2l1.5-1.5v-1l1-1v-3l-1-1v-1L26.5 12h-1l-1-1h-1l-1-1h-2Z" style="fill:#323935;stroke:none"/>
        <path d="m16.5 14 4-4h2l1 1h1l1 1h1l1.5 1.5v1l1 1v3l-1 1v1L26.5 22h-2Z" style="stroke:none"/>
    </g>
</svg>
