<svg xmlns="http://www.w3.org/2000/svg" width="32" height="32" style="fill-opacity:1;color-rendering:auto;color-interpolation:auto;text-rendering:auto;stroke:#000;stroke-linecap:square;stroke-miterlimit:10;shape-rendering:auto;stroke-opacity:1;fill:#000;stroke-dasharray:none;font-weight:400;stroke-width:1;font-family:&quot;Dialog&quot;;font-style:normal;stroke-linejoin:miter;font-size:12px;stroke-dashoffset:0;image-rendering:auto">
    <g style="stroke-linecap:round;fill:#373050;stroke:#373050">
        <path stroke="none" d="m3.5 28 2 2h2l1-1h1l1-1h1l1-1h2l1-1h5l1 1h2l2-2-3-3h-1l-1-1h-7l-1 1h-2l-1 1h-1Z" style="stroke:none"/>
    </g>
    <g style="stroke-linecap:round;fill:#4d426a;stroke:#4d426a">
        <path stroke="none" d="m3.5 28 5-5h1l1-1h2l1-1h7l1 1h1l3 3-2 2h-2l-1-1h-5l-1 1h-2l-1 1h-1l-1 1h-1l-1 1h-2Z" style="stroke:none"/>
    </g>
</svg>
