<svg xmlns="http://www.w3.org/2000/svg" width="32" height="32" style="fill-opacity:1;color-rendering:auto;color-interpolation:auto;text-rendering:auto;stroke:#000;stroke-linecap:square;stroke-miterlimit:10;shape-rendering:auto;stroke-opacity:1;fill:#000;stroke-dasharray:none;font-weight:400;stroke-width:1;font-family:&quot;Dialog&quot;;font-style:normal;stroke-linejoin:miter;font-size:12px;stroke-dashoffset:0;image-rendering:auto">
    <g style="stroke-linecap:round;fill:#373050;stroke:#373050">
        <path stroke="none" d="M1 8.5v2L2.5 12h2l1-1h2l2-2h1l1-1h1l1-1h1l1-1h1l2-2-2-2h-5l-1 1h-3l-1 1h-1Z" style="stroke:none"/>
    </g>
    <g stroke="none" style="stroke-linecap:round;fill:#4d426a;stroke:#4d426a">
        <path d="M1 10.5v-2L5.5 4h1l1-1h3l1-1h5l2 2-2 2h-1l-1 1h-1l-1 1h-1l-1 1h-1l-2 2h-2l-1 1h-2Z" style="stroke:none"/>
        <path d="M8 25.5v2l2 2 1.5-1.5h1l2-2h2l1-1h1l1-1h1l1-1h3l1.5-1.5v-2L24.5 18h-5l-1 1h-2l-1 1h-1l-2 2h-1Z" style="fill:#373050;stroke:none"/>
        <path d="M8 27.5v-2l3.5-3.5h1l2-2h1l1-1h2l1-1h5l1.5 1.5v2L24.5 23h-3l-1 1h-1l-1 1h-1l-1 1h-2l-2 2h-1L10 29.5Z" style="stroke:none"/>
        <path d="m18.5 12 2 2h6l2-2-3-3h-4Z" style="fill:#373050;stroke:none"/>
        <path d="m18.5 12 3-3h4l3 3-2 2h-6Z" style="stroke:none"/>
    </g>
</svg>
