<svg xmlns="http://www.w3.org/2000/svg" width="32" height="32" style="fill-opacity:1;color-rendering:auto;color-interpolation:auto;text-rendering:auto;stroke:#000;stroke-linecap:square;stroke-miterlimit:10;shape-rendering:auto;stroke-opacity:1;fill:#000;stroke-dasharray:none;font-weight:400;stroke-width:1;font-family:&quot;Dialog&quot;;font-style:normal;stroke-linejoin:miter;font-size:12px;stroke-dashoffset:0;image-rendering:auto">
    <g style="stroke-linecap:round;fill:#282b34;stroke:#282b34">
        <path stroke="none" d="M3.5 6 5 7.5v5l1 1v1L8.5 17h2l2 2h1l1.5 1.5 4-4v-1l1-1v-2L16.5 9h-1l-6-6h-3Z" style="stroke:none"/>
    </g>
    <g stroke="none" style="stroke-linecap:round;fill:#3c4448;stroke:#3c4448">
        <path d="m3.5 6 3-3h3l6 6h1l3.5 3.5v2l-1 1v1l-4 4-1.5-1.5h-1l-2-2h-2L6 14.5v-1l-1-1v-5Z" style="stroke:none"/>
        <path d="M17 3.5v2l6 6v1l2.5 2.5h3l1.5-1.5v-2l-1-1v-1l-2-2v-1L21.5 1h-2Z" style="fill:#282b34;stroke:none"/>
        <path d="M17 5.5v-2L19.5 1h2L27 6.5v1l2 2v1l1 1v2L28.5 15h-3L23 12.5v-1Z" style="stroke:none"/>
    </g>
</svg>
