<svg xmlns="http://www.w3.org/2000/svg" width="32" height="32" style="fill-opacity:1;color-rendering:auto;color-interpolation:auto;text-rendering:auto;stroke:#000;stroke-linecap:square;stroke-miterlimit:10;shape-rendering:auto;stroke-opacity:1;fill:#000;stroke-dasharray:none;font-weight:400;stroke-width:1;font-family:&quot;Dialog&quot;;font-style:normal;stroke-linejoin:miter;font-size:12px;stroke-dashoffset:0;image-rendering:auto">
    <g style="stroke-linecap:round;fill:#3c4448;stroke:#3c4448">
        <path stroke="none" d="M.5 2V.5H2L5.5 4h3l1 1h1l1 1h2l1 1h4l3-3h2L27 7.5v1l1 1v4L23.5 18l1.5 1.5v1l2 2v3l1 1v1l3.5 3.5v.5H31l-4-4v-1l-.5-.5h-3l-2 2h-4L15 30.5l-4-4v-1l-1-1v-2l3-3v-3l-2-2L8.5 17l-5-5L5 10.5v-1L6.5 8Z" style="stroke:none"/>
    </g>
    <g stroke="none" style="stroke-linecap:round;fill:#282b34;stroke:#282b34">
        <path d="M6.5 8 5 9.5v1L3.5 12l5 5 2.5-2.5 2 2v3l-3 3v2l1 1v1l4 4 2.5-2.5h4l2-2h3l.5.5v1l4 4H.5V2Z" style="stroke:none"/>
        <path d="M2 .5h29.5V31L28 27.5v-1l-1-1v-3l-2-2v-1L23.5 18l4.5-4.5v-4l-1-1v-1L23.5 4h-2l-3 3h-4l-1-1h-2l-1-1h-1l-1-1h-3Z" style="fill:#5b6567;stroke:none"/>
        <path d="m14.5 21 5 5 3-3-2.5-2.5v-1l-2-2Zm1-10 4 4h2l2-2-4-4h-2Z" style="fill:#3c4448;stroke:none"/>
        <path d="m14.5 21 3.5-3.5 2 2v1l2.5 2.5-3 3Z" style="stroke:none"/>
        <path d="m15.5 11 2-2h2l4 4-2 2h-2Z" style="fill:#5b6567;stroke:none"/>
    </g>
</svg>
