<svg xmlns="http://www.w3.org/2000/svg" width="96" height="96" style="fill-opacity:1;color-rendering:auto;color-interpolation:auto;text-rendering:auto;stroke:#000;stroke-linecap:square;stroke-miterlimit:10;shape-rendering:auto;stroke-opacity:1;fill:#000;stroke-dasharray:none;font-weight:400;stroke-width:1;font-family:&quot;Dialog&quot;;font-style:normal;stroke-linejoin:miter;font-size:12px;stroke-dashoffset:0;image-rendering:auto">
    <g style="stroke-linecap:round;fill:#282b34;stroke:#282b34">
        <path stroke="none" d="M4 31.5v-2l1-1v-1L6.5 26h1l1-1h1l6.5-6.5v-2l1-1v-1l1.5-1.5h4l2-2h1L27 9.5v-1L32.5 3h1l1-1h2l1 1h4l2 2h1l1 1h2l2-2h6l1 1h2l3 3h1L64 9.5 65.5 8h1l1-1h2l1-1h9l6.5 6.5v4l1 1v6l2 2v2l-1 1v7l2 2v1l3 3v4l2 2v3L89.5 56l1.5 1.5v6l-1 1v1L87.5 68h-1L82 72.5v1l-5 5v5l-1 1v2L73.5 89h-5l-1-1h-3l-1 1h-1l-1 1h-1l-1 1h-1l-1 1h-2l-2 2h-3l-2-2h-3l-1 1h-2l-1 1h-3l-4-4h-3l-1 1h-2l-1-1h-2l-2-2h-2l-4-4h-3l-1-1h-3L6 78.5v-1l-2-2v-2l1-1v-1l2-2v-8l-1-1v-1l-1-1v-2l-1-1v-6l2-2v-4l1-1v-2l1-1v-2l-3-3v-2Z" style="stroke:none"/>
    </g>
    <g stroke="none" style="stroke-linecap:round;fill:#282b34;stroke:#282b34">
        <path d="M8 49.5v6l1 1v2l1 1v1l1 1v4l1.5 1.5-1.5 1.5v1l-2 2v1l-1 1v2l2 2v1l.5.5h4l1-1h7l1-1h4l1.5-1.5 4.5 4.5h1l.5.5v2l1 1v2l1 1v2l1.5 1.5h3l1-1h2l1-1h3l2 2h3l1.5-1.5v-1l.5-.5h1l1.5-1.5v-1l1.5-1.5h8l1.5-1.5v-1l1-1v-1l1-1v-2L69.5 74h-2l-1 1h-1l-2 2h-1l3-3-1.5-1.5v-2l1-1 1.5 1.5 2.5-2.5v-1l1-1v-1l1.5-1.5h1l2.5-2.5v-1l3-3v-2l1-1v-3l1-1v-5l-1-1v-5l1 1v2l5 5v2L81.5 53h-1l-.5.5v4l-2 2v3l-1 1v1l-5 5v1L70.5 72l3 3h3l1.5-1.5v-1l3-3v-2l3-3v-7l7-7v-3L89.5 46h-1L87 44.5v-1l-2-2v-3l-1-1v-1l-1-1v-2l1-1v-4l1-1v-2L83.5 24h-3l-1-1h-1l-2-2 2.5-2.5v-3L77.5 14h-3l-1-1h-1l-2-2h-3l-1 1h-4l-1 1h-1l-1 1h-2l-3-3h-5l-1-1h-4l-1-1h-1l-2-2h-3l-1-1h-2l-1 1h-1L31 8.5v2l-1 1v1L26.5 16l3 3h3l2-2h2l1-1h2l2-2h1l1.5-1.5 1.5 1.5h1l2 2h3l2 2h1l1 1h-4l-1-1h-4l-1-1h-5l-1 1h-1l-2 2h-1l-2 2h-1l-.5.5v1l-1 1v1L29.5 27 28 25.5l-5 5v2l-1 1v1l-.5.5-1.5-1.5v-4l1-1v-1l1.5-1.5h1l.5-.5v-1l1-1v-2l1.5-1.5-1-1h-2l-3 3h-1l-3 3h-1L14 26.5v3l-1 1v3l-1 1v5l-1 1v6Z" style="stroke:none"/>
        <path d="M8 55.5v-6l3-3v-6l1-1v-5l1-1v-3l1-1v-3l1.5-1.5h1l3-3h1l3-3h2l1 1-1.5 1.5v2l-1 1v1l-.5.5h-1L21 27.5v1l-1 1v4l1.5 1.5-1.5 1.5v1l-5 5v5l-1 1v3l3 3v2l-1 1v5l1 1v2l1 1v1l1.5 1.5h2l1.5 1.5 2-2 1.5 1.5h1l1 1h3l3 3h1l4 4h1l1 1h2l1 1h1l1 1h4l1.5 1.5 4.5-4.5h3l1-1h3l2-2h1l1-1h2l1.5 1.5v2l-1 1v1l-1 1v1L67.5 83h-8L58 84.5v1L56.5 87h-1l-.5.5v1L53.5 90h-3l-2-2h-3l-1 1h-2l-1 1h-3L37 88.5v-2l-1-1v-2l-1-1v-2l-.5-.5h-1L29 75.5 27.5 77h-4l-1 1h-7l-1 1h-4l-.5-.5v-1l-2-2v-2l1-1v-1l2-2v-1l1.5-1.5-1.5-1.5v-4l-1-1v-1l-1-1v-2Z" style="fill:#151522;stroke:none"/>
        <path d="M14 51.5v-3l1-1v-5l3.5-3.5 1 1-1.5 1.5v2l-1 1v10Zm4 7v2l2.5 2.5h1l2 2h1l2.5 2.5v1l1.5 1.5h2l1 1h-3l-1-1h-1L25 68.5l-2 2-1.5-1.5h-2L18 67.5v-1l-1-1v-2l-1-1v-5l.5-.5Z" style="stroke:none"/>
        <path d="m16.5 57 .5-.5v-12l1-1v-2l1.5-1.5-1-1 1.5-1.5v-1l2-2v-1l1-1v-2l5-5 2 2-1 1v1l-1 1v1l-2 2v2l-1 1v1l-1 1v1l-2 2v3l-1 1v8l1 1v2l1 1v2l.5.5h1l3 3h1l4 4h4l3 3h1l1 1h1l3 3h1l1.5 1.5 1.5-1.5h2l1-1h4l1-1h4l1-1H64v1.5l1.5 1.5-3 3h-8l-1 1h-2l-1 1h-3l-1-1h-2l-2-2h-2l-3-3h-1l-2-2h-3l-1-1h-2L27 68.5v-1L24.5 65h-1l-2-2h-1L18 60.5v-2Z" style="fill:#3c4448;stroke:none"/>
        <path d="M21 53.5v-8l1-1v-3l2-2v-1l1-1v-1l1-1v-2l2-2v-1l1-1v-1l1-1 .5.5h2l3-3h1l3-3h1l1-1h3l1 1h1l1 1h6l1 1h5l1 1h1l2.5 2.5v1l3.5 3.5h1l1 1h1l1.5 1.5v1l1 1v3l1 1v1l1 1v6l-1 1v4l-2 2v1L70.5 58h-1l-1 1h-1L65 61.5v1l-1 1v3l1 1v2l-1 1v.5h-1.5l-1 1h-4l-1 1h-4l-1 1h-2L48 75.5 46.5 74h-1l-3-3h-1l-1-1h-1l-3-3h-4l-4-4h-1l-3-3h-1l-.5-.5v-2l-1-1v-2Z" style="fill:#06060c;stroke:none"/>
        <path d="m26.5 16 3.5-3.5v-1l1-1v-2L32.5 7h1l1-1h2l1 1h3l2 2h1l1 1h4l1 1h5l3 3h2l1-1h1l1-1h4l1-1h3l2 2h1l1 1h3l1.5 1.5v3L76.5 21l2 2h1l1 1h3l1.5 1.5v2l-1 1v4l-1 1v2l1 1v1l1 1v3l2 2v1l1.5 1.5h1l1.5 1.5v3l-7 7v7l-3 3v2l-3 3v1L76.5 75h-3l-3-3 1.5-1.5v-1l5-5v-1l1-1v-3l2-2v-4l.5-.5h1l3.5-3.5v-2l-5-5v-2l-1-1v-5l-1-1v-1l-2-2v-2l-2-2v-3L71.5 21h-1l-3-3h-5l-2 2h-1l-1-1h-3l-1-1h-1l-2-2h-3l-2-2h-1L44 12.5 42.5 14h-1l-2 2h-2l-1 1h-2l-2 2h-3Z" style="fill:#3c4448;stroke:none"/>
        <path d="m30.5 28-1-1 1.5-1.5v-1l1-1v-1l.5-.5h1l2-2h1l2-2h1l1-1h5l1 1h4l1 1h7l1 1h1l.5-.5 1.5 1.5h1l7 7h1l2 2h1l2.5 2.5v2l2 2v8l1 1v5l-1 1v3l-1 1v2l-3 3v1L72.5 64h-1L70 65.5v1l-1 1v1L66.5 71 65 69.5v-2l-1-1v-3l1-1v-1l2.5-2.5h1l1-1h1l1.5-1.5v-1l2-2v-4l1-1v-6l-1-1v-1l-1-1v-3l-1-1v-1L70.5 33h-1l-1-1h-1L64 28.5v-1L61.5 25h-1l-1-1h-5l-1-1h-6l-1-1h-1l-1-1h-3l-1 1h-1l-3 3h-1l-3 3Z" style="fill:#151522;stroke:none"/>
        <path d="M31.5 71h3l2 2h1l3 3h2l2 2h2l1 1h3l1-1h2l1-1h6l-1 1h-3L52 82.5 50.5 81h-4l-1-1h-1l-1-1h-2l-1-1h-1l-4-4h-1ZM61 19.5l1.5-1.5h5l3 3h1l2.5 2.5v3l2 2v2l2 2v1l1 1v2l-2-2v-2L74.5 30h-1l-2-2h-1l-7-7h-1Z" style="stroke:none"/>
    </g>
</svg>
