<svg xmlns="http://www.w3.org/2000/svg" width="64" height="64" style="fill-opacity:1;color-rendering:auto;color-interpolation:auto;text-rendering:auto;stroke:#000;stroke-linecap:square;stroke-miterlimit:10;shape-rendering:auto;stroke-opacity:1;fill:#000;stroke-dasharray:none;font-weight:400;stroke-width:1;font-family:&quot;Dialog&quot;;font-style:normal;stroke-linejoin:miter;font-size:12px;stroke-dashoffset:0;image-rendering:auto">
    <g style="stroke-linecap:round;fill:#3c4448;stroke:#3c4448">
        <path stroke="none" d="M.5 2V.5H3l3 3v1l1 1v1L8.5 8h1L11 9.5v1l.5.5h1l1.5 1.5 1.5-1.5h1l.5-.5v-1L20.5 6h2l1 1h3l1-1h1l1-1h5l1 1h1l1 1h1l2 2h3l1-1h1l2-2h6L56 8.5v4l-5 5-2-2v-1l-2-2-3 3v1l-.5.5h-3l-2-2h-4L33 13.5v-1L31.5 11h-2l-1 1h-3L23 14.5l1 1v1L21.5 14 20 15.5v1l-.5.5h-1l-1 1h-1L15 19.5v3l2 2v1l1 1v1l3 3v3L19.5 35l2.5 2.5-1.5 1.5h-1L18 40.5V42h-1.5l-1 1h-1l-3 3 1.5 1.5v1l3.5 3.5h2l1.5-1.5 4 4-.5.5h-1l-2 2h-1l-1 1-1-1h-2l-4-4h-1l-.5-.5v-1L8.5 50h-1l-.5-.5v-1L5.5 47h-1l-1-1 4-4h1l1.5-1.5v-1l1-1v-3l-2-2v-1l-1-1v-2L4.5 26l3-3h1l.5-.5v-1l1-1v-1l1-1v-1l1.5-1.5-1.5-1.5v-1l-1-1v-1Z" style="stroke:none"/>
    </g>
    <g stroke="none" style="stroke-linecap:round;fill:#282b34;stroke:#282b34">
        <path d="M10 11.5v1l1 1v1l1.5 1.5-1.5 1.5v1l-1 1v1l-1 1v1l-.5.5h-1l-3 3L8 29.5v2l1 1v1l2 2v3l-1 1v1L8.5 42h-1l-4 4 1 1h1L7 48.5v1l.5.5h1l1.5 1.5v1l.5.5h1l4 4h2l1 1 1-1h1l2-2h1l.5-.5-4-4-1.5 1.5h-2L13 48.5v-1L11.5 46l3-3h1l1-1H19v.5l2 2v2l1.5 1.5h1l2 2h6l1 1h2l.5.5v1l1.5 1.5h1l1.5 1.5 6-6 2.5 2.5h2l6 6h1l5.5 5.5H.5V2Z" style="stroke:none"/>
        <path d="M3 .5h60.5V62l-1-1h-1L60 59.5v-1l-2-2v-1l-1-1v-1l-1-1v-1l-1-1v-2l1-1v-2l1-1v-2l-2-2v-1l-2-2v-3l2-2v-2l-2-2v-1L51.5 26h-2L47 28.5v2l1.5 1.5-1.5 1.5v1l-5 5-3-3v-1l-1-1v-9L34.5 22h-1l-3-3h-1l-1-1h-2l-1 1H24v-3.5l-1-1 2.5-2.5h3l1-1h2l1.5 1.5v1l1.5 1.5h4l2 2h3l.5-.5v-1l3-3 2 2v1l2 2 5-5v-4L53.5 6h-6l-2 2h-1l-1 1h-3l-2-2h-1l-1-1h-1l-1-1h-5l-1 1h-1l-1 1h-3l-1-1h-2L17 9.5v1l-.5.5h-1L14 12.5 12.5 11h-1l-.5-.5v-1L9.5 8h-1L7 6.5v-1l-1-1v-1Z" style="fill:#5b6567;stroke:none"/>
        <path d="M15 22.5v-3l1.5-1.5h1l1-1h1l.5-.5v-1l1.5-1.5 2.5 2.5V19h-.5L21 21.5v2l1.5 1.5h1l1 1h2l1.5 1.5v2l-2 2 1.5 1.5h3l2.5 2.5v2l2 2 1.5-1.5h1l1.5-1.5 3.5 3.5-5.5 5.5-1.5-1.5h-2l-.5.5-1.5-1.5h-2l-3-3h-2l-5-5 1.5-1.5v-3l-3-3v-1l-1-1v-1Z" style="stroke:none"/>
        <path d="M18 42v-1.5l1.5-1.5h1l1.5-1.5 2.5 2.5h2l3 3h2l2.5 2.5v2L31.5 50h-3L27 48.5v-3L25.5 44h-1l-1-1h-3l-1-1Z" style="fill:#5b6567;stroke:none"/>
        <path d="m20 43.5-1-1V42h.5l.5.5Zm1-20v-2l2.5-2.5h2l1-1h2l1 1h1l3 3h1l3.5 3.5v9l1 1v1L37.5 38h-1L35 39.5l-2-2v-2L30.5 33h-3L26 31.5l2-2v-2L26.5 26h-2l-1-1h-1Z" style="fill:#3c4448;stroke:none"/>
        <path d="M21 46.5v-2l-2-2V42h.5l1 1h3l1 1h1l1.5 1.5v3l1.5 1.5h-3l-2-2h-1ZM32.5 51l-1-1 2.5-2.5v-2l-1-1 .5-.5h2l1.5 1.5 5.5-5.5-.5-.5 5-5v-1l1.5-1.5-1.5-1.5v-2l2.5-2.5h2l1.5 1.5v1l2 2v2l-2 2v3l2 2v1l2 2v2l-1 1v2l-1 1v2l1 1v1l1 1v1l1 1v1l2 2v1l1.5 1.5h1l1 1v1.5H62L56.5 58h-1l-6-6h-2L45 49.5l-6 6-1.5-1.5h-1L35 52.5v-1l-.5-.5Z" style="fill:#3c4448;stroke:none"/>
        <path d="M46 40.5v3l4 4 2-2v-1l1.5-1.5-3.5-3.5v-1l-1-1Z" style="fill:#3c4448;stroke:none"/>
        <path d="M46 43.5v-3l3-3 1 1v1l3.5 3.5-1.5 1.5v1l-2 2Z" style="fill:#5b6567;stroke:none"/>
    </g>
</svg>
