<svg xmlns="http://www.w3.org/2000/svg" width="32" height="32" style="fill-opacity:1;color-rendering:auto;color-interpolation:auto;text-rendering:auto;stroke:#000;stroke-linecap:square;stroke-miterlimit:10;shape-rendering:auto;stroke-opacity:1;fill:#000;stroke-dasharray:none;font-weight:400;stroke-width:1;font-family:&quot;Dialog&quot;;font-style:normal;stroke-linejoin:miter;font-size:12px;stroke-dashoffset:0;image-rendering:auto">
    <g style="stroke-linecap:round;fill:#282b34;stroke:#282b34">
        <path stroke="none" d="M3 2.5v1L5.5 6h1L9 8.5v2l-1 1v1l-1 1v1l-3 3v5l2 2 2-2L9.5 24h1l3 3h3l1-1h2l1 1h1l1 1h5l3.5 3.5H.5V.5H1Z" style="stroke:none"/>
    </g>
    <g stroke="none" style="stroke-linecap:round;fill:#3c4448;stroke:#3c4448">
        <path d="m2 1.5-1-1h1Z" style="stroke:none"/>
        <path d="M2 .5h29.5V31L27 26.5v-1L24.5 23l3.5-3.5v-1l1-1v-2l-2-2-2 2v1l-2 2v1l-2 2-2-2v-1l-1-1v-5L16.5 11l5-5-2-2h-2l-1 1h-1L13 7.5 10.5 5h-1L8 3.5 6.5 5Z" style="fill:#5b6567;stroke:none"/>
        <path d="M6.5 5 8 3.5 9.5 5h1L13 7.5 15.5 5h1l1-1h2l2 2-5 5 1.5 1.5v5l1 1v1l2 2 2-2v-1l2-2v-1l2-2 2 2v2l-1 1v1L24.5 23l2.5 2.5v1l4.5 4.5v.5H31L27.5 28h-5l-1-1h-1l-1-1h-2l-1 1h-3l-3-3h-1L8 22.5l-2 2-2-2v-5l3-3v-1l1-1v-1l1-1v-2L6.5 6h-1L3 3.5v-1l-2-2h1Z" style="stroke:none"/>
        <path d="m7.5 17 2.5 2.5v1l2 2 3.5-3.5-5-5Z" style="stroke:none"/>
        <path d="m7.5 17 3-3 5 5-3.5 3.5-2-2v-1Z" style="fill:#282b34;stroke:none"/>
    </g>
</svg>
