<svg xmlns="http://www.w3.org/2000/svg" width="32" height="32" style="fill-opacity:1;color-rendering:auto;color-interpolation:auto;text-rendering:auto;stroke:#000;stroke-linecap:square;stroke-miterlimit:10;shape-rendering:auto;stroke-opacity:1;fill:#000;stroke-dasharray:none;font-weight:400;stroke-width:1;font-family:&quot;Dialog&quot;;font-style:normal;stroke-linejoin:miter;font-size:12px;stroke-dashoffset:0;image-rendering:auto">
    <g style="stroke-linecap:round;fill:#54545b;stroke:#54545b">
        <path stroke="none" d="M3 20.5v5l3 3L7.5 27h1l2.5-2.5v-4l1.5-1.5-3-3h4l3-3-2-2h-1l-1-1h-1L8 6.5 9.5 5h1l2-2-2-2h-3L5 3.5v1l-1 1v3l1 1v1l1 1v1L9.5 16h-2Z" style="stroke:none"/>
    </g>
    <g stroke="none" style="stroke-linecap:round;fill:#666;stroke:#666">
        <path d="M3 24v-3.5L7.5 16h2l3 3-1.5 1.5v.5H9.5l-2 2h-1l-1 1Z" style="stroke:none"/>
        <path d="M3 25.5V24h2.5l1-1h1l2-2H11v3.5L8.5 27h-1L6 28.5Zm1-17v-3l1-1v-1L7.5 1h3l2 2-2 2h-1L8 6.5l3.5 3.5h1l1 1h1l2 2-3 3h-4L6 12.5v-1l-1-1v-1Z" style="fill:#3b3b45;stroke:none"/>
        <path d="M15.5 6 17 7.5v1l7.5 7.5h2l2-2-1.5-1.5v-1L20.5 5h-1L18 3.5Zm.5 15.5v2l3.5 3.5h1l1.5 1.5 2-2v-3l-5-5Z" style="fill:#54545b;stroke:none"/>
        <path d="M15.5 6 18 3.5 19.5 5h1l6.5 6.5v1l1.5 1.5-2 2h-2L17 8.5v-1Zm.5 17.5v-2l3-3 5 5v3l-2 2-1.5-1.5h-1Z" style="fill:#3b3b45;stroke:none"/>
        <path d="M24 4.5v2l2 2L29.5 5l-2-2h-2Z" style="fill:#54545b;stroke:none"/>
        <path d="M24 6.5v-2L25.5 3h2l2 2L26 8.5Z" style="stroke:none"/>
    </g>
</svg>
