<svg xmlns="http://www.w3.org/2000/svg" width="64" height="64" style="fill-opacity:1;color-rendering:auto;color-interpolation:auto;text-rendering:auto;stroke:#000;stroke-linecap:square;stroke-miterlimit:10;shape-rendering:auto;stroke-opacity:1;fill:#000;stroke-dasharray:none;font-weight:400;stroke-width:1;font-family:&quot;Dialog&quot;;font-style:normal;stroke-linejoin:miter;font-size:12px;stroke-dashoffset:0;image-rendering:auto">
    <g style="stroke-linecap:round">
        <path stroke="none" d="M4 53.5v-4l2-2v-1l2-2v-1l1-1v-1l1-1v-1l1-1v-2l1-1v-1l2-2v-1l1-1v-1l5.5-5.5h1l5-5h12l1 1h1l1 1h2l2.5 2.5v1l1 1v3L43.5 32h-4l-.5.5v1l-2 2v1l-1 1v3l-2 2v1l-1 1v2l1 1v3l-1 1v1L29.5 56h-2l-3 3h-1l-3 3h-7l-1-1h-1l-2-2h-1L5 55.5v-1Z" style="stroke:none"/>
    </g>
    <g style="stroke-linecap:round">
        <path stroke="none" d="m38 40.5 1-1v-3l3-3 1.5 1.5 1.5-1.5 2 2-1 1v2l1.5 1.5-2 2h-6Z" style="stroke:none"/>
    </g>
</svg>
