<svg xmlns="http://www.w3.org/2000/svg" width="64" height="64" style="fill-opacity:1;color-rendering:auto;color-interpolation:auto;text-rendering:auto;stroke:#000;stroke-linecap:square;stroke-miterlimit:10;shape-rendering:auto;stroke-opacity:1;fill:#000;stroke-dasharray:none;font-weight:400;stroke-width:1;font-family:&quot;Dialog&quot;;font-style:normal;stroke-linejoin:miter;font-size:12px;stroke-dashoffset:0;image-rendering:auto">
    <g style="stroke-linecap:round">
        <path stroke="none" d="M9 47.5v-3l1-1v-1l1-1v-2l1-1v-4l1-1v-2l1-1v-3l1.5-1.5-1.5-1.5 1-1v-2l2-2v-1l1.5-1.5 2.5 2.5v3l1 1v1l1.5 1.5h2l1 1 1.5-1.5v-1l1.5-1.5.5.5v1l.5.5h2l1 1h3l1-1h1l1.5-1.5v-1l2.5-2.5 1 1h1l3.5 3.5v1l1.5 1.5h1l1.5 1.5v1l1 1v5l-1 1v6l-1 1v5l-2 2v1l-.5.5h-1l-2 2h-2l-1 1h-2l-1 1h-3l-1 1h-2L32 55.5 30.5 57h-2l-1-1h-6l-1-1h-1l-2-2h-1l-1-1h-1l-1-1h-1Z" style="stroke:none"/>
    </g>
    <g style="stroke-linecap:round">
        <path stroke="none" d="m33 19.5 3-3 2.5 2.5-3 3Z" style="stroke:none"/>
    </g>
</svg>
