<svg xmlns="http://www.w3.org/2000/svg" width="64" height="64" style="fill-opacity:1;color-rendering:auto;color-interpolation:auto;text-rendering:auto;stroke:#000;stroke-linecap:square;stroke-miterlimit:10;shape-rendering:auto;stroke-opacity:1;fill:#000;stroke-dasharray:none;font-weight:400;stroke-width:1;font-family:&quot;Dialog&quot;;font-style:normal;stroke-linejoin:miter;font-size:12px;stroke-dashoffset:0;image-rendering:auto">
    <g style="stroke-linecap:round;fill:#fff;stroke:#fff">
        <path stroke="none" d="M11 36.5v-6l1-1v-1l1-1v-1l.5-.5h1l2-2-1.5-1.5v-1l-2-2v-4l1-1v-2l1-1v-1l1-1v-1l1-1v-1L20.5 3h4l1 1h1l1 1h2l1-1h1L33 2.5l4 4L39.5 4h1L42 2.5 43.5 4l1-1h3l.5.5v1l4 4v1l1 1v2l1 1v2l1 1v3l-1 1v1l-1 1v2l-1 1v4l-1 1v2l-1 1v3l1.5 1.5-1.5 1.5v2L46.5 45l-1-1h-2l-2-2h-1l-2-2h-4L31 43.5v1L28.5 47h-7l-1 1h-4L15 46.5v-1l-2-2v-1l-1-1v-4Z" style="stroke:none"/>
    </g>
    <g style="stroke-linecap:round;fill:#fff;stroke:#fff">
        <path stroke="none" d="M33 49.5v-4l1.5-1.5h2l3.5 3.5v2L38.5 51h-4Zm11.5-.5 2-2h1l1-1h2l2 2-3 3h-3Z" style="stroke:none"/>
    </g>
</svg>
