<svg xmlns="http://www.w3.org/2000/svg" width="64" height="64" style="fill-opacity:1;color-rendering:auto;color-interpolation:auto;text-rendering:auto;stroke:#000;stroke-linecap:square;stroke-miterlimit:10;shape-rendering:auto;stroke-opacity:1;fill:#000;stroke-dasharray:none;font-weight:400;stroke-width:1;font-family:&quot;Dialog&quot;;font-style:normal;stroke-linejoin:miter;font-size:12px;stroke-dashoffset:0;image-rendering:auto">
    <g style="stroke-linecap:round">
        <path stroke="none" d="M2 25.5v-2l1-1v-1l1-1v-1l9.5-9.5h1l1-1h4l1 1h1l1.5 1.5L25.5 9h3l1 1h1l1 1h3l2 2h1l1.5 1.5 2-2 4.5 4.5h2l4 4-1.5 1.5v1L46.5 27h-1l-1 1h-1l-.5.5v1l-1 1v2l1.5 1.5h1l2.5 2.5v1l2.5 2.5-2 2h-1l-.5.5v1l-1 1v1l-3 3v1L39.5 52h-2L36 53.5v1L34.5 56h-5l-2-2h-2l-2 2h-2l-2-2h-4l-1-1h-1L10 49.5 8.5 51h-2L4 48.5v-2l-1-1v-3l-1-1v-12l1-1v-2Z" style="stroke:none"/>
    </g>
    <g style="stroke-linecap:round">
        <path stroke="none" d="M47 32.5v-2l2.5-2.5h2l1.5 1.5v4L51.5 35h-2Z" style="stroke:none"/>
    </g>
</svg>
