<svg xmlns="http://www.w3.org/2000/svg" width="64" height="64" style="fill-opacity:1;color-rendering:auto;color-interpolation:auto;text-rendering:auto;stroke:#000;stroke-linecap:square;stroke-miterlimit:10;shape-rendering:auto;stroke-opacity:1;fill:#000;stroke-dasharray:none;font-weight:400;stroke-width:1;font-family:&quot;Dialog&quot;;font-style:normal;stroke-linejoin:miter;font-size:12px;stroke-dashoffset:0;image-rendering:auto">
    <g style="stroke-linecap:round">
        <path stroke="none" d="M18 25.5v-3l1.5-1.5h1l1.5-1.5 1.5 1.5 1-1 1 1 3-3h3l1.5-1.5 1.5 1.5h1l4 4h1l1.5 1.5v2l.5.5h1l4.5 4.5v1l1 1v1l.5.5h1l1 1h1l2.5 2.5v1l1 1v1l1 1v3l1 1v2l1 1v4L56.5 55h-2l-1-1-.5.5 1.5 1.5-2.5 2.5v1L50.5 61h-2l-1 1h-2l-1-1h-2l-1-1h-1l-4-4h-5l-1-1h-1L27 52.5v-1l-1-1v-2l-1-1v-5l1-1-1-1v-1l-2-2v-1l-1-1v-5l-3-3v-1Z" style="stroke:none"/>
    </g>
</svg>
