<svg xmlns="http://www.w3.org/2000/svg" width="64" height="64" style="fill-opacity:1;color-rendering:auto;color-interpolation:auto;text-rendering:auto;stroke:#000;stroke-linecap:square;stroke-miterlimit:10;shape-rendering:auto;stroke-opacity:1;fill:#000;stroke-dasharray:none;font-weight:400;stroke-width:1;font-family:&quot;Dialog&quot;;font-style:normal;stroke-linejoin:miter;font-size:12px;stroke-dashoffset:0;image-rendering:auto">
    <g style="stroke-linecap:round">
        <path stroke="none" d="M10 21.5v-5l2-2v-1l1.5-1.5 1 1 .5-.5v-3L17.5 7h2l3 3h6l2 2h1l3.5 3.5v1l1 1v1l1 1v1l3 3v1l1 1v1l1 1v3l2 2v1l1 1v7l-2 2-2.5-2.5h-2L37 42.5 35.5 41h-2l-2-2h-1l-2-2h-1l-1-1h-3l-2-2h-1L12 25.5v-1l-1-1v-1Z" style="stroke:none"/>
    </g>
    <g style="stroke-linecap:round">
        <path stroke="none" d="m21.5 5 3-3h2L28 3.5v1L29.5 6l-2 2h-2l-1-1h-1Zm1 36 2-2h3l3 3-2 2h-2l-1-1h-1Z" style="stroke:none"/>
    </g>
</svg>
