<svg xmlns="http://www.w3.org/2000/svg" width="64" height="64" style="fill-opacity:1;color-rendering:auto;color-interpolation:auto;text-rendering:auto;stroke:#000;stroke-linecap:square;stroke-miterlimit:10;shape-rendering:auto;stroke-opacity:1;fill:#000;stroke-dasharray:none;font-weight:400;stroke-width:1;font-family:&quot;Dialog&quot;;font-style:normal;stroke-linejoin:miter;font-size:12px;stroke-dashoffset:0;image-rendering:auto">
    <g style="stroke-linecap:round;fill:#fff;stroke:#fff">
        <path stroke="none" d="m10.5 35 3-3h2l3 3-4 4Z" style="stroke:none"/>
    </g>
    <g style="stroke-linecap:round;fill:#fff;stroke:#fff">
        <path stroke="none" d="m14 42.5 2.5-2.5h2l1 1h1l1 1h3l1-1h1l.5-.5-3-3v-1l-1-1v-2L20.5 31h-1l-3-3 2-2h1l.5-.5v-2l1-1-.5-.5h-1L18 20.5l1-1v-1l4.5-4.5h1l2-2h1l1-1h5l3-3h2l2 2h2L44 8.5l2.5 2.5h2l2 2h1l1 1h1l1 1h1l1.5 1.5v1l2 2v2l1 1v2l1 1v2l1 1v1l1 1v6l-1 1v1L60.5 40l2.5 2.5v3l-1 1v1L59.5 50h-2L56 51.5v1L53.5 55h-2l-1 1h-6l-1-1h-1l-1-1h-2l-2-2h-9l-1-1h-2l-1-1h-2l-3-3h-1Z" style="stroke:none"/>
    </g>
</svg>
