<svg xmlns="http://www.w3.org/2000/svg" width="32" height="32" style="fill-opacity:1;color-rendering:auto;color-interpolation:auto;text-rendering:auto;stroke:#000;stroke-linecap:square;stroke-miterlimit:10;shape-rendering:auto;stroke-opacity:1;fill:#000;stroke-dasharray:none;font-weight:400;stroke-width:1;font-family:&quot;Dialog&quot;;font-style:normal;stroke-linejoin:miter;font-size:12px;stroke-dashoffset:0;image-rendering:auto">
    <g style="stroke-linecap:round;fill:#54545b;stroke:#54545b">
        <path stroke="none" d="M3.5 8 5 9.5v1l.5.5h1L8 12.5 9.5 11h1l.5-.5v-1L12.5 8 11 6.5v-1l-.5-.5h-1L8 3.5 6.5 5h-1l-.5.5v1Z" style="stroke:none"/>
    </g>
    <g stroke="none" style="stroke-linecap:round;fill:#666;stroke:#666">
        <path d="M3.5 8 5 6.5v-1l.5-.5h1L8 3.5 9.5 5h1l.5.5v1L12.5 8 11 9.5v1l-.5.5h-1L8 12.5 6.5 11h-1l-.5-.5v-1Z" style="stroke:none"/>
        <path d="M7.5 22 9 23.5v1l.5.5h1l1 1h1l1 1h1l1.5 1.5 1.5-1.5h1l.5-.5v-1l1.5-1.5-1.5-1.5v-1l-.5-.5h-1l-1-1h-7Z" style="fill:#54545b;stroke:none"/>
        <path d="m7.5 22 2-2h7l1 1h1l.5.5v1l1.5 1.5-1.5 1.5v1l-.5.5h-1L16 28.5 14.5 27h-1l-1-1h-1l-1-1h-1l-.5-.5v-1Z" style="stroke:none"/>
        <path d="m23.5 10 2.5 2.5 2.5-2.5L26 7.5Z" style="fill:#54545b;stroke:none"/>
        <path d="M23.5 10 26 7.5l2.5 2.5-2.5 2.5Z" style="stroke:none"/>
    </g>
</svg>
