<svg xmlns="http://www.w3.org/2000/svg" width="32" height="32" style="fill-opacity:1;color-rendering:auto;color-interpolation:auto;text-rendering:auto;stroke:#000;stroke-linecap:square;stroke-miterlimit:10;shape-rendering:auto;stroke-opacity:1;fill:#000;stroke-dasharray:none;font-weight:400;stroke-width:1;font-family:&quot;Dialog&quot;;font-style:normal;stroke-linejoin:miter;font-size:12px;stroke-dashoffset:0;image-rendering:auto">
    <g style="stroke-linecap:round;fill:#54545b;stroke:#54545b">
        <path stroke="none" d="M4 11.5v11l1 1v1L7.5 27h1l1 1h3l1 1h1l2 2h6l1-1h1l5.5-5.5v-1l1.5-1.5v9.5H.5V.5h31V19l-.5-.5v-1l-1-1v-1L20.5 6h-1l-1-1h-1l-1-1h-5l-1 1h-1l-1 1h-1L6 7.5v1l-1 1v1Z" style="stroke:none"/>
    </g>
    <g stroke="none" style="stroke-linecap:round;fill:#666;stroke:#666">
        <path d="M4 22.5v-11l1-1v-1l1-1v-1L7.5 6h1l1-1h1l1-1h5l1 1h1l1 1h1l9.5 9.5v1l1 1v1l.5.5v3L30 23.5v1L24.5 30h-1l-1 1h-6l-2-2h-1l-1-1h-3l-1-1h-1L5 24.5v-1Z" style="stroke:none"/>
        <path d="M8 11.5v10l2.5 2.5h3l1 1h1l2 2h4l1-1h1l2.5-2.5v-1l2.5-2.5-1.5-1.5v-1L18.5 9h-1l-1-1h-5l-1 1h-1l-.5.5v1Z" style="stroke:none"/>
        <path d="M8 12v-.5l1-1v-1l.5-.5h1l1-1h5l1 1h1l8.5 8.5v1l1.5 1.5-2.5 2.5v1L24.5 25l-.5-.5v-3l1.5-1.5-8-8h-1L14 9.5 12.5 11h-1l-1 1Z" style="fill:#3b3b45;stroke:none"/>
        <path d="M8 21.5V12h2.5l1-1h1L14 9.5l2.5 2.5h1l8 8-1.5 1.5v3l.5.5-1 1h-1l-1 1h-4l-2-2h-1l-1-1h-3Z" style="fill:#54545b;stroke:none"/>
    </g>
</svg>
