<svg xmlns="http://www.w3.org/2000/svg" width="32" height="32" style="fill-opacity:1;color-rendering:auto;color-interpolation:auto;text-rendering:auto;stroke:#000;stroke-linecap:square;stroke-miterlimit:10;shape-rendering:auto;stroke-opacity:1;fill:#000;stroke-dasharray:none;font-weight:400;stroke-width:1;font-family:&quot;Dialog&quot;;font-style:normal;stroke-linejoin:miter;font-size:12px;stroke-dashoffset:0;image-rendering:auto">
    <g style="stroke-linecap:round;fill:#54545b;stroke:#54545b">
        <path stroke="none" d="M1 5.5v5L2.5 12 4 10.5V8h4.5l1 1h1l.5.5v1l1 1V16H9.5l-2 2 2 2h3l1-1h1l1-1h1l1.5-1.5v-1l1-1v-1l1-1v-4l-1-1v-2L14.5 1h-9l-1 1h-1L2 3.5v1Z" style="stroke:none"/>
    </g>
    <g stroke="none" style="stroke-linecap:round;fill:#666;stroke:#666">
        <path d="M1 10.5v-5l1-1v-1L3.5 2h1l1-1h9L19 5.5v2l1 1v4l-1 1v1l-1 1v1L16.5 18h-1l-1 1h-1l-1 1h-3l-2-2 2-2h3l1-1h1l.5-.5v-1l1-1v-5L12.5 4h-5l-1 1h-1l-.5.5v1l-1 1v3L2.5 12Z" style="stroke:none"/>
        <path d="M3.5 26 6 28.5 8.5 26 6 23.5Z" style="fill:#54545b;stroke:none"/>
        <path d="M4 8v-.5l1-1v-1l.5-.5h1l1-1h5L16 7.5v5l-1 1v1l-.5.5h-1l-1 1H12v-4.5l-1-1v-1l-.5-.5h-1l-1-1Z" style="fill:#3b3b45;stroke:none"/>
        <path d="M3.5 26 6 23.5 8.5 26 6 28.5Z" style="stroke:none"/>
        <path d="M22 27.5v2l1.5 1.5h3l1-1h1l2.5-2.5v-4L29.5 22h-2Z" style="fill:#54545b;stroke:none"/>
        <path d="M22 29.5v-2l5.5-5.5h2l1.5 1.5v4L28.5 30h-1l-1 1h-3Z" style="stroke:none"/>
        <path d="m23.5 10 2.5 2.5 2.5-2.5L26 7.5Z" style="fill:#54545b;stroke:none"/>
        <path d="M23.5 10 26 7.5l2.5 2.5-2.5 2.5Z" style="stroke:none"/>
    </g>
</svg>
