<svg xmlns="http://www.w3.org/2000/svg" width="32" height="32" style="fill-opacity:1;color-rendering:auto;color-interpolation:auto;text-rendering:auto;stroke:#000;stroke-linecap:square;stroke-miterlimit:10;shape-rendering:auto;stroke-opacity:1;fill:#000;stroke-dasharray:none;font-weight:400;stroke-width:1;font-family:&quot;Dialog&quot;;font-style:normal;stroke-linejoin:miter;font-size:12px;stroke-dashoffset:0;image-rendering:auto">
    <g style="stroke-linecap:round;fill:#54545b;stroke:#54545b">
        <path stroke="none" d="M3.5 6 6 8.5 8.5 6 6 3.5Z" style="stroke:none"/>
    </g>
    <g stroke="none" style="stroke-linecap:round;fill:#666;stroke:#666">
        <path d="M3.5 6 6 3.5 8.5 6 6 8.5Z" style="stroke:none"/>
        <path d="M8 27.5v4H.5V.5h31v31H16v-4l-1-1v-1l-.5-.5h-1L12 23.5 10.5 25h-1l-.5.5v1Z" style="fill:#54545b;stroke:none"/>
        <path d="M13.5 25h1l.5.5v1l1 1v4H8v-4l1-1v-1l.5-.5h1l1.5-1.5Z" style="stroke:none"/>
        <path d="m15.5 16 1.5 1.5v1l.5.5h1l1.5 1.5 1.5-1.5h1l1-1h1l1.5-1.5v-1l1-1v-1l1.5-1.5-1.5-1.5v-1l-.5-.5h-1L24 7.5 22.5 9h-1l-1 1h-1L18 11.5v1l-1 1v1Z" style="fill:#54545b;stroke:none"/>
        <path d="m15.5 16 1.5-1.5v-1l1-1v-1l1.5-1.5h1l1-1h1L24 7.5 25.5 9h1l.5.5v1l1.5 1.5-1.5 1.5v1l-1 1v1L24.5 18h-1l-1 1h-1L20 20.5 18.5 19h-1l-.5-.5v-1Z" style="stroke:none"/>
    </g>
</svg>
