<svg xmlns="http://www.w3.org/2000/svg" width="32" height="32" style="fill-opacity:1;color-rendering:auto;color-interpolation:auto;text-rendering:auto;stroke:#000;stroke-linecap:square;stroke-miterlimit:10;shape-rendering:auto;stroke-opacity:1;fill:#000;stroke-dasharray:none;font-weight:400;stroke-width:1;font-family:&quot;Dialog&quot;;font-style:normal;stroke-linejoin:miter;font-size:12px;stroke-dashoffset:0;image-rendering:auto">
    <g style="stroke-linecap:round;fill:#2e2a30;stroke:#2e2a30">
        <path stroke="none" d="M1 27.5v2L2.5 31h3l4.5-4.5v-1l2-2v-1l2-2v-1l1-1v-2L12.5 14h-5L6 15.5v1l-2 2v2l-1 1v4Z" style="stroke:none"/>
    </g>
    <g style="stroke-linecap:round;fill:#57485b;stroke:#57485b">
        <path stroke="none" d="M1 29.5v-2l2-2v-4l1-1v-2l2-2v-1L7.5 14h5l2.5 2.5v2l-1 1v1l-2 2v1l-2 2v1L5.5 31h-3Z" style="stroke:none"/>
    </g>
</svg>
