<svg xmlns="http://www.w3.org/2000/svg" width="32" height="32" style="fill-opacity:1;color-rendering:auto;color-interpolation:auto;text-rendering:auto;stroke:#000;stroke-linecap:square;stroke-miterlimit:10;shape-rendering:auto;stroke-opacity:1;fill:#000;stroke-dasharray:none;font-weight:400;stroke-width:1;font-family:&quot;Dialog&quot;;font-style:normal;stroke-linejoin:miter;font-size:12px;stroke-dashoffset:0;image-rendering:auto">
    <g style="stroke-linecap:round;fill:#57485b;stroke:#57485b">
        <path stroke="none" d="M.5 3V.5H2L4.5 3h1l2 2h1L12 8.5 14.5 6h1l1-1h2l6.5 6.5v1l1 1v3l1 1v2l-1 1v2l3 3v1l1 1v1l.5.5h1v2.5H28L26.5 30h-1L24 28.5v-1l-1-1v-1L21.5 24l1.5-1.5v-1l1-1v-4l-1-1v-1L18.5 10h-2l-3 3h-1L9 16.5v3l1 1v1l2 2v2l-3 3-2-2v-1l-1-1v-2l-1-1v-2l-1-1v-2l1-1v-1l2-2v-2l-1-1v-1Z" style="stroke:none"/>
    </g>
    <g stroke="none" style="stroke-linecap:round;fill:#2e2a30;stroke:#2e2a30">
        <path d="M6 8.5v1l1 1v2l-2 2v1l-1 1v2l1 1v2l1 1v2l1 1v1l2 2 3-3v-2l-2-2v-1l-1-1v-3l3.5-3.5h.5v3.5l3 3v1l.5.5h1l1.5 1.5 3.5-3.5H24v1.5l-1 1v1L21.5 24l1.5 1.5v1l1 1v1l1.5 1.5h1l1.5 1.5H.5V3Z" style="stroke:none"/>
        <path d="M2 .5h29.5V29h-1l-.5-.5v-1l-1-1v-1l-3-3v-2l1-1v-2l-1-1v-3l-1-1v-1L18.5 5h-2l-1 1h-1L12 8.5 8.5 5h-1l-2-2h-1Z" style="fill:#91788b;stroke:none"/>
        <path d="M13 15.5V13h.5l3-3h2l4.5 4.5v1l1 1V19h-2.5l-2 2H17v-1.5Z" style="fill:#91788b;stroke:none"/>
        <path d="m14 17.5-1-1v-1l1 1Z" style="fill:#57485b;stroke:none"/>
        <path d="m16 19.5-3-3v-1l3 3Z" style="fill:#57485b;stroke:none"/>
        <path d="M17 21h-.5l-.5-.5v-1l-3-3v-1l4 4Zm2 1.5L17.5 21h2l2-2h1Z" style="fill:#57485b;stroke:none"/>
    </g>
</svg>
