<svg xmlns="http://www.w3.org/2000/svg" width="32" height="32" style="fill-opacity:1;color-rendering:auto;color-interpolation:auto;text-rendering:auto;stroke:#000;stroke-linecap:square;stroke-miterlimit:10;shape-rendering:auto;stroke-opacity:1;fill:#000;stroke-dasharray:none;font-weight:400;stroke-width:1;font-family:&quot;Dialog&quot;;font-style:normal;stroke-linejoin:miter;font-size:12px;stroke-dashoffset:0;image-rendering:auto">
    <g style="stroke-linecap:round;fill:#2e2a30;stroke:#2e2a30">
        <path stroke="none" d="M5 21.5v5L6.5 28h1l1 1h5l4.5-4.5v-1l1-1v-3l2-2v-2l1-1v-2l-1-1v-2l-1-1v-2L18.5 5h-2L13 8.5v1l-5 5v2l-2 2v2Z" style="stroke:none"/>
    </g>
    <g style="stroke-linecap:round;fill:#57485b;stroke:#57485b">
        <path stroke="none" d="M5 26.5v-5l1-1v-2l2-2v-2l5-5v-1L16.5 5h2L20 6.5v2l1 1v2l1 1v2l-1 1v2l-2 2v3l-1 1v1L13.5 29h-5l-1-1h-1Z" style="stroke:none"/>
    </g>
</svg>
