<svg xmlns="http://www.w3.org/2000/svg" width="32" height="32" style="fill-opacity:1;color-rendering:auto;color-interpolation:auto;text-rendering:auto;stroke:#000;stroke-linecap:square;stroke-miterlimit:10;shape-rendering:auto;stroke-opacity:1;fill:#000;stroke-dasharray:none;font-weight:400;stroke-width:1;font-family:&quot;Dialog&quot;;font-style:normal;stroke-linejoin:miter;font-size:12px;stroke-dashoffset:0;image-rendering:auto">
    <g style="stroke-linecap:round;fill:#60496d;stroke:#60496d">
        <path stroke="none" d="M.5 8V.5H9L6.5 3h-1L3 5.5v1L1.5 8Z" style="stroke:none"/>
    </g>
    <g stroke="none" style="stroke-linecap:round;fill:#3b3344;stroke:#3b3344">
        <path d="M.5 21V8h1L3 6.5v-1L5.5 3h1L9 .5h15v1l-1 1v5l2.5 2.5h2l1-1h1l1-1h1v13l-3 3h-1l-.5.5v1l-1 1v3l-1 1v1H9v-1l-1-1v-4L6.5 24h-1l-1-1h-1l-2-2Z" style="stroke:none"/>
        <path d="M3.5 23h1l1 1h1L8 25.5v4l1 1v1H.5V21h1ZM23 7.5v-5l1-1v-1h7.5V8h-1l-1 1h-1l-1 1h-2Z" style="fill:#60496d;stroke:none"/>
    </g>
</svg>
