<svg xmlns="http://www.w3.org/2000/svg" width="32" height="32" style="fill-opacity:1;color-rendering:auto;color-interpolation:auto;text-rendering:auto;stroke:#000;stroke-linecap:square;stroke-miterlimit:10;shape-rendering:auto;stroke-opacity:1;fill:#000;stroke-dasharray:none;font-weight:400;stroke-width:1;font-family:&quot;Dialog&quot;;font-style:normal;stroke-linejoin:miter;font-size:12px;stroke-dashoffset:0;image-rendering:auto">
    <g style="stroke-linecap:round;fill:#2e2a30;stroke:#2e2a30">
        <path stroke="none" d="M6 18.5v4L7.5 24h3l1-1h1l1-1h2l1-1h4l1-1h2l6.5-6.5v-1l1-1v-4L26.5 3h-1l-1-1h-4L19 3.5v1l-5 5v1L11.5 13h-1l-1 1h-1l-.5.5v1l-1 1v1Z" style="stroke:none"/>
    </g>
    <g style="stroke-linecap:round;fill:#57485b;stroke:#57485b">
        <path stroke="none" d="M6 22.5v-4l1-1v-1l1-1v-1l.5-.5h1l1-1h1l2.5-2.5v-1l5-5v-1L20.5 2h4l1 1h1L31 7.5v4l-1 1v1L23.5 20h-2l-1 1h-4l-1 1h-2l-1 1h-1l-1 1h-3Z" style="stroke:none"/>
    </g>
</svg>
