<svg xmlns="http://www.w3.org/2000/svg" width="32" height="32" style="fill-opacity:1;color-rendering:auto;color-interpolation:auto;text-rendering:auto;stroke:#000;stroke-linecap:square;stroke-miterlimit:10;shape-rendering:auto;stroke-opacity:1;fill:#000;stroke-dasharray:none;font-weight:400;stroke-width:1;font-family:&quot;Dialog&quot;;font-style:normal;stroke-linejoin:miter;font-size:12px;stroke-dashoffset:0;image-rendering:auto">
    <g style="stroke-linecap:round;fill:#57485b;stroke:#57485b">
        <path stroke="none" d="M.5 1V.5H6v1l2 2v1l5.5 5.5h3l2-2h5l2.5 2.5v1l2 2v1l1 1v2l-2 2v1l-1 1v2l5.5 5.5v2.5H28l-.5-.5h-1l-2-2h-3l-1-1h-1l-6-6h-3l-1 1h-2L6 21.5v-1l-1-1v-3l1-1v-1l1-1v-3l-1-1v-1l-2-2v-1l-1-1v-1Z" style="stroke:none"/>
    </g>
    <g stroke="none" style="stroke-linecap:round;fill:#2e2a30;stroke:#2e2a30">
        <path d="M3 3.5v1l1 1v1l2 2v1l1 1v3l-1 1v1l-1 1v3l1 1v1L7.5 23h2l1-1h3l6 6h1l1 1h3l2 2h1l.5.5H.5V1Z" style="stroke:none"/>
        <path d="M6 1.5v-1h25.5V29L26 23.5v-2l1-1v-1l2-2v-2l-1-1v-1l-2-2v-1L23.5 8h-5l-2 2h-3L8 4.5v-1Z" style="fill:#91788b;stroke:none"/>
        <path d="M14 16.5v2l3.5 3.5h3l1-1-2.5-2.5V18h.5l2.5 2.5 2-2v-3L21.5 13h-1L19 11.5l-3 3 1 1v.5h-.5l-1-1Z" style="fill:#57485b;stroke:none"/>
        <path d="M14 18.5v-2l1.5-1.5 1 1H18v.5l.5.5h.5v1.5l2.5 2.5-1 1h-3Z" style="stroke:none"/>
        <path d="m16 14.5 3-3 1.5 1.5h1l2.5 2.5v3l-2 2-2.5-2.5H19v-1.5l-.5-.5H17v-.5Z" style="fill:#91788b;stroke:none"/>
        <path d="M19 17h-.5l-.5-.5V16h.5l.5.5Z" style="fill:#57485b;stroke:none"/>
    </g>
</svg>
