<svg xmlns="http://www.w3.org/2000/svg" width="32" height="32" style="fill-opacity:1;color-rendering:auto;color-interpolation:auto;text-rendering:auto;stroke:#000;stroke-linecap:square;stroke-miterlimit:10;shape-rendering:auto;stroke-opacity:1;fill:#000;stroke-dasharray:none;font-weight:400;stroke-width:1;font-family:&quot;Dialog&quot;;font-style:normal;stroke-linejoin:miter;font-size:12px;stroke-dashoffset:0;image-rendering:auto">
    <g style="stroke-linecap:round;fill:#57485b;stroke:#57485b">
        <path stroke="none" d="M.5 3V.5H2L3.5 2h1l2 2h1l1 1h1l1 1h5l2-2h2L23 7.5v2l-2 2v3l1.5 1.5h1l1 1h1l2.5 2.5v1l1 1v2l1 1v3l1.5 1.5v2.5H29L27.5 30h-2l-5-5h-1l-1-1h-1l-1-1h-2l-2 2h-1L10 26.5l-2-2v-1l-1-1v-1l-1-1v-2l2-2v-1l1-1v-4L2.5 4h-1Z" style="stroke:none"/>
    </g>
    <g stroke="none" style="stroke-linecap:round;fill:#2e2a30;stroke:#2e2a30">
        <path d="M1.5 4h1L9 10.5v4l-1 1v1l-2 2v2l1 1v1l1 1v1l2 2 1.5-1.5h1l2-2h2l1 1h1l1 1h1l5 5h2l1.5 1.5H.5V3Z" style="stroke:none"/>
        <path d="M2 .5h29.5V29L30 27.5v-3l-1-1v-2l-1-1v-1L25.5 17h-1l-1-1h-1L21 14.5v-3l2-2v-2L19.5 4h-2l-2 2h-5l-1-1h-1l-1-1h-1l-2-2h-1Z" style="fill:#91788b;stroke:none"/>
    </g>
</svg>
