<svg xmlns="http://www.w3.org/2000/svg" width="32" height="32" style="fill-opacity:1;color-rendering:auto;color-interpolation:auto;text-rendering:auto;stroke:#000;stroke-linecap:square;stroke-miterlimit:10;shape-rendering:auto;stroke-opacity:1;fill:#000;stroke-dasharray:none;font-weight:400;stroke-width:1;font-family:&quot;Dialog&quot;;font-style:normal;stroke-linejoin:miter;font-size:12px;stroke-dashoffset:0;image-rendering:auto">
    <g style="stroke-linecap:round;fill:#57485b;stroke:#57485b">
        <path stroke="none" d="M.5 3V.5H3l1 1v1l2 2v1L9.5 9h2l1-1h1l1-1h1l1-1h2l3 3-1 1h-5L13 12.5l3 3v.5h-.5l-4-4-2 2 9.5 9.5-1.5 1.5h-3l-1-1h-2l-1-1h3l1 1h3l.5-.5-10-10L4.5 17 6 18.5v1L7.5 21h1l1.5 1.5v.5h-.5l-1-1h-1L5 19.5v-1L3.5 17 5 15.5v-2L7.5 11 3 6.5v-1Z" style="stroke:none"/>
    </g>
    <g stroke="none" style="stroke-linecap:round;fill:#2e2a30;stroke:#2e2a30">
        <path d="M3 5.5v1L7.5 11 5 13.5v2L3.5 17 5 18.5v1L7.5 22h1l1 1h1l1 1h2l1 1h3l1.5-1.5L9.5 14l2-2 4 4H17v.5l.5.5.5-.5 2.5 2.5H22v.5l3.5 3.5-3 3 3 3h1l2.5 2.5H.5V3Z" style="stroke:none"/>
        <path d="M3 .5h28.5V29h-1l-.5-.5v-1l-1-1v-1l-1-1v-5l1-1v-6l-2-2-3.5 3.5 2.5 2.5v3L24.5 21l-2-2h-2l-3-3H16v-.5l-3-3 2.5-2.5h5l1-1-3-3h-2l-1 1h-1l-1 1h-1l-1 1h-2L6 5.5v-1l-2-2v-1ZM4.5 17 8 13.5l10 10-.5.5h-3l-1-1H10v-.5L8.5 21h-1L6 19.5v-1Z" style="fill:#91788b;stroke:none"/>
        <path d="m17.5 17-.5-.5V16h.5l.5.5Zm5.5 3.5-1-1V19h.5l.5.5Z" style="fill:#57485b;stroke:none"/>
        <path d="m22.5 26 3-3-3.5-3.5V19h.5l2 2 1.5-1.5v-3L23.5 14l3.5-3.5 2 2v6l-1 1v5l1 1v1l1 1v1l.5.5h1v2.5H29L26.5 29h-1Z" style="fill:#57485b;stroke:none"/>
    </g>
</svg>
