<svg xmlns="http://www.w3.org/2000/svg" width="32" height="32" style="fill-opacity:1;color-rendering:auto;color-interpolation:auto;text-rendering:auto;stroke:#000;stroke-linecap:square;stroke-miterlimit:10;shape-rendering:auto;stroke-opacity:1;fill:#000;stroke-dasharray:none;font-weight:400;stroke-width:1;font-family:&quot;Dialog&quot;;font-style:normal;stroke-linejoin:miter;font-size:12px;stroke-dashoffset:0;image-rendering:auto">
    <g style="stroke-linecap:round;fill:#9192a6;stroke:#9192a6">
        <path stroke="none" d="M.5 3V.5H3l.5.5h1l3 3h2l1-1h2l1 1h1l1 1h2l1-1h1l1-1h2L26 6.5v2l1 1v2l-5 5v2l6 6v2l2.5 2.5h1v2.5H28L24.5 28h-1l-2-2h-5l-1 1h-2l-1 1h-3L7 25.5v-2l-1-1v-3l-1-1v-1l-1-1v-2l1-1v-1l2-2v-2L4.5 6h-1Z" style="stroke:none"/>
    </g>
    <g stroke="none" style="stroke-linecap:round;fill:#6b698a;stroke:#6b698a">
        <path d="M3.5 6h1L7 8.5v2l-2 2v1l-1 1v2l1 1v1l1 1v3l1 1v2L9.5 28h3l1-1h2l1-1h5l2 2h1l3.5 3.5H.5V3Z" style="stroke:none"/>
        <path d="M3.5 1 3 .5h28.5V29h-1L28 26.5v-2l-6-6v-2l5-5v-2l-1-1v-2L22.5 3h-2l-1 1h-1l-1 1h-2l-1-1h-1l-1-1h-2l-1 1h-2l-3-3Z" style="fill:#c1c4cb;stroke:none"/>
        <path d="M10 10.5v6l1 1v1l3 3 2-2v-1l1-1v-2l1-1v-1l1-1v-3L16.5 7h-3Z" style="fill:#9192a6;stroke:none"/>
        <path d="M10 16.5v-6L13.5 7h3L19 9.5v3l-1 1v1l-1 1v2l-1 1v1l-2 2-3-3v-1Z" style="fill:#c1c4cb;stroke:none"/>
    </g>
</svg>
