<svg xmlns="http://www.w3.org/2000/svg" width="32" height="32" style="fill-opacity:1;color-rendering:auto;color-interpolation:auto;text-rendering:auto;stroke:#000;stroke-linecap:square;stroke-miterlimit:10;shape-rendering:auto;stroke-opacity:1;fill:#000;stroke-dasharray:none;font-weight:400;stroke-width:1;font-family:&quot;Dialog&quot;;font-style:normal;stroke-linejoin:miter;font-size:12px;stroke-dashoffset:0;image-rendering:auto">
    <g style="stroke-linecap:round;fill:#9192a6;stroke:#9192a6">
        <path stroke="none" d="M1 2.5v3l3 3L8.5 4l-3-3h-3Z" style="stroke:none"/>
    </g>
    <g stroke="none" style="stroke-linecap:round;fill:#c1c4cb;stroke:#c1c4cb">
        <path d="M1 5.5v-3L2.5 1h3l3 3L4 8.5Z" style="stroke:none"/>
        <path d="M4 22.5v3L6.5 28h3l2.5-2.5v-3L9.5 20h-3Z" style="fill:#9192a6;stroke:none"/>
        <path d="M4 25.5v-3L6.5 20h3l2.5 2.5v3L9.5 28h-3Z" style="stroke:none"/>
        <path d="M16 21.5v4l2.5 2.5h2l1-1h1l1-1h1l2.5-2.5v-1l1-1v-2L24.5 16h-2l-1 1h-1Z" style="fill:#9192a6;stroke:none"/>
        <path d="M16 25.5v-4l4.5-4.5h1l1-1h2l3.5 3.5v2l-1 1v1L24.5 26h-1l-1 1h-1l-1 1h-2Z" style="stroke:none"/>
    </g>
</svg>
