<svg xmlns="http://www.w3.org/2000/svg" width="32" height="32" style="fill-opacity:1;color-rendering:auto;color-interpolation:auto;text-rendering:auto;stroke:#000;stroke-linecap:square;stroke-miterlimit:10;shape-rendering:auto;stroke-opacity:1;fill:#000;stroke-dasharray:none;font-weight:400;stroke-width:1;font-family:&quot;Dialog&quot;;font-style:normal;stroke-linejoin:miter;font-size:12px;stroke-dashoffset:0;image-rendering:auto">
    <g style="stroke-linecap:round;fill:#9192a6;stroke:#9192a6">
        <path stroke="none" d="M4 6.5v3L6.5 12h3L12 9.5v-3L9.5 4h-3Z" style="stroke:none"/>
    </g>
    <g stroke="none" style="stroke-linecap:round;fill:#c1c4cb;stroke:#c1c4cb">
        <path d="M4 9.5v-3L6.5 4h3L12 6.5v3L9.5 12h-3Z" style="stroke:none"/>
        <path d="M8 26.5v2l2.5 2.5h3l2.5-2.5v-2L13.5 24h-3Z" style="fill:#9192a6;stroke:none"/>
        <path d="M8 28.5v-2l2.5-2.5h3l2.5 2.5v2L13.5 31h-3Z" style="stroke:none"/>
        <path d="M12 14.5v3l2.5 2.5h3l2-2h1l5.5-5.5v-1l1-1v-1l1-1v-2L25.5 4h-2l-1 1h-1Z" style="fill:#9192a6;stroke:none"/>
        <path d="M12 17.5v-3L21.5 5h1l1-1h2L28 6.5v2l-1 1v1l-1 1v1L20.5 18h-1l-2 2h-3Z" style="stroke:none"/>
    </g>
</svg>
