<svg xmlns="http://www.w3.org/2000/svg" width="64" height="64" style="fill-opacity:1;color-rendering:auto;color-interpolation:auto;text-rendering:auto;stroke:#000;stroke-linecap:square;stroke-miterlimit:10;shape-rendering:auto;stroke-opacity:1;fill:#000;stroke-dasharray:none;font-weight:400;stroke-width:1;font-family:&quot;Dialog&quot;;font-style:normal;stroke-linejoin:miter;font-size:12px;stroke-dashoffset:0;image-rendering:auto">
    <g style="stroke-linecap:round;fill:#9192a6;stroke:#9192a6">
        <path stroke="none" d="M.5 3V.5H6v1L7.5 3h1l2 2h2l1 1h3L19 8.5v2l1 1v1l1 1v5l4 4v1l3.5 3.5h3l1.5-1.5v-1l2-2v-2l-1-1v-2l-1-1v-2l1-1v-2l2-2 2 2v1l1.5 1.5h1l1 1h3l5-5h4l2.5 2.5v1l3 3v3l-1 1v1L55.5 24l1.5 1.5v1l2 2v3l-1 1v5l-1 1v1l-1 1v1l-1 1v1l-3 3v3l6.5 6.5h1l2.5 2.5v1l1.5 1.5v2.5H61L59.5 62h-2l-1-1h-1l-1-1h-1l-1-1h-1l-.5-.5v-1l-3-3v-1l-2-2-1.5 1.5h-3l-3-3h-1l-2-2h-4l-1 1h-1l-8 8h-2l-4-4h-2l-1 1-1-1h-1L8 50.5v-1l-1-1v-4l-1-1v-10l2-2v-2l1-1v-6l-2-2v-1l-1-1v-3l1-1v-4l-3-3v-1Z" style="stroke:none"/>
    </g>
    <g stroke="none" style="stroke-linecap:round;fill:#6b698a;stroke:#6b698a">
        <path d="M4 6.5v1l3 3v4l-1 1v3l1 1v1l2 2v6l-1 1v2l-2 2v10l1 1v4l1 1v1l2.5 2.5h1l1 1 1-1h2l4 4h2l8-8h1l1-1h4l2 2h1l3 3h3l1.5-1.5 2 2v1l3 3v1l.5.5h1l1 1h1l1 1h1l1 1h2l1.5 1.5H.5V3Z" style="stroke:none"/>
        <path d="M6 1.5v-1h57.5V61L62 59.5v-1L59.5 56h-1L52 49.5v-3l3-3v-1l1-1v-1l1-1v-1l1-1v-5l1-1v-3l-2-2v-1L55.5 24l2.5-2.5v-1l1-1v-3l-3-3v-1L53.5 10h-4l-5 5h-3l-1-1h-1L38 12.5v-1l-2-2-2 2v2l-1 1v2l1 1v2l1 1v2l-2 2v1L31.5 27h-3L25 23.5v-1l-4-4v-5l-1-1v-1l-1-1v-2L16.5 6h-3l-1-1h-2l-2-2h-1Z" style="fill:#c1c4cb;stroke:none"/>
        <path d="M11 39.5v4l5.5 5.5h3l2.5-2.5v-6L20.5 39h-1l-1-1h-6Z" style="fill:#9192a6;stroke:none"/>
        <path d="M11 43.5v-4l1.5-1.5h6l1 1h1l1.5 1.5v6L19.5 49h-3Z" style="stroke:none"/>
        <path d="M14 30.5v2l1.5 1.5h3l1.5-1.5v-4L18.5 27h-2L15 28.5v1Z" style="fill:#9192a6;stroke:none"/>
        <path d="M14 32.5v-2l1-1v-1l1.5-1.5h2l1.5 1.5v4L18.5 34h-3Z" style="stroke:none"/>
        <path d="M28 34.5v3l5 5 1.5-1.5h1l.5-.5v-1l2-2v-2L34.5 32h-4Z" style="fill:#9192a6;stroke:none"/>
        <path d="M28 37.5v-3l2.5-2.5h4l3.5 3.5v2l-2 2v1l-.5.5h-1L33 42.5Z" style="fill:#c1c4cb;stroke:none"/>
        <path d="M37 18.5v2l1.5 1.5h2l1.5-1.5v-2L40.5 17h-2Z" style="fill:#9192a6;stroke:none"/>
        <path d="M37 20.5v-2l1.5-1.5h2l1.5 1.5v2L40.5 22h-2Z" style="fill:#c1c4cb;stroke:none"/>
        <path d="m41.5 40 3 3h2l1.5-1.5v-3L46.5 37h-2ZM43 24.5v3l1 1v1l1.5 1.5h3l1-1h1l2.5-2.5v-3L51.5 23h-1l-1-1h-4Z" style="fill:#9192a6;stroke:none"/>
        <path d="m41.5 40 3-3h2l1.5 1.5v3L46.5 43h-2ZM43 27.5v-3l2.5-2.5h4l1 1h1l1.5 1.5v3L50.5 30h-1l-1 1h-3L44 29.5v-1Z" style="fill:#c1c4cb;stroke:none"/>
    </g>
</svg>
