<svg xmlns="http://www.w3.org/2000/svg" width="32" height="32" style="fill-opacity:1;color-rendering:auto;color-interpolation:auto;text-rendering:auto;stroke:#000;stroke-linecap:square;stroke-miterlimit:10;shape-rendering:auto;stroke-opacity:1;fill:#000;stroke-dasharray:none;font-weight:400;stroke-width:1;font-family:&quot;Dialog&quot;;font-style:normal;stroke-linejoin:miter;font-size:12px;stroke-dashoffset:0;image-rendering:auto">
    <g style="stroke-linecap:round;fill:#3f4049;stroke:#3f4049">
        <path stroke="none" d="M.5 4V.5H4Z" style="stroke:none"/>
    </g>
    <g stroke="none" style="stroke-linecap:round;fill:#686b7b;stroke:#686b7b">
        <path d="M.5 8V4L4 .5h4v4L4.5 8Z" style="stroke:none"/>
        <path d="M.5 12V8h4L8 4.5v-4h4v10l1.5 1.5h5l1.5-1.5V.5h4v4L27.5 8h4v4h-10L20 13.5v5l1.5 1.5h10v4h-4L24 27.5v4h-4v-10L18.5 20h-5L12 21.5v10H8v-4L4.5 24h-4v-4h10l1.5-1.5v-5L10.5 12Z" style="fill:#3f4049;stroke:none"/>
        <path d="M.5 20v-8h5L4 13.5v5L5.5 20Zm0 8v-4h4L8 27.5v4H4Z" style="stroke:none"/>
        <path d="M4 31.5H.5V28Z" style="fill:#3f4049;stroke:none"/>
        <path d="M4 18.5v-5L5.5 12H8v8H5.5Z" style="fill:#ef806c;stroke:none"/>
        <path d="M8 20v-8h2.5l1.5 1.5v5L10.5 20Zm4-14.5v-5h8v5L18.5 4h-5Z" style="stroke:none"/>
        <path d="M12 8V5.5L13.5 4h5L20 5.5V8Z" style="fill:#ef806c;stroke:none"/>
        <path d="M12 10.5V8h8v2.5L18.5 12h-5ZM12 24v-2.5l1.5-1.5h5l1.5 1.5V24Z" style="stroke:none"/>
        <path d="M12 26.5V24h8v2.5L18.5 28h-5Z" style="fill:#ef806c;stroke:none"/>
        <path d="M13.5 28h5l1.5-1.5v5h-8v-5Zm6.5-9.5v-5l1.5-1.5H24v8h-2.5Zm4-14v-4h4L31.5 4v4h-4Z" style="stroke:none"/>
        <path d="M24 20v-8h2.5l1.5 1.5v5L26.5 20Z" style="fill:#ef806c;stroke:none"/>
        <path d="M26.5 12h5v8h-5l1.5-1.5v-5ZM28 31.5h-4v-4l3.5-3.5h4v4Z" style="stroke:none"/>
        <path d="M28 .5h3.5V4Z" style="fill:#3f4049;stroke:none"/>
    </g>
</svg>
