<svg xmlns="http://www.w3.org/2000/svg" width="32" height="32" style="fill-opacity:1;color-rendering:auto;color-interpolation:auto;text-rendering:auto;stroke:#000;stroke-linecap:square;stroke-miterlimit:10;shape-rendering:auto;stroke-opacity:1;fill:#000;stroke-dasharray:none;font-weight:400;stroke-width:1;font-family:&quot;Dialog&quot;;font-style:normal;stroke-linejoin:miter;font-size:12px;stroke-dashoffset:0;image-rendering:auto">
    <g style="stroke-linecap:round;fill:#3c3838;stroke:#3c3838">
        <path stroke="none" d="m3.5 6 4 4h1l1 1h1l1 1h3l2-2-4-4h-1l-1-1h-1l-1-1h-3Z" style="stroke:none"/>
    </g>
    <g stroke="none" style="stroke-linecap:round;fill:#3c3838;stroke:#3c3838">
        <path d="m3.5 18 2 2h2l1 1h2l1 1h1l1 1h1l1 1h1l1 1h1l1 1h1l1 1h1l1 1h3l2-2-4-4h-1l-1-1h-1l-1-1h-1l-1-1h-1l-1-1h-1l-1-1h-1l-1-1h-1l-1-1h-4Z" style="stroke:none"/>
        <path d="m3.5 6 2-2h3l1 1h1l1 1h1l4 4-2 2h-3l-1-1h-1l-1-1h-1Zm0 12 3-3h4l1 1h1l1 1h1l1 1h1l1 1h1l1 1h1l1 1h1l1 1h1l4 4-2 2h-3l-1-1h-1l-1-1h-1l-1-1h-1l-1-1h-1l-1-1h-1l-1-1h-1l-1-1h-2l-1-1h-2Z" style="fill:#515151;stroke:none"/>
    </g>
</svg>
