<svg xmlns="http://www.w3.org/2000/svg" width="32" height="32" style="fill-opacity:1;color-rendering:auto;color-interpolation:auto;text-rendering:auto;stroke:#000;stroke-linecap:square;stroke-miterlimit:10;shape-rendering:auto;stroke-opacity:1;fill:#000;stroke-dasharray:none;font-weight:400;stroke-width:1;font-family:&quot;Dialog&quot;;font-style:normal;stroke-linejoin:miter;font-size:12px;stroke-dashoffset:0;image-rendering:auto">
    <g style="stroke-linecap:round;fill:#686b7b;stroke:#686b7b">
        <path stroke="none" d="M.5 2V.5H2L5.5 4h18L28 8.5v18l3.5 3.5v1.5H30L26.5 28h-18L4 23.5v-18Z" style="stroke:none"/>
    </g>
    <g stroke="none" style="stroke-linecap:round;fill:#3f4049;stroke:#3f4049">
        <path d="M4 5.5v18L8.5 28h18l3.5 3.5H.5V2Z" style="stroke:none"/>
        <path d="M2 .5h29.5V30L28 26.5v-18L23.5 4h-18Z" style="fill:#9b9daa;stroke:none"/>
        <path d="M8 9.5v6l.5.5h7l.5.5v7l.5.5h6l1.5-1.5v-6l-.5-.5h-7l-.5-.5v-7l-.5-.5h-6Z" style="fill:#686b7b;stroke:none"/>
        <path d="M8 19.5v3L9.5 24h3l.5-.5v-4l-.5-.5h-4Z" style="fill:#686b7b;stroke:none"/>
        <path d="m8.5 16-.5-.5v-6L9.5 8h6l.5.5v7l.5.5h7l.5.5v6L22.5 24h-6l-.5-.5v-7l-.5-.5Z" style="fill:#9b9daa;stroke:none"/>
        <path d="M8 22.5v-3l.5-.5h4l.5.5v4l-.5.5h-3Z" style="fill:#9b9daa;stroke:none"/>
        <path d="M19 8.5v4l.5.5h4l.5-.5v-3L22.5 8h-3Z" style="fill:#686b7b;stroke:none"/>
        <path d="m19.5 13-.5-.5v-4l.5-.5h3L24 9.5v3l-.5.5Z" style="fill:#9b9daa;stroke:none"/>
    </g>
</svg>
