<svg xmlns="http://www.w3.org/2000/svg" width="32" height="32" style="fill-opacity:1;color-rendering:auto;color-interpolation:auto;text-rendering:auto;stroke:#000;stroke-linecap:square;stroke-miterlimit:10;shape-rendering:auto;stroke-opacity:1;fill:#000;stroke-dasharray:none;font-weight:400;stroke-width:1;font-family:&quot;Dialog&quot;;font-style:normal;stroke-linejoin:miter;font-size:12px;stroke-dashoffset:0;image-rendering:auto">
    <g style="stroke-linecap:round;fill:#686b7b;stroke:#686b7b">
        <path stroke="none" d="M.5 14V.5H14v5L9.5 10h-5Z" style="stroke:none"/>
    </g>
    <g stroke="none" style="stroke-linecap:round;fill:#3f4049;stroke:#3f4049">
        <path d="M.5 18v-4l4-4h5L14 5.5v-5h4l4 4v5l4.5 4.5h5v4l-4 4h-5L18 26.5v5h-4l-4-4v-5L5.5 18Z" style="stroke:none"/>
        <path d="M10 22.5v5l4 4H.5V18h5Z" style="fill:#686b7b;stroke:none"/>
        <path d="M12 14.5v3l2.5 2.5h3l2.5-2.5v-3L17.5 12h-3Z" style="stroke:none"/>
        <path d="M12 17.5v-3l2.5-2.5h3l2.5 2.5v3L17.5 20h-3Zm6-17h13.5V14h-5L22 9.5v-5Z" style="fill:#686b7b;stroke:none"/>
    </g>
</svg>
