<svg xmlns="http://www.w3.org/2000/svg" width="32" height="32" style="fill-opacity:1;color-rendering:auto;color-interpolation:auto;text-rendering:auto;stroke:#000;stroke-linecap:square;stroke-miterlimit:10;shape-rendering:auto;stroke-opacity:1;fill:#000;stroke-dasharray:none;font-weight:400;stroke-width:1;font-family:&quot;Dialog&quot;;font-style:normal;stroke-linejoin:miter;font-size:12px;stroke-dashoffset:0;image-rendering:auto">
    <g style="stroke-linecap:round;fill:#686b7b;stroke:#686b7b">
        <path stroke="none" d="M.5 2V.5H2L5.5 4h5L14 .5h2L19.5 4h3L28 9.5v17l3.5 3.5v1.5H30L26.5 28h-4L19 31.5h-3L12.5 28h-3L4 22.5v-17Z" style="stroke:none"/>
    </g>
    <g stroke="none" style="stroke-linecap:round;fill:#3f4049;stroke:#3f4049">
        <path d="M4 5.5v17L9.5 28h3l3.5 3.5H.5V2Z" style="stroke:none"/>
        <path d="M2 .5h12L10.5 4h-5Z" style="fill:#9b9daa;stroke:none"/>
        <path d="M8 10.5v2l4 4v1l2.5 2.5h1l4 4h2l2.5-2.5v-2l-4-4v-1L17.5 12h-1l-4-4h-2Z" style="fill:#686b7b;stroke:none"/>
        <path d="M8 12.5v-2L10.5 8h2l3.5 3.5-4.5 4.5Z" style="fill:#9b9daa;stroke:none"/>
        <path d="M12 17.5v-1l-.5-.5 4.5-4.5.5.5h1l2.5 2.5v1l.5.5-4.5 4.5-.5-.5h-1Z" style="fill:#ef806c;stroke:none"/>
        <path d="M16 .5h15.5V30L28 26.5v-17L22.5 4h-3Zm0 20 4.5-4.5 3.5 3.5v2L21.5 24h-2Z" style="fill:#9b9daa;stroke:none"/>
        <path d="M30 31.5H19l3.5-3.5h4Z" style="stroke:none"/>
    </g>
</svg>
