<svg xmlns="http://www.w3.org/2000/svg" width="32" height="32" style="fill-opacity:1;color-rendering:auto;color-interpolation:auto;text-rendering:auto;stroke:#000;stroke-linecap:square;stroke-miterlimit:10;shape-rendering:auto;stroke-opacity:1;fill:#000;stroke-dasharray:none;font-weight:400;stroke-width:1;font-family:&quot;Dialog&quot;;font-style:normal;stroke-linejoin:miter;font-size:12px;stroke-dashoffset:0;image-rendering:auto">
    <g style="stroke-linecap:round;fill:#3f4049;stroke:#3f4049">
        <path stroke="none" d="M1 20.5v7l.5.5h4l4-4 4.5 4.5 2-2v-4L13.5 20h-12Z" style="stroke:none"/>
    </g>
    <g stroke="none" style="stroke-linecap:round;fill:#686b7b;stroke:#686b7b">
        <path d="m1.5 28-.5-.5v-7l.5-.5h12l2.5 2.5v4l-2 2L9.5 24l-4 4Z" style="stroke:none"/>
        <path d="M4 1.5v4l4 4L3.5 14l2 2h4l2.5-2.5v-12l-.5-.5h-7Z" style="fill:#3f4049;stroke:none"/>
        <path d="M4 5.5v-4l.5-.5h7l.5.5v12L9.5 16h-4l-2-2L8 9.5Z" style="stroke:none"/>
        <path d="M16 5.5v4l2.5 2.5h12l.5-.5v-7l-.5-.5h-4l-4 4L18 3.5Z" style="fill:#3f4049;stroke:none"/>
        <path d="M16 9.5v-4l2-2L22.5 8l4-4h4l.5.5v7l-.5.5h-12Z" style="stroke:none"/>
        <path d="M20 18.5v12l.5.5h7l.5-.5v-4l-4-4 4.5-4.5-2-2h-4Z" style="fill:#3f4049;stroke:none"/>
        <path d="m20.5 31-.5-.5v-12l2.5-2.5h4l2 2-4.5 4.5 4 4v4l-.5.5Z" style="stroke:none"/>
    </g>
</svg>
