<svg xmlns="http://www.w3.org/2000/svg" width="64" height="64" style="fill-opacity:1;color-rendering:auto;color-interpolation:auto;text-rendering:auto;stroke:#000;stroke-linecap:square;stroke-miterlimit:10;shape-rendering:auto;stroke-opacity:1;fill:#000;stroke-dasharray:none;font-weight:400;stroke-width:1;font-family:&quot;Dialog&quot;;font-style:normal;stroke-linejoin:miter;font-size:12px;stroke-dashoffset:0;image-rendering:auto">
    <g style="stroke-linecap:round;fill:#686b7b;stroke:#686b7b">
        <path stroke="none" d="M.5 3V.5H3L9.5 7h3l5 5h6l4-4h14l3 3-4.5 4.5v7l2 2 4.5-4.5 3 3h3l3.5 3.5v10L52.5 40h-9L40 43.5v9L36.5 56h-9L24 52.5v-7L18.5 40h-7L4 32.5v-3l8.5-8.5 3 3h7l2-2-3.5-3.5v-2L18.5 14h-4L12 16.5l-5-5v-2Z" style="stroke:none"/>
    </g>
    <g stroke="none" style="stroke-linecap:round;fill:#3f4049;stroke:#3f4049">
        <path d="M7 9.5v2l5 5v4l.5.5L4 29.5v3l7.5 7.5h.5v7.5L7.5 52l4.5 4.5 4.5-4.5H24v.5l3.5 3.5h9l3.5-3.5V52h7.5l5 5h2l6.5 6.5H.5V3Z" style="stroke:none"/>
        <path d="M3 .5h60.5V61L57 54.5v-3l-4-4-5 5-.5-.5H40v-8.5l3.5-3.5h9l3.5-3.5v-10L52.5 23h-3l-3-3-4.5 4.5-2-2v-7l4.5-4.5-3-3h-14l-4 4h-6l-5-5h-3Z" style="fill:#9b9daa;stroke:none"/>
        <path d="m7.5 52 4-4 4.5 4.5-4 4Z" style="fill:#686b7b;stroke:none"/>
        <path d="M12 20.5v-4l2.5-2.5h4l2.5 2.5v2l3.5 3.5-2 2h-7ZM11.5 48l.5-.5V40h6.5l5.5 5.5V52h-7.5l-.5.5Z" style="fill:#9b9daa;stroke:none"/>
        <path d="M16 30.5v3l2.5 2.5h3l2.5-2.5v-3L21.5 28h-3Z" style="fill:#686b7b;stroke:none"/>
        <path d="M16 33.5v-3l2.5-2.5h3l2.5 2.5v3L21.5 36h-3Z" style="fill:#9b9daa;stroke:none"/>
        <path d="M28 18.5v3l2.5 2.5h3l2.5-2.5v-3L33.5 16h-3Zm0 12v3l2.5 2.5h3l2.5-2.5v-3L33.5 28h-3Zm0 12v3l2.5 2.5h3l2.5-2.5v-3L33.5 40h-3Z" style="fill:#686b7b;stroke:none"/>
        <path d="M28 21.5v-3l2.5-2.5h3l2.5 2.5v3L33.5 24h-3Z" style="fill:#9b9daa;stroke:none"/>
        <path d="M28 33.5v-3l2.5-2.5h3l2.5 2.5v3L33.5 36h-3Z" style="fill:#ef806c;stroke:none"/>
        <path d="M28 45.5v-3l2.5-2.5h3l2.5 2.5v3L33.5 48h-3Z" style="fill:#9b9daa;stroke:none"/>
        <path d="M40 30.5v3l2.5 2.5h3l3-3-5.5-5.5Z" style="fill:#686b7b;stroke:none"/>
        <path d="M40 33.5v-3l3-3 5.5 5.5-3 3h-3ZM47.5 10l6.5 6.5 2-2v-3L52.5 8h-3Z" style="fill:#9b9daa;stroke:none"/>
        <path d="m47.5 10 2-2h3l3.5 3.5v3l-2 2Zm.5 42.5 5-5 4 4v3l6.5 6.5v2.5H61L54.5 57h-2Z" style="fill:#686b7b;stroke:none"/>
    </g>
</svg>
