<svg xmlns="http://www.w3.org/2000/svg" width="32" height="32" style="fill-opacity:1;color-rendering:auto;color-interpolation:auto;text-rendering:auto;stroke:#000;stroke-linecap:square;stroke-miterlimit:10;shape-rendering:auto;stroke-opacity:1;fill:#000;stroke-dasharray:none;font-weight:400;stroke-width:1;font-family:&quot;Dialog&quot;;font-style:normal;stroke-linejoin:miter;font-size:12px;stroke-dashoffset:0;image-rendering:auto">
    <g style="stroke-linecap:round;fill:#4d5ca4;stroke:#4d5ca4">
        <path stroke="none" d="M.5 13V.5H8L9.5 2h1L12 3.5v3l4.5 4.5h2l1 1h6l.5.5v1l1 1v1l4.5 4.5v11.5H16L13.5 29h-1L11 27.5v-8l-1-1v-1L8.5 16h-3l-1-1h-2Z" style="stroke:none"/>
    </g>
    <g stroke="none" style="stroke-linecap:round;fill:#5867ac;stroke:#5867ac">
        <path d="M2.5 15h2l1 1h3l1.5 1.5v1l1 1v8l1.5 1.5h1l2.5 2.5H7l-1-1v-1l-1-1v-4L6.5 23l-2-2h-2l-1-1h-1v-7Z" style="stroke:none"/>
        <path d="M2.5 21h2l2 2L5 24.5v4l1 1v1l1 1H.5V20h1Z" style="fill:#4d5ca4;stroke:none"/>
        <path d="M8 .5h9v3L19.5 6h1l1 1h8L31 8.5v2l.5.5v9L27 15.5v-1l-1-1v-1l-.5-.5h-6l-1-1h-2L12 6.5v-3L10.5 2h-1Z" style="stroke:none"/>
        <path d="M17 3.5v-3h14.5V11l-.5-.5v-2L29.5 7h-8l-1-1h-1Z" style="fill:#4d5ca4;stroke:none"/>
    </g>
</svg>
