<svg xmlns="http://www.w3.org/2000/svg" width="32" height="32" style="fill-opacity:1;color-rendering:auto;color-interpolation:auto;text-rendering:auto;stroke:#000;stroke-linecap:square;stroke-miterlimit:10;shape-rendering:auto;stroke-opacity:1;fill:#000;stroke-dasharray:none;font-weight:400;stroke-width:1;font-family:&quot;Dialog&quot;;font-style:normal;stroke-linejoin:miter;font-size:12px;stroke-dashoffset:0;image-rendering:auto">
    <g style="stroke-linecap:round;fill:#623c35;stroke:#623c35">
        <path stroke="none" d="M.5 1V.5H3l2 2v1l2 2v5l2 2L15.5 6h7l1 1h1L26 8.5v1l1 1v5l-2 2v2l2 2v1l1 1v1l1 1v1l2.5 2.5v2.5H31L26.5 27h-1l-1-1h-7l-1 1h-1l-1 1h-3l-1-1h-2L4 22.5v-2l1-1v-14Z" style="stroke:none"/>
    </g>
    <g stroke="none" style="stroke-linecap:round;fill:#432a3b;stroke:#432a3b">
        <path d="M5 5.5v14l-1 1v2L8.5 27h2l1 1h3l1-1h1l1-1h7l1 1h1l4.5 4.5H.5V1Z" style="stroke:none"/>
        <path d="M3 .5h28.5V29L29 26.5v-1l-1-1v-1l-1-1v-1l-2-2v-2l2-2v-5l-1-1v-1L24.5 7h-1l-1-1h-7L9 12.5l-2-2v-5l-2-2v-1Z" style="fill:#895841;stroke:none"/>
        <path d="m9.5 22 3 3h2l1.5-1.5v-3L14.5 19h-2Z" style="fill:#623c35;stroke:none"/>
        <path d="m9.5 22 3-3h2l1.5 1.5v3L14.5 25h-2Z" style="stroke:none"/>
        <path d="M15 12.5v3l1.5 1.5h3l1-1h1l1.5-1.5v-2L20.5 10h-3Z" style="fill:#623c35;stroke:none"/>
        <path d="M15 15.5v-3l2.5-2.5h3l2.5 2.5v2L21.5 16h-1l-1 1h-3Z" style="fill:#895841;stroke:none"/>
    </g>
</svg>
