<svg xmlns="http://www.w3.org/2000/svg" width="64" height="64" style="fill-opacity:1;color-rendering:auto;color-interpolation:auto;text-rendering:auto;stroke:#000;stroke-linecap:square;stroke-miterlimit:10;shape-rendering:auto;stroke-opacity:1;fill:#000;stroke-dasharray:none;font-weight:400;stroke-width:1;font-family:&quot;Dialog&quot;;font-style:normal;stroke-linejoin:miter;font-size:12px;stroke-dashoffset:0;image-rendering:auto">
    <g style="stroke-linecap:round;fill:#623c35;stroke:#623c35">
        <path stroke="none" d="M.5 3V.5H2l.5.5h1l2 2h2l1 1h5l3 3h4L23 9.5v1l1 1v3l1 1v5l2 2 3-3v-1l3-3v-2l1-1v-1L37.5 8h1l1-1h3l2 2h1l1 1h3L52 7.5 53.5 9h1l2.5 2.5v3l1 1v7l-1 1v1l-3 3v3l3 3v1l1 1v8l1 1v9l1 1v3l1 1v1l2.5 2.5v1.5H62L60.5 62h-1l-2-2h-1l-1-1h-4L48 55.5v-1L46.5 53h-4L40 55.5 38.5 54h-1l-1-1h-3l-5 5h-1l-1 1h-3l-6-6h-2l-1 1h-1l-1 1h-3L7 52.5v-1l-1-1v-4l1-1v-1l1-1v-1l2-2v-2l2-2v-2l1-1v-3l-2-2v-1l-1-1v-1l-2-2v-5l-1-1v-6l-2-2v-1l-1-1v-1Z" style="stroke:none"/>
    </g>
    <g stroke="none" style="stroke-linecap:round;fill:#432a3b;stroke:#432a3b">
        <path d="M4 6.5v1l1 1v1l2 2v6l1 1v5l2 2v1l1 1v1l2 2v3l-1 1v2l-2 2v2l-2 2v1l-1 1v1l-1 1v4l1 1v1L9.5 55h3l1-1h1l1-1h2l6 6h3l1-1h1l5-5h3l1 1h1l1.5 1.5 2.5-2.5h4l1.5 1.5v1l3.5 3.5h4l1 1h1l2 2h1l1.5 1.5H.5V3Z" style="stroke:none"/>
        <path d="M2.5 1 2 .5h61.5V62L61 59.5v-1l-1-1v-3l-1-1v-9l-1-1v-8l-1-1v-1l-3-3v-3l3-3v-1l1-1v-7l-1-1v-3L54.5 9h-1L52 7.5 49.5 10h-3l-1-1h-1l-2-2h-3l-1 1h-1L34 11.5v1l-1 1v2l-3 3v1l-3 3-2-2v-5l-1-1v-3l-1-1v-1L20.5 7h-4l-3-3h-5l-1-1h-2l-2-2Z" style="fill:#895841;stroke:none"/>
        <path d="M12 17.5v3l2.5 2.5h2l1.5 1.5 2-2v-2l-1-1v-1L16.5 16h-3Z" style="fill:#623c35;stroke:none"/>
        <path d="M12 20.5v-3l1.5-1.5h3l2.5 2.5v1l1 1v2l-2 2-1.5-1.5h-2Z" style="fill:#895841;stroke:none"/>
        <path d="M13 43.5v2l1.5 1.5h1l1 1h3l2.5-2.5v-3L18.5 39h-3L14 40.5v2Z" style="fill:#623c35;stroke:none"/>
        <path d="M13 45.5v-2l1-1v-2l1.5-1.5h3l3.5 3.5v3L19.5 48h-3l-1-1h-1Z" style="stroke:none"/>
        <path d="M35 20.5v5l1 1v1l1.5 1.5h1l4 4h2l1.5-1.5v-3l2-2v-2l1-1v-7L45.5 13h-3l-1 1h-1l-2 2h-1L36 17.5v2Zm0 22v2l1.5 1.5h3l4.5-4.5v-2L42.5 38h-4L36 40.5v1Z" style="fill:#623c35;stroke:none"/>
        <path d="M35 25.5v-5l1-1v-2l1.5-1.5h1l2-2h1l1-1h3l3.5 3.5v7l-1 1v2l-2 2v3L44.5 33h-2l-4-4h-1L36 27.5v-1Z" style="fill:#895841;stroke:none"/>
        <path d="M35 44.5v-2l1-1v-1l2.5-2.5h4l1.5 1.5v2L39.5 46h-3Z" style="stroke:none"/>
    </g>
</svg>
