<svg xmlns="http://www.w3.org/2000/svg" width="32" height="32" style="fill-opacity:1;color-rendering:auto;color-interpolation:auto;text-rendering:auto;stroke:#000;stroke-linecap:square;stroke-miterlimit:10;shape-rendering:auto;stroke-opacity:1;fill:#000;stroke-dasharray:none;font-weight:400;stroke-width:1;font-family:&quot;Dialog&quot;;font-style:normal;stroke-linejoin:miter;font-size:12px;stroke-dashoffset:0;image-rendering:auto">
    <g style="stroke-linecap:round;fill:#623c35;stroke:#623c35">
        <path stroke="none" d="M.5 1V.5H3L7.5 5h4l1 1h3l5.5 5.5 1.5-1.5h1l1-1h2l2.5 2.5v4l-4 4v2l4 4v1l2.5 2.5v2.5H31L27.5 28h-1l-1-1h-1l-1-1h-3l-1 1h-2l-3-3h-3L9 26.5l-3-3v-2l-1-1v-2l2-2v-6l-1-1v-1l-1-1v-1l-2-2v-1Z" style="stroke:none"/>
    </g>
    <g stroke="none" style="stroke-linecap:round;fill:#432a3b;stroke:#432a3b">
        <path d="M3 3.5v1l2 2v1l1 1v1l1 1v6l-2 2v2l1 1v2l3 3 2.5-2.5h3l3 3h2l1-1h3l1 1h1l1 1h1l3.5 3.5H.5V1Z" style="stroke:none"/>
        <path d="M3 .5h28.5V29L29 26.5v-1l-4-4v-2l4-4v-4L26.5 9h-2l-1 1h-1L21 11.5 15.5 6h-3l-1-1h-4Z" style="fill:#895841;stroke:none"/>
        <path d="m13.5 19 3 3h2l3.5-3.5v-3L20.5 14h-2Z" style="fill:#623c35;stroke:none"/>
        <path d="m13.5 19 5-5h2l1.5 1.5v3L18.5 22h-2Z" style="fill:#895841;stroke:none"/>
    </g>
</svg>
