<svg xmlns="http://www.w3.org/2000/svg" width="32" height="32" style="fill-opacity:1;color-rendering:auto;color-interpolation:auto;text-rendering:auto;stroke:#000;stroke-linecap:square;stroke-miterlimit:10;shape-rendering:auto;stroke-opacity:1;fill:#000;stroke-dasharray:none;font-weight:400;stroke-width:1;font-family:&quot;Dialog&quot;;font-style:normal;stroke-linejoin:miter;font-size:12px;stroke-dashoffset:0;image-rendering:auto">
    <g style="stroke-linecap:round;fill:#515151;stroke:#515151">
        <path stroke="none" d="M.5 4V.5H4l1 1v1l1 1v1l1 1v1l1 1-.5.5-1-1h-1l-1-1h-1l-1-1h-1Z" style="stroke:none"/>
    </g>
    <g stroke="none" style="stroke-linecap:round;fill:#3c3838;stroke:#3c3838">
        <path d="M1.5 5h1l1 1h1l1 1h1l9 9H20v.5l4 4v2L22.5 24h-2l-1-1h-1l-3-3h-2l-1-1h-1L9 16.5v-1L5.5 12 4 13.5v7l1 1v1l1 1v1L7.5 26h1l1 1h1l1 1h13l3.5 3.5H.5V4Z" style="stroke:none"/>
        <path d="M4 .5h27.5V28L28 24.5v-1L20.5 16H16v-.5L12.5 12l-.5.5L7.5 8l.5-.5-1-1v-1l-1-1v-1l-1-1v-1Z" style="fill:#656565;stroke:none"/>
        <path d="M4 16v-2.5L5.5 12 9 15.5v1l2.5 2.5h1l1 1h2l3 3h1l1 1h2l1.5-1.5v-2l-4-4V16h.5l7.5 7.5v1l3.5 3.5v3.5H28L24.5 28h-4l-4-4h-1l-7-7h-1l-1-1Z" style="fill:#515151;stroke:none"/>
        <path d="M4 19.5V16h2.5l1 1h1l7 7h1l4 4H12v-.5Z" style="fill:#656565;stroke:none"/>
        <path d="m5 21.5-1-1v-1l1 1Z" style="fill:#515151;stroke:none"/>
        <path d="M5 22.5v-1l-1-1v-1l8 8v.5h-.5l-1-1h-1l-1-1h-1L6 24.5v-1Z" style="fill:#515151;stroke:none"/>
        <path d="M13 4.5v2L14.5 8h2l1 1h1l1 1h1l3.5 3.5v1l2 2 2-2v-3l-1-1v-1l-1-1v-1L24.5 6h-1l-3-3h-1l-1-1h-3Z" style="fill:#656565;stroke:none"/>
        <path d="m13 13.5-1-1 .5-.5.5.5Zm0-7v-2L15.5 2h3l1 1h1l3 3h1L26 7.5v1l1 1v1l1 1v3l-2 2-2-2v-1L20.5 10h-1l-1-1h-1l-1-1h-2Z" style="fill:#515151;stroke:none"/>
        <path d="m15 15.5-3-3 .5-.5 2.5 2.5Z" style="fill:#515151;stroke:none"/>
    </g>
</svg>
