<svg xmlns="http://www.w3.org/2000/svg" width="32" height="32" style="fill-opacity:1;color-rendering:auto;color-interpolation:auto;text-rendering:auto;stroke:#000;stroke-linecap:square;stroke-miterlimit:10;shape-rendering:auto;stroke-opacity:1;fill:#000;stroke-dasharray:none;font-weight:400;stroke-width:1;font-family:&quot;Dialog&quot;;font-style:normal;stroke-linejoin:miter;font-size:12px;stroke-dashoffset:0;image-rendering:auto">
    <g style="stroke-linecap:round;fill:#656565;stroke:#656565">
        <path stroke="none" d="M.5 4V.5h31V8h-2l-1 1h-1L24 12.5 22.5 11h-1l-7-7h-5l-1 1h-1L5 7.5l.5.5h7l1 1h1l7 7h5l1-1h1l3-3v16L28 24.5v-1L25.5 21h-1l-1-1H16v-.5l-1-1v-1l-1-1v-1L12.5 14h-1l-1-1h-1L3 6.5v-1L2.5 5h-1Z" style="stroke:none"/>
    </g>
    <g stroke="none" style="stroke-linecap:round;fill:#3c3838;stroke:#3c3838">
        <path d="M1.5 5h1l.5.5v1L4.5 8l-.5.5L15.5 20h8l1 1h1l2.5 2.5v.5h-2.5l-2 2 3.5 3.5v1l1 1H16v-1l4.5-4.5-2-2h-5l-1-1h-1L9 20.5v-1l-3-3-2 2v2l1 1v1l1 1v1L7.5 26h1l1.5 1.5v1l1 1v1l1 1H.5V4Z" style="stroke:none"/>
        <path d="m5 9.5-1-1 .5-.5.5.5Zm-1 11v-2l2-2 3 3v1l2.5 2.5h1l1 1h5l2 2-4.5 4.5v1h-4l-1-1v-1l-1-1v-1L8.5 26h-1L6 24.5v-1l-1-1v-1ZM5.5 8 5 7.5 7.5 5h1l1-1h5l7 7h1l1.5 1.5L27.5 9h1l1-1h2v4l-3 3h-1l-1 1h-5l-7-7h-1l-1-1Z" style="fill:#515151;stroke:none"/>
        <path d="m7 11.5-3-3 .5-.5L7 10.5Z" style="fill:#515151;stroke:none"/>
        <path d="m9 13.5-5-5 .5-.5L9 12.5Z" style="fill:#515151;stroke:none"/>
        <path d="M11.5 14h1l1.5 1.5v1l1 1v1l1 1v.5h-.5L4 8.5l.5-.5 5 5h1Zm12 12 2-2H28v.5l3.5 3.5v3.5H28l-1-1v-1Z" style="fill:#515151;stroke:none"/>
    </g>
</svg>
