<svg xmlns="http://www.w3.org/2000/svg" width="32" height="32" style="fill-opacity:1;color-rendering:auto;color-interpolation:auto;text-rendering:auto;stroke:#000;stroke-linecap:square;stroke-miterlimit:10;shape-rendering:auto;stroke-opacity:1;fill:#000;stroke-dasharray:none;font-weight:400;stroke-width:1;font-family:&quot;Dialog&quot;;font-style:normal;stroke-linejoin:miter;font-size:12px;stroke-dashoffset:0;image-rendering:auto">
    <g style="stroke-linecap:round;fill:#fff;stroke:#fff">
        <path stroke="none" d="m2 14.5 1 1v2l.5.5.5-.5v-2l1-1L3.5 13Z" style="stroke:none"/>
    </g>
    <g stroke="none" style="stroke-linecap:round">
        <path d="M2 14.5 3.5 13 5 14.5l-1 1v2l-.5.5-.5-.5v-2Z" style="stroke:none"/>
        <path d="M6 4.5v4l.5.5L8 7.5l-1-1v-2L6.5 4Zm2 14 1-1L6.5 15l-1 1Zm-2 4v3l.5.5.5-.5v-1l1-1L6.5 22Z" style="fill:#fff;stroke:none"/>
        <path d="m7 6.5 1 1L6.5 9 6 8.5v-4l.5-.5.5.5Z" style="stroke:none"/>
        <path d="M7 14.5 8.5 16l.5-.5L7.5 14Z" style="fill:#fff;stroke:none"/>
        <path d="m9 17.5-1 1L5.5 16l1-1Z" style="stroke:none"/>
        <path d="m7 21.5.5.5.5-.5-.5-.5Z" style="fill:#fff;stroke:none"/>
        <path d="m8 23.5-1 1v1l-.5.5-.5-.5v-3l.5-.5Z" style="stroke:none"/>
        <path d="m8.5 4-.5.5v2L10.5 9l.5-.5v-4l-.5-.5-.5.5v2l-.5.5-.5-.5v-2Z" style="fill:#fff;stroke:none"/>
        <path d="m9 6.5.5.5.5-.5v-2l.5-.5.5.5v4l-.5.5L8 6.5v-2l.5-.5.5.5Z" style="stroke:none"/>
        <path d="m10 14.5 1 1v1l.5.5h1l1 1 .5-.5-1-1v-1l-.5-.5h-1l-1-1Zm0 8 1 1v1l.5.5 1-1-2-2Z" style="fill:#fff;stroke:none"/>
        <path d="m10 24.5 1 1-.5.5-2-2 1-1 .5.5Z" style="stroke:none"/>
        <path d="m10.5 26 .5-.5-1-1v-1l-.5-.5-1 1Z" style="fill:#fff;stroke:none"/>
        <path d="m11 15.5-1-1 .5-.5.5.5Zm-.5 2.5-.5-.5.5-.5.5.5Zm2 6-1 1-.5-.5v-1l-1-1 .5-.5Z" style="stroke:none"/>
        <path d="m12.5 5-.5.5v3l.5.5.5-.5v-1l1-1Z" style="fill:#fff;stroke:none"/>
        <path d="m14 6.5-1 1v1l-.5.5-.5-.5v-3l.5-.5Z" style="stroke:none"/>
        <path d="m13 14.5.5.5.5-.5-.5-.5Z" style="fill:#fff;stroke:none"/>
        <path d="m13 16.5 1 1-.5.5-1-1h-1l-.5-.5v-1l-1-1 .5-.5 1 1h1l.5.5Z" style="stroke:none"/>
        <path d="M13 22.5v3l1 1 1-1-1-1v-2l-.5-.5Z" style="fill:#fff;stroke:none"/>
        <path d="m14 24.5 1 1-1 1-1-1v-3l.5-.5.5.5Z" style="stroke:none"/>
        <path d="m16 5.5 1 1v1l.5.5 1-1-2-2Z" style="fill:#fff;stroke:none"/>
        <path d="m16 7.5 1 1-.5.5-2-2 1-1 .5.5Z" style="stroke:none"/>
        <path d="m16.5 9 .5-.5-1-1v-1l-.5-.5-1 1ZM15 14.5l1 1v2l.5.5.5-.5v-2l1-1-1.5-1.5Z" style="fill:#fff;stroke:none"/>
        <path d="m15 14.5 1.5-1.5 1.5 1.5-1 1v2l-.5.5-.5-.5v-2Z" style="stroke:none"/>
        <path d="m15.5 25 1 1h2l.5-.5v-3l-.5-.5-1.5 1.5 1 1-.5.5-1-1Z" style="fill:#fff;stroke:none"/>
        <path d="m17.5 25 .5-.5-1-1 1.5-1.5.5.5v3l-.5.5h-2l-1-1 1-1Zm1-18-1 1-.5-.5v-1l-1-1 .5-.5Z" style="stroke:none"/>
        <path d="M19 5.5v3l.5.5.5-.5v-1l.5-.5 2 2 .5-.5v-3l-.5-.5-.5.5v1l-.5.5-2-2Zm2 13 1-1-.5-.5h-1l-.5-.5v-2l-.5-.5-.5.5v2Z" style="fill:#fff;stroke:none"/>
        <path d="m21.5 7 .5-.5v-1l.5-.5.5.5v3l-.5.5-2-2-.5.5v1l-.5.5-.5-.5v-3l.5-.5ZM20 16.5l.5.5h1l.5.5-1 1-2-2v-2l.5-.5.5.5Z" style="stroke:none"/>
        <path d="m21 22.5 1.5 1.5.5-.5-1.5-1.5Z" style="fill:#fff;stroke:none"/>
        <path d="m23 25.5-1 1-2.5-2.5 1-1Z" style="stroke:none"/>
        <path d="m22 26.5 1-1-2.5-2.5-1 1Zm0-12v2l.5.5.5-.5v-2l-.5-.5Z" style="fill:#fff;stroke:none"/>
        <path d="m23 16.5-.5.5-.5-.5v-2l.5-.5.5.5Z" style="stroke:none"/>
        <path d="M24 22.5v3l.5.5.5-.5v-1l1-1-1.5-1.5Zm1-17L26.5 7l-1 1-.5-.5v-1l-.5-.5-1 1L26 9.5v1l.5.5.5-.5v-5l-1-1Z" style="fill:#fff;stroke:none"/>
        <path d="m25 7.5.5.5 1-1L25 5.5l1-1 1 1v5l-.5.5-.5-.5v-1L23.5 7l1-1 .5.5Z" style="stroke:none"/>
        <path d="m25 11.5.5.5.5-.5-.5-.5Zm-.5 2.5-.5.5v3l.5.5.5-.5v-1l1-1Z" style="fill:#fff;stroke:none"/>
        <path d="m26 15.5-1 1v1l-.5.5-.5-.5v-3l.5-.5Zm0 8-1 1v1l-.5.5-.5-.5v-3l.5-.5Z" style="stroke:none"/>
        <path d="m28 14.5 1.5 1.5.5-.5-1.5-1.5Z" style="fill:#fff;stroke:none"/>
        <path d="m30 17.5-1 1-2.5-2.5 1-1Z" style="stroke:none"/>
        <path d="m29 18.5 1-1-2.5-2.5-1 1Z" style="fill:#fff;stroke:none"/>
    </g>
</svg>
