<svg xmlns="http://www.w3.org/2000/svg" width="32" height="32" style="fill-opacity:1;color-rendering:auto;color-interpolation:auto;text-rendering:auto;stroke:#000;stroke-linecap:square;stroke-miterlimit:10;shape-rendering:auto;stroke-opacity:1;fill:#000;stroke-dasharray:none;font-weight:400;stroke-width:1;font-family:&quot;Dialog&quot;;font-style:normal;stroke-linejoin:miter;font-size:12px;stroke-dashoffset:0;image-rendering:auto">
    <g style="stroke-linecap:round;fill:#453e3d;stroke:#453e3d">
        <path stroke="none" d="M4 5.5v2l1 1v2L7.5 13h3L14 9.5v-2L9.5 3h-3Z" style="stroke:none"/>
    </g>
    <g stroke="none" style="stroke-linecap:round;fill:#675b53;stroke:#675b53">
        <path d="M4 7.5v-2L6.5 3h3L14 7.5v2L10.5 13h-3L5 10.5v-2Z" style="stroke:none"/>
        <path d="M9 20.5v2l2 2v1l2.5 2.5h3l2.5-2.5v-1l1-1v-2l-1-1v-1l-1-1v-1L16.5 16h-4L10 18.5v1Z" style="fill:#453e3d;stroke:none"/>
        <path d="M9 22.5v-2l1-1v-1l2.5-2.5h4l1.5 1.5v1l1 1v1l1 1v2l-1 1v1L16.5 28h-3L11 25.5v-1Z" style="stroke:none"/>
    </g>
</svg>
