<svg xmlns="http://www.w3.org/2000/svg" width="32" height="32" style="fill-opacity:1;color-rendering:auto;color-interpolation:auto;text-rendering:auto;stroke:#000;stroke-linecap:square;stroke-miterlimit:10;shape-rendering:auto;stroke-opacity:1;fill:#000;stroke-dasharray:none;font-weight:400;stroke-width:1;font-family:&quot;Dialog&quot;;font-style:normal;stroke-linejoin:miter;font-size:12px;stroke-dashoffset:0;image-rendering:auto">
    <g style="stroke-linecap:round;fill:#453e3d;stroke:#453e3d">
        <path stroke="none" d="M4 10.5v3l3 3 3-3v-2L7.5 9h-2Z" style="stroke:none"/>
    </g>
    <g stroke="none" style="stroke-linecap:round;fill:#675b53;stroke:#675b53">
        <path d="M4 13.5v-3L5.5 9h2l2.5 2.5v2l-3 3Z" style="stroke:none"/>
        <path d="M17 3.5v2l6 6v1l2.5 2.5h3l1.5-1.5v-2l-1-1v-1l-2-2v-1L21.5 1h-2Z" style="fill:#453e3d;stroke:none"/>
        <path d="M17 5.5v-2L19.5 1h2L27 6.5v1l2 2v1l1 1v2L28.5 15h-3L23 12.5v-1Z" style="stroke:none"/>
    </g>
</svg>
