<svg xmlns="http://www.w3.org/2000/svg" width="32" height="32" style="fill-opacity:1;color-rendering:auto;color-interpolation:auto;text-rendering:auto;stroke:#000;stroke-linecap:square;stroke-miterlimit:10;shape-rendering:auto;stroke-opacity:1;fill:#000;stroke-dasharray:none;font-weight:400;stroke-width:1;font-family:&quot;Dialog&quot;;font-style:normal;stroke-linejoin:miter;font-size:12px;stroke-dashoffset:0;image-rendering:auto">
    <g style="stroke-linecap:round;fill:#453e3d;stroke:#453e3d">
        <path stroke="none" d="M3 2.5v1L5.5 6h1L9 8.5v2l-1 1v1l-1 1v1l-3 3v5L5.5 24h3l4 4h3l2-2h2l1 1h1l1 1h5l3.5 3.5H.5V.5H1Z" style="stroke:none"/>
    </g>
    <g stroke="none" style="stroke-linecap:round;fill:#675b53;stroke:#675b53">
        <path d="m2 1.5-1-1h1Z" style="stroke:none"/>
        <path d="M2 .5h29.5V31L27 26.5v-1L24.5 23l3.5-3.5v-1l1-1v-2l-2-2-2 2-4-4v-6L19.5 4h-2l-1 1h-1L13 7.5 10.5 5h-1L8 3.5 6.5 5Z" style="fill:#877d72;stroke:none"/>
        <path d="M6.5 5 8 3.5 9.5 5h1L13 7.5 15.5 5h1l1-1h2L21 5.5v6l4 4 2-2 2 2v2l-1 1v1L24.5 23l2.5 2.5v1l4.5 4.5v.5H31L27.5 28h-5l-1-1h-1l-1-1h-2l-2 2h-3l-4-4h-3L4 22.5v-5l3-3v-1l1-1v-1l1-1v-2L6.5 6h-1L3 3.5v-1l-2-2h1Z" style="stroke:none"/>
    </g>
</svg>
