<svg xmlns="http://www.w3.org/2000/svg" width="32" height="32" style="fill-opacity:1;color-rendering:auto;color-interpolation:auto;text-rendering:auto;stroke:#000;stroke-linecap:square;stroke-miterlimit:10;shape-rendering:auto;stroke-opacity:1;fill:#000;stroke-dasharray:none;font-weight:400;stroke-width:1;font-family:&quot;Dialog&quot;;font-style:normal;stroke-linejoin:miter;font-size:12px;stroke-dashoffset:0;image-rendering:auto">
    <g style="stroke-linecap:round;fill:#3c4448;stroke:#3c4448">
        <path stroke="none" d="M4.5 4h1l1 1h4l2-2h2l1 1h2l1 1h1l2 2h1l1 1h1l1 1h1l2.5 2.5v4L24.5 20l1.5 1.5v1l5.5 5.5v3l-3-3h-3l-1-1h-4l-3 3h-2l-1-1h-1l-2-2h-2l-3-3h-1L3 21.5v-2L4.5 18l4 4h2l3-3h1l2.5-2.5v-2L14.5 12h-1l-5-5h-2l-1-1h-2l-3-3V.5H1Z" style="stroke:none"/>
    </g>
    <g stroke="none" style="stroke-linecap:round;fill:#282b34;stroke:#282b34">
        <path d="M3.5 6h2l1 1h2l5 5h1l2.5 2.5v2L14.5 19H14v-1.5l-6-6-2 2v1l-2 2v1l.5.5L3 19.5v2L5.5 24h1l3 3h2l2 2h1l1 1h2l3-3h4l1 1h3l3 3v.5H.5V3Z" style="stroke:none"/>
        <path d="M1 .5h30.5V28L26 22.5v-1L24.5 20l4.5-4.5v-4L26.5 9h-1l-1-1h-1l-1-1h-1l-2-2h-1l-1-1h-2l-1-1h-2l-2 2h-4l-1-1h-1Z" style="fill:#5b6567;stroke:none"/>
        <path d="M4 17.5v-1l2-2L9.5 18h1l1 1h2l-3 3h-2Z" style="fill:#626f9b;stroke:none"/>
        <path d="M6 14.5v-1l2-2 6 6V19h-2.5l-1-1h-1Z" style="fill:#95abd9;stroke:none"/>
        <path d="m13 24.5 2.5 2.5h2l2.5-2.5v-2L17.5 20h-2L13 22.5Z" style="fill:#3c4448;stroke:none"/>
        <path d="M13 24.5v-2l2.5-2.5h2l2.5 2.5v2L17.5 27h-2Z" style="stroke:none"/>
        <path d="M19 13.5v3l1.5 1.5h2l1.5-1.5v-1l1-1v-2L23.5 11h-2Z" style="fill:#3c4448;stroke:none"/>
        <path d="M19 16.5v-3l2.5-2.5h2l1.5 1.5v2l-1 1v1L22.5 18h-2Z" style="fill:#5b6567;stroke:none"/>
    </g>
</svg>
