<svg xmlns="http://www.w3.org/2000/svg" width="32" height="32" style="fill-opacity:1;color-rendering:auto;color-interpolation:auto;text-rendering:auto;stroke:#000;stroke-linecap:square;stroke-miterlimit:10;shape-rendering:auto;stroke-opacity:1;fill:#000;stroke-dasharray:none;font-weight:400;stroke-width:1;font-family:&quot;Dialog&quot;;font-style:normal;stroke-linejoin:miter;font-size:12px;stroke-dashoffset:0;image-rendering:auto">
    <g style="stroke-linecap:round;fill:#6aa95e;stroke:#6aa95e">
        <path stroke="none" d="M4 10.5v2l1 1v1L9.5 19h1l1 1h2l2.5-2.5v-2l-1-1v-1L10.5 9h-1l-1-1h-2Z" style="stroke:none"/>
    </g>
    <g stroke="none" style="stroke-linecap:round;fill:#80b963;stroke:#80b963">
        <path d="M4 12.5v-2L6.5 8h2l1 1h1l4.5 4.5v1l1 1v2L13.5 20h-2l-1-1h-1L5 14.5v-1Z" style="stroke:none"/>
        <path d="M17 26.5v3l1.5 1.5h4l4.5-4.5v-1l1-1v-2L25.5 20h-2l-1 1h-1L18 24.5v1Z" style="fill:#6aa95e;stroke:none"/>
        <path d="M17 29.5v-3l1-1v-1l3.5-3.5h1l1-1h2l2.5 2.5v2l-1 1v1L22.5 31h-4Z" style="stroke:none"/>
    </g>
</svg>
