<svg xmlns="http://www.w3.org/2000/svg" width="32" height="32" style="fill-opacity:1;color-rendering:auto;color-interpolation:auto;text-rendering:auto;stroke:#000;stroke-linecap:square;stroke-miterlimit:10;shape-rendering:auto;stroke-opacity:1;fill:#000;stroke-dasharray:none;font-weight:400;stroke-width:1;font-family:&quot;Dialog&quot;;font-style:normal;stroke-linejoin:miter;font-size:12px;stroke-dashoffset:0;image-rendering:auto">
    <g style="stroke-linecap:round;fill:#6aa95e;stroke:#6aa95e">
        <path stroke="none" d="M4 14.5v2l1 1v1l5.5 5.5h2l1-1h1l1.5-1.5v-2l-1-1v-1L10.5 13h-1l-1-1h-2Z" style="stroke:none"/>
    </g>
    <g stroke="none" style="stroke-linecap:round;fill:#80b963;stroke:#80b963">
        <path d="M4 16.5v-2L6.5 12h2l1 1h1l4.5 4.5v1l1 1v2L14.5 23h-1l-1 1h-2L5 18.5v-1Z" style="stroke:none"/>
        <path d="M20 10.5v3l2.5 2.5h3l4.5-4.5v-1l1-1v-4L29.5 4h-3l-1 1h-1L21 8.5v1Z" style="fill:#6aa95e;stroke:none"/>
        <path d="M20 13.5v-3l1-1v-1L24.5 5h1l1-1h3L31 5.5v4l-1 1v1L25.5 16h-3Z" style="stroke:none"/>
    </g>
</svg>
