<svg xmlns="http://www.w3.org/2000/svg" width="32" height="32" style="fill-opacity:1;color-rendering:auto;color-interpolation:auto;text-rendering:auto;stroke:#000;stroke-linecap:square;stroke-miterlimit:10;shape-rendering:auto;stroke-opacity:1;fill:#000;stroke-dasharray:none;font-weight:400;stroke-width:1;font-family:&quot;Dialog&quot;;font-style:normal;stroke-linejoin:miter;font-size:12px;stroke-dashoffset:0;image-rendering:auto">
    <g style="stroke-linecap:round;fill:#3c3838;stroke:#3c3838">
        <path stroke="none" d="M1 16.5v1l-.5.5V.5h31v31H8l1-1v-2l-.5-.5 1.5-1.5v-1l.5-.5h1l.5-.5v-1l1.5-1.5-2-2h-5l-1 1-1-1L8 16.5v-1L9.5 14l-2-2L9 10.5v-1l.5-.5h1L13 6.5v2l2.5 2.5h1l1 1h3l1-1h1l.5-.5v-1l1-1V8h2.5l2-2-2-2h-2l-.5.5v3l-2-2L19.5 8l-1-1H17V5.5l-.5-.5h-2l2-2-2-2h-2l-2 2h-2l-1 1h-1L5 5.5v1l-1 1v4l1 1Z" style="stroke:none"/>
    </g>
    <g stroke="none" style="stroke-linecap:round;fill:#dd7b52;stroke:#dd7b52">
        <path d="M.5 19v-1l.5-.5v-1L5.5 12h2l2 2L8 15.5v1L4.5 20l-.5-.5v-2l-1-1Z" style="stroke:none"/>
        <path d="M.5 25v-6L3 16.5l1 1v2L5.5 21l-.5.5v7l-1 1L2.5 28l-.5.5-1-1v-2Z" style="fill:#ffb04a;stroke:none"/>
        <path d="m1 27.5 4 4H.5V25l.5.5Z" style="fill:#3c3838;stroke:none"/>
        <path d="m3 29.5-1-1 .5-.5.5.5Z" style="stroke:none"/>
        <path d="m5 12.5-1-1v-4l1-1v-1L6.5 4h1l1-1h2l2-2h2l2 2-2 2h-1l-.5.5v1L10.5 9h-1l-.5.5v1L7.5 12h-2Z" style="fill:#515151;stroke:none"/>
        <path d="m2 28.5.5-.5L4 29.5l1-1v-4l1 1v1l.5.5h1L9 28.5v2l-1 1H5Z" style="stroke:none"/>
        <path d="M5 24.5v-3L6.5 20h5l2 2-1.5 1.5v1l-.5.5h-1l-.5.5v1L8.5 28l-1-1h-1l-.5-.5v-1Z" style="fill:#515151;stroke:none"/>
        <path d="M13.5 6H13v-.5l.5-.5h.5v.5Z" style="fill:#3c3838;stroke:none"/>
        <path d="M13 8.5V6h.5l.5-.5V5h2.5l.5.5v2l-1 1V11h-.5Z" style="stroke:none"/>
        <path d="M16.5 11H16V8.5l1-1V7h1.5l1 1 .5-.5 1 1v2L19.5 12h-2Z" style="fill:#ffb04a;stroke:none"/>
        <path d="M20 23.5v6l1.5 1.5h2l2.5-2.5v-1l1.5-1.5h1l2.5-2.5v-2L29.5 20h-6Z" style="fill:#3c3838;stroke:none"/>
        <path d="m20 7.5 2-2 2 2v1l-1 1v1l-.5.5h-1l-1 1h-1l1.5-1.5v-2Z" style="stroke:none"/>
        <path d="M20 29.5v-6l3.5-3.5h6l1.5 1.5v2L28.5 26h-1L26 27.5v1L23.5 31h-2ZM24 8V4.5l.5-.5h2l2 2-2 2Z" style="fill:#515151;stroke:none"/>
    </g>
</svg>
