<svg xmlns="http://www.w3.org/2000/svg" width="32" height="32" style="fill-opacity:1;color-rendering:auto;color-interpolation:auto;text-rendering:auto;stroke:#000;stroke-linecap:square;stroke-miterlimit:10;shape-rendering:auto;stroke-opacity:1;fill:#000;stroke-dasharray:none;font-weight:400;stroke-width:1;font-family:&quot;Dialog&quot;;font-style:normal;stroke-linejoin:miter;font-size:12px;stroke-dashoffset:0;image-rendering:auto">
    <g style="stroke-linecap:round;fill:#3c3838;stroke:#3c3838">
        <path stroke="none" d="M1 7.5v2l2 2v3l-1 1 .5.5L1 17.5v2l-.5.5V.5H7l-3 3v2l3 3L8.5 7h1L11 5.5v-1L12.5 3 10 .5h21.5v31H.5V23L2 24.5l3-3v-1l2-2v-1l1-1v-6l-5-5Z" style="stroke:none"/>
    </g>
    <g stroke="none" style="stroke-linecap:round;fill:#dd7b52;stroke:#dd7b52">
        <path d="M.5 23v-3l.5-.5v-2L2.5 16l2 2H7v.5l-2 2v1l-3 3ZM1 9.5v-2l2-2 5 5v3l-1-1v-1l-1-1-3 3v-2Z" style="stroke:none"/>
        <path d="m2 15.5 1-1v-1l3-3 1 1v1l1 1v3l-1 1v.5H4.5Z" style="fill:#ffb04a;stroke:none"/>
        <path d="m4 26.5 2 2L7.5 27h1l2.5-2.5v-1l1.5-1.5-2-2h-3L4 23.5Z" style="fill:#3c3838;stroke:none"/>
        <path d="M4 5.5v-2l3-3h3L12.5 3 11 4.5v1L9.5 7h-1L7 8.5Zm0 21v-3L7.5 20h3l2 2-1.5 1.5v1L8.5 27h-1L6 28.5Z" style="fill:#515151;stroke:none"/>
        <path d="m15.5 6 2 2h5L20 10.5v1l-2 2v3l1.5 1.5h4l3.5-3.5v-1l1-1v-2L25.5 8 28 5.5v-3l-2-2L23.5 3h-1l-1 1h-4Z" style="fill:#3c3838;stroke:none"/>
        <path d="m15.5 6 2-2h4l-1 1h-1l-1 1 1 1h1l1 1h-4Z" style="stroke:none"/>
        <path d="M18 16.5v-3l2-2v-1L22.5 8h3l2.5 2.5v2l-1 1v1L23.5 18h-4Z" style="fill:#515151;stroke:none"/>
        <path d="m19.5 7-1-1 1-1h1l1-1h3l2 2-2 2h-3l-1-1Z" style="fill:#ffb04a;stroke:none"/>
        <path d="m21.5 4 1-1h1L26 .5l2 2v3L25.5 8h-1l2-2-2-2Z" style="stroke:none"/>
        <path d="M24 26.5v3l1.5 1.5h2l3.5-3.5v-2L29.5 24h-3Z" style="fill:#3c3838;stroke:none"/>
        <path d="M24 29.5v-3l2.5-2.5h3l1.5 1.5v2L27.5 31h-2Z" style="fill:#515151;stroke:none"/>
    </g>
</svg>
