<svg xmlns="http://www.w3.org/2000/svg" width="32" height="32" style="fill-opacity:1;color-rendering:auto;color-interpolation:auto;text-rendering:auto;stroke:#000;stroke-linecap:square;stroke-miterlimit:10;shape-rendering:auto;stroke-opacity:1;fill:#000;stroke-dasharray:none;font-weight:400;stroke-width:1;font-family:&quot;Dialog&quot;;font-style:normal;stroke-linejoin:miter;font-size:12px;stroke-dashoffset:0;image-rendering:auto">
    <g style="stroke-linecap:round;fill:#c2bffb;stroke:#c2bffb">
        <path stroke="none" d="M.5 1V.5H1L3.5 3h1L7 5.5v1l2 2v1l2 2v1l1 1v3l3.5 3.5h1l1 1h1l2 2h1l1 1h5l2.5 2.5v1l1.5 1.5v2.5H30L27.5 29h-1l-3-3h-1l-1-1h-1l-1-1h-5l-1 1h-4L8 23.5v-4l2-2v-2l-1-1v-1l-1-1v-2l-3-3v-1l-1-1v-1Z" style="stroke:none"/>
    </g>
    <g stroke="none" style="stroke-linecap:round;fill:#827de9;stroke:#827de9">
        <path d="M4 4.5v1l1 1v1l3 3v2l1 1v1l1 1v2l-2 2v4L9.5 25h4l1-1h5l1 1h1l1 1h1l3 3h1l2.5 2.5H.5V1Z" style="stroke:none"/>
        <path d="M1 .5h30.5V29L30 27.5v-1L27.5 24h-5l-1-1h-1l-2-2h-1l-1-1h-1L12 16.5v-3l-1-1v-1l-2-2v-1l-2-2v-1L4.5 3h-1Z" style="fill:#e9ebff;stroke:none"/>
        <path d="M10 5.5v3L24.5 23h2l2-2-1.5-1.5v-2l-1-1v-1l-3-3 .5-.5 1 1h3l.5-.5v-2L25.5 8h-1l-4-4h-9Z" style="fill:#e9ebff;stroke:none"/>
        <path d="M10 8.5v-3L11.5 4h3L26 15.5v1l1 1v2l1.5 1.5-2 2h-2Z" style="fill:#fff;stroke:none"/>
        <path d="M14.5 4h6l4 4h1l2.5 2.5v2l-.5.5h-3l-1-1-.5.5Z" style="fill:#c2bffb;stroke:none"/>
    </g>
</svg>
