<svg xmlns="http://www.w3.org/2000/svg" width="32" height="32" style="fill-opacity:1;color-rendering:auto;color-interpolation:auto;text-rendering:auto;stroke:#000;stroke-linecap:square;stroke-miterlimit:10;shape-rendering:auto;stroke-opacity:1;fill:#000;stroke-dasharray:none;font-weight:400;stroke-width:1;font-family:&quot;Dialog&quot;;font-style:normal;stroke-linejoin:miter;font-size:12px;stroke-dashoffset:0;image-rendering:auto">
    <g style="stroke-linecap:round;fill:#c2bffb;stroke:#c2bffb">
        <path stroke="none" d="M.5 3V.5H4l5 5-1 1 8.5 8.5-4.5 4.5v3l2 2 1.5-1.5h1l3.5-3.5 1.5 1.5h1l1 1h1l1 1h1l5 5v3.5H30L24.5 26h-1l-1-1h-1L20 23.5 18.5 25h-1L14 28.5l-4-4v-1l-1-1v-1l-1-1v-1l-1-1v-1L3.5 14l2-2h1l2-2-4-4h-1Z" style="stroke:none"/>
    </g>
    <g stroke="none" style="stroke-linecap:round;fill:#827de9;stroke:#827de9">
        <path d="M3.5 6h1l4 4-2 2h-1l-2 2L7 17.5v1l1 1v1l1 1v1l1 1v1l4 4 3.5-3.5h1l1.5-1.5 1.5 1.5h1l1 1h1l5.5 5.5H.5V3Z" style="stroke:none"/>
        <path d="M4 .5h27.5V28l-5-5h-1l-1-1h-1l-1-1h2l1.5-1.5v-2l-1-1v-1l-2-2v-1l-3-3L21.5 8h1l2-2-2-2h-2l-1-1h-3L15 4.5l-.5-.5h-4L9 5.5Z" style="fill:#e9ebff;stroke:none"/>
        <path d="M8 6.5 10.5 4h4l8.5 8.5v1l2 2v1l1 1v2L24.5 21H22v-.5Z" style="fill:#fff;stroke:none"/>
        <path d="M12 22.5v-3l4.5-4.5 5.5 5.5v.5h-.5L20 19.5 16.5 23h-1L14 24.5Z" style="fill:#e9ebff;stroke:none"/>
        <path d="M15 4.5 16.5 3h3l1 1h2l2 2-2 2h-1L20 9.5Z" style="fill:#c2bffb;stroke:none"/>
    </g>
</svg>
