<svg xmlns="http://www.w3.org/2000/svg" width="32" height="32" style="fill-opacity:1;color-rendering:auto;color-interpolation:auto;text-rendering:auto;stroke:#000;stroke-linecap:square;stroke-miterlimit:10;shape-rendering:auto;stroke-opacity:1;fill:#000;stroke-dasharray:none;font-weight:400;stroke-width:1;font-family:&quot;Dialog&quot;;font-style:normal;stroke-linejoin:miter;font-size:12px;stroke-dashoffset:0;image-rendering:auto">
    <g style="stroke-linecap:round;fill:#c2bffb;stroke:#c2bffb">
        <path stroke="none" d="M.5 15V.5H14l-9 9v8l2 2 19-19h5.5V15L15 31.5H.5V26L2 24.5v-8Z" style="stroke:none"/>
    </g>
    <g stroke="none" style="stroke-linecap:round;fill:#e9ebff;stroke:#e9ebff">
        <path d="M2 16.5v8L.5 26V15Zm3 1v-8l9-9h12l-19 19Z" style="stroke:none"/>
        <path d="M16 20.5v3l1 1 13-13v-3l-1-1Z" style="fill:#c2bffb;stroke:none"/>
        <path d="m17 24.5-1-1v-3l13-13 1 1v3Zm10 7H15L31.5 15v12Z" style="stroke:none"/>
    </g>
</svg>
