<svg xmlns="http://www.w3.org/2000/svg" width="32" height="32" style="fill-opacity:1;color-rendering:auto;color-interpolation:auto;text-rendering:auto;stroke:#000;stroke-linecap:square;stroke-miterlimit:10;shape-rendering:auto;stroke-opacity:1;fill:#000;stroke-dasharray:none;font-weight:400;stroke-width:1;font-family:&quot;Dialog&quot;;font-style:normal;stroke-linejoin:miter;font-size:12px;stroke-dashoffset:0;image-rendering:auto">
    <g style="stroke-linecap:round;fill:#c2bffb;stroke:#c2bffb">
        <path stroke="none" d="M.5 3V.5H14L.5 14V8L5 3.5v-2L4.5 1h-2Z" style="stroke:none"/>
    </g>
    <g stroke="none" style="stroke-linecap:round;fill:#e9ebff;stroke:#e9ebff">
        <path d="M.5 8V3l2-2h2l.5.5v2Zm0 18V14L14 .5h12Z" style="stroke:none"/>
        <path d="M15 31.5H.5V26L26 .5h5.5V4L24 11.5v2l.5.5h2l5-5v6Z" style="fill:#c2bffb;stroke:none"/>
        <path d="m24.5 14-.5-.5v-2L31.5 4v5l-5 5ZM27 31.5H15L31.5 15v12Z" style="stroke:none"/>
    </g>
</svg>
