<svg xmlns="http://www.w3.org/2000/svg" width="32" height="32" style="fill-opacity:1;color-rendering:auto;color-interpolation:auto;text-rendering:auto;stroke:#000;stroke-linecap:square;stroke-miterlimit:10;shape-rendering:auto;stroke-opacity:1;fill:#000;stroke-dasharray:none;font-weight:400;stroke-width:1;font-family:&quot;Dialog&quot;;font-style:normal;stroke-linejoin:miter;font-size:12px;stroke-dashoffset:0;image-rendering:auto">
    <g style="stroke-linecap:round;fill:#3c3838;stroke:#3c3838">
        <path stroke="none" d="M1 11.5v2l1 1v1l1 1v1l3 3L4.5 22 6 23.5v1L7.5 26h1l1 1h1l1 1h1l3 3h2l1.5-1.5v-3l-1-1 1.5-1.5h.5v2.5l2 2 1.5-1.5h1l.5-.5v-1l5-5v-3L28.5 16l.5-.5-1.5-1.5h-2l-2 2h-2L16 10.5 17.5 9h5l1-1h1L26 6.5v-2L23.5 2h-1l-1-1h-3l-3 3h-3l-1 1L9 2.5 7.5 4h-1L4 6.5v1l-1 1v1Z" style="stroke:none"/>
    </g>
    <g stroke="none" style="stroke-linecap:round;fill:#dd7b52;stroke:#dd7b52">
        <path d="M1 13.5v-2l2-2v-1l1-1v3L5.5 12 4 13.5v2L5.5 17h2l5.5-5.5v-4l-2-2L12.5 4h3l3-3h3l1 1h1L26 4.5v2L24.5 8H24V6.5l-3-3-1 1L18.5 3l-1 1h-1L15 5.5v2l.5.5h2l1-1 2 2h-3L16 10.5l5.5 5.5h2l2-2h2l1.5 1.5-1.5 1.5h-1L21 22.5v1l-.5.5h-1L18 25.5l1 1v3L17.5 31h-2l-3-3h-1l-1-1 1.5-1.5v-3L9.5 20l3-3-1-1-1 1h-1l-.5.5v1L7.5 20h-1l-.5.5-3-3v-1l-1-1v-1Z" style="stroke:none"/>
        <path d="M4 10.5v-4L6.5 4h1L9 2.5 11.5 5l-.5.5v2l-2 2v1L7.5 12h-2Z" style="fill:#515151;stroke:none"/>
        <path d="M4 15.5v-2L5.5 12h2L9 10.5v-1l2-2v-2l2 2v4L7.5 17h-2Z" style="fill:#ffb04a;stroke:none"/>
        <path d="m4.5 22 2-2h3l2.5 2.5v3L10.5 27h-1l-1-1h-1L6 24.5v-1Z" style="fill:#515151;stroke:none"/>
        <path d="M7.5 20 9 18.5v-1l.5-.5h1l1-1 1 1-3 3Z" style="fill:#3c3838;stroke:none"/>
        <path d="M13 15.5v3l1 1v1l1 1v1l1.5 1.5 1-1h2l2-2-1.5-1.5v-2l-1-1v-1l-3-3Z" style="stroke:none"/>
        <path d="M13 18.5v-3l3-3 3 3v1l1 1v2l1.5 1.5-2 2h-2l-1 1-1.5-1.5v-1l-1-1v-1ZM15.5 8l-.5-.5v-2L16.5 4h1l1-1L20 4.5l-1 1v1L17.5 8Z" style="fill:#ffb04a;stroke:none"/>
        <path d="m18.5 7 .5-.5v-1l2-2 3 3V8h-.5l-1 1h-2ZM20 26.5V24h.5l.5-.5v-1l5.5-5.5h1l1-1 1.5 1.5v3l-5 5v1l-.5.5h-1L22 28.5Z" style="fill:#515151;stroke:none"/>
    </g>
</svg>
