<svg xmlns="http://www.w3.org/2000/svg" width="32" height="32" style="fill-opacity:1;color-rendering:auto;color-interpolation:auto;text-rendering:auto;stroke:#000;stroke-linecap:square;stroke-miterlimit:10;shape-rendering:auto;stroke-opacity:1;fill:#000;stroke-dasharray:none;font-weight:400;stroke-width:1;font-family:&quot;Dialog&quot;;font-style:normal;stroke-linejoin:miter;font-size:12px;stroke-dashoffset:0;image-rendering:auto">
    <g style="stroke-linecap:round;fill:#3c3838;stroke:#3c3838">
        <path stroke="none" d="M1 4.5v4l1 1v1l1 1v1l1 1v3l-2 2L3.5 20 2 21.5v2l-1 1v3L4.5 31h3l.5-.5V28h1.5l2.5-2.5 2.5 2.5h1l1 1h2l2 2h2l1.5-1.5V28h.5l1-1h1l1-1h1l2.5-2.5v-3L28.5 18h-3l2-2h1l2.5-2.5-1.5-1.5h-2l-1 1h-1l-6 6h-1l-1 1-3-3h-1l-1-1h-1l-.5-.5.5-.5h1l1-1h2l1-1h1l2-2h2l3-3h2l2-2-2-2h-2l-2 2-1-1-1 1h-2l-1-1H17V2.5l-2-2L12.5 3l-1-1h-1l-1-1h-5Z" style="stroke:none"/>
    </g>
    <g stroke="none" style="stroke-linecap:round;fill:#dd7b52;stroke:#dd7b52">
        <path d="M1 8.5v-4L4.5 1h5l1 1h1l3 3h3l1 1h2l1-1 3 3-3 3h-2l-2 2h-1l-1 1h-2l-1 1h-1l-.5.5.5.5h1l1 1h1l3 3 1-1h1l6-6h1l1-1h2l1.5 1.5-2.5 2.5h-1l-2 2h-1L21 21.5v1l-1 1v2l2.5 2.5H24v1.5L22.5 31h-2l-2-2h-2l-1-1h-1L12 25.5V25h1.5l1 1h2l2-2-1-1h-1l-.5-.5v-1L14.5 20h-1l-3-3h-1l-1-1h-2L4 18.5l1 1-1 1-2-2 2-2v-3l-1-1v-1l-1-1v-1Zm0 19v-3l1-1L5.5 27h1l1 1H8v2.5l-.5.5h-3Z" style="stroke:none"/>
        <path d="m3 7.5 1 1v1L7.5 13h4l1-1h2l.5-.5v-3L11.5 5h-1l-2-2h-3L3 5.5Z" style="stroke:none"/>
        <path d="M2 23.5v-2L3.5 20l.5.5L5.5 19h2l1 1h1l2.5 2.5v3L9.5 28h-2l-1-1h-1Z" style="fill:#515151;stroke:none"/>
        <path d="M3 7.5v-2L5.5 3h3l2 2h1L15 8.5v3l-.5.5h-2l-1 1h-4L4 9.5v-1Zm2 12-1-1L6.5 16h2l1 1h1l3 3h1l1.5 1.5v1l.5.5h1l1 1-2 2h-2l-1-1H12v-2.5L9.5 20h-1l-1-1h-2Z" style="fill:#ffb04a;stroke:none"/>
        <path d="M12.5 3 15 .5l2 2V5h-2.5ZM20 25.5v-2l1-1v-1l3.5-3.5h4l2.5 2.5v3L28.5 26h-1l-1 1h-1l-1 1h-2ZM22.5 6l2-2h2l2 2-2 2h-2Z" style="fill:#515151;stroke:none"/>
    </g>
</svg>
