<svg xmlns="http://www.w3.org/2000/svg" width="32" height="32" style="fill-opacity:1;color-rendering:auto;color-interpolation:auto;text-rendering:auto;stroke:#000;stroke-linecap:square;stroke-miterlimit:10;shape-rendering:auto;stroke-opacity:1;fill:#000;stroke-dasharray:none;font-weight:400;stroke-width:1;font-family:&quot;Dialog&quot;;font-style:normal;stroke-linejoin:miter;font-size:12px;stroke-dashoffset:0;image-rendering:auto">
    <g style="stroke-linecap:round;fill:#3c3838;stroke:#3c3838">
        <path stroke="none" d="M1 7.5v6l2 2-2 2v4L2.5 23H4v2.5L6.5 28H8v1.5L9.5 31l1-1h1l3-3 .5.5v2l1.5 1.5h2l1.5-1.5v-3l-1-1 .5-.5h2l1.5-1.5 2 2v1l.5.5h1l1 1h2l1.5-1.5v-2L28.5 22h-1l-1-1h-1l-1-1H22v-1.5l-.5-.5 2-2h1l1-1h1l.5-.5v-1l1-1v-4l-.5-.5h-3l1-1h1L28 5.5v-3l-2-2L23.5 3h-1l-1 1h-1l-1 1h-1l-6 6h-1l-.5.5v.5H9.5l-1-1H8V8h.5l1-1h1l.5-.5v-1L12.5 4 9 .5 7.5 2h-2L4 3.5v1Z" style="stroke:none"/>
    </g>
    <g stroke="none" style="stroke-linecap:round;fill:#dd7b52;stroke:#dd7b52">
        <path d="M1 13.5v-6l3-3v2L5.5 8H8v3H6.5L4 13.5v5L5.5 20 4 21.5V23H2.5L1 21.5v-4l2-2Z" style="stroke:none"/>
        <path d="M4 6.5v-3L5.5 2h2L9 .5 12.5 4 11 5.5v1l-.5.5h-1l-1 1h-3Z" style="fill:#515151;stroke:none"/>
        <path d="M4 18.5v-5L6.5 11h2l1 1H11v3.5l-5 5Z" style="fill:#ffb04a;stroke:none"/>
        <path d="M4.5 22H4v-.5L5.5 20l.5.5L9.5 17l1.5 1.5v2l1 1v1L9.5 20h-2l-1 1h-1Z" style="fill:#3c3838;stroke:none"/>
        <path d="M4 25.5V22h.5l1-1h1l1-1h2l2.5 2.5V24h-.5l-1 1h-1l-.5.5v1l-1 1v.5H6.5Z" style="fill:#515151;stroke:none"/>
        <path d="M8 29.5v-2l1-1v-1l.5-.5h1l1-1h2l1 1h2l1-1h1l3.5-3.5V20h2.5l1 1h1l1 1h1l2.5 2.5v2L29.5 28h-2l-1-1h-1l-.5-.5v-1l-2-2-1.5 1.5h-2l-.5.5 1 1v3L18.5 31h-2L15 29.5v-2l-.5-.5-3 3h-1l-1 1ZM10.5 18l-1-1 1.5-1.5v-4l.5-.5h1L14 9.5l3 3 1.5-1.5H20v2.5l3 3-1.5 1.5-.5-.5v-1l-2-2v-1l-.5-.5h-4L12 15.5v1Z" style="stroke:none"/>
        <path d="M11 20.5v-2l-.5-.5 1.5-1.5v-1l2.5-2.5h4l.5.5v1l2 2v1l1 1v2L18.5 24h-1l-1 1h-2l-1-1H12v-2.5Zm3-11 4-4L21.5 9 20 10.5v.5h-1.5L17 12.5Z" style="fill:#ffb04a;stroke:none"/>
        <path d="m18 5.5.5-.5h1l1-1h1l1-1h1L26 .5l2 2v3L26.5 7h-1l-1 1h-2l-1 1Z" style="stroke:none"/>
        <path d="M20 13.5v-3L22.5 8h5l.5.5v4l-1 1v1l-.5.5h-1l-1 1h-1l-.5.5Z" style="fill:#515151;stroke:none"/>
    </g>
</svg>
