<svg xmlns="http://www.w3.org/2000/svg" width="32" height="32" style="fill-opacity:1;color-rendering:auto;color-interpolation:auto;text-rendering:auto;stroke:#000;stroke-linecap:square;stroke-miterlimit:10;shape-rendering:auto;stroke-opacity:1;fill:#000;stroke-dasharray:none;font-weight:400;stroke-width:1;font-family:&quot;Dialog&quot;;font-style:normal;stroke-linejoin:miter;font-size:12px;stroke-dashoffset:0;image-rendering:auto">
    <g style="stroke-linecap:round;fill:#858999;stroke:#858999">
        <path stroke="none" d="M.5 7V.5H6l-3 3v2L1.5 7Z" style="stroke:none"/>
    </g>
    <g stroke="none" style="stroke-linecap:round;fill:#60616b;stroke:#60616b">
        <path d="M.5 26V7h1L3 5.5v-2l3-3h22l2 2v2L31.5 6v19l-2-2h-2l-3-3h-4l-.5-.5v-6L15.5 9h-2L9 4.5l-4 4v3l6.5 6.5h2l4.5 4.5v2l7 7H6Z" style="stroke:none"/>
        <path d="M6 31.5H.5V26Zm-1-20v-3l4-4L13.5 9h2l4.5 4.5v6l.5.5h4l3 3h2l2 2v6.5H25l-7-7v-2L13.5 18h-2Zm23-11h3.5V6L30 4.5v-2Z" style="fill:#858999;stroke:none"/>
    </g>
</svg>
