<svg xmlns="http://www.w3.org/2000/svg" width="32" height="32" style="fill-opacity:1;color-rendering:auto;color-interpolation:auto;text-rendering:auto;stroke:#000;stroke-linecap:square;stroke-miterlimit:10;shape-rendering:auto;stroke-opacity:1;fill:#000;stroke-dasharray:none;font-weight:400;stroke-width:1;font-family:&quot;Dialog&quot;;font-style:normal;stroke-linejoin:miter;font-size:12px;stroke-dashoffset:0;image-rendering:auto">
    <g style="stroke-linecap:round;fill:#8b8f9f;stroke:#8b8f9f">
        <path stroke="none" d="M.5 5V.5H5l11 11 11-11h4.5V5l-11 11 11 11v4.5H27l-11-11-11 11H.5V27l11-11Z" style="stroke:none"/>
    </g>
    <g stroke="none" style="stroke-linecap:round;fill:#60616b;stroke:#60616b">
        <path d="M11.5 16 .5 27v-6l5-5-5-5V5Z" style="stroke:none"/>
        <path d="m5.5 16-5 5V11Z" style="fill:#8b8f9f;stroke:none"/>
        <path d="M5 .5h6l5 5 5-5h6l-11 11Zm6 31H5l11-11 11 11h-6l-5-5Z" style="stroke:none"/>
        <path d="M11 .5h10l-5 5Zm10 31H11l5-5Z" style="fill:#8b8f9f;stroke:none"/>
        <path d="m20.5 16 11-11v6l-5 5 5 5v6Z" style="stroke:none"/>
        <path d="m26.5 16 5-5v10Z" style="fill:#8b8f9f;stroke:none"/>
    </g>
</svg>
