<svg xmlns="http://www.w3.org/2000/svg" width="32" height="32" style="fill-opacity:1;color-rendering:auto;color-interpolation:auto;text-rendering:auto;stroke:#000;stroke-linecap:square;stroke-miterlimit:10;shape-rendering:auto;stroke-opacity:1;fill:#000;stroke-dasharray:none;font-weight:400;stroke-width:1;font-family:&quot;Dialog&quot;;font-style:normal;stroke-linejoin:miter;font-size:12px;stroke-dashoffset:0;image-rendering:auto">
    <g style="stroke-linecap:round;fill:#60616b;stroke:#60616b">
        <path stroke="none" d="M4 5.5v8L5.5 15h5l1.5-1.5v-8L10.5 4h-5Z" style="stroke:none"/>
    </g>
    <g stroke="none" style="stroke-linecap:round;fill:#60616b;stroke:#60616b">
        <path d="M4 21.5v8L5.5 31h5l1.5-1.5v-8L10.5 20h-5Z" style="stroke:none"/>
        <path d="M4 10.5v-5L5.5 4h5L12 5.5v5L10.5 12h-5Z" style="fill:#8b8f9f;stroke:none"/>
        <path d="M5.5 12h5l1.5-1.5v3L10.5 15h-5L4 13.5v-3Z" style="fill:#4e4d57;stroke:none"/>
        <path d="M4 26.5v-5L5.5 20h5l1.5 1.5v5L10.5 28h-5Z" style="fill:#8b8f9f;stroke:none"/>
        <path d="M5.5 28h5l1.5-1.5v3L10.5 31h-5L4 29.5v-3Z" style="fill:#4e4d57;stroke:none"/>
        <path d="M20 5.5v8l1.5 1.5h5l1.5-1.5v-8L26.5 4h-5Zm0 16v8l1.5 1.5h5l1.5-1.5v-8L26.5 20h-5Z" style="stroke:none"/>
        <path d="M20 10.5v-5L21.5 4h5L28 5.5v5L26.5 12h-5Z" style="fill:#8b8f9f;stroke:none"/>
        <path d="M21.5 12h5l1.5-1.5v3L26.5 15h-5L20 13.5v-3Z" style="fill:#4e4d57;stroke:none"/>
        <path d="M20 26.5v-5l1.5-1.5h5l1.5 1.5v5L26.5 28h-5Z" style="fill:#8b8f9f;stroke:none"/>
        <path d="M21.5 28h5l1.5-1.5v3L26.5 31h-5L20 29.5v-3Z" style="fill:#4e4d57;stroke:none"/>
    </g>
</svg>
