<svg xmlns="http://www.w3.org/2000/svg" width="32" height="32" style="fill-opacity:1;color-rendering:auto;color-interpolation:auto;text-rendering:auto;stroke:#000;stroke-linecap:square;stroke-miterlimit:10;shape-rendering:auto;stroke-opacity:1;fill:#000;stroke-dasharray:none;font-weight:400;stroke-width:1;font-family:&quot;Dialog&quot;;font-style:normal;stroke-linejoin:miter;font-size:12px;stroke-dashoffset:0;image-rendering:auto">
    <g style="stroke-linecap:round;fill:#6b4474;stroke:#6b4474">
        <path stroke="none" d="M3.5 16 5 17.5v1l1 1v1l5.5 5.5h1l1 1h1l1.5 1.5 1.5-1.5h1l.5-.5v-1l1.5-1.5-1.5-1.5v-1l-1-1v-1L16.5 18h-1L14 16.5v-1L12.5 14l2.5-2.5v-1l1-1v-2l-2-2v-1L10.5 1h-3L5 3.5v2l2 2v1L8.5 10 5 13.5v1Z" style="stroke:none"/>
    </g>
    <g stroke="none" style="stroke-linecap:round;fill:#7c4b80;stroke:#7c4b80">
        <path d="M3.5 16 5 14.5v-1L8.5 10 7 8.5v-1l-2-2v-2L7.5 1h3L14 4.5v1l2 2v2l-1 1v1L12.5 14l1.5 1.5v1l1.5 1.5h1l1.5 1.5v1l1 1v1l1.5 1.5-1.5 1.5v1l-.5.5h-1L16 28.5 14.5 27h-1l-1-1h-1L6 20.5v-1l-1-1v-1Z" style="stroke:none"/>
        <path d="m19.5 12 1.5 1.5v1l1 1v1l2.5 2.5h1l1 1h2l2.5-2.5v-3l-1-1v-1L26.5 9h-1L24 7.5 22.5 9h-1l-.5.5v1Z" style="fill:#6b4474;stroke:none"/>
        <path d="m19.5 12 1.5-1.5v-1l.5-.5h1L24 7.5 25.5 9h1l3.5 3.5v1l1 1v3L28.5 20h-2l-1-1h-1L22 16.5v-1l-1-1v-1Z" style="stroke:none"/>
    </g>
</svg>
