<svg xmlns="http://www.w3.org/2000/svg" width="32" height="32" style="fill-opacity:1;color-rendering:auto;color-interpolation:auto;text-rendering:auto;stroke:#000;stroke-linecap:square;stroke-miterlimit:10;shape-rendering:auto;stroke-opacity:1;fill:#000;stroke-dasharray:none;font-weight:400;stroke-width:1;font-family:&quot;Dialog&quot;;font-style:normal;stroke-linejoin:miter;font-size:12px;stroke-dashoffset:0;image-rendering:auto">
    <g style="stroke-linecap:round;fill:#321d1a;stroke:#321d1a">
        <path stroke="none" d="M8 6.5v2l1 1v1l1.5 1.5h4L19 7.5v-4L16.5 1h-2l-1 1h-2L10 3.5v1Z" style="stroke:none"/>
    </g>
    <g stroke="none" style="stroke-linecap:round;fill:#472d22;stroke:#472d22">
        <path d="M8 8.5v-2l2-2v-1L11.5 2h2l1-1h2L19 3.5v4L14.5 12h-4L9 10.5v-1Z" style="stroke:none"/>
        <path d="M14 23.5v3l1.5 1.5h3l1 1h5l1.5-1.5v-1l1-1v-3L24.5 20h-5l-1 1h-1l-1 1h-1Z" style="fill:#321d1a;stroke:none"/>
        <path d="M14 26.5v-3l1.5-1.5h1l1-1h1l1-1h5l2.5 2.5v3l-1 1v1L24.5 29h-5l-1-1h-3Z" style="stroke:none"/>
    </g>
</svg>
