<svg xmlns="http://www.w3.org/2000/svg" width="32" height="32" style="fill-opacity:1;color-rendering:auto;color-interpolation:auto;text-rendering:auto;stroke:#000;stroke-linecap:square;stroke-miterlimit:10;shape-rendering:auto;stroke-opacity:1;fill:#000;stroke-dasharray:none;font-weight:400;stroke-width:1;font-family:&quot;Dialog&quot;;font-style:normal;stroke-linejoin:miter;font-size:12px;stroke-dashoffset:0;image-rendering:auto">
    <g style="stroke-linecap:round;fill:#c384b7;stroke:#c384b7">
        <path stroke="none" d="M4 15.5v-4l2-2 1 1v1L9.5 14h1l1.5 1.5-1 1v1L9.5 19h-3L5 17.5v-1Z" style="stroke:none"/>
    </g>
    <g stroke="none" style="stroke-linecap:round;fill:#f9a3c7;stroke:#f9a3c7">
        <path d="M6 9.5v-3L8.5 4h8L18 5.5v3l-1 1v1l-5 5-1.5-1.5h-1L7 11.5v-1Z" style="stroke:none"/>
        <path d="M15 24.5v-5l3.5-3.5.5.5v1l1 1v1l2.5 2.5h1l1 1H27v1.5l-1 1v1l-.5.5h-1l-1 1h-3l-1-1h-2Z" style="fill:#c384b7;stroke:none"/>
        <path d="M19 17.5v-1l-.5-.5 4.5-4.5v-1L24.5 9h4l1.5 1.5v1l1 1v5l-1 1v1l-2 2v1l-.5.5h-3l-1-1h-1L20 19.5v-1Z" style="stroke:none"/>
    </g>
</svg>
