<svg xmlns="http://www.w3.org/2000/svg" width="32" height="32" style="fill-opacity:1;color-rendering:auto;color-interpolation:auto;text-rendering:auto;stroke:#000;stroke-linecap:square;stroke-miterlimit:10;shape-rendering:auto;stroke-opacity:1;fill:#000;stroke-dasharray:none;font-weight:400;stroke-width:1;font-family:&quot;Dialog&quot;;font-style:normal;stroke-linejoin:miter;font-size:12px;stroke-dashoffset:0;image-rendering:auto">
    <g style="stroke-linecap:round;fill:#9b928b;stroke:#9b928b">
        <path stroke="none" d="M8 12.5v-6L10.5 4h.5v1.5l1 1v2l1 1v1l1 1v1l4.5 4.5h1l1 1h1l2 2-.5.5 1 1v1l4 4V28h-3.5L22 25.5v-1L14.5 17h-1l-2-2h-1Z" style="stroke:none"/>
    </g>
    <g stroke="none" style="stroke-linecap:round;fill:#666;stroke:#666">
        <path d="M10.5 15h1l2 2h1l7.5 7.5v1l2.5 2.5-.5.5-1.5-1.5h-1l-1-1h-1l-3-3h-1l-1-1h-1l-2-2h-1L8 17.5v-5Z" style="stroke:none"/>
        <path d="M11 5.5V4h6.5L20 6.5v8l1 1V18h-.5l-1-1h-1L14 12.5v-1l-1-1v-1l-1-1v-2Zm12 15 1-1 1.5 1.5h1l.5.5v1l1 1v3l-4-4v-1Z" style="fill:#e0b28d;stroke:none"/>
    </g>
</svg>
