<svg xmlns="http://www.w3.org/2000/svg" width="32" height="32" style="fill-opacity:1;color-rendering:auto;color-interpolation:auto;text-rendering:auto;stroke:#000;stroke-linecap:square;stroke-miterlimit:10;shape-rendering:auto;stroke-opacity:1;fill:#000;stroke-dasharray:none;font-weight:400;stroke-width:1;font-family:&quot;Dialog&quot;;font-style:normal;stroke-linejoin:miter;font-size:12px;stroke-dashoffset:0;image-rendering:auto">
    <g style="stroke-linecap:round;fill:#606bb9;stroke:#606bb9">
        <path stroke="none" d="M4 7.5v-2L5.5 4h5L13 6.5v1l2 2v1l1.5 1.5h-5l-1-1h-1l-1-1h-2Z" style="stroke:none"/>
    </g>
    <g stroke="none" style="stroke-linecap:round;fill:#606bb9;stroke:#606bb9">
        <path d="M3.5 20 5 18.5v-1l.5-.5H7v1.5l1 1v2l2.5 2.5H12v2.5l-2 2L8.5 27h-1l-.5-.5v-1l-1-1v-1l-1-1v-1Z" style="stroke:none"/>
        <path d="M7 18.5v-2l.5-.5h7l1.5 1.5v2l-2 2v1L12.5 24h-2L8 21.5v-2ZM10.5 4h2l1 1h1l1 1h1l1 1h1l1 1h.5v4h-3.5L15 10.5v-1l-2-2v-1Z" style="fill:#788dcf;stroke:none"/>
        <path d="m15.5 26 1.5-1.5v-1l.5-.5h1l2.5-2.5.5.5h2l2 2h1l1.5 1.5v2L26.5 28h-9Z" style="stroke:none"/>
        <path d="m21.5 21-.5-.5 2-2v-1l1.5-1.5H27v.5l1 1v7L26.5 23h-1l-2-2Zm3-13H24V5.5l2-2 2 2v2l-2 2Z" style="fill:#788dcf;stroke:none"/>
    </g>
</svg>
