<svg xmlns="http://www.w3.org/2000/svg" width="32" height="32" style="fill-opacity:1;color-rendering:auto;color-interpolation:auto;text-rendering:auto;stroke:#000;stroke-linecap:square;stroke-miterlimit:10;shape-rendering:auto;stroke-opacity:1;fill:#000;stroke-dasharray:none;font-weight:400;stroke-width:1;font-family:&quot;Dialog&quot;;font-style:normal;stroke-linejoin:miter;font-size:12px;stroke-dashoffset:0;image-rendering:auto">
    <g style="stroke-linecap:round;fill:#606bb9;stroke:#606bb9">
        <path stroke="none" d="M1 8.5v-3L5.5 1h1l2 2h2L12 4.5l-1 1v1l-2 2V9H7.5l-1 1h-4Z" style="stroke:none"/>
    </g>
    <g stroke="none" style="stroke-linecap:round;fill:#606bb9;stroke:#606bb9">
        <path d="M1 20.5v-4l1-1V14h.5l.5-.5v2l.5.5h1L6 17.5v1l1 1v1l1 1v1l1 1v.5H3.5L2 22.5v-1Z" style="stroke:none"/>
        <path d="m3.5 16-.5-.5V13h1.5l1-1H8v.5l2 2v4l1 1v1l1 1v1L10.5 24H9v-.5l-1-1v-1l-1-1v-1l-1-1v-1L4.5 16Zm3-15h8L17 3.5v1l-2 2-.5-.5-2 2h-2l-.5-.5 1-1v-1l1-1L10.5 3h-2Z" style="fill:#788dcf;stroke:none"/>
        <path d="M17 26.5v-1l1-1v-1l1.5-1.5h1l.5-.5 1.5 1.5h2l3.5 3.5-2.5 2.5h-6Zm3-16v-7L21.5 2h.5v.5L23.5 4h1L26 5.5v1l.5.5H28v1.5l-1 1v.5h-1.5l-1 1h-1l-1 1H21v-.5Z" style="stroke:none"/>
        <path d="m21 21.5.5-.5h1l1.5-1.5 1.5 1.5h1l.5.5v1l1 1v3L24.5 23h-2Zm1-19V2h4.5L28 3.5V7h-1.5l-.5-.5v-1L24.5 4h-1Z" style="fill:#788dcf;stroke:none"/>
    </g>
</svg>
