<svg xmlns="http://www.w3.org/2000/svg" width="32" height="32" style="fill-opacity:1;color-rendering:auto;color-interpolation:auto;text-rendering:auto;stroke:#000;stroke-linecap:square;stroke-miterlimit:10;shape-rendering:auto;stroke-opacity:1;fill:#000;stroke-dasharray:none;font-weight:400;stroke-width:1;font-family:&quot;Dialog&quot;;font-style:normal;stroke-linejoin:miter;font-size:12px;stroke-dashoffset:0;image-rendering:auto">
    <g style="stroke-linecap:round;fill:#e0b28d;stroke:#e0b28d">
        <path stroke="none" d="M4 12.5V8h.5l4-4H20v.5l-1 1v1l-1 1v1l-1 1v1l-.5.5h-1L14 12.5l-2-2v-1l-2-2L6.5 11h-1Z" style="stroke:none"/>
    </g>
    <g stroke="none" style="stroke-linecap:round;fill:#9b928b;stroke:#9b928b">
        <path d="M4 20.5v-8L5.5 11h1L10 7.5l2 2v1l2 2 1.5-1.5h1l.5-.5v-1l1-1v-1l1-1v-1l1-1V4h7v.5l1 1v6L26.5 13h-1l-1 1h-1l-1 1h-1l-1 1h-9l-1 1h-1l-1 1h-1l-1 1h-1Z" style="stroke:none"/>
        <path d="M4 21.5v-1L5.5 19h1l1-1h1l1-1h1l1-1h9l1-1h1l1-1h1l1-1h1l1.5-1.5v4L26.5 17h-1l-.5.5v1L23.5 20h-12L8 23.5v.5H6.5ZM17.5 27l.5-.5v-2l1.5-1.5 1 1h1l1 1h2l1 1H28v.5L25.5 29h-6Z" style="fill:#666;stroke:none"/>
        <path d="m20.5 24-1-1 3-3h3l2.5 2.5V26h-2.5l-1-1h-2l-1-1Z" style="stroke:none"/>
    </g>
</svg>
