<svg xmlns="http://www.w3.org/2000/svg" width="32" height="32" style="fill-opacity:1;color-rendering:auto;color-interpolation:auto;text-rendering:auto;stroke:#000;stroke-linecap:square;stroke-miterlimit:10;shape-rendering:auto;stroke-opacity:1;fill:#000;stroke-dasharray:none;font-weight:400;stroke-width:1;font-family:&quot;Dialog&quot;;font-style:normal;stroke-linejoin:miter;font-size:12px;stroke-dashoffset:0;image-rendering:auto">
    <g style="stroke-linecap:round;fill:#706b7a;stroke:#706b7a">
        <path stroke="none" d="M1 23.5v-3L3.5 18h1l1-1h1l1-1L9 17.5v1l2 2v2l1.5 1.5-1.5 1.5v1L9.5 28h-3l-2-2h-1Z" style="stroke:none"/>
    </g>
    <g stroke="none" style="stroke-linecap:round;fill:#8e85a2;stroke:#8e85a2">
        <path d="M7.5 16 9 14.5v-1l1.5-1.5h3l1.5 1.5v1l1 1v6l-3 3-2-2v-2l-2-2v-1Z" style="stroke:none"/>
        <path d="M19 7.5V6h.5l.5-.5V4h.5L22 2.5v2l5 5-1.5 1.5h-4L20 9.5v-1Zm1 18v-2l1-1 3.5 3.5h1l.5.5-1.5 1.5h-2Z" style="fill:#706b7a;stroke:none"/>
        <path d="M21 22.5v-1l1.5-1.5h3l2.5 2.5v3L26.5 27l-1-1h-1Zm1-18V2h1.5L25 .5l3 3v5l-1 1Z" style="stroke:none"/>
    </g>
</svg>
