<svg xmlns="http://www.w3.org/2000/svg" width="32" height="32" style="fill-opacity:1;color-rendering:auto;color-interpolation:auto;text-rendering:auto;stroke:#000;stroke-linecap:square;stroke-miterlimit:10;shape-rendering:auto;stroke-opacity:1;fill:#000;stroke-dasharray:none;font-weight:400;stroke-width:1;font-family:&quot;Dialog&quot;;font-style:normal;stroke-linejoin:miter;font-size:12px;stroke-dashoffset:0;image-rendering:auto">
    <g style="stroke-linecap:round;fill:#353535;stroke:#353535">
        <path stroke="none" d="M1 17v-2.5L3.5 12 6 14.5v1l4 4v1l1 1v1l1 1v3L2.5 17Z" style="stroke:none"/>
    </g>
    <g stroke="none" style="stroke-linecap:round;fill:#272727;stroke:#272727">
        <path d="M1 19.5V17h1.5l9.5 9.5V28H8.5l-1-1h-1L4 24.5v-1l-2-2v-1ZM5.5 6H5V3.5L7.5 1h1L10 2.5v1l1 1v1l1 1v1l2 2L15.5 8 17 9.5v1l1 1-1 1 2.5 2.5h1l2.5 2.5v1l1 1v1l1 1v1l.5.5h1l1.5 1.5v1l-2 2-1.5-1.5h-1L22 24.5v-1L20.5 22h-1l-1-1h-1L16 19.5v-5L13.5 12l-1 1h-3L8 11.5v-1l-.5-.5H7V8.5L6.5 8H6V6.5Z" style="stroke:none"/>
        <path d="M8.5 1h3L18 7.5v1l1.5 1.5h1l1.5 1.5v1l1 1v1l1 1v1l3.5 3.5-.5.5 1 1v3L26.5 23h-1l-.5-.5v-1l-1-1v-1l-1-1v-1L20.5 15h-1L17 12.5l1-1-1-1v-1L15.5 8 14 9.5l-2-2v-1l-1-1v-1l-1-1v-1Z" style="fill:#353535;stroke:none"/>
    </g>
</svg>
