<svg xmlns="http://www.w3.org/2000/svg" width="32" height="32" style="fill-opacity:1;color-rendering:auto;color-interpolation:auto;text-rendering:auto;stroke:#000;stroke-linecap:square;stroke-miterlimit:10;shape-rendering:auto;stroke-opacity:1;fill:#000;stroke-dasharray:none;font-weight:400;stroke-width:1;font-family:&quot;Dialog&quot;;font-style:normal;stroke-linejoin:miter;font-size:12px;stroke-dashoffset:0;image-rendering:auto">
    <g style="stroke-linecap:round;fill:#706b7a;stroke:#706b7a">
        <path stroke="none" d="M1 11.5V4h.5L3 2.5l1 1v1l1 1v1l1 1v1L7.5 10h1l1 1h1l1.5 1.5-1 1v1l-.5.5h-1L8 16.5 6.5 15h-1l-1-1h-1Z" style="stroke:none"/>
    </g>
    <g stroke="none" style="stroke-linecap:round;fill:#8e85a2;stroke:#8e85a2">
        <path d="m3 2.5 1-1V1h4.5l3 3h2L16 6.5v3L14.5 11h-1L12 12.5 10.5 11h-1l-1-1h-1L6 8.5v-1l-1-1v-1l-1-1v-1Z" style="stroke:none"/>
        <path d="m12 20.5 1.5-1.5h1l2.5 2.5v1l.5.5h1l1 1H24v.5l-1 1v1l-.5.5h-1L20 28.5 18.5 27h-1l-1-1h-1L14 24.5v-1l-1-1v-1Z" style="fill:#706b7a;stroke:none"/>
        <path d="m15 19.5 2.5-2.5h1l1-1h3l1.5 1.5V24h-4.5l-1-1h-1l-.5-.5v-1Z" style="stroke:none"/>
    </g>
</svg>
