<svg xmlns="http://www.w3.org/2000/svg" width="32" height="32" style="fill-opacity:1;color-rendering:auto;color-interpolation:auto;text-rendering:auto;stroke:#000;stroke-linecap:square;stroke-miterlimit:10;shape-rendering:auto;stroke-opacity:1;fill:#000;stroke-dasharray:none;font-weight:400;stroke-width:1;font-family:&quot;Dialog&quot;;font-style:normal;stroke-linejoin:miter;font-size:12px;stroke-dashoffset:0;image-rendering:auto">
    <g style="stroke-linecap:round;fill:#92dd7e;stroke:#92dd7e">
        <path stroke="none" d="m2.5 22 4-4h2l1 1h1l.5.5L6.5 24h-1l-.5.5Z" style="stroke:none"/>
    </g>
    <g stroke="none" style="stroke-linecap:round;fill:#3a8f64;stroke:#3a8f64">
        <path d="m5 24.5.5-.5h1l4.5-4.5 3.5 3.5-1.5 1.5v1L10.5 28h-2Z" style="stroke:none"/>
        <path d="m15.5 17 2.5-2.5v-1l3.5-3.5h2l1 1h1l2 2-.5.5v1L23.5 18h-1l-2 2h-1l-1-1h-1Z" style="fill:#92dd7e;stroke:none"/>
        <path d="m20.5 20 2-2h1l3.5-3.5v-1l.5-.5 4 4-2.5 2.5v1l-1 1v1l-2 2-2.5-2.5h-1Z" style="stroke:none"/>
    </g>
</svg>
