<svg xmlns="http://www.w3.org/2000/svg" width="32" height="32" style="fill-opacity:1;color-rendering:auto;color-interpolation:auto;text-rendering:auto;stroke:#000;stroke-linecap:square;stroke-miterlimit:10;shape-rendering:auto;stroke-opacity:1;fill:#000;stroke-dasharray:none;font-weight:400;stroke-width:1;font-family:&quot;Dialog&quot;;font-style:normal;stroke-linejoin:miter;font-size:12px;stroke-dashoffset:0;image-rendering:auto">
    <g style="stroke-linecap:round;fill:#92dd7e;stroke:#92dd7e">
        <path stroke="none" d="M4 19.5v-2L9.5 12h2l3.5 3.5-1.5 1.5h-1l-2 2h-1l-1 1h-1L6 21.5Z" style="stroke:none"/>
    </g>
    <g stroke="none" style="stroke-linecap:round;fill:#3a8f64;stroke:#3a8f64">
        <path d="M6 21.5 7.5 20h1l1-1h1l2-2h1l1-1 2.5 2.5v4L13.5 26h-3Z" style="stroke:none"/>
        <path d="M18 12.5v-3L22.5 5h3L29 8.5 27.5 10h-1l-1 1h-1L20 15.5l-1-1v-1Z" style="fill:#92dd7e;stroke:none"/>
        <path d="m20 15.5 4.5-4.5h1l1-1h1L29 8.5l1 1v2l-1 1v2l-1 1v1L25.5 19h-2Z" style="stroke:none"/>
    </g>
</svg>
