<svg xmlns="http://www.w3.org/2000/svg" width="32" height="32" style="fill-opacity:1;color-rendering:auto;color-interpolation:auto;text-rendering:auto;stroke:#000;stroke-linecap:square;stroke-miterlimit:10;shape-rendering:auto;stroke-opacity:1;fill:#000;stroke-dasharray:none;font-weight:400;stroke-width:1;font-family:&quot;Dialog&quot;;font-style:normal;stroke-linejoin:miter;font-size:12px;stroke-dashoffset:0;image-rendering:auto">
    <g style="stroke-linecap:round;fill:#67778f;stroke:#67778f">
        <path stroke="none" d="M3 10.5 5.5 13h-2L2 11.5v-3L5.5 5l1 1h2l3 3-1.5 1.5L7.5 8h-2Z" style="stroke:none"/>
    </g>
    <g stroke="none" style="stroke-linecap:round;fill:#a0b0c8;stroke:#a0b0c8">
        <path d="M3 10.5 5.5 8h2l2.5 2.5L7.5 13h-2ZM6.5 6l-1-1 2-2h3L13 5.5v2L11.5 9l-3-3Z" style="stroke:none"/>
        <path d="M8 26.5v-3L9.5 22l1.5 1.5v1l2.5 2.5h1l.5.5-1.5 1.5h-2l-1-1h-1Z" style="fill:#67778f;stroke:none"/>
        <path d="m9.5 22 3-3h3l2.5 2.5v3l-3 3-.5-.5h-1L11 24.5v-1Z" style="stroke:none"/>
        <path d="M19 15.5v-2l3.5-3.5 2 2h3l1 1H30v2.5l-1 1-2.5-2.5h-2l-2 2 3 3h-3Z" style="fill:#67778f;stroke:none"/>
        <path d="m22.5 10 2-2h3l2.5 2.5V13h-1.5l-1-1h-3Zm0 6 2-2h2l2.5 2.5-2.5 2.5h-1Z" style="stroke:none"/>
    </g>
</svg>
