<svg xmlns="http://www.w3.org/2000/svg" width="32" height="32" style="fill-opacity:1;color-rendering:auto;color-interpolation:auto;text-rendering:auto;stroke:#000;stroke-linecap:square;stroke-miterlimit:10;shape-rendering:auto;stroke-opacity:1;fill:#000;stroke-dasharray:none;font-weight:400;stroke-width:1;font-family:&quot;Dialog&quot;;font-style:normal;stroke-linejoin:miter;font-size:12px;stroke-dashoffset:0;image-rendering:auto">
    <g style="stroke-linecap:round;fill:#67778f;stroke:#67778f">
        <path stroke="none" d="M7 17.5v-3l1-1v-1l3-3 1.5 1.5h4l3.5 3.5-1.5 1.5-3-3h-3l-2 2 3 3h2l.5.5-.5.5h-1l-1 1h-4Z" style="stroke:none"/>
    </g>
    <g stroke="none" style="stroke-linecap:round;fill:#a0b0c8;stroke:#a0b0c8">
        <path d="M11 9.5 13.5 7h4L20 9.5v1l1 1v2l-1 1-3.5-3.5h-4Zm-.5 5.5 2-2h3l3 3-2.5 2.5-.5-.5h-2Z" style="stroke:none"/>
        <path d="M18 26.5v-2l2.5-2.5h4l3.5 3.5-2.5 2.5h-6Z" style="fill:#67778f;stroke:none"/>
        <path d="M21 22v-1.5l2.5-2.5h3l2.5 2.5v4l-1 1-3.5-3.5Z" style="stroke:none"/>
    </g>
</svg>
