<svg xmlns="http://www.w3.org/2000/svg" width="32" height="32" style="fill-opacity:1;color-rendering:auto;color-interpolation:auto;text-rendering:auto;stroke:#000;stroke-linecap:square;stroke-miterlimit:10;shape-rendering:auto;stroke-opacity:1;fill:#000;stroke-dasharray:none;font-weight:400;stroke-width:1;font-family:&quot;Dialog&quot;;font-style:normal;stroke-linejoin:miter;font-size:12px;stroke-dashoffset:0;image-rendering:auto">
    <g style="stroke-linecap:round;fill:#a576a7;stroke:#a576a7">
        <path stroke="none" d="M1.5 9H1V5.5l1-1v-1l2-2 2 2v1l2 2v1l2 2L7.5 12h-1L5 13.5 1.5 10l.5-.5Z" style="stroke:none"/>
    </g>
    <g stroke="none" style="stroke-linecap:round;fill:#cd9fcf;stroke:#cd9fcf">
        <path d="m4 1.5.5-.5h6L13 3.5v2L9.5 9 8 7.5v-1l-2-2v-1Z" style="stroke:none"/>
        <path d="M8 22.5V20h.5l1-1h1l2-2h.5v1.5L11.5 20l1.5 1.5v1l.5.5h1l1 1h2l1 1h2l.5.5-.5.5h-1l-1 1h-1l-1 1h-4L9 24.5v-1Z" style="fill:#a576a7;stroke:none"/>
        <path d="m11.5 20 1.5-1.5V17h.5l1-1h3l1 1h1l1 1h1l1.5 1.5v1l1.5 1.5-3.5 3.5-.5-.5h-2l-1-1h-2l-1-1h-1l-.5-.5v-1Z" style="stroke:none"/>
    </g>
</svg>
