<svg xmlns="http://www.w3.org/2000/svg" width="32" height="32" style="fill-opacity:1;color-rendering:auto;color-interpolation:auto;text-rendering:auto;stroke:#000;stroke-linecap:square;stroke-miterlimit:10;shape-rendering:auto;stroke-opacity:1;fill:#000;stroke-dasharray:none;font-weight:400;stroke-width:1;font-family:&quot;Dialog&quot;;font-style:normal;stroke-linejoin:miter;font-size:12px;stroke-dashoffset:0;image-rendering:auto">
    <g style="stroke-linecap:round;fill:#272727;stroke:#272727">
        <path stroke="none" d="M1 19.5v-4L3.5 13 6 15.5 3.5 18 5 19.5v1l.5.5h1l1 1h1l1 1h1l1 1h.5v1.5l-2 2L8.5 26h-1Z" style="stroke:none"/>
    </g>
    <g stroke="none" style="stroke-linecap:round;fill:#353535;stroke:#353535">
        <path d="m4 13.5 2-2 2 2v3l1 1v1l.5.5h1l1 1-1 1 1.5 1.5V24h-.5l-1-1h-1l-1-1h-1l-1-1h-1l-.5-.5v-1L3.5 18 6 15.5Z" style="stroke:none"/>
        <path d="M12 18.5v-5l1.5-1.5h.5v2.5l1 1v1l7.5 7.5h-3l-1-1h-2l-1-1h-1L13 20.5v-1Z" style="fill:#272727;stroke:none"/>
        <path d="M16 13.5v1l4 4v1l.5.5h1l1.5 1.5v1l1 1v.5h-1.5L15 16.5v-1l-1-1V12h.5Zm0-12V1h1.5l1 1H20v1.5L21.5 5h1l1 1h1L26 7.5v1l1 1v1l1 1v1l1 1v1l2 2v2L29.5 17h-1l-.5-.5v-1l-1-1v-1l-2-2v-1l-.5-.5h-1L22 8.5v-1Z" style="stroke:none"/>
        <path d="M22 7.5v1l1.5 1.5h1l.5.5v1l2 2v1l1 1v1l.5.5h1l1.5 1.5-1.5 1.5h-2l-1-1h-1L21 14.5v-1l-1-1v-1l-1-1v-1l-1-1v-1l-1-1v-1l-1-1v-3Z" style="fill:#272727;stroke:none"/>
    </g>
</svg>
