<svg xmlns="http://www.w3.org/2000/svg" width="32" height="32" style="fill-opacity:1;color-rendering:auto;color-interpolation:auto;text-rendering:auto;stroke:#000;stroke-linecap:square;stroke-miterlimit:10;shape-rendering:auto;stroke-opacity:1;fill:#000;stroke-dasharray:none;font-weight:400;stroke-width:1;font-family:&quot;Dialog&quot;;font-style:normal;stroke-linejoin:miter;font-size:12px;stroke-dashoffset:0;image-rendering:auto">
    <g style="stroke-linecap:round;fill:#67778f;stroke:#67778f">
        <path stroke="none" d="M4 17.5v-4l1-1v-1l2-2 2 2 1.5-1.5h4l3.5 3.5-1.5 1.5-3-3h-2l-3 3 2 2h1l1 1-3 3h-2Z" style="stroke:none"/>
    </g>
    <g stroke="none" style="stroke-linecap:round;fill:#a0b0c8;stroke:#a0b0c8">
        <path d="M7 9.5 11.5 5h1L14 3.5 15.5 5h1L20 8.5v2l-1 1v1l-1 1-3.5-3.5h-4L9 11.5Z" style="stroke:none"/>
        <path d="m8.5 15 3-3h2l3 3-3.5 3.5-1.5-1.5h-1Z" style="stroke:none"/>
        <path d="m16.5 23 3.5-3.5.5.5h1l1 1h3l1 1H29v1.5L27.5 25l-2-2h-2L22 24.5v2l1.5 1.5h-2Z" style="fill:#67778f;stroke:none"/>
        <path d="m20.5 20-.5-.5 2.5-2.5h1l1.5-1.5 4 4V22h-2.5l-1-1h-3l-1-1Zm1.5 6.5v-2l1.5-1.5h2l2 2-3 3h-1Z" style="stroke:none"/>
    </g>
</svg>
