<svg xmlns="http://www.w3.org/2000/svg" width="32" height="32" style="fill-opacity:1;color-rendering:auto;color-interpolation:auto;text-rendering:auto;stroke:#000;stroke-linecap:square;stroke-miterlimit:10;shape-rendering:auto;stroke-opacity:1;fill:#000;stroke-dasharray:none;font-weight:400;stroke-width:1;font-family:&quot;Dialog&quot;;font-style:normal;stroke-linejoin:miter;font-size:12px;stroke-dashoffset:0;image-rendering:auto">
    <g style="stroke-linecap:round;fill:#a576a7;stroke:#a576a7">
        <path stroke="none" d="M1 23.5v-3l1-1V19h1.5l.5-.5V18h1.5l.5-.5V17h1.5l1-1 1.5 1.5v1l2 2v2l1.5 1.5-1.5 1.5v1L10.5 28H7v-.5L5.5 26H4v-.5l-.5-.5H2v-.5Z" style="stroke:none"/>
    </g>
    <g stroke="none" style="stroke-linecap:round;fill:#cd9fcf;stroke:#cd9fcf">
        <path d="m8.5 16 1.5-1.5v-1l1.5-1.5h3l1.5 1.5v1l1 1v6l-3 3-2-2v-2l-2-2v-1Z" style="stroke:none"/>
        <path d="M18.5 6 20 4.5v-1L21.5 2l.5.5v1l5 5-1.5 1.5h-4L20 8.5v-1ZM20 25.5v-2l1-1 3.5 3.5h1l.5.5-1.5 1.5h-2Z" style="fill:#a576a7;stroke:none"/>
        <path d="M21 22.5v-1l1.5-1.5h3l2.5 2.5v3L26.5 27l-1-1h-1Zm1-19v-1l-.5-.5 1-1h3L28 3.5v4l-1 1Z" style="stroke:none"/>
    </g>
</svg>
