<svg xmlns="http://www.w3.org/2000/svg" width="32" height="32" style="fill-opacity:1;color-rendering:auto;color-interpolation:auto;text-rendering:auto;stroke:#000;stroke-linecap:square;stroke-miterlimit:10;shape-rendering:auto;stroke-opacity:1;fill:#000;stroke-dasharray:none;font-weight:400;stroke-width:1;font-family:&quot;Dialog&quot;;font-style:normal;stroke-linejoin:miter;font-size:12px;stroke-dashoffset:0;image-rendering:auto">
    <g style="stroke-linecap:round;fill:#67778f;stroke:#67778f">
        <path stroke="none" d="M5 25.5v-5l4-4 1.5 1.5h1l5 5H18v1.5L13.5 29h-2l-1-1h-2l-1-1h-1Z" style="stroke:none"/>
    </g>
    <g stroke="none" style="stroke-linecap:round;fill:#67778f;stroke:#67778f">
        <path d="M7 23.5 8.5 25h2l1.5-1.5v-2l-.5-.5h-1L9 19.5l-2 2Z" style="stroke:none"/>
        <path d="M7 23.5v-2l2-2 1.5 1.5h1l.5.5v2L10.5 25h-2Zm2-7v-1l1.5-1.5h4l2.5 2.5v1l1 1V23h-1.5l-5-5h-1Z" style="fill:#a0b0c8;stroke:none"/>
        <path d="M18 11.5v-2l2-2 2.5 2.5h3L30 5.5v4l-1 1v1L26.5 14h-1l-1 1h-3Z" style="stroke:none"/>
        <path d="m20 7.5 2-2v-1L23.5 3h4L30 5.5 25.5 10h-3Z" style="fill:#a0b0c8;stroke:none"/>
    </g>
</svg>
