<svg xmlns="http://www.w3.org/2000/svg" width="32" height="32" style="fill-opacity:1;color-rendering:auto;color-interpolation:auto;text-rendering:auto;stroke:#000;stroke-linecap:square;stroke-miterlimit:10;shape-rendering:auto;stroke-opacity:1;fill:#000;stroke-dasharray:none;font-weight:400;stroke-width:1;font-family:&quot;Dialog&quot;;font-style:normal;stroke-linejoin:miter;font-size:12px;stroke-dashoffset:0;image-rendering:auto">
    <g style="stroke-linecap:round;fill:#67778f;stroke:#67778f">
        <path stroke="none" d="M6 22.5v-4l1-1v-1l1-1v-1l1-1v-1l.5-.5 3 3h1l1 1h4l1 1H23v1.5L20.5 21l-3-3h-4l-2 2 3 3h1l1.5 1.5-.5.5h-1l-2 2h-3l-1-1h-1L7 24.5v-1Z" style="stroke:none"/>
    </g>
    <g style="stroke-linecap:round;fill:#a0b0c8;stroke:#a0b0c8">
        <path stroke="none" d="m9.5 12 3-3h1l1-1h2l5.5 5.5v1l1 1V17h-3.5l-1-1h-4l-1-1h-1Zm2 8 2-2h4l3 3-3.5 3.5-1.5-1.5h-1Z" style="stroke:none"/>
    </g>
</svg>
