<svg xmlns="http://www.w3.org/2000/svg" width="32" height="32" style="fill-opacity:1;color-rendering:auto;color-interpolation:auto;text-rendering:auto;stroke:#000;stroke-linecap:square;stroke-miterlimit:10;shape-rendering:auto;stroke-opacity:1;fill:#000;stroke-dasharray:none;font-weight:400;stroke-width:1;font-family:&quot;Dialog&quot;;font-style:normal;stroke-linejoin:miter;font-size:12px;stroke-dashoffset:0;image-rendering:auto">
    <g style="stroke-linecap:round;fill:#c384b7;stroke:#c384b7">
        <path stroke="none" d="M2 14.5v-2l2-2v-1l.5-.5 4 4h1l1.5 1.5L9.5 16h-1l-1 1h-3Z" style="stroke:none"/>
    </g>
    <g stroke="none" style="stroke-linecap:round;fill:#f9a3c7;stroke:#f9a3c7">
        <path d="M4.5 9 7 6.5v-2L8.5 3h4L15 5.5v3l-1 1v1l-2 2v1l-1 1L9.5 13h-1Z" style="stroke:none"/>
        <path d="M18 25.5v-3l1-1v-1l1-1 2.5 2.5h2l2-2H28v.5l-1 1v1l-1 1v1L24.5 26h-1l-1 1h-3Z" style="fill:#c384b7;stroke:none"/>
        <path d="M20 19.5v-1l2-2v-2l1-1v-1l1.5-1.5h2l1.5 1.5v1l1 1v3l-1 1V20h-1.5l-2 2h-2Z" style="stroke:none"/>
    </g>
</svg>
