<svg xmlns="http://www.w3.org/2000/svg" width="32" height="32" style="fill-opacity:1;color-rendering:auto;color-interpolation:auto;text-rendering:auto;stroke:#000;stroke-linecap:square;stroke-miterlimit:10;shape-rendering:auto;stroke-opacity:1;fill:#000;stroke-dasharray:none;font-weight:400;stroke-width:1;font-family:&quot;Dialog&quot;;font-style:normal;stroke-linejoin:miter;font-size:12px;stroke-dashoffset:0;image-rendering:auto">
    <g style="stroke-linecap:round;fill:#92dd7e;stroke:#92dd7e">
        <path stroke="none" d="m3.5 20 5-5h2l2.5 2.5-2 2v1l-3 3-.5-.5h-1Z" style="stroke:none"/>
    </g>
    <g stroke="none" style="stroke-linecap:round;fill:#92dd7e;stroke:#92dd7e">
        <path d="M8 8.5v-2L9.5 5h1l2-2h3l1 1L15 5.5v1L10.5 11Z" style="stroke:none"/>
        <path d="m8 23.5 3-3v-1l2.5-2.5 1 1h1l2 2-1.5 1.5v1L11.5 27ZM11.5 12l-1-1L15 6.5v-1L16.5 4l4 4L19 9.5v1l-4 4-2.5-2.5Z" style="fill:#3a8f64;stroke:none"/>
    </g>
</svg>
