<svg xmlns="http://www.w3.org/2000/svg" width="32" height="32" style="fill-opacity:1;color-rendering:auto;color-interpolation:auto;text-rendering:auto;stroke:#000;stroke-linecap:square;stroke-miterlimit:10;shape-rendering:auto;stroke-opacity:1;fill:#000;stroke-dasharray:none;font-weight:400;stroke-width:1;font-family:&quot;Dialog&quot;;font-style:normal;stroke-linejoin:miter;font-size:12px;stroke-dashoffset:0;image-rendering:auto">
    <g style="stroke-linecap:round;fill:#5e5d62;stroke:#5e5d62">
        <path stroke="none" d="M4 11.5v-5L6.5 4h3l1 1h1L14 7.5v1l2 2v3L13.5 16h-2l-1-1h-1l-1-1h-2Z" style="stroke:none"/>
    </g>
    <g style="stroke-linecap:round;fill:#5e5d62;stroke:#5e5d62">
        <path stroke="none" d="M4 23.5v-1l2-2 .5.5.5-.5V20h5.5l1 1h1l.5.5v1l1 1v2L13.5 28h-3l-1-1h-1l-1-1h-1Zm16-6v-3l2.5-2.5h3l2.5 2.5v3L25.5 20h-3Z" style="stroke:none"/>
    </g>
</svg>
