<svg xmlns="http://www.w3.org/2000/svg" width="32" height="32" style="fill-opacity:1;color-rendering:auto;color-interpolation:auto;text-rendering:auto;stroke:#000;stroke-linecap:square;stroke-miterlimit:10;shape-rendering:auto;stroke-opacity:1;fill:#000;stroke-dasharray:none;font-weight:400;stroke-width:1;font-family:&quot;Dialog&quot;;font-style:normal;stroke-linejoin:miter;font-size:12px;stroke-dashoffset:0;image-rendering:auto">
    <g style="stroke-linecap:round;fill:#5e5d62;stroke:#5e5d62">
        <path stroke="none" d="M4 9.5v-3L6.5 4h1l1-1h2L13 5.5V8h-.5l-.5.5v1L9.5 12h-3Z" style="stroke:none"/>
    </g>
    <g style="stroke-linecap:round;fill:#5e5d62;stroke:#5e5d62">
        <path stroke="none" d="M4 22.5v-4L6.5 16h5l4 4h1l1 1h1l1.5 1.5v3L18.5 27h-1l-1 1H8v-.5l-2-2v-1Zm12-9v-4L19.5 6h1l1-1H26v.5l2 2v4L26.5 13h-1l-1 1h-1l-1 1h-1l-1 1h-2Z" style="stroke:none"/>
    </g>
</svg>
