<svg xmlns="http://www.w3.org/2000/svg" width="64" height="64" style="fill-opacity:1;color-rendering:auto;color-interpolation:auto;text-rendering:auto;stroke:#000;stroke-linecap:square;stroke-miterlimit:10;shape-rendering:auto;stroke-opacity:1;fill:#000;stroke-dasharray:none;font-weight:400;stroke-width:1;font-family:&quot;Dialog&quot;;font-style:normal;stroke-linejoin:miter;font-size:12px;stroke-dashoffset:0;image-rendering:auto">
    <g style="stroke-linecap:round;fill:#f6d4ca;stroke:#f6d4ca">
        <path stroke="none" d="M.5 3V.5H3L8.5 6h1l1 1h1l1 1h10l3.5 3.5v1l2 2 3-3v-1l1-1v-3L33.5 5h2l2 2h1l4.5 4.5v1l3.5 3.5h1l4 4h5l4 4-4 4h-2L53 29.5v4l4 4v1l1 1v1l1 1v2l1 1v10l1 1v1l1 1v2l1 1v1l.5.5v1.5H62L58.5 60h-1l-2-2h-1l-1-1h-4l-1-1h-1l-1-1h-1l-1-1h-1l-1-1h-1l-1-1h-2l-2 2 4 4-2.5 2.5-5-5v-2L31.5 52h-2l-2 2h-2l-3-3h-1L19 48.5v-1L16.5 45h-1l-.5-.5v-1L12.5 41h-1l-1-1h-1l-2-2 4-4h1l1-1h2l1-1h2l2-2-1.5-1.5v-1L14.5 23h-1l-1-1h-1L10 20.5l1-1v-4L8.5 13h-2L5 11.5v-2l-1-1v-1l-1-1v-1Z" style="stroke:none"/>
    </g>
    <g stroke="none" style="stroke-linecap:round;fill:#b785a5;stroke:#b785a5">
        <path d="M3 5.5v1l1 1v1l1 1v2L6.5 13h2l2.5 2.5v4l-1 1 1.5 1.5h1l1 1h1l4.5 4.5v1l1.5 1.5-2 2h-2l-1 1h-2l-1 1h-1l-4 4 2 2h1l1 1h1l2.5 2.5v1l.5.5h1l2.5 2.5v1l2.5 2.5h1l3 3h2l2-2h2l1.5 1.5v2l5 5 2.5-2.5-4-4 2-2h2l1 1h1l1 1h1l1 1h1l1 1h1l1 1h4l1 1h1l2 2h1l3.5 3.5H.5V3Z" style="stroke:none"/>
        <path d="M3 .5h60.5V62l-.5-.5v-1l-1-1v-2l-1-1v-1l-1-1v-10l-1-1v-2l-1-1v-1l-1-1v-1l-4-4v-4l1.5-1.5h2l4-4-4-4h-5l-4-4h-1L43 12.5v-1L38.5 7h-1l-2-2h-2L32 6.5v3l-1 1v1l-3 3-2-2v-1L22.5 8h-10l-1-1h-1l-1-1h-1Z" style="fill:#ffefe9;stroke:none"/>
        <path d="M6 51.5v3L7.5 56h5l2.5-2.5v-3l-2-2v-1L11.5 46h-2L8 47.5v1l-1 1v1Z" style="stroke:none"/>
        <path d="M6 54.5v-3l1-1v-1l1-1v-1L9.5 46h2l1.5 1.5v1l2 2v3L12.5 56h-5Zm10-42v2L30.5 29h4l.5-.5v-3L22.5 13h-1l-1-1h-4Z" style="fill:#f6d4ca;stroke:none"/>
        <path d="M16 14.5v-2l.5-.5h4l1 1h1L35 25.5v3l-.5.5h-4Z" style="fill:#fff;stroke:none"/>
        <path d="m17.5 38 10 10h2l1.5-1.5v-2l-2-2v-1L23.5 36h-1L21 34.5Z" style="fill:#f6d4ca;stroke:none"/>
        <path d="m17.5 38 3.5-3.5 1.5 1.5h1l5.5 5.5v1l2 2v2L29.5 48h-2Z" style="stroke:none"/>
        <path d="M32 14.5 45.5 28h6l.5-.5v-2L38.5 12h-6l-.5.5Z" style="fill:#f6d4ca;stroke:none"/>
        <path d="M32 14.5v-2l.5-.5h6L52 25.5v2l-.5.5h-6Z" style="fill:#fff;stroke:none"/>
        <path d="m33.5 43 6.5 6.5 2.5-2.5-6.5-6.5Z" style="fill:#f6d4ca;stroke:none"/>
        <path d="m33.5 43 2.5-2.5 6.5 6.5-2.5 2.5Z" style="stroke:none"/>
        <path d="M37 32.5v3L52.5 51h1l1 1h4l.5-.5v-3L42.5 32h-5Z" style="fill:#f6d4ca;stroke:none"/>
        <path d="M37 35.5v-3l.5-.5h5L59 48.5v3l-.5.5h-4l-1-1h-1Z" style="fill:#fff;stroke:none"/>
        <path d="m45.5 9 3 3h2l1 1h2l1.5-1.5v-3L51.5 5h-3L47 6.5v1Z" style="fill:#ffefe9;stroke:none"/>
        <path d="M45.5 9 47 7.5v-1L48.5 5h3L55 8.5v3L53.5 13h-2l-1-1h-2Z" style="fill:#f6d4ca;stroke:none"/>
    </g>
</svg>
