<svg xmlns="http://www.w3.org/2000/svg" width="64" height="64" style="fill-opacity:1;color-rendering:auto;color-interpolation:auto;text-rendering:auto;stroke:#000;stroke-linecap:square;stroke-miterlimit:10;shape-rendering:auto;stroke-opacity:1;fill:#000;stroke-dasharray:none;font-weight:400;stroke-width:1;font-family:&quot;Dialog&quot;;font-style:normal;stroke-linejoin:miter;font-size:12px;stroke-dashoffset:0;image-rendering:auto">
    <g style="stroke-linecap:round;fill:#af4753;stroke:#af4753">
        <path stroke="none" d="M.5 2V.5H3l3 3v1l6.5 6.5h2l1-1h1l3-3h2l1-1h2l1-1h4l1 1h2l1 1-2 2h-1l-3 3 3.5 3.5 2.5-2.5 4.5 4.5v3l-1 1 1.5 1.5h2l1.5-1.5v-1l2.5-2.5-4.5-4.5v-2L42.5 9h1l2-2h1l1-1h6L56 8.5v6L53.5 17 51 14.5 48.5 17l2 2 1-1 4 4-1.5 1.5 1 1-.5.5-1-1h-2L49 21.5l1.5-1.5-2-2-2.5 2.5v2l4.5 4.5h1l2 2h1l.5.5v4L49.5 39l6.5 6.5v2l-1 1v2l1 1v1l1 1v1l4.5 4.5h1l1 1v3.5H62L56.5 58h-1l-6-6h-1l-1-1h-4l-5 5h-2L32 51.5v-2l-6-6-7.5 7.5 3 3-2 2h-1L17 57.5 15.5 56h-1l-1-1 2.5-2.5v-2L12.5 47h-2l-2 2h-2l-3-3 6-6h2l1 1h1l2 2h2l.5-.5v-1l2-2-3-3-1.5 1.5-3.5-3.5 1-1v-2l-2-2-2 2-2-2v-1l-1-1v-3l2-2v-1l2-2v-1l1-1v-4l-1-1v-1Z" style="stroke:none"/>
    </g>
    <g stroke="none" style="stroke-linecap:round;fill:#7e2642;stroke:#7e2642">
        <path d="M10 11.5v1l1 1v4l-1 1v1l-2 2v1l-2 2v3l1 1v1l2 2 2-2 2 2v2l-1 1 3.5 3.5 1.5-1.5 3 3-2 2v1l-.5.5h-2l-2-2h-1l-1-1h-2l-6 6 3 3h2l2-2h2l3.5 3.5v2L13.5 55l1 1h1l1.5 1.5 1.5-1.5h1l2-2-3-3 7.5-7.5 6 6v2l4.5 4.5h2l5-5h4l1 1h1l6 6h1l5.5 5.5H.5V2Z" style="stroke:none"/>
        <path d="M3 .5h60.5V60l-1-1h-1L57 54.5v-1l-1-1v-1l-1-1v-2l1-1v-2L49.5 39l5.5-5.5v-4l-.5-.5h-1L52 27.5l3-3-1-1 1.5-1.5-4-4-1 1-2-2 2.5-2.5 2.5 2.5 2.5-2.5v-6L53.5 6h-6l-1 1h-1l-2 2h-1L40 11.5v2l4.5 4.5-2.5 2.5v1L40.5 23h-2L37 21.5l1-1v-3L33.5 13 31 15.5 27.5 12l3-3h1l2-2-1-1h-2l-1-1h-4l-1 1h-2l-1 1h-2l-3 3h-1l-1 1h-2L6 4.5v-1Z" style="fill:#ce735e;stroke:none"/>
        <path d="m12 20.5 3.5 3.5h2l1-1-2-2h-1l-.5-.5v-1L13.5 18l-.5.5v1Zm-.5 8.5 2 2h2l3.5 3.5-1.5 1.5 2.5 2.5 4-4v-2L20.5 29h-1l-3-3h-2Z" style="fill:#af4753;stroke:none"/>
        <path d="m12 20.5 1-1v-1l.5-.5 1.5 1.5v1l.5.5h1l2 2-1 1h-2Z" style="stroke:none"/>
        <path d="m11.5 29 3-3h2l3 3h1l3.5 3.5v2l-4 4-2.5-2.5 1.5-1.5-3.5-3.5h-2Z" style="fill:#ce735e;stroke:none"/>
        <path d="m14 17.5 1.5 1.5h1l.5.5v1l1.5 1.5 1.5-1.5v-2L17.5 16h-2Z" style="fill:#af4753;stroke:none"/>
        <path d="m14 17.5 1.5-1.5h2l2.5 2.5v2L18.5 22 17 20.5v-1l-.5-.5h-1Z" style="fill:#ce735e;stroke:none"/>
        <path d="M22 17.5v2l2 2v1l7.5 7.5h2l5.5-5.5-2.5-2.5h-2l-1 1h-2L28 19.5l1-1v-1l1.5-1.5-3.5-3.5Z" style="fill:#af4753;stroke:none"/>
        <path d="M22 19.5v-2l5-5 3.5 3.5-1.5 1.5v1l-1 1 3.5 3.5h2l1-1h2l2.5 2.5-5.5 5.5h-2L24 22.5v-1Z" style="stroke:none"/>
        <path d="m23.5 38 4 4 4-4-4-4Z" style="fill:#af4753;stroke:none"/>
        <path d="m23.5 38 4-4 4 4-4 4Z" style="stroke:none"/>
        <path d="m31.5 36 8.5 8.5 4-4-2.5-2.5-1.5 1.5-3.5-3.5 1.5-1.5-2.5-2.5Z" style="fill:#af4753;stroke:none"/>
        <path d="m31.5 36 4-4 2.5 2.5-1.5 1.5 3.5 3.5 1.5-1.5 2.5 2.5-4 4Z" style="stroke:none"/>
        <path d="m32.5 49 4.5 4.5 4.5-4.5-4.5-4.5Z" style="fill:#af4753;stroke:none"/>
        <path d="m32.5 49 4.5-4.5 4.5 4.5-4.5 4.5Z" style="fill:#ce735e;stroke:none"/>
        <path d="m36 31.5 2.5 2.5h2l1.5 1.5v2l2.5 2.5 1.5-1.5v-1l1.5-1.5-7-7h-2Z" style="fill:#af4753;stroke:none"/>
        <path d="m36 31.5 2.5-2.5h2l7 7-1.5 1.5v1L44.5 40 42 37.5v-2L40.5 34h-2Z" style="fill:#ce735e;stroke:none"/>
        <path d="M46 22.5v-2l2.5-2.5 2 2-1.5 1.5 2.5 2.5h2l1 1-2.5 2.5-.5-.5h-1Z" style="stroke:none"/>
    </g>
</svg>
