<svg xmlns="http://www.w3.org/2000/svg" width="32" height="32" style="fill-opacity:1;color-rendering:auto;color-interpolation:auto;text-rendering:auto;stroke:#000;stroke-linecap:square;stroke-miterlimit:10;shape-rendering:auto;stroke-opacity:1;fill:#000;stroke-dasharray:none;font-weight:400;stroke-width:1;font-family:&quot;Dialog&quot;;font-style:normal;stroke-linejoin:miter;font-size:12px;stroke-dashoffset:0;image-rendering:auto">
    <g style="stroke-linecap:round;fill:#f6d4ca;stroke:#f6d4ca">
        <path stroke="none" d="M.5 3V.5H4l5 5-1 1 8 8-4 4v4l1.5 1.5h3l3-3h1l1-1 1 1h2l1.5-1.5v-3l.5-.5 2.5 2.5v7l2.5 2.5v3.5H30L24.5 26h-1l-1-1h-5l-3 3h-3l-1 1h-2L5 25.5v-2l3-3v-2l-4-4L8.5 10l-4-4h-1Z" style="stroke:none"/>
    </g>
    <g stroke="none" style="stroke-linecap:round;fill:#b785a5;stroke:#b785a5">
        <path d="M3.5 6h1l4 4L4 14.5l4 4v2l-3 3v2L8.5 29h2l1-1h3l3-3h5l1 1h1l5.5 5.5H.5V3Z" style="stroke:none"/>
        <path d="M4 .5h27.5V28L29 25.5v-7L14.5 4h-4L9 5.5Z" style="fill:#ffefe9;stroke:none"/>
        <path d="M8 6.5 10.5 4h4l12 12-.5.5v3L24.5 21h-2Z" style="fill:#fff;stroke:none"/>
        <path d="M12 22.5v-4l4-4 5.5 5.5-1 1h-1l-3 3h-3ZM20.5 5l7.5 7.5 2-2v-2l-6-6L22.5 4h-1Z" style="fill:#ffefe9;stroke:none"/>
        <path d="m20.5 5 1-1h1L24 2.5l6 6v2l-2 2Z" style="fill:#fff;stroke:none"/>
    </g>
</svg>
