<svg xmlns="http://www.w3.org/2000/svg" width="32" height="32" style="fill-opacity:1;color-rendering:auto;color-interpolation:auto;text-rendering:auto;stroke:#000;stroke-linecap:square;stroke-miterlimit:10;shape-rendering:auto;stroke-opacity:1;fill:#000;stroke-dasharray:none;font-weight:400;stroke-width:1;font-family:&quot;Dialog&quot;;font-style:normal;stroke-linejoin:miter;font-size:12px;stroke-dashoffset:0;image-rendering:auto">
    <g style="stroke-linecap:round;fill:#af4753;stroke:#af4753">
        <path stroke="none" d="M.5 2V.5H2L4.5 3h6l1 1h2l1 1h1l1 1L13 9.5l5 5L23.5 9l-2-2L24 4.5l3 3v1l1 1v3l-1 1v1l-4 4-2-2-4.5 4.5 4.5 4.5 4-4 2 2v1l2 2v2l2.5 2.5v.5H31L28.5 29h-1l-1-1h-1l-1-1h-2l-1 1h-3l-1 1h-2l-1-1h-1l-1-1h-1l-1-1 5-5-5.5-5.5-4 4-1-1v-1l-1-1v-4l1-1v-2L6.5 8Z" style="stroke:none"/>
    </g>
    <g stroke="none" style="stroke-linecap:round;fill:#7e2642;stroke:#7e2642">
        <path d="M6.5 8 5 9.5v2l-1 1v4l1 1v1l1 1 4-4 5.5 5.5-5 5 1 1h1l1 1h1l1 1h2l1-1h3l1-1h2l1 1h1l1 1h1l2.5 2.5H.5V2Z" style="stroke:none"/>
        <path d="M2 .5h29.5V31L29 28.5v-2l-2-2v-1l-2-2-4 4-4.5-4.5 4.5-4.5 2 2 4-4v-1l1-1v-3l-1-1v-1l-3-3L21.5 7l2 2-5.5 5.5-5-5L16.5 6l-1-1h-1l-1-1h-2l-1-1h-6Z" style="fill:#ce735e;stroke:none"/>
    </g>
</svg>
