<svg xmlns="http://www.w3.org/2000/svg" width="32" height="32" style="fill-opacity:1;color-rendering:auto;color-interpolation:auto;text-rendering:auto;stroke:#000;stroke-linecap:square;stroke-miterlimit:10;shape-rendering:auto;stroke-opacity:1;fill:#000;stroke-dasharray:none;font-weight:400;stroke-width:1;font-family:&quot;Dialog&quot;;font-style:normal;stroke-linejoin:miter;font-size:12px;stroke-dashoffset:0;image-rendering:auto">
    <g style="stroke-linecap:round;fill:#af4753;stroke:#af4753">
        <path stroke="none" d="M.5 2V.5H2L4.5 3h4l1 1h3l1 1h1l1 1h1l1 1h2l1-1h2l2 2h2L28 9.5v3l-1 1v1L24.5 17h-1l-5 5 4 4h2l2.5-2.5 2 2v1l2.5 2.5v2.5H30L26.5 28h-9l-1-1h-4l-1-1h-1L9 24.5l1.5-1.5h1l5.5-5.5v-2L11.5 10h-2l-2 2L6 10.5v-2l-1-1v-1Z" style="stroke:none"/>
    </g>
    <g stroke="none" style="stroke-linecap:round;fill:#7e2642;stroke:#7e2642">
        <path d="M5 6.5v1l1 1v2L7.5 12l2-2h2l5.5 5.5v2L11.5 23h-1L9 24.5l1.5 1.5h1l1 1h4l1 1h9l3.5 3.5H.5V2Z" style="stroke:none"/>
        <path d="M2 .5h29.5V29L29 26.5v-1l-2-2-2.5 2.5h-2l-4-4 5-5h1l2.5-2.5v-1l1-1v-3L26.5 8h-2l-2-2h-2l-1 1h-2l-1-1h-1l-1-1h-1l-1-1h-3l-1-1h-4Z" style="fill:#ce735e;stroke:none"/>
    </g>
</svg>
