<svg xmlns="http://www.w3.org/2000/svg" width="64" height="64" style="fill-opacity:1;color-rendering:auto;color-interpolation:auto;text-rendering:auto;stroke:#000;stroke-linecap:square;stroke-miterlimit:10;shape-rendering:auto;stroke-opacity:1;fill:#000;stroke-dasharray:none;font-weight:400;stroke-width:1;font-family:&quot;Dialog&quot;;font-style:normal;stroke-linejoin:miter;font-size:12px;stroke-dashoffset:0;image-rendering:auto">
    <g style="stroke-linecap:round;fill:#af4753;stroke:#af4753">
        <path stroke="none" d="M4 33.5v-4l2-2v-1l3-3v-1l3-3v-1l3-3 2 2v1l.5.5h1l2.5 2.5v1l1 1v4l-2 2v1l-1 1v4l1 1v1l1 1v1l.5.5h1l3.5 3.5 1.5-1.5h3l4 4h4l1-1h1l1.5-1.5 4 4v1l1 1v2l.5.5-2 2h-1l-2 2h-2l-1 1h-3l-1 1h-9l-1-1h-2l-4-4h-1L10 44.5v-1l-3-3v-1l-1-1v-2l-1-1v-1Z" style="stroke:none"/>
    </g>
    <g stroke="none" style="stroke-linecap:round;fill:#ce735e;stroke:#ce735e">
        <path d="m15 15.5 3.5-3.5 1.5 1.5v2l1 1v1l3.5 3.5h1l3 3h2l1-1h1l1-1h3l1 1h1l.5.5v1l1.5 1.5h1l3.5 3.5v3l1 1v3L42.5 40l6 6h1l1.5 1.5-1 1v1L47.5 52l-.5-.5v-2l-1-1v-1l-4-4-1.5 1.5h-1l-1 1h-4l-4-4h-3L26 43.5 22.5 40h-1l-.5-.5v-1l-1-1v-1l-1-1v-4l1-1v-1l2-2v-4l-1-1v-1L18.5 19h-1l-.5-.5v-1Z" style="stroke:none"/>
        <path d="m18.5 12 2-2h2l2-2h2l1-1h2l1-1h3l1 1h1l2 2h1l1 1h1l1 1h2l5 5h1l.5.5v1l5 5v2l3 3v6l-1 1v4l-1 1v2l-2 2v1l-3 3-1.5-1.5h-1l-6-6 3.5-3.5v-3l-1-1v-3L41.5 26h-1L39 24.5v-1l-.5-.5h-1l-1-1h-3l-1 1h-1l-1 1h-2l-3-3h-1L21 17.5v-1l-1-1v-2Z" style="fill:#eea666;stroke:none"/>
        <path d="m28.5 31 6 6h2l3.5-3.5v-2l-2-2v-1L35.5 26h-2Z" style="stroke:none"/>
        <path d="m28.5 31 5-5h2l2.5 2.5v1l2 2v2L36.5 37h-2Z" style="fill:#eea666;stroke:none"/>
    </g>
</svg>
