<svg xmlns="http://www.w3.org/2000/svg" width="32" height="32" style="fill-opacity:1;color-rendering:auto;color-interpolation:auto;text-rendering:auto;stroke:#000;stroke-linecap:square;stroke-miterlimit:10;shape-rendering:auto;stroke-opacity:1;fill:#000;stroke-dasharray:none;font-weight:400;stroke-width:1;font-family:&quot;Dialog&quot;;font-style:normal;stroke-linejoin:miter;font-size:12px;stroke-dashoffset:0;image-rendering:auto">
    <g style="stroke-linecap:round;fill:#f6d4ca;stroke:#f6d4ca">
        <path stroke="none" d="M1 3.5v3l.5.5h2L7 3.5v-2L6.5 1h-3Z" style="stroke:none"/>
    </g>
    <g stroke="none" style="stroke-linecap:round;fill:#f6d4ca;stroke:#f6d4ca">
        <path d="M.5 14V.5H14Z" style="stroke:none"/>
        <path d="M.5 26V14L14 .5h12Zm1-19L1 6.5v-3L3.5 1h3l.5.5v2L3.5 7Z" style="fill:#ffefe9;stroke:none"/>
        <path d="M6 26.5v4l.5.5h4l4.5-4.5v-4l-.5-.5h-4Z" style="stroke:none"/>
        <path d="m6.5 31-.5-.5v-4l4.5-4.5h4l.5.5v4L10.5 31Z" style="fill:#ffefe9;stroke:none"/>
        <path d="M15 31.5H.5V26L26 .5h5.5V15Z" style="stroke:none"/>
        <path d="M17 15.5v4l.5.5h4l5.5-5.5v-4l-.5-.5h-4Z" style="stroke:none"/>
        <path d="m17.5 20-.5-.5v-4l5.5-5.5h4l.5.5v4L21.5 20ZM27 31.5H15L31.5 15v12Z" style="fill:#ffefe9;stroke:none"/>
    </g>
</svg>
