<svg xmlns="http://www.w3.org/2000/svg" width="32" height="32" style="fill-opacity:1;color-rendering:auto;color-interpolation:auto;text-rendering:auto;stroke:#000;stroke-linecap:square;stroke-miterlimit:10;shape-rendering:auto;stroke-opacity:1;fill:#000;stroke-dasharray:none;font-weight:400;stroke-width:1;font-family:&quot;Dialog&quot;;font-style:normal;stroke-linejoin:miter;font-size:12px;stroke-dashoffset:0;image-rendering:auto">
    <g style="stroke-linecap:round;fill:#f6d4ca;stroke:#f6d4ca">
        <path stroke="none" d="M.5 15V.5H14l-5 5v5l.5.5h6L26 .5h5.5V15L15 31.5H.5V26L6 20.5v-5l-.5-.5Z" style="stroke:none"/>
    </g>
    <g stroke="none" style="stroke-linecap:round;fill:#ffefe9;stroke:#ffefe9">
        <path d="M.5 26V15h5l.5.5v5Zm9-15-.5-.5v-5l5-5h12L15.5 11Z" style="stroke:none"/>
        <path d="M16 16.5v4l.5.5h4l8.5-8.5v-4l-.5-.5h-4Z" style="fill:#f6d4ca;stroke:none"/>
        <path d="m16.5 21-.5-.5v-4L24.5 8h4l.5.5v4L20.5 21ZM27 31.5H15L31.5 15v12Z" style="stroke:none"/>
    </g>
</svg>
