<svg xmlns="http://www.w3.org/2000/svg" width="64" height="64" style="fill-opacity:1;color-rendering:auto;color-interpolation:auto;text-rendering:auto;stroke:#000;stroke-linecap:square;stroke-miterlimit:10;shape-rendering:auto;stroke-opacity:1;fill:#000;stroke-dasharray:none;font-weight:400;stroke-width:1;font-family:&quot;Dialog&quot;;font-style:normal;stroke-linejoin:miter;font-size:12px;stroke-dashoffset:0;image-rendering:auto">
    <g style="stroke-linecap:round;fill:#ba914d;stroke:#ba914d">
        <path stroke="none" d="M.5 3V.5H3L4.5 2h1L7 3.5v1L8.5 6h4L14 7.5 15.5 6h3l3 3h1l1 1h2l3.5 3.5v1l1 1v1l6 6v1l2 2v.5h-.5L35 23.5v-1l-6-6v-1l-1-1-2.5 2.5 2.5 2.5-.5.5-1-1h-2l-1-1h-1l-3-3h-1l-1-1h-2L13 16.5v3l1.5 1.5-1.5 1.5 3.5 3.5h2l1 1h1l1 1h2l4 4h1l1.5 1.5 2-2V31h1.5l.5-.5V28h1.5l1 1h1l1 1h1l3 3h2l2 2 1-1 1 1h1l1 1h3l1-1h2l1 1h1l2 2-1.5 1.5v1l-3 3v5l1 1v1l1 1v1l1 1v1l1 1v1l1 1v1l.5.5h1l1 1v3.5H60l-1-1v-1l-.5-.5h-1l-1-1h-1l-1-1h-1l-.5-.5v-1l-1-1v-1L49.5 53h-3l-2 2h-1l-1 1h-3l-1-1h-1l-1-1h-1L33 51.5v-1l-1-1V47h.5l1.5-1.5v-2l-2-2v-1L27.5 36h-1l-1-1h-1l-1-1h-1l-1-1h-4L16 34.5l-.5-.5h-2L12 32.5l1-1v-3l-1-1v-1l-.5-.5h-1L8 23.5v-1l-1-1v-3L9.5 16h1l.5-.5v-1l1.5-1.5-2-2h-1l-1-1h-1Z" style="stroke:none"/>
    </g>
    <g stroke="none" style="stroke-linecap:round;fill:#925e46;stroke:#925e46">
        <path d="M7.5 10h1l1 1h1l2 2-1.5 1.5v1l-.5.5h-1L7 18.5v3l1 1v1l2.5 2.5h1l.5.5v1l1 1v3l-1 1 1.5 1.5h2l3 3-.5.5 1.5 1.5h2l1 1h2l3 3-.5.5.5.5H30v.5l1.5 1.5h.5v3.5l1 1v1l2.5 2.5h1l1 1h1l1 1h3l1-1h1l2-2h3l2.5 2.5v1l1 1v1l.5.5h1l1 1h1l1 1h1l.5.5v1l1 1H.5V3Z" style="stroke:none"/>
        <path d="M3 .5h60.5V60l-1-1h-1l-.5-.5v-1l-1-1v-1l-1-1v-1l-1-1v-1l-1-1v-1l-1-1v-5l3-3v-1l1.5-1.5-2-2h-1l-1-1h-2l-1 1h-3l-1-1h-1L47 33.5v-3l-6-6-1.5 1.5H38v-.5l-2-2v-1l-6-6v-1l-1-1v-1L25.5 10h-2l-1-1h-1l-3-3h-3L14 7.5 12.5 6h-4L7 4.5v-1L5.5 2h-1Z" style="fill:#dab560;stroke:none"/>
        <path d="m5.5 52 4 4h1l1 1h1l1 1h2l2-2h3l1-1h1l3.5-3.5v-3L21.5 44h-1l-3-3h-1l-2-2h-3l-2 2 3.5 3.5v2L11.5 48h-1l-1 1h-2l-.5.5v1Z" style="stroke:none"/>
        <path d="M5.5 52 7 50.5v-1l.5-.5h2l1-1h1l1.5-1.5v-2L9.5 41l2-2h3l2 2h1l3 3h1l4.5 4.5v3L22.5 55h-1l-1 1h-3l-2 2h-2l-1-1h-1l-1-1h-1Z" style="fill:#ba914d;stroke:none"/>
        <path d="M13 19.5v-3l2.5-2.5h2l1 1h1l3 3h1l1 1h2l5.5 5.5v1l2 2v3l-.5.5H32v-1.5l-.5-.5-.5.5-5.5-5.5H24v-.5l-.5-.5H22v-.5l-.5-.5h-1l-1-1h-5Z" style="fill:#dab560;stroke:none"/>
        <path d="m13 22.5 1.5-1.5h3l1 1H21v.5l.5.5H23v.5l.5.5h2l1 1-.5.5 2.5 2.5.5-.5 2.5 2.5h.5v1.5l-2 2-1.5-1.5h-1l-4-4h-2l-1-1h-1l-1-1h-2Z" style="stroke:none"/>
        <path d="m13.5 51 2 2h2l2.5-2.5v-3L18.5 46h-3l-1 1 3.5 3.5v.5h-.5l-2-2Z" style="fill:#ba914d;stroke:none"/>
        <path d="m13.5 51 2-2 2 2h1l.5.5-1.5 1.5h-2Z" style="stroke:none"/>
        <path d="m14.5 47 1-1h3l1.5 1.5v3l-1 1-.5-.5H18v-.5ZM16 34.5l1.5-1.5h4l1 1h1l1 1h1l1 1h1l4.5 4.5v1l2 2v2L32.5 47H32v-1.5L30.5 44H28v-.5L24.5 40h-2l-1-1H20v-.5Z" style="fill:#dab560;stroke:none"/>
        <path d="m18.5 22-1-1h2l1 1Zm.5 16.5-1-1 .5-.5.5.5ZM22 23h-.5l-.5-.5V22h.5l.5.5Zm2 1h-.5l-.5-.5V23h.5l.5.5Z" style="fill:#ba914d;stroke:none"/>
        <path d="m25.5 17 2.5-2.5 1 1v1l6 6v1l2.5 2.5h4l4.5 4.5v1l1 1v1l.5.5-1 1-2-2h-2l-3-3h-1l-1-1h-1l-1-1H34v-.5l-2-2v-1L27.5 20l.5-.5Z" style="stroke:none"/>
        <path d="m27 26.5-1-1 .5-.5.5.5ZM28 44h-.5l-.5-.5.5-.5.5.5Z" style="fill:#ba914d;stroke:none"/>
        <path d="M28.5 28 26 25.5l.5-.5 2.5 2.5ZM31 45.5l-1-1V44h.5l.5.5ZM32 30h-.5l-.5-.5.5-.5.5.5Z" style="fill:#ba914d;stroke:none"/>
        <path d="M35 8.5v2l6 6v2l1 1v1l5 5v1l3 3 1.5-1.5h1l3.5-3.5v-5l-4-4v-1l-1-1v-2l-2-2-2 2v2l-2 2-3-3v-1l-1-1v-1l-1-1v-1l-2-2Z" style="fill:#dab560;stroke:none"/>
        <path d="m34.5 41 3 3h2l1-1 .5.5 1-1v-1l1.5-1.5-3-3h-3L36 38.5l.5.5Zm.5 9.5 2.5 2.5h3l2-2-3-3h-3l-.5.5v1Zm0-40v-2l3-3 2 2v1l1 1v1l1 1v1l3 3 2-2v-2l2-2 2 2v2l1 1v1l4 4v5L52.5 28h-1L50 29.5l-3-3v-1l-5-5v-1l-1-1v-2Z" style="fill:#ba914d;stroke:none"/>
        <path d="m34.5 41 2-2 4 4-1 1h-2Z" style="stroke:none"/>
        <path d="m35 50.5 1-1v-1l.5-.5h3l3 3-2 2h-3Zm2-11-1-1 1.5-1.5h3l3 3-1.5 1.5v1l-1 1-2.5-2.5.5-.5-1.5-1.5Z" style="fill:#dab560;stroke:none"/>
        <path d="m38 40.5-1-1 .5-.5.5.5ZM39.5 26l1.5-1.5 6 6v2l-1-1v-1L41.5 26Zm4 22 3 3h3l1-1h1l3-3-1.5-1.5v-3l-.5-.5h-1l-1-1h-2L46 43.5v1l.5.5Z" style="fill:#ba914d;stroke:none"/>
        <path d="m43.5 48 3-3 1 1-.5.5 1.5 1.5h1l1 1h1l.5.5-.5.5h-1l-1 1h-3Z" style="stroke:none"/>
        <path d="M46 44.5v-1l2.5-2.5h2l1 1h1l.5.5v3l1.5 1.5-2.5 2.5-.5-.5H51v-.5L49.5 47h-1Z" style="fill:#dab560;stroke:none"/>
        <path d="m48 47.5-1-1 .5-.5.5.5Z" style="fill:#ba914d;stroke:none"/>
        <path d="m50 48.5-.5-.5h-1L47 46.5l.5-.5 1 1h1l.5.5Z" style="fill:#ba914d;stroke:none"/>
    </g>
</svg>
