<svg xmlns="http://www.w3.org/2000/svg" width="32" height="32" style="fill-opacity:1;color-rendering:auto;color-interpolation:auto;text-rendering:auto;stroke:#000;stroke-linecap:square;stroke-miterlimit:10;shape-rendering:auto;stroke-opacity:1;fill:#000;stroke-dasharray:none;font-weight:400;stroke-width:1;font-family:&quot;Dialog&quot;;font-style:normal;stroke-linejoin:miter;font-size:12px;stroke-dashoffset:0;image-rendering:auto">
    <g style="stroke-linecap:round;fill:#ba914d;stroke:#ba914d">
        <path stroke="none" d="M.5 4V.5H2L4.5 3h1l1 1h3L11 5.5V6H9.5l-1 1h-4l-2-2h-1Z" style="stroke:none"/>
    </g>
    <g stroke="none" style="stroke-linecap:round;fill:#925e46;stroke:#925e46">
        <path d="M1.5 5h1l2 2h4l1-1H11v2.5l1 1v1l1.5 1.5-.5.5 2.5 2.5-.5.5.5.5h.5v1.5l2.5 2.5.5-.5 1.5 1.5h2l1.5-1.5 1.5 1.5h.5v2.5L23.5 26l2.5 2.5v1l2 2H.5V4Z" style="stroke:none"/>
        <path d="M2 .5h29.5V28L28 24.5v-1l-2-2v-1L24.5 19l2.5-2.5v-1l1-1v-3l-1-1v-1L21.5 4h-2l-1 1h-1L16 6.5v2l4 4v1l1 1v1l2 2v2L21.5 21h-1l-2-2-.5.5-1.5-1.5.5-.5-.5-.5H16v-1.5L13.5 13l.5-.5-2-2v-1l-1-1v-3L9.5 4h-3l-1-1h-1Z" style="fill:#dab560;stroke:none"/>
        <path d="M3 17.5v4L4.5 23h4l1 1h1l1 1h1l2.5 2.5 2.5-2.5-4.5-4.5v-1l-3-3v-1l-3-3-3 3v1Z" style="stroke:none"/>
        <path d="M3 21.5v-4l1-1v-1l3-3 3 3v1l3 3v1l4.5 4.5-2.5 2.5-2.5-2.5h-1l-1-1h-1l-1-1h-4ZM13.5 13l-.5-.5.5-.5.5.5Zm2.5 3h-.5l-.5-.5.5-.5.5.5Zm0-7.5v-2L17.5 5h1l1-1h2L27 9.5v1l1 1v3l-1 1v1L24.5 19l1.5 1.5v.5h-.5L24 19.5 22.5 21h-1l1.5-1.5v-2l-2-2v-1l-1-1v-1Zm.5 9.5-.5-.5V17h.5l.5.5Zm2 2-.5-.5.5-.5.5.5Zm5 6 2.5-2.5v-2l2 2v1l3.5 3.5v3.5H28l-2-2v-1Z" style="fill:#ba914d;stroke:none"/>
    </g>
</svg>
