<svg xmlns="http://www.w3.org/2000/svg" width="32" height="32" style="fill-opacity:1;color-rendering:auto;color-interpolation:auto;text-rendering:auto;stroke:#000;stroke-linecap:square;stroke-miterlimit:10;shape-rendering:auto;stroke-opacity:1;fill:#000;stroke-dasharray:none;font-weight:400;stroke-width:1;font-family:&quot;Dialog&quot;;font-style:normal;stroke-linejoin:miter;font-size:12px;stroke-dashoffset:0;image-rendering:auto">
    <g style="stroke-linecap:round;fill:#ba914d;stroke:#ba914d">
        <path stroke="none" d="M.5 1V.5H12l1 1v5l-1 1v2l-2 2v1L8.5 14h-2l-1-1h-1L3 11.5v-2L5.5 7 4 5.5v-1Z" style="stroke:none"/>
    </g>
    <g stroke="none" style="stroke-linecap:round;fill:#925e46;stroke:#925e46">
        <path d="M4 4.5v1L5.5 7 3 9.5v2L4.5 13h1l1 1h2l1.5-1.5v-1l2-2v-2l1-1v-5l-1-1h19.5V22L29 24.5v5l2 2H10L7.5 29h-1l-1-1h-1L2 25.5v-2L.5 22V1Z" style="stroke:none"/>
        <path d="M2 23.5v2L4.5 28h1l1 1h1l2.5 2.5H.5V22Zm27 6v-5l2.5-2.5v9.5H31Z" style="fill:#ba914d;stroke:none"/>
    </g>
</svg>
