<svg xmlns="http://www.w3.org/2000/svg" width="32" height="32" style="fill-opacity:1;color-rendering:auto;color-interpolation:auto;text-rendering:auto;stroke:#000;stroke-linecap:square;stroke-miterlimit:10;shape-rendering:auto;stroke-opacity:1;fill:#000;stroke-dasharray:none;font-weight:400;stroke-width:1;font-family:&quot;Dialog&quot;;font-style:normal;stroke-linejoin:miter;font-size:12px;stroke-dashoffset:0;image-rendering:auto">
    <g style="stroke-linecap:round;fill:#ba914d;stroke:#ba914d">
        <path stroke="none" d="M.5 1V.5H3l4 4v4l1 1v.5H6.5L6 9.5v-1l-1-1v-1l-2-2v-1Z" style="stroke:none"/>
    </g>
    <g stroke="none" style="stroke-linecap:round;fill:#925e46;stroke:#925e46">
        <path d="M3 3.5v1l2 2v1l1 1v1l.5.5H8v2.5l1 1v1l1.5 1.5h1l1 1h1l1.5 1.5 2-2 1 1v1l1 1v1l1 1v1l2.5 2.5H24v1.5l1.5 1.5h2l3.5 3.5H.5V1Z" style="stroke:none"/>
        <path d="M3 .5h28.5V28h-1l-2-2h-1l-1-1H23v-.5L20.5 22H20v-2.5l-1-1v-1l-2-2-1.5 1.5h-3l-1-1h-1L9 14.5v-3l-1-1v-1l-1-1v-4Z" style="fill:#dab560;stroke:none"/>
        <path d="M4 17.5v4l1 1v4l3 3 2-2v-1l3.5-3.5-3-3h-1l-1-1h-1l-.5-.5v-1L5.5 16Z" style="stroke:none"/>
        <path d="M4 21.5v-4L5.5 16 7 17.5v1l.5.5h1l1 1h1l3 3-3.5 3.5v1l-2 2-3-3v-4Zm5-8-1-1v-2l1 1Z" style="fill:#ba914d;stroke:none"/>
        <path d="m11.5 9 2 2h5l5.5 5.5v3l1.5 1.5h2l1.5-1.5v-4l-1-1v-3L24.5 8h-1l-1-1h-1l-1-1h-5l-1 1h-1Z" style="fill:#dab560;stroke:none"/>
        <path d="m11.5 9 2-2h1l1-1h5l1 1h1l1 1h1l3.5 3.5v3l1 1v4L27.5 21h-2L24 19.5v-3L18.5 11h-5Zm3.5 9.5L13.5 17h2l1.5-1.5 2 2v1l1 1v2l-1-1v-1l-1-1v-1l-1-1Zm6 5-1-1V22h.5l.5.5Z" style="fill:#ba914d;stroke:none"/>
        <path d="M23 25h-.5L20 22.5V22h.5l2.5 2.5Zm1 1.5V25h2.5l1 1h1l2 2h1v3.5H31L27.5 28h-2Z" style="fill:#ba914d;stroke:none"/>
    </g>
</svg>
