<svg xmlns="http://www.w3.org/2000/svg" width="32" height="32" style="fill-opacity:1;color-rendering:auto;color-interpolation:auto;text-rendering:auto;stroke:#000;stroke-linecap:square;stroke-miterlimit:10;shape-rendering:auto;stroke-opacity:1;fill:#000;stroke-dasharray:none;font-weight:400;stroke-width:1;font-family:&quot;Dialog&quot;;font-style:normal;stroke-linejoin:miter;font-size:12px;stroke-dashoffset:0;image-rendering:auto">
    <g style="stroke-linecap:round;fill:#925e46;stroke:#925e46">
        <path stroke="none" d="M4.5 4h1L8 6.5 10.5 4h1l1-1h1L15 1.5l2 2 2-2-1-1h13.5V10l-2-2-2.5 2.5v2l1 1v5l-1 1v3l-1 1v1L24.5 26l2 2h2l3 3v.5H17L13.5 28h-2l-1-1h-1L4 21.5v-1l-1-1v-6L.5 11V.5H1Z" style="stroke:none"/>
    </g>
    <g stroke="none" style="stroke-linecap:round;fill:#623c35;stroke:#623c35">
        <path d="M3 13.5v6l1 1v1L9.5 27h1l1 1h2l3.5 3.5H.5V11ZM1 .5h17l1 1-2 2-2-2L13.5 3h-1l-1 1h-1L8 6.5 5.5 4h-1Z" style="stroke:none"/>
        <path d="M7 13.5v6l3.5 3.5h1l1 1h2l1 1h4l2-2h1l.5-.5v-2l1-1v-9l-1-1v-1L21.5 7h-1l-1-1h-3l-1 1h-2Z" style="fill:#925e46;stroke:none"/>
        <path d="M7 13.5 13.5 7h2l1-1h3l1 1h1L23 8.5v1l1 1v9l-1 1-2-2v-1l-2-2v-1l-.5-.5h-1l-1-1h-2l-1 1h-2l-1 1h-2Z" style="fill:#421d1d;stroke:none"/>
        <path d="M8.5 15h2l1-1h2l1-1h2l1 1h1l.5.5v1l2 2v1l2 2v2l-.5.5h-1l-2 2h-4l-1-1h-2l-1-1h-1L7 19.5v-6Zm16 11 1.5-1.5v-1l1-1v-3l1-1v-5l-1-1v-2L29.5 8l2 2v21l-3-3h-2Z" style="stroke:none"/>
    </g>
</svg>
