<svg xmlns="http://www.w3.org/2000/svg" width="32" height="32" style="fill-opacity:1;color-rendering:auto;color-interpolation:auto;text-rendering:auto;stroke:#000;stroke-linecap:square;stroke-miterlimit:10;shape-rendering:auto;stroke-opacity:1;fill:#000;stroke-dasharray:none;font-weight:400;stroke-width:1;font-family:&quot;Dialog&quot;;font-style:normal;stroke-linejoin:miter;font-size:12px;stroke-dashoffset:0;image-rendering:auto">
    <g style="stroke-linecap:round;fill:#925e46;stroke:#925e46">
        <path stroke="none" d="M2.5 2h1l2 2h1l4 4h2l3.5 3.5v2l1 1v2l1 1v3l2 2v1l1.5 1.5h1l1 1h2l1 1h1l4 4v.5H17v-1l-2-2v-1l-4-4v-4l-1-1v-1l-2-2v-1L6.5 13h-1l-1-1h-1l-1-1h-2V.5H1Z" style="stroke:none"/>
    </g>
    <g stroke="none" style="stroke-linecap:round;fill:#623c35;stroke:#623c35">
        <path d="M1 .5h17L19.5 2h1l1 1h2l1 1h1l6 6v21l-4-4h-1l-1-1h-2l-1-1h-1L20 23.5v-1l-2-2v-3l-1-1v-2l-1-1v-2L12.5 8h-2l-4-4h-1l-2-2h-1ZM3.5 12h1l1 1h1L8 14.5v1l2 2v1l1 1v4l4 4v1l2 2v1H.5V11h2Z" style="stroke:none"/>
        <path d="M18 .5h13.5V10l-6-6h-1l-1-1h-2l-1-1h-1Z" style="fill:#925e46;stroke:none"/>
        <path d="M21 13.5v4l1 1v1l2.5 2.5h4l1.5-1.5v-2l-3-3v-2L25.5 12h-3Z" style="stroke:none"/>
        <path d="M21 17.5v-4l1.5-1.5h3l1.5 1.5v2l3 3v2L28.5 22h-4L22 19.5v-1Z" style="fill:#925e46;stroke:none"/>
    </g>
</svg>
