<svg xmlns="http://www.w3.org/2000/svg" width="96" height="96" style="fill-opacity:1;color-rendering:auto;color-interpolation:auto;text-rendering:auto;stroke:#000;stroke-linecap:square;stroke-miterlimit:10;shape-rendering:auto;stroke-opacity:1;fill:#000;stroke-dasharray:none;font-weight:400;stroke-width:1;font-family:&quot;Dialog&quot;;font-style:normal;stroke-linejoin:miter;font-size:12px;stroke-dashoffset:0;image-rendering:auto">
    <g style="stroke-linecap:round;fill:#623c35;stroke:#623c35">
        <path stroke="none" d="M2 65.5v-7l1-1v-13l1-1v-2l1-1v-1l1-1v-1l2-2v-5l-1-1v-1l-2-2v-4l5-5v-7L13.5 7h2L17 8.5 20.5 5h1L23 3.5 24.5 5h1l1 1h2l1-1h2l1-1h1l1-1h2l1-1h2l1-1h5l1 1h2l1 1h1l1 1h4l1 1h2l1 1h6l1-1h3l2-2h6l1 1h1l2 2h2l2 2h1l1 1h1l1.5 1.5v1l1 1v1l3 3v1l1 1v5l-2 2v2l-1 1v4l1 1v11l1 1v1l1 1v3l-1 1v1l-1 1v5l-1 1v3l-1 1v2l-1 1v2l1 1v1l1 1v3l-2 2v3l2 2v4L90.5 87h-2l-1 1h-3l-1 1h-1l-3 3h-6l-1 1h-3l-1 1-1-1h-2l-.5.5v1l-.5.5h-5l-1-1h-1l-1-1h-6l-1-1h-10l-1 1h-2l-2 2h-10l-2-2h-5L13 88.5v-1l-1-1v-1l-.5-.5h-2L7 82.5v-3l-1-1v-2l-1-1v-7Z" style="stroke:none"/>
    </g>
    <g stroke="none" style="stroke-linecap:round;fill:#623c35;stroke:#623c35">
        <path d="M7 44.5v11l1 1v3l1 1v3l1 1v2l2 2v5l-1 1v3l1.5 1.5h1l3.5 3.5v2l1 1v2l1.5 1.5h2l1-1h1l1-1h2l.5.5v1l2 2 3.5-3.5h5l1-1h4l2 2h5l1 1h4l4 4h3l6-6h4l1 1h5l2-2-1.5-1.5v-2l-2-2v-1l-1-1v-2l-4-4v-1l-1-1v-1l-1-1v-2l2.5 2.5h1l1.5 1.5 3-3v-1l1-1v-1l1-1v-3l1-1v-3l1-1v-5l-1-1v-4l-1-1v-1l-1-1v-4l-1-1v-2l-1-1v-1l-5-5v-1l-1-1v-1l-.5-.5h-1l-1-1h-1l-1-1h-1l-3-3h-1l-1-1h-5l-1-1h-13l-1 1h-5L32 21.5v4l-3 3v2l1 1v1l2 2v6l.5.5-1 1-1.5-1.5v-1l-1-1v-3l-1-1v-1L26.5 32H24v-3.5l-.5-.5h-1l-3-3h-3l-4-4h-2L9 22.5v4l2 2v1l1 1v5l-2 2v1l-1 1v1l-1 1v2Z" style="stroke:none"/>
        <path d="M7 55.5v-11l1-1v-2l1-1v-1l1-1v-1l2-2v-5l-1-1v-1l-2-2v-4l1.5-1.5h2l4 4h3l3 3h1l.5.5v5l-1 1v3l-3 3v-3l-.5-.5-5.5 5.5v1l-1 1v1l-1 1v2l1 1v3l2 2v1l1 1v3l-1 1v3l1 1v2l1 1v4l.5.5h1l.5.5v1l1 1v1l2.5 2.5h1l1 1h7l1 1h4l1-1h3l2 2h1l1 1h3l2-2h3l1 1h4l1-1h2l1-1h3l3-3h1l3-3 3.5 3.5v2l1 1v1l2 2v2l1.5 1.5-2 2h-5l-1-1h-4l-6 6h-3l-4-4h-4l-1-1h-5l-2-2h-4l-1 1h-5L29 90.5l-2-2v-1l-.5-.5h-2l-1 1h-1l-1 1h-2L18 87.5v-2l-1-1v-2L13.5 79h-1L11 77.5v-3l1-1v-5l-2-2v-2l-1-1v-3l-1-1v-3Z" style="fill:#421d1d;stroke:none"/>
        <path d="M12 48.5v-2l1-1v-1l1-1v-1l5.5-5.5.5.5v5l-2 2v4l-1 1v4l-1 1v2l-1-1v-1l-2-2v-3Zm5 13v3l1.5 1.5h2l1 1h2l2.5 2.5v4l1.5 1.5h1l3 3h2l1 1h3l-1 1h-4l-1-1h-7l-1-1h-1L20 75.5v-1l-1-1v-1l-.5-.5h-1l-.5-.5v-4l-1-1v-2l-1-1v-3l.5-.5Z" style="stroke:none"/>
        <path d="m15.5 60 .5-.5v-5l1-1v-4l1-1v-4l2-2v-2l3-3v-3l1-1V32h2.5l1.5 1.5v1l1 1v3l1 1v1l1.5 1.5-.5.5v1L27.5 47h-1l-1 1h-1L23 49.5v2l-1 1v3l2 2v3l5 5v2l1.5 1.5h1l4 4h1l1 1h16l1-1h2l1-1h5l1-1h1l3-3H69v.5l1 1v1l1 1v1l.5.5-3 3h-1l-3 3h-3l-1 1h-2l-1 1h-2l-1-1h-1l-1-1h-10l-1-1h-2l-1 1h-4l-1-1h-2l-3-3h-1L26 73.5v-4L23.5 67h-2l-1-1h-2L17 64.5v-3Z" style="fill:#925e46;stroke:none"/>
        <path d="M19 16.5v6l5.5 5.5.5-.5v-2l1-1v-1l1-1v-1l1.5-1.5h2l2-2h1l1-1h4l2-2h2l2-2h4l1 1h4l1 1h2l2 2h1l1 1h1l1 1h3l1 1h5l3 3h1l1.5 1.5v1l1 1v3l1 1v2l1 1v2l.5.5h1l.5.5v1l1 1v6l1 1v6l-1 1v3l-1 1v5l1 1v2L79.5 68h-1l-.5.5v1L76.5 71h-1l-1 1 2.5 2.5v2l2.5 2.5h3l1-1h2l.5-.5v-1l2-2v-3l-1-1v-1l-1-1v-2l1-1v-2l1-1v-3l1-1v-8l-1-1v-3l-1-1v-4l1-1v-3l1-1v-3l-2-2v-1l-1-1v-1l-2-2v-1l-2-2v-2l-1-1v-6l-.5-.5h-1l-2-2h-5l-1 1h-1l-1 1h-3L65 12.5v-1L63.5 10h-4l-1-1h-2l-1-1h-3l-1 1h-4l-1-1h-1L42 4.5 37.5 9h-1l-1 1h-2l-1 1h-4l-1-1h-1l-1-1h-1L23 7.5l-3 3v5Z" style="stroke:none"/>
        <path d="M19 22.5v-6l1-1v-5l3-3L24.5 9h1l1 1h1l1 1h4l1-1h2l1-1h1L42 4.5 45.5 8h1l1 1h4l1-1h3l1 1h2l1 1h4l1.5 1.5v1l1.5 1.5h3l1-1h1l1-1h5l2 2h1l.5.5v6l1 1v2l2 2v1l2 2v1l1 1v1l2 2v3l-1 1v3l-1 1v4l1 1v3l1 1v8l-1 1v3l-1 1v2l-1 1v2l1 1v1l1 1v3l-2 2v1l-.5.5h-2l-1 1h-3L77 76.5v-2L74.5 72l1-1h1l1.5-1.5v-1l.5-.5h1l3.5-3.5v-2l-1-1v-5l1-1v-3l1-1v-6l-1-1v-6l-1-1v-1l-.5-.5h-1l-.5-.5v-2l-1-1v-2l-1-1v-3l-1-1v-1L75.5 23h-1l-3-3h-5l-1-1h-3l-1-1h-1l-1-1h-1l-2-2h-2l-1-1h-4l-1-1h-4l-2 2h-2l-2 2h-4l-1 1h-1l-2 2h-2L27 21.5v1l-1 1v1l-1 1v2l-.5.5Z" style="fill:#925e46;stroke:none"/>
        <path d="M22 55.5v-3l1-1v-2l1.5-1.5h1l1-1h1l3.5-3.5v-1l2-2v-1l1-1v-8l1-1v-2l2.5-2.5h3l1-1h3l1-1h2l1-1h3l1 1h2l1 1h2l1 1h3l1.5 1.5v1l4 4v3l3.5 3.5h1l1.5 1.5v1l1 1v4l1 1v10l-1 1v1l-1 1v2l-1 1v1l-3 3V68h-1.5l-3 3h-1l-1 1h-5l-1 1h-2l-1 1h-16l-1-1h-1l-4-4h-1L29 67.5v-2l-5-5v-3Z" style="fill:#2b0909;stroke:none"/>
        <path d="M29 30.5v-2l3-3v-4l2.5-2.5h5l1-1h13l1 1h5l1 1h1l3 3h1l1 1h1l1 1h1l.5.5v1l1 1v1l5 5v1l1 1v2l1 1v4l1 1v1l1 1v4l1 1v5l-1 1v3l-1 1v3l-1 1v1l-1 1v1l-3 3-1.5-1.5h-1L69 66.5l3-3v-1l1-1v-2l1-1v-1l1-1v-10l-1-1v-4l-1-1v-1L71.5 38h-1L67 34.5v-3l-4-4v-1L61.5 25h-3l-1-1h-2l-1-1h-2l-1-1h-3l-1 1h-2l-1 1h-3l-1 1h-3L35 27.5v2l-1 1v8l-1 1v1l-.5.5-.5-.5v-6l-2-2v-1Z" style="fill:#421d1d;stroke:none"/>
        <path d="m38.5 79 1-1h2l1 1h10l1 1h1l1 1h-2l-1-1h-3l-2 2h-3l-1-1h-1l-2-2Z" style="stroke:none"/>
    </g>
</svg>
