<svg xmlns="http://www.w3.org/2000/svg" width="32" height="32" style="fill-opacity:1;color-rendering:auto;color-interpolation:auto;text-rendering:auto;stroke:#000;stroke-linecap:square;stroke-miterlimit:10;shape-rendering:auto;stroke-opacity:1;fill:#000;stroke-dasharray:none;font-weight:400;stroke-width:1;font-family:&quot;Dialog&quot;;font-style:normal;stroke-linejoin:miter;font-size:12px;stroke-dashoffset:0;image-rendering:auto">
    <g style="stroke-linecap:round;fill:#623c35;stroke:#623c35">
        <path stroke="none" d="M.5 1V.5H18l3 3v2L24.5 9h1l1 1h4l1 1v20.5H30L27.5 29h-1L25 27.5v-1l-1-1v-1l-1-1v-2l-1-1v-3l-1-1v-3l-1-1v-1L18.5 10h-2l-2-2h-4l-4-4h-1l-2-2h-2Z" style="stroke:none"/>
    </g>
    <g stroke="none" style="stroke-linecap:round;fill:#925e46;stroke:#925e46">
        <path d="M1.5 2h2l2 2h1l4 4h4l2 2h2l1.5 1.5v1l1 1v3l1 1v3l1 1v2l1 1v1l1 1v1l1.5 1.5h1l2.5 2.5H17v-1l-1-1v-2l1-1v-2l-1-1v-3l-1-1v-1L9.5 13h-4l-1-1h-1l-1-1h-2V1Z" style="stroke:none"/>
        <path d="M3.5 12h1l1 1h4l5.5 5.5v1l1 1v3l1 1v2l-1 1v2l1 1v1H.5V11h2Z" style="fill:#623c35;stroke:none"/>
        <path d="M18 .5h13l.5.5v10l-1-1h-4l-1-1h-1L21 5.5v-2Z" style="stroke:none"/>
    </g>
</svg>
