<svg xmlns="http://www.w3.org/2000/svg" width="32" height="32" style="fill-opacity:1;color-rendering:auto;color-interpolation:auto;text-rendering:auto;stroke:#000;stroke-linecap:square;stroke-miterlimit:10;shape-rendering:auto;stroke-opacity:1;fill:#000;stroke-dasharray:none;font-weight:400;stroke-width:1;font-family:&quot;Dialog&quot;;font-style:normal;stroke-linejoin:miter;font-size:12px;stroke-dashoffset:0;image-rendering:auto">
    <g style="stroke-linecap:round;fill:#623c35;stroke:#623c35">
        <path stroke="none" d="M.5 1V.5H18L23.5 6h1l1 1h1l3 3h1l1 1v20.5H30L27.5 29l3.5-3.5v-11L28.5 12h-1l-1-1h-1l-1-1h-5L12 17.5v2l-1 1v3l1 1v1l1 1v2l2.5 2.5h1l.5.5H.5V11l2 2h2l1-1h1L9 9.5v-3L6.5 4h-1l-2-2h-2Z" style="stroke:none"/>
    </g>
    <g stroke="none" style="stroke-linecap:round;fill:#925e46;stroke:#925e46">
        <path d="M1.5 2h2l2 2h1L9 6.5v3L6.5 12h-1l-1 1h-2l-2-2V1Z" style="stroke:none"/>
        <path d="M2 18.5v4l4 4 2-2v-4l-1-1v-1l-.5-.5h-1L4 16.5Z" style="fill:#623c35;stroke:none"/>
        <path d="M2 22.5v-4l2-2L5.5 18h1l.5.5v1l1 1v4l-2 2Zm9 1v-3l1-1v-2l7.5-7.5h5l1 1h1l1 1h1l2.5 2.5v11L27.5 29l2.5 2.5H17l-.5-.5h-1L13 28.5v-2l-1-1v-1Z" style="stroke:none"/>
        <path d="M16 19.5v2l1 1v1l2.5 2.5h2l1 1h2l3.5-3.5v-7L25.5 14h-1l-1-1h-3L18 15.5v1l-1 1v1Z" style="stroke:none"/>
        <path d="M16 21.5v-2l1-1v-1l1-1V16h2.5l2 2h1l1.5 1.5v1l2 2v1l.5.5-3 3h-2l-1-1h-2L17 23.5v-1Z" style="fill:#623c35;stroke:none"/>
        <path d="M18 .5h13l.5.5v10l-1-1h-1l-3-3h-1l-1-1h-1Z" style="stroke:none"/>
        <path d="M18 16v-.5l2.5-2.5h3l1 1h1l2.5 2.5v7l-.5.5-.5-.5v-1l-2-2v-1L23.5 18h-1l-2-2Z" style="fill:#421d1d;stroke:none"/>
    </g>
</svg>
