<svg xmlns="http://www.w3.org/2000/svg" width="32" height="32" style="fill-opacity:1;color-rendering:auto;color-interpolation:auto;text-rendering:auto;stroke:#000;stroke-linecap:square;stroke-miterlimit:10;shape-rendering:auto;stroke-opacity:1;fill:#000;stroke-dasharray:none;font-weight:400;stroke-width:1;font-family:&quot;Dialog&quot;;font-style:normal;stroke-linejoin:miter;font-size:12px;stroke-dashoffset:0;image-rendering:auto">
    <g style="stroke-linecap:round;fill:#623c35;stroke:#623c35">
        <path stroke="none" d="M.5 1V.5H18L23.5 6h1l1 1h1l3 3h1l1 1v20.5H30L27.5 29h-3L23 27.5v-1l-1-1v-1l-1-1v-3l-1-1v-1L17.5 16h-3L12 18.5v1l-1 1v3l1 1v1l1 1v2l2.5 2.5h1l.5.5H.5V11h4l4-4L7 5.5v-1L6.5 4h-1l-2-2h-2Z" style="stroke:none"/>
    </g>
    <g style="stroke-linecap:round;fill:#925e46;stroke:#925e46">
        <path stroke="none" d="M1.5 2h2l2 2h1l.5.5v1L8.5 7l-4 4h-4V1ZM11 23.5v-3l1-1v-1l2.5-2.5h3l2.5 2.5v1l1 1v3l1 1v1l1 1v1l1.5 1.5h3l2.5 2.5H17l-.5-.5h-1L13 28.5v-2l-1-1v-1Zm7-23h13l.5.5v10l-1-1h-1l-3-3h-1l-1-1h-1Z" style="stroke:none"/>
    </g>
</svg>
