<svg xmlns="http://www.w3.org/2000/svg" width="32" height="32" style="fill-opacity:1;color-rendering:auto;color-interpolation:auto;text-rendering:auto;stroke:#000;stroke-linecap:square;stroke-miterlimit:10;shape-rendering:auto;stroke-opacity:1;fill:#000;stroke-dasharray:none;font-weight:400;stroke-width:1;font-family:&quot;Dialog&quot;;font-style:normal;stroke-linejoin:miter;font-size:12px;stroke-dashoffset:0;image-rendering:auto">
    <g style="stroke-linecap:round;fill:#623c35;stroke:#623c35">
        <path stroke="none" d="M3 5.5v4l1 1v1l4 4L9.5 14h1l1.5-1.5v-1l2-2v-2L9.5 3h-4Z" style="stroke:none"/>
    </g>
    <g stroke="none" style="stroke-linecap:round;fill:#925e46;stroke:#925e46">
        <path d="M3 9.5v-4L5.5 3h4L14 7.5v2l-2 2v1L10.5 14h-1L8 15.5l-4-4v-1Z" style="stroke:none"/>
        <path d="M14 19.5v3l2 2v2l3.5 3.5h2l3.5-3.5v-4l-1-1v-1l-1-1v-1L20.5 16h-3Z" style="fill:#623c35;stroke:none"/>
        <path d="M14 22.5v-3l3.5-3.5h3l2.5 2.5v1l1 1v1l1 1v4L21.5 30h-2L16 26.5v-2Z" style="stroke:none"/>
    </g>
</svg>
