<svg xmlns="http://www.w3.org/2000/svg" width="32" height="32" style="fill-opacity:1;color-rendering:auto;color-interpolation:auto;text-rendering:auto;stroke:#000;stroke-linecap:square;stroke-miterlimit:10;shape-rendering:auto;stroke-opacity:1;fill:#000;stroke-dasharray:none;font-weight:400;stroke-width:1;font-family:&quot;Dialog&quot;;font-style:normal;stroke-linejoin:miter;font-size:12px;stroke-dashoffset:0;image-rendering:auto">
    <g style="stroke-linecap:round;fill:#623c35;stroke:#623c35">
        <path stroke="none" d="M4 10.5v4l1 1v1L6.5 18h1l1 1h2l1.5-1.5v-1l1-1v-3l-1-1v-1L9.5 8h-3Z" style="stroke:none"/>
    </g>
    <g stroke="none" style="stroke-linecap:round;fill:#925e46;stroke:#925e46">
        <path d="M4 14.5v-4L6.5 8h3l2.5 2.5v1l1 1v3l-1 1v1L10.5 19h-2l-1-1h-1L5 16.5v-1Z" style="stroke:none"/>
        <path d="M17 3.5v3l8.5 8.5h3l1.5-1.5v-2l-1-1v-1l-2-2v-1L21.5 1h-2Z" style="fill:#623c35;stroke:none"/>
        <path d="M17 6.5v-3L19.5 1h2L27 6.5v1l2 2v1l1 1v2L28.5 15h-3Z" style="stroke:none"/>
    </g>
</svg>
