<svg xmlns="http://www.w3.org/2000/svg" width="64" height="64" style="fill-opacity:1;color-rendering:auto;color-interpolation:auto;text-rendering:auto;stroke:#000;stroke-linecap:square;stroke-miterlimit:10;shape-rendering:auto;stroke-opacity:1;fill:#000;stroke-dasharray:none;font-weight:400;stroke-width:1;font-family:&quot;Dialog&quot;;font-style:normal;stroke-linejoin:miter;font-size:12px;stroke-dashoffset:0;image-rendering:auto">
    <g style="stroke-linecap:round;fill:#d6dbe7;stroke:#d6dbe7">
        <path stroke="none" d="M.5 3V.5H3l3 3v1L7.5 6h1L10 7.5v1l1.5 1.5h1l1 1h1l1 1h3l2 2-1.5 1.5v1l-.5.5h-1l-1 1h-1L14 19.5v1l-1 1v1L11.5 24l1.5 1.5v1l.5.5h1l1 1h3l2 2-1.5 1.5v1l-.5.5h-1l-1 1h-1l-1 1h-1l-1 1h-2l-.5.5v1L8.5 39l3 3h1l1.5 1.5v1l1.5 1.5h1l1 1h1l1.5 1.5 1.5-1.5h1l.5-.5v-1l.5-.5h1l1.5-1.5 1.5 1.5h1l.5.5v1l1 1v1l1.5 1.5h1l1 1h1l1 1h7l1-1h1l2.5-2.5v-2L40.5 40h-3L36 38.5v-1l-1-1-1.5 1.5h-1L30 40.5 27.5 38l2-2h1l.5-.5v-2L29.5 32h-4l-2-2 2-2h3l1-1h1l.5-.5v-1l1-1v-1l3-3v-1l2.5-2.5h1l1-1h1l3.5-3.5v-3l2-2L47.5 9h1l.5.5v1l1 1v1l1.5 1.5h1l1.5 1.5v1l1 1v1l1 1v3l-1 1v1l-.5.5h-1l-.5.5v1l-1 1v7l-2 2-2-2v-7l-1-1v-1l-.5-.5h-1l-.5-.5v-1l-1-1v-1l-.5-.5h-3L38 23.5v1l-1 1v1l-.5.5h-1l-1 1h-1l-2 2 2 2h1l1 1h1l.5.5v1l.5.5h1l1 1h3l1.5 1.5v1l2.5 2.5h1l6 6h1l1 1h1l1 1h1l.5.5v1l1 1v5l1 1v1l2 2v1l.5.5v1.5H62l-.5-.5h-1L58 60.5v-1L56.5 58h-1l-1-1h-1l-1-1h-1l-1-1h-1l-.5-.5v-1L47.5 52h-2l-3 3h-1l-1 1h-5l-1-1h-1l-.5-.5v-1l-.5-.5h-1L30 51.5l-2 2v1l-2 2-1.5-1.5h-1l-.5-.5v-1l-.5-.5h-1l-1-1h-1l-1-1h-1l-1-1h-1l-1-1h-1l-1-1h-1l-1-1h-1l-1-1h-1l-1-1h-1l-.5-.5v-1L3.5 42 8 37.5v-2l1-1v-1l.5-.5h1l.5-.5v-1l1.5-1.5-1.5-1.5v-1l-.5-.5h-1l-.5-.5v-1l-1-1v-1l-1-1v-1l-.5-.5h-1l-.5-.5v-1L3.5 18 5 16.5v-1l.5-.5h1l.5-.5v-1L8.5 12 7 10.5v-1l-1-1v-1L4.5 6h-1Z" style="stroke:none"/>
    </g>
    <g stroke="none" style="stroke-linecap:round;fill:#aeb4c4;stroke:#aeb4c4">
        <path d="M3.5 6h1L6 7.5v1l1 1v1L8.5 12 7 13.5v1l-.5.5h-1l-.5.5v1L3.5 18 5 19.5v1l.5.5h1l.5.5v1l1 1v1l1 1v1l.5.5h1l.5.5v1l1.5 1.5-1.5 1.5v1l-.5.5h-1l-.5.5v1l-1 1v2L3.5 42 5 43.5v1l.5.5h1l1 1h1l1 1h1l1 1h1l1 1h1l1 1h1l1 1h1l1 1h1l1 1h1l.5.5v1l.5.5h1l1.5 1.5 2-2v-1l2-2 1.5 1.5h1l.5.5v1l.5.5h1l1 1h5l1-1h1l3-3h2l1.5 1.5v1l.5.5h1l1 1h1l1 1h1l1 1h1l1.5 1.5v1l2.5 2.5h1l.5.5H.5V3Z" style="stroke:none"/>
        <path d="M3 .5h60.5V62l-.5-.5v-1l-2-2v-1l-1-1v-5l-1-1v-1l-.5-.5h-1l-1-1h-1l-1-1h-1l-6-6h-1L44 38.5v-1L42.5 36h-3l-1-1h-1l-.5-.5v-1l-.5-.5h-1l-1-1h-1l-2-2 2-2h1l1-1h1l.5-.5v-1l1-1v-1l2.5-2.5h3l.5.5v1l1 1v1l.5.5h1l.5.5v1l1 1v7l2 2 2-2v-7l1-1v-1l.5-.5h1l.5-.5v-1l1-1v-3l-1-1v-1l-1-1v-1L52.5 14h-1L50 12.5v-1l-1-1v-1l-.5-.5h-1L46 7.5l-2 2v3L40.5 16h-1l-1 1h-1L35 19.5v1l-3 3v1l-1 1v1l-.5.5h-1l-1 1h-3l-2 2 2 2h4l1.5 1.5v2l-.5.5h-1l-2 2 2.5 2.5 2.5-2.5h1l1.5-1.5 1 1v1l1.5 1.5h3l6.5 6.5v2L44.5 51h-1l-1 1h-7l-1-1h-1l-1-1h-1L30 48.5v-1l-1-1v-1l-.5-.5h-1L26 43.5 24.5 45h-1l-.5.5v1l-.5.5h-1L20 48.5 18.5 47h-1l-1-1h-1L14 44.5v-1L12.5 42h-1l-3-3 1.5-1.5v-1l.5-.5h2l1-1h1l1-1h1l1-1h1l.5-.5v-1l1.5-1.5-2-2h-3l-1-1h-1l-.5-.5v-1L11.5 24l1.5-1.5v-1l1-1v-1l1.5-1.5h1l1-1h1l.5-.5v-1l1.5-1.5-2-2h-3l-1-1h-1l-1-1h-1L10 8.5v-1L8.5 6h-1L6 4.5v-1Z" style="fill:#fff;stroke:none"/>
        <path d="M28 13.5v5l1 1v1l1.5 1.5.5-.5v-1l1-1v-6l-2-2Z" style="fill:#fff;stroke:none"/>
        <path d="M28 18.5v-5l2-2 2 2v6l-1 1v1l-.5.5-1.5-1.5v-1ZM43.5 17l4.5 4.5v1l2 2 2.5-2.5-1.5-1.5v-1l-.5-.5h-1l-.5-.5v-1l-.5-.5h-1l-.5-.5v-1l-1-1Z" style="fill:#d6dbe7;stroke:none"/>
        <path d="m43.5 17 2.5-2.5 1 1v1l.5.5h1l.5.5v1l.5.5h1l.5.5v1l1.5 1.5-2.5 2.5-2-2v-1Z" style="fill:#fff;stroke:none"/>
    </g>
</svg>
