<svg xmlns="http://www.w3.org/2000/svg" width="32" height="32" style="fill-opacity:1;color-rendering:auto;color-interpolation:auto;text-rendering:auto;stroke:#000;stroke-linecap:square;stroke-miterlimit:10;shape-rendering:auto;stroke-opacity:1;fill:#000;stroke-dasharray:none;font-weight:400;stroke-width:1;font-family:&quot;Dialog&quot;;font-style:normal;stroke-linejoin:miter;font-size:12px;stroke-dashoffset:0;image-rendering:auto">
    <g style="stroke-linecap:round;fill:#d6dbe7;stroke:#d6dbe7">
        <path stroke="none" d="M.5 3V.5H3l7 7v1l1 1v1l1 1v4l-1 1v1l-2 2v1L7.5 22l3 3h5l2-2h1l1-1h1l1-1h1l1.5-1.5 1.5 1.5h1l.5.5v1l1 1v3l3.5 3.5v1.5H31L25.5 26h-1l-1-1h-2l-1 1h-1L18 27.5v1l-3 3h-2l-2-2v-1L8.5 26h-1L6 24.5v-1l-1-1v-1l-1-1v-5l3-3v-1L8.5 10l-4-4h-1Z" style="stroke:none"/>
    </g>
    <g stroke="none" style="stroke-linecap:round;fill:#aeb4c4;stroke:#aeb4c4">
        <path d="M3.5 6h1l4 4L7 11.5v1l-3 3v5l1 1v1l1 1v1L7.5 26h1l2.5 2.5v1l2 2H.5V3Z" style="stroke:none"/>
        <path d="M3 .5h28.5V30L28 26.5v-3l-1-1v-1l-.5-.5h-1L24 19.5 22.5 21h-1l-1 1h-1l-1 1h-1l-2 2h-5l-3-3L9 20.5v-1l2-2v-1l1-1v-4l-1-1v-1l-1-1v-1Z" style="fill:#fff;stroke:none"/>
        <path d="M15.5 6 26 16.5l2.5-2.5-1.5-1.5v-1l-3-3v-1L20.5 4h-3Z" style="fill:#fff;stroke:none"/>
        <path d="m15.5 6 2-2h3L24 7.5v1l3 3v1l1.5 1.5-2.5 2.5Z" style="fill:#d6dbe7;stroke:none"/>
        <path d="M24.5 26h1l5.5 5.5H15l3-3v-1l1.5-1.5h1l1-1h2Z" style="stroke:none"/>
    </g>
</svg>
