<svg xmlns="http://www.w3.org/2000/svg" width="32" height="32" style="fill-opacity:1;color-rendering:auto;color-interpolation:auto;text-rendering:auto;stroke:#000;stroke-linecap:square;stroke-miterlimit:10;shape-rendering:auto;stroke-opacity:1;fill:#000;stroke-dasharray:none;font-weight:400;stroke-width:1;font-family:&quot;Dialog&quot;;font-style:normal;stroke-linejoin:miter;font-size:12px;stroke-dashoffset:0;image-rendering:auto">
    <g style="stroke-linecap:round;fill:#ffe4ca;stroke:#ffe4ca">
        <path stroke="none" d="M.5 4V.5h31V8h-3L24 12.5 22.5 11h-1l-7-7h-5l-1 1h-1l-3 3Z" style="stroke:none"/>
    </g>
    <g stroke="none" style="stroke-linecap:round;fill:#d3ae8d;stroke:#d3ae8d">
        <path d="m4.5 8-.5.5L15.5 20h9l3.5 3.5v.5h-1.5L24 26.5l1 1v1l3 3H16l3-3v-1l1.5-1.5-2-2h-5l-1-1h-1L9 20.5v-1l-1-1v-1l-2-2-2 2v3l1 1v1l1 1v1L7.5 26h1l1.5 1.5v1l1 1v1l1 1H.5V4Z" style="stroke:none"/>
        <path d="M4 8.5 7.5 5h1l1-1h5l7 7h1l1.5 1.5L28.5 8h3v4l-1 1h-1l-1 1h-1l-2 2h-4l-7-7h-2l-1-1h-3l-2 2 3 3h1l3.5 3.5v1l2 2v.5h-.5Zm0 12v-3l2-2 2 2v1l1 1v1l2.5 2.5h1l1 1h5l2 2-1.5 1.5v1l-3 3h-4l-1-1v-1l-1-1v-1L8.5 26h-1L6 24.5v-1l-1-1v-1Z" style="fill:#f7cba4;stroke:none"/>
        <path d="m6.5 10 2-2h3l1 1h2l7 7h4l2-2h1l1-1h1l1-1v16L28 24.5v-1L24.5 20H16v-.5l-2-2v-1L10.5 13h-1Z" style="fill:#ffe4ca;stroke:none"/>
        <path d="m24 26.5 2.5-2.5H28v.5l3.5 3.5v3.5H28l-3-3v-1Z" style="fill:#f7cba4;stroke:none"/>
    </g>
</svg>
