<svg xmlns="http://www.w3.org/2000/svg" width="32" height="32" style="fill-opacity:1;color-rendering:auto;color-interpolation:auto;text-rendering:auto;stroke:#000;stroke-linecap:square;stroke-miterlimit:10;shape-rendering:auto;stroke-opacity:1;fill:#000;stroke-dasharray:none;font-weight:400;stroke-width:1;font-family:&quot;Dialog&quot;;font-style:normal;stroke-linejoin:miter;font-size:12px;stroke-dashoffset:0;image-rendering:auto">
    <g style="stroke-linecap:round;fill:#d3ae8d;stroke:#d3ae8d">
        <path stroke="none" d="M1 20.5v2L2.5 24h1l1 1h2l3 3h3l2-2-5-5h-1l-1-1h-1l-1-1h-3Z" style="stroke:none"/>
    </g>
    <g stroke="none" style="stroke-linecap:round;fill:#f7cba4;stroke:#f7cba4">
        <path d="M1 22.5v-2L2.5 19h3l1 1h1l1 1h1l5 5-2 2h-3l-3-3h-2l-1-1h-1Z" style="stroke:none"/>
        <path d="M4 10.5v2L5.5 14h1l1 1h1l1 1h1l1 1h7l2-2-2-2h-3l-1-1h-1l-1-1h-1l-1-1h-1l-1-1h-3Z" style="fill:#d3ae8d;stroke:none"/>
        <path d="M4 12.5v-2L5.5 9h3l1 1h1l1 1h1l1 1h1l1 1h3l2 2-2 2h-7l-1-1h-1l-1-1h-1l-1-1h-1Z" style="stroke:none"/>
        <path d="M14 2.5v2L15.5 6h1l1 1h1l1 1h1l1 1h1l1 1h1l1 1h2l1.5 1.5 2-2v-2L28.5 6h-1l-1-1h-1l-1-1h-1l-1-1h-1l-2-2h-4Z" style="fill:#d3ae8d;stroke:none"/>
        <path d="M14 4.5v-2L15.5 1h4l2 2h1l1 1h1l1 1h1l1 1h1L31 8.5v2l-2 2-1.5-1.5h-2l-1-1h-1l-1-1h-1l-1-1h-1l-1-1h-1l-1-1h-1Z" style="stroke:none"/>
    </g>
</svg>
