<svg xmlns="http://www.w3.org/2000/svg" width="32" height="32" style="fill-opacity:1;color-rendering:auto;color-interpolation:auto;text-rendering:auto;stroke:#000;stroke-linecap:square;stroke-miterlimit:10;shape-rendering:auto;stroke-opacity:1;fill:#000;stroke-dasharray:none;font-weight:400;stroke-width:1;font-family:&quot;Dialog&quot;;font-style:normal;stroke-linejoin:miter;font-size:12px;stroke-dashoffset:0;image-rendering:auto">
    <g style="stroke-linecap:round;fill:#d3ae8d;stroke:#d3ae8d">
        <path stroke="none" d="m7.5 6 4 4h1l1 1h1l1 1h1l1 1h1l1 1h1l1 1h1l1 1h3l1.5-1.5v-2L26.5 11h-1l-1-1h-1l-1-1h-1l-1-1h-1l-1-1h-1l-1-1h-1l-1-1h-1l-1-1h-3Z" style="stroke:none"/>
    </g>
    <g stroke="none" style="stroke-linecap:round;fill:#d3ae8d;stroke:#d3ae8d">
        <path d="m7.5 22 4 4h1l1 1h1l1 1h3l1.5-1.5v-2L18.5 23h-1l-1-1h-1l-1-1h-1l-1-1h-3Z" style="stroke:none"/>
        <path d="m7.5 6 2-2h3l1 1h1l1 1h1l1 1h1l1 1h1l1 1h1l1 1h1l1 1h1l1.5 1.5v2L26.5 16h-3l-1-1h-1l-1-1h-1l-1-1h-1l-1-1h-1l-1-1h-1l-1-1h-1Zm0 16 2-2h3l1 1h1l1 1h1l1 1h1l1.5 1.5v2L18.5 28h-3l-1-1h-1l-1-1h-1Z" style="fill:#f7cba4;stroke:none"/>
    </g>
</svg>
