<svg xmlns="http://www.w3.org/2000/svg" width="32" height="32" style="fill-opacity:1;color-rendering:auto;color-interpolation:auto;text-rendering:auto;stroke:#000;stroke-linecap:square;stroke-miterlimit:10;shape-rendering:auto;stroke-opacity:1;fill:#000;stroke-dasharray:none;font-weight:400;stroke-width:1;font-family:&quot;Dialog&quot;;font-style:normal;stroke-linejoin:miter;font-size:12px;stroke-dashoffset:0;image-rendering:auto">
    <g style="stroke-linecap:round;fill:#f7cba4;stroke:#f7cba4">
        <path stroke="none" d="M.5 3V.5H3l3 3v1l1 1v1l1 1-.5.5-1-1h-1l-1-1h-1Z" style="stroke:none"/>
    </g>
    <g stroke="none" style="stroke-linecap:round;fill:#d3ae8d;stroke:#d3ae8d">
        <path d="M3.5 6h1l1 1h1l3 3-.5.5.5.5.5-.5 4.5 4.5h1l1 1H20v.5l3 3v1l1.5 1.5-2.5 2.5-1.5-1.5h-1l-.5-.5v-1l-.5-.5h-1l-1-1h-3l-1-1h-1L8 15.5v-2l-2-2-2 2v8l1 1v1L8.5 27h1l1 1h15l3.5 3.5H.5V3Z" style="stroke:none"/>
        <path d="M3 .5h28.5V29L29 26.5v-1l-1-1v-1L20.5 16h-2l-1-1h-1l-1-1h-1l-2-2-.5.5L7.5 8l.5-.5-1-1v-1l-1-1v-1Z" style="fill:#ffe4ca;stroke:none"/>
        <path d="M4 15v-1.5l2-2 2 2v2l3.5 3.5h1l1 1h3l1 1h1l.5.5v1l.5.5h1l1.5 1.5 2.5-2.5-1.5-1.5v-1l-3-3V16h.5l7.5 7.5v1l1 1v1l2.5 2.5v2.5H29L25.5 28H19v-1.5l-.5-.5h-1l-2-2h-1l-9-9Z" style="fill:#f7cba4;stroke:none"/>
        <path d="M4 19.5V15h1.5l9 9h1l2 2h1l.5.5V28h-5.5l-1-1h-1Z" style="fill:#ffe4ca;stroke:none"/>
        <path d="M11.5 27h1l1 1h-3l-1-1h-1L5 23.5v-1l-1-1v-2Zm-2-16-.5-.5.5-.5.5.5Z" style="fill:#f7cba4;stroke:none"/>
        <path d="m11.5 6 2 2h2l1 1h1l1 1h1l1 1h1l5 5 1.5-1.5v-3l-1-1v-1l-1-1v-1L24.5 6h-1l-5-5h-2Z" style="fill:#ffe4ca;stroke:none"/>
        <path d="m11.5 6 5-5h2l5 5h1L26 7.5v1l1 1v1l1 1v3L26.5 16l-5-5h-1l-1-1h-1l-1-1h-1l-1-1h-2Zm1.5 7.5-1-1 .5-.5.5.5Z" style="fill:#f7cba4;stroke:none"/>
        <path d="M14.5 15 12 12.5l.5-.5 2 2h1l1 1h1l1 1h-2l-1-1Z" style="fill:#f7cba4;stroke:none"/>
    </g>
</svg>
