<svg xmlns="http://www.w3.org/2000/svg" width="64" height="64" style="fill-opacity:1;color-rendering:auto;color-interpolation:auto;text-rendering:auto;stroke:#000;stroke-linecap:square;stroke-miterlimit:10;shape-rendering:auto;stroke-opacity:1;fill:#000;stroke-dasharray:none;font-weight:400;stroke-width:1;font-family:&quot;Dialog&quot;;font-style:normal;stroke-linejoin:miter;font-size:12px;stroke-dashoffset:0;image-rendering:auto">
    <g style="stroke-linecap:round;fill:#6b699c;stroke:#6b699c">
        <path stroke="none" d="M.5 4V.5H4l1 1v1l1 1v1L7.5 6h1L10 7.5v1l1 1v1l.5.5h1l1.5 1.5 1.5-1.5h1l.5-.5v-1l.5-.5h1l1-1h5l1-1h1l1-1h1l1-1h1L32 3.5 33.5 5h1l1 1h1l1 1h1l1 1h5l1 1h1l1 1h1l1.5 1.5v1l1.5 1.5h1l1.5 1.5v1l1.5 1.5h1l1.5 1.5v1l1 1v1l1.5 1.5-1.5 1.5v1l-1 1v1l-1 1v1l-1 1v5l-1 1v1l-1 1v1l-1 1v1L51.5 44l1.5 1.5v1l1 1v1l1 1v1l1 1v1l1 1v1l1 1v1l1.5 1.5h1l1 1h1l1 1v3.5H60l-1-1v-1l-1-1v-1L56.5 58h-1l-1-1h-1l-1-1h-1l-1-1h-1l-1-1h-1l-1-1h-1L44 51.5 42.5 53h-1l-1 1h-1l-1 1h-1l-1 1h-1l-1 1h-1l-1 1h-1l-1 1h-1L28 60.5 26.5 59h-1l-1-1h-1l-1-1h-1l-1-1h-5l-1-1h-1l-1-1h-1L10 52.5v-1L8.5 50h-1l-1-1h-1l-.5-.5v-1L3.5 46 5 44.5v-1l.5-.5h1l.5-.5v-1L8.5 40 7 38.5v-1l-1-1v-1l-1-1v-1L3.5 32 5 30.5v-1l1-1v-1l1-1v-1l1-1v-1l1-1v-1l1-1v-1l1-1v-1l1.5-1.5-1.5-1.5v-1l-1-1v-1L8.5 10h-1L6 8.5v-1L4.5 6h-1l-1-1h-1Z" style="stroke:none"/>
    </g>
    <g stroke="none" style="stroke-linecap:round;fill:#5f5982;stroke:#5f5982">
        <path d="M1.5 5h1l1 1h1L6 7.5v1L7.5 10h1l1.5 1.5v1l1 1v1l1.5 1.5-1.5 1.5v1l-1 1v1l-1 1v1l-1 1v1l-1 1v1l-1 1v1l-1 1v1L3.5 32 5 33.5v1l1 1v1l1 1v1L8.5 40 7 41.5v1l-.5.5h-1l-.5.5v1L3.5 46 5 47.5v1l.5.5h1l1 1h1l1.5 1.5v1l1.5 1.5h1l1 1h1l1 1h5l1 1h1l1 1h1l1 1h1l1.5 1.5 1.5-1.5h1l1-1h1l1-1h1l1-1h1l1-1h1l1-1h1l1-1h1l1.5-1.5 1.5 1.5h1l1 1h1l1 1h1l1 1h1l1 1h1l1 1h1l1.5 1.5v1l1 1v1l1 1H.5V4Z" style="stroke:none"/>
        <path d="M4 .5h59.5V60l-1-1h-1l-1-1h-1L58 56.5v-1l-1-1v-1l-1-1v-1l-1-1v-1l-1-1v-1l-1-1v-1L51.5 44l1.5-1.5v-1l1-1v-1l1-1v-1l1-1v-5l1-1v-1l1-1v-1l1-1v-1l1.5-1.5-1.5-1.5v-1l-1-1v-1L56.5 18h-1L54 16.5v-1L52.5 14h-1L50 12.5v-1L48.5 10h-1l-1-1h-1l-1-1h-5l-1-1h-1l-1-1h-1l-1-1h-1L32 3.5 30.5 5h-1l-1 1h-1l-1 1h-1l-1 1h-5l-1 1h-1l-.5.5v1l-.5.5h-1L14 12.5 12.5 11h-1l-.5-.5v-1l-1-1v-1L8.5 6h-1L6 4.5v-1l-1-1v-1Z" style="fill:#7d8cb2;stroke:none"/>
        <path d="M12 31.5v9l1 1v1l1 1v1l1.5 1.5h1l1.5 1.5v1l1.5 1.5h1l1 1h1l1 1h9l1-1h1l1-1h1l1-1h1l1-1h3l2-2-1.5-1.5v-1l-.5-.5h-1l-1-1h-1l-1-1h-1L36 39.5 34.5 41h-1l-1 1h-1l-1 1h-1L28 44.5 26.5 43h-1l-1-1h-1L22 40.5v-1l-1-1v-1L19.5 36l1.5-1.5v-1l1-1v-1l1-1v-1l1-1v-5l-1-1v-1l-1-1v-1l-1-1v-1l-.5-.5h-1L18 15.5l-2 2v7l-1 1v1l-1 1v1l-1 1v1Z" style="fill:#6b699c;stroke:none"/>
        <path d="M12 40.5v-9l1-1v-1l1-1v-1l1-1v-1l1-1v-7l2-2 1.5 1.5h1l.5.5v1l1 1v1l1 1v1l1 1v5l-1 1v1l-1 1v1l-1 1v1L19.5 36l1.5 1.5v1l1 1v1l1.5 1.5h1l1 1h1l1.5 1.5 1.5-1.5h1l1-1h1l1-1h1l1.5-1.5 1.5 1.5h1l1 1h1l1 1h1l.5.5v1l1.5 1.5-2 2h-3l-1 1h-1l-1 1h-1l-1 1h-1l-1 1h-9l-1-1h-1l-1-1h-1L18 48.5v-1L16.5 46h-1L14 44.5v-1l-1-1v-1Z" style="stroke:none"/>
        <path d="m19.5 14 1.5 1.5v1l.5.5h1l1 1h1l1 1h1l1 1h5l1 1h1l1 1h1l1.5 1.5v1l1 1v1l1 1v9l1 1v1l1 1v1l1 1v1l.5.5h1l1.5 1.5 2-2v-7l1-1v-1l1-1v-1l1-1v-1l1.5-1.5-1.5-1.5v-1l-1-1v-1L48.5 22h-1L46 20.5v-1L44.5 18h-1L42 16.5v-1L40.5 14h-1l-1-1h-1l-1-1h-15Z" style="fill:#6b699c;stroke:none"/>
        <path d="m19.5 14 2-2h15l1 1h1l1 1h1l1.5 1.5v1l1.5 1.5h1l1.5 1.5v1l1.5 1.5h1l1.5 1.5v1l1 1v1l1.5 1.5-1.5 1.5v1l-1 1v1l-1 1v1l-1 1v7l-2 2-1.5-1.5h-1l-.5-.5v-1l-1-1v-1l-1-1v-1l-1-1v-9l-1-1v-1l-1-1v-1L36.5 22h-1l-1-1h-1l-1-1h-5l-1-1h-1l-1-1h-1l-1-1h-1l-.5-.5v-1Z" style="fill:#7d8cb2;stroke:none"/>
    </g>
</svg>
