<svg xmlns="http://www.w3.org/2000/svg" width="32" height="32" style="fill-opacity:1;color-rendering:auto;color-interpolation:auto;text-rendering:auto;stroke:#000;stroke-linecap:square;stroke-miterlimit:10;shape-rendering:auto;stroke-opacity:1;fill:#000;stroke-dasharray:none;font-weight:400;stroke-width:1;font-family:&quot;Dialog&quot;;font-style:normal;stroke-linejoin:miter;font-size:12px;stroke-dashoffset:0;image-rendering:auto">
    <g style="stroke-linecap:round;fill:#5c567a;stroke:#5c567a">
        <path stroke="none" d="M1 24.5v3l1 1v1L3.5 31h4l2-2h1l1-1h1l1-1h1l1-1h1l1-1h1l1-1h1l3.5-3.5v-2L21.5 16h-9l-1 1h-1l-1 1h-1l-4 4h-1Z" style="stroke:none"/>
    </g>
    <g stroke="none" style="stroke-linecap:round;fill:#5c567a;stroke:#5c567a">
        <path d="M2 8.5v3L4.5 14h3l4-4h1l1-1h1l.5-.5v-1L16.5 6l-2-2h-7l-1 1h-1Z" style="stroke:none"/>
        <path d="M1 27.5v-3L3.5 22h1l4-4h1l1-1h1l1-1h9l2.5 2.5v2L20.5 24h-1l-1 1h-1l-1 1h-1l-1 1h-1l-1 1h-1l-1 1h-1l-2 2h-4L2 29.5v-1Zm1-16v-3L5.5 5h1l1-1h7l2 2L15 7.5v1l-.5.5h-1l-1 1h-1l-4 4h-3Z" style="fill:#676593;stroke:none"/>
        <path d="m19.5 10 2 2h3l1-1h1l1-1h1L31 7.5v-4L28.5 1h-2L24 3.5v1l-3 3v1Z" style="stroke:none"/>
        <path d="M19.5 10 21 8.5v-1l3-3v-1L26.5 1h2L31 3.5v4L28.5 10h-1l-1 1h-1l-1 1h-3Z" style="fill:#676593;stroke:none"/>
    </g>
</svg>
