<svg xmlns="http://www.w3.org/2000/svg" width="32" height="32" style="fill-opacity:1;color-rendering:auto;color-interpolation:auto;text-rendering:auto;stroke:#000;stroke-linecap:square;stroke-miterlimit:10;shape-rendering:auto;stroke-opacity:1;fill:#000;stroke-dasharray:none;font-weight:400;stroke-width:1;font-family:&quot;Dialog&quot;;font-style:normal;stroke-linejoin:miter;font-size:12px;stroke-dashoffset:0;image-rendering:auto">
    <g style="stroke-linecap:round;fill:#5c567a;stroke:#5c567a">
        <path stroke="none" d="M1 15.5v3L2.5 20h2l3 3h1l1 1h3l1 1h1l1 1h1l1 1h1l1 1h5l1-1h1l.5-.5v-1l1-1v-1l1-1v-1l1-1v-5L27.5 13h-2l-1 1h-1L22 15.5v1L20.5 18h-1l-1 1h-1l-1 1h-5l-1-1h-1l-.5-.5v-1l-1-1v-1L6.5 14h-4Z" style="stroke:none"/>
    </g>
    <g stroke="none" style="stroke-linecap:round;fill:#5c567a;stroke:#5c567a">
        <path d="M1 27.5v2L2.5 31h2L6 29.5v-2L4.5 26h-2Z" style="stroke:none"/>
        <path d="M1 18.5v-3L2.5 14h4L8 15.5v1l1 1v1l.5.5h1l1 1h5l1-1h1l1-1h1l1.5-1.5v-1l1.5-1.5h1l1-1h2l2.5 2.5v5l-1 1v1l-1 1v1l-1 1v1l-.5.5h-1l-1 1h-5l-1-1h-1l-1-1h-1l-1-1h-1l-1-1h-3l-1-1h-1l-3-3h-2Zm0 11v-2L2.5 26h2L6 27.5v2L4.5 31h-2Z" style="fill:#676593;stroke:none"/>
        <path d="M7.5 6 9 7.5v1l2.5 2.5h1l1.5 1.5 1.5-1.5h1l.5-.5v-1l.5-.5h1l1-1h1l1-1h1l3-3-2-2h-1l-1-1h-8l-1 1h-1l-1 1h-1l-.5.5v1Z" style="stroke:none"/>
        <path d="M7.5 6 9 4.5v-1l.5-.5h1l1-1h1l1-1h8l1 1h1l2 2-3 3h-1l-1 1h-1l-1 1h-1l-.5.5v1l-.5.5h-1L14 12.5 12.5 11h-1L9 8.5v-1Z" style="fill:#676593;stroke:none"/>
    </g>
</svg>
