<svg xmlns="http://www.w3.org/2000/svg" width="32" height="32" style="fill-opacity:1;color-rendering:auto;color-interpolation:auto;text-rendering:auto;stroke:#000;stroke-linecap:square;stroke-miterlimit:10;shape-rendering:auto;stroke-opacity:1;fill:#000;stroke-dasharray:none;font-weight:400;stroke-width:1;font-family:&quot;Dialog&quot;;font-style:normal;stroke-linejoin:miter;font-size:12px;stroke-dashoffset:0;image-rendering:auto">
    <g style="stroke-linecap:round;fill:#676593;stroke:#676593">
        <path stroke="none" d="M.5 3V.5H2L5.5 4h3l1 1h1l1 1h1L14 7.5v1l1 1v1l1 1v1l1 1v1l.5.5h1l1.5 1.5 4.5-4.5-1.5-1.5v-1l-.5-.5h-1l-.5-.5v-1L19.5 6 22 3.5 23.5 5h1l.5.5v1l.5.5h1l.5.5v1l1 1v5L26.5 16h-2l-2 2 1 1h1l.5.5v1l2 2v3l1 1v1l3.5 3.5v.5H31l-4-4v-1L25.5 25l-1 1h-1l-1 1h-1l-1 1h-7l-1-1h-1l-.5-.5v-1l-.5-.5h-1l-.5-.5v-1L7.5 22l2.5-2.5 1.5 1.5h1l.5.5v1l.5.5h1l1 1h3l2-2-1.5-1.5v-1l-.5-.5h-1l-1-1h-1L14 16.5v-1l-1-1v-1l-.5-.5h-1L10 11.5l-2 2v1l-2 2-2-2v-3l1-1v-1L6.5 8l-4-4h-1Z" style="stroke:none"/>
    </g>
    <g stroke="none" style="stroke-linecap:round;fill:#5c567a;stroke:#5c567a">
        <path d="M1.5 4h1l4 4L5 9.5v1l-1 1v3l2 2 2-2v-1l2-2 1.5 1.5h1l.5.5v1l1 1v1l1.5 1.5h1l1 1h1l.5.5v1l1.5 1.5-2 2h-3l-1-1h-1l-.5-.5v-1l-.5-.5h-1L10 19.5 7.5 22 9 23.5v1l.5.5h1l.5.5v1l.5.5h1l1 1h7l1-1h1l1-1h1l1-1 1.5 1.5v1l4 4H.5V3Z" style="stroke:none"/>
        <path d="M2 .5h29.5V31L28 27.5v-1l-1-1v-3l-2-2v-1l-.5-.5h-1l-1-1 2-2h2l1.5-1.5v-5l-1-1v-1l-.5-.5h-1l-.5-.5v-1l-.5-.5h-1L22 3.5 19.5 6 21 7.5v1l.5.5h1l.5.5v1l1.5 1.5-4.5 4.5-1.5-1.5h-1l-.5-.5v-1l-1-1v-1l-1-1v-1l-1-1v-1L12.5 6h-1l-1-1h-1l-1-1h-3Z" style="fill:#7685aa;stroke:none"/>
    </g>
</svg>
