<svg xmlns="http://www.w3.org/2000/svg" width="32" height="32" style="fill-opacity:1;color-rendering:auto;color-interpolation:auto;text-rendering:auto;stroke:#000;stroke-linecap:square;stroke-miterlimit:10;shape-rendering:auto;stroke-opacity:1;fill:#000;stroke-dasharray:none;font-weight:400;stroke-width:1;font-family:&quot;Dialog&quot;;font-style:normal;stroke-linejoin:miter;font-size:12px;stroke-dashoffset:0;image-rendering:auto">
    <g style="stroke-linecap:round;fill:#676593;stroke:#676593">
        <path stroke="none" d="M.5 2V.5H2L4.5 3h2l1 1h2l2 2h1l1 1h2l.5-.5v-1l2-2L19.5 5h1l.5.5v1l.5.5h1l.5.5v1l.5.5h1l.5.5v1l.5.5h1l.5.5v1l1.5 1.5-2.5 2.5-2-2v-1l-2-2-2 2v3l1 1v1l1 1v1l1.5 1.5h1l1.5 1.5v1l1 1v1l4.5 4.5v.5H31L27.5 28h-4l-1-1h-1l-.5-.5v-1l-.5-.5h-1l-.5-.5v-1l-.5-.5h-1l-.5-.5v-1l-.5-.5h-1l-.5-.5v-1l-.5-.5h-1l-.5-.5v-1l-.5-.5h-1L10 15.5l-2 2v3l1 1v1l.5.5h1l1 1h3l2 2-2 2h-5l-1-1h-1l-.5-.5v-1l-.5-.5h-1l-.5-.5v-1l-1-1v-5l1-1v-1l.5-.5h1l.5-.5v-1l.5-.5h1l2.5-2.5v-2L9.5 7h-1l-1-1h-2l-1-1h-1Z" style="stroke:none"/>
    </g>
    <g stroke="none" style="stroke-linecap:round;fill:#5c567a;stroke:#5c567a">
        <path d="M3.5 5h1l1 1h2l1 1h1L11 8.5v2L8.5 13h-1l-.5.5v1l-.5.5h-1l-.5.5v1l-1 1v5l1 1v1l.5.5h1l.5.5v1l.5.5h1l1 1h5l2-2-2-2h-3l-1-1h-1l-.5-.5v-1l-1-1v-3l2-2 1.5 1.5h1l.5.5v1l.5.5h1l.5.5v1l.5.5h1l.5.5v1l.5.5h1l.5.5v1l.5.5h1l.5.5v1l.5.5h1l1 1h4l3.5 3.5H.5V2Z" style="stroke:none"/>
        <path d="M2 .5h29.5V31L27 26.5v-1l-1-1v-1L24.5 22h-1L22 20.5v-1l-1-1v-1l-1-1v-3l2-2 2 2v1l2 2 2.5-2.5-1.5-1.5v-1l-.5-.5h-1l-.5-.5v-1l-.5-.5h-1l-.5-.5v-1l-.5-.5h-1l-.5-.5v-1l-.5-.5h-1L18 3.5l-2 2v1l-.5.5h-2l-1-1h-1l-2-2h-2l-1-1h-2Z" style="fill:#7685aa;stroke:none"/>
    </g>
</svg>
