<svg xmlns="http://www.w3.org/2000/svg" width="64" height="64" style="fill-opacity:1;color-rendering:auto;color-interpolation:auto;text-rendering:auto;stroke:#000;stroke-linecap:square;stroke-miterlimit:10;shape-rendering:auto;stroke-opacity:1;fill:#000;stroke-dasharray:none;font-weight:400;stroke-width:1;font-family:&quot;Dialog&quot;;font-style:normal;stroke-linejoin:miter;font-size:12px;stroke-dashoffset:0;image-rendering:auto">
    <g style="stroke-linecap:round;fill:#6aa95e;stroke:#6aa95e">
        <path stroke="none" d="M.5 2V.5H2l9 9v1l1 1v2l2.5 2.5h2l1 1h1l.5.5v1l2.5 2.5h1l1 1h1l1 1h1l1 1h3l2-2-2-2h-1l-2-2 2-2h3l1 1h1l1 1h1l1.5 1.5v1l1 1v1l1 1v1l4 4 1.5-1.5h1l1-1h1l1-1h1l1.5-1.5 4.5 4.5-4 4h-1l-1 1h-1l-.5.5v1l-1 1v1l-3 3v1L43.5 42l4 4h1l5.5 5.5v1l9.5 9.5v1.5H62L56.5 58h-1l-1-1h-1L52 55.5 48.5 59h-1L46 60.5 44.5 59h-1l-4-4 2-2h1l1-1h3l2-2-6.5-6.5-2 2v1l-2 2-1.5-1.5h-1l-3-3h-5L24 47.5v1l-1 1v1l-1 1v1l-1 1v1l-1 1v3l-2 2-2-2v-7l1-1v-1l1-1v-1l1-1v-1l1.5-1.5-4.5-4.5-3 3v1l-1 1v2l-2 2-2-2v-5l1-1v-1l3.5-3.5h4l4-4-1.5-1.5v-1L15.5 26l1.5-1.5v-1l.5-.5h1l1-1-1.5-1.5v-1L15.5 17h-2l-1-1h-1L8 12.5v-1l-1-1v-1l-2-2v-1Z" style="stroke:none"/>
    </g>
    <g stroke="none" style="stroke-linecap:round;fill:#4e904f;stroke:#4e904f">
        <path d="M5 6.5v1l2 2v1l1 1v1l3.5 3.5h1l1 1h2l2.5 2.5v1l1.5 1.5-1 1h-1l-.5.5v1L15.5 26l3.5 3.5v1l1.5 1.5-4 4h-4L9 39.5v1l-1 1v5l2 2 2-2v-2l1-1v-1l3-3 4.5 4.5-1.5 1.5v1l-1 1v1l-1 1v1l-1 1v7l2 2 2-2v-3l1-1v-1l1-1v-1l1-1v-1l1-1v-1l3.5-3.5h5l3 3h1l1.5 1.5 2-2v-1l2-2 6.5 6.5-2 2h-3l-1 1h-1l-2 2 4 4h1l1.5 1.5 1.5-1.5h1l3.5-3.5 1.5 1.5h1l1 1h1l5.5 5.5H.5V2Z" style="stroke:none"/>
        <path d="M2 .5h61.5V62L54 52.5v-1L48.5 46h-1l-4-4 1.5-1.5v-1l3-3v-1l1-1v-1l.5-.5h1l1-1h1l4-4-4.5-4.5-1.5 1.5h-1l-1 1h-1l-1 1h-1L44 28.5l-4-4v-1l-1-1v-1l-1-1v-1L36.5 18h-1l-1-1h-1l-1-1h-3l-2 2 2 2h1l2 2-2 2h-3l-1-1h-1l-1-1h-1l-1-1h-1L19 18.5v-1l-.5-.5h-1l-1-1h-2L12 13.5v-2l-1-1v-1Z" style="fill:#80cb71;stroke:none"/>
        <path d="M8 25.5v5l2 2 2-2v-5l-2-2Z" style="stroke:none"/>
        <path d="M8 30.5v-5l2-2 2 2v5l-2 2Z" style="fill:#6aa95e;stroke:none"/>
        <path d="m19.5 10 2 2h5l2-2-2-2h-5Z" style="fill:#80cb71;stroke:none"/>
        <path d="m19.5 10 2-2h5l2 2-2 2h-5Z" style="fill:#6aa95e;stroke:none"/>
        <path d="m27.5 54 2.5 2.5 2.5-2.5-2.5-2.5Z" style="stroke:none"/>
        <path d="m27.5 54 2.5-2.5 2.5 2.5-2.5 2.5Z" style="fill:#6aa95e;stroke:none"/>
        <path d="m35.5 10 2 2h2l1 1h1l1.5 1.5v1l1 1v2l2 2 1.5-1.5h1l3-3h2l2-2-2-2h-5l-1-1h-1L45 9.5v-1l-1-1v-2l-2-2L40.5 5h-1L37 7.5v1Z" style="fill:#80cb71;stroke:none"/>
        <path d="M35.5 10 37 8.5v-1L39.5 5h1L42 3.5l2 2v2l1 1v1l1.5 1.5h1l1 1h5l2 2-2 2h-2l-3 3h-1L46 20.5l-2-2v-2l-1-1v-1L41.5 13h-1l-1-1h-2Z" style="fill:#6aa95e;stroke:none"/>
        <path d="m51.5 42 2.5 2.5 2.5-2.5-2.5-2.5Z" style="fill:#80cb71;stroke:none"/>
        <path d="m51.5 42 2.5-2.5 2.5 2.5-2.5 2.5Z" style="fill:#6aa95e;stroke:none"/>
    </g>
</svg>
