<svg xmlns="http://www.w3.org/2000/svg" width="32" height="32" style="fill-opacity:1;color-rendering:auto;color-interpolation:auto;text-rendering:auto;stroke:#000;stroke-linecap:square;stroke-miterlimit:10;shape-rendering:auto;stroke-opacity:1;fill:#000;stroke-dasharray:none;font-weight:400;stroke-width:1;font-family:&quot;Dialog&quot;;font-style:normal;stroke-linejoin:miter;font-size:12px;stroke-dashoffset:0;image-rendering:auto">
    <g style="stroke-linecap:round;fill:#6aa95e;stroke:#6aa95e">
        <path stroke="none" d="M.5 2V.5H2L5.5 4h4L13 7.5v1l4 4 2.5-2.5-4-4L18 3.5 19.5 5h1l6.5 6.5v1l1.5 1.5-2.5 2.5-4-4-2.5 2.5 4 4h1l3.5 3.5v4l3.5 3.5v1.5H30l-5-5-1.5 1.5h-2L20 26.5v-1l-2-2-2 2v1L14.5 28h-2L4 19.5v-2L5.5 16h1l2-2-2-2h-1L4 10.5v-2L5.5 7Z" style="stroke:none"/>
    </g>
    <g stroke="none" style="stroke-linecap:round;fill:#4e904f;stroke:#4e904f">
        <path d="M5.5 7 4 8.5v2L5.5 12h1l2 2-2 2h-1L4 17.5v2l8.5 8.5h2l1.5-1.5v-1l2-2 2 2v1l1.5 1.5h2l1.5-1.5 5 5H.5V2Z" style="stroke:none"/>
        <path d="M2 .5h29.5V30L28 26.5v-4L24.5 19h-1l-4-4 2.5-2.5 4 4 2.5-2.5-1.5-1.5v-1L20.5 5h-1L18 3.5 15.5 6l4 4-2.5 2.5-4-4v-1L9.5 4h-4Z" style="fill:#80cb71;stroke:none"/>
        <path d="M8.5 12h2l1.5-1.5v-2L9.5 6h-2L6 7.5v2Z" style="fill:#6aa95e;stroke:none"/>
        <path d="M6 9.5v-2L7.5 6h2L12 8.5v2L10.5 12h-2Z" style="stroke:none"/>
        <path d="m7.5 18 6.5 6.5 2.5-2.5-1.5-1.5v-1L12.5 17h-1L10 15.5Z" style="fill:#6aa95e;stroke:none"/>
        <path d="m7.5 18 2.5-2.5 1.5 1.5h1l2.5 2.5v1l1.5 1.5-2.5 2.5Z" style="stroke:none"/>
        <path d="M20 21.5v2l2.5 2.5h2l1.5-1.5v-2L23.5 20h-2Z" style="fill:#6aa95e;stroke:none"/>
        <path d="M20 23.5v-2l1.5-1.5h2l2.5 2.5v2L24.5 26h-2Z" style="stroke:none"/>
    </g>
</svg>
