<svg xmlns="http://www.w3.org/2000/svg" width="32" height="32" style="fill-opacity:1;color-rendering:auto;color-interpolation:auto;text-rendering:auto;stroke:#000;stroke-linecap:square;stroke-miterlimit:10;shape-rendering:auto;stroke-opacity:1;fill:#000;stroke-dasharray:none;font-weight:400;stroke-width:1;font-family:&quot;Dialog&quot;;font-style:normal;stroke-linejoin:miter;font-size:12px;stroke-dashoffset:0;image-rendering:auto">
    <g style="stroke-linecap:round;fill:#6aa95e;stroke:#6aa95e">
        <path stroke="none" d="M.5 3V.5H3l3 3v1l1 1v1l4.5 4.5h1l1.5 1.5 4-4 5.5 5.5-4 4 1.5 1.5v1l4.5 4.5h1l1 1h1l3 3v2.5H29l-3-3v-1l-1-1v-1L20.5 21h-1L18 19.5l-4 4L8.5 18l4-4-1.5-1.5v-1L6.5 7h-1l-1-1h-1Z" style="stroke:none"/>
    </g>
    <g stroke="none" style="stroke-linecap:round;fill:#4e904f;stroke:#4e904f">
        <path d="M3.5 6h1l1 1h1l4.5 4.5v1l1.5 1.5-4 4 5.5 5.5 4-4 1.5 1.5h1l4.5 4.5v1l1 1v1l3 3H.5V3Z" style="stroke:none"/>
        <path d="M2.5 13 6 16.5 8.5 14 5 10.5Z" style="stroke:none"/>
        <path d="M3 .5h28.5V29l-3-3h-1l-1-1h-1L21 20.5v-1L19.5 18l4-4L18 8.5l-4 4-1.5-1.5h-1L7 6.5v-1l-1-1v-1Z" style="fill:#80cb71;stroke:none"/>
        <path d="M2.5 13 5 10.5 8.5 14 6 16.5Z" style="fill:#6aa95e;stroke:none"/>
        <path d="M3.5 22 5 23.5v1L7.5 27h1l1.5 1.5 2.5-2.5-2-2h-1L8 22.5v-1l-2-2Z" style="stroke:none"/>
        <path d="M3.5 22 6 19.5l2 2v1L9.5 24h1l2 2-2.5 2.5L8.5 27h-1L5 24.5v-1Z" style="fill:#6aa95e;stroke:none"/>
        <path d="M10.5 5 14 8.5 16.5 6 13 2.5Z" style="fill:#80cb71;stroke:none"/>
        <path d="M10.5 5 13 2.5 16.5 6 14 8.5Z" style="fill:#6aa95e;stroke:none"/>
        <path d="m15.5 26 3.5 3.5 2.5-2.5-3.5-3.5Z" style="stroke:none"/>
        <path d="m15.5 26 2.5-2.5 3.5 3.5-2.5 2.5Z" style="fill:#6aa95e;stroke:none"/>
        <path d="m19.5 6 2 2h1L24 9.5v1l2 2 2.5-2.5L27 8.5v-1L24.5 5h-1L22 3.5Z" style="fill:#80cb71;stroke:none"/>
        <path d="M19.5 6 22 3.5 23.5 5h1L27 7.5v1l1.5 1.5-2.5 2.5-2-2v-1L22.5 8h-1Z" style="fill:#6aa95e;stroke:none"/>
        <path d="m23.5 18 3.5 3.5 2.5-2.5-3.5-3.5Z" style="fill:#80cb71;stroke:none"/>
        <path d="m23.5 18 2.5-2.5 3.5 3.5-2.5 2.5Z" style="fill:#6aa95e;stroke:none"/>
    </g>
</svg>
