<svg xmlns="http://www.w3.org/2000/svg" width="32" height="32" style="fill-opacity:1;color-rendering:auto;color-interpolation:auto;text-rendering:auto;stroke:#000;stroke-linecap:square;stroke-miterlimit:10;shape-rendering:auto;stroke-opacity:1;fill:#000;stroke-dasharray:none;font-weight:400;stroke-width:1;font-family:&quot;Dialog&quot;;font-style:normal;stroke-linejoin:miter;font-size:12px;stroke-dashoffset:0;image-rendering:auto">
    <g style="stroke-linecap:round;fill:#e1e9f0;stroke:#e1e9f0">
        <path stroke="none" d="M.5 1V.5H1l4 4V5h-.5Z" style="stroke:none"/>
    </g>
    <g stroke="none" style="stroke-linecap:round;fill:#a1b1d0;stroke:#a1b1d0">
        <path d="M4.5 5H5v1.5l.5.5H6v1.5l.5.5H7v1.5l.5.5H8v.5l.5.5L5 15.5v1L3.5 18l4 4h1l1 1h1l1 1h1l3 3h1l1.5 1.5 3.5-3.5h2l3.5 3.5v1l2 2H.5V1Z" style="stroke:none"/>
        <path d="M1 .5h30.5V29l-3-3h-1l-5-5h-1l-1-1h-1l-1-1h-1l-1-1h-1l-5-5h-1L8 11.5v-1l-.5-.5H7V8.5L6.5 8H6V6.5L5.5 6H5V4.5Z" style="fill:#fff;stroke:none"/>
        <path d="M3.5 18 5 16.5v-1L8.5 12l1 1h1l5 5h1l1 1h1l1 1h1l1 1h1l5 5h1l3 3v2.5H29l-2-2v-1L23.5 25h-2L18 28.5 16.5 27h-1l-3-3h-1l-1-1h-1l-1-1h-1ZM6 7h-.5L5 6.5V6h.5l.5.5Zm1 2h-.5L6 8.5V8h.5l.5.5Zm1 2h-.5l-.5-.5V10h.5l.5.5Z" style="fill:#e1e9f0;stroke:none"/>
        <path d="M12 5.5v3l3.5 3.5h1l3 3h1l1 1h1l3 3h2l.5-.5v-3L24.5 12h-1l-7-7h-1L14 3.5Z" style="fill:#fff;stroke:none"/>
        <path d="M12 8.5v-3l2-2L15.5 5h1l7 7h1l3.5 3.5v3l-.5.5h-2l-3-3h-1l-1-1h-1l-3-3h-1Z" style="fill:#e1e9f0;stroke:none"/>
    </g>
</svg>
