<svg xmlns="http://www.w3.org/2000/svg" width="32" height="32" style="fill-opacity:1;color-rendering:auto;color-interpolation:auto;text-rendering:auto;stroke:#000;stroke-linecap:square;stroke-miterlimit:10;shape-rendering:auto;stroke-opacity:1;fill:#000;stroke-dasharray:none;font-weight:400;stroke-width:1;font-family:&quot;Dialog&quot;;font-style:normal;stroke-linejoin:miter;font-size:12px;stroke-dashoffset:0;image-rendering:auto">
    <g style="stroke-linecap:round;fill:#e1e9f0;stroke:#e1e9f0">
        <path stroke="none" d="m.5 29 2 2h4l2-2-2-2h-4Z" style="stroke:none"/>
    </g>
    <g stroke="none" style="stroke-linecap:round;fill:#fff;stroke:#fff">
        <path d="m.5 29 2-2h4l2 2-2 2h-4Z" style="stroke:none"/>
        <path d="m3.5 10 2 2h6l1-1h2l1-1h1l1-1h1l.5-.5v-1L20.5 6l-2-2h-7l-1 1h-1l-1 1h-1Z" style="fill:#e1e9f0;stroke:none"/>
        <path d="m3.5 10 4-4h1l1-1h1l1-1h7l2 2L19 7.5v1l-.5.5h-1l-1 1h-1l-1 1h-2l-1 1h-6Z" style="stroke:none"/>
        <path d="m11.5 22 2 2h6l1-1h2l1-1h1l1-1h1l.5-.5v-1l1.5-1.5-2-2h-5l-1 1h-2l-1 1h-1l-1 1h-1Z" style="fill:#e1e9f0;stroke:none"/>
        <path d="m11.5 22 3-3h1l1-1h1l1-1h2l1-1h5l2 2-1.5 1.5v1l-.5.5h-1l-1 1h-1l-1 1h-2l-1 1h-6Z" style="stroke:none"/>
        <path d="m18.5 27 2.5 2.5 2.5-2.5-2.5-2.5Z" style="fill:#e1e9f0;stroke:none"/>
        <path d="m18.5 27 2.5-2.5 2.5 2.5-2.5 2.5Z" style="stroke:none"/>
        <path d="m23.5 10 2 2h4l2-2-2-2h-4Z" style="fill:#e1e9f0;stroke:none"/>
        <path d="m23.5 10 2-2h4l2 2-2 2h-4Z" style="stroke:none"/>
    </g>
</svg>
