<svg xmlns="http://www.w3.org/2000/svg" width="48" height="48" style="fill-opacity:1;color-rendering:auto;color-interpolation:auto;text-rendering:auto;stroke:#000;stroke-linecap:square;stroke-miterlimit:10;shape-rendering:auto;stroke-opacity:1;fill:#000;stroke-dasharray:none;font-weight:400;stroke-width:1;font-family:&quot;Dialog&quot;;font-style:normal;stroke-linejoin:miter;font-size:12px;stroke-dashoffset:0;image-rendering:auto">
    <g style="stroke-linecap:round;fill:#a1b1d0;stroke:#a1b1d0">
        <path stroke="none" d="M3 28.5v-9l1-1v-2l1-1v-1l1-1v-1l2-2V9h.5l4.5 4.5-2 2v1l-1 1v13l1 1v1l4.5 4.5h1l1 1h13l1-1h1l4-4 4 4-.5.5V39h-.5l-.5.5v.5h-1.5l-2 2h-1l-1 1h-1l-1 1h-2l-1 1h-9l-1-1h-2l-1-1h-1l-1-1h-1l-1-1h-1l-2-2H8v-1.5l-2-2v-1l-1-1v-1l-1-1v-2Z" style="stroke:none"/>
    </g>
    <g stroke="none" style="stroke-linecap:round;fill:#e1e9f0;stroke:#e1e9f0">
        <path d="m8.5 9 .5-.5V8h1.5l2-2h1l1-1h1l1-1h2l1-1h9l1 1h2l1 1h1l1 1h1l1 1h1l3.5 3.5v1l1 1v1l1 1v1l1 1v2l1 1v9l-1 1v2l-1 1v1l-1 1v1L40.5 37l-4-4 .5-.5v-1l1-1v-13l-1-1v-1L32.5 11h-1l-1-1h-13l-1 1h-1L13 13.5Z" style="stroke:none"/>
        <path d="M10 30.5v-13l1-1v-1l1-1 .5.5h2l1 1h1l3 3-1 1h-1l-2 2 2 2-2 2 2 2h1l1.5 1.5v1l2 2 2-2 2 2 2-2v-1l1.5-1.5h1l1.5-1.5 3 3v2l1.5 1.5-4 4h-1l-1 1h-13l-1-1h-1L11 32.5v-1Z" style="stroke:none"/>
        <path d="m12.5 15-.5-.5 3.5-3.5h1l1-1h13l1 1h1l4.5 4.5v1l1 1v13l-1 1v1l-.5.5-1.5-1.5v-2l-3-3-1.5 1.5h-1L28 29.5v1l-2 2-2-2-2 2-2-2v-1L18.5 28h-1l-2-2 2-2-2-2 2-2h1l1-1-3-3h-1l-1-1Z" style="fill:#fff;stroke:none"/>
    </g>
</svg>
