<svg xmlns="http://www.w3.org/2000/svg" width="32" height="32" style="fill-opacity:1;color-rendering:auto;color-interpolation:auto;text-rendering:auto;stroke:#000;stroke-linecap:square;stroke-miterlimit:10;shape-rendering:auto;stroke-opacity:1;fill:#000;stroke-dasharray:none;font-weight:400;stroke-width:1;font-family:&quot;Dialog&quot;;font-style:normal;stroke-linejoin:miter;font-size:12px;stroke-dashoffset:0;image-rendering:auto">
    <g style="stroke-linecap:round;fill:#e1e9f0;stroke:#e1e9f0">
        <path stroke="none" d="M.5 17V.5h31v31H.5V31l1-1 1 1h5l1-1h1l4-4-2-2h-3l-1 1h-1l-1 1h-1l-1 1h-1L1 28.5v-10L2.5 20h5l2-2-2-2h-5l-1 1Z" style="stroke:none"/>
    </g>
    <g style="fill:#e1e9f0;fill-opacity:.9961;stroke-opacity:.9961;stroke-linecap:round;stroke:#e1e9f0">
        <path stroke="none" d="m1 29.5.5.5-1 1V17H1Z" style="stroke:none"/>
    </g>
    <g stroke="none" style="stroke-linecap:round;fill:#fff;stroke:#fff">
        <path d="M1 18.5V17h.5l1-1h5l2 2-2 2h-5Zm0 11v-1L2.5 27h1l1-1h1l1-1h1l1-1h3l2 2-4 4h-1l-1 1h-5Z" style="stroke:none"/>
        <path d="m3.5 10 2 2h7l1-1h1l1-1h1l1-1h1l1-1h3l2-2-2-2h-11l-1 1h-1l-1 1h-1l-1 1h-1l-.5.5v1Z" style="fill:#e1e9f0;stroke:none"/>
        <path d="M3.5 10 5 8.5v-1l.5-.5h1l1-1h1l1-1h1l1-1h11l2 2-2 2h-3l-1 1h-1l-1 1h-1l-1 1h-1l-1 1h-7Z" style="stroke:none"/>
        <path d="m15.5 22 2 2h3l1-1h1l1-1h1l1-1h1l1-1h1l2-2-2-2h-5l-1 1h-1l-1 1h-1l-1 1h-1l-.5.5v1Z" style="fill:#e1e9f0;stroke:none"/>
        <path d="m15.5 22 1.5-1.5v-1l.5-.5h1l1-1h1l1-1h1l1-1h5l2 2-2 2h-1l-1 1h-1l-1 1h-1l-1 1h-1l-1 1h-3Z" style="stroke:none"/>
        <path d="M26.5 6 29 8.5 31.5 6 29 3.5Z" style="fill:#e1e9f0;stroke:none"/>
        <path d="M26.5 6 29 3.5 31.5 6 29 8.5Z" style="stroke:none"/>
    </g>
</svg>
