<svg xmlns="http://www.w3.org/2000/svg" width="32" height="32" style="fill-opacity:1;color-rendering:auto;color-interpolation:auto;text-rendering:auto;stroke:#000;stroke-linecap:square;stroke-miterlimit:10;shape-rendering:auto;stroke-opacity:1;fill:#000;stroke-dasharray:none;font-weight:400;stroke-width:1;font-family:&quot;Dialog&quot;;font-style:normal;stroke-linejoin:miter;font-size:12px;stroke-dashoffset:0;image-rendering:auto">
    <g style="stroke-linecap:round;fill:#ff5837;stroke:#ff5837">
        <path stroke="none" d="M4 11.5v-5L9.5 1h16L28 3.5V5H11.5l-4 4 2 2h1l1 1h11l5.5 5.5v5L23.5 27H4v-1.5L6.5 23h14l3.5-3.5-3.5-3.5h-12Z" style="stroke:none"/>
    </g>
    <g style="stroke-linecap:round;fill:#b33030;stroke:#b33030">
        <path stroke="none" d="M8.5 16h12l3.5 3.5-2.5 2.5-2-2h-11L4 15.5v-4Zm-4 15-.5-.5V27h19.5l4.5-4.5v4L23.5 31Zm3-22 4-4H28v4H12.5l-2 2h-1Z" style="stroke:none"/>
    </g>
</svg>
