<svg xmlns="http://www.w3.org/2000/svg" width="32" height="32" style="fill-opacity:1;color-rendering:auto;color-interpolation:auto;text-rendering:auto;stroke:#000;stroke-linecap:square;stroke-miterlimit:10;shape-rendering:auto;stroke-opacity:1;fill:#000;stroke-dasharray:none;font-weight:400;stroke-width:1;font-family:&quot;Dialog&quot;;font-style:normal;stroke-linejoin:miter;font-size:12px;stroke-dashoffset:0;image-rendering:auto">
    <g style="stroke-linecap:round;fill:#7c4b80;stroke:#7c4b80">
        <path stroke="none" d="M.5 7V.5H3L5.5 3h1l1 1h14L24 6.5v6l1 1v1l1 1v1l1 1v1l1 1v1l1 1v1l2.5 2.5v6l-1-1h-1l-2-2h-4l-1-1h-1l-3-3h-2l-1 1h-1l-2 2h-1L10 28.5l-5-5v-2l3-3v-3l-1-1v-1Z" style="stroke:none"/>
    </g>
    <g stroke="none" style="stroke-linecap:round;fill:#6b4474;stroke:#6b4474">
        <path d="M7 13.5v1l1 1v3l-3 3v2l5 5 1.5-1.5h1l2-2h1l1-1h2l3 3h1l1 1h4l2 2h1l1 1v.5H.5V7Z" style="stroke:none"/>
        <path d="M3 .5h28.5V25L29 22.5v-1l-1-1v-1l-1-1v-1l-1-1v-1l-1-1v-1l-1-1v-6L21.5 4h-14l-1-1h-1Z" style="fill:#995d9a;stroke:none"/>
    </g>
</svg>
