<svg xmlns="http://www.w3.org/2000/svg" width="32" height="32" style="fill-opacity:1;color-rendering:auto;color-interpolation:auto;text-rendering:auto;stroke:#000;stroke-linecap:square;stroke-miterlimit:10;shape-rendering:auto;stroke-opacity:1;fill:#000;stroke-dasharray:none;font-weight:400;stroke-width:1;font-family:&quot;Dialog&quot;;font-style:normal;stroke-linejoin:miter;font-size:12px;stroke-dashoffset:0;image-rendering:auto">
    <g style="stroke-linecap:round;fill:#7c4b80;stroke:#7c4b80">
        <path stroke="none" d="M.5 3V.5H2L4.5 3h2L8 4.5v1L10.5 8h2l1-1h1L18 3.5 19.5 5h1l3 3h1l3.5 3.5-1.5 1.5h-1l-.5.5v1L23.5 16l1.5 1.5v1l1 1v1l1 1v1l4.5 4.5v4.5H31L27.5 28h-2l-1-1h-1l-1-1h-1l-2-2h-4l-1 1h-1l-3 3h-4L4 25.5v-2l1-1v-1l1-1v-1l1-1v-1l1-1v-4L6.5 11h-1l-.5-.5v-1l-1-1v-1l-1-1v-1Z" style="stroke:none"/>
    </g>
    <g stroke="none" style="stroke-linecap:round;fill:#6b4474;stroke:#6b4474">
        <path d="M3 5.5v1l1 1v1l1 1v1l.5.5h1L8 12.5v4l-1 1v1l-1 1v1l-1 1v1l-1 1v2L6.5 28h4l3-3h1l1-1h4l2 2h1l1 1h1l1 1h2l3.5 3.5H.5V3Z" style="stroke:none"/>
        <path d="M2 .5h29.5V27L27 22.5v-1l-1-1v-1l-1-1v-1L23.5 16l1.5-1.5v-1l.5-.5h1l1.5-1.5L24.5 8h-1l-3-3h-1L18 3.5 14.5 7h-1l-1 1h-2L8 5.5v-1L6.5 3h-2Z" style="fill:#995d9a;stroke:none"/>
        <path d="M9 20.5v2l1.5 1.5h2l1.5-1.5v-2L12.5 19h-2Z" style="fill:#7c4b80;stroke:none"/>
        <path d="M9 22.5v-2l1.5-1.5h2l1.5 1.5v2L12.5 24h-2Z" style="fill:#7457ce;stroke:none"/>
        <path d="m12.5 12 3 3h2l3-3-3-3h-2Z" style="fill:#7c4b80;stroke:none"/>
        <path d="m12.5 12 3-3h2l3 3-3 3h-2Z" style="fill:#7457ce;stroke:none"/>
    </g>
</svg>
