<svg xmlns="http://www.w3.org/2000/svg" width="32" height="32" style="fill-opacity:1;color-rendering:auto;color-interpolation:auto;text-rendering:auto;stroke:#000;stroke-linecap:square;stroke-miterlimit:10;shape-rendering:auto;stroke-opacity:1;fill:#000;stroke-dasharray:none;font-weight:400;stroke-width:1;font-family:&quot;Dialog&quot;;font-style:normal;stroke-linejoin:miter;font-size:12px;stroke-dashoffset:0;image-rendering:auto">
    <g style="stroke-linecap:round;fill:#54545b;stroke:#54545b">
        <path stroke="none" d="M1 24.5v4L3.5 31h4l4.5-4.5v-4L10.5 21h-1L8 19.5 6.5 21h-1l-1 1h-1Z" style="stroke:none"/>
    </g>
    <g stroke="none" style="stroke-linecap:round;fill:#666;stroke:#666">
        <path d="M1 28.5v-4L3.5 22h1l1-1h1L8 19.5 9.5 21h1l1.5 1.5v4L7.5 31h-4Z" style="stroke:none"/>
        <path d="M3.5 6 6 8.5 8.5 6 6 3.5Z" style="fill:#54545b;stroke:none"/>
        <path d="M3.5 6 6 3.5 8.5 6 6 8.5Z" style="stroke:none"/>
        <path d="M19 14.5v5l2 2v1l1.5 1.5h3l2.5-2.5v-3l-1-1v-1l-1-1v-1L23.5 12h-2Z" style="fill:#54545b;stroke:none"/>
        <path d="M19 19.5v-5l2.5-2.5h2l2.5 2.5v1l1 1v1l1 1v3L25.5 24h-3L21 22.5v-1Z" style="stroke:none"/>
    </g>
</svg>
