<svg xmlns="http://www.w3.org/2000/svg" width="32" height="32" style="fill-opacity:1;color-rendering:auto;color-interpolation:auto;text-rendering:auto;stroke:#000;stroke-linecap:square;stroke-miterlimit:10;shape-rendering:auto;stroke-opacity:1;fill:#000;stroke-dasharray:none;font-weight:400;stroke-width:1;font-family:&quot;Dialog&quot;;font-style:normal;stroke-linejoin:miter;font-size:12px;stroke-dashoffset:0;image-rendering:auto">
    <g style="stroke-linecap:round;fill:#706f74;stroke:#706f74">
        <path stroke="none" d="M.5 8V.5H4l1 1v1l.5.5h1l1 1h13l1 1h1l.5.5v1l1 1v5l1 1v1l1 1v1l1 1v1l1 1v1l1 1v1l.5.5h1l1 1v7.5H28l-1-1v-1l-.5-.5h-1l-1-1h-1l-1-1h-1l-1-1h-1l-1-1h-1L16 23.5 14.5 25h-1l-.5.5v1l-.5.5h-1L10 28.5 8.5 27h-1l-.5-.5v-1l-.5-.5h-1l-.5-.5v-1L3.5 22 5 20.5v-1l.5-.5h1l.5-.5v-1L8.5 16 7 14.5v-1l-1-1v-1L4.5 10h-1l-1-1h-1Z" style="stroke:none"/>
    </g>
    <g stroke="none" style="stroke-linecap:round;fill:#52525c;stroke:#52525c">
        <path d="M1.5 9h1l1 1h1L6 11.5v1l1 1v1L8.5 16 7 17.5v1l-.5.5h-1l-.5.5v1L3.5 22 5 23.5v1l.5.5h1l.5.5v1l.5.5h1l1.5 1.5 1.5-1.5h1l.5-.5v-1l.5-.5h1l1.5-1.5 1.5 1.5h1l1 1h1l1 1h1l1 1h1l1 1h1l.5.5v1l1 1H.5V8Z" style="stroke:none"/>
        <path d="M4 .5h27.5V24l-1-1h-1l-.5-.5v-1l-1-1v-1l-1-1v-1l-1-1v-1l-1-1v-1l-1-1v-5l-1-1v-1l-.5-.5h-1l-1-1h-13l-1-1h-1L5 2.5v-1Z" style="fill:#8c8c8c;stroke:none"/>
        <path d="m11.5 12 1.5 1.5v1l.5.5h1l1.5 1.5 1.5-1.5h1l.5-.5v-1l1.5-1.5-1.5-1.5v-1l-.5-.5h-1L16 7.5 14.5 9h-1l-.5.5v1Z" style="fill:#706f74;stroke:none"/>
        <path d="m11.5 12 1.5-1.5v-1l.5-.5h1L16 7.5 17.5 9h1l.5.5v1l1.5 1.5-1.5 1.5v1l-.5.5h-1L16 16.5 14.5 15h-1l-.5-.5v-1Z" style="fill:#8c8c8c;stroke:none"/>
    </g>
</svg>
