<svg xmlns="http://www.w3.org/2000/svg" width="64" height="64" style="fill-opacity:1;color-rendering:auto;color-interpolation:auto;text-rendering:auto;stroke:#000;stroke-linecap:square;stroke-miterlimit:10;shape-rendering:auto;stroke-opacity:1;fill:#000;stroke-dasharray:none;font-weight:400;stroke-width:1;font-family:&quot;Dialog&quot;;font-style:normal;stroke-linejoin:miter;font-size:12px;stroke-dashoffset:0;image-rendering:auto">
    <g style="stroke-linecap:round;fill:#706f74;stroke:#706f74">
        <path stroke="none" d="M.5 4V.5H4l1 1v1l1 1v1L7.5 6h1l1 1h1L12 8.5 13.5 7h1l.5-.5v-1l.5-.5h1L18 3.5 19.5 5h1l.5.5v1l.5.5h1l1 1h5l1-1h1l.5-.5v-1l.5-.5h1L34 3.5 35.5 5h1l.5.5v1l.5.5h1l1 1h5l1-1h1l.5-.5v-1l.5-.5h1L50 3.5 51.5 5h1l.5.5v1l.5.5h1l1 1h3l2 2-1.5 1.5v1l-.5.5h-1l-.5.5v1L55.5 16l1.5 1.5v1l1 1v1l1 1v1l1.5 1.5-1.5 1.5v1l-.5.5h-1l-1 1h-3l-2 2 1.5 1.5v1l.5.5h1l.5.5v1l1 1v1l1 1v1l.5.5h1l.5.5v1l1.5 1.5-1.5 1.5v1l-.5.5h-1l-.5.5v1L55.5 48l1.5 1.5v1l1 1v1l1 1v1l1 1v1l1 1v1l.5.5h1l1 1v3.5H60l-1-1v-1l-.5-.5h-1l-1-1h-1l-1-1h-1l-1-1h-1l-1-1h-1l-1-1h-5l-1 1h-1l-.5.5v1l-.5.5h-1L38 60.5 36.5 59h-1l-.5-.5v-1l-1-1v-1l-1-1v-1l-.5-.5h-1L30 51.5 28.5 53h-1l-.5.5v1l-1 1v1l-1 1v1l-.5.5h-1L22 60.5 20.5 59h-1l-.5-.5v-1l-.5-.5h-1l-1-1h-11l-2-2L5 52.5v-1l.5-.5h1l.5-.5v-1l1-1v-9l-1-1v-1l-1-1v-1l-1-1v-1l-1-1v-5l1-1v-1l1-1v-1l1-1v-1l1-1v-5l-1-1v-1l-1-1v-1l-1-1v-1l-1-1v-1l-1-1v-1L2.5 5h-1Z" style="stroke:none"/>
    </g>
    <g stroke="none" style="stroke-linecap:round;fill:#52525c;stroke:#52525c">
        <path d="M1.5 5h1l.5.5v1l1 1v1l1 1v1l1 1v1l1 1v1l1 1v5l-1 1v1l-1 1v1l-1 1v1l-1 1v5l1 1v1l1 1v1l1 1v1l1 1v9l-1 1v1l-.5.5h-1l-.5.5v1L3.5 54l2 2h11l1 1h1l.5.5v1l.5.5h1l1.5 1.5 1.5-1.5h1l.5-.5v-1l1-1v-1l1-1v-1l.5-.5h1l1.5-1.5 1.5 1.5h1l.5.5v1l1 1v1l1 1v1l.5.5h1l1.5 1.5 1.5-1.5h1l.5-.5v-1l.5-.5h1l1-1h5l1 1h1l1 1h1l1 1h1l1 1h1l1 1h1l.5.5v1l1 1H.5V4Z" style="stroke:none"/>
        <path d="M4 .5h59.5V60l-1-1h-1l-.5-.5v-1l-1-1v-1l-1-1v-1l-1-1v-1l-1-1v-1L55.5 48l1.5-1.5v-1l.5-.5h1l.5-.5v-1l1.5-1.5-1.5-1.5v-1l-.5-.5h-1l-.5-.5v-1l-1-1v-1l-1-1v-1l-.5-.5h-1l-.5-.5v-1L51.5 30l2-2h3l1-1h1l.5-.5v-1l1.5-1.5-1.5-1.5v-1l-1-1v-1l-1-1v-1L55.5 16l1.5-1.5v-1l.5-.5h1l.5-.5v-1l1.5-1.5-2-2h-3l-1-1h-1l-.5-.5v-1l-.5-.5h-1L50 3.5 48.5 5h-1l-.5.5v1l-.5.5h-1l-1 1h-5l-1-1h-1l-.5-.5v-1l-.5-.5h-1L34 3.5 32.5 5h-1l-.5.5v1l-.5.5h-1l-1 1h-5l-1-1h-1l-.5-.5v-1l-.5-.5h-1L18 3.5 16.5 5h-1l-.5.5v1l-.5.5h-1L12 8.5 10.5 7h-1l-1-1h-1L6 4.5v-1l-1-1v-1Z" style="fill:#8c8c8c;stroke:none"/>
        <path d="m11.5 32 1.5 1.5v1l.5.5h1l1.5 1.5 1.5-1.5h1l.5-.5v-1l1.5-1.5-1.5-1.5v-1l-.5-.5h-1L16 27.5 14.5 29h-1l-.5.5v1Z" style="fill:#706f74;stroke:none"/>
        <path d="m11.5 32 1.5-1.5v-1l.5-.5h1l1.5-1.5 1.5 1.5h1l.5.5v1l1.5 1.5-1.5 1.5v1l-.5.5h-1L16 36.5 14.5 35h-1l-.5-.5v-1Z" style="stroke:none"/>
        <path d="m19.5 14 2.5 2.5 2.5-2.5-2.5-2.5Z" style="fill:#706f74;stroke:none"/>
        <path d="m19.5 14 2.5-2.5 2.5 2.5-2.5 2.5Z" style="fill:#8c8c8c;stroke:none"/>
        <path d="m39.5 16 1.5 1.5v1l.5.5h1l1.5 1.5 1.5-1.5h1l.5-.5v-1l1.5-1.5-1.5-1.5v-1l-.5-.5h-1L44 11.5 42.5 13h-1l-.5.5v1Z" style="fill:#706f74;stroke:none"/>
        <path d="m39.5 16 1.5-1.5v-1l.5-.5h1l1.5-1.5 1.5 1.5h1l.5.5v1l1.5 1.5-1.5 1.5v1l-.5.5h-1L44 20.5 42.5 19h-1l-.5-.5v-1Z" style="fill:#8c8c8c;stroke:none"/>
        <path d="m47.5 38 2.5 2.5 2.5-2.5-2.5-2.5Zm0 12 2.5 2.5 2.5-2.5-2.5-2.5Z" style="fill:#706f74;stroke:none"/>
        <path d="m47.5 38 2.5-2.5 2.5 2.5-2.5 2.5Zm0 12 2.5-2.5 2.5 2.5-2.5 2.5Z" style="fill:#8c8c8c;stroke:none"/>
    </g>
</svg>
