<svg xmlns="http://www.w3.org/2000/svg" width="32" height="32" style="fill-opacity:1;color-rendering:auto;color-interpolation:auto;text-rendering:auto;stroke:#000;stroke-linecap:square;stroke-miterlimit:10;shape-rendering:auto;stroke-opacity:1;fill:#000;stroke-dasharray:none;font-weight:400;stroke-width:1;font-family:&quot;Dialog&quot;;font-style:normal;stroke-linejoin:miter;font-size:12px;stroke-dashoffset:0;image-rendering:auto">
    <g style="stroke-linecap:round;fill:#54545b;stroke:#54545b">
        <path stroke="none" d="M4 6.5v2L7.5 12h2L12 9.5v-2L8.5 4h-2Z" style="stroke:none"/>
    </g>
    <g stroke="none" style="stroke-linecap:round;fill:#666;stroke:#666">
        <path d="M4 8.5v-2L6.5 4h2L12 7.5v2L9.5 12h-2Z" style="stroke:none"/>
        <path d="M7.5 22 9 23.5v1l1.5 1.5h1l1 1h1l1 1h3l2.5-2.5v-3L16.5 19h-1l-1-1h-3Z" style="fill:#54545b;stroke:none"/>
        <path d="m7.5 22 4-4h3l1 1h1l3.5 3.5v3L17.5 28h-3l-1-1h-1l-1-1h-1L9 24.5v-1Z" style="stroke:none"/>
        <path d="m23.5 10 2.5 2.5 2.5-2.5L26 7.5Z" style="fill:#54545b;stroke:none"/>
        <path d="M23.5 10 26 7.5l2.5 2.5-2.5 2.5Z" style="stroke:none"/>
    </g>
</svg>
