<svg xmlns="http://www.w3.org/2000/svg" width="32" height="32" style="fill-opacity:1;color-rendering:auto;color-interpolation:auto;text-rendering:auto;stroke:#000;stroke-linecap:square;stroke-miterlimit:10;shape-rendering:auto;stroke-opacity:1;fill:#000;stroke-dasharray:none;font-weight:400;stroke-width:1;font-family:&quot;Dialog&quot;;font-style:normal;stroke-linejoin:miter;font-size:12px;stroke-dashoffset:0;image-rendering:auto">
    <g style="stroke-linecap:round;fill:#54545b;stroke:#54545b">
        <path stroke="none" d="M3.5 6 6 8.5 8.5 6 6 3.5Z" style="stroke:none"/>
    </g>
    <g stroke="none" style="stroke-linecap:round;fill:#666;stroke:#666">
        <path d="M3.5 6 6 3.5 8.5 6 6 8.5Z" style="stroke:none"/>
        <path d="M8 25.5v3l2.5 2.5h4l1.5-1.5v-4L13.5 23h-3Z" style="fill:#54545b;stroke:none"/>
        <path d="M8 28.5v-3l2.5-2.5h3l2.5 2.5v4L14.5 31h-4Z" style="stroke:none"/>
        <path d="M16 13.5v4l2.5 2.5h3l1-1h1l3.5-3.5v-1l1-1v-3L26.5 9h-1L24 7.5 22.5 9h-1l-1 1h-1Z" style="fill:#54545b;stroke:none"/>
        <path d="M16 17.5v-4l3.5-3.5h1l1-1h1L24 7.5 25.5 9h1l1.5 1.5v3l-1 1v1L23.5 19h-1l-1 1h-3Z" style="stroke:none"/>
    </g>
</svg>
