<svg xmlns="http://www.w3.org/2000/svg" width="32" height="32" style="fill-opacity:1;color-rendering:auto;color-interpolation:auto;text-rendering:auto;stroke:#000;stroke-linecap:square;stroke-miterlimit:10;shape-rendering:auto;stroke-opacity:1;fill:#000;stroke-dasharray:none;font-weight:400;stroke-width:1;font-family:&quot;Dialog&quot;;font-style:normal;stroke-linejoin:miter;font-size:12px;stroke-dashoffset:0;image-rendering:auto">
    <g style="stroke-linecap:round;fill:#6b4474;stroke:#6b4474">
        <path stroke="none" d="M1 24.5v-3l3-3L5.5 20h1l1 1h2l1 1h1l1 1 3-3-4.5-4.5v-1l-1-1v-1l-2-2v-2L9.5 7h4l1 1h1l.5.5v1l.5.5h1l1.5 1.5 4-4 .5.5 1-1h2L29 9.5V12h-.5l-3 3h-1l-.5.5v1l-2 2 3 3v2l-1 1v2L20.5 30h-1l-1 1h-1l-.5.5h-6l-.5-.5h-1l-1-1h-1l-3-3h-1Z" style="stroke:none"/>
    </g>
</svg>
