<svg xmlns="http://www.w3.org/2000/svg" width="32" height="32" style="fill-opacity:1;color-rendering:auto;color-interpolation:auto;text-rendering:auto;stroke:#000;stroke-linecap:square;stroke-miterlimit:10;shape-rendering:auto;stroke-opacity:1;fill:#000;stroke-dasharray:none;font-weight:400;stroke-width:1;font-family:&quot;Dialog&quot;;font-style:normal;stroke-linejoin:miter;font-size:12px;stroke-dashoffset:0;image-rendering:auto">
    <g style="stroke-linecap:round;fill:#6b4474;stroke:#6b4474">
        <path stroke="none" d="M8 4.5v-2l2-2h4l.5.5h1l2 2h1l1 1h1l1-1h1l2-2h4L31 3.5v2l-1 1v1L27.5 10h-1L25 11.5v1L23.5 14l2 2h1l1.5 1.5v4L25.5 24h-2l-1-1h-1l-1-1h-1L14 16.5v-1l-2-2v-1l-1-1v-2l-1-1v-1l-1-1v-1Z" style="stroke:none"/>
    </g>
</svg>
