<svg xmlns="http://www.w3.org/2000/svg" width="32" height="32" style="fill-opacity:1;color-rendering:auto;color-interpolation:auto;text-rendering:auto;stroke:#000;stroke-linecap:square;stroke-miterlimit:10;shape-rendering:auto;stroke-opacity:1;fill:#000;stroke-dasharray:none;font-weight:400;stroke-width:1;font-family:&quot;Dialog&quot;;font-style:normal;stroke-linejoin:miter;font-size:12px;stroke-dashoffset:0;image-rendering:auto">
    <g style="stroke-linecap:round;fill:#925e46;stroke:#925e46">
        <path stroke="none" d="M3 10.5 7.5 15h3l4-4-5-5h-2Z" style="stroke:none"/>
    </g>
    <g stroke="none" style="stroke-linecap:round;fill:#ba914d;stroke:#ba914d">
        <path d="M3 10.5 7.5 6h2l5 5-4 4h-3Z" style="stroke:none"/>
        <path d="M15 21.5v2l2 2v1l1 1v1l2.5 2.5h3l3-3h1l2.5-2.5v-2l-2-2v-1L23.5 16h-2l-1 1h-1Z" style="fill:#925e46;stroke:none"/>
        <path d="M15 23.5v-2l4.5-4.5h1l1-1h2l4.5 4.5v1l2 2v2L27.5 28h-1l-3 3h-3L18 28.5v-1l-1-1v-1Z" style="stroke:none"/>
    </g>
</svg>
