<svg xmlns="http://www.w3.org/2000/svg" width="96" height="96" style="fill-opacity:1;color-rendering:auto;color-interpolation:auto;text-rendering:auto;stroke:#000;stroke-linecap:square;stroke-miterlimit:10;shape-rendering:auto;stroke-opacity:1;fill:#000;stroke-dasharray:none;font-weight:400;stroke-width:1;font-family:&quot;Dialog&quot;;font-style:normal;stroke-linejoin:miter;font-size:12px;stroke-dashoffset:0;image-rendering:auto">
    <g style="stroke-linecap:round;fill:#925e46;stroke:#925e46">
        <path stroke="none" d="M3 48.5v-3l1-1v-1l2-2v-3l-1-1v-2l-1-1v-3l1-1v-3l1-1v-1l1-1v-1l1-1v-1l3.5-3.5h1l1-1h1l2-2h2l1-1h1l2.5-2.5v-1L26.5 7h3L32 9.5 34.5 7h1l2-2h1l2-2h1l1-1h1l1-1h7l1 1h1l1 1h4l1 1h3l1 1h3l1-1h1l1-1h2l1-1h2l1-1h4l1 1h1L86 6.5v2L83.5 11l1.5 1.5v1l1.5 1.5-3.5 3.5v1L81.5 21l1.5 1.5v1l1.5 1.5h1l2.5 2.5v8l1 1v1l1 1v1l1 1v2l1 1v3l1 1v4l1 1v8l-1 1v2l-1 1v2L89.5 69h-1l-1 1h-1l-1 1h-2L81 73.5v1l-1 1v2l1 1v2l1 1v2L79.5 86h-2l-1-1h-1l-1-1h-2l-1 1h-1l-2 2h-1L66 88.5v2l-1 1v1L63.5 94h-1l-1 1h-4l-3-3h-1l-1-1h-3l-1 1h-4l-1 1h-1l-1 1h-3L35 90.5 33.5 92h-7l-1-1h-1l-1-1h-1L20 87.5v-1l-4-4v-2l-1-1v-4l-1-1v-1L10.5 70h-1L4 64.5v-1l-1-1v-5l1-1v-2L5.5 53 4 51.5v-2Z" style="stroke:none"/>
    </g>
    <g stroke="none" style="stroke-linecap:round;fill:#925e46;stroke:#925e46">
        <path d="M6 46.5v3l1 1v1l1 1v1l1 1v3l1 1v2l1 1v1l2 2v2l2 2v2l2.5 2.5h2l4.5 4.5v3l-2 2v4l1.5 1.5h1l1 1h3l1-1h1l3-3h1l1-1h3l1 1h1l1 1h2l1 1h3l1-1h4l1-1h3l1-1h1l1-1h6l1-1h1l1-1h1l2.5-2.5v-1l1.5-1.5-2-2H66v-1.5l-1-1 2.5-2.5 1 1H70v.5l1.5 1.5h2l1-1h1l2.5-2.5v-2l1-1v-3l.5-.5h1l2-2h1l3.5-3.5v-3l-1-1v-1l-1-1v-1l-2-2v-7l2-2v-6l-3-3v-1l-1-1v-1l-1-1v-4l-1-1v-1l-3-3v-1l-1-1v-1l-1-1v-2L71.5 8h-1l-1-1h-8l-2 2h-2L56 10.5l-3-3v-2L50.5 3h-4L44 5.5v1L41.5 9h-1l-2 2h-1l-2 2h-1l-1 1h-1l-1 1h-1L26 19.5l1.5 1.5h4l1-1h1l1-1h1l1-1h1l2-2h3l1-1h2l2-2h2l1 1h1l1 1h2l1 1-1 1h-1l-2 2h-1l-3 3h-1L44 24.5 42.5 23h-1l-2-2h-4l-1 1h-1l-4 4 2 2-.5.5-1.5-1.5h-2l-3 3h-2L18 34.5v2l-1 1v3l-1 1v2l-1 1v-6l1-1v-1l1-1v-1l1-1v-1l.5-.5h1l4-4h2l3-3-3-3h-1l-1-1h-4l-2 2h-2l-1-1h-1L12 20.5 8.5 24l1.5 1.5v2l2 2v5l-1 1v6l-1 1v1l-.5.5h-1Z" style="stroke:none"/>
        <path d="M6 49.5v-3L8.5 44h1l.5-.5v-1l1-1v-6l1-1v-5l-2-2v-2L8.5 24l3.5-3.5 1.5 1.5h1l1 1h2l2-2h4l1 1h1l3 3-3 3h-2l-4 4h-1l-.5.5v1l-1 1v1l-1 1v1l-1 1v14l1 1v1l1 1v2l1 1v5l1 1v1l3.5 3.5h1l1 1h1l7 7h1l1 1h3l1 1h1l1 1h2l1 1h5l1-1h2l1-1h3l2-2h6l2.5-2.5V74h5.5l2 2-1.5 1.5v1L69.5 81h-1l-1 1h-1l-1 1h-6l-1 1h-1l-1 1h-3l-1 1h-4l-1 1h-3l-1-1h-2l-1-1h-1l-1-1h-3l-1 1h-1l-3 3h-1l-1 1h-3l-1-1h-1L22 86.5v-4l2-2v-3L19.5 73h-2L15 70.5v-2l-2-2v-2l-2-2v-1l-1-1v-2l-1-1v-3l-1-1v-1l-1-1v-1Z" style="fill:#673126;stroke:none"/>
        <path d="M15 49.5v-5l1-1v-2l1-1v-3l1-1v-2l4.5-4.5h2l3-3h2l2 2-1.5 1.5v1L28.5 33h-1L26 34.5v1l-4 4v5l-1 1v3l1 1v1l1 1v2l1 1v1l4 4v3l2.5 2.5h1l1 1h1l1.5 1.5 1.5-1.5h2l8.5 8.5 1.5-1.5h1l2-2h1l2-2h3l1 1h1l1 1h4l1.5 1.5v2l-2 2-.5-.5h-9l-1 1h-2l-1 1h-1l-1 1h-2l-1-1h-1l-1-1h-2l-5-5h-1l-1-1h-3l-1-1h-2L24 65.5v-1l-2-2v-1L20.5 60h-1L18 58.5v-2l-1-1v-2l-1-1v-2Z" style="fill:#ba914d;stroke:none"/>
        <path d="m16 52.5 1 1v2l-1-1v-1l-1-1v-3l1 1Zm2 6-1-1v-2l1 1Zm1.5 1.5h1l1.5 1.5v1l2 2v1l4.5 4.5h2l1 1h3l1 1h1l5 5h2l1 1h1l1 1h2l1-1h1l1-1h2l1-1h9l.5.5-.5.5h-6l-2 2h-3l-1 1h-2l-1 1h-5l-1-1h-2l-1-1h-1l-1-1h-3l-1-1h-1l-7-7h-1l-1-1h-1L19 65.5v-1l-1-1v-5Z" style="stroke:none"/>
        <path d="M21 48.5v-3l1-1v-5l4-4v-1l1.5-1.5h1l1.5-1.5v-1l1.5-1.5-.5-.5.5-.5.5.5 1.5-1.5h3l2.5 2.5v1l3 3 5.5-5.5h1l5-5h5l3 3h1l2.5 2.5v2l-1 1v2l1 1v1l2.5 2.5h2l3.5 3.5v1l1 1v2l1.5 1.5-1.5 1.5v2l-1 1v1l-1 1v1l-1 1v1l-1 1v1L68.5 60h-1L65 62.5v3l1 1v1l1.5 1.5-2.5 2.5-.5-.5h-4l-1-1h-1l-1-1h-3l-2 2h-1l-2 2h-1L47 74.5 38.5 66h-2L35 67.5 33.5 66h-1l-1-1h-1L28 62.5v-3l-4-4v-1l-1-1v-2l-1-1v-1Z" style="fill:#37120f;stroke:none"/>
        <path d="m26 19.5 4.5-4.5h1l1-1h1l1-1h1l2-2h1l2-2h1L44 6.5v-1L46.5 3h4L53 5.5v2l3 3L57.5 9h2l2-2h8l1 1h1l2.5 2.5v2l1 1v1l1 1v1l3 3v1l1 1v4l1 1v1l1 1v1l3 3v6l-2 2v7l2 2v1l1 1v1l1 1v3L83.5 60h-1l-2 2h-1l-.5.5v3l-1 1v2L75.5 71h-1l-1 1h-2L70 70.5v-2l2-2v-2l1-1v-2l5-5v-1l1-1v-6l-1-1v-2l-1-1v-7l-1-1v-1l-1-1v-2l-1-1v-7l-1-1v-1l-3-3v-2l-.5-.5h-1l-1-1h-1l-1-1h-3l-1 1h-6l-1-1h-2l-1-1h-1l-1-1h-2l-2 2h-2l-1 1h-3l-2 2h-1l-1 1h-1l-1 1h-1l-1 1h-4Z" style="fill:#ba914d;stroke:none"/>
        <path d="m29.5 26 4-4h1l1-1h4l2 2h1l1.5 1.5 2.5-2.5h1l3-3h1l2-2h1l1-1h4l4.5 4.5v1l4.5 4.5h1l1.5 1.5v5l5 5v1l1 1v5l1 1v4l1 1v2l-2 2v1l-3 3v1l-2 2v5l-2 2V70h-1.5L66 67.5v-1l-1-1v-3l2.5-2.5h1l1.5-1.5v-1l1-1v-1l1-1v-1l1-1v-1l1-1v-2l1.5-1.5-1.5-1.5v-2l-1-1v-1L69.5 38h-2L65 35.5v-1l-1-1v-2l1-1v-2L62.5 26h-1l-3-3h-5l-5 5h-1L42 33.5l-3-3v-1L36.5 27h-3L32 28.5Z" style="fill:#673126;stroke:none"/>
        <path d="M59.5 16h2l1-1h3l1 1h1l1 1h1l.5.5v2l3 3v1l1 1v7l1 1v2l1 1v1l1 1v2l-1-1v-1l-5-5v-5L69.5 26h-1L64 21.5v-1ZM73 63.5l-1 1v-3l2-2v-1l3-3v-1l2-2v2l-1 1v1l-5 5Zm6-13-1-1v-2l1 1Z" style="stroke:none"/>
    </g>
</svg>
