<svg xmlns="http://www.w3.org/2000/svg" width="32" height="32" style="fill-opacity:1;color-rendering:auto;color-interpolation:auto;text-rendering:auto;stroke:#000;stroke-linecap:square;stroke-miterlimit:10;shape-rendering:auto;stroke-opacity:1;fill:#000;stroke-dasharray:none;font-weight:400;stroke-width:1;font-family:&quot;Dialog&quot;;font-style:normal;stroke-linejoin:miter;font-size:12px;stroke-dashoffset:0;image-rendering:auto">
    <g style="stroke-linecap:round;fill:#925e46;stroke:#925e46">
        <path stroke="none" d="M.5 4V.5H4l1 1v1l.5.5h1l1 1h11l1 1h1L23 7.5v1l1.5 1.5h1l3 3-2.5 2.5v2l2 2v1l1 1v1l2.5 2.5v6.5H31L27.5 28h-1l-1-1h-6l-1 1h-1l-1 1h-3l-1-1h-3l-6-6L5 20.5v-1l3-3v-3l-3-3v-1l-1-1v-1Z" style="stroke:none"/>
    </g>
    <g stroke="none" style="stroke-linecap:round;fill:#6d3c2d;stroke:#6d3c2d">
        <path d="M4 7.5v1l1 1v1l3 3v3l-3 3v1L3.5 22l6 6h3l1 1h3l1-1h1l1-1h6l1 1h1l3.5 3.5H.5V4Z" style="stroke:none"/>
        <path d="M4 .5h27.5V25L29 22.5v-1l-1-1v-1l-2-2v-2l2.5-2.5-3-3h-1L23 8.5v-1L20.5 5h-1l-1-1h-11l-1-1h-1L5 2.5v-1Z" style="fill:#ba914d;stroke:none"/>
        <path d="M9 8.5v3l1.5 1.5h2l2.5-2.5v-2L13.5 7h-3Z" style="fill:#925e46;stroke:none"/>
        <path d="M9 11.5v-3L10.5 7h3L15 8.5v2L12.5 13h-2Z" style="fill:#ba914d;stroke:none"/>
        <path d="M14 16.5v3l3.5 3.5h2l3.5-3.5v-2L19.5 14h-3Z" style="fill:#925e46;stroke:none"/>
        <path d="M14 19.5v-3l2.5-2.5h3l3.5 3.5v2L19.5 23h-2Z" style="fill:#ba914d;stroke:none"/>
    </g>
</svg>
