<svg xmlns="http://www.w3.org/2000/svg" width="32" height="32" style="fill-opacity:1;color-rendering:auto;color-interpolation:auto;text-rendering:auto;stroke:#000;stroke-linecap:square;stroke-miterlimit:10;shape-rendering:auto;stroke-opacity:1;fill:#000;stroke-dasharray:none;font-weight:400;stroke-width:1;font-family:&quot;Dialog&quot;;font-style:normal;stroke-linejoin:miter;font-size:12px;stroke-dashoffset:0;image-rendering:auto">
    <g style="stroke-linecap:round;fill:#ba914d;stroke:#ba914d">
        <path stroke="none" d="M.5 13V.5H8v6l-1 1v1L3.5 12h-1l-1 1Z" style="stroke:none"/>
    </g>
    <g stroke="none" style="stroke-linecap:round;fill:#925e46;stroke:#925e46">
        <path d="M.5 26V13h1l1-1h1L7 8.5v-1l1-1v-6h14l-1 1v5l1 1v1l.5.5h1l4 4h2l1 1h1v12h-3l-1 1h-1l-1 1h-1L22 30.5v1H8l-1-1v-1L5.5 28h-1l-2-2Z" style="stroke:none"/>
        <path d="M2 18.5v2L6.5 25h1l1 1h3l3.5-3.5v-1l1-1v-4L12.5 13h-4l-1 1h-1Z" style="stroke:none"/>
        <path d="M2 20.5v-2L6.5 14h1l1-1h4l3.5 3.5v4l-1 1v1L11.5 26h-3l-1-1h-1ZM4.5 28h1L7 29.5v1l1 1H.5V26h2ZM21 6.5v-5l1-1h9.5V14h-1l-1-1h-2l-4-4h-1l-.5-.5v-1Z" style="fill:#ba914d;stroke:none"/>
    </g>
</svg>
