<svg xmlns="http://www.w3.org/2000/svg" width="96" height="96" style="fill-opacity:1;color-rendering:auto;color-interpolation:auto;text-rendering:auto;stroke:#000;stroke-linecap:square;stroke-miterlimit:10;shape-rendering:auto;stroke-opacity:1;fill:#000;stroke-dasharray:none;font-weight:400;stroke-width:1;font-family:&quot;Dialog&quot;;font-style:normal;stroke-linejoin:miter;font-size:12px;stroke-dashoffset:0;image-rendering:auto">
    <g style="stroke-linecap:round;fill:#925e46;stroke:#925e46">
        <path stroke="none" d="M4 31.5v-2l1-1v-1l2-2v-1L9.5 22h1l1-1h2l2.5-2.5v-1l1.5-1.5h1l3.5-3.5v-1l1-1v-1L24.5 8h2l1-1h1l4-4h1l1-1h2l1 1h4l2 2h1l1 1h2l2-2h6l1 1h2l3 3h1L64 9.5 65.5 8h1l2-2h9l5.5 5.5v4l1 1v1l1 1v1l2 2v2l3 3v2l1 1v3l-2 2v2l1 1v1l3 3v4l2 2v3L89.5 56l1.5 1.5v6l-1 1v1l-2 2v1l-2 2v6l-1 1v3L81.5 84h-3l-1-1h-2L74 84.5v1L72.5 87h-1L70 88.5v1L67.5 92h-4l-1-1h-4l-1 1h-2l-2 2h-3l-2-2h-3l-1 1h-2l-1 1h-3l-4-4h-3l-1 1h-2l-1-1h-2l-4-4h-2l-2-2h-3l-1-1h-3L6 78.5v-1l-2-2v-2l1-1v-1l2-2v-8l-1-1v-1l-1-1v-2l-1-1v-6l2-2v-4l1-1v-6l-2-2v-2Z" style="stroke:none"/>
    </g>
    <g stroke="none" style="stroke-linecap:round;fill:#925e46;stroke:#925e46">
        <path d="M8 49.5v6l1 1v2l1 1v1l1 1v4l1.5 1.5-1.5 1.5v1l-2 2v1l-1 1v2l2 2v1l.5.5h4l1-1h7l1-1h2l1-1h3l4 4h1l1.5 1.5v4l1 1v2l1.5 1.5h3l1-1h2l1-1h3l2 2h3l1.5-1.5v-1l.5-.5h1l1.5-1.5v-1l1.5-1.5h8l1.5-1.5v-1l1-1v-1l1-1v-2L69.5 74h-2l-1 1h-1l-.5.5v1L63.5 78h-7L52 82.5 50.5 81h-4l-1-1h-3l-2-2h-1l-4-4h-1l-3-3h-3l-1-1h-1L25 68.5 23.5 70h-3L18 67.5v-1l-1-1v-2l-1-1v-5l1-1v4l3.5 3.5h1l1 1h7l1.5-1.5 2 2v3l1 1v1l2.5 2.5h1l3 3h1l2 2h2l1 1h3l1-1h3l1-1h8l3-3-1.5-1.5v-2l.5-.5h2l1-1h1l2.5-2.5v-1l1.5-1.5h1l.5-.5v-1l1-1v-1l1.5-1.5h1l.5-.5v-1l1-1v-5l1-1v-2l-1-1v-1l-1-1v-2L76.5 42l1.5-1.5v-4l1 1v2l1 1v2l2 2v2l1 1v1l1.5 1.5-3 3h-1l-.5.5v4l-2 2v3l-7 7v3l2.5 2.5h3l1.5-1.5v-1l3-3v-2l3-3v-7l7-7v-3L89.5 46h-1L87 44.5v-1l-1-1v-1l-1-1v-2l-1-1v-1l-1-1v-2l1-1v-4l1-1v-2L83.5 24h-3L78 21.5v-2l1-1v-3L77.5 14h-2L74 15.5l-2-2v-1L70.5 11h-3l-1 1h-1l-1 1h-8l-2-2h-4l-1-1h-2l-1-1h-4l-2-2h-3l-1-1h-2l-1 1h-1L31 8.5v2l-1 1v1L26.5 16l3 3h3l2-2h2l1-1h2l2-2h3l1 1h1l1 1h1l1 1h1l1 1h1l.5.5-1.5 1.5h-2l-1-1h-1l-2-2h-3l-1 1h-1l-1 1h-1l-1 1h-2l-2 2h-1l-.5.5v1l-1 1v1L29.5 27 28 25.5l-6 6v3l-.5.5-1.5-1.5v-4l1-1v-1l1.5-1.5h1l.5-.5v-1l1-1v-2l1.5-1.5-1-1h-2l-3 3h-1l-3 3h-1L14 26.5v3l-1 1v3l-1 1v5l-1 1v2l-1 1v4Z" style="stroke:none"/>
        <path d="M8 55.5v-6l2-2v-4l1-1v-2l1-1v-5l1-1v-3l1-1v-3l1.5-1.5h1l3-3h1l3-3h2l1 1-1.5 1.5v2l-1 1v1l-.5.5h-1L21 27.5v1l-1 1v4l1.5 1.5-1.5 1.5v1l-5 5v5l-1 1v3l3 3v2l-1 1v5l1 1v2l1 1v1l2.5 2.5h3l1.5-1.5 1.5 1.5h1l1 1h3l3 3h1l4 4h1l2 2h3l1 1h4l1.5 1.5 4.5-4.5h7l1.5-1.5v-1l.5-.5h1l1-1h2l1.5 1.5v2l-1 1v1l-1 1v1L67.5 83h-8L58 84.5v1L56.5 87h-1l-.5.5v1L53.5 90h-3l-2-2h-3l-1 1h-2l-1 1h-3L37 88.5v-2l-1-1v-4L34.5 80h-1l-4-4h-3l-1 1h-2l-1 1h-7l-1 1h-4l-.5-.5v-1l-2-2v-2l1-1v-1l2-2v-1l1.5-1.5-1.5-1.5v-4l-1-1v-1l-1-1v-2Z" style="fill:#673126;stroke:none"/>
        <path d="M14 51.5v-3l1-1v-5l3.5-3.5.5.5v2l-1 1v1l-1 1v7l1.5 1.5-1.5 1.5Z" style="stroke:none"/>
        <path d="M17 51.5v-7l1-1v-1l1-1v-2l-.5-.5 1.5-1.5v-1l2-2v-3l6-6 2.5 2.5-1.5 1.5v1l-3 3v2l-1 1v1l-1 1v1l-2 2v3l-1 1v8l1 1v2l1 1v1l2.5 2.5h4l1-1h3l2.5 2.5v4l3.5 3.5h1l4 4h2l1.5 1.5 1.5-1.5h2l1-1h4l1-1h4l1-1H64v1.5l1.5 1.5-3 3h-8l-1 1h-3l-1 1h-3l-1-1h-2l-2-2h-1l-3-3h-1L34 70.5v-1l-1-1v-3l-2-2-1.5 1.5h-7l-1-1h-1L17 60.5v-6l1.5-1.5Z" style="fill:#ba914d;stroke:none"/>
        <path d="M21 53.5v-8l1-1v-3l2-2v-1l1-1v-1l1-1v-2l3-3v-1l1.5-1.5h2l3-3h1l3-3h1l1-1h3l1 1h1l1 1h9l1 1h2l1 1h1l2.5 2.5v1l3.5 3.5h1l1 1h2l.5.5v2l1 1v3l1 1v1l1 1v10l-3 3v1L70.5 58h-1l-1 1h-1L65 61.5v1l-1 1v3l1 1V70h-.5l-.5.5v.5h-1.5l-1 1h-4l-1 1h-4l-1 1h-2L48 75.5 46.5 74h-2l-4-4h-1L36 66.5v-4L33.5 60h-3l-1 1h-4L23 58.5v-1l-1-1v-2Z" style="fill:#37120f;stroke:none"/>
        <path d="m26.5 16 3.5-3.5v-1l1-1v-2L32.5 7h1l1-1h2l1 1h3l2 2h4l1 1h2l1 1h4l2 2h8l1-1h1l1-1h3l1.5 1.5v1l2 2 1.5-1.5h2l1.5 1.5v3l-1 1v2l2.5 2.5h3l1.5 1.5v2l-1 1v4l-1 1v2l1 1v1l1 1v2l1 1v1l1 1v1l1.5 1.5h1l1.5 1.5v3l-7 7v7l-3 3v2l-3 3v1L76.5 75h-3L71 72.5v-3l7-7v-3l2-2v-4l.5-.5h1l3-3-1.5-1.5v-1l-1-1v-2l-2-2v-2l-1-1v-2l-1-1v-2l-1-1v-2l-2-2v-2l-1-1v-2l-1-1v-2L69.5 18h-2l-2 2h-6l-1-1h-5l-1-1h-1l-1-1h-1l-1-1h-1l-1-1h-1l-1-1h-3l-2 2h-2l-1 1h-2l-2 2h-3Z" style="fill:#ba914d;stroke:none"/>
        <path d="m30.5 28-1-1 1.5-1.5v-1l1-1v-1l.5-.5h1l2-2h2l1-1h1l1-1h1l1-1h3l2 2h1l1 1h2l1.5-1.5.5.5h5l1 1h2l1 1h1l7 7h1l2 2h1l2.5 2.5v2l1 1v5L76.5 42l1.5 1.5v2l1 1v1l1 1v2l-1 1v5l-1 1v1l-.5.5h-1L75 60.5v1l-1 1v1l-.5.5h-1L71 65.5v1L68.5 69h-1l-1 1H65v-2.5l-1-1v-3l1-1v-1l2.5-2.5h1l1-1h1l1.5-1.5v-1l3-3v-10l-1-1v-1l-1-1v-3l-1-1v-2l-.5-.5h-2l-1-1h-1L64 28.5v-1L61.5 25h-1l-1-1h-2l-1-1h-9l-1-1h-1l-1-1h-3l-1 1h-1l-3 3h-1l-3 3Z" style="fill:#673126;stroke:none"/>
        <path d="m62.5 21-1-1h4l2-2h2l3.5 3.5v2l1 1v2l1 1v2l2 2v1L74.5 30h-1l-2-2h-1l-7-7ZM78 35.5l-1-1v-1l1 1Z" style="stroke:none"/>
    </g>
</svg>
