<svg xmlns="http://www.w3.org/2000/svg" width="32" height="32" style="fill-opacity:1;color-rendering:auto;color-interpolation:auto;text-rendering:auto;stroke:#000;stroke-linecap:square;stroke-miterlimit:10;shape-rendering:auto;stroke-opacity:1;fill:#000;stroke-dasharray:none;font-weight:400;stroke-width:1;font-family:&quot;Dialog&quot;;font-style:normal;stroke-linejoin:miter;font-size:12px;stroke-dashoffset:0;image-rendering:auto">
    <g style="stroke-linecap:round;fill:#925e46;stroke:#925e46">
        <path stroke="none" d="M.5 4V.5H4l1 1v1l8 8 2-2v-1L17.5 5h4L23 6.5v3L20.5 12l2 2h2l1 1h1l1.5 1.5v5l1.5 1.5h1l1 1v7.5H28L24.5 28h-1l-1-1h-1l-1-1h-12l-1-1h-1l-2-2L7 20.5v-3l-2-2v-1l-2-2v-2l1-1v-2l-1-1v-1L2.5 5h-1Z" style="stroke:none"/>
    </g>
    <g stroke="none" style="stroke-linecap:round;fill:#6d3c2d;stroke:#6d3c2d">
        <path d="M1.5 5h1l.5.5v1l1 1v2l-1 1v2l2 2v1l2 2v3L4.5 23l2 2h1l1 1h12l1 1h1l1 1h1l3.5 3.5H.5V4Z" style="stroke:none"/>
        <path d="M4 .5h27.5V24l-1-1h-1L28 21.5v-5L26.5 15h-1l-1-1h-2l-2-2L23 9.5v-3L21.5 5h-4L15 7.5v1l-2 2-8-8v-1Z" style="fill:#ba914d;stroke:none"/>
        <path d="M11 15.5v2l3.5 3.5h3l2.5-2.5v-2L16.5 13h-2l-1 1h-1Z" style="fill:#925e46;stroke:none"/>
        <path d="M11 17.5v-2l1.5-1.5h1l1-1h2l3.5 3.5v2L17.5 21h-3Z" style="fill:#ba914d;stroke:none"/>
    </g>
</svg>
