<svg xmlns="http://www.w3.org/2000/svg" width="32" height="32" style="fill-opacity:1;color-rendering:auto;color-interpolation:auto;text-rendering:auto;stroke:#000;stroke-linecap:square;stroke-miterlimit:10;shape-rendering:auto;stroke-opacity:1;fill:#000;stroke-dasharray:none;font-weight:400;stroke-width:1;font-family:&quot;Dialog&quot;;font-style:normal;stroke-linejoin:miter;font-size:12px;stroke-dashoffset:0;image-rendering:auto">
    <g style="stroke-linecap:round;fill:#fff;stroke:#fff">
        <path stroke="none" d="M6 14.5v-7L10.5 3h11L26 7.5v7l-2 2v8L20.5 28l-.5-.5v-3l-4-4v-2l-1-1-1 1v6l-.5.5-3.5-3.5v-3Z" style="stroke:none"/>
    </g>
    <g style="stroke-linecap:round;fill:#fff;stroke:#fff">
        <path stroke="none" d="M6 28.5v-3L9.5 22l.5.5v6l-2 2Zm4-19v3l1 1 3-3v-3l-1-1Zm8 0v3l3.5 3.5.5-.5v-4l-3-3Z" style="stroke:none"/>
    </g>
</svg>
