<svg xmlns="http://www.w3.org/2000/svg" width="64" height="64" style="fill-opacity:1;color-rendering:auto;color-interpolation:auto;text-rendering:auto;stroke:#000;stroke-linecap:square;stroke-miterlimit:10;shape-rendering:auto;stroke-opacity:1;fill:#000;stroke-dasharray:none;font-weight:400;stroke-width:1;font-family:&quot;Dialog&quot;;font-style:normal;stroke-linejoin:miter;font-size:12px;stroke-dashoffset:0;image-rendering:auto">
    <g style="stroke-linecap:round;fill:#d4816b;stroke:#d4816b">
        <path stroke="none" d="M.5 29v-5h7l.5.5-4 4v.5Z" style="stroke:none"/>
    </g>
    <g stroke="none" style="stroke-linecap:round;fill:#6e7080;stroke:#6e7080">
        <path d="M.5 35v-6H4v6Z" style="stroke:none"/>
        <path d="M.5 40v-5H4v.5l4 4-.5.5Z" style="fill:#d4816b;stroke:none"/>
        <path d="M.5 24 12 12.5l4 4-8 8-.5-.5Zm0 16h7l.5-.5L24.5 56l-.5.5v7Z" style="stroke:none"/>
        <path d="M4 29v-.5l4-4 3.5 3.5h.5v8h-.5L8 39.5l-4-4V35h1.5l3-3-3-3Z" style="fill:#eab678;stroke:none"/>
        <path d="M4 35v-6h1.5l3 3-3 3Zm4-10.5 8-8-4-4 .5-.5 4 4 8-8 3.5 3.5v.5h-1.5l-7 7 4.5 4.5 3.5-3.5h9l7.5 7.5v9L40.5 40l4.5 4.5 7-7V36h.5l3.5 3.5-8 8 4 4-.5.5-4-4-8 8-3.5-3.5V52h1.5l7-7-4.5-4.5-3.5 3.5h-9L20 36.5v-9l3.5-3.5-4.5-4.5-7 7V28h-.5Zm0 15 3.5-3.5h.5v1.5L26.5 52H28v.5L24.5 56Z" style="fill:#989aa4;stroke:none"/>
        <path d="M12 28v-1.5l7-7 4.5 4.5-3.5 3.5v3L17.5 28Z" style="stroke:none"/>
        <path d="M12 36v-8h5.5l2.5 2.5v3L17.5 36Z" style="fill:#d4816b;stroke:none"/>
        <path d="M12 37.5V36h5.5l2.5-2.5v3l7.5 7.5h3L28 46.5V52h-1.5Z" style="stroke:none"/>
        <path d="M12.5 12 24 .5v7l.5.5-8 8Zm7 7 7-7H28v5.5l2.5 2.5h-3L24 23.5Z" style="fill:#b0bac0;stroke:none"/>
        <path d="M24 29.5v5l5.5 5.5h5l2.5-2.5L26.5 27Z" style="fill:#989aa4;stroke:none"/>
        <path d="m24.5 8-.5-.5v-7h5V4h-.5Z" style="fill:#ffd37f;stroke:none"/>
        <path d="M24 34.5v-5l2.5-2.5L37 37.5 34.5 40h-5Z" style="stroke:none"/>
        <path d="M28.5 60h.5v3.5h-5v-7l.5-.5Z" style="fill:#d4816b;stroke:none"/>
        <path d="m24.5 8 4-4h.5v1.5l3 3 3-3V4h.5l4 4-3.5 3.5v.5h-8v-.5Zm0 48 3.5-3.5V52h8v.5l3.5 3.5-4 4H35v-1.5l-3-3-3 3V60h-.5Z" style="fill:#eab678;stroke:none"/>
        <path d="M27 26.5 37.5 37l2.5-2.5v-5L34.5 24h-5Z" style="fill:#989aa4;stroke:none"/>
        <path d="m27 26.5 2.5-2.5h5l5.5 5.5v5L37.5 37Z" style="fill:#b0bac0;stroke:none"/>
        <path d="M28 17.5V12h8v5.5L33.5 20h-3Z" style="fill:#ffd37f;stroke:none"/>
        <path d="M28 52v-5.5l2.5-2.5h3l2.5 2.5V52Z" style="fill:#d4816b;stroke:none"/>
        <path d="M29 4V.5h6V4Z" style="fill:#b0bac0;stroke:none"/>
        <path d="M29 5.5V4h6v1.5l-3 3ZM29 60v-1.5l3-3 3 3V60Z" style="fill:#989aa4;stroke:none"/>
        <path d="m33.5 20 2.5-2.5V12h1.5L52 26.5V28h-5.5L44 30.5v-3L36.5 20Z" style="fill:#b0bac0;stroke:none"/>
        <path d="M33.5 44h3l3.5-3.5 4.5 4.5-7 7H36v-5.5ZM35 63.5h-6V60h6Z" style="stroke:none"/>
        <path d="M35.5 4H35V.5h5v7l-.5.5Z" style="fill:#ffd37f;stroke:none"/>
        <path d="M36 12v-.5L39.5 8 56 24.5 52.5 28H52v-1.5L37.5 12Z" style="fill:#989aa4;stroke:none"/>
        <path d="M40 63.5h-5V60h.5l4-4 .5.5Z" style="fill:#d4816b;stroke:none"/>
        <path d="M63.5 24h-7l-.5.5L39.5 8l.5-.5v-7Z" style="fill:#b0bac0;stroke:none"/>
        <path d="M40 63.5v-7l-.5-.5 8-8 4 4Z" style="stroke:none"/>
        <path d="m40.5 40 3.5-3.5v-3l2.5 2.5H52v1.5l-7 7Z" style="fill:#b0bac0;stroke:none"/>
        <path d="M44 33.5v-3l2.5-2.5H52v8h-5.5Z" style="fill:#ffd37f;stroke:none"/>
        <path d="m48 47.5 8-8 .5.5h7L52 51.5Z" style="fill:#b0bac0;stroke:none"/>
        <path d="M52.5 36H52v-8h.5l3.5-3.5 4 4v.5h-1.5l-3 3 3 3H60v.5l-4 4Z" style="fill:#eab678;stroke:none"/>
        <path d="m56 24.5.5-.5h7v5H60v-.5Z" style="fill:#ffd37f;stroke:none"/>
        <path d="m55.5 32 3-3H60v6h-1.5Z" style="fill:#989aa4;stroke:none"/>
        <path d="m56.5 40-.5-.5 4-4V35h3.5v5Z" style="fill:#ffd37f;stroke:none"/>
        <path d="M60 35v-6h3.5v6Z" style="fill:#b0bac0;stroke:none"/>
    </g>
</svg>
