<svg xmlns="http://www.w3.org/2000/svg" width="96" height="96" style="fill-opacity:1;color-rendering:auto;color-interpolation:auto;text-rendering:auto;stroke:#000;stroke-linecap:square;stroke-miterlimit:10;shape-rendering:auto;stroke-opacity:1;fill:#000;stroke-dasharray:none;font-weight:400;stroke-width:1;font-family:&quot;Dialog&quot;;font-style:normal;stroke-linejoin:miter;font-size:12px;stroke-dashoffset:0;image-rendering:auto">
    <g style="stroke-linecap:round;fill:#989aa4;stroke:#989aa4">
        <path stroke="none" d="M.5 1V.5H1l9 9L11.5 8h1l-2 2 7.5 7.5 1.5-1.5h15l4 4h19l4-4h15l3.5 3.5v15l-4 4v19l4 4v15L78.5 78l7.5 7.5 1.5-1.5h.5v.5L86.5 86l9 9v.5H95l-9-9-1.5 1.5h-1l2-2-7.5-7.5-1.5 1.5h-15l-4-4h-19l-4 4h-15L16 76.5v-15l4-4v-19l-4-4v-15l1.5-1.5-7.5-7.5L8.5 12H8v-.5L9.5 10Z" style="stroke:none"/>
    </g>
    <g stroke="none" style="stroke-linecap:round;fill:#6e7080;stroke:#6e7080">
        <path d="M9.5 10 8 11.5V27h-.5l-7 7V1Z" style="stroke:none"/>
        <path d="M.5 62V34l7-7H8v17h-.5l-4 4 4 4H8v17h-.5Z" style="fill:#d4816b;stroke:none"/>
        <path d="M7.5 69H8v15.5l3.5 3.5H27v.5l7 7H.5V62Z" style="stroke:none"/>
        <path d="M1 .5h33l-7 7V8H11.5L10 9.5Z" style="fill:#b0bac0;stroke:none"/>
        <path d="m3.5 48 4-4H8v8h-.5Z" style="stroke:none"/>
        <path d="M8.5 27H8V12h.5l1.5-1.5 7.5 7.5-1.5 1.5v15Z" style="fill:#b0bac0;stroke:none"/>
        <path d="M16 34.5v27L8.5 69H8V52h.5l4-4-4-4H8V27h.5Z" style="fill:#ffd37f;stroke:none"/>
        <path d="m12.5 48-4 4H8v-8h.5ZM8 83.5V69h.5l7.5-7.5v15l3.5 3.5h15L27 87.5v.5H12v-.5Z" style="fill:#b0bac0;stroke:none"/>
        <path d="m9 85.5-1-1v-1l1 1Z" style="fill:#989aa4;stroke:none"/>
        <path d="m11 87.5-3-3v-1l3 3Z" style="fill:#989aa4;stroke:none"/>
        <path d="m10.5 10 2-2H27v.5l7.5 7.5h-15L18 17.5Z" style="stroke:none"/>
        <path d="M20 38.5v19l-4 4v-27Z" style="fill:#eab678;stroke:none"/>
        <path d="M20 23.5v4l.5.5h4l3.5-3.5v-4l-.5-.5h-4Zm0 45v4l3.5 3.5h4l.5-.5v-4L24.5 68h-4Z" style="fill:#989aa4;stroke:none"/>
        <path d="m20.5 28-.5-.5v-4l3.5-3.5h4l.5.5v4L24.5 28ZM20 72.5v-4l.5-.5h4l3.5 3.5v4l-.5.5h-4Z" style="stroke:none"/>
        <path d="M24 38.5v19L38.5 72h19L72 57.5v-19L57.5 24h-19Z" style="fill:#989aa4;stroke:none"/>
        <path d="M24 57.5v-19L38.5 24h19L72 38.5v19L57.5 72h-19Z" style="stroke:none"/>
        <path d="M27 8v-.5l7-7h28l7 7V8H52v-.5l-4-4-4 4V8Z" style="fill:#ffd37f;stroke:none"/>
        <path d="M27 8.5V8h17v.5l4 4 4-4V8h17v.5L61.5 16h-27Z" style="fill:#d4816b;stroke:none"/>
        <path d="M27 88v-.5l7.5-7.5h27l7.5 7.5v.5H52v-.5l-4-4-4 4v.5Z" style="fill:#ffd37f;stroke:none"/>
        <path d="M27 88.5V88h17v.5l4 4 4-4V88h17v.5l-7 7H34Z" style="fill:#d4816b;stroke:none"/>
        <path d="M32 42.5v11L42.5 64h11L64 53.5v-11L53.5 32h-11Z" style="stroke:none"/>
        <path d="M32 53.5v-11L42.5 32h11L64 42.5v11L53.5 64h-11Z" style="fill:#989aa4;stroke:none"/>
        <path d="M34.5 16h27l-4 4h-19Zm0 64 4-4h19l4 4Z" style="fill:#eab678;stroke:none"/>
        <path d="M44 8v-.5l4-4 4 4V8Z" style="fill:#b0bac0;stroke:none"/>
        <path d="M44 8.5V8h8v.5l-4 4Z" style="stroke:none"/>
        <path d="M44 88v-.5l4-4 4 4v.5Z" style="fill:#b0bac0;stroke:none"/>
        <path d="M44 88.5V88h8v.5l-4 4Z" style="stroke:none"/>
        <path d="M62 .5h33.5V34l-7-7H88V11.5L84.5 8H69v-.5Z" style="fill:#b0bac0;stroke:none"/>
        <path d="M61.5 16 69 8.5V8h15v.5l4 4V27h-.5L80 34.5v-15L76.5 16Z" style="stroke:none"/>
        <path d="M61.5 80h15l1.5-1.5 7.5 7.5-2 2H69v-.5Z" style="fill:#b0bac0;stroke:none"/>
        <path d="M68 20.5v4l3.5 3.5h4l.5-.5v-4L72.5 20h-4Zm0 51v4l.5.5h4l3.5-3.5v-4l-.5-.5h-4Z" style="fill:#989aa4;stroke:none"/>
        <path d="M68 24.5v-4l.5-.5h4l3.5 3.5v4l-.5.5h-4Zm.5 51.5-.5-.5v-4l3.5-3.5h4l.5.5v4L72.5 76Z" style="stroke:none"/>
        <path d="M76 57.5v-19l4-4v27Z" style="fill:#eab678;stroke:none"/>
        <path d="m78.5 78 1.5-1.5v-15l7.5 7.5h.5v15h-.5L86 85.5Z" style="stroke:none"/>
        <path d="M80 61.5v-27l7.5-7.5h.5v17h-.5l-4 4 4 4h.5v17h-.5Z" style="fill:#d4816b;stroke:none"/>
        <path d="m85 9.5-1-1V8h.5l.5.5Z" style="fill:#989aa4;stroke:none"/>
        <path d="m83.5 48 4-4h.5v8h-.5Z" style="stroke:none"/>
        <path d="m87 11.5-3-3V8h.5l2.5 2.5Z" style="fill:#989aa4;stroke:none"/>
        <path d="M95 95.5H62l7-7V88h15.5l1.5-1.5Z" style="stroke:none"/>
        <path d="m86.5 86 1.5-1.5V69h.5l7-7v33Z" style="fill:#b0bac0;stroke:none"/>
        <path d="M95.5 34v28l-7 7H88V52h.5l4-4-4-4H88V27h.5Z" style="fill:#ffd37f;stroke:none"/>
        <path d="m92.5 48-4 4H88v-8h.5Z" style="fill:#b0bac0;stroke:none"/>
    </g>
</svg>
