<svg xmlns="http://www.w3.org/2000/svg" width="32" height="32" style="fill-opacity:1;color-rendering:auto;color-interpolation:auto;text-rendering:auto;stroke:#000;stroke-linecap:square;stroke-miterlimit:10;shape-rendering:auto;stroke-opacity:1;fill:#000;stroke-dasharray:none;font-weight:400;stroke-width:1;font-family:&quot;Dialog&quot;;font-style:normal;stroke-linejoin:miter;font-size:12px;stroke-dashoffset:0;image-rendering:auto">
    <g style="stroke-linecap:round;fill:#665c9f;stroke:#665c9f">
        <path stroke="none" d="M.5 4V.5H3l2 2v5L1.5 4Z" style="stroke:none"/>
    </g>
    <g stroke="none" style="stroke-linecap:round;fill:#8a73c6;stroke:#8a73c6">
        <path d="M.5 13V4h1L5 7.5v7l-.5.5h-2Z" style="stroke:none"/>
        <path d="M2.5 15H3v4h-.5l-2 2v-8Z" style="fill:#665c9f;stroke:none"/>
        <path d="M.5 25v-4l2-2h2l.5.5v3L9.5 27h5l.5.5v2l-2 2H7Z" style="stroke:none"/>
        <path d="M3 .5h6L12.5 4h7L23 .5h5v1L30.5 4h-2L27 2.5 25.5 4h-1L21 7.5v1l-1 1v3L16.5 16h-3L6 23.5l-1-1v-3l-.5-.5H3v-4h1.5l.5-.5v-12Z" style="fill:#4a4b53;stroke:none"/>
        <path d="m6 23.5 7.5-7.5h3l3.5-3.5v-3l1-1v-1L24.5 4h1L27 2.5 28.5 4h3v10L28 10.5v-1l-2-2-2 2v5l-1 1v1L20.5 19h-1l-1 1h-3l-1 1h-1l-5 5Zm3-23h14L19.5 4h-7Z" style="fill:#6e7080;stroke:none"/>
        <path d="m9.5 27-1-1 5-5h1l1-1h3l1-1h1l2.5-2.5v-1l1-1v-5l2-2 2 2v1l3.5 3.5v4L28 21.5V27h-8.5l-.5.5V29h-4v-1.5l-.5-.5Z" style="fill:#4a4b53;stroke:none"/>
        <path d="M21 31.5h-8l2-2V29h4v.5Z" style="fill:#665c9f;stroke:none"/>
        <path d="M19 29.5v-2l.5-.5h5l3.5 3.5v1h-7Z" style="stroke:none"/>
        <path d="M24.5 27h4l2 2h1v2.5H28v-1ZM28 1.5v-1h3.5V4h-1Z" style="fill:#665c9f;stroke:none"/>
        <path d="M28.5 27H28v-5.5l3.5-3.5v11h-1Z" style="fill:#6e7080;stroke:none"/>
    </g>
</svg>
