<svg xmlns="http://www.w3.org/2000/svg" width="32" height="32" style="fill-opacity:1;color-rendering:auto;color-interpolation:auto;text-rendering:auto;stroke:#000;stroke-linecap:square;stroke-miterlimit:10;shape-rendering:auto;stroke-opacity:1;fill:#000;stroke-dasharray:none;font-weight:400;stroke-width:1;font-family:&quot;Dialog&quot;;font-style:normal;stroke-linejoin:miter;font-size:12px;stroke-dashoffset:0;image-rendering:auto">
    <g style="stroke-linecap:round;fill:#665c9f;stroke:#665c9f">
        <path stroke="none" d="M.5 4V.5H3l2 2v5L1.5 4Z" style="stroke:none"/>
    </g>
    <g stroke="none" style="stroke-linecap:round;fill:#8a73c6;stroke:#8a73c6">
        <path d="M.5 13V4h1L5 7.5v7l-.5.5h-2Z" style="stroke:none"/>
        <path d="M2.5 15H3v4h-.5l-2 2v-8Z" style="fill:#665c9f;stroke:none"/>
        <path d="M.5 25v-4l2-2h2l.5.5v3L9.5 27h5l.5.5v2l-2 2H7Z" style="stroke:none"/>
        <path d="M3 .5h25v1L30.5 4h1v25h-1l-2-2H24v-3.5l4-4v-7L24.5 9l1-1h1l2-2-2-2h-5l-4 4h-3l-4-4H5V2.5Z" style="fill:#4a4b53;stroke:none"/>
        <path d="M3 19v-4h1.5l.5-.5V8h3.5l4 4h9l2.5 2.5v3l-4 4V27h-.5l-.5.5V29h-4v-1.5l-.5-.5h-5L5 22.5v-3l-.5-.5Z" style="fill:#4a4b53;stroke:none"/>
        <path d="M5 8V4h5.5l4 4h3l4-4h5l2 2-2 2h-1l-1 1 3.5 3.5v7l-4 4V27h-4v-5.5l4-4v-3L21.5 12h-9l-4-4Z" style="fill:#6e7080;stroke:none"/>
        <path d="M21 31.5h-8l2-2V29h4v.5Z" style="fill:#665c9f;stroke:none"/>
        <path d="M19 29.5v-2l.5-.5h5l3.5 3.5v1h-7Z" style="stroke:none"/>
        <path d="M24.5 27h4l2 2h1v2.5H28v-1ZM28 1.5v-1h3.5V4h-1Z" style="fill:#665c9f;stroke:none"/>
    </g>
</svg>
