<svg xmlns="http://www.w3.org/2000/svg" width="32" height="32" style="fill-opacity:1;color-rendering:auto;color-interpolation:auto;text-rendering:auto;stroke:#000;stroke-linecap:square;stroke-miterlimit:10;shape-rendering:auto;stroke-opacity:1;fill:#000;stroke-dasharray:none;font-weight:400;stroke-width:1;font-family:&quot;Dialog&quot;;font-style:normal;stroke-linejoin:miter;font-size:12px;stroke-dashoffset:0;image-rendering:auto">
    <g style="stroke-linecap:round;fill:#665c9f;stroke:#665c9f">
        <path stroke="none" d="M.5 4V.5H3l2 2v5L1.5 4Z" style="stroke:none"/>
    </g>
    <g stroke="none" style="stroke-linecap:round;fill:#8a73c6;stroke:#8a73c6">
        <path d="M.5 13V4h1L5 7.5v7l-.5.5h-1l-.5.5Z" style="stroke:none"/>
        <path d="M3 15.5V19h-.5l-2 2v-8Z" style="fill:#665c9f;stroke:none"/>
        <path d="M.5 25v-4l2-2h2l1 1-.5.5v2L9.5 27h5l.5.5v2l-2 2H7Z" style="stroke:none"/>
        <path d="M3 .5h25v1L26.5 3h-1l-9 9h-4l-1 1h-1l-1 1h-1l-1 1h-1l-1 1H3v-.5l.5-.5h1l.5-.5v-12Z" style="fill:#4a4b53;stroke:none"/>
        <path d="M3 19v-3h2.5l1-1h1l1-1h1l1-1h1l1-1h4l9-9h1L28 1.5 30.5 4 28 6.5v2l3.5 3.5v8L28 23.5V27h-4v-5.5l4-4v-3L24.5 11l-2 2h-1l-3 3h-6l-1 1h-1l-1 1h-1l-1 1h-1l-1 1-1-1Z" style="fill:#6e7080;stroke:none"/>
        <path d="M5 22.5v-2L6.5 19h1l1-1h1l1-1h1l1-1h6l3-3h1l2-2 3.5 3.5v3l-4 4V27h-4.5l-.5.5V29h-4v-1.5l-.5-.5h-5Z" style="fill:#4a4b53;stroke:none"/>
        <path d="M21 31.5h-8l2-2V29h4v.5Z" style="fill:#665c9f;stroke:none"/>
        <path d="M19 29.5v-2l.5-.5h5l3.5 3.5v1h-7Z" style="stroke:none"/>
        <path d="M24.5 27h4l2 2h1v2.5H28v-1ZM28 1.5v-1h3.5V4h-1Z" style="fill:#665c9f;stroke:none"/>
        <path d="M28 8.5v-2L30.5 4h1v8Zm.5 18.5H28v-3.5l3.5-3.5v9h-1Z" style="fill:#4a4b53;stroke:none"/>
    </g>
</svg>
