<svg xmlns="http://www.w3.org/2000/svg" width="32" height="32" style="fill-opacity:1;color-rendering:auto;color-interpolation:auto;text-rendering:auto;stroke:#000;stroke-linecap:square;stroke-miterlimit:10;shape-rendering:auto;stroke-opacity:1;fill:#000;stroke-dasharray:none;font-weight:400;stroke-width:1;font-family:&quot;Dialog&quot;;font-style:normal;stroke-linejoin:miter;font-size:12px;stroke-dashoffset:0;image-rendering:auto">
    <g style="stroke-linecap:round;fill:#665c9f;stroke:#665c9f">
        <path stroke="none" d="M.5 4V.5H4v1L1.5 4Z" style="stroke:none"/>
    </g>
    <g stroke="none" style="stroke-linecap:round;fill:#6e7080;stroke:#6e7080">
        <path d="M.5 11V4h1L4 1.5v-1h7L14.5 4h3L21 .5h7v1l.5.5-2 2h-3l-4 4h-7l-4-4h-2L4 6.5v2l4 4v7l-4 4v2L6.5 28h2l4-4h7l4 4h3l2 2-.5.5v1h-7L17.5 28h-3L11 31.5H4v-1L1.5 28h-1v-7L4 17.5v-3Z" style="stroke:none"/>
        <path d="M4 14.5v3L.5 21V11Z" style="fill:#4a4b53;stroke:none"/>
        <path d="M4 30.5v1H.5V28h1Z" style="fill:#665c9f;stroke:none"/>
        <path d="M4 8.5v-2L6.5 4h2l4 4h7l4-4h3l2-2 2 2h1v24h-1l-2 2-2-2h-3l-4-4h-7l-4 4h-2L4 25.5v-2l4-4v-7Z" style="fill:#4a4b53;stroke:none"/>
        <path d="M11 .5h10L17.5 4h-3Zm10 31H11l3.5-3.5h3Zm-1-18v5l2 2 2-2v-5l-2-2Z" style="fill:#4a4b53;stroke:none"/>
        <path d="M20 18.5v-5l2-2 2 2v5l-2 2Z" style="stroke:none"/>
        <path d="M28 1.5v-1h3.5V4h-1Z" style="fill:#665c9f;stroke:none"/>
    </g>
</svg>
