<svg xmlns="http://www.w3.org/2000/svg" width="32" height="32" style="fill-opacity:1;color-rendering:auto;color-interpolation:auto;text-rendering:auto;stroke:#000;stroke-linecap:square;stroke-miterlimit:10;shape-rendering:auto;stroke-opacity:1;fill:#000;stroke-dasharray:none;font-weight:400;stroke-width:1;font-family:&quot;Dialog&quot;;font-style:normal;stroke-linejoin:miter;font-size:12px;stroke-dashoffset:0;image-rendering:auto">
    <g style="stroke-linecap:round;fill:#665c9f;stroke:#665c9f">
        <path stroke="none" d="M.5 3V.5H4v1L7.5 5h-4l-2-2Z" style="stroke:none"/>
    </g>
    <g stroke="none" style="stroke-linecap:round;fill:#4a4b53;stroke:#4a4b53">
        <path d="M.5 28V3h1l2 2H8v5.5l4 4v3l-4 4v5l2 2 2-2v-3l3.5-3.5h3l2-2-3.5-3.5v-1l-5-5V5h.5l.5-.5V3h4v1.5l.5.5H24v5.5l4 4v3l-4 4v5l2 2 2-2v-3l3.5-3.5v8h-1L28 30.5v1H4v-1L1.5 28Z" style="stroke:none"/>
        <path d="M4 30.5v1H.5V28h1Z" style="fill:#665c9f;stroke:none"/>
        <path d="M4 1.5v-1h7l2 2v2l-.5.5h-5Z" style="fill:#8a73c6;stroke:none"/>
        <path d="M8 10.5V5h4v3.5l5 5v1l3.5 3.5-2 2h-3L12 23.5v3l-2 2-2-2v-5l4-4v-3Z" style="fill:#6e7080;stroke:none"/>
        <path d="M11 .5h8l-2 2V3h-4v-.5Z" style="fill:#665c9f;stroke:none"/>
        <path d="m17.5 5-.5-.5v-2l2-2h9v1L24.5 5Z" style="fill:#8a73c6;stroke:none"/>
        <path d="M24 10.5V5h4v3.5l3.5 3.5v8L28 23.5v3l-2 2-2-2v-5l4-4v-3Z" style="fill:#6e7080;stroke:none"/>
        <path d="M24.5 5 28 1.5v-1h3.5V3h-1l-2 2Z" style="fill:#665c9f;stroke:none"/>
        <path d="M28 8.5V5h.5l2-2h1v9Z" style="stroke:none"/>
    </g>
</svg>
