<svg xmlns="http://www.w3.org/2000/svg" width="32" height="32" style="fill-opacity:1;color-rendering:auto;color-interpolation:auto;text-rendering:auto;stroke:#000;stroke-linecap:square;stroke-miterlimit:10;shape-rendering:auto;stroke-opacity:1;fill:#000;stroke-dasharray:none;font-weight:400;stroke-width:1;font-family:&quot;Dialog&quot;;font-style:normal;stroke-linejoin:miter;font-size:12px;stroke-dashoffset:0;image-rendering:auto">
    <g style="stroke-linecap:round;fill:#665c9f;stroke:#665c9f">
        <path stroke="none" d="M.5 4V.5H3l2 2v5L1.5 4Z" style="stroke:none"/>
    </g>
    <g stroke="none" style="stroke-linecap:round;fill:#8a73c6;stroke:#8a73c6">
        <path d="M.5 13V4h1L5 7.5v7l-.5.5h-2Z" style="stroke:none"/>
        <path d="M2.5 15H3v4h-.5l-2 2v-8Z" style="fill:#665c9f;stroke:none"/>
        <path d="M.5 25v-4l2-2h2l.5.5v3L9.5 27H15v2.5l-2 2H7Z" style="stroke:none"/>
        <path d="M3 .5h8L14.5 4h3L21 .5h7v1L29.5 3l-.5.5v3l-1 1v7l-1 1v3l-1 1v1l-1 1v1l-.5.5h-1l-1 1h-2l-1 1h-2l-1 1h-1l-.5.5v.5H9.5L8 25.5l.5-.5h1l1-1h1l1-1h1l1-1h1l1-1h1l1-1h3l1.5-1.5v-4l1-1v-7L25.5 5 24 3.5 19.5 8h-7l-4-4H5V2.5Z" style="fill:#6e7080;stroke:none"/>
        <path d="M3 19v-4h1.5l.5-.5V4h3.5l4 4h7L24 3.5 25.5 5 24 6.5v7l-1 1v4L21.5 20h-3l-1 1h-1l-1 1h-1l-1 1h-1l-1 1h-1l-1 1h-1l-.5.5-3-3v-3l-.5-.5Z" style="fill:#4a4b53;stroke:none"/>
        <path d="M11 .5h10L17.5 4h-3ZM15 29v-2.5l.5-.5h1l1-1h2l1-1h2l1-1h1l.5-.5v-1l1-1v-1l1-1v-3l1-1v-7l1-1v-3l.5-.5 1 1h1v25h-1l-2-2h-9l-.5.5V29Z" style="fill:#4a4b53;stroke:none"/>
        <path d="M21 31.5h-8l2-2V29h4v.5Z" style="fill:#665c9f;stroke:none"/>
        <path d="M19 29.5v-2l.5-.5h5l3.5 3.5v1h-7Z" style="stroke:none"/>
        <path d="M24.5 27h4l2 2h1v2.5H28v-1ZM28 1.5v-1h3.5V4h-1Z" style="fill:#665c9f;stroke:none"/>
    </g>
</svg>
