<svg xmlns="http://www.w3.org/2000/svg" width="32" height="32" style="fill-opacity:1;color-rendering:auto;color-interpolation:auto;text-rendering:auto;stroke:#000;stroke-linecap:square;stroke-miterlimit:10;shape-rendering:auto;stroke-opacity:1;fill:#000;stroke-dasharray:none;font-weight:400;stroke-width:1;font-family:&quot;Dialog&quot;;font-style:normal;stroke-linejoin:miter;font-size:12px;stroke-dashoffset:0;image-rendering:auto">
    <g style="stroke-linecap:round;fill:#989aa4;stroke:#989aa4">
        <path stroke="none" d="M.5 4V.5H4v1L1.5 4Z" style="stroke:none"/>
    </g>
    <g stroke="none" style="stroke-linecap:round;fill:#4a4b53;stroke:#4a4b53">
        <path d="M.5 9V4h1L4 1.5v-1h5L12.5 4h7L23 .5h5v1l2 2-2 2v5l3.5 3.5v4L28 21.5v5l2 2-2 2v1h-5L19.5 28h-7L9 31.5H4v-1L1.5 28h-1v-5L4 19.5v-7Z" style="stroke:none"/>
        <path d="M4 12.5v7L.5 23V9Z" style="fill:#6e7080;stroke:none"/>
        <path d="M4 30.5v1H.5V28h1Z" style="fill:#989aa4;stroke:none"/>
        <path d="M8 14.5v3l2.5 2.5h2l3 3h1l1.5 1.5 4-4v-1l1-1v-1l1.5-1.5-1.5-1.5v-1l-1-1v-1l-4-4L16.5 9h-1l-3 3h-2Z" style="stroke:none"/>
        <path d="M8 17.5v-3l2.5-2.5h2l3-3h1L18 7.5l4 4v1l1 1v1l1.5 1.5-1.5 1.5v1l-1 1v1l-4 4-1.5-1.5h-1l-3-3h-2Zm1-17h14L19.5 4h-7Zm14 31H9l3.5-3.5h7Z" style="fill:#6e7080;stroke:none"/>
        <path d="M28 1.5v-1h3.5V4h-1Z" style="fill:#989aa4;stroke:none"/>
        <path d="M28 10.5v-5l2-2 .5.5h1v10Zm0 16v-5l3.5-3.5v10h-1l-.5.5Z" style="fill:#6e7080;stroke:none"/>
    </g>
</svg>
