<svg xmlns="http://www.w3.org/2000/svg" width="32" height="32" style="fill-opacity:1;color-rendering:auto;color-interpolation:auto;text-rendering:auto;stroke:#000;stroke-linecap:square;stroke-miterlimit:10;shape-rendering:auto;stroke-opacity:1;fill:#000;stroke-dasharray:none;font-weight:400;stroke-width:1;font-family:&quot;Dialog&quot;;font-style:normal;stroke-linejoin:miter;font-size:12px;stroke-dashoffset:0;image-rendering:auto">
    <g style="stroke-linecap:round;fill:#989aa4;stroke:#989aa4">
        <path stroke="none" d="M4 31.5H.5V.5H4Z" style="stroke:none"/>
    </g>
    <g stroke="none" style="stroke-linecap:round;fill:#4a4b53;stroke:#4a4b53">
        <path d="M4 12V.5h5L12.5 4h7L23 .5h5v1l2 2-2 2v5l3.5 3.5v4L28 21.5v5l2 2-2 2v1h-5L19.5 28h-7L9 31.5H4V20h13.5l2.5-2.5v-3L17.5 12Z" style="stroke:none"/>
        <path d="M4 20v-8h13.5l2.5 2.5v3L17.5 20ZM9 .5h14L19.5 4h-7Zm14 31H9l3.5-3.5h7Z" style="fill:#6e7080;stroke:none"/>
        <path d="M28 1.5v-1h3.5V4h-1Z" style="fill:#989aa4;stroke:none"/>
        <path d="M28 10.5v-5l2-2 .5.5h1v10Zm0 16v-5l3.5-3.5v10h-1l-.5.5Z" style="fill:#6e7080;stroke:none"/>
    </g>
</svg>
