<svg xmlns="http://www.w3.org/2000/svg" width="32" height="32" style="fill-opacity:1;color-rendering:auto;color-interpolation:auto;text-rendering:auto;stroke:#000;stroke-linecap:square;stroke-miterlimit:10;shape-rendering:auto;stroke-opacity:1;fill:#000;stroke-dasharray:none;font-weight:400;stroke-width:1;font-family:&quot;Dialog&quot;;font-style:normal;stroke-linejoin:miter;font-size:12px;stroke-dashoffset:0;image-rendering:auto">
    <g style="stroke-linecap:round;fill:#989aa4;stroke:#989aa4">
        <path stroke="none" d="M4 31.5H.5V.5H4Z" style="stroke:none"/>
    </g>
    <g stroke="none" style="stroke-linecap:round;fill:#4a4b53;stroke:#4a4b53">
        <path d="M4 8V.5h24v1L30.5 4h1v8L28 8.5v-3l-2-2-2 2v5l4 4v3l-4 4v5l2 2 2-2v-3l3.5-3.5v8h-1L28 30.5v1H4V24h6.5l4-4h3l1.5-1.5v-5L17.5 12h-3l-4-4Z" style="stroke:none"/>
        <path d="M4 12V8h6.5l4 4h3l1.5 1.5v5L17.5 20h-3l-4 4H4v-4h4.5l4-4-4-4Z" style="fill:#6e7080;stroke:none"/>
        <path d="M4 20v-8h4.5l4 4-4 4Z" style="stroke:none"/>
        <path d="M24 10.5v-5l2-2 2 2v3l3.5 3.5v8L28 23.5v3l-2 2-2-2v-5l4-4v-3Z" style="fill:#6e7080;stroke:none"/>
        <path d="M28 1.5v-1h3.5V4h-1Z" style="fill:#989aa4;stroke:none"/>
    </g>
</svg>
