<svg xmlns="http://www.w3.org/2000/svg" width="32" height="32" style="fill-opacity:1;color-rendering:auto;color-interpolation:auto;text-rendering:auto;stroke:#000;stroke-linecap:square;stroke-miterlimit:10;shape-rendering:auto;stroke-opacity:1;fill:#000;stroke-dasharray:none;font-weight:400;stroke-width:1;font-family:&quot;Dialog&quot;;font-style:normal;stroke-linejoin:miter;font-size:12px;stroke-dashoffset:0;image-rendering:auto">
    <g style="stroke-linecap:round;fill:#6f80e8;stroke:#6f80e8">
        <path stroke="none" d="M.5 4V.5H4V4Z" style="stroke:none"/>
    </g>
    <g stroke="none" style="stroke-linecap:round;fill:#88a4ff;stroke:#88a4ff">
        <path d="M.5 12V4H4v8Z" style="stroke:none"/>
        <path d="M.5 20v-8H4v8Z" style="fill:#6f80e8;stroke:none"/>
        <path d="M.5 24v-4H4v1.5l6.5 6.5H12v3.5H8Z" style="stroke:none"/>
        <path d="M4 21.5V.5h5L12.5 4h7L23 .5h5v1L30.5 4h-2L27 2.5 25.5 4h-1L21 7.5v1l-1 1v3L16.5 16h-3L6 23.5Z" style="fill:#4a4b53;stroke:none"/>
        <path d="m6 23.5 7.5-7.5h3l3.5-3.5v-3l1-1v-1L24.5 4h1L27 2.5 28.5 4h3v10L28 10.5v-1l-2-2-2 2v5l-1 1v1L20.5 19h-1l-1 1h-3l-1 1h-1l-5 5Zm3-23h14L19.5 4h-7Z" style="fill:#6e7080;stroke:none"/>
        <path d="m8.5 26 5-5h1l1-1h3l1-1h1l2.5-2.5v-1l1-1v-5l2-2 2 2v1l3.5 3.5v4L28 21.5V28H10.5Z" style="fill:#4a4b53;stroke:none"/>
        <path d="M20 31.5h-8V28h8Z" style="fill:#6f80e8;stroke:none"/>
        <path d="M28 31.5h-8V28h8Z" style="stroke:none"/>
        <path d="M28 1.5v-1h3.5V4h-1Z" style="fill:#6f80e8;stroke:none"/>
        <path d="M28 28v-6.5l3.5-3.5v10Z" style="fill:#6e7080;stroke:none"/>
    </g>
</svg>
