<svg xmlns="http://www.w3.org/2000/svg" width="32" height="32" style="fill-opacity:1;color-rendering:auto;color-interpolation:auto;text-rendering:auto;stroke:#000;stroke-linecap:square;stroke-miterlimit:10;shape-rendering:auto;stroke-opacity:1;fill:#000;stroke-dasharray:none;font-weight:400;stroke-width:1;font-family:&quot;Dialog&quot;;font-style:normal;stroke-linejoin:miter;font-size:12px;stroke-dashoffset:0;image-rendering:auto">
    <g style="stroke-linecap:round;fill:#6f80e8;stroke:#6f80e8">
        <path stroke="none" d="M.5 4V.5H4V4Z" style="stroke:none"/>
    </g>
    <g stroke="none" style="stroke-linecap:round;fill:#6e7080;stroke:#6e7080">
        <path d="M.5 11V4H4v4.5l4 4v7l-4 4v3l-2 2-.5-.5h-1v-7L4 17.5v-3Z" style="stroke:none"/>
        <path d="M4 14.5v3L.5 21V11Z" style="fill:#4a4b53;stroke:none"/>
        <path d="M4 30.5v1H.5V28h1Z" style="fill:#6f80e8;stroke:none"/>
        <path d="m2 28.5 2-2v-3l4-4v-7l-4-4V4h12v6.5l4 4v3l-4 4v2l-.5.5h-3l-4 4h-3l-2 2Z" style="fill:#4a4b53;stroke:none"/>
        <path d="M4 4V.5h8V4Z" style="fill:#88a4ff;stroke:none"/>
        <path d="M11 31.5H4v-1l-.5-.5 2-2h3l4-4h3l.5-.5v-2l4-4v-3l-4-4V4h4v4.5l4 4v7L19.5 24l4 4h3l2 2-.5.5v1h-7L17.5 28h-3Z" style="stroke:none"/>
        <path d="M12 4V.5h8V4Z" style="fill:#6f80e8;stroke:none"/>
        <path d="M21 31.5H11l3.5-3.5h3Z" style="fill:#4a4b53;stroke:none"/>
        <path d="M20 4V.5h8V4Z" style="fill:#88a4ff;stroke:none"/>
        <path d="M20 8.5V4h11.5v24h-1l-2 2-2-2h-3l-4-4 4.5-4.5v-7Z" style="fill:#4a4b53;stroke:none"/>
        <path d="M28 4V.5h3.5V4Z" style="fill:#6f80e8;stroke:none"/>
    </g>
</svg>
