<svg xmlns="http://www.w3.org/2000/svg" width="32" height="32" style="fill-opacity:1;color-rendering:auto;color-interpolation:auto;text-rendering:auto;stroke:#000;stroke-linecap:square;stroke-miterlimit:10;shape-rendering:auto;stroke-opacity:1;fill:#000;stroke-dasharray:none;font-weight:400;stroke-width:1;font-family:&quot;Dialog&quot;;font-style:normal;stroke-linejoin:miter;font-size:12px;stroke-dashoffset:0;image-rendering:auto">
    <g style="stroke-linecap:round;fill:#6f80e8;stroke:#6f80e8">
        <path stroke="none" d="M.5 4V.5H4V4Z" style="stroke:none"/>
    </g>
    <g stroke="none" style="stroke-linecap:round;fill:#4a4b53;stroke:#4a4b53">
        <path d="M.5 9V4H12v6.5l4 4v3l-4 4v7l-3 3H4v-1L1.5 28h-1v-5L4 19.5v-7Z" style="stroke:none"/>
        <path d="M4 12.5v7L.5 23V9Z" style="fill:#6e7080;stroke:none"/>
        <path d="M4 30.5v1H.5V28h1Z" style="fill:#6f80e8;stroke:none"/>
        <path d="M4 4V.5h8V4Z" style="fill:#88a4ff;stroke:none"/>
        <path d="M12 4V.5h8V4Z" style="fill:#6f80e8;stroke:none"/>
        <path d="M12 10.5V4h4v4.5l4 4v7l-4 4v4l.5.5h3l3.5 3.5H9l3-3v-7l4-4v-3Z" style="fill:#6e7080;stroke:none"/>
        <path d="M16 8.5V4h12v6.5l3.5 3.5v4L28 21.5v5l2 2-2 2v1h-5L19.5 28h-3l-.5-.5v-4l4-4v-7Z" style="stroke:none"/>
        <path d="M20 4V.5h8V4Z" style="fill:#88a4ff;stroke:none"/>
        <path d="M28 4V.5h3.5V4Z" style="fill:#6f80e8;stroke:none"/>
        <path d="M28 10.5V4h3.5v10Zm0 16v-5l3.5-3.5v10h-1l-.5.5Z" style="fill:#6e7080;stroke:none"/>
    </g>
</svg>
