<svg xmlns="http://www.w3.org/2000/svg" width="32" height="32" style="fill-opacity:1;color-rendering:auto;color-interpolation:auto;text-rendering:auto;stroke:#000;stroke-linecap:square;stroke-miterlimit:10;shape-rendering:auto;stroke-opacity:1;fill:#000;stroke-dasharray:none;font-weight:400;stroke-width:1;font-family:&quot;Dialog&quot;;font-style:normal;stroke-linejoin:miter;font-size:12px;stroke-dashoffset:0;image-rendering:auto">
    <g style="stroke-linecap:round;fill:#6f80e8;stroke:#6f80e8">
        <path stroke="none" d="M.5 4V.5H4V4Z" style="stroke:none"/>
    </g>
    <g stroke="none" style="stroke-linecap:round;fill:#88a4ff;stroke:#88a4ff">
        <path d="M.5 12V4H4v8Z" style="stroke:none"/>
        <path d="M.5 20v-8H4v8Z" style="fill:#6f80e8;stroke:none"/>
        <path d="M.5 24v-4H4v1.5l6.5 6.5H12v3.5H8Z" style="stroke:none"/>
        <path d="M4 16V.5h24v1L26.5 3h-1l-9 9h-4l-1 1h-1l-1 1h-1l-1 1h-1l-1 1Z" style="fill:#4a4b53;stroke:none"/>
        <path d="M4 20v-4h1.5l1-1h1l1-1h1l1-1h1l1-1h4l9-9h1L28 1.5 30.5 4 28 6.5v2l3.5 3.5v8L28 23.5V28h-4v-6.5l4-4v-3L24.5 11l-2 2h-1l-3 3h-6l-1 1h-1l-1 1h-1l-1 1h-1l-1 1Z" style="fill:#6e7080;stroke:none"/>
        <path d="M4 21.5V20h1.5l1-1h1l1-1h1l1-1h1l1-1h6l3-3h1l2-2 3.5 3.5v3l-4 4V28H10.5Z" style="fill:#4a4b53;stroke:none"/>
        <path d="M20 31.5h-8V28h8Z" style="fill:#6f80e8;stroke:none"/>
        <path d="M28 31.5h-8V28h8Z" style="stroke:none"/>
        <path d="M28 1.5v-1h3.5V4h-1Z" style="fill:#6f80e8;stroke:none"/>
        <path d="M28 8.5v-2L30.5 4h1v8ZM28 28v-4.5l3.5-3.5v8Z" style="fill:#4a4b53;stroke:none"/>
    </g>
</svg>
