<svg xmlns="http://www.w3.org/2000/svg" width="32" height="32" style="fill-opacity:1;color-rendering:auto;color-interpolation:auto;text-rendering:auto;stroke:#000;stroke-linecap:square;stroke-miterlimit:10;shape-rendering:auto;stroke-opacity:1;fill:#000;stroke-dasharray:none;font-weight:400;stroke-width:1;font-family:&quot;Dialog&quot;;font-style:normal;stroke-linejoin:miter;font-size:12px;stroke-dashoffset:0;image-rendering:auto">
    <g style="stroke-linecap:round;fill:#6f80e8;stroke:#6f80e8">
        <path stroke="none" d="M.5 4V.5H4V4Z" style="stroke:none"/>
    </g>
    <g stroke="none" style="stroke-linecap:round;fill:#4a4b53;stroke:#4a4b53">
        <path d="M.5 28V4H4v6.5l4 4v3l-4 4v4L6.5 28h4l1-1h1l3.5-3.5 1.5 1.5h1l3 3h5l2-2-3.5-3.5 3-3v-7l-4-4V4h7.5v24h-1L28 30.5v1H4v-1L1.5 28Z" style="stroke:none"/>
        <path d="M4 30.5v1H.5V28h1Z" style="fill:#6f80e8;stroke:none"/>
        <path d="M4 4V.5h8V4Z" style="fill:#88a4ff;stroke:none"/>
        <path d="M4 10.5V4h4v4.5l4 4v4l3.5 3.5h6l2.5-2.5v-3l-4-4V4h4v4.5l4 4v7l-3 3 3.5 3.5-2 2h-5l-3-3h-1L16 23.5 12.5 27h-1l-1 1h-4L4 25.5v-4l4-4v-3Z" style="fill:#6e7080;stroke:none"/>
        <path d="M8 8.5V4h12v6.5l4 4v3L21.5 20h-6L12 16.5v-4Z" style="stroke:none"/>
        <path d="m8.5 23 1.5 1.5 2.5-2.5-1.5-1.5Z" style="fill:#6e7080;stroke:none"/>
        <path d="M10 24.5 8.5 23l2.5-2.5 1.5 1.5Z" style="stroke:none"/>
        <path d="M12 4V.5h8V4Z" style="fill:#6f80e8;stroke:none"/>
        <path d="M20 4V.5h8V4Z" style="fill:#88a4ff;stroke:none"/>
        <path d="M28 4V.5h3.5V4Z" style="fill:#6f80e8;stroke:none"/>
    </g>
</svg>
