<svg xmlns="http://www.w3.org/2000/svg" width="32" height="32" style="fill-opacity:1;color-rendering:auto;color-interpolation:auto;text-rendering:auto;stroke:#000;stroke-linecap:square;stroke-miterlimit:10;shape-rendering:auto;stroke-opacity:1;fill:#000;stroke-dasharray:none;font-weight:400;stroke-width:1;font-family:&quot;Dialog&quot;;font-style:normal;stroke-linejoin:miter;font-size:12px;stroke-dashoffset:0;image-rendering:auto">
    <g style="stroke-linecap:round;fill:#6f80e8;stroke:#6f80e8">
        <path stroke="none" d="M.5 4V.5H4V4Z" style="stroke:none"/>
    </g>
    <g stroke="none" style="stroke-linecap:round;fill:#6e7080;stroke:#6e7080">
        <path d="M.5 11V4H4v4.5l4 4v7l-4 4V28H.5v-7L4 17.5v-3Z" style="stroke:none"/>
        <path d="M4 14.5v3L.5 21V11Z" style="fill:#4a4b53;stroke:none"/>
        <path d="M4 31.5H.5V28H4Z" style="fill:#6f80e8;stroke:none"/>
        <path d="M4 4V.5h8V4Z" style="fill:#88a4ff;stroke:none"/>
        <path d="M4 8.5V4h12v6.5l4 4v3l-4 4V28H4v-4.5l4-4v-7Z" style="fill:#4a4b53;stroke:none"/>
        <path d="M12 31.5H4V28h8Z" style="fill:#88a4ff;stroke:none"/>
        <path d="M12 4V.5h8V4Z" style="fill:#6f80e8;stroke:none"/>
        <path d="M16 10.5V4h4v4.5l4 4v7l-4 4V28h-4v-6.5l4-4v-3Z" style="stroke:none"/>
        <path d="M20 31.5h-8V28h8Z" style="fill:#6f80e8;stroke:none"/>
        <path d="M20 4V.5h8V4Z" style="fill:#88a4ff;stroke:none"/>
        <path d="M20 8.5V4h11.5v24H20v-4.5l4-4v-7Z" style="fill:#4a4b53;stroke:none"/>
        <path d="M28 31.5h-8V28h8Z" style="fill:#88a4ff;stroke:none"/>
        <path d="M28 4V.5h3.5V4Z" style="fill:#6f80e8;stroke:none"/>
    </g>
</svg>
