<svg xmlns="http://www.w3.org/2000/svg" width="32" height="32" style="fill-opacity:1;color-rendering:auto;color-interpolation:auto;text-rendering:auto;stroke:#000;stroke-linecap:square;stroke-miterlimit:10;shape-rendering:auto;stroke-opacity:1;fill:#000;stroke-dasharray:none;font-weight:400;stroke-width:1;font-family:&quot;Dialog&quot;;font-style:normal;stroke-linejoin:miter;font-size:12px;stroke-dashoffset:0;image-rendering:auto">
    <g style="stroke-linecap:round;fill:#6f80e8;stroke:#6f80e8">
        <path stroke="none" d="M.5 4V.5H4V4Z" style="stroke:none"/>
    </g>
    <g stroke="none" style="stroke-linecap:round;fill:#88a4ff;stroke:#88a4ff">
        <path d="M.5 12V4H4v8Z" style="stroke:none"/>
        <path d="M.5 20v-8H4v8Z" style="fill:#6f80e8;stroke:none"/>
        <path d="M.5 24v-4H4v1.5l6.5 6.5H12v3.5H8Z" style="stroke:none"/>
        <path d="M4 4V.5h7L14.5 4h3L21 .5h7v1L29.5 3l-.5.5v3l-1 1v7l-1 1v3l-1 1v1l-1 1v1l-.5.5h-1l-1 1h-2l-1 1h-2l-1 1h-1l-1 1h-1l-1 1h-2L8 25.5l.5-.5h1l1-1h1l1-1h1l1-1h1l1-1h1l1-1h3l1.5-1.5v-4l1-1v-7L25.5 5 24 3.5 19.5 8h-7l-4-4Z" style="fill:#6e7080;stroke:none"/>
        <path d="M4 21.5V4h4.5l4 4h7L24 3.5 25.5 5 24 6.5v7l-1 1v4L21.5 20h-3l-1 1h-1l-1 1h-1l-1 1h-1l-1 1h-1l-1 1h-1l-.5.5Z" style="fill:#4a4b53;stroke:none"/>
        <path d="M11 .5h10L17.5 4h-3ZM12.5 28l1-1h1l1-1h1l1-1h2l1-1h2l1-1h1l.5-.5v-1l1-1v-1l1-1v-3l1-1v-7l1-1v-3l.5-.5 1 1h1v24Z" style="fill:#4a4b53;stroke:none"/>
        <path d="M20 31.5h-8V28h8Z" style="fill:#6f80e8;stroke:none"/>
        <path d="M28 31.5h-8V28h8Z" style="stroke:none"/>
        <path d="M28 1.5v-1h3.5V4h-1Z" style="fill:#6f80e8;stroke:none"/>
    </g>
</svg>
