<svg xmlns="http://www.w3.org/2000/svg" width="32" height="32" style="fill-opacity:1;color-rendering:auto;color-interpolation:auto;text-rendering:auto;stroke:#000;stroke-linecap:square;stroke-miterlimit:10;shape-rendering:auto;stroke-opacity:1;fill:#000;stroke-dasharray:none;font-weight:400;stroke-width:1;font-family:&quot;Dialog&quot;;font-style:normal;stroke-linejoin:miter;font-size:12px;stroke-dashoffset:0;image-rendering:auto">
    <g style="stroke-linecap:round;fill:#6f80e8;stroke:#6f80e8">
        <path stroke="none" d="M.5 4V.5H4V4Z" style="stroke:none"/>
    </g>
    <g stroke="none" style="stroke-linecap:round;fill:#88a4ff;stroke:#88a4ff">
        <path d="M.5 12V4H4v8Z" style="stroke:none"/>
        <path d="M.5 20v-8H4v8Z" style="fill:#6f80e8;stroke:none"/>
        <path d="M.5 24v-4H4v1.5l6.5 6.5H12v3.5H8Z" style="stroke:none"/>
        <path d="M4 4V.5h24v1L30.5 4h1v24H24v-4.5l4-4v-7L24.5 9l1-1h1l2-2-2-2h-5l-4 4h-3l-4-4Z" style="fill:#4a4b53;stroke:none"/>
        <path d="M4 8V4h6.5l4 4h3l4-4h5l2 2-2 2h-1l-1 1 3.5 3.5v7l-4 4V28h-4v-6.5l4-4v-3L21.5 12h-9l-4-4Z" style="fill:#6e7080;stroke:none"/>
        <path d="M4 21.5V8h4.5l4 4h9l2.5 2.5v3l-4 4V28h-9.5Z" style="fill:#4a4b53;stroke:none"/>
        <path d="M20 31.5h-8V28h8Z" style="fill:#6f80e8;stroke:none"/>
        <path d="M28 31.5h-8V28h8Z" style="stroke:none"/>
        <path d="M28 1.5v-1h3.5V4h-1Z" style="fill:#6f80e8;stroke:none"/>
    </g>
</svg>
