<svg xmlns="http://www.w3.org/2000/svg" width="32" height="32" style="fill-opacity:1;color-rendering:auto;color-interpolation:auto;text-rendering:auto;stroke:#000;stroke-linecap:square;stroke-miterlimit:10;shape-rendering:auto;stroke-opacity:1;fill:#000;stroke-dasharray:none;font-weight:400;stroke-width:1;font-family:&quot;Dialog&quot;;font-style:normal;stroke-linejoin:miter;font-size:12px;stroke-dashoffset:0;image-rendering:auto">
    <g style="stroke-linecap:round;fill:#989aa4;stroke:#989aa4">
        <path stroke="none" d="M.5 1V.5H12l4 4 4-4h11.5V12l-4 4 4 4v11.5H31l-4-4 1-1v-2l-4-4v-9l4-4v-2L26.5 4h-2l-4 4h-9l-4-4h-2l-1 1Z" style="stroke:none"/>
    </g>
    <g stroke="none" style="stroke-linecap:round;fill:#6e7080;stroke:#6e7080">
        <path d="m4.5 5-.5.5v2l4 4v9l-4 4v2L5.5 28h2l4-4h9l4 4h2l.5-.5 4 4H20l-4-4-4 4H.5V20l4-4-4-4V1Z" style="stroke:none"/>
        <path d="m4.5 16-4 4v-8Z" style="fill:#989aa4;stroke:none"/>
        <path d="M4 7.5v-2L5.5 4h2l4 4h9l4-4h2L28 5.5v2l-4 4v9l4 4v2L26.5 28h-2l-4-4h-9l-4 4h-2L4 26.5v-2l4-4v-9Z" style="fill:#4a4b53;stroke:none"/>
        <path d="M12 14.5v3l2.5 2.5h3l2.5-2.5v-3L17.5 12h-3Z" style="fill:#4a4b53;stroke:none"/>
        <path d="M12 .5h8l-4 4Zm0 17v-3l2.5-2.5h3l2.5 2.5v3L17.5 20h-3Z" style="stroke:none"/>
        <path d="M20 31.5h-8l4-4Z" style="fill:#989aa4;stroke:none"/>
        <path d="m27.5 16 4-4v8Z" style="stroke:none"/>
    </g>
</svg>
