<svg xmlns="http://www.w3.org/2000/svg" width="64" height="64" style="fill-opacity:1;color-rendering:auto;color-interpolation:auto;text-rendering:auto;stroke:#000;stroke-linecap:square;stroke-miterlimit:10;shape-rendering:auto;stroke-opacity:1;fill:#000;stroke-dasharray:none;font-weight:400;stroke-width:1;font-family:&quot;Dialog&quot;;font-style:normal;stroke-linejoin:miter;font-size:12px;stroke-dashoffset:0;image-rendering:auto">
    <g style="stroke-linecap:round;fill:#6e7080;stroke:#6e7080">
        <path stroke="none" d="M.5 8V.5H8L11.5 4h41L56 .5h7.5V8L60 11.5v41l3.5 3.5v7.5H56L52.5 60h-41L8 63.5H.5V56L4 52.5v-41Z" style="stroke:none"/>
    </g>
    <g stroke="none" style="stroke-linecap:round;fill:#4a4b53;stroke:#4a4b53">
        <path d="M4 11.5v41L.5 56V8Z" style="stroke:none"/>
        <path d="M8 14.5v12l4 4v3l-4 4v12l6.5 6.5h12l4-4h3l4 4h12l3-3-6.5-6.5-1.5 1.5h-6l-4-4h-5l-4 4h-6L16 44.5v-6l4-4v-5l-4-4v-6l1.5-1.5-6.5-6.5Z" style="fill:#6e7080;stroke:none"/>
        <path d="M8 .5h48L52.5 4h-41Z" style="fill:#989aa4;stroke:none"/>
        <path d="M8 26.5v-12l3-3 6.5 6.5-1.5 1.5v6l4 4v5l-4 4v6l3.5 3.5h6l4-4h5l4 4h6l1.5-1.5 6.5 6.5-3 3h-12l-4-4h-3l-4 4h-12L8 49.5v-12l4-4v-3Z" style="stroke:none"/>
        <path d="m11.5 11 6.5 6.5 1.5-1.5h6l4 4h5l4-4h6l3.5 3.5v6l-4 4v5l4 4v6L46.5 46l6.5 6.5 3-3v-12l-4-4v-3l4-4v-12L49.5 8h-12l-4 4h-3l-4-4h-12Z" style="fill:#6e7080;stroke:none"/>
        <path d="m11.5 11 3-3h12l4 4h3l4-4h12l6.5 6.5v12l-4 4v3l4 4v12l-3 3-6.5-6.5 1.5-1.5v-6l-4-4v-5l4-4v-6L44.5 16h-6l-4 4h-5l-4-4h-6L18 17.5Z" style="fill:#989aa4;stroke:none"/>
        <path d="M24 27.5v9l3.5 3.5h9l3.5-3.5v-9L36.5 24h-9Z" style="fill:#6e7080;stroke:none"/>
        <path d="M24 36.5v-9l3.5-3.5h9l3.5 3.5v9L36.5 40h-9Z" style="fill:#989aa4;stroke:none"/>
        <path d="M56 63.5H8l3.5-3.5h41Z" style="stroke:none"/>
        <path d="M60 52.5v-41L63.5 8v48Z" style="fill:#989aa4;stroke:none"/>
    </g>
</svg>
