<svg xmlns="http://www.w3.org/2000/svg" width="32" height="32" style="fill-opacity:1;color-rendering:auto;color-interpolation:auto;text-rendering:auto;stroke:#000;stroke-linecap:square;stroke-miterlimit:10;shape-rendering:auto;stroke-opacity:1;fill:#000;stroke-dasharray:none;font-weight:400;stroke-width:1;font-family:&quot;Dialog&quot;;font-style:normal;stroke-linejoin:miter;font-size:12px;stroke-dashoffset:0;image-rendering:auto">
    <g style="stroke-linecap:round;fill:#6e7080;stroke:#6e7080">
        <path stroke="none" d="M.5 8V.5H8V4h-.5L4 7.5V8Z" style="stroke:none"/>
    </g>
    <g stroke="none" style="stroke-linecap:round;fill:#4a4b53;stroke:#4a4b53">
        <path d="M.5 24V8H4v15.5l-.5.5Z" style="stroke:none"/>
        <path d="M4 13V7.5L7.5 4H13v1.5L15.5 8h-5L8 10.5v5L5.5 13Z" style="fill:#989aa4;stroke:none"/>
        <path d="M4 19v-6h1.5L8 15.5v1L5.5 19Z" style="fill:#d4816b;stroke:none"/>
        <path d="m8 21.5 2.5 2.5h5l-2 2-1-1-.5.5V28H8.5l-.5.5v3H.5V24h3l.5-.5V19h1.5L8 16.5Z" style="fill:#6e7080;stroke:none"/>
        <path d="M8 4V.5h16V4Z" style="stroke:none"/>
        <path d="m13.5 26-.5.5V28h-1v-2.5l.5-.5Z" style="fill:#707080;stroke:none"/>
        <path d="M13 5.5V4h6v2h-.5l-2 2h-1Z" style="fill:#ffd37f;stroke:none"/>
        <path d="M13 28v-1.5l2.5-2.5h1l2.5 2.5V28Z" style="fill:#d4816b;stroke:none"/>
        <path d="M16.5 8 18 6.5l.5.5.5-.5V4h5.5L28 7.5V13h-1.5L24 15.5v-5L21.5 8Zm0 16h5l2.5-2.5v-5l2.5 2.5H28v5.5L24.5 28H19v-1.5Z" style="fill:#989aa4;stroke:none"/>
        <path d="m18.5 7-.5-.5.5-.5h.5v.5Z" style="fill:#999ba4;stroke:none"/>
        <path d="M24 31.5H8v-3l.5-.5H24Z" style="stroke:none"/>
        <path d="M24.5 4H24V.5h7.5V8H28v-.5Z" style="fill:#6e7080;stroke:none"/>
        <path d="M24 16.5v-1l2.5-2.5H28v6h-1.5Z" style="fill:#ffd37f;stroke:none"/>
        <path d="M28 24V8h3.5v16Z" style="stroke:none"/>
    </g>
</svg>
