<svg xmlns="http://www.w3.org/2000/svg" width="32" height="32" style="fill-opacity:1;color-rendering:auto;color-interpolation:auto;text-rendering:auto;stroke:#000;stroke-linecap:square;stroke-miterlimit:10;shape-rendering:auto;stroke-opacity:1;fill:#000;stroke-dasharray:none;font-weight:400;stroke-width:1;font-family:&quot;Dialog&quot;;font-style:normal;stroke-linejoin:miter;font-size:12px;stroke-dashoffset:0;image-rendering:auto">
    <g style="stroke-linecap:round;fill:#6e7080;stroke:#6e7080">
        <path stroke="none" d="M.5 4V.5H4Z" style="stroke:none"/>
    </g>
    <g stroke="none" style="stroke-linecap:round;fill:#989aa4;stroke:#989aa4">
        <path d="M.5 8V4L4 .5h4v4L4.5 8Z" style="stroke:none"/>
        <path d="M.5 24V8H4v16Z" style="fill:#6e7080;stroke:none"/>
        <path d="M.5 28v-4h4L8 27.5v4H4Z" style="stroke:none"/>
        <path d="M4 31.5H.5V28Z" style="fill:#6e7080;stroke:none"/>
        <path d="m8.5 12-.5.5v8L4.5 24H4V8h.5Z" style="fill:#4a4b53;stroke:none"/>
        <path d="M4.5 8 8 4.5 11.5 8 8 11.5Zm0 16L8 20.5v-8l.5-.5 2.5 2.5v4l2.5 2.5h4l3 3h-9L8 27.5ZM8 4V.5h16V4Z" style="fill:#6e7080;stroke:none"/>
        <path d="M8 4.5V4h16v.5L20.5 8h-9Z" style="fill:#4a4b53;stroke:none"/>
        <path d="M8 11.5 11.5 8h9l3.5 3.5v9L20.5 24l-3-3h-4L11 18.5v-4Z" style="stroke:none"/>
        <path d="M8 28v-.5l3.5-3.5h9l3.5 3.5v.5Z" style="fill:#4a4b53;stroke:none"/>
        <path d="M20.5 8 24 4.5 27.5 8 24 11.5Zm0 16 3.5-3.5 3.5 3.5-3.5 3.5Zm3.5 7.5H8V28h16Z" style="fill:#6e7080;stroke:none"/>
        <path d="M24 4.5v-4h4L31.5 4v4h-4Z" style="stroke:none"/>
        <path d="M24 20.5v-9L27.5 8h.5v16h-.5Z" style="fill:#4a4b53;stroke:none"/>
        <path d="M28 31.5h-4v-4l3.5-3.5h4v4Z" style="stroke:none"/>
        <path d="M28 .5h3.5V4ZM28 24V8h3.5v16Z" style="fill:#6e7080;stroke:none"/>
    </g>
</svg>
