<svg xmlns="http://www.w3.org/2000/svg" width="32" height="32" style="fill-opacity:1;color-rendering:auto;color-interpolation:auto;text-rendering:auto;stroke:#000;stroke-linecap:square;stroke-miterlimit:10;shape-rendering:auto;stroke-opacity:1;fill:#000;stroke-dasharray:none;font-weight:400;stroke-width:1;font-family:&quot;Dialog&quot;;font-style:normal;stroke-linejoin:miter;font-size:12px;stroke-dashoffset:0;image-rendering:auto">
    <g style="stroke-linecap:round;fill:#989aa4;stroke:#989aa4">
        <path stroke="none" d="M.5 1V.5H1l5 5-.5.5Z" style="stroke:none"/>
    </g>
    <g stroke="none" style="stroke-linecap:round;fill:#6e7080;stroke:#6e7080">
        <path d="M5.5 6 4 7.5v17L7.5 28h17l1.5-1.5 5 5H.5V1Z" style="stroke:none"/>
        <path d="M1 .5h30.5V31l-5-5 1.5-1.5v-17L24.5 4h-17L6 5.5Z" style="fill:#b0bac0;stroke:none"/>
        <path d="M4 24.5v-17l2-2L9.5 9 8 10.5v11l2.5 2.5h11l1.5-1.5 3.5 3.5-2 2h-17Z" style="fill:#d4816b;stroke:none"/>
        <path d="M6 5.5 7.5 4h17L28 7.5v17L26.5 26 23 22.5l1-1v-11L21.5 8h-11l-1 1Z" style="fill:#ffd37f;stroke:none"/>
        <path d="M8 21.5v-11l1-1 3 3-1 1v5l2.5 2.5h5l1-1 3 3-1 1h-11Z" style="fill:#b0bac0;stroke:none"/>
        <path d="m10 10.5-1-1 .5-.5.5.5Z" style="fill:#989aa4;stroke:none"/>
        <path d="m9.5 9 1-1h11l2.5 2.5v11l-1 1-3-3 1-1v-5L18.5 11h-5l-1 1Z" style="stroke:none"/>
        <path d="m12 12.5-3-3 .5-.5 2.5 2.5Z" style="fill:#989aa4;stroke:none"/>
        <path d="M11 18.5v-5l1-1-3-3 .5-.5 3 3 1-1h5l2.5 2.5v5l-1 1 3 3-.5.5-3-3-1 1h-5Zm16 9-1-1 .5-.5.5.5Z" style="fill:#989aa4;stroke:none"/>
        <path d="m29 29.5-3-3 .5-.5 2.5 2.5Z" style="fill:#989aa4;stroke:none"/>
        <path d="m31 31.5-5-5 .5-.5 4.5 4.5Z" style="fill:#989aa4;stroke:none"/>
    </g>
</svg>
