<svg xmlns="http://www.w3.org/2000/svg" width="32" height="32" style="fill-opacity:1;color-rendering:auto;color-interpolation:auto;text-rendering:auto;stroke:#000;stroke-linecap:square;stroke-miterlimit:10;shape-rendering:auto;stroke-opacity:1;fill:#000;stroke-dasharray:none;font-weight:400;stroke-width:1;font-family:&quot;Dialog&quot;;font-style:normal;stroke-linejoin:miter;font-size:12px;stroke-dashoffset:0;image-rendering:auto">
    <g style="stroke-linecap:round;fill:#6e7080;stroke:#6e7080">
        <path stroke="none" d="M.5 8V.5H8V4H4.5l-1 1 3 3h15l2.5 2.5v15l3 3 1-1V24h3.5v7.5H24v-3l-.5-.5h-15l-.5.5v3H.5V24h3l.5-.5v-15L3.5 8Z" style="stroke:none"/>
    </g>
    <g stroke="none" style="stroke-linecap:round;fill:#4a4b53;stroke:#4a4b53">
        <path d="M.5 24V8h3l.5.5v15l-.5.5Z" style="stroke:none"/>
        <path d="m3.5 5 1-1h20L28 7.5v20l-1 1-3-3v-15L21.5 8h-15Z" style="fill:#989aa4;stroke:none"/>
        <path d="M8 4V.5h16V4Z" style="stroke:none"/>
        <path d="M12 14.5v3l2.5 2.5h3l2.5-2.5v-3L17.5 12h-3Z" style="fill:#6e7080;stroke:none"/>
        <path d="M12 17.5v-3l2.5-2.5h3l2.5 2.5v3L17.5 20h-3Z" style="fill:#989aa4;stroke:none"/>
        <path d="M24 31.5H8v-3l.5-.5h15l.5.5Z" style="stroke:none"/>
        <path d="M24.5 4H24V.5h7.5V8H28v-.5Z" style="fill:#6e7080;stroke:none"/>
        <path d="M28 24V8h3.5v16Z" style="stroke:none"/>
    </g>
</svg>
