<svg xmlns="http://www.w3.org/2000/svg" width="292" height="278" style="fill-opacity:1;color-rendering:auto;color-interpolation:auto;text-rendering:auto;stroke:#000;stroke-linecap:square;stroke-miterlimit:10;shape-rendering:auto;stroke-opacity:1;fill:#000;stroke-dasharray:none;font-weight:400;stroke-width:1;font-family:&quot;Dialog&quot;;font-style:normal;stroke-linejoin:miter;font-size:12px;stroke-dashoffset:0;image-rendering:auto">
    <g style="stroke-linecap:round;fill:#736d66;stroke:#736d66">
        <path stroke="none" d="M52 59.5v-4l1.5-1.5h3l3 3h7l3 3h5l4 4H83v1.5L80.5 68h-13l-5-5h-6l-1-1-.5.5Z" style="stroke:none"/>
    </g>
    <g stroke="none" style="stroke-linecap:round;fill:#52453f;stroke:#52453f">
        <path d="m56 63.5-1-1 .5-.5.5.5Z" style="stroke:none"/>
        <path d="M56 64.5v-1l-1-1 .5-.5 1 1h6l5 5h13l2.5-2.5v-2l6-6v15l-4 4V82h-.5L81 85.5 70.5 75h-3l-1-1h-1Z" style="stroke:none"/>
        <path d="M75 97.5v-3l6-6v-3l3.5-3.5h5l2.5-2.5v-3L88.5 73l.5-.5v-19l3-3v-3l7.5-7.5h2l7-7h3l.5-.5v-6l3.5-3.5h2l4-4h4l5-5h6.5v4.5l-4 4v3l.5.5-6.5 6.5 3.5 3.5h3l5 5h15l5-5h3l3.5-3.5-6.5-6.5.5-.5v-3l-4-4v-4l1-1 .5.5h5l5 5h4l4 4h2l3.5 3.5v6l.5.5h3l7 7h2l7.5 7.5v3l3.5 3.5-.5.5v18l.5.5-3.5 3.5v3l2.5 2.5h5l3.5 3.5v3l6 6v3l-7.5 7.5-2.5-2.5v-6l-7.5-7.5H197v-8.5l-3-3v-8l-3.5-3.5 3.5-3.5v-4l-4.5-4.5h-2l-.5.5-4-4 1-1-3.5-3.5.5-.5v-8l-1-1-8.5 8.5h-4l-3.5 3.5v5l.5.5-2.5 2.5 5.5 5.5-.5.5v2l8.5 8.5h1l1 1h.5v1.5l-5 5v-3L159.5 64l.5-.5v-12l-.5-.5h-2l-5.5 5.5-2-2 4.5-4.5-7-7h-3l-7 7 4.5 4.5-2 2-5.5-5.5h-2l-.5.5v12l.5.5L119 77.5v3l-5-5V74h.5l1-1h1l8.5-8.5v-2l-.5-.5 5.5-5.5-2.5-2.5.5-.5v-5l-3.5-3.5h-4l-8.5-8.5-1 1v8l.5.5-3.5 3.5 1 1-4 4-.5-.5h-2L98 58.5v4l3.5 3.5-3.5 3.5v8l-3 3V89h-2.5L85 96.5v6l-2.5 2.5Z" style="fill:#736d66;stroke:none"/>
        <path d="M82 114.5v-9l3-3v-1l1.5-1.5H91v3.5l.5.5-6.5 6.5v6l1 1-.5.5Z" style="fill:#3a2828;stroke:none"/>
        <path d="M83 25.5v-15L87.5 6h2l5.5 5.5v6l9 9v5l-7 7-1.5-1.5h-1Z" style="fill:#736d66;stroke:none"/>
        <path d="M94.5 37h1l1.5 1.5 7-7V30h3.5l3 3h-2l-7 7h-2l-7 7-3.5-3.5v-2l-6-6v-10Z" style="stroke:none"/>
        <path d="M85 82v-5.5l3.5-3.5 3.5 3.5v3L89.5 82Z" style="fill:#3a2828;stroke:none"/>
        <path d="M85 101.5v-5l7.5-7.5H95v3.5l1 1-5 5v1.5h-4.5Z" style="stroke:none"/>
        <path d="M85 116.5v-6l6.5-6.5.5.5v5l1.5 1.5h5l1.5-1.5 2 2-.5.5h-5l-7 7h-2Z" style="fill:#6e7080;stroke:none"/>
        <path d="m91.5 104-.5-.5v-5l5-5 2 2v2Z" style="fill:#4a4b53;stroke:none"/>
        <path d="M92 109.5v-5l-.5-.5 6.5-6.5v-8l5-5v-4l.5-.5 3.5 3.5v3l-6.5 6.5 2 2h1.5v4h-1.5Z" style="fill:#9e172c;stroke:none"/>
        <path d="M92 109.5 102.5 99h1.5v7h-.5l-5 5h-5Z" style="fill:#e05438;stroke:none"/>
        <path d="M95 86.5v-6l3-3v6Z" style="fill:#3a2828;stroke:none"/>
        <path d="M95.5 89H95v-2.5l3-3v-14l10-10v-4l3.5-3.5h1l7.5-7.5.5.5h4l3.5 3.5v5l-6 6-1.5-1.5 4.5-4.5v-2l-1.5-1.5h-3L110 60.5v2l-5 5v9l2.5 2.5 2.5-2.5v-5l3-3v-5l1.5-1.5h1l2.5 2.5v2l-5 5v6l-6 6-3.5-3.5-.5.5v4l-5 5v2Z" style="fill:#989aa4;stroke:none"/>
        <path d="M98 91.5v4l-3-3V89h.5Z" style="fill:#6e7080;stroke:none"/>
        <path d="M98 62.5v-4l4.5-4.5h2l3.5 3.5v2l-6.5 6.5Z" style="stroke:none"/>
        <path d="m100 109.5 3.5-3.5h4l3.5 3.5v4l-2.5 2.5h-2Z" style="fill:#989aa4;stroke:none"/>
        <path d="m100.5 93 6.5-6.5v5l-3 3v.5h-1.5Z" style="fill:#e05438;stroke:none"/>
        <path d="M109 98.5v1l-1 1v2l-1 1v1l-1.5 1.5H104V94.5l.5-.5Z" style="fill:#4a4b53;stroke:none"/>
        <path d="m105 54.5 4-4 2 2-3 3v2Z" style="fill:#6e7080;stroke:none"/>
        <path d="M105 72.5v-5l5-5v-2L120.5 50h3l1.5 1.5v2l-9 9-.5-.5h-1l-1.5 1.5v1Z" style="fill:#9e172c;stroke:none"/>
        <path d="M105 76.5v-4l8-8v4l-3 3v5l-2.5 2.5Z" style="fill:#e05438;stroke:none"/>
        <path d="m104.5 94 2.5-2.5v-8l6-6v-4l.5.5h.5v11.5l.5.5-5.5 5.5v7Z" style="fill:#6e7080;stroke:none"/>
        <path d="m105.5 106 1.5-1.5v-1l1-1v-2l1-1v-8l10-10v4l4 4v5l-4.5 4.5h-3l-7.5 7.5-.5-.5Z" style="fill:#736d66;stroke:none"/>
        <path d="m108 49.5 3.5-3.5 3.5 3.5-2.5 2.5h-1l-.5.5Z" style="stroke:none"/>
        <path d="m108 106.5 7.5-7.5h1.5v7.5l-6 6v-3Zm3-61v-8l1-1 8 8-5 5Z" style="fill:#3a2828;stroke:none"/>
        <path d="m113.5 74-.5-.5v-2l5-5 2.5 2.5-4 4h-1l-1 1Zm5.5 6.5v1l-4.5 4.5-.5-.5v-10Z" style="stroke:none"/>
        <path d="m116 62.5 4.5-4.5 4.5 4.5v2l-4.5 4.5-2.5-2.5v-2Z" style="fill:#6e7080;stroke:none"/>
        <path d="m122 59.5 5.5-5.5 2.5 2.5-5.5 5.5Zm5-27 8.5-8.5 3 3-8.5 8.5Z" style="stroke:none"/>
        <path d="m130.5 36-.5-.5 8.5-8.5-3-3-2 2-.5-.5v-3l4-4v-5l4.5-4.5h9l5 5-.5.5v4l4 4v3l-.5.5-2-2-3 3 8.5 8.5-.5.5h-3l-3 3-9.5-9.5-9.5 9.5-3-3Z" style="fill:#3a2828;stroke:none"/>
        <path d="m132.5 64-.5-.5v-12l.5-.5h2l5.5 5.5Zm4-25 9.5-9.5 9.5 9.5-2 2h-15Z" style="stroke:none"/>
        <path d="m137.5 50 7-7h3l7 7-5 5h-7Z" style="fill:#989aa4;stroke:none"/>
        <path d="m142 50.5 2.5 2.5h3l2.5-2.5-2-2v-1l-2-2-2 2v1Z" style="fill:#989aa4;stroke:none"/>
        <path d="m142 50.5 2-2v-1l2-2 2 2v1l2 2-2.5 2.5h-3Z" style="fill:#e05438;stroke:none"/>
        <path d="m152 56.5 5.5-5.5h2l.5.5v12l-.5.5Zm1.5-29.5 3-3 8.5 8.5-3 3Zm8.5 29.5 2.5-2.5 5.5 5.5-2.5 2.5Z" style="stroke:none"/>
        <path d="M164 53.5v-5l3.5-3.5h4l.5-.5 7.5 7.5h1l3.5 3.5v4l10 10v14l3 3V89h-.5l-2.5 2.5v-2l-5-5v-4l-.5-.5-3.5 3.5-6-6v-6l-5-5v-2l3-3 2 2v5l3 3v5l2.5 2.5 2.5-2.5v-9l-5-5v-2L171.5 50h-3l-1.5 1.5v2l4.5 4.5-1.5 1.5Z" style="fill:#989aa4;stroke:none"/>
        <path d="M167 53.5v-2l1.5-1.5h3L182 60.5v2l5 5v5l-8-8v-1l-2-2-1 1Z" style="fill:#9e172c;stroke:none"/>
        <path d="M167 64.5v-2l4.5-4.5 4.5 4.5-2 2v2l-2.5 2.5Z" style="fill:#6e7080;stroke:none"/>
        <path d="M169 94.5v-5l4-4v-4l10 10v8l1 1v2l1 1v1l1.5 1.5h-2l-.5.5-7.5-7.5h-3Z" style="fill:#736d66;stroke:none"/>
        <path d="m172 44.5 8-8 1 1v8l-4 4Z" style="fill:#3a2828;stroke:none"/>
        <path d="m171.5 69 2.5-2.5 5 5v2l-.5.5h-1l-1-1h-1Zm1.5 12.5v-1l5-5v10l-.5.5Z" style="stroke:none"/>
        <path d="M175 106.5V99h1.5l7.5 7.5-3 3v3Z" style="fill:#3a2828;stroke:none"/>
        <path d="m177 49.5 3.5-3.5 3.5 3.5-3 3-.5-.5h-1Z" style="stroke:none"/>
        <path d="m179 77.5 6 6v8l2.5 2.5-4.5 4.5v-7l-5.5-5.5.5-.5V74h.5l.5-.5Z" style="fill:#6e7080;stroke:none"/>
        <path d="M187 72.5v4l-2.5 2.5-2.5-2.5v-5l-3-3v-4Z" style="fill:#e05438;stroke:none"/>
        <path d="m181 52.5 2-2 4 4-3 3v-2Z" style="fill:#6e7080;stroke:none"/>
        <path d="M181 113.5v-4l3.5-3.5h4l3.5 3.5-6.5 6.5h-2Z" style="fill:#989aa4;stroke:none"/>
        <path d="m181.5 33 .5-.5V32h.5l2-2h3.5v1.5l7 7 1.5-1.5h1l11-11h.5v9.5l-6 6v2l-1 1v.5h-.5l-2 2-7-7h-2l-7-7Z" style="stroke:none"/>
        <path d="M183 99.5v-1l4.5-4.5.5.5V106h-1.5l-1.5-1.5v-1l-1-1v-2Z" style="fill:#4a4b53;stroke:none"/>
        <path d="M184 59.5v-2l3.5-3.5h2l4.5 4.5v4l-3.5 3.5Z" style="stroke:none"/>
        <path d="M185 86.5v-3l3.5-3.5.5.5v4l5 5v8l6.5 6.5-.5.5v5L189.5 99H188v-4h1.5l2-2Z" style="fill:#9e172c;stroke:none"/>
        <path d="m191.5 93-2 2H188v-.5l-3-3v-5Z" style="fill:#e05438;stroke:none"/>
        <path d="M188 31.5v-5l9-9v-5l-.5-.5 6-6h2.5v.5l4 4V26h-.5l-11 11h-1l-1.5 1.5Z" style="fill:#736d66;stroke:none"/>
        <path d="M188.5 106h-.5v-7h1.5l10.5 10.5-1.5 1.5h-5Z" style="fill:#e05438;stroke:none"/>
        <path d="m190.5 112-.5-.5 2-2 1.5 1.5h5l1.5-1.5v-5l.5-.5 6.5 6.5v6l-2.5 2.5h-2l-7-7Z" style="fill:#6e7080;stroke:none"/>
        <path d="M197 80.5v6l-3-3v-6Z" style="fill:#3a2828;stroke:none"/>
        <path d="M194 95.5v-4l2.5-2.5h.5v3.5Z" style="fill:#6e7080;stroke:none"/>
        <path d="M194 97.5v-2l2-2 5 5v5l-.5.5Z" style="fill:#4a4b53;stroke:none"/>
        <path d="m196 93.5 1-1V89h2.5l7.5 7.5v5l-1.5-1.5H201v-1.5Z" style="stroke:none"/>
        <path d="M200 79.5v-3l3.5-3.5 3.5 3.5V82h-4.5Zm.5 24.5.5-.5V100h4.5l1.5 1.5v1l3 3v9l-3.5 3.5-.5-.5 1-1v-6Z" style="fill:#3a2828;stroke:none"/>
        <path d="M208.5 63h.5v2.5l2.5 2.5h13l5-5h6l1-1h.5v.5l-1 1v1l-9 9v.5h-1.5l-1 1h-3L211 85.5l-3.5-3.5h-.5v-5.5l-4-4v-15Z" style="stroke:none"/>
        <path d="M209 65.5V64h4.5l4-4h5l3-3h7l3-3h3.5v.5l1 1v4l-2.5 2.5h-1l-1 1h-6l-5 5h-13Z" style="fill:#736d66;stroke:none"/>
    </g>
</svg>
