<svg xmlns="http://www.w3.org/2000/svg" width="292" height="278" style="fill-opacity:1;color-rendering:auto;color-interpolation:auto;text-rendering:auto;stroke:#000;stroke-linecap:square;stroke-miterlimit:10;shape-rendering:auto;stroke-opacity:1;fill:#000;stroke-dasharray:none;font-weight:400;stroke-width:1;font-family:&quot;Dialog&quot;;font-style:normal;stroke-linejoin:miter;font-size:12px;stroke-dashoffset:0;image-rendering:auto">
    <g style="stroke-linecap:round;fill:#3a2828;stroke:#3a2828">
        <path stroke="none" d="M11.5 160h3l5 5h11l4 4h11l3-3h2l4.5 4.5v11l2 2v3l-5.5 5.5h-14L6 160.5v-5l.5-.5Z" style="stroke:none"/>
    </g>
    <g stroke="none" style="stroke-linecap:round;fill:#52453f;stroke:#52453f">
        <path d="m6.5 155 3-3h10l6 6h34l4.5-4.5v3l6.5 6.5h6l2-2 5.5 5.5-1.5 1.5h-7l-3 3h-3l-3-3h-2l-2.5 2.5v1l-7 7v-8l-4.5-4.5h-2l-3 3h-11l-4-4h-11l-5-5h-3Z" style="stroke:none"/>
        <path d="M55 181.5v-3l7-7 2.5 2.5h5l1.5 1.5-8.5 8.5H57v-.5Z" style="fill:#736d66;stroke:none"/>
        <path d="M61 150.5v-12l4-4v-17l6-6V110h1.5l4.5-4.5V102h1.5l2.5 2.5v5l.5.5 6.5-6.5v10l-4 4v5l-3 3v5l-4 4v8l-4.5 4.5-1-1h-3l-4.5 4.5v3Zm1 21v-1l2.5-2.5h2l3 3h3l3-3h7l5-5H92v.5l1.5 1.5-.5.5v5.5h-1.5l-2.5 2.5v1l-5.5 5.5h-3l-4-4h-5l-2-2h-5Z" style="fill:#3a2828;stroke:none"/>
        <path d="M64 156.5v-6l4.5-4.5h3l1.5 1.5v1l9 9-5.5 5.5h-6Zm7-46.5v-7.5l2.5-2.5h2l1.5 1.5v4l-4.5 4.5Z" style="fill:#736d66;stroke:none"/>
        <path d="M73 148.5v-1l-.5-.5 4.5-4.5v4l3 3-3 3Z" style="stroke:none"/>
        <path d="M77 145.5v-11l4-4v6l2.5 2.5Z" style="fill:#736d66;stroke:none"/>
        <path d="M77 146.5v-1l6.5-6.5 1 1H86v14h-1.5Z" style="fill:#6e7080;stroke:none"/>
        <path d="m77 152.5 3-3 4.5 4.5h.5v1.5l-1.5 1.5h-1l-.5.5Z" style="fill:#3a2828;stroke:none"/>
        <path d="m78.5 161 4-4h1l1.5-1.5V154h1.5l5.5 5.5v3.5h-4.5l-3.5 3.5Zm2.5-24.5v-11l3-3v-2l3.5 3.5-1.5 1.5V140h-1.5Z" style="fill:#4a4b53;stroke:none"/>
        <path d="M84 120.5v-3l4-4v-.5h1.5l5-5h4l3 3-3 3h-4l-3.5 3.5v3l-3.5 3.5Z" style="fill:#6e7080;stroke:none"/>
        <path d="M86 143.5v-18l5-5v-3l3.5-3.5h4l3.5 3.5v1l-7 7v3l.5.5-6.5 6.5v5Z" style="fill:#9e172c;stroke:none"/>
        <path d="M86 151v-7.5l3-3v-5l2.5-2.5.5.5v8l8.5 8.5h1.5v1.5l5 5v6l3.5 3.5h-6l-15-15Z" style="fill:#e05438;stroke:none"/>
        <path d="M86.5 154H86v-3h3.5l15 15h6l2.5 2.5v4l-2.5 2.5h-2l-3-3h-5l-8.5-8.5v-4Z" style="fill:#9e172c;stroke:none"/>
        <path d="M88 113v-10.5l2-2v-12l4.5-4.5 3 3h2l3-3 1.5 1.5v9l-.5.5-3.5-3.5-4.5 4.5 9.5 9.5v5l-.5.5-1.5-1.5-1.5 1.5-3-3h-4l-5 5Z" style="stroke:none"/>
        <path d="M89 174.5v-1l2.5-2.5h2l7.5 7.5v2.5h-.5l-1 1h-3Z" style="fill:#736d66;stroke:none"/>
        <path d="M92 141.5v-8l-.5-.5 5.5-5.5 5 5V150h-1.5Z" style="fill:#f98f4a;stroke:none"/>
        <path d="M100.5 172h5l3 3h2l2.5-2.5v-4l-2-2 3-3v-4l-1.5-1.5h5l3.5 3.5v3l-2 2v2l2 2v2l-5.5 5.5h-5l-3 3h-1l-5-5h-2l-.5.5-5.5-5.5H93v-5.5l.5-.5Z" style="fill:#4a4b53;stroke:none"/>
        <path d="m94.5 84 2.5-2.5v-4l1.5-1.5 4.5 4.5v3L99.5 87h-2Z" style="fill:#3a2828;stroke:none"/>
        <path d="m95.5 129-.5-.5v-3l7-7v14l-5-5Z" style="fill:#e05438;stroke:none"/>
        <path d="m95.5 96 4.5-4.5 13 13v4l4 4v5l2.5 2.5.5-.5v-9l2.5-2.5 5 5 4.5-4.5v-10l4-4 3 3v13l3 3 4-4 4 4 3-3v-13l3-3 4 4v10l4.5 4.5 5-5 2.5 2.5v9l.5.5 2.5-2.5v-5l4-4v-4l13-13 4.5 4.5-9.5 9.5v5l.5.5-3.5 3.5v1l.5.5-2.5 2.5v4l5 5v6l-2 2v1l-4 4v6l2.5 2.5-.5.5v5l-3.5 3.5h-5l-3.5 3.5v3l2 2v2l-2 2v2l5.5 5.5h5l3 3h-8l-4 4h-4L158 174.5l3-3v-3l-5-5 2.5-2.5 2.5 2.5 4.5-4.5-4.5-4.5v-4l-3.5-3.5h-3l-3.5 3.5-3.5-3.5h-3l-3.5 3.5-3.5-3.5h-3l-3.5 3.5v4l-4.5 4.5 4.5 4.5 2.5-2.5 2.5 2.5-5 5v3l3 3-10.5 10.5h-4l-4-4h-8l3-3h5l5.5-5.5v-2l-2-2v-2l2-2v-3l-3.5-3.5h-5l-3.5-3.5v-5l-.5-.5 2.5-2.5v-6l-4-4v-1l-2-2v-6l5-5v-4l-2.5-2.5.5-.5v-1l-3.5-3.5.5-.5v-5Z" style="fill:#3a2828;stroke:none"/>
        <path d="m98.5 114 4.5-4.5 5 5v1l-6 6v-4Z" style="fill:#989aa4;stroke:none"/>
        <path d="m99 176.5.5-.5h2l5 5H101v-2.5Z" style="fill:#3a2828;stroke:none"/>
        <path d="M102 141.5v-20l5.5-5.5 2.5 2.5v4l-5 5v6l2 2v1Z" style="fill:#4a4b53;stroke:none"/>
        <path d="M102 151.5v-10l5-5 4 4v6l-7 7Z" style="fill:#6e7080;stroke:none"/>
        <path d="m104 153.5 4.5-4.5.5.5v5l3.5 3.5h-3l-2.5 2.5v-4Z" style="fill:#4a4b53;stroke:none"/>
        <path d="m107.5 128 3 3 3.5-3.5-3-3Z" style="fill:#3a2828;stroke:none"/>
        <path d="M107 162.5v-2l2.5-2.5h3l1.5 1.5v4l-3 3Z" style="fill:#6e7080;stroke:none"/>
        <path d="m107.5 128 3.5-3.5 3 3-3.5 3.5Z" style="stroke:none"/>
        <path d="M126 122.5v4l2.5 2.5h6l5.5-5.5v-4l-5.5-5.5h-2l-1.5 1.5v2Z" style="fill:#3a2828;stroke:none"/>
        <path d="M126 126.5v-4l5-5v-2l1.5-1.5h2l5.5 5.5v4l-5.5 5.5h-6Zm.5 32.5 4.5-4.5 4.5 4.5.5-.5 2.5 2.5-2.5 2.5-2.5-2.5-2.5 2.5Z" style="stroke:none"/>
        <path d="M131 154.5v-4l3.5-3.5h3l3.5 3.5 3.5-3.5h3l3.5 3.5 3.5-3.5h3l3.5 3.5v4l-4.5 4.5-5-5h-2l-3.5 3.5-3.5-3.5h-2l-5 5Z" style="fill:#4a4b53;stroke:none"/>
        <path d="M131 171.5v-3l10-10 5 5 5-5 10 10v3l-3.5 3.5h-6l-5.5-5.5-5.5 5.5h-6Z" style="fill:#736d66;stroke:none"/>
        <path d="M135 136.5v2l2.5 2.5h17l2.5-2.5v-2l-9.5-9.5h-3Z" style="fill:#3a2828;stroke:none"/>
        <path d="M135 138.5v-2l9.5-9.5h3l9.5 9.5v2l-2.5 2.5h-17Z" style="stroke:none"/>
        <path d="m136 158.5 4.5-4.5h2l3.5 3.5 3.5-3.5h2l4.5 4.5-2.5 2.5-2.5-2.5-5 5-5-5-2.5 2.5Z" style="fill:#3a2828;stroke:none"/>
        <path d="M139 110.5v-7l3.5-3.5h7l3.5 3.5v7l-3 3-4-4-4 4Z" style="stroke:none"/>
        <path d="M152 119.5v4l5.5 5.5h6l2.5-2.5v-4l-5-5v-2l-1.5-1.5h-2Z" style="fill:#3a2828;stroke:none"/>
        <path d="M152 123.5v-4l5.5-5.5h2l1.5 1.5v2l5 5v4l-2.5 2.5h-6Zm1.5 37.5 2.5-2.5.5.5 4.5-4.5 4.5 4.5-4.5 4.5-2.5-2.5-2.5 2.5Z" style="stroke:none"/>
        <path d="M171 164.5v-3l3.5-3.5h5l-1.5 1.5v4l3 3-2 2v4l2.5 2.5h2l3-3h5l7-7 .5.5v5.5h-.5l-5.5 5.5-.5-.5h-2l-5 5h-1l-3-3h-5l-5.5-5.5v-2l2-2v-2Z" style="fill:#4a4b53;stroke:none"/>
        <path d="m178 127.5 3.5 3.5 3-3-3.5-3.5Z" style="fill:#3a2828;stroke:none"/>
        <path d="m178 127.5 3-3 3.5 3.5-3 3Z" style="stroke:none"/>
        <path d="M178 163.5v-4l1.5-1.5h3l2.5 2.5v2l-4 4Z" style="fill:#6e7080;stroke:none"/>
        <path d="M179 172.5v-4l3-3 .5.5h5l15-15h3.5v3h-.5l-5.5 5.5v4l-8.5 8.5h-5l-3 3h-2Z" style="fill:#9e172c;stroke:none"/>
        <path d="m179.5 158 3.5-3.5v-5l.5-.5 4.5 4.5-3 3v4l-2.5-2.5Z" style="fill:#4a4b53;stroke:none"/>
        <path d="M181 146.5v-6l4-4 5 5v10l-2 2Z" style="fill:#6e7080;stroke:none"/>
        <path d="M182 122.5v-4l2.5-2.5 5.5 5.5v20l-5-5v-1l2-2v-6Z" style="fill:#4a4b53;stroke:none"/>
        <path d="m182.5 166-.5-.5 3-3v-6l5-5V150h1.5l8.5-8.5v-8l.5-.5 2.5 2.5v5l3 3v7.5h-3.5l-15 15Z" style="fill:#e05438;stroke:none"/>
        <path d="M184 115.5v-1l5-5 4.5 4.5-3.5 3.5v4Z" style="fill:#989aa4;stroke:none"/>
        <path d="m185.5 181 5-5h2l.5.5-2 2v2.5Z" style="fill:#3a2828;stroke:none"/>
        <path d="m187.5 111-.5-.5v-5l9.5-9.5-4.5-4.5-3.5 3.5-.5-.5v-9l1.5-1.5 3 3h2l3-3 4.5 4.5v12l2 2V113h-1.5l-5-5h-4l-3 3-1.5-1.5Z" style="stroke:none"/>
        <path d="M189 83.5v-3l4.5-4.5 1.5 1.5v4l2.5 2.5-3 3h-2Z" style="fill:#3a2828;stroke:none"/>
        <path d="M190 118.5v-1l3.5-3.5h4l3.5 3.5v3l5 5v18l-3-3v-5l-6.5-6.5.5-.5v-3Z" style="fill:#9e172c;stroke:none"/>
        <path d="M197 125.5v3l-.5.5-1.5-1.5-5 5v-14Z" style="fill:#e05438;stroke:none"/>
        <path d="M190 150v-17.5l5-5 5.5 5.5-.5.5v8l-8.5 8.5Z" style="fill:#f98f4a;stroke:none"/>
        <path d="m190.5 111 3-3h4l5 5h1.5v.5l4 4v3l-3.5 3.5-3.5-3.5v-3l-3.5-3.5h-4Z" style="fill:#6e7080;stroke:none"/>
        <path d="M191.5 181h-.5v-2.5l7.5-7.5h2l2.5 2.5v1l-7.5 7.5h-3Z" style="fill:#736d66;stroke:none"/>
        <path d="M199 171v-5.5l-.5-.5 1.5-1.5v-.5h4.5l5 5h7l3 3h3l3-3h2l2.5 2.5v1l-2.5 2.5h-5l-2 2h-5l-4 4h-3l-5.5-5.5v-1l-2.5-2.5Z" style="fill:#3a2828;stroke:none"/>
        <path d="M200 163v-3.5l5.5-5.5h1.5v1.5l1.5 1.5h1l4 4-5.5 5.5-3.5-3.5Z" style="fill:#4a4b53;stroke:none"/>
        <path d="m210.5 110 .5-.5v-5l2.5-2.5h1.5v3.5l4.5 4.5h1.5v1.5l6 6v17l4 4v12l-3 3v-3l-4.5-4.5h-3l-1 1-4.5-4.5v-8l-4-4v-5l-3-3v-5l-4-4v-10Z" style="fill:#3a2828;stroke:none"/>
        <path d="m204.5 124 3.5-3.5v2l3 3v11l-3.5 3.5H206v-14.5Z" style="fill:#4a4b53;stroke:none"/>
        <path d="M206 154v-14h1.5l1-1 6.5 6.5v1l-7.5 7.5Z" style="fill:#6e7080;stroke:none"/>
        <path d="M207 155.5V154h.5l4.5-4.5 3 3-5 5-.5-.5h-1Z" style="fill:#3a2828;stroke:none"/>
        <path d="m208 166.5 5.5-5.5 2 2h6l6.5-6.5v-3l4.5 4.5h34l6-6h10l3 3-5 5h-3l-5 5h-11l-4 4h-11l-3-3h-2l-4.5 4.5v8l-7-7v-1l-2.5-2.5h-2l-3 3h-3l-3-3h-7Z" style="stroke:none"/>
        <path d="m208.5 139 2.5-2.5v-6l4 4v11Zm1.5 18.5 9-9v-1l1.5-1.5h3l4.5 4.5v6l-6.5 6.5h-6Z" style="fill:#736d66;stroke:none"/>
        <path d="m212 149.5 3-3v-4l4.5 4.5-.5.5v1l-4 4Z" style="stroke:none"/>
        <path d="M215 105.5v-4l1.5-1.5h2l2.5 2.5v7.5h-1.5Zm6 70 1.5-1.5h5l2.5-2.5 7 7v3l-2 2v.5h-5.5Z" style="fill:#736d66;stroke:none"/>
        <path d="M235 186.5v-3l2-2v-11l4.5-4.5h2l3 3h11l4-4h11l5-5h3l5-5 .5.5v5L254.5 192h-14Z" style="fill:#3a2828;stroke:none"/>
    </g>
</svg>
