<svg xmlns="http://www.w3.org/2000/svg" width="68" height="62" style="fill-opacity:1;color-rendering:auto;color-interpolation:auto;text-rendering:auto;stroke:#000;stroke-linecap:square;stroke-miterlimit:10;shape-rendering:auto;stroke-opacity:1;fill:#000;stroke-dasharray:none;font-weight:400;stroke-width:1;font-family:&quot;Dialog&quot;;font-style:normal;stroke-linejoin:miter;font-size:12px;stroke-dashoffset:0;image-rendering:auto">
    <g style="stroke-linecap:round;fill:#52453f;stroke:#52453f">
        <path stroke="none" d="M10 31.5v-2l3.5-3.5.5.5v3l2.5 2.5-2 2h-2Z" style="stroke:none"/>
    </g>
    <g stroke="none" style="stroke-linecap:round;fill:#736d66;stroke:#736d66">
        <path d="M14 29.5v-3l-.5-.5 5-5h7l3-3h11l3 3h7l5 5-.5.5v3L50.5 33l-3-3 2.5-2.5-2.5-2.5-2 2h-4l-4-4h-7l-4 4h-4l-2-2-2.5 2.5 2.5 2.5-3 3Z" style="stroke:none"/>
        <path d="m18 27.5 2.5-2.5 2 2H26v2.5L23.5 32h-2l-3 3-.5-.5v-1l-.5-.5 3-3Z" style="fill:#52453f;stroke:none"/>
        <path d="M21 21v-3.5l4.5-4.5 3 3h.5v2h-.5l-3 3Z" style="fill:#3a2828;stroke:none"/>
        <path d="M26 13.5 30.5 9h7l4.5 4.5-2.5 2.5h-2l-2-2h-3l-2 2h-2Z" style="stroke:none"/>
        <path d="M29 18v-2h1.5l2-2h3l2 2H39v2Z" style="fill:#52453f;stroke:none"/>
        <path d="M39.5 18H39v-2h.5l3-3 4.5 4.5V21h-4.5Z" style="fill:#3a2828;stroke:none"/>
        <path d="M42 29.5V27h3.5l2-2 2.5 2.5-2.5 2.5 3 3-.5.5v1l-.5.5-3-3h-2Zm9.5 2.5 2.5-2.5v-3l.5-.5 3.5 3.5v2L55.5 34h-2Z" style="fill:#52453f;stroke:none"/>
    </g>
</svg>
