<svg xmlns="http://www.w3.org/2000/svg" width="28" height="28" style="fill-opacity:1;color-rendering:auto;color-interpolation:auto;text-rendering:auto;stroke:#000;stroke-linecap:square;stroke-miterlimit:10;shape-rendering:auto;stroke-opacity:1;fill:#000;stroke-dasharray:none;font-weight:400;stroke-width:1;font-family:&quot;Dialog&quot;;font-style:normal;stroke-linejoin:miter;font-size:12px;stroke-dashoffset:0;image-rendering:auto">
    <g style="stroke-linecap:round;fill:#4a4b53;stroke:#4a4b53">
        <path stroke="none" d="M4 23.5v-4L5.5 18 9 21.5l-2 2v2l-.5.5Z" style="stroke:none"/>
    </g>
    <g stroke="none" style="stroke-linecap:round;fill:#8ca9e8;stroke:#8ca9e8">
        <path d="M6 13.5v-3L10.5 6l1 1-.5.5v1Z" style="stroke:none"/>
        <path d="m6 13.5 5-5v5L8.5 16Z" style="fill:#d1efff;stroke:none"/>
        <path d="m6 18.5 4-4 3.5 3.5-4 4Z" style="fill:#6e7080;stroke:none"/>
        <path d="m10 14.5 1-1v-2l3 3 3-3v2l1 1-3.5 3.5h-1Z" style="fill:#989aa4;stroke:none"/>
        <path d="m9.5 22 4-4h1l4 4-2 2-2.5-2.5-2.5 2.5Z" style="fill:#4a4b53;stroke:none"/>
        <path d="m10.5 6 2-2h3l2 2L14 9.5Z" style="fill:#989aa4;stroke:none"/>
        <path d="M14 9.5 16.5 7l.5.5v4l-3 3-3-3v-4l.5-.5Zm.5 8.5 3.5-3.5 4 4-3.5 3.5Z" style="fill:#6e7080;stroke:none"/>
        <path d="M22 10.5v3l-5-5v-1l-.5-.5 1-1Z" style="stroke:none"/>
        <path d="M22 13.5 19.5 16 17 13.5v-5Z" style="fill:#d1efff;stroke:none"/>
        <path d="m19 21.5 3.5-3.5 1.5 1.5v4L21.5 26l-.5-.5v-2Z" style="fill:#4a4b53;stroke:none"/>
    </g>
</svg>
