<svg xmlns="http://www.w3.org/2000/svg" width="46" height="50" style="fill-opacity:1;color-rendering:auto;color-interpolation:auto;text-rendering:auto;stroke:#000;stroke-linecap:square;stroke-miterlimit:10;shape-rendering:auto;stroke-opacity:1;fill:#000;stroke-dasharray:none;font-weight:400;stroke-width:1;font-family:&quot;Dialog&quot;;font-style:normal;stroke-linejoin:miter;font-size:12px;stroke-dashoffset:0;image-rendering:auto">
    <g style="stroke-linecap:round;fill:#4a4b53;stroke:#4a4b53">
        <path stroke="none" d="M11 38.5v-2l6-6 2 2v2l-3 3 2.5 2.5h1l3.5 3.5 3.5-3.5h1l2.5-2.5-3-3v-2l2-2 6 6v2L27.5 46h-9Z" style="stroke:none"/>
    </g>
    <g stroke="none" style="stroke-linecap:round;fill:#6e7080;stroke:#6e7080">
        <path d="m16 37.5 3-3V40h-.5Z" style="stroke:none"/>
        <path d="m17 30.5 3-3 1.5 1.5-3 3Z" style="fill:#989aa4;stroke:none"/>
        <path d="M19 33.5v-1l-.5-.5 3-3 1.5 1.5 1.5-1.5 3 3-.5.5V34h-.5L23 37.5Z" style="fill:#d1efff;stroke:none"/>
        <path d="m23 37.5 3.5-3.5h.5v6h-.5L23 43.5 19.5 40H19v-6.5Z" style="fill:#8ca9e8;stroke:none"/>
        <path d="m24.5 29 1.5-1.5 3 3-1.5 1.5Z" style="fill:#989aa4;stroke:none"/>
        <path d="M30 37.5 27.5 40H27v-5.5Z" style="stroke:none"/>
    </g>
</svg>
