<svg xmlns="http://www.w3.org/2000/svg" width="44" height="51" style="fill-opacity:1;color-rendering:auto;color-interpolation:auto;text-rendering:auto;stroke:#000;stroke-linecap:square;stroke-miterlimit:10;shape-rendering:auto;stroke-opacity:1;fill:#000;stroke-dasharray:none;font-weight:400;stroke-width:1;font-family:&quot;Dialog&quot;;font-style:normal;stroke-linejoin:miter;font-size:12px;stroke-dashoffset:0;image-rendering:auto">
    <g style="stroke-linecap:round;fill:#6e7080;stroke:#6e7080">
        <path stroke="none" d="M5 18.5v-5l1-1 4.5 4.5L7 20.5Z" style="stroke:none"/>
    </g>
    <g stroke="none" style="stroke-linecap:round;fill:#989aa4;stroke:#989aa4">
        <path d="M6 12.5 13.5 5h4l.5.5v4L10.5 17Z" style="stroke:none"/>
        <path d="m8.5 34-.5-.5v-5l2-2 3 3Z" style="fill:#4a4b53;stroke:none"/>
        <path d="m8.5 34 6-6 3.5 3.5-6 6Z" style="fill:#bf92f9;stroke:none"/>
        <path d="m10 26.5 3.5-3.5 3 3-3.5 3.5Zm.5-9.5L18 9.5l3 3-7.5 7.5Z" style="fill:#6e7080;stroke:none"/>
        <path d="m12 37.5 6-6-3.5-3.5 2-2 5.5 5.5 5.5-5.5 2 2-3.5 3.5 6 6-2.5 2.5-7.5-7.5-7.5 7.5Z" style="fill:#665c9f;stroke:none"/>
        <path d="m13.5 23 .5-.5v-2l-.5-.5 7.5-7.5.5.5h1l.5-.5 7.5 7.5-.5.5v2l.5.5-3 3-5.5-5.5-5.5 5.5Z" style="stroke:none"/>
        <path d="m14.5 40 7.5-7.5 7.5 7.5-3 3h-9Z" style="fill:#4a4b53;stroke:none"/>
        <path d="m16.5 26 5.5-5.5 5.5 5.5-2.5 2.5-3-3-3 3Z" style="fill:#6e7080;stroke:none"/>
        <path d="m19 28.5 3-3 3 3-3 3Z" style="fill:#4a4b53;stroke:none"/>
        <path d="m23 12.5 3-3 7.5 7.5-3 3Z" style="fill:#6e7080;stroke:none"/>
        <path d="M26 9.5v-4l.5-.5h4l7.5 7.5-4.5 4.5Z" style="stroke:none"/>
        <path d="m26 31.5 3.5-3.5 6 6-3.5 3.5Z" style="fill:#bf92f9;stroke:none"/>
        <path d="m27.5 26 3-3 3.5 3.5-3 3Z" style="fill:#6e7080;stroke:none"/>
        <path d="m31 29.5 3-3 2 2v5l-.5.5Z" style="fill:#4a4b53;stroke:none"/>
        <path d="m33.5 17 4.5-4.5 1 1v5l-2 2Z" style="fill:#6e7080;stroke:none"/>
    </g>
</svg>
