<svg xmlns="http://www.w3.org/2000/svg" width="25" height="44" style="fill-opacity:1;color-rendering:auto;color-interpolation:auto;text-rendering:auto;stroke:#000;stroke-linecap:square;stroke-miterlimit:10;shape-rendering:auto;stroke-opacity:1;fill:#000;stroke-dasharray:none;font-weight:400;stroke-width:1;font-family:&quot;Dialog&quot;;font-style:normal;stroke-linejoin:miter;font-size:12px;stroke-dashoffset:0;image-rendering:auto">
    <g style="stroke-linecap:round;fill:#4a4b53;stroke:#4a4b53">
        <path stroke="none" d="M6 16.5v-7L8.5 7l1 1-.5.5v4l.5.5Z" style="stroke:none"/>
    </g>
    <g stroke="none" style="stroke-linecap:round;fill:#989aa4;stroke:#989aa4">
        <path d="M6 24.5v-8L9.5 13l4 4Z" style="stroke:none"/>
        <path d="m6 24.5 7.5-7.5H15v3.5L8.5 27Z" style="fill:#ffd37f;stroke:none"/>
        <path d="m8.5 7 3-3h1L17 8.5v7Z" style="stroke:none"/>
        <path d="M17 15.5V17h-3.5L9 12.5v-4l.5-.5Z" style="fill:#6e7080;stroke:none"/>
        <path d="m8.5 27 6.5-6.5v5l-4 4Z" style="fill:#d4816b;stroke:none"/>
        <path d="m11 29.5 3.5-3.5 5 5-3 3h-1Z" style="fill:#6e7080;stroke:none"/>
        <path d="m14.5 26 .5-.5V17h3v.5l2 2v12Z" style="fill:#4a4b53;stroke:none"/>
    </g>
</svg>
