<svg xmlns="http://www.w3.org/2000/svg" width="25" height="34" style="fill-opacity:1;color-rendering:auto;color-interpolation:auto;text-rendering:auto;stroke:#000;stroke-linecap:square;stroke-miterlimit:10;shape-rendering:auto;stroke-opacity:1;fill:#000;stroke-dasharray:none;font-weight:400;stroke-width:1;font-family:&quot;Dialog&quot;;font-style:normal;stroke-linejoin:miter;font-size:12px;stroke-dashoffset:0;image-rendering:auto">
    <g style="stroke-linecap:round;fill:#4a4b53;stroke:#4a4b53">
        <path stroke="none" d="m5.5 25-.5-.5v-6L7.5 16l3.5 3.5Z" style="stroke:none"/>
    </g>
    <g stroke="none" style="stroke-linecap:round;fill:#6e7080;stroke:#6e7080">
        <path d="m5.5 25 5.5-5.5 2.5 2.5L8 27.5ZM8 12.5v-5L10.5 5h.5v4.5Z" style="stroke:none"/>
        <path d="M8 15.5v-3l3-3V5h1.5L17 9.5v9l-1 1-6-6Z" style="fill:#989aa4;stroke:none"/>
        <path d="m7.5 16 2.5-2.5 3 3-2.5 2.5Z" style="fill:#d1efff;stroke:none"/>
        <path d="m8 27.5 9-9v6l.5.5-5 5h-2Z" style="fill:#4a4b53;stroke:none"/>
        <path d="m10.5 19 2.5-2.5 3 3-2.5 2.5Z" style="fill:#8ca9e8;stroke:none"/>
        <path d="m17.5 25-.5-.5v-7l3-3 1 1v6Z" style="stroke:none"/>
    </g>
</svg>
