<svg xmlns="http://www.w3.org/2000/svg" width="23" height="26" style="fill-opacity:1;color-rendering:auto;color-interpolation:auto;text-rendering:auto;stroke:#000;stroke-linecap:square;stroke-miterlimit:10;shape-rendering:auto;stroke-opacity:1;fill:#000;stroke-dasharray:none;font-weight:400;stroke-width:1;font-family:&quot;Dialog&quot;;font-style:normal;stroke-linejoin:miter;font-size:12px;stroke-dashoffset:0;image-rendering:auto">
    <g style="stroke-linecap:round;fill:#d1efff;stroke:#d1efff">
        <path stroke="none" d="M5 10.5v-4L6.5 5H8v3.5l3 3L8.5 14Z" style="stroke:none"/>
    </g>
    <g stroke="none" style="stroke-linecap:round;fill:#6e7080;stroke:#6e7080">
        <path d="M8.5 14 13 9.5l2.5 2.5-1.5 1.5v.5h-1.5l-3 3-2-2-2 2-.5-.5v-6Z" style="stroke:none"/>
        <path d="m5.5 17 2-2 2 2 3-3H14v6.5l-.5.5h-4Z" style="fill:#4a4b53;stroke:none"/>
        <path d="m13 9.5-2 2-3-3V5h.5Z" style="fill:#8ca9e8;stroke:none"/>
        <path d="M14 17.5v-4l1.5-1.5 2.5 2.5v5l-1 1Z" style="fill:#989aa4;stroke:none"/>
    </g>
</svg>
