<svg xmlns="http://www.w3.org/2000/svg" width="84" height="146" style="fill-opacity:1;color-rendering:auto;color-interpolation:auto;text-rendering:auto;stroke:#000;stroke-linecap:square;stroke-miterlimit:10;shape-rendering:auto;stroke-opacity:1;fill:#000;stroke-dasharray:none;font-weight:400;stroke-width:1;font-family:&quot;Dialog&quot;;font-style:normal;stroke-linejoin:miter;font-size:12px;stroke-dashoffset:0;image-rendering:auto">
    <g style="stroke-linecap:round;fill:#4a4b53;stroke:#4a4b53">
        <path stroke="none" d="M17 86.5v-8l3.5-3.5 6 6-4 4 4 4 4.5-4.5 7.5 7.5h3l8.5-8.5v-3l-.5-.5-3 3H46v-6.5l4-4v5l4.5 4.5 2-2 10 10H70v1.5L53.5 108h-3l-3.5-3.5 5.5-5.5-7-7h-3l-7 7h-6Z" style="stroke:none"/>
    </g>
    <g stroke="none" style="stroke-linecap:round;fill:#6e7080;stroke:#6e7080">
        <path d="m20.5 75 14-14 5.5 5.5v8L33.5 68 28 73.5l3 3-4.5 4.5Z" style="stroke:none"/>
        <path d="m22.5 85 4.5-4.5 4 4-4.5 4.5Z" style="fill:#8ca9e8;stroke:none"/>
        <path d="m25.5 70-.5-.5v-22l9-9v22l.5.5Z" style="fill:#989aa4;stroke:none"/>
        <path d="m27 80.5 5-5 4 4-5 5Z" style="fill:#d1efff;stroke:none"/>
        <path d="m28 73.5 5.5-5.5 6.5 6.5v11l-5-5 1-1-4-4-1 1Z" style="fill:#989aa4;stroke:none"/>
        <path d="m29.5 43-.5-.5v-32L33.5 6l.5.5v32ZM31 84.5l4-4 5 5v1l3.5 3.5-2 2h-3Z" style="stroke:none"/>
        <path d="M34 26.5v-20l-.5-.5 1-1h14l1 1-.5.5v20l-9 9v-3Z" style="fill:#989aa4;stroke:none"/>
        <path d="M40 32.5v14l6.5 6.5-.5.5v16l-.5.5-5.5-5.5v-9l-6-6v-23Z" style="fill:#d1efff;stroke:none"/>
        <path d="M40 55.5v11l-6-6v-11Z" style="fill:#4a4b53;stroke:none"/>
        <path d="M39 9.5v9l4.5 4.5.5-.5v-9L39.5 9Z" style="fill:#989aa4;stroke:none"/>
        <path d="M44 13.5v9l-.5.5-4.5-4.5v-9l.5-.5ZM40.5 42l-.5-.5v-6l9-9v5l10 10V44h-3.5L47 35.5Z" style="stroke:none"/>
        <path d="M47.5 49h2l4.5 4.5-3.5 3.5L40 46.5v-5Z" style="fill:#4a4b53;stroke:none"/>
        <path d="m45.5 70 .5-.5v-16l.5-.5 4 4-.5.5v15l-4 4-6-6v-6Z" style="fill:#8ca9e8;stroke:none"/>
        <path d="M46 76.5v6l-6-6v-6Z" style="fill:#d1efff;stroke:none"/>
        <path d="M46 82.5v4l.5.5-3 3-3.5-3.5v-10Z" style="fill:#8ca9e8;stroke:none"/>
        <path d="m40.5 42 6.5-6.5 8.5 8.5H59v.5l5 5v8l6 6v7L65.5 75h-3L56 68.5v-13L49.5 49h-2Z" style="fill:#989aa4;stroke:none"/>
        <path d="m46.5 87-.5-.5V83h.5l3-3 .5.5v3Z" style="stroke:none"/>
        <path d="M59 15.5v8l-5 5v7l-.5.5-4.5-4.5v-25l.5-.5Z" style="fill:#4a4b53;stroke:none"/>
        <path d="M50 60.5v-3l4-4 2 2v11Z" style="stroke:none"/>
        <path d="m53.5 36 .5-.5v-7l5-5v18Z" style="fill:#989aa4;stroke:none"/>
        <path d="M62.5 75h3l4.5-4.5V79h-3.5L61 84.5l-5-5v-11Z" style="stroke:none"/>
        <path d="m61 84.5 5.5-5.5H70v11h-3.5Z" style="fill:#989aa4;stroke:none"/>
    </g>
</svg>
