<svg xmlns="http://www.w3.org/2000/svg" width="29" height="183" style="fill-opacity:1;color-rendering:auto;color-interpolation:auto;text-rendering:auto;stroke:#000;stroke-linecap:square;stroke-miterlimit:10;shape-rendering:auto;stroke-opacity:1;fill:#000;stroke-dasharray:none;font-weight:400;stroke-width:1;font-family:&quot;Dialog&quot;;font-style:normal;stroke-linejoin:miter;font-size:12px;stroke-dashoffset:0;image-rendering:auto">
    <g style="stroke-linecap:round;fill:#ffd37f;stroke:#ffd37f">
        <path stroke="none" d="M5 18.5v-14l.5-.5h3l6.5 6.5v5l6 6v19l-.5.5-7.5-7.5v-7Z" style="stroke:none"/>
    </g>
    <g stroke="none" style="stroke-linecap:round;fill:#6e7080;stroke:#6e7080">
        <path d="M13 26.5v7l3.5 3.5-8 8L5 41.5v-1l4-4v-5l-4-4v-9Z" style="stroke:none"/>
        <path d="M9 31.5v5l-4 4v-13Z" style="fill:#4a4b53;stroke:none"/>
        <path d="M10 46.5v6l-5-5v-6Z" style="fill:#989aa4;stroke:none"/>
        <path d="M10 52.5v4l.5.5-5 5 4.5 4.5 3.5-3.5.5.5v6l-4 4v3l12 12v12l-2.5 2.5h-3L5 91.5v-44Z" style="fill:#4a4b53;stroke:none"/>
        <path d="M5.5 62 16 51.5l8 8v8l-.5.5-7.5-7.5-6 6Z" style="fill:#989aa4;stroke:none"/>
        <path d="m8.5 45 8-8 4 4L10 51.5v-5Z" style="fill:#4a4b53;stroke:none"/>
        <path d="m10.5 57-.5-.5v-5l5.5-5.5.5.5v5ZM10 76.5v-3l4-4v-6l-.5-.5 2.5-2.5 7.5 7.5-6.5 6.5v8l-.5.5Z" style="stroke:none"/>
        <path d="M17 80.5v-6l3.5-3.5.5.5v5Z" style="fill:#4a4b53;stroke:none"/>
    </g>
</svg>
