<svg xmlns="http://www.w3.org/2000/svg" width="82" height="113" style="fill-opacity:1;color-rendering:auto;color-interpolation:auto;text-rendering:auto;stroke:#000;stroke-linecap:square;stroke-miterlimit:10;shape-rendering:auto;stroke-opacity:1;fill:#000;stroke-dasharray:none;font-weight:400;stroke-width:1;font-family:&quot;Dialog&quot;;font-style:normal;stroke-linejoin:miter;font-size:12px;stroke-dashoffset:0;image-rendering:auto">
    <g style="stroke-linecap:round;fill:#6e7080;stroke:#6e7080">
        <path stroke="none" d="m3 55.5 3-3 5 5-3 3Z" style="stroke:none"/>
    </g>
    <g stroke="none" style="stroke-linecap:round;fill:#989aa4;stroke:#989aa4">
        <path d="M4 47.5v-7l5-5V35h2v5.5l1.5 1.5h.5v2.5l.5.5-6 6Z" style="stroke:none"/>
        <path d="m6 52.5 8.5-8.5h4L29 54.5l2.5-2.5 4.5 4.5-.5.5h-2l-5 5h-5l-3 3h-3L14 61.5 8.5 67l-.5-.5v-6l3-3Z" style="fill:#4a4b53;stroke:none"/>
        <path d="m7 80.5-1-1v-10l8-8 3.5 3.5h3l3-3h5l5-5h2l.5-.5-13-13 6-6 5 5v4l7 7 7-7v-4l5-5 6 6-13 13 .5.5h2l5 5h5l3 3h3l3.5-3.5 8 8v10l-1 1-.5-.5h-1l-8-8h-3l-4-4H50v-.5L46.5 64h-11L32 67.5v.5h-8.5l-4 4h-3l-8 8h-1Z" style="stroke:none"/>
        <path d="m7 80.5.5-.5h1l8-8h3l2 2-3.5 3.5v2l3.5 3.5h6l5.5-5.5v-2l-5-5 2.5-2.5H32v1.5l6.5 6.5-1.5 1.5v8l4 4 4-4v-8L43.5 76l6.5-6.5V68h1.5l2.5 2.5-5 5v2l5.5 5.5h6l3.5-3.5v-2L60.5 74l2-2h3l8 8h1l.5.5-5.5 5.5h-8l-7 7h-7l-4 4h-5l-4-4h-7l-7-7h-8Z" style="fill:#4a4b53;stroke:none"/>
        <path d="M9 35v-4.5l4.5-4.5h4l3.5 3.5-2.5 2.5-3-3h-2L11 31.5V35Z" style="fill:#6e7080;stroke:none"/>
        <path d="M11.5 35H11v-3.5l2.5-2.5h2l3 3-.5.5v.5h-4.5Z" style="fill:#665c9f;stroke:none"/>
        <path d="M11 40.5V35h.5l2-2H18v4.5L13.5 42h-1Z" style="fill:#bf92f9;stroke:none"/>
        <path d="m12.5 57 3 3h3l3-3-3-3h-3Z" style="fill:#4a4b53;stroke:none"/>
        <path d="m13.5 45-.5-.5V42h2.5l2 2h-3Zm-1 12 3-3h3l3 3-3 3h-3Z" style="fill:#6e7080;stroke:none"/>
        <path d="M14 26v-2.5L26.5 11h8l2.5 2.5v11L31.5 30l-.5-.5v-6l3-3-3.5-3.5h-4l-9 9Z" style="stroke:none"/>
        <path d="m13.5 42 4.5-4.5v-5l8-8 2 2v6l-7 7v2L18.5 44h-1l-2-2Z" style="stroke:none"/>
        <path d="m17.5 26 5-5 3.5 3.5-5 5Z" style="fill:#bf92f9;stroke:none"/>
        <path d="M18 79.5v-2l3.5-3.5.5.5v1l3.5 3.5h5l.5.5-3.5 3.5h-6Z" style="fill:#665c9f;stroke:none"/>
        <path d="m18.5 44 2.5-2.5L31.5 52 29 54.5Zm1 28 4-4h7l-3 3h-3l-3 3Z" style="fill:#6e7080;stroke:none"/>
        <path d="M21 41.5v-2l7-7V32h1.5l4-4 .5.5v14l-5-5-6 6Z" style="fill:#4a4b53;stroke:none"/>
        <path d="M22 75.5v-1l-.5-.5 3-3h3l.5-.5 5 5v2l-2 2-.5-.5h-5Z" style="fill:#bf92f9;stroke:none"/>
        <path d="m22.5 21 4-4h2l2.5 2.5-5 5Z" style="fill:#665c9f;stroke:none"/>
        <path d="m26 24.5 5-5-2.5-2.5h2l3.5 3.5-3 3v6l.5.5-2 2H28v-5.5ZM32 68v-.5l3.5-3.5h11l3.5 3.5v.5Z" style="fill:#6e7080;stroke:none"/>
        <path d="M32 69.5V68h3.5l5.5 5.5 5.5-5.5H50v1.5L43.5 76h-5Z" style="fill:#665c9f;stroke:none"/>
        <path d="M35.5 68h11L41 73.5Z" style="fill:#bf92f9;stroke:none"/>
        <path d="M37 85.5v-8l1.5-1.5h5l1.5 1.5v8l-4 4Z" style="fill:#6e7080;stroke:none"/>
        <path d="M45 24.5v-11l2.5-2.5h8L68 23.5V26h-3.5l-9-9h-4L48 20.5l3 3v6l-.5.5Z" style="stroke:none"/>
        <path d="m46.5 57-.5-.5 4.5-4.5 2.5 2.5L63.5 44h4l8.5 8.5-5 5 3 3v6l-.5.5-5.5-5.5-3.5 3.5h-3l-3-3h-5l-5-5Z" style="fill:#4a4b53;stroke:none"/>
        <path d="m48 20.5 3.5-3.5h2L51 19.5l5 5-2 2V32h-1.5l-2-2 .5-.5v-6Z" style="fill:#6e7080;stroke:none"/>
        <path d="M52.5 32H54v.5l7 7v2l-2 2-6-6-5 5v-14l.5-.5Z" style="fill:#4a4b53;stroke:none"/>
        <path d="M49 77.5v-2l5-5 .5.5h3l3 3-.5.5v1L56.5 79h-5l-.5.5Z" style="fill:#bf92f9;stroke:none"/>
        <path d="m51 19.5 2.5-2.5h2l4 4-3.5 3.5Z" style="fill:#665c9f;stroke:none"/>
        <path d="M50.5 52 61 41.5l2.5 2.5L53 54.5Z" style="fill:#6e7080;stroke:none"/>
        <path d="m51 79.5.5-.5h5l3.5-3.5v-1l.5-.5 3.5 3.5v2L60.5 83h-6Z" style="fill:#665c9f;stroke:none"/>
        <path d="M51.5 68h7l4 4-2 2-3-3h-3Z" style="fill:#6e7080;stroke:none"/>
        <path d="M54 32.5v-6l2-2 8 8v5l4.5 4.5h-2l-2 2h-1L61 41.5v-2Z" style="stroke:none"/>
        <path d="m56 24.5 3.5-3.5 5 5-3.5 3.5Z" style="fill:#bf92f9;stroke:none"/>
        <path d="m60.5 57 3 3h3l3-3-3-3h-3Z" style="fill:#4a4b53;stroke:none"/>
        <path d="m61 29.5 3.5-3.5h4l4.5 4.5V35h-2v-3.5L68.5 29h-2l-3 3ZM60.5 57l3-3h3l3 3-3 3h-3Z" style="fill:#6e7080;stroke:none"/>
        <path d="M64 33v-.5l-.5-.5 3-3h2l2.5 2.5V35h-.5l-2-2Z" style="fill:#665c9f;stroke:none"/>
        <path d="M64 37.5V33h4.5l2 2h.5v5.5L69.5 42h-1Z" style="fill:#bf92f9;stroke:none"/>
        <path d="m64.5 44 2-2H69v2.5l-.5.5-1-1Z" style="fill:#6e7080;stroke:none"/>
        <path d="m68.5 45 .5-.5V42h.5l1.5-1.5V35h2v.5l5 5v7L74.5 51Z" style="stroke:none"/>
        <path d="m71 57.5 5-5 3 3-5 5Z" style="fill:#6e7080;stroke:none"/>
    </g>
</svg>
