<svg xmlns="http://www.w3.org/2000/svg" width="50" height="50" style="fill-opacity:1;color-rendering:auto;color-interpolation:auto;text-rendering:auto;stroke:#000;stroke-linecap:square;stroke-miterlimit:10;shape-rendering:auto;stroke-opacity:1;fill:#000;stroke-dasharray:none;font-weight:400;stroke-width:1;font-family:&quot;Dialog&quot;;font-style:normal;stroke-linejoin:miter;font-size:12px;stroke-dashoffset:0;image-rendering:auto">
    <g style="stroke-linecap:round;fill:#b0bac0;stroke:#b0bac0">
        <path stroke="none" d="M16 27.5v-6l.5-.5h1l1.5-1.5v-3l6 6v.5h-.5L22 25.5v3l2.5 2.5h.5v3.5l.5.5-3.5 3.5-3-3v-5Z" style="stroke:none"/>
    </g>
    <g stroke="none" style="stroke-linecap:round;fill:#6e7080;stroke:#6e7080">
        <path d="m17 7.5 4-4 2 2V6h-.5l-3 3h-1Z" style="stroke:none"/>
        <path d="M19 16.5V9h.5l.5-.5 3 3v6l6 6v2l-.5.5-3-3H25v-.5Z" style="fill:#62ae7f;stroke:none"/>
        <path d="M20 8.5 22.5 6h.5v5.5Zm2 20v-3l2.5-2.5h.5v8h-.5Z" style="fill:#989aa4;stroke:none"/>
        <path d="m22.5 44-.5-.5v-5l7-7v5l.5.5Z" style="fill:#62ae7f;stroke:none"/>
        <path d="m25 7.5 4-4 4 4-2 2L27.5 6l-.5.5v5l-2 2-2-2V6h.5Z" style="fill:#b0bac0;stroke:none"/>
        <path d="M29 17.5v6l-6-6v-6Z" style="fill:#84f491;stroke:none"/>
        <path d="m25 13.5 2-2v-5l.5-.5L31 9.5v1L26.5 15Z" style="fill:#989aa4;stroke:none"/>
        <path d="m28.5 26 .5-.5v-3l3.5-3.5.5.5v14L29.5 37l-.5-.5v-8l-.5-.5-3 3H25v-8h.5Z" style="stroke:none"/>
        <path d="m25.5 35-.5-.5V31h.5l3-3 .5.5v3Z" style="fill:#84f491;stroke:none"/>
        <path d="m26.5 15 4.5-4.5v9l.5.5-2.5 2.5v-5Zm6.5 8.5v-4l-.5-.5 4-4 .5.5v4Z" style="fill:#b0bac0;stroke:none"/>
        <path d="M33 28.5v-5l4-4v5Z" style="fill:#989aa4;stroke:none"/>
    </g>
</svg>
