<svg xmlns="http://www.w3.org/2000/svg" width="48" height="66" style="fill-opacity:1;color-rendering:auto;color-interpolation:auto;text-rendering:auto;stroke:#000;stroke-linecap:square;stroke-miterlimit:10;shape-rendering:auto;stroke-opacity:1;fill:#000;stroke-dasharray:none;font-weight:400;stroke-width:1;font-family:&quot;Dialog&quot;;font-style:normal;stroke-linejoin:miter;font-size:12px;stroke-dashoffset:0;image-rendering:auto">
    <g style="stroke-linecap:round;fill:#989aa4;stroke:#989aa4">
        <path stroke="none" d="M5 43.5v-5L7.5 36H8v5.5l4 4V48H9v-.5Z" style="stroke:none"/>
    </g>
    <g stroke="none" style="stroke-linecap:round;fill:#989aa4;stroke:#989aa4">
        <path d="M8.5 24H8v-2.5l-.5-.5 4-4 .5.5v3Z" style="stroke:none"/>
        <path d="M8.5 28H8v-4h.5l3.5-3.5v4Z" style="fill:#6e7080;stroke:none"/>
        <path d="M8.5 36H8v-.5l4.5-4.5.5.5v8l-.5.5Z" style="fill:#ffa665;stroke:none"/>
        <path d="m12.5 40-.5.5v5l-4-4V36h.5Z" style="fill:#d06b53;stroke:none"/>
        <path d="M12 24.5v-7l-.5-.5L20 8.5v11L16.5 23l-.5-.5v-1l-.5-.5Z" style="fill:#b0bac0;stroke:none"/>
        <path d="M12 27.5v-3l3.5-3.5.5.5v1l.5.5Z" style="stroke:none"/>
        <path d="m12.5 31-.5-.5v-3l7.5-7.5 4.5 4.5 4.5-4.5 5.5 5.5v1l2 2v2l-.5.5-3.5-3.5v-1l-.5-.5-7.5 7.5-7.5-7.5-.5.5v1Zm8 17h7l8-8 .5.5V48h-.5l-4 4h-15l-4-4H12v-7.5l.5-.5Z" style="fill:#6e7080;stroke:none"/>
        <path d="M13 39.5v-8l-.5-.5 3.5-3.5v9Z" style="fill:#b0bac0;stroke:none"/>
        <path d="m12.5 40 3.5-3.5 3.5 3.5-.5.5v5l-.5.5Zm4-28-.5-.5v-4L19.5 4l.5.5v4Z" style="stroke:none"/>
        <path d="m24 33.5 7.5-7.5.5.5v6l-8 8-8-8v-6l.5-.5Z" style="fill:#ffa665;stroke:none"/>
        <path d="m24 40.5 8-8v4l-8 8-8-8v-4Z" style="fill:#d06b53;stroke:none"/>
        <path d="m24 44.5 4.5-4.5.5.5v5l.5.5-2 2h-7l-2-2 .5-.5v-5l.5-.5Z" style="fill:#b0bac0;stroke:none"/>
        <path d="m24 9.5 4-4v14l-4-4-4 4v-14Z" style="fill:#6e7080;stroke:none"/>
        <path d="m19.5 20 4.5-4.5 4.5 4.5-4.5 4.5ZM32 7.5v4l-.5.5L28 8.5v-4l.5-.5Z" style="stroke:none"/>
        <path d="M36 16.5v8L32.5 21l-.5.5v1l-.5.5-3.5-3.5v-11Z" style="fill:#b0bac0;stroke:none"/>
        <path d="m29.5 46-.5-.5v-5l-.5-.5 3.5-3.5 3.5 3.5ZM36 24.5v4l-2-2v-1L31.5 23l.5-.5v-1l.5-.5Z" style="stroke:none"/>
        <path d="m35.5 31-.5.5v8l-3-3v-9Z" style="fill:#b0bac0;stroke:none"/>
        <path d="M40 35.5v.5h-.5l-4 4-.5-.5v-8l.5-.5Z" style="fill:#ffa665;stroke:none"/>
        <path d="M40 20.5V24h-.5L36 20.5v-4Z" style="stroke:none"/>
        <path d="M39.5 24h.5v4h-.5L36 24.5v-4Z" style="fill:#6e7080;stroke:none"/>
        <path d="M36 45.5v-5l-.5-.5 4-4h.5v5.5Z" style="fill:#d06b53;stroke:none"/>
        <path d="M36 48v-2.5l4-4V36h.5l2.5 2.5v5L38.5 48Z" style="stroke:none"/>
    </g>
</svg>
