<svg xmlns="http://www.w3.org/2000/svg" width="70" height="97" style="fill-opacity:1;color-rendering:auto;color-interpolation:auto;text-rendering:auto;stroke:#000;stroke-linecap:square;stroke-miterlimit:10;shape-rendering:auto;stroke-opacity:1;fill:#000;stroke-dasharray:none;font-weight:400;stroke-width:1;font-family:&quot;Dialog&quot;;font-style:normal;stroke-linejoin:miter;font-size:12px;stroke-dashoffset:0;image-rendering:auto">
    <g style="stroke-linecap:round;fill:#b0bac0;stroke:#b0bac0">
        <path stroke="none" d="m25 20.5 1.5-1.5.5.5v5l.5.5 2.5-2.5v-6l-.5-.5 3-3h.5v19.5l.5.5-3 3H30v-.5l-10-10v-9l.5-.5Z" style="stroke:none"/>
    </g>
    <g stroke="none" style="stroke-linecap:round;fill:#989aa4;stroke:#989aa4">
        <path d="m25.5 38 .5-.5v-5l.5-.5 3.5 3.5v.5h-.5L26 39.5v6l4 4v.5h-.5L26 53.5v12l-.5.5-5.5-5.5v-27l.5-.5Z" style="stroke:none"/>
        <path d="M26 45.5v-6l3.5-3.5h.5v.5L44.5 51l4.5-4.5v14l-19-19Z" style="fill:#6e7080;stroke:none"/>
        <path d="m26 45.5 4-4 4.5 4.5-4 4H30v-.5Z" style="fill:#b0bac0;stroke:none"/>
        <path d="m25.5 66 .5-.5v-12l3.5-3.5h.5v.5l3.5 3.5-.5.5V63h-.5L30 65.5v4l-.5.5Z" style="fill:#6e7080;stroke:none"/>
        <path d="m27.5 25-.5-.5v-5l-.5-.5 3-3 .5.5v6Z" style="stroke:none"/>
        <path d="M30 36.5V36h.5l4-4 5.5 5.5-4.5 4.5Zm0 14V50h.5l4-4 5.5 5.5-4.5 4.5Z" style="fill:#bf92f9;stroke:none"/>
        <path d="m29.5 70 .5-.5v-4l2.5-2.5h.5v7.5l.5.5-1.5 1.5Z" style="stroke:none"/>
        <path d="m32 72.5 1.5-1.5 3.5 3.5-1.5 1.5ZM41.5 21l.5-.5v-5l.5-.5 6.5 6.5v25l-3-3v-16L42.5 24l-.5.5v14l-.5.5-7-7 4-4-5.5-5.5V13h.5Z" style="fill:#6e7080;stroke:none"/>
        <path d="m38.5 28-5 5-.5-.5v-10Z" style="stroke:none"/>
        <path d="m39.5 60-.5.5v1l-.5.5-5.5-5.5v-2l.5-.5Z" style="fill:#b0bac0;stroke:none"/>
        <path d="m36.5 60-3 3H33v-6.5Z" style="fill:#bf92f9;stroke:none"/>
        <path d="M33 66.5V63h.5l3-3 8 8-5 5Z" style="fill:#665c9f;stroke:none"/>
        <path d="m39.5 73 5-5-3-3 1.5-1.5 4 4v3l.5.5-7 7-7.5-7.5v-4Z" style="fill:#b0bac0;stroke:none"/>
        <path d="m35.5 42 4.5-4.5 3.5 3.5-4.5 4.5Zm0 14 4.5-4.5 3.5 3.5-4.5 4.5Z" style="fill:#665c9f;stroke:none"/>
        <path d="m35.5 76 1.5-1.5 3.5 3.5h-3Z" style="stroke:none"/>
        <path d="m39 45.5 4.5-4.5 2.5 2.5-4.5 4.5Zm0 14 4.5-4.5 2.5 2.5-4.5 4.5Z" style="fill:#bf92f9;stroke:none"/>
        <path d="M43 63.5 41.5 65l-3-3 .5-.5v-1l.5-.5Zm3-36v16L41.5 39l.5-.5v-14l.5-.5Z" style="stroke:none"/>
        <path d="m41.5 48 4.5-4.5 3 3-4.5 4.5Zm0 14 4.5-4.5 3 3-4.5 4.5Z" style="fill:#665c9f;stroke:none"/>
        <path d="m44.5 65 4.5-4.5v9L47.5 71l-.5-.5v-3Z" style="stroke:none"/>
    </g>
</svg>
