<svg xmlns="http://www.w3.org/2000/svg" width="48" height="48" style="fill-opacity:1;color-rendering:auto;color-interpolation:auto;text-rendering:auto;stroke:#000;stroke-linecap:square;stroke-miterlimit:10;shape-rendering:auto;stroke-opacity:1;fill:#000;stroke-dasharray:none;font-weight:400;stroke-width:1;font-family:&quot;Dialog&quot;;font-style:normal;stroke-linejoin:miter;font-size:12px;stroke-dashoffset:0;image-rendering:auto">
    <g style="stroke-linecap:round;fill:#b0bac0;stroke:#b0bac0">
        <path stroke="none" d="m16.5 30-.5-.5v-3l2.5-2.5H20v1.5l2.5 2.5H24v7h-.5l-5-5Z" style="stroke:none"/>
    </g>
    <g stroke="none" style="stroke-linecap:round;fill:#6e7080;stroke:#6e7080">
        <path d="M20 16v-4h2.5l5.5 5.5v4L22.5 16Z" style="stroke:none"/>
        <path d="M20 20v-4h2.5l2 2-.5.5v4L21.5 20Z" style="fill:#b0bac0;stroke:none"/>
        <path d="M20 25.5V20h1.5l2.5 2.5V28h-1.5Z" style="fill:#ffa665;stroke:none"/>
        <path d="M28 21.5v5L25.5 24H24v-5.5l.5-.5Z" style="fill:#989aa4;stroke:none"/>
        <path d="M24 26.5V24h1.5l2.5 2.5V29h-1.5Z" style="stroke:none"/>
        <path d="M26.5 29H28v5.5L25.5 32H24v-5.5Z" style="fill:#989aa4;stroke:none"/>
        <path d="M24.5 35H24v-3h1.5l2.5 2.5v2l-.5.5h-1Z" style="stroke:none"/>
        <path d="m24.5 36-.5-.5V35h.5l.5.5Z" style="fill:#989aa4;stroke:none"/>
    </g>
</svg>
