<svg xmlns="http://www.w3.org/2000/svg" width="96" height="102" style="fill-opacity:1;color-rendering:auto;color-interpolation:auto;text-rendering:auto;stroke:#000;stroke-linecap:square;stroke-miterlimit:10;shape-rendering:auto;stroke-opacity:1;fill:#000;stroke-dasharray:none;font-weight:400;stroke-width:1;font-family:&quot;Dialog&quot;;font-style:normal;stroke-linejoin:miter;font-size:12px;stroke-dashoffset:0;image-rendering:auto">
    <g style="stroke-linecap:round;fill:#dcc6c6;stroke:#dcc6c6">
        <path stroke="none" d="M33 57.5v-4l1.5-1.5 4.5 4.5v6l-.5.5Z" style="stroke:none"/>
    </g>
    <g stroke="none" style="stroke-linecap:round;fill:#dcc6c6;stroke:#dcc6c6">
        <path d="m32.5 72 6-6 .5.5v4l3 3v3l6 6 6-6v-3l3-3v-4l.5-.5 6 6-6.5 6.5v3L49.5 89h-3L39 81.5v-3Z" style="stroke:none"/>
        <path d="m34.5 52 5-5h2l2.5 2.5v2l-5 5ZM42 76.5v-3l-.5-.5 6.5-6.5 6.5 6.5-.5.5v3l-6 6Zm10-25v-2l2.5-2.5h2l5 5-4.5 4.5Z" style="fill:#fff;stroke:none"/>
        <path d="m57.5 63-.5-.5v-6l4.5-4.5 1.5 1.5v4Z" style="stroke:none"/>
    </g>
</svg>
