<svg xmlns="http://www.w3.org/2000/svg" width="96" height="102" style="fill-opacity:1;color-rendering:auto;color-interpolation:auto;text-rendering:auto;stroke:#000;stroke-linecap:square;stroke-miterlimit:10;shape-rendering:auto;stroke-opacity:1;fill:#000;stroke-dasharray:none;font-weight:400;stroke-width:1;font-family:&quot;Dialog&quot;;font-style:normal;stroke-linejoin:miter;font-size:12px;stroke-dashoffset:0;image-rendering:auto">
    <g style="stroke-linecap:round;fill:#989aa4;stroke:#989aa4">
        <path stroke="none" d="M23 62.5v-2l3-3 3.5 3.5-4 4Z" style="stroke:none"/>
    </g>
    <g stroke="none" style="stroke-linecap:round;fill:#989aa4;stroke:#989aa4">
        <path d="M25 47.5v-3l7-7v-4l2.5-2.5 4.5 4.5-8 8V48h-.5L28 50.5Z" style="stroke:none"/>
        <path d="m26 57.5 3.5-3.5 3.5 3.5-3.5 3.5Z" style="fill:#6e7080;stroke:none"/>
        <path d="m25.5 65 7.5-7.5-4-4v-2l-1-1 2.5-2.5h.5v.5l3.5 3.5 5-5 .5.5v3L36.5 54l2.5 2.5v1L29.5 67h-2Z" style="fill:#4a4b53;stroke:none"/>
        <path d="M31.5 48H31v-4.5l8-8 .5.5H42v4h-2.5Z" style="fill:#bc5452;stroke:none"/>
        <path d="M31 48.5V48h.5l8-8H42v5h-.5l-7 7Z" style="fill:#feb380;stroke:none"/>
        <path d="m32.5 72 6.5-6.5v5l2.5 2.5-.5.5 3 3 4-4 4 4 3-3-.5-.5 2.5-2.5v-5l6.5 6.5-13 13h-5Z" style="fill:#4a4b53;stroke:none"/>
        <path d="M35 18.5v-8L38.5 7h2l4.5 4.5v10L38.5 15Z" style="stroke:none"/>
        <path d="M35 22v-3.5l3.5-3.5 6.5 6.5v7L38.5 22Z" style="fill:#6e7080;stroke:none"/>
        <path d="M35 26.5V22h3.5l6.5 6.5v7l.5.5-3.5 3.5v-6Z" style="stroke:none"/>
        <path d="M39.5 31 37 33.5 34.5 31l.5-.5v-4ZM36 60.5l3-3V63h-.5Z" style="fill:#6e7080;stroke:none"/>
        <path d="m37 33.5 2.5-2.5 2.5 2.5V36h-2.5Z" style="fill:#4a4b53;stroke:none"/>
        <path d="m36.5 54 3.5-3.5v-3l-.5-.5 2-2h1l5.5-5.5 5.5 5.5h1l2 2-.5.5v3l3.5 3.5-2.5 2.5-9-9-9 9Z" style="stroke:none"/>
        <path d="M39 62.5v-6l5.5-5.5.5.5v5Z" style="fill:#bc5452;stroke:none"/>
        <path d="M39.5 63H39v-.5l6-6v-5l-.5-.5 3.5-3.5 3.5 3.5-.5.5v5l6 6v.5h-.5l-6 6-2.5-2.5-2.5 2.5Z" style="fill:#feb380;stroke:none"/>
        <path d="m45.5 69-4 4-2.5-2.5V63h.5Z" style="fill:#bc5452;stroke:none"/>
        <path d="m41 73.5 7-7 7 7-3 3-4-4-4 4ZM42.5 45H42v-5.5l3.5-3.5 2.5 2.5 2.5-2.5 3.5 3.5V45h-.5L48 39.5Z" style="fill:#6e7080;stroke:none"/>
        <path d="M51 21.5v-10L55.5 7h2l3.5 3.5v8L57.5 15Z" style="stroke:none"/>
        <path d="M51 28.5v-7l6.5-6.5 3.5 3.5V22h-3.5Z" style="fill:#6e7080;stroke:none"/>
        <path d="m50.5 36 .5-.5v-7l6.5-6.5H61v4.5l-7 7v6Z" style="stroke:none"/>
        <path d="M57 56.5v6l-6-6v-5l.5-.5ZM50.5 69l6-6h.5v7.5L54.5 73Z" style="fill:#bc5452;stroke:none"/>
        <path d="M54 36v-2.5l2.5-2.5 2.5 2.5-2.5 2.5Z" style="fill:#4a4b53;stroke:none"/>
        <path d="M54 40v-4h2.5l.5-.5 8 8V48h-.5l-8-8Z" style="fill:#bc5452;stroke:none"/>
        <path d="M54.5 45H54v-5h2.5l8 8h.5v.5L61.5 52Z" style="fill:#feb380;stroke:none"/>
        <path d="m61.5 52 3.5-3.5V48h.5l2.5 2.5-1 1v2l-4 4 7.5 7.5-2 2h-2L57 57.5v-1l2.5-2.5-3.5-3.5v-3l.5-.5Z" style="fill:#4a4b53;stroke:none"/>
        <path d="m56.5 31 4.5-4.5v4l.5.5-2.5 2.5Z" style="fill:#6e7080;stroke:none"/>
        <path d="m57 35.5 4.5-4.5 2.5 2.5v4l7 7v3l-3 3-2.5-2.5H65v-4.5Z" style="stroke:none"/>
        <path d="M60 60.5 57.5 63H57v-5.5Zm3-3 3.5-3.5 3.5 3.5-3.5 3.5Z" style="fill:#6e7080;stroke:none"/>
        <path d="m66.5 61 3.5-3.5 3 3v2L70.5 65Z" style="stroke:none"/>
    </g>
</svg>
