<svg xmlns="http://www.w3.org/2000/svg" width="48" height="48" style="fill-opacity:1;color-rendering:auto;color-interpolation:auto;text-rendering:auto;stroke:#000;stroke-linecap:square;stroke-miterlimit:10;shape-rendering:auto;stroke-opacity:1;fill:#000;stroke-dasharray:none;font-weight:400;stroke-width:1;font-family:&quot;Dialog&quot;;font-style:normal;stroke-linejoin:miter;font-size:12px;stroke-dashoffset:0;image-rendering:auto">
    <g style="stroke-linecap:round;fill:#6e7080;stroke:#6e7080">
        <path stroke="none" d="M16 20.5v-5l3.5-3.5H22v1.5L17.5 18l5 5-.5.5v3Z" style="stroke:none"/>
    </g>
    <g stroke="none" style="stroke-linecap:round;fill:#b0bac0;stroke:#b0bac0">
        <path d="m19.5 24-.5.5v2l-.5.5-2.5-2.5v-4Z" style="stroke:none"/>
        <path d="m18.5 27 .5-.5v-2l.5-.5 2.5 2.5V28h-.5L17 32.5l-1-1v-7Z" style="fill:#989aa4;stroke:none"/>
        <path d="m17 32.5 4.5-4.5h.5v8.5l-.5.5Z" style="fill:#6e7080;stroke:none"/>
        <path d="m17.5 18 2-2 .5.5v3l-.5.5Z" style="fill:#989aa4;stroke:none"/>
        <path d="m19.5 20 .5-.5v-3l-.5-.5 2.5-2.5V12h4v1.5l2.5 2.5-.5.5v3l.5.5-2.5 2.5V26h-.5Z" style="stroke:none"/>
        <path d="m21.5 18 2.5 2.5 2.5-2.5-2.5-2.5Z" style="stroke:none"/>
        <path d="m21.5 18 2.5-2.5 2.5 2.5-2.5 2.5Z" style="fill:#989aa4;stroke:none"/>
        <path d="M25.5 26h.5v6.5l-4-4v-5l.5-.5Z" style="fill:#ffa665;stroke:none"/>
        <path d="M26 32.5v4l.5.5-2.5 2.5-2.5-2.5.5-.5v-8Z" style="fill:#d06b53;stroke:none"/>
        <path d="M26 13.5V12h3v.5l3 3v5L26.5 26H26v-3.5l4.5-4.5Z" style="fill:#6e7080;stroke:none"/>
        <path d="M26 27.5V26h.5l2-2 .5.5v2l.5.5 2.5-2.5v7l-1 1Z" style="fill:#989aa4;stroke:none"/>
        <path d="M31 32.5 26.5 37l-.5-.5v-9Z" style="fill:#6e7080;stroke:none"/>
        <path d="m30.5 18-2 2-.5-.5v-3l.5-.5Z" style="fill:#989aa4;stroke:none"/>
        <path d="m29.5 27-.5-.5v-2l-.5-.5 3.5-3.5v4Z" style="stroke:none"/>
    </g>
</svg>
