<svg xmlns="http://www.w3.org/2000/svg" width="48" height="48" style="fill-opacity:1;color-rendering:auto;color-interpolation:auto;text-rendering:auto;stroke:#000;stroke-linecap:square;stroke-miterlimit:10;shape-rendering:auto;stroke-opacity:1;fill:#000;stroke-dasharray:none;font-weight:400;stroke-width:1;font-family:&quot;Dialog&quot;;font-style:normal;stroke-linejoin:miter;font-size:12px;stroke-dashoffset:0;image-rendering:auto">
    <g style="stroke-linecap:round;fill:#6e7080;stroke:#6e7080">
        <path stroke="none" d="M20 11V7.5l.5-.5h2l5.5 5.5v4L22.5 11Z" style="stroke:none"/>
    </g>
    <g stroke="none" style="stroke-linecap:round;fill:#b0bac0;stroke:#b0bac0">
        <path d="M20 15v-4h2.5l2 2-.5.5v4L21.5 15Z" style="stroke:none"/>
        <path d="M20 20.5V15h1.5l2.5 2.5V23h-1.5Z" style="fill:#ffa665;stroke:none"/>
        <path d="M22.5 23H24v7h-1.5L20 27.5v-7Z" style="stroke:none"/>
        <path d="M28 16.5v5l-4-4v-4l.5-.5Z" style="fill:#989aa4;stroke:none"/>
        <path d="M28 21.5V24h-1.5L24 21.5v-4Z" style="fill:#6e7080;stroke:none"/>
        <path d="M26.5 24H28v3.5L25.5 30H24v-8.5Z" style="fill:#989aa4;stroke:none"/>
    </g>
</svg>
