<svg xmlns="http://www.w3.org/2000/svg" width="48" height="48" style="fill-opacity:1;color-rendering:auto;color-interpolation:auto;text-rendering:auto;stroke:#000;stroke-linecap:square;stroke-miterlimit:10;shape-rendering:auto;stroke-opacity:1;fill:#000;stroke-dasharray:none;font-weight:400;stroke-width:1;font-family:&quot;Dialog&quot;;font-style:normal;stroke-linejoin:miter;font-size:12px;stroke-dashoffset:0;image-rendering:auto">
    <g style="stroke-linecap:round;fill:#6e7080;stroke:#6e7080">
        <path stroke="none" d="M20 13v-1.5l1.5-1.5h3l4.5 4.5v4L23.5 13Z" style="stroke:none"/>
    </g>
    <g stroke="none" style="stroke-linecap:round;fill:#989aa4;stroke:#989aa4">
        <path d="M20 16v-3h3.5l5.5 5.5v4L24.5 18H23v-.5L21.5 16Z" style="stroke:none"/>
        <path d="M20 22.5V16h1.5l1.5 1.5v8Z" style="fill:#b0bac0;stroke:none"/>
        <path d="M23 25.5v3l-.5.5-2.5-2.5v-4Z" style="fill:#6e7080;stroke:none"/>
        <path d="M23 21v-3h1.5l4.5 4.5v3L24.5 21Z" style="fill:#665c9f;stroke:none"/>
        <path d="m22.5 29 .5-.5V21h1.5l4.5 4.5v2l-4 4Z" style="fill:#bf92f9;stroke:none"/>
    </g>
</svg>
