<svg xmlns="http://www.w3.org/2000/svg" width="48" height="48" style="fill-opacity:1;color-rendering:auto;color-interpolation:auto;text-rendering:auto;stroke:#000;stroke-linecap:square;stroke-miterlimit:10;shape-rendering:auto;stroke-opacity:1;fill:#000;stroke-dasharray:none;font-weight:400;stroke-width:1;font-family:&quot;Dialog&quot;;font-style:normal;stroke-linejoin:miter;font-size:12px;stroke-dashoffset:0;image-rendering:auto">
    <g style="stroke-linecap:round;fill:#989aa4;stroke:#989aa4">
        <path stroke="none" d="M15 19.5v-4l3.5-3.5h.5v3.5Z" style="stroke:none"/>
    </g>
    <g stroke="none" style="stroke-linecap:round;fill:#b0bac0;stroke:#b0bac0">
        <path d="m15.5 26-.5-.5v-6l4-4V15h1.5l2 2h4l3.5 3.5v5L24.5 20l-1 1-4-4-.5.5V23h-.5ZM19 12V9.5l.5-.5h4l2.5 2.5V14h-1.5l-2-2Z" style="stroke:none"/>
        <path d="M19 15v-3h3.5l2 2H26v3h-3.5l-2-2Z" style="fill:#6e7080;stroke:none"/>
        <path d="M24 21.5v4l-5-5v-3l.5-.5Z" style="fill:#84f491;stroke:none"/>
        <path d="M24 25.5v3l-5-5v-3Z" style="fill:#62ae7f;stroke:none"/>
        <path d="M24 28.5V35h-2.5L19 32.5v-9Z" style="stroke:none"/>
        <path d="M30 25.5v3l-6-6v-1l-.5-.5 1-1Z" style="fill:#989aa4;stroke:none"/>
        <path d="M30 28.5v3L28.5 33 24 28.5v-6Z" style="fill:#6e7080;stroke:none"/>
        <path d="m28.5 33-2 2H24v-6.5ZM30 17.5v3L26.5 17H26v-3h.5Z" style="fill:#989aa4;stroke:none"/>
    </g>
</svg>
