<svg xmlns="http://www.w3.org/2000/svg" width="48" height="48" style="fill-opacity:1;color-rendering:auto;color-interpolation:auto;text-rendering:auto;stroke:#000;stroke-linecap:square;stroke-miterlimit:10;shape-rendering:auto;stroke-opacity:1;fill:#000;stroke-dasharray:none;font-weight:400;stroke-width:1;font-family:&quot;Dialog&quot;;font-style:normal;stroke-linejoin:miter;font-size:12px;stroke-dashoffset:0;image-rendering:auto">
    <g style="stroke-linecap:round;fill:#989aa4;stroke:#989aa4">
        <path stroke="none" d="m11.5 27-.5-.5v-5l4-4v6l5.5 5.5-3.5 3.5-2-2v-6l-.5-.5Z" style="stroke:none"/>
    </g>
    <g stroke="none" style="stroke-linecap:round;fill:#6e7080;stroke:#6e7080">
        <path d="M15 19.5v-5l6-6 1 1v4l-4 4 5.5 5.5-2.5 2.5Z" style="stroke:none"/>
        <path d="M21 25.5v4l-6-6v-4Z" style="fill:#b0bac0;stroke:none"/>
        <path d="m17 32.5 3.5-3.5.5.5v6l-.5.5Z" style="stroke:none"/>
        <path d="m18 17.5 4-4V12h4v1.5l4 4-2 2-4-4-4 4Z" style="fill:#b0bac0;stroke:none"/>
        <path d="m20 19.5 4-4 4 4-3.5 3.5h-1Z" style="fill:#989aa4;stroke:none"/>
        <path d="M21 32.5v-7l2.5-2.5h1l2.5 2.5v7l-3-3Z" style="fill:#84f491;stroke:none"/>
        <path d="m20.5 36 .5-.5v-3l3-3 3 3v3l.5.5-3.5 3.5Z" style="fill:#62ae7f;stroke:none"/>
        <path d="m24.5 23 5.5-5.5-4-4v-4l1-1 6 6v5l-6 6Z" style="stroke:none"/>
        <path d="m27.5 29-.5-.5v-3l6-6v4Z" style="fill:#b0bac0;stroke:none"/>
        <path d="M31 32.5 27.5 36l-.5-.5v-7Z" style="stroke:none"/>
        <path d="m27.5 29 5.5-5.5v-6l4 4v5l-.5.5-3-3-.5.5v6l-2 2Z" style="fill:#989aa4;stroke:none"/>
    </g>
</svg>
