<svg xmlns="http://www.w3.org/2000/svg" width="92" height="150" style="fill-opacity:1;color-rendering:auto;color-interpolation:auto;text-rendering:auto;stroke:#000;stroke-linecap:square;stroke-miterlimit:10;shape-rendering:auto;stroke-opacity:1;fill:#000;stroke-dasharray:none;font-weight:400;stroke-width:1;font-family:&quot;Dialog&quot;;font-style:normal;stroke-linejoin:miter;font-size:12px;stroke-dashoffset:0;image-rendering:auto">
    <g style="stroke-linecap:round;fill:#989aa4;stroke:#989aa4">
        <path stroke="none" d="M15 67.5v-8l7-7v-4l4.5-4.5h4l2.5 2.5-3.5 3.5-2.5-2.5-3 3 2.5 2.5-3.5 3.5.5.5-3.5 3.5 2.5 2.5-6 6Z" style="stroke:none"/>
    </g>
    <g stroke="none" style="stroke-linecap:round;fill:#989aa4;stroke:#989aa4">
        <path d="m16 93.5-1-1v-7l4-4 7.5 7.5-.5.5V91h-.5L23 93.5 19.5 90Z" style="stroke:none"/>
        <path d="m16 93.5 3.5-3.5 3.5 3.5-3.5 3.5Z" style="fill:#6e7080;stroke:none"/>
        <path d="m16.5 69 6-6 3 3-.5.5v1l.5.5-5 5ZM19 81.5l1-1v-1l6-6 .5.5h1l3 3-8 8Z" style="fill:#4a4b53;stroke:none"/>
        <path d="m20 60.5 3.5-3.5 4 4 5.5-5.5v-5l4-4v6l.5.5 8.5-8.5 9 9v4l-.5.5-8.5-8.5-8.5 8.5-.5-.5v-4l-.5-.5-3.5 3.5v2L25.5 66Z" style="fill:#6e7080;stroke:none"/>
        <path d="M20 79.5v-6l5.5-5.5 3 3Z" style="stroke:none"/>
        <path d="m19.5 97 6-6h4l5.5-5.5 1 1 4.5-4.5 2.5 2.5v2L40.5 89l5.5 5.5 5.5-5.5-2.5-2.5v-2l2.5-2.5 4 4h1l.5-.5 5.5 5.5h4l6 6-5 5h-2L61 97.5l-4 4-3-3-4.5 4.5 3 3-5 5h-3l-5-5 3-3-4.5-4.5-3 3-4-4-4.5 4.5h-2Z" style="fill:#4a4b53;stroke:none"/>
        <path d="m23 56.5 4-4 4.5 4.5-4 4ZM22.5 85l3-3 4 4-3 3Z" style="fill:#bc5452;stroke:none"/>
        <path d="m24 50.5 3-3 2.5 2.5-3 3Z" style="fill:#6e7080;stroke:none"/>
        <path d="M25 67.5v-1l3.5-3.5 3 3-4 4Z" style="fill:#bc5452;stroke:none"/>
        <path d="m26.5 74-.5-.5 2.5-2.5-1-1 5.5-5.5v5l-5 5-.5-.5Z" style="fill:#6e7080;stroke:none"/>
        <path d="m25.5 82 5-5 4 4-5 5Z" style="fill:#feb380;stroke:none"/>
        <path d="M26 91v-1.5l6.5-6.5 2.5 2.5-5.5 5.5Z" style="fill:#6e7080;stroke:none"/>
        <path d="m27 52.5 6-6v9L31.5 57Z" style="fill:#feb380;stroke:none"/>
        <path d="m28 74.5 5-5v-13l3.5-3.5.5.5v4l.5.5 8.5-8.5 8.5 8.5.5-.5v-4l-9-9-8.5 8.5-.5-.5v-6l5-5v-4l-.5-.5-4.5 4.5v-5l9-9 9 9v5L50.5 37l-.5.5v4l5 5v6l4 4v13l5 5-2.5 2.5-3.5-3.5-4 4 5.5 5.5-3 3h-1l-4-4 2-2-6-6 4-4 1 1h2l1.5-1.5v-3l-10-10-10 10v3l1.5 1.5h2l1-1 4 4-6 6 2 2-4.5 4.5-3.5-3.5 5.5-5.5-4-4-3.5 3.5Z" style="stroke:none"/>
        <path d="m28.5 63 4.5-4.5v6L31.5 66Z" style="fill:#feb380;stroke:none"/>
        <path d="m30.5 77 3.5-3.5 4 4-3.5 3.5ZM33 32.5v-2l4-4v5L34.5 34Zm0 10v-2l4-4v5L34.5 44Zm2 59 3-3 4.5 4.5-3 3Z" style="fill:#6e7080;stroke:none"/>
        <path d="M36 69.5v-3l3-3 4 4-3.5 3.5h-2Z" style="fill:#bc5452;stroke:none"/>
        <path d="M37 21.5v-10L43.5 5h5l6.5 6.5v10L50.5 17l-.5.5v4l5 5v5l-9-9-9 9v-5l5-5v-4l-.5-.5Z" style="stroke:none"/>
        <path d="M37 26.5v-5l4.5-4.5.5.5v4Zm0 10v-5l4.5-4.5.5.5v3l.5.5Zm0 10v-5l4.5-4.5.5.5v4Z" style="fill:#4a4b53;stroke:none"/>
        <path d="m39 63.5 7-7 7 7-4 4-3-3-3 3Z" style="fill:#feb380;stroke:none"/>
        <path d="m38.5 80 2-2 5.5 5.5 5.5-5.5 2 2-4.5 4.5v2l-3 3-3-3v-2Z" style="fill:#bc5452;stroke:none"/>
        <path d="M42 12.5v4l.5.5 3.5-3.5 3.5 3.5.5-.5v-4l-4-4Z" style="stroke:none"/>
        <path d="m40.5 70 5.5-5.5 5.5 5.5-4 4-1.5-1.5-1.5 1.5Z" style="fill:#4a4b53;stroke:none"/>
        <path d="m40.5 78 5.5-5.5 5.5 5.5-5.5 5.5Z" style="fill:#feb380;stroke:none"/>
        <path d="m40.5 89 2.5-2.5 3 3 3-3 2.5 2.5-5.5 5.5Zm2-72-.5-.5v-4l4-4 4 4v4l-.5.5-3.5-3.5Zm0 14-.5-.5v-3l-.5-.5 4.5-4.5 4.5 4.5-.5.5v3l-.5.5-3.5-3.5Z" style="fill:#6e7080;stroke:none"/>
        <path d="m49 67.5 4-4 3 3v3L54.5 71h-2Z" style="fill:#bc5452;stroke:none"/>
        <path d="M55 21.5v5l-5-5v-4l.5-.5Zm0 10v5L49.5 31l.5-.5v-3l.5-.5Zm0 10v5l-5-5v-4l.5-.5Z" style="fill:#4a4b53;stroke:none"/>
        <path d="m49.5 103 4.5-4.5 3 3-4.5 4.5ZM54 77.5l4-4 3.5 3.5-4 4Zm5-47v2L57.5 34 55 31.5v-5Zm0 10v2L57.5 44 55 41.5v-5Zm0 10v5l5.5 5.5 4-4 3.5 3.5-5.5 5.5-7.5-7.5v-2l-4-4v-6Zm-2 35 2.5-2.5 6.5 6.5V91h-3.5Z" style="fill:#6e7080;stroke:none"/>
        <path d="m57.5 81 4-4 5 5-4 4Z" style="fill:#feb380;stroke:none"/>
        <path d="m59 46.5 2.5-2.5h4l4.5 4.5v4l7 7v8L75.5 69l-6-6 2.5-2.5-3.5-3.5.5-.5-3.5-3.5 2.5-2.5-3-3-2.5 2.5Z" style="stroke:none"/>
        <path d="M65 52.5 60.5 57 59 55.5v-9ZM63.5 63l-3 3-1.5-1.5v-6Z" style="fill:#feb380;stroke:none"/>
        <path d="m64.5 70-1 1 2.5 2.5-.5.5h-1l-.5.5-5-5v-5Z" style="fill:#6e7080;stroke:none"/>
        <path d="m60.5 57 4.5-4.5 4 4-4.5 4.5Zm0 9 3-3 3.5 3.5v1L64.5 70Z" style="fill:#bc5452;stroke:none"/>
        <path d="m61.5 77 3-3h1l.5-.5 6 6v1l1 1-3.5 3.5Z" style="fill:#4a4b53;stroke:none"/>
        <path d="m62.5 50 2.5-2.5 3 3-2.5 2.5Z" style="fill:#6e7080;stroke:none"/>
        <path d="m62.5 86 4-4 3 3-4 4Z" style="fill:#bc5452;stroke:none"/>
        <path d="m63.5 71 3-3 5.5 5.5v6Zm3 20H66v-1.5l-.5-.5 7.5-7.5 4 4v7l-1 1-3.5-3.5-3.5 3.5Z" style="stroke:none"/>
        <path d="m66.5 68 .5-.5v-1l-.5-.5 3-3 6 6-4 4Z" style="fill:#4a4b53;stroke:none"/>
        <path d="m69 93.5 3.5-3.5 3.5 3.5-3.5 3.5Z" style="fill:#6e7080;stroke:none"/>
    </g>
</svg>
