<svg xmlns="http://www.w3.org/2000/svg" width="83" height="138" style="fill-opacity:1;color-rendering:auto;color-interpolation:auto;text-rendering:auto;stroke:#000;stroke-linecap:square;stroke-miterlimit:10;shape-rendering:auto;stroke-opacity:1;fill:#000;stroke-dasharray:none;font-weight:400;stroke-width:1;font-family:&quot;Dialog&quot;;font-style:normal;stroke-linejoin:miter;font-size:12px;stroke-dashoffset:0;image-rendering:auto">
    <g style="stroke-linecap:round;fill:#6e7080;stroke:#6e7080">
        <path stroke="none" d="m13.5 86-.5-.5v-9l6-6v-10l8-8v-32L38.5 9h.5v11.5L34.5 25l4.5 4.5v8l-4 4v-2l-.5-.5-4 4 4 4h.5v5.5L30.5 57l4 4h.5v7.5l-4 4v5l-3 3v2l5 5V90h-.5l-6 6-7.5-7.5v-7l-.5-.5Z" style="stroke:none"/>
    </g>
    <g stroke="none" style="stroke-linecap:round;fill:#989aa4;stroke:#989aa4">
        <path d="M27 97v-.5l-.5-.5 6-6h.5v7Z" style="stroke:none"/>
        <path d="M27 116.5V97h6v.5l3 3-1 1v4l4.5 4.5-5 5 5 5-1.5 1.5-.5-.5H31v-.5Z" style="fill:#6e7080;stroke:none"/>
        <path d="M28 82.5v-2l3-3v-5l4-4v4l2.5 2.5-.5.5v9l-.5.5-3-3-.5.5v5ZM30.5 43l4-4 .5.5V47h-.5Zm0 14 4.5-4.5 4 4v8L35.5 61h-1Z" style="stroke:none"/>
        <path d="m41 89.5 7.5-7.5 1 1-.5.5v7l-4 4v-3l-.5-.5-2 2h-3l-2-2-.5.5v3l-4-4v-8l.5-.5Z" style="fill:#ffa665;stroke:none"/>
        <path d="M37 94.5v1l2.5 2.5h3l2.5-2.5v-1l4-4v7l-4.5 4.5h-7L33 97.5v-7Z" style="fill:#cf6a53;stroke:none"/>
        <path d="m34.5 25 4.5-4.5V9h4v11.5l4.5 4.5-4.5 4.5-2-2-2 2Z" style="stroke:none"/>
        <path d="M35.5 47H35v-5.5l4-4v-8l2-2 2 2v8l4 4v5l-4 4v-4l-2-2-2 2v4Z" style="fill:#ffa665;stroke:none"/>
        <path d="M39 50.5v6l-4-4V47h.5Z" style="fill:#cf6a53;stroke:none"/>
        <path d="M39 64.5v4l2 2 2-2v-4l4-4v7l-4 4v8l-2 2-2-2v-8l-4-4V61h.5Z" style="fill:#ffa665;stroke:none"/>
        <path d="M39 71.5v5l-4-4v-5Z" style="fill:#cf6a53;stroke:none"/>
        <path d="M35 105v-3.5l1-1 1.5 1.5h7l1.5-1.5.5.5h1l3.5 3.5-.5.5Z" style="stroke:none"/>
        <path d="M35 105.5v-.5h15.5l.5-.5-3.5-3.5h-1l-.5-.5 3-3V93h5.5l8 8h.5v.5l3 3v2l-6.5 6.5h-17Z" style="fill:#b0bac0;stroke:none"/>
        <path d="m34.5 115 5-5 3 3h12l4 4h-16l-3 3Z" style="stroke:none"/>
        <path d="M39 76.5v3l2 2 2-2v-3l1.5-1.5.5.5v9l.5.5-4.5 4.5-4.5-4.5.5-.5v-9l.5-.5Zm.5 16.5h3l2-2 .5.5v4L42.5 98h-3L37 95.5v-4l.5-.5ZM38 121.5l4.5-4.5h19l1 1-11 11h-6Zm1-53v-22l2-2 2 2v22l-2 2Zm16-48V33h-2.5l-2 2 2 2h4l3 3-1 1h-7l-.5.5v5l2.5 2.5h3l3 3-1 1h-7l-1 1 3 3h3l2.5 2.5V61h-7.5l-1 1 3 3h3l2.5 2.5v1l-.5.5h-7l-1 1 3 3h2l3.5 3.5V81h-4v-2.5l-2-2-2 2v5l-.5.5-3.5-3.5v-39l-4-4v-8l4.5-4.5-4.5-4.5V9h.5Z" style="fill:#b0bac0;stroke:none"/>
        <path d="M43 56.5v-6l4-4v6Z" style="fill:#cf6a53;stroke:none"/>
        <path d="M43 64.5v-8l4-4v8Z" style="stroke:none"/>
        <path d="M43 76.5v-5l4-4v5Z" style="fill:#cf6a53;stroke:none"/>
        <path d="m45.5 85-.5-.5v-9l-.5-.5 2.5-2.5v8l1.5 1.5Zm5-1 .5-.5v-5l2-2 2 2V81h-.5L51 84.5V93h-2v-9.5l.5-.5Zm0-49 2-2H55v4h-2.5Zm.5 11.5v-5l.5-.5H55v8h-1.5Zm-.5 7.5 1-1H55v4h-1.5Zm0 8 1-1H55v4h-1.5Zm0 8 1-1H55v4h-1.5Z" style="stroke:none"/>
        <path d="M51 89v-4.5l3.5-3.5H59v4h-.5l-4 4Z" style="fill:#6e7080;stroke:none"/>
    </g>
</svg>
