<svg xmlns="http://www.w3.org/2000/svg" width="48" height="48" style="fill-opacity:1;color-rendering:auto;color-interpolation:auto;text-rendering:auto;stroke:#000;stroke-linecap:square;stroke-miterlimit:10;shape-rendering:auto;stroke-opacity:1;fill:#000;stroke-dasharray:none;font-weight:400;stroke-width:1;font-family:&quot;Dialog&quot;;font-style:normal;stroke-linejoin:miter;font-size:12px;stroke-dashoffset:0;image-rendering:auto">
    <g style="stroke-linecap:round;fill:#6e7080;stroke:#6e7080">
        <path stroke="none" d="M19 9.5v-3l1-1 4 4 4-4 1 1v3l-3 3-.5-.5h-4Z" style="stroke:none"/>
    </g>
    <g stroke="none" style="stroke-linecap:round;fill:#b0bac0;stroke:#b0bac0">
        <path d="M21.5 12h4l3.5 3.5v5L24.5 16l-1 1-4.5-4.5v-3Z" style="stroke:none"/>
        <path d="M24 17.5v4l-5-5v-4Z" style="fill:#84f491;stroke:none"/>
        <path d="M24 21.5v3l-5-5v-3Z" style="fill:#62ae7f;stroke:none"/>
        <path d="M24 24.5V30h-1.5L19 26.5v-7Z" style="stroke:none"/>
        <path d="M29 20.5v3l-5-5v-1l-.5-.5 1-1Z" style="fill:#989aa4;stroke:none"/>
        <path d="M29 23.5v4l-1 1-4-4v-6Z" style="fill:#6e7080;stroke:none"/>
        <path d="M28 28.5 26.5 30H24v-5.5Zm-2-16 3-3v6Z" style="fill:#989aa4;stroke:none"/>
    </g>
</svg>
