<svg xmlns="http://www.w3.org/2000/svg" width="64" height="64" style="fill-opacity:1;color-rendering:auto;color-interpolation:auto;text-rendering:auto;stroke:#000;stroke-linecap:square;stroke-miterlimit:10;shape-rendering:auto;stroke-opacity:1;fill:#000;stroke-dasharray:none;font-weight:400;stroke-width:1;font-family:&quot;Dialog&quot;;font-style:normal;stroke-linejoin:miter;font-size:12px;stroke-dashoffset:0;image-rendering:auto">
    <g style="stroke-linecap:round;fill:#bc5452;stroke:#bc5452">
        <path stroke="none" d="M19 35.5v-2l4-4 4.5 4.5-4 4H21v-.5Z" style="stroke:none"/>
    </g>
    <g stroke="none" style="stroke-linecap:round;fill:#6e7080;stroke:#6e7080">
        <path d="m21.5 31-.5-.5v-5l2-2 3 3Z" style="stroke:none"/>
        <path d="M21 40.5V38h2.5l1-1 6 6h3l6-6 1 1H43v2.5L35.5 48h-7Z" style="fill:#4a4b53;stroke:none"/>
        <path d="m27 14.5-3 3-2-2v-5l.5-.5Z" style="stroke:none"/>
        <path d="M22.5 10 29 3.5l1 1v7l-3 3Zm.5 13.5 6.5-6.5 2.5 2.5 2.5-2.5 6.5 6.5-3 3-6-6-6 6Z" style="fill:#989aa4;stroke:none"/>
        <path d="m23 29.5 9-9 9 9-4.5 4.5-4.5-4.5-4.5 4.5Z" style="fill:#feb380;stroke:none"/>
        <path d="m24 17.5 6-6v5L25.5 21l-.5-.5v-2Z" style="fill:#4a4b53;stroke:none"/>
        <path d="m24.5 37 7.5-7.5 7.5 7.5-3 3-4.5-4.5-4.5 4.5Z" style="fill:#989aa4;stroke:none"/>
        <path d="m27.5 40 4.5-4.5 4.5 4.5-3 3h-3Z" style="stroke:none"/>
        <path d="M34 11.5v-7l1-1 6.5 6.5-4.5 4.5Z" style="fill:#989aa4;stroke:none"/>
        <path d="m40 17.5-1 1v2l-.5.5-4.5-4.5v-5Z" style="fill:#4a4b53;stroke:none"/>
        <path d="m37 14.5 4.5-4.5.5.5v5l-2 2Z" style="stroke:none"/>
        <path d="m36.5 34 4.5-4.5 4 4v2l-2 2v.5h-2.5Z" style="fill:#bc5452;stroke:none"/>
        <path d="m38 26.5 3-3 2 2v5l-.5.5Z" style="stroke:none"/>
    </g>
</svg>
