<svg xmlns="http://www.w3.org/2000/svg" width="206" height="220" style="fill-opacity:1;color-rendering:auto;color-interpolation:auto;text-rendering:auto;stroke:#000;stroke-linecap:square;stroke-miterlimit:10;shape-rendering:auto;stroke-opacity:1;fill:#000;stroke-dasharray:none;font-weight:400;stroke-width:1;font-family:&quot;Dialog&quot;;font-style:normal;stroke-linejoin:miter;font-size:12px;stroke-dashoffset:0;image-rendering:auto">
    <g style="stroke-linecap:round;fill:#b0bac0;stroke:#b0bac0">
        <path stroke="none" d="M65 110.5v-4l7-7v-4l10-10V85h1.5l9.5 9.5v2l-3 3v-3l-1-1-4.5 4.5-3-3-7.5 7.5v5l-3.5 3.5h-3Z" style="stroke:none"/>
    </g>
    <g stroke="none" style="stroke-linecap:round;fill:#6d6f7f;stroke:#6d6f7f">
        <path d="M67.5 113h3l3.5-3.5v7l-3.5 3.5h-3l-2.5-2.5v-7Z" style="stroke:none"/>
        <path d="M67 136.5v-2l7-7 5.5 5.5-.5.5v1l-7 7Z" style="fill:#b0bac0;stroke:none"/>
        <path d="m71 119.5 3-3v-12l7 7v2l-9 9v-2Z" style="fill:#9799a3;stroke:none"/>
        <path d="M72 125.5v-3l9-9 6.5 6.5h1l1.5 1.5v2l-3 3v4l1 1v2l5.5 5.5h2l4-4h1l1-1h3l1 1h1l4 4h2l5.5-5.5v-2l1-1v-4l-3-3v-2l1.5-1.5h1l6.5-6.5 9 9v3l-10 10v2l1 1v1l4.5 4.5-2 2h-4l-5.5-5.5-3.5 3.5h-23l-3.5-3.5-5.5 5.5h-4l-2-2 4.5-4.5v-1l1-1v-2Z" style="stroke:none"/>
        <path d="m72 141.5 7-7v-1l.5-.5 2.5 2.5v2l-1 1v1l-4.5 4.5h-2Z" style="fill:#9799a3;stroke:none"/>
        <path d="M74 90.5v-2l6.5-6.5 1.5 1.5v2L75.5 92Zm0 14 7.5-7.5 3 3-3.5 3.5v8Z" style="stroke:none"/>
        <path d="m76 86.5-.5-.5H75V73.5l10-10 3 3v1l-9 9v6l.5.5Z" style="fill:#b0bac0;stroke:none"/>
        <path d="m75.5 87-.5-.5V86h.5l.5.5Z" style="fill:#9799a3;stroke:none"/>
        <path d="m78.5 121 4.5 4.5 2.5-2.5-4.5-4.5Z" style="stroke:none"/>
        <path d="m80 78.5 1.5 1.5h2l2.5-2.5v-2L84.5 74Z" style="fill:#9799a3;stroke:none"/>
        <path d="m79.5 83-.5-.5v-6l9-9v14l-1 1-.5-.5-3 3H82v-1.5L80.5 82Zm-1 38 2.5-2.5 4.5 4.5-2.5 2.5Z" style="fill:#9799a3;stroke:none"/>
        <path d="M80 51.5v-4l11-11v-14L101.5 33 96 38.5v4L84.5 54h-2Zm0 27 4.5-4.5 1.5 1.5v2L83.5 80h-2Z" style="fill:#b0bac0;stroke:none"/>
        <path d="m80.5 56 2-2h2l7-7 .5.5v1l5 5v2l2 2v4l4 4 4-4v-4l2-2v-2l5-5v-1l.5-.5 7 7h2l2 2-4.5 4.5-4.5-4.5-1.5 1.5v4l-9.5 9.5h-5L91 61.5v-4L89.5 56 85 60.5Z" style="stroke:none"/>
        <path d="M81 108.5v-5l8-8 1 1v3Z" style="fill:#bf92f9;stroke:none"/>
        <path d="M81.5 112H81v-3.5l9-9v4Z" style="fill:#665c9f;stroke:none"/>
        <path d="M81 113.5V112h.5l8.5-8.5 7 7v1l.5.5-8.5 8.5-.5-.5h-1Z" style="fill:#b0bac0;stroke:none"/>
        <path d="m83.5 85 3-3 6.5 6.5-3 3Z" style="stroke:none"/>
        <path d="m87 82.5 1-1v-11l3.5-3.5 5.5 5.5-6 6 .5.5h4l7.5-7.5 7.5 7.5h4l.5-.5-6-6 5.5-5.5 3.5 3.5v11l1 1-6 6 1.5 1.5-5.5 5.5v1l-4.5 4.5h-3L97 96.5v-1L91.5 90l1.5-1.5Zm0 48v-4l3-3V122h2.5l.5-.5 2.5 2.5h2l4-4h3l4 4h2l2.5-2.5.5.5h2.5v1.5l3 3v4l-1 1v.5h-4.5l-3.5-3.5-5.5 5.5h-3l-5.5-5.5-3.5 3.5H88v-.5Z" style="fill:#b0bac0;stroke:none"/>
        <path d="M88 133.5V132h4.5l3.5-3.5 5.5 5.5-1 1h-1l-4 4h-2Zm1-13 1.5-1.5 2.5 2.5-.5.5H90v-.5Zm1-29 1.5-1.5 5.5 5.5v1l-3 3 1.5 1.5-4 4-1.5-1.5v-4l3-3v-2Zm1-69 5.5-5.5h13l5.5 5.5L104.5 33l5.5 5.5v4l4.5 4.5-.5.5v1l-4.5 4.5-6.5-6.5-6.5 6.5-4.5-4.5v-1l-.5-.5 4.5-4.5v-4l5.5-5.5Zm9.5 48.5h5l9.5-9.5v5l-8.5 8.5-3.5-3.5-3.5 3.5-8.5-8.5v-5Z" style="fill:#9799a3;stroke:none"/>
        <path d="m91.5 79-.5-.5 6-6 2.5 2.5-4 4Z" style="stroke:none"/>
        <path d="m90.5 119 4-4 4.5 4.5 4-4 4 4 4.5-4.5 4 4-5 5h-2l-4-4h-3l-4 4h-2Zm1-14 2-2 5.5 5.5v2l-1.5 1.5-.5-.5v-1Z" style="fill:#665c9f;stroke:none"/>
        <path d="m94 99.5 3-3 4.5 4.5h3l4.5-4.5 3 3-5.5 5.5h-7Z" style="stroke:none"/>
        <path d="m93.5 103 2-2 4 4h7l4-4 2 2-5.5 5.5v2l4.5 4.5-4.5 4.5-4-4-4 4-4.5-4.5 4.5-4.5v-2Z" style="fill:#bf92f9;stroke:none"/>
        <path d="m95.5 24 4 4h7l4-4-4-4h-7Z" style="fill:#9799a3;stroke:none"/>
        <path d="m96 84.5 3.5 3.5h7l3.5-3.5-3.5-3.5h-7Z" style="fill:#b0bac0;stroke:none"/>
        <path d="m95.5 24 4-4h7l4 4-4 4h-7Z" style="stroke:none"/>
        <path d="m96 84.5 3.5-3.5h7l3.5 3.5-3.5 3.5h-7Zm2-43v4l1.5 1.5 3.5-3.5 3.5 3.5 1.5-1.5v-4l-5-5Z" style="fill:#9799a3;stroke:none"/>
        <path d="M97 55.5v-2l-.5-.5 6.5-6.5 6.5 6.5-.5.5v2l-2 2v4l-4 4-4-4v-4Z" style="fill:#b0bac0;stroke:none"/>
        <path d="M98 45.5v-4l5-5 5 5v4l-1.5 1.5-3.5-3.5-3.5 3.5Zm6.5-12.5L115 22.5v14l11 11v4l-2.5 2.5h-2L110 42.5v-4Z" style="fill:#b0bac0;stroke:none"/>
        <path d="m105.5 135-1-1 5.5-5.5 3.5 3.5h4.5v1.5l-5.5 5.5h-2l-4-4Z" style="fill:#9799a3;stroke:none"/>
        <path d="m106.5 75 2.5-2.5 6 6-.5.5h-4Z" style="stroke:none"/>
        <path d="M107 110.5v-2l5.5-5.5 2 2-5.5 5.5v1l-.5.5Z" style="fill:#665c9f;stroke:none"/>
        <path d="M109 96.5v-1l5.5-5.5 1.5 1.5-3 3v2l3 3v4l-1.5 1.5-4-4 1.5-1.5Z" style="fill:#9799a3;stroke:none"/>
        <path d="m108.5 112 .5-.5v-1l7-7 9 9v1l-6.5 6.5h-1l-.5.5Z" style="fill:#b0bac0;stroke:none"/>
        <path d="m113 88.5 6.5-6.5 3 3-6.5 6.5Z" style="stroke:none"/>
        <path d="M113 96.5v-2l9.5-9.5h1.5v.5l10 10v4l7 7v4l-2.5 2.5h-3l-3.5-3.5v-5l-7.5-7.5-3 3-4.5-4.5-1 1v3Z" style="fill:#b0bac0;stroke:none"/>
        <path d="m113.5 122-.5-.5 2.5-2.5 1.5 1.5-1 1v.5Z" style="fill:#9799a3;stroke:none"/>
        <path d="M116 99.5v-3l1-1 8 8v5Z" style="fill:#bf92f9;stroke:none"/>
        <path d="M125 108.5v4l-9-9v-4Z" style="fill:#665c9f;stroke:none"/>
        <path d="M118 67.5v-1l3-3 10 10v12l-1 1-3.5-3.5.5-.5v-6Z" style="fill:#b0bac0;stroke:none"/>
        <path d="M127 76.5v6l-.5.5-1-1-1.5 1.5V85h-1.5l-3-3-.5.5-1-1v-14Z" style="fill:#9799a3;stroke:none"/>
        <path d="M120 75.5v2l2.5 2.5h2l1.5-1.5-4.5-4.5Z" style="fill:#9799a3;stroke:none"/>
        <path d="M120 77.5v-2l1.5-1.5 4.5 4.5-1.5 1.5h-2Z" style="fill:#b0bac0;stroke:none"/>
        <path d="m120.5 123 2.5 2.5 4.5-4.5-2.5-2.5Z" style="stroke:none"/>
        <path d="m120.5 123 4.5-4.5 2.5 2.5-4.5 4.5Z" style="fill:#9799a3;stroke:none"/>
        <path d="m121.5 100 3-3 7.5 7.5-7 7v-8Zm2.5-14.5v-2l1.5-1.5 6.5 6.5v2l-1.5 1.5Z" style="stroke:none"/>
        <path d="M124 137.5v-2l2.5-2.5.5.5v1l7 7-2.5 2.5h-2l-4.5-4.5v-1Zm1-24v-2l7-7v12l3 3-1 1v2Z" style="fill:#9799a3;stroke:none"/>
        <path d="M127 134.5v-1l-.5-.5 5.5-5.5 7 7v2l-5 5Z" style="fill:#b0bac0;stroke:none"/>
        <path d="m130.5 87-.5-.5 1-1v1Z" style="fill:#9799a3;stroke:none"/>
        <path d="M135.5 113h3l2.5-2.5v7l-2.5 2.5h-3l-3.5-3.5v-7Z" style="stroke:none"/>
    </g>
</svg>
