<svg xmlns="http://www.w3.org/2000/svg" width="96" height="96" style="fill-opacity:1;color-rendering:auto;color-interpolation:auto;text-rendering:auto;stroke:#000;stroke-linecap:square;stroke-miterlimit:10;shape-rendering:auto;stroke-opacity:1;fill:#000;stroke-dasharray:none;font-weight:400;stroke-width:1;font-family:&quot;Dialog&quot;;font-style:normal;stroke-linejoin:miter;font-size:12px;stroke-dashoffset:0;image-rendering:auto">
    <g style="stroke-linecap:round;fill:#6e7080;stroke:#6e7080">
        <path stroke="none" d="M.5 1V.5H1L7.5 7l3-3h6l5 5h.5v5.5L20.5 13h-2L16 15.5l8.5 8.5-.5.5-8.5-8.5-2.5 2.5v2l1.5 1.5H9v-.5l-5-5v-6l3-3Z" style="stroke:none"/>
    </g>
    <g stroke="none" style="stroke-linecap:round;fill:#4a4b53;stroke:#4a4b53">
        <path d="m7 7.5-3 3v6l5 5v.5H5.5l-3 3h-2V1Z" style="stroke:none"/>
        <path d="M.5 36V25h2l3-3H9v9H7.5l-5 5Z" style="fill:#bc5452;stroke:none"/>
        <path d="M.5 45v-9h2l5-5H9v3.5L4.5 39l4 4h-6Z" style="stroke:none"/>
        <path d="M.5 51v-6l2-2h6l2.5 2.5v5L8.5 53h-6Z" style="fill:#bc5452;stroke:none"/>
        <path d="M2.5 53h6l-4 4L9 61.5V65H7.5l-5-5h-2v-9Z" style="stroke:none"/>
        <path d="M.5 71V60h2l5 5H9v9H5.5l-3-3Z" style="fill:#bc5452;stroke:none"/>
        <path d="M1 .5h24v2l-3 3V9h-.5l-5-5h-6l-3 3Z" style="fill:#989aa4;stroke:none"/>
        <path d="M5.5 74H9v.5l-5 5v6l6.5 6.5h6l5-5h.5v3.5l3 3v2H.5V71h2Z" style="stroke:none"/>
        <path d="M4 85.5v-6l5-5V74h5.5L13 75.5v2l5.5 5.5h2l1.5-1.5V87h-.5l-5 5h-6ZM4.5 39 9 34.5V31h6v1.5l-2 2v2l5 5V43h-1.5L13 39.5l-4 4Zm0 18L9 52.5l4 4 3.5-3.5H18v1.5l-5 5v2l2 2V65H9v-3.5Zm2-44 3.5 3.5 3-3L9.5 10Z" style="fill:#6e7080;stroke:none"/>
        <path d="m6.5 83 6.5 6.5 3.5-3.5-6.5-6.5Z" style="fill:#6e7080;stroke:none"/>
        <path d="m6.5 13 3-3 3.5 3.5-3 3Zm0 70 3.5-3.5 6.5 6.5-3.5 3.5Z" style="stroke:none"/>
        <path d="m10 9.5 3.5 3.5 3-3L13 6.5Z" style="fill:#6e7080;stroke:none"/>
        <path d="M9 31v-9h6v9Zm0 12.5 4-4 3.5 3.5H18v10h-1.5L13 56.5l-4-4 2-2v-5ZM9 74v-9h6v9Z" style="fill:#ea8878;stroke:none"/>
        <path d="m10 9.5 3-3 3.5 3.5-3 3Z" style="fill:#989aa4;stroke:none"/>
        <path d="M13 20.5v-2l2.5-2.5 8.5 8.5-2 2-4.5-4.5h-3Zm0 16v-2l2-2V31h2.5l2 2h1l5.5 5.5v3L24.5 43H18v-1.5Zm0 25v-2l5-5V53h6.5l1.5 1.5v3L20.5 63h-1l-2 2H15v-1.5Zm0 16v-2l1.5-1.5h3l4.5-4.5 4.5 4.5-4.5 4.5v3L20.5 83h-2Z" style="stroke:none"/>
        <path d="M15 31v-9h2.5l4.5 4.5-2 2V33h-.5l-2-2Zm0 43v-9h2.5l2-2h.5v4.5l2 2-4.5 4.5Z" style="fill:#bc5452;stroke:none"/>
        <path d="m16 15.5 2.5-2.5h2l1.5 1.5v3l4.5 4.5-2 2Z" style="fill:#989aa4;stroke:none"/>
        <path d="M18 53V43h6.5L23 44.5v7l1.5 1.5Z" style="fill:#bc5452;stroke:none"/>
        <path d="M20 33v-4.5l4-4 4 4-4.5 4.5Zm0 34.5V63h3.5l9.5 9.5V76h-4.5Z" style="fill:#feb380;stroke:none"/>
        <path d="M20.5 33h3l2-2 7.5 7.5v3l-2 2-.5-.5h-6l1.5-1.5v-3Zm0 30 5.5-5.5v-3L24.5 53h6l.5-.5 2 2v3L25.5 65l-2-2Z" style="fill:#989aa4;stroke:none"/>
        <path d="M22 9V5.5l3-3v-2h11v2l-5 5V9Z" style="fill:#feb380;stroke:none"/>
        <path d="M22 15V9h9v6Z" style="fill:#ea8878;stroke:none"/>
        <path d="M22 17.5V15h9v2.5l2 2v.5h-4.5l-2 2Z" style="fill:#feb380;stroke:none"/>
        <path d="M22 81v-2.5l4.5-4.5 2 2H33v.5l-2 2V81Z" style="fill:#bc5452;stroke:none"/>
        <path d="M22 87v-6h9v6Z" style="fill:#ea8878;stroke:none"/>
        <path d="M22 90.5V87h9v1.5l5 5v2H25v-2Z" style="fill:#bc5452;stroke:none"/>
        <path d="M23 51.5v-7l1.5-1.5h6l.5.5-2 2v5l2 2-.5.5h-6Z" style="fill:#feb380;stroke:none"/>
        <path d="m25 25.5-1-1 .5-.5.5.5Z" style="fill:#ea8878;stroke:none"/>
        <path d="m24.5 24 4-4H33v3.5L28.5 28Z" style="fill:#bc5452;stroke:none"/>
        <path d="m27 27.5-3-3 .5-.5 2.5 2.5Z" style="fill:#ea8878;stroke:none"/>
        <path d="M31 9V7.5l5-5v-2h9l-2 2v6l-4-4L34.5 9Z" style="fill:#989aa4;stroke:none"/>
        <path d="M31 15V9h3.5L39 4.5 43.5 9l-4 4 3.5 3.5V18h-1.5l-5-5h-2l-2 2Z" style="fill:#6e7080;stroke:none"/>
        <path d="M31 17.5V15h1.5l2-2h2l5 5H43v6.5L41.5 26h-3L33 20.5v-1Z" style="fill:#989aa4;stroke:none"/>
        <path d="m31 25.5 2-2v-3l5.5 5.5h3l1.5-1.5v6l.5.5-2 2h-3Z" style="stroke:none"/>
        <path d="m31 70.5 7.5-7.5h3l2 2-.5.5v6L41.5 70h-3L33 75.5v-3Z" style="fill:#989aa4;stroke:none"/>
        <path d="M31 81v-2.5l2-2v-1l5.5-5.5h3l1.5 1.5V78h-1.5l-5 5h-2l-2-2Z" style="stroke:none"/>
        <path d="M31 87v-6h1.5l2 2h2l5-5H43v1.5L39.5 83l4 4-4.5 4.5-4.5-4.5Z" style="fill:#6e7080;stroke:none"/>
        <path d="M31 88.5V87h3.5l4.5 4.5 3.5-3.5.5.5v5l2 2h-9v-2Z" style="stroke:none"/>
        <path d="m37.5 42 6-6h9l7.5 7.5v9l-6 6-3.5-3.5 4.5-4.5v-4L49.5 41h-4L41 45.5Z" style="fill:#fff;stroke:none"/>
        <path d="m39.5 13 4-4 2 2h5l2-2 4 4-3.5 3.5V18H43v-1.5Zm0 70 3.5-3.5V78h10v1.5l3.5 3.5-4 4-2-2h-5l-2 2Z" style="fill:#ea8878;stroke:none"/>
        <path d="M43 8.5v-6l2-2h6l2 2v6L50.5 11h-5Zm0 16V18h10v6.5L51.5 23h-7Z" style="fill:#feb380;stroke:none"/>
        <path d="m43.5 31-.5-.5v-6l1.5-1.5h7l1.5 1.5v6l-.5.5-2-2h-5Z" style="fill:#bc5452;stroke:none"/>
        <path d="M45.5 67h5l2-2 .5.5v6L51.5 73h-7L43 71.5v-6l.5-.5Z" style="fill:#feb380;stroke:none"/>
        <path d="M44.5 73h7l1.5-1.5V78H43v-6.5ZM43 93.5v-5l-.5-.5 3-3h5l3 3-.5.5v5l-2 2h-6Z" style="fill:#bc5452;stroke:none"/>
        <path d="M45 49.5v-2l1.5-1.5h2l1.5 1.5v2L48.5 51h-2Z" style="fill:#fff;stroke:none"/>
        <path d="M51 .5h9v2l5 5V9h-3.5L57 4.5l-4 4v-6Z" style="fill:#989aa4;stroke:none"/>
        <path d="M52.5 9 57 4.5 61.5 9H65v6h-1.5l-2-2h-2l-5 5H53v-1.5l3.5-3.5Z" style="fill:#6e7080;stroke:none"/>
        <path d="M53 24.5V18h1.5l5-5h2l2 2H65v2.5l-2 2v1L57.5 26h-3Z" style="fill:#989aa4;stroke:none"/>
        <path d="M54.5 26h3l5.5-5.5v3l2 2-7.5 7.5h-3l-2-2 .5-.5v-6Z" style="stroke:none"/>
        <path d="M53 71.5v-6l-.5-.5 2-2h3l7.5 7.5-2 2v3L57.5 70h-3Z" style="fill:#989aa4;stroke:none"/>
        <path d="M53 78v-6.5l1.5-1.5h3l5.5 5.5v1l2 2V81h-1.5l-2 2h-2l-5-5Z" style="stroke:none"/>
        <path d="M53 79.5V78h1.5l5 5h2l2-2H65v6h-3.5L57 91.5 52.5 87l4-4Z" style="fill:#6e7080;stroke:none"/>
        <path d="m57 91.5 4.5-4.5H65v1.5l-5 5v2h-9l2-2v-5l.5-.5Z" style="stroke:none"/>
        <path d="M60 2.5v-2h11v2l3 3V9h-9V7.5ZM63 20v-.5l2-2V15h9v2.5L69.5 22l-2-2Z" style="fill:#feb380;stroke:none"/>
        <path d="M63 23.5V20h4.5l8.5 8.5V33h-3.5Z" style="fill:#bc5452;stroke:none"/>
        <path d="M63 41.5v-3l7.5-7.5 2 2h3L70 38.5v3l1.5 1.5h-6l-.5.5Zm0 16v-3l2-2 .5.5h6L70 54.5v3l5.5 5.5h-3l-2 2Z" style="stroke:none"/>
        <path d="M63 76v-3.5l4.5-4.5 4 4-4 4Z" style="fill:#feb380;stroke:none"/>
        <path d="M63 76.5V76h4.5l2-2 4.5 4.5V81h-9v-2.5Z" style="fill:#bc5452;stroke:none"/>
        <path d="M65 15V9h9v6Z" style="fill:#ea8878;stroke:none"/>
        <path d="m65 43.5.5-.5h6l1.5 1.5v7L71.5 53h-6l-.5-.5 2-2v-5Z" style="fill:#bc5452;stroke:none"/>
        <path d="M65 87v-6h9v6Z" style="fill:#ea8878;stroke:none"/>
        <path d="m68 67.5 4.5-4.5H76v4.5l-4 4Z" style="fill:#bc5452;stroke:none"/>
        <path d="M69 69.5 67.5 68l.5-.5 1 1Z" style="fill:#ea8878;stroke:none"/>
        <path d="m69.5 22 4.5-4.5v-3l1.5-1.5h2l5.5 5.5v2L81.5 22h-3L74 26.5Zm.5 19.5v-3l5.5-5.5h1l2-2H81v1.5l2 2v2l-5 5V43h-6.5Zm0 16v-3l1.5-1.5H78v1.5l5 5v2l-2 2V65h-2.5l-2-2h-1Z" style="fill:#989aa4;stroke:none"/>
        <path d="M71 71.5 67.5 68l.5-.5 3 3Z" style="fill:#ea8878;stroke:none"/>
        <path d="m69.5 74 2-2 8.5 8.5-2.5 2.5h-2L74 81.5v-3Z" style="stroke:none"/>
        <path d="M71 93.5v2H60v-2l5-5V87h9v3.5Z" style="fill:#bc5452;stroke:none"/>
        <path d="M71 2.5v-2h24.5V25h-2l-3-3H87v-.5l5-5v-6L85.5 4h-6l-5 5H74V5.5Z" style="fill:#989aa4;stroke:none"/>
        <path d="M71.5 43H78v10h-6.5l1.5-1.5v-7Z" style="fill:#feb380;stroke:none"/>
        <path d="m72 71.5 2-2 4.5 4.5h3l1.5 1.5v2L80.5 80Z" style="fill:#989aa4;stroke:none"/>
        <path d="m73 73.5-1-1 .5-.5.5.5Zm1-59V9h.5l5-5h6l6.5 6.5v6l-5 5v.5h-5.5l1.5-1.5v-2L77.5 13h-2Z" style="fill:#6e7080;stroke:none"/>
        <path d="m74 26.5 4.5-4.5H81v9h-2.5l-2 2H76v-4.5Zm0 43 2-2V63h.5l2 2H81v9h-2.5Z" style="fill:#feb380;stroke:none"/>
        <path d="m75 75.5-3-3 .5-.5 2.5 2.5Z" style="fill:#6e7080;stroke:none"/>
        <path d="M75.5 83h2l2.5-2.5-8-8 .5-.5 8 8 2.5-2.5v-2L81.5 74H87v.5l5 5v6l-3 3 6.5 6.5v.5H95L88.5 89l-3 3h-6l-5-5H74v-5.5Z" style="fill:#6e7080;stroke:none"/>
        <path d="M79.5 92h6l3-3 6.5 6.5H71v-2l3-3V87h.5Z" style="stroke:none"/>
        <path d="M78 43v-1.5l5-5v-2l-2-2V31h6v3.5l4.5 4.5-4.5 4.5-4-4-3.5 3.5Z" style="fill:#6e7080;stroke:none"/>
        <path d="M78 53V43h1.5l3.5-3.5 4 4-2 2v5l2 2-4 4-3.5-3.5Z" style="fill:#ea8878;stroke:none"/>
        <path d="M78 54.5V53h1.5l3.5 3.5 4-4 4.5 4.5-4.5 4.5V65h-6v-1.5l2-2v-2ZM79.5 10l6.5 6.5 3.5-3.5L83 6.5Zm0 76 3.5 3.5 3-3-3.5-3.5Z" style="fill:#6e7080;stroke:none"/>
        <path d="M79.5 10 83 6.5l6.5 6.5-3.5 3.5Z" style="fill:#989aa4;stroke:none"/>
        <path d="m79.5 86 3-3 3.5 3.5-3 3Z" style="stroke:none"/>
        <path d="M81 31v-9h6v9Zm0 43v-9h6v9Z" style="fill:#ea8878;stroke:none"/>
        <path d="m83 82.5 3.5 3.5 3-3-3.5-3.5Z" style="fill:#6e7080;stroke:none"/>
        <path d="m83 82.5 3-3 3.5 3.5-3 3Z" style="fill:#989aa4;stroke:none"/>
        <path d="M85 50.5v-5l3-3 .5.5h5l2 2v6l-2 2h-5l-.5.5ZM87 31v-9h3.5l3 3h2v11h-2l-5-5Z" style="fill:#feb380;stroke:none"/>
        <path d="M87 34.5V31h1.5l5 5h2v9l-2-2h-5l-.5-.5 3.5-3.5ZM87 65v-3.5l4.5-4.5-3.5-3.5.5-.5h5l2-2v9h-2l-5 5Z" style="fill:#989aa4;stroke:none"/>
        <path d="M87 74v-9h1.5l5-5h2v11h-2l-3 3Z" style="fill:#feb380;stroke:none"/>
        <path d="M87 74.5V74h3.5l3-3h2v24L89 88.5l3-3v-6Z" style="fill:#989aa4;stroke:none"/>
    </g>
</svg>
