<svg xmlns="http://www.w3.org/2000/svg" width="64" height="64" style="fill-opacity:1;color-rendering:auto;color-interpolation:auto;text-rendering:auto;stroke:#000;stroke-linecap:square;stroke-miterlimit:10;shape-rendering:auto;stroke-opacity:1;fill:#000;stroke-dasharray:none;font-weight:400;stroke-width:1;font-family:&quot;Dialog&quot;;font-style:normal;stroke-linejoin:miter;font-size:12px;stroke-dashoffset:0;image-rendering:auto">
    <g style="stroke-linecap:round;fill:#989aa4;stroke:#989aa4">
        <path stroke="none" d="M.5 1V.5H1l5 5L7.5 4H17v1.5l3 3v4l.5.5-3.5 3.5 3 3 3.5-3.5h4L26 17.5V20h-.5L20 25.5v.5h-2.5L16 27.5v-4l3.5-3.5-3-3-3.5 3.5-.5-.5h-4l-3-3H4V7.5L5.5 6Z" style="stroke:none"/>
    </g>
    <g stroke="none" style="stroke-linecap:round;fill:#6e7080;stroke:#6e7080">
        <path d="M5.5 6 4 7.5v13L7.5 24H8v2.5l2 2 2-2v-5l4.5-4.5 3 3-3.5 3.5v4L11.5 32l4.5 4.5v4l7.5 7.5h4l4.5 4.5 4.5-4.5h4l3.5-3.5 3 3-4.5 4.5h-5l-2 2 2 2H40v.5l3.5 3.5h13l1.5-1.5 5 5H40l-8-8-8 8H.5V40l8-8-8-8V1Z" style="stroke:none"/>
        <path d="m8.5 32-8 8V24Z" style="fill:#5757c1;stroke:none"/>
        <path d="M1 .5h23l8 8 8-8h23.5V24l-8 8 8 8v23l-5-5 1.5-1.5v-13L56.5 40H56v-2.5l-2-2-2 2v5L47.5 47l-3-3 3.5-3.5v-4l4.5-4.5-4.5-4.5v-4L40.5 16h-4L32 11.5 27.5 16h-4L20 19.5l-3-3 4.5-4.5h5l2-2-2-2H24v-.5L20.5 4h-13L6 5.5Z" style="fill:#b0bac0;stroke:none"/>
        <path d="M4 43.5v13L7.5 60h13l3.5-3.5V56h2.5l2-2-2-2h-5L12 42.5v-5l-2-2-2 2V40h-.5Z" style="stroke:none"/>
        <path d="M4 20.5V17h1.5l3 3h4l.5.5-1 1V24H7.5ZM4 47v-3.5L7.5 40H12v2.5l1 1-.5.5h-4l-3 3Z" style="fill:#b0bac0;stroke:none"/>
        <path d="M4 56.5V47h1.5l3-3h4l.5-.5 7.5 7.5-.5.5v4l-3 3V60H7.5ZM7.5 12l4.5 4.5 2-2L9.5 10Z" style="fill:#989aa4;stroke:none"/>
        <path d="m7.5 52 4.5 4.5 4.5-4.5-4.5-4.5Z" style="fill:#989aa4;stroke:none"/>
        <path d="m7.5 12 2-2 4.5 4.5-2 2Z" style="stroke:none"/>
        <path d="M8 26.5V24h4v2.5l-2 2ZM8 40v-2.5l2-2 2 2V40Z" style="fill:#989aa4;stroke:none"/>
        <path d="m7.5 52 4.5-4.5 4.5 4.5-4.5 4.5Z" style="fill:#b0bac0;stroke:none"/>
        <path d="m10 9.5 4.5 4.5 2-2L12 7.5Z" style="fill:#989aa4;stroke:none"/>
        <path d="m10 9.5 2-2 4.5 4.5-2 2Z" style="fill:#b0bac0;stroke:none"/>
        <path d="m11.5 32 4.5-4.5v9Z" style="fill:#5757c1;stroke:none"/>
        <path d="M16 36.5v-9l1.5-1.5H20v12h-2.5Z" style="fill:#6f80e8;stroke:none"/>
        <path d="M17.5 38H20v.5l5.5 5.5h.5v2.5l1.5 1.5h-4L16 40.5v-4Z" style="fill:#989aa4;stroke:none"/>
        <path d="M17 5.5V4h3.5L24 7.5V12h-2.5l-1 1-.5-.5v-4Z" style="stroke:none"/>
        <path d="M17 60v-1.5l3-3v-4l.5-.5 1 1H24v4.5L20.5 60Z" style="fill:#b0bac0;stroke:none"/>
        <path d="M38 43.5v.5h-4.5L20 30.5V26h.5Z" style="fill:#fff;stroke:none"/>
        <path d="M24 .5h16l-8 8Z" style="fill:#88a4ff;stroke:none"/>
        <path d="M24 12V8h2.5l2 2-2 2Zm0 44v-4h2.5l2 2-2 2Z" style="fill:#989aa4;stroke:none"/>
        <path d="M26 20v-2.5l1.5-1.5h9l1.5 1.5V20Z" style="fill:#6f80e8;stroke:none"/>
        <path d="M26 20.5V20h7.5L44 30.5V38h-.5Z" style="fill:#fff;stroke:none"/>
        <path d="M26 46.5V44h12v2.5L36.5 48h-9Z" style="fill:#6f80e8;stroke:none"/>
        <path d="m27.5 16 4.5-4.5 4.5 4.5Z" style="fill:#88a4ff;stroke:none"/>
        <path d="M27.5 48h9L32 52.5ZM40 63.5H24l8-8Z" style="fill:#5757c1;stroke:none"/>
        <path d="m35.5 10 2 2h5l9.5 9.5v5l2 2 2-2V24h.5l3.5-3.5v-13L56.5 4h-13L40 7.5V8h-2.5Z" style="fill:#b0bac0;stroke:none"/>
        <path d="m35.5 10 2-2H40v4h-2.5Zm0 44 2-2H40v4h-2.5Zm1-38h4l7.5 7.5v4L46.5 26H44v-.5L38.5 20H38v-2.5Z" style="fill:#989aa4;stroke:none"/>
        <path d="m36.5 48 1.5-1.5V44h.5l5.5-5.5V38h2.5l1.5-1.5v4L44.5 44l3 3 3.5-3.5.5.5h4l3 3H60v9.5L58.5 58l5 5v.5H63l-5-5-1.5 1.5H47v-1.5l-3-3v-4l-.5-.5 3.5-3.5-3-3-3.5 3.5Z" style="fill:#989aa4;stroke:none"/>
        <path d="M40 12V7.5L43.5 4H47v1.5l-3 3v4l-.5.5-1-1Z" style="stroke:none"/>
        <path d="M40 56.5V52h2.5l1-1 .5.5v4l3 3V60h-3.5Z" style="fill:#b0bac0;stroke:none"/>
        <path d="m43.5 13 .5-.5v-4l3-3V4h9.5L60 7.5V17h-1.5l-3 3h-4l-.5.5Z" style="fill:#989aa4;stroke:none"/>
        <path d="M44 38V26h2.5l1.5 1.5v9L46.5 38Z" style="fill:#6f80e8;stroke:none"/>
        <path d="m47.5 12 4.5 4.5 4.5-4.5L52 7.5Zm0 40 4.5 4.5 2-2-4.5-4.5Z" style="fill:#989aa4;stroke:none"/>
        <path d="M47.5 12 52 7.5l4.5 4.5-4.5 4.5Z" style="fill:#b0bac0;stroke:none"/>
        <path d="M52.5 32 48 36.5v-9Z" style="fill:#88a4ff;stroke:none"/>
        <path d="m47.5 52 2-2 4.5 4.5-2 2Z" style="stroke:none"/>
        <path d="m50 49.5 4.5 4.5 2-2-4.5-4.5Z" style="fill:#989aa4;stroke:none"/>
        <path d="m50 49.5 2-2 4.5 4.5-2 2Z" style="fill:#b0bac0;stroke:none"/>
        <path d="m51 20.5.5-.5h4l3-3H60v3.5L56.5 24H52v-2.5Zm.5 23.5-.5-.5 1-1V40h4.5l3.5 3.5V47h-1.5l-3-3Z" style="stroke:none"/>
        <path d="M52 26.5V24h4v2.5l-2 2ZM52 40v-2.5l2-2 2 2V40Z" style="fill:#989aa4;stroke:none"/>
        <path d="m55.5 32 8-8v16Z" style="fill:#88a4ff;stroke:none"/>
    </g>
</svg>
