<svg xmlns="http://www.w3.org/2000/svg" width="64" height="64" style="fill-opacity:1;color-rendering:auto;color-interpolation:auto;text-rendering:auto;stroke:#000;stroke-linecap:square;stroke-miterlimit:10;shape-rendering:auto;stroke-opacity:1;fill:#000;stroke-dasharray:none;font-weight:400;stroke-width:1;font-family:&quot;Dialog&quot;;font-style:normal;stroke-linejoin:miter;font-size:12px;stroke-dashoffset:0;image-rendering:auto">
    <g style="stroke-linecap:round;fill:#989aa4;stroke:#989aa4">
        <path stroke="none" d="M.5 3V.5H3L6.5 4h6l-4 4 3 3-.5.5-3-3-4 4v-6Z" style="stroke:none"/>
    </g>
    <g stroke="none" style="stroke-linecap:round;fill:#6e7080;stroke:#6e7080">
        <path d="M4 6.5v50L7.5 60h50l3.5 3.5H.5V3Z" style="stroke:none"/>
        <path d="M3 .5h60.5V61L60 57.5v-50L56.5 4h-50Zm1 51v-39l4-4 3 3-3 3v35l6.5 6.5h35l3-3 3 3-4 4h-39Z" style="fill:#b0bac0;stroke:none"/>
        <path d="M12.5 60h-5L4 56.5v-5Z" style="fill:#989aa4;stroke:none"/>
        <path d="m8.5 8 4-4h39l8.5 8.5v39l-4 4-3-3 3-3v-35L49.5 8h-35l-3 3Z" style="stroke:none"/>
        <path d="M51.5 4h5L60 7.5v5Zm0 56 4-4-3-3 .5-.5 3 3 4-4v6l3.5 3.5v2.5H61L57.5 60Z" style="fill:#989aa4;stroke:none"/>
    </g>
</svg>
