<svg xmlns="http://www.w3.org/2000/svg" width="96" height="96" style="fill-opacity:1;color-rendering:auto;color-interpolation:auto;text-rendering:auto;stroke:#000;stroke-linecap:square;stroke-miterlimit:10;shape-rendering:auto;stroke-opacity:1;fill:#000;stroke-dasharray:none;font-weight:400;stroke-width:1;font-family:&quot;Dialog&quot;;font-style:normal;stroke-linejoin:miter;font-size:12px;stroke-dashoffset:0;image-rendering:auto">
    <g style="stroke-linecap:round;fill:#6e7080;stroke:#6e7080">
        <path stroke="none" d="M19 44v-8.5l.5-.5h3l5 5h4l.5.5v15l-.5.5h-4l-5 5h-3l-.5-.5V52h5.5l4-4-4-4Z" style="stroke:none"/>
    </g>
    <g stroke="none" style="stroke-linecap:round;fill:#989aa4;stroke:#989aa4">
        <path d="M19 52v-8h5.5l4 4-4 4Z" style="stroke:none"/>
        <path d="M35 22.5v-3l.5-.5H44v6.5l4 4 4-4V19h8.5l.5.5v3l-5 5v4l-.5.5h-15l-.5-.5v-4Z" style="fill:#b0bac0;stroke:none"/>
        <path d="m35.5 77-.5-.5v-3l5-5v-4l.5-.5h15l.5.5v4l5 5v3l-.5.5H52v-6.5l-4-4-4 4V77Z" style="fill:#6e7080;stroke:none"/>
        <path d="M44 25.5V19h8v6.5l-4 4ZM44 77v-6.5l4-4 4 4V77Z" style="stroke:none"/>
        <path d="m64.5 56-.5-.5v-15l.5-.5h4l5-5h3l.5.5V44h-5.5l-4 4 4 4H77v8.5l-.5.5h-3l-5-5Z" style="fill:#b0bac0;stroke:none"/>
        <path d="m67.5 48 4-4H77v8h-5.5Z" style="stroke:none"/>
    </g>
</svg>
