<svg xmlns="http://www.w3.org/2000/svg" width="64" height="64" style="fill-opacity:1;color-rendering:auto;color-interpolation:auto;text-rendering:auto;stroke:#000;stroke-linecap:square;stroke-miterlimit:10;shape-rendering:auto;stroke-opacity:1;fill:#000;stroke-dasharray:none;font-weight:400;stroke-width:1;font-family:&quot;Dialog&quot;;font-style:normal;stroke-linejoin:miter;font-size:12px;stroke-dashoffset:0;image-rendering:auto">
    <g style="stroke-linecap:round;fill:#6e7080;stroke:#6e7080">
        <path stroke="none" d="m17.5 18-.5-.5.5-.5.5.5Z" style="stroke:none"/>
    </g>
    <g stroke="none" style="stroke-linecap:round;fill:#6e7080;stroke:#6e7080">
        <path d="m17.5 47-.5-.5.5-.5.5.5Z" style="stroke:none"/>
        <path d="m38 24.5 4-4 3.5 3.5h5L48 26.5V29h-.5L46 30.5v3l1.5 1.5h.5v2.5l2.5 2.5h-5L42 43.5l-4-4 4-4v-7Zm8.5-7.5 5-5h1l2.5 2.5v2L50.5 21Zm0 30 4-4 4.5 4.5v2L52.5 52h-1Z" style="fill:#bc5452;stroke:none"/>
        <path d="M48 29v-2.5l2.5-2.5h4l.5.5v4l-.5.5Zm0 8.5V35h6.5l.5.5v4l-.5.5h-4ZM52.5 12H59v6h-4.5l-.5-.5 1-1v-2Zm0 40 2.5-2.5v-2l-1-1 .5-.5H59v6Z" style="fill:#ea8878;stroke:none"/>
        <path d="M59 18v-6h.5l3-3h1v9Zm.5 34H59v-6h4.5v9h-1Z" style="fill:#bc5452;stroke:none"/>
    </g>
</svg>
