<svg xmlns="http://www.w3.org/2000/svg" width="96" height="96" style="fill-opacity:1;color-rendering:auto;color-interpolation:auto;text-rendering:auto;stroke:#000;stroke-linecap:square;stroke-miterlimit:10;shape-rendering:auto;stroke-opacity:1;fill:#000;stroke-dasharray:none;font-weight:400;stroke-width:1;font-family:&quot;Dialog&quot;;font-style:normal;stroke-linejoin:miter;font-size:12px;stroke-dashoffset:0;image-rendering:auto">
    <g style="stroke-linecap:round;fill:#6569c9;stroke:#6569c9">
        <path stroke="none" d="m69.5 44 4.5-4.5 4.5 4.5-4 4 4 4-4.5 4.5-4.5-4.5 4-4Z" style="stroke:none"/>
    </g>
    <g stroke="none" style="stroke-linecap:round;fill:#92dd7e;stroke:#92dd7e">
        <path d="m72.5 27 6-6h1l2.5 2.5V28h-.5l-3 3h-4l-.5-.5v-2Zm0 42 1.5-1.5v-2l.5-.5h4l3 3h.5v4.5L79.5 75h-1Z" style="stroke:none"/>
        <path d="m74 39.5 2.5-2.5h14l5 5v12l-5 5h-14L74 56.5l4.5-4.5 1 1h7l5-5-5-5h-7l-1 1Z" style="fill:#d1efff;stroke:none"/>
        <path d="m79.5 21 1-1H89v8h-7v-4.5Zm1 55-1-1 2.5-2.5V68h7v8Z" style="fill:#3a8f64;stroke:none"/>
        <path d="M89 20v-6.5L94.5 8h1v9l-3 3Z" style="fill:#d1efff;stroke:none"/>
        <path d="M89 28v-8h3.5l3-3v14l-3-3Zm0 48v-8h3.5l3-3v14l-3-3Z" style="stroke:none"/>
        <path d="M89 82.5V76h3.5l3 3v9h-1Z" style="fill:#d1efff;stroke:none"/>
    </g>
</svg>
