<svg xmlns="http://www.w3.org/2000/svg" width="96" height="96" style="fill-opacity:1;color-rendering:auto;color-interpolation:auto;text-rendering:auto;stroke:#000;stroke-linecap:square;stroke-miterlimit:10;shape-rendering:auto;stroke-opacity:1;fill:#000;stroke-dasharray:none;font-weight:400;stroke-width:1;font-family:&quot;Dialog&quot;;font-style:normal;stroke-linejoin:miter;font-size:12px;stroke-dashoffset:0;image-rendering:auto">
    <g style="stroke-linecap:round;fill:#6e7080;stroke:#6e7080">
        <path stroke="none" d="M.5 1V.5H1l11 11L15.5 8h6l3 3h8l3-3h2l2-2H41v6h-.5l-4 4h-3l-2-2h-6L20 19.5l6 6 4.5-4.5H44v5.5l-.5.5-2-2h-9L29 28.5l3 3-.5.5-3-3-3.5 3.5v9l2 2-.5.5H21V30.5l4.5-4.5-6-6-5.5 5.5v6l2 2v3l-4 4v.5H6v-1.5l2-2v-2l3-3v-8l-3-3v-6l3.5-3.5Z" style="stroke:none"/>
    </g>
    <g stroke="none" style="stroke-linecap:round;fill:#4a4b53;stroke:#4a4b53">
        <path d="M11.5 12 8 15.5v6l3 3v8l-3 3v2l-2 2V41H4.5l-4 4V1Z" style="stroke:none"/>
        <path d="M.5 51v-6l4-4H6v14H4.5Z" style="fill:#bc5452;stroke:none"/>
        <path d="M4.5 55H6v1.5l2 2v2l3 3v8l-3 3v6l7.5 7.5h6l3-3h8l3 3h2l2 2H41v1.5l4 4H.5V51Z" style="stroke:none"/>
        <path d="M1 .5h44l-4 4V6h-1.5l-2 2h-2l-3 3h-8l-3-3h-6L12 11.5Z" style="fill:#989aa4;stroke:none"/>
        <path d="M6 55V41h6v14Z" style="fill:#ea8878;stroke:none"/>
        <path d="M6 56.5V55h6v.5l4 4v3l-2 2v6L25.5 82h6l2-2h3l4 4h.5v6h-1.5l-2-2h-2l-3-3h-8l-3 3h-6L8 80.5v-6l3-3v-8l-3-3v-2Zm4-38 3.5 3.5 4-4-3.5-3.5Z" style="fill:#6e7080;stroke:none"/>
        <path d="m10 77.5 8.5 8.5 3.5-3.5-8.5-8.5Z" style="fill:#6e7080;stroke:none"/>
        <path d="m10 18.5 4-4 3.5 3.5-4 4Zm0 59 3.5-3.5 8.5 8.5-3.5 3.5ZM12 41v-.5l4-4v-3l-2-2v-6l5.5-5.5 6 6-4.5 4.5V44h-2.5l-3-3Z" style="stroke:none"/>
        <path d="M12 55V41h3.5l3 3h3l4 4-4 4h-3l-3 3Z" style="fill:#bc5452;stroke:none"/>
        <path d="M12 55.5V55h3.5l3-3H21v13.5l9.5 9.5H44v2.5l-3 3V84h-.5l-4-4h-3l-2 2h-6L14 70.5v-6l2-2v-3Z" style="stroke:none"/>
        <path d="m14.5 14 3.5 3.5 4-4-3.5-3.5Z" style="fill:#6e7080;stroke:none"/>
        <path d="m14.5 14 4-4 3.5 3.5-4 4Zm5.5 5.5 5.5-5.5h6l2 2h3l4-4h.5v3.5l3 3V21H30.5L26 25.5Z" style="fill:#989aa4;stroke:none"/>
        <path d="M21 65.5V52h6.5l3 3-.5.5-3-3-2 2v9l7.5 7.5h9l2-2-3-3 .5-.5 3 3V75H30.5Z" style="fill:#6e7080;stroke:none"/>
        <path d="M21.5 44h5l.5-.5 4.5 4.5-4 4h-6l4-4Z" style="fill:#ea8878;stroke:none"/>
        <path d="M25 41.5v-9l3.5-3.5 3 3-2.5 2.5v5l2.5 2.5h5l2.5-2.5 3 3-3.5 3.5h-8l-.5.5Zm0 22v-9l2-2 3 3-1 1v5l5.5 5.5h5l1-1 3 3-2 2h-9Z" style="stroke:none"/>
        <path d="m27.5 52 2.5-2.5.5.5h8l7.5 7.5v8l.5.5-2.5 2.5-3-3 1-1v-5L36.5 54h-5l-1 1ZM29 28.5l3.5-3.5h9l5 5-.5.5v8L42.5 42l-3-3 2.5-2.5v-5L39.5 29h-5L32 31.5Z" style="fill:#989aa4;stroke:none"/>
        <path d="M29 39.5v-5l5.5-5.5h5l2.5 2.5v5L36.5 42h-5Zm0 22v-5l2.5-2.5h5l5.5 5.5v5L39.5 67h-5Z" style="fill:#2e2f34;stroke:none"/>
        <path d="m30 46.5.5-.5h8l3.5-3.5-3-3 .5-.5 3 3 3.5-3.5v-8l.5-.5 1.5 1.5 1.5-1.5.5.5v8l7.5 7.5h8l.5.5-1.5 1.5 1.5 1.5-.5.5h-8L54 53.5l3 3-.5.5-3-3-3.5 3.5v8l-.5.5-1.5-1.5-1.5 1.5-.5-.5v-8L38.5 50h-8l-.5-.5 1.5-1.5Z" style="fill:#6e7080;stroke:none"/>
        <path d="M41 6V4.5l4-4h6l4 4V6Z" style="fill:#feb380;stroke:none"/>
        <path d="M41 12V6h14v6Z" style="fill:#ea8878;stroke:none"/>
        <path d="M41 15.5V12h14v3.5l-3 3v3l-4 4-4-4v-3Z" style="fill:#feb380;stroke:none"/>
        <path d="m41.5 48 6.5 6.5 3-3-6.5-6.5Z" style="fill:#6e7080;stroke:none"/>
        <path d="M41 84v-3.5l3-3v-3l4-4 4 4v3l3 3V84Z" style="fill:#bc5452;stroke:none"/>
        <path d="M41 90v-6h14v6Z" style="fill:#ea8878;stroke:none"/>
        <path d="M41 91.5V90h14v1.5l-4 4h-6Z" style="fill:#bc5452;stroke:none"/>
        <path d="m41.5 48 3-3 6.5 6.5-3 3Z" style="stroke:none"/>
        <path d="m48 25.5 4-4v6l-4 4-4.5-4.5.5-.5v-5Z" style="fill:#ea8878;stroke:none"/>
        <path d="m45 44.5 6.5 6.5 3-3-6.5-6.5Z" style="fill:#6e7080;stroke:none"/>
        <path d="M44 74.5v-6l4-4 4.5 4.5-.5.5v5l-4-4Z" style="fill:#ea8878;stroke:none"/>
        <path d="m45 44.5 3-3 6.5 6.5-3 3Z" style="fill:#989aa4;stroke:none"/>
        <path d="M50 38.5v-8l-.5-.5 2.5-2.5 3 3-1 1v5l5.5 5.5h5l1-1 3 3-2.5 2.5-.5-.5h-8ZM49.5 66l.5-.5v-8l3.5-3.5 3 3-2.5 2.5v5l2.5 2.5h5l2.5-2.5 3 3-3.5 3.5h-9Z" style="stroke:none"/>
        <path d="M51 .5h44.5V45l-4-4H90v-1.5l-2-2v-2l-3-3v-8l3-3v-6L80.5 8h-6l-3 3h-8l-3-3h-2l-2-2H55V4.5Z" style="fill:#989aa4;stroke:none"/>
        <path d="M52 21v-2.5l3-3V12h.5l4 4h3l2-2h6L82 25.5v6l-2 2v3l4 4v.5h-3.5l-3 3H75V30.5L65.5 21Z" style="fill:#989aa4;stroke:none"/>
        <path d="m52.5 27 3 3-.5.5-3-3V21h13.5l9.5 9.5V44h-6.5l-3-3 .5-.5 3 3 2-2v-9L63.5 25h-9Zm2 44h9l3.5-3.5-3-3 .5-.5 3 3 3.5-3.5v-9l-2-2 .5-.5H75v13.5L70.5 70l6 6 5.5-5.5v-6l-2-2v-3l4-4V55h6v1.5l-2 2v2l-3 3v8l3 3v6L84.5 84l11 11v.5H95l-11-11-3.5 3.5h-6l-3-3h-8l-3 3h-2l-2 2H55v-6h.5l4-4h3l2 2h6l5.5-5.5-6-6-4.5 4.5H52v-5.5l.5-.5Z" style="fill:#6e7080;stroke:none"/>
        <path d="M52 77.5V75h13.5l4.5-4.5 6 6-5.5 5.5h-6l-2-2h-3l-4 4H55v-3.5Z" style="stroke:none"/>
        <path d="m52.5 27 2-2h9l7.5 7.5v9l-2 2-3-3 1-1v-5L61.5 29h-5l-1 1Z" style="fill:#989aa4;stroke:none"/>
        <path d="M54 36.5v-5l2.5-2.5h5l5.5 5.5v5L64.5 42h-5Z" style="fill:#2e2f34;stroke:none"/>
        <path d="m54 53.5 3.5-3.5h8l.5-.5 5 5v9L67.5 67l-3-3 2.5-2.5v-5L64.5 54h-5L57 56.5Z" style="fill:#989aa4;stroke:none"/>
        <path d="M54 64.5v-5l5.5-5.5h5l2.5 2.5v5L61.5 67h-5Z" style="fill:#2e2f34;stroke:none"/>
        <path d="M55.5 12H55V6h1.5l2 2h2l3 3h8l3-3h6l7.5 7.5v6l-3 3v8l3 3v2l2 2V41h-6v-.5l-4-4v-3l2-2v-6L70.5 14h-6l-2 2h-3Z" style="fill:#6e7080;stroke:none"/>
        <path d="m64.5 48 4-4h6l-4 4 4 4h-5l-.5.5Z" style="fill:#ea8878;stroke:none"/>
        <path d="m70.5 48 4-4h3l3-3H84v14h-3.5l-3-3h-3Z" style="fill:#feb380;stroke:none"/>
        <path d="m70.5 70 4.5-4.5V52h2.5l3 3H84v.5l-4 4v3l2 2v6L76.5 76Z" style="fill:#989aa4;stroke:none"/>
        <path d="M74.5 88h6l3.5-3.5 11 11H51l4-4V90h1.5l2-2h2l3-3h8Z" style="stroke:none"/>
        <path d="m74 13.5 8.5 8.5 3.5-3.5-8.5-8.5Zm0 69 3.5 3.5 4-4-3.5-3.5Z" style="fill:#6e7080;stroke:none"/>
        <path d="m74 13.5 3.5-3.5 8.5 8.5-3.5 3.5Z" style="fill:#989aa4;stroke:none"/>
        <path d="m74 82.5 4-4 3.5 3.5-4 4Z" style="stroke:none"/>
        <path d="m78.5 78 3.5 3.5 4-4-3.5-3.5Z" style="fill:#6e7080;stroke:none"/>
        <path d="m78.5 78 4-4 3.5 3.5-4 4Z" style="fill:#989aa4;stroke:none"/>
        <path d="M84 55V41h6v14Z" style="fill:#ea8878;stroke:none"/>
        <path d="M85 71.5v-8l3-3v-2l2-2V55h1.5l4-4v44l-11-11 3.5-3.5v-6Z" style="fill:#989aa4;stroke:none"/>
        <path d="M90 55V41h1.5l4 4v6l-4 4Z" style="fill:#feb380;stroke:none"/>
    </g>
</svg>
