<svg xmlns="http://www.w3.org/2000/svg" width="32" height="32" style="fill-opacity:1;color-rendering:auto;color-interpolation:auto;text-rendering:auto;stroke:#000;stroke-linecap:square;stroke-miterlimit:10;shape-rendering:auto;stroke-opacity:1;fill:#000;stroke-dasharray:none;font-weight:400;stroke-width:1;font-family:&quot;Dialog&quot;;font-style:normal;stroke-linejoin:miter;font-size:12px;stroke-dashoffset:0;image-rendering:auto">
    <g style="stroke-linecap:round;fill:#989aa4;stroke:#989aa4">
        <path stroke="none" d="M.5 2V.5H2l4 4L4.5 6Z" style="stroke:none"/>
    </g>
    <g stroke="none" style="stroke-linecap:round;fill:#6e7080;stroke:#6e7080">
        <path d="m4.5 6-.5.5v3l3 3v7l-3 3v3L6.5 28h3l3-3h7l3 3h3l.5-.5 4 4H20l-4-4-4 4H.5V20l4-4-4-4V2Z" style="stroke:none"/>
        <path d="m4.5 16-4 4v-8Z" style="fill:#989aa4;stroke:none"/>
        <path d="M2 .5h10l4 4 4-4h11.5V12l-4 4 4 4v10l-4-4 .5-.5v-3l-3-3v-7l3-3v-3L25.5 4h-3l-3 3h-7l-3-3h-3l-.5.5Z" style="fill:#b0bac0;stroke:none"/>
        <path d="M4 9.5v-3l1-1 6 6-2 2v5l4.5 4.5h5l2-2 6 6-1 1h-3l-3-3h-7l-3 3h-3L4 25.5v-3l3-3v-7Z" style="fill:#bc5452;stroke:none"/>
        <path d="m6 6.5-1-1 .5-.5.5.5Z" style="fill:#ea8878;stroke:none"/>
        <path d="m5.5 5 1-1h3l3 3h7l3-3h3L28 6.5v3l-3 3v7l3 3v3l-1 1-6-6 2-2v-5L18.5 9h-5l-2 2Z" style="fill:#feb380;stroke:none"/>
        <path d="m8 8.5-3-3 .5-.5L8 7.5Z" style="fill:#ea8878;stroke:none"/>
        <path d="m10 10.5-5-5 .5-.5L10 9.5Z" style="fill:#ea8878;stroke:none"/>
        <path d="M9 18.5v-5l2-2 2 2-1 1v3l2.5 2.5h3l1-1 2 2-2 2h-5Z" style="fill:#feb380;stroke:none"/>
        <path d="m12 12.5-7-7 .5-.5 6.5 6.5Z" style="fill:#ea8878;stroke:none"/>
        <path d="M12 .5h8l-4 4Z" style="fill:#989aa4;stroke:none"/>
        <path d="m11.5 11 2-2h5l4.5 4.5v5l-2 2-2-2 1-1v-3L17.5 12h-3l-1 1Z" style="fill:#bc5452;stroke:none"/>
        <path d="M20 31.5h-8l4-4Z" style="fill:#989aa4;stroke:none"/>
        <path d="M20 20.5 18.5 19l.5-.5 1 1Z" style="fill:#ea8878;stroke:none"/>
        <path d="M22 22.5 18.5 19l.5-.5 3 3Z" style="fill:#ea8878;stroke:none"/>
        <path d="M24 24.5 18.5 19l.5-.5 5 5Z" style="fill:#ea8878;stroke:none"/>
        <path d="M26 26.5 18.5 19l.5-.5 7 7Z" style="fill:#ea8878;stroke:none"/>
        <path d="m26 27.5 1.5-1.5 4 4v1.5H30ZM27.5 16l4-4v8Z" style="fill:#989aa4;stroke:none"/>
    </g>
</svg>
