<svg xmlns="http://www.w3.org/2000/svg" width="96" height="96" style="fill-opacity:1;color-rendering:auto;color-interpolation:auto;text-rendering:auto;stroke:#000;stroke-linecap:square;stroke-miterlimit:10;shape-rendering:auto;stroke-opacity:1;fill:#000;stroke-dasharray:none;font-weight:400;stroke-width:1;font-family:&quot;Dialog&quot;;font-style:normal;stroke-linejoin:miter;font-size:12px;stroke-dashoffset:0;image-rendering:auto">
    <g style="stroke-linecap:round;fill:#feb380;stroke:#feb380">
        <path stroke="none" d="M55 49.5v-3l2.5-2.5H62v8h-4.5Z" style="stroke:none"/>
    </g>
    <g stroke="none" style="stroke-linecap:round;fill:#ea8878;stroke:#ea8878">
        <path d="M62 52.5v-9l3-3 1 1v13l-1 1Z" style="stroke:none"/>
        <path d="m64 36.5 2.5-2.5h6l10-10 3.5 3.5v2L75.5 40h-8Zm0 23 3.5-3.5h8L86 66.5v2L82.5 72l-10-10h-6Z" style="fill:#bc5452;stroke:none"/>
        <path d="m82.5 24 1-1h4l2.5 2.5v5L88.5 32h-4l-.5-.5 2-2v-2Zm1 49-1-1 3.5-3.5v-2l-2-2 .5-.5h4l1.5 1.5v5L87.5 73Zm4-18-.5-.5v-13l.5-.5H90v14Z" style="stroke:none"/>
        <path d="M87.5 23h2l6-6v11l-4 4h-3l1.5-1.5v-5Zm0 50 2.5-2.5v-5L88.5 64h3l4 4v11l-6-6ZM90 13.5v-3L94.5 6h1v6L92 15.5ZM90 55V41h2.5l3 3v8l-3 3Zm0 30.5v-3l2-2 3.5 3.5v6h-1Z" style="fill:#bc5452;stroke:none"/>
    </g>
</svg>
