<svg xmlns="http://www.w3.org/2000/svg" width="96" height="96" style="fill-opacity:1;color-rendering:auto;color-interpolation:auto;text-rendering:auto;stroke:#000;stroke-linecap:square;stroke-miterlimit:10;shape-rendering:auto;stroke-opacity:1;fill:#000;stroke-dasharray:none;font-weight:400;stroke-width:1;font-family:&quot;Dialog&quot;;font-style:normal;stroke-linejoin:miter;font-size:12px;stroke-dashoffset:0;image-rendering:auto">
    <g style="stroke-linecap:round;fill:#fff;stroke:#fff">
        <path stroke="none" d="M13 52.5v-9l4.5-4.5h4l4.5 4.5v9L21.5 57h-4Z" style="stroke:none"/>
    </g>
    <g style="stroke-linecap:round;fill:#fff;stroke:#fff">
        <path stroke="none" d="M18 29.5v-3l8.5-8.5h3l5.5 5.5v3L26.5 35h-3Zm0 40v-3l5.5-5.5h3l8.5 8.5v3L29.5 78h-3Zm21-48v-4l4.5-4.5h9l4.5 4.5v4L52.5 26h-9Zm0 57v-4l4.5-4.5h9l4.5 4.5v4L52.5 83h-9Zm22-52v-3l5.5-5.5h3l8.5 8.5v3L72.5 35h-3Zm0 46v-3l8.5-8.5h3l5.5 5.5v3L69.5 78h-3Zm9-20v-9l4.5-4.5h4l4.5 4.5v9L78.5 57h-4Z" style="stroke:none"/>
    </g>
</svg>
