<svg xmlns="http://www.w3.org/2000/svg" width="64" height="64" style="fill-opacity:1;color-rendering:auto;color-interpolation:auto;text-rendering:auto;stroke:#000;stroke-linecap:square;stroke-miterlimit:10;shape-rendering:auto;stroke-opacity:1;fill:#000;stroke-dasharray:none;font-weight:400;stroke-width:1;font-family:&quot;Dialog&quot;;font-style:normal;stroke-linejoin:miter;font-size:12px;stroke-dashoffset:0;image-rendering:auto">
    <g style="stroke-linecap:round;fill:#989aa4;stroke:#989aa4">
        <path stroke="none" d="M.5 1V.5H1l5 5-.5.5Z" style="stroke:none"/>
    </g>
    <g stroke="none" style="stroke-linecap:round;fill:#6e7080;stroke:#6e7080">
        <path d="m5.5 6-5 5V1Z" style="stroke:none"/>
        <path d="M.5 19v-8l3-3 .5.5v7Z" style="fill:#9cb664;stroke:none"/>
        <path d="M.5 28v-9l3-3L6 18.5l6-6 5 5-1 1v5l4 4v9l-4 4v5l2.5 2.5h5l4-4h9l4 4h5l1-1 5 5-6 6 2.5 2.5-3 3h-9V60h1.5l2.5-2.5v-2l-8-8-8 8v2l2.5 2.5H28v3.5h-9l-3-3 2.5-2.5L6 45.5 3.5 48l-3-3v-9H4v1.5L6.5 40h3l8-8-8-8h-3L4 26.5V28Z" style="stroke:none"/>
        <path d="M.5 36v-8h4l4 4-4 4Z" style="fill:#989aa4;stroke:none"/>
        <path d="m4.5 49-.5.5v6l-.5.5-3-3v-8Z" style="fill:#9cb664;stroke:none"/>
        <path d="M11 63.5H.5V53Z" style="stroke:none"/>
        <path d="M1 .5h10l-5 5Z" style="fill:#b0bac0;stroke:none"/>
        <path d="M4 15.5v-7L3.5 8 8 3.5l.5.5h7Z" style="fill:#cbd97f;stroke:none"/>
        <path d="M3.5 16 16 3.5 18.5 6l-6 6 5 5 1-1h5l4 4h9l4-4h5l2.5 2.5v5l-4 4v9l4 4v5l-1 1 5 5 6-6 2.5 2.5L48 60.5 45.5 58l6-6-5-5-1 1h-5l-4-4h-9l-4 4h-5L16 45.5v-5l4-4v-9l-4-4v-5l1-1-5-5-6 6Z" style="fill:#989aa4;stroke:none"/>
        <path d="M4.5 28H4v-1.5L6.5 24h3l8 8-8 8h-3L4 37.5V36h.5l4-4Z" style="fill:#9cb664;stroke:none"/>
        <path d="M3.5 48 6 45.5 18.5 58 16 60.5Z" style="fill:#989aa4;stroke:none"/>
        <path d="M15.5 60h-7l-.5.5L3.5 56l.5-.5v-6l.5-.5Z" style="fill:#cbd97f;stroke:none"/>
        <path d="M8.5 4 8 3.5l3-3h8L15.5 4Z" style="fill:#edf3a9;stroke:none"/>
        <path d="m8 60.5.5-.5h7l3.5 3.5h-8Z" style="fill:#9cb664;stroke:none"/>
        <path d="m12.5 12 6-6L16 3.5l3-3h9V4h-1.5L24 6.5v2l8 8 8-8v-2L37.5 4H36V.5h9l3 3L45.5 6 58 18.5l2.5-2.5 3 3v9H60v-1.5L57.5 24h-3l-8 8 8 8h3l2.5-2.5V36h3.5v9l-3 3-2.5-2.5-6 6-5-5 1-1v-5l-4-4v-9l4-4v-5L45.5 16h-5l-4 4h-9l-4-4h-5l-1 1Z" style="fill:#b0bac0;stroke:none"/>
        <path d="M24 28.5v7l4.5 4.5h7l2-2-3-3-1 1h-3L28 33.5v-3l1-1-3-3Z" style="fill:#989aa4;stroke:none"/>
        <path d="M24 8.5v-2L26.5 4H28v.5l4 4 4-4V4h1.5L40 6.5v2l-8 8Z" style="fill:#edf3a9;stroke:none"/>
        <path d="M24 35.5v-7l2-2 3 3-1 1v3l2.5 2.5h3l1-1 3 3-2 2h-7Z" style="stroke:none"/>
        <path d="M24 57.5v-2l8-8 8 8v2L37.5 60H36v-.5l-4-4-4 4v.5h-1.5Z" style="fill:#9cb664;stroke:none"/>
        <path d="m26.5 26 3 3 1-1h3l2.5 2.5v3l-1 1 3 3 2-2v-7L35.5 24h-7Z" style="fill:#989aa4;stroke:none"/>
        <path d="m26.5 26 2-2h7l4.5 4.5v7l-2 2-3-3 1-1v-3L33.5 28h-3l-1 1Z" style="fill:#b0bac0;stroke:none"/>
        <path d="M28 4.5v-4h8v4l-4 4Zm8 55v4h-8v-4l4-4Z" style="fill:#989aa4;stroke:none"/>
        <path d="M45 .5h8l3 3-.5.5h-6l-.5.5Z" style="fill:#edf3a9;stroke:none"/>
        <path d="M45.5 6 48 3.5 60.5 16 58 18.5Z" style="fill:#989aa4;stroke:none"/>
        <path d="m46.5 32 8-8h3l2.5 2.5V28h-.5l-4 4 4 4h.5v1.5L57.5 40h-3Z" style="fill:#edf3a9;stroke:none"/>
        <path d="m49 4.5.5-.5h6l.5-.5L60.5 8l-.5.5v7Zm.5 55.5-.5-.5L59.5 49l.5.5v6l.5.5-4.5 4.5-.5-.5Z" style="fill:#cbd97f;stroke:none"/>
        <path d="M53 63.5h-8l4-4 .5.5h6l.5.5Z" style="fill:#9cb664;stroke:none"/>
        <path d="M53 .5h10.5V11Z" style="fill:#b0bac0;stroke:none"/>
        <path d="m55.5 32 4-4h4v8h-4ZM59 59.5l-1-1 .5-.5.5.5Z" style="fill:#989aa4;stroke:none"/>
        <path d="M63 63.5H53l5-5Z" style="stroke:none"/>
        <path d="m58.5 58 5-5v10Z" style="fill:#b0bac0;stroke:none"/>
        <path d="M63.5 11v8L60 15.5v-7l.5-.5Zm-3 45-.5-.5v-6l-.5-.5 4-4v8Z" style="fill:#edf3a9;stroke:none"/>
        <path d="m61 61.5-3-3 .5-.5 2.5 2.5Z" style="fill:#989aa4;stroke:none"/>
        <path d="m63 63.5-5-5 .5-.5 4.5 4.5Z" style="fill:#989aa4;stroke:none"/>
    </g>
</svg>
