<svg xmlns="http://www.w3.org/2000/svg" width="32" height="32" style="fill-opacity:1;color-rendering:auto;color-interpolation:auto;text-rendering:auto;stroke:#000;stroke-linecap:square;stroke-miterlimit:10;shape-rendering:auto;stroke-opacity:1;fill:#000;stroke-dasharray:none;font-weight:400;stroke-width:1;font-family:&quot;Dialog&quot;;font-style:normal;stroke-linejoin:miter;font-size:12px;stroke-dashoffset:0;image-rendering:auto">
    <g style="stroke-linecap:round;fill:#b0bac0;stroke:#b0bac0">
        <path stroke="none" d="m4.5 12-.5-.5v-3L8.5 4h3l.5.5V9h-.5L9 11.5v.5Z" style="stroke:none"/>
    </g>
    <g stroke="none" style="stroke-linecap:round;fill:#b0bac0;stroke:#b0bac0">
        <path d="M4 23.5v-3l.5-.5H9v.5l2.5 2.5h.5v4.5l-.5.5h-3Z" style="stroke:none"/>
        <path d="M5 20v-8h4v8Z" style="fill:#6e7080;stroke:none"/>
        <path d="M12 9V5h8v4Z" style="fill:#989aa4;stroke:none"/>
        <path d="M12 27v-4h8v4Z" style="fill:#6e7080;stroke:none"/>
        <path d="M20.5 9H20V4.5l.5-.5h3L28 8.5v3l-.5.5H23v-.5Zm0 19-.5-.5V23h.5l2.5-2.5V20h4.5l.5.5v3L23.5 28Z" style="stroke:none"/>
        <path d="M23 20v-8h4v8Z" style="fill:#989aa4;stroke:none"/>
    </g>
</svg>
