<svg xmlns="http://www.w3.org/2000/svg" width="96" height="96" style="fill-opacity:1;color-rendering:auto;color-interpolation:auto;text-rendering:auto;stroke:#000;stroke-linecap:square;stroke-miterlimit:10;shape-rendering:auto;stroke-opacity:1;fill:#000;stroke-dasharray:none;font-weight:400;stroke-width:1;font-family:&quot;Dialog&quot;;font-style:normal;stroke-linejoin:miter;font-size:12px;stroke-dashoffset:0;image-rendering:auto">
    <g style="stroke-linecap:round;fill:#9599a2;stroke:#9599a2">
        <path stroke="none" d="M.5 2V.5H2L12.5 11l3-3H32v1.5l2 2v.5H23.5L18 17.5 28.5 28l-.5.5L17.5 18 12 23.5V34h-.5l-2-2H8V15.5l3-3Z" style="stroke:none"/>
    </g>
    <g stroke="none" style="stroke-linecap:round;fill:#6f717e;stroke:#6f717e">
        <path d="m11 12.5-3 3V32H.5V2Z" style="stroke:none"/>
        <path d="M.5 40v-8H8v32H.5v-8L4 52.5v-9Z" style="fill:#3c3837;stroke:none"/>
        <path d="M4 43.5v9L.5 56V40Z" style="stroke:none"/>
        <path d="M2 .5h30V8H15.5l-3 3Z" style="fill:#b1bac1;stroke:none"/>
        <path d="m8 80.5 7.5 7.5H32v7.5H.5V64H8Z" style="stroke:none"/>
        <path d="M8 43.5V32h1.5l2 2h.5v5.5Z" style="fill:#515151;stroke:none"/>
        <path d="M8 52.5v-9l4-4v17Z" style="fill:#9599a2;stroke:none"/>
        <path d="M12 56.5V62h-.5l-2 2H8V52.5Z" style="fill:#515151;stroke:none"/>
        <path d="M8 80.5V64h1.5l2-2h.5v10.5L23.5 84H34v.5l-2 2V88H15.5Zm3-64v2l1 1 7.5-7.5-1-1h-2Z" style="fill:#9599a2;stroke:none"/>
        <path d="M11 77.5v2l5.5 5.5h2l1-1-7.5-7.5Z" style="fill:#9599a2;stroke:none"/>
        <path d="m12 19.5-1-1v-2l5.5-5.5h2l1 1Zm-1 60v-2l1-1 7.5 7.5-1 1h-2Z" style="fill:#b1bac1;stroke:none"/>
        <path d="M12.5 34H12V23.5l5.5-5.5L28 28.5l-.5.5h-10Z" style="stroke:none"/>
        <path d="M12.5 62H12V34h.5l5-5h10l.5-.5 4 4-.5.5h-11L16 37.5v21l4.5 4.5h11l1.5 1.5v11l4.5 4.5h21l4.5-4.5v-11l.5-.5 4 4-.5.5v10l-5 5v.5H34v-.5l-5-5v-10L27.5 67h-10Z" style="fill:#3c3837;stroke:none"/>
        <path d="M17.5 67h10l1.5 1.5v10l5 5v.5H23.5L12 72.5V62h.5Z" style="stroke:none"/>
        <path d="M16 58.5v-21l4.5-4.5h11l.5-.5 2 2-1 1v2l6 6v9L36.5 55 33 51.5l2-2v-3L30.5 42h-3l-2 2-3-3h-1L19 43.5v9l5.5 5.5H33v2.5l2.5 2.5H38v8.5l5.5 5.5h9l2.5-2.5v-1l-3-3 2-2v-3L49.5 61h-3l-2 2-3.5-3.5 2.5-2.5h9l6 6h2l1-1 2 2-.5.5v11L58.5 80h-21L33 75.5v-11L31.5 63h-11Z" style="stroke:none"/>
        <path d="m18 17.5 5.5-5.5H34v.5l-5 5v10l-.5.5Zm1 35v-9l2.5-2.5h.5v.5l3 3-2 2v3l4.5 4.5h3l2-2 3.5 3.5-2.5 2.5h-9Z" style="fill:#b1bac1;stroke:none"/>
        <path d="m23 42.5-1-1V41h.5l.5.5Z" style="fill:#9599a2;stroke:none"/>
        <path d="M23 49.5v-3l4.5-4.5h3l4.5 4.5v3L30.5 54h-3Z" style="fill:#3c3837;stroke:none"/>
        <path d="m25.5 44-.5.5-3-3V41h.5Z" style="fill:#9599a2;stroke:none"/>
        <path d="m29 29.5-1-1 .5-.5.5.5Z" style="fill:#515151;stroke:none"/>
        <path d="m28.5 28 .5-.5v-10l5-5V12h28v.5l5 5v10l1.5 1.5h10l5 5h.5v28h-.5l-5 5h-10l-.5.5-4-4 .5-.5h11l4.5-4.5v-21L75.5 33h-11L63 31.5v-11L58.5 16h-21L33 20.5v11l-.5.5Z" style="fill:#646567;stroke:none"/>
        <path d="m31 31.5-3-3 .5-.5 2.5 2.5Z" style="fill:#515151;stroke:none"/>
        <path d="M32 8V.5h8L43.5 4h9L56 .5h8V8Z" style="fill:#646567;stroke:none"/>
        <path d="M32 9.5V8h11.5l-4 4H34v-.5Z" style="fill:#515151;stroke:none"/>
        <path d="m33 33.5-1-1 .5-.5.5.5Z" style="fill:#9599a2;stroke:none"/>
        <path d="M32 88v-1.5l2-2V84h5.5l4 4Z" style="fill:#515151;stroke:none"/>
        <path d="m32.5 32 .5-.5v-11l4.5-4.5h21l4.5 4.5v11l1.5 1.5h11l4.5 4.5v21L75.5 63h-11l-.5.5-2-2 1-1v-2l-6-6v-9l2.5-2.5 3.5 3.5-2 2v3l4.5 4.5h3l2-2 3 3h1l2.5-2.5v-9L71.5 38H63v-2.5L60.5 33H58v-8.5L52.5 19h-9L41 21.5v1l3 3-2 2v3l4.5 4.5h3l2-2 3.5 3.5-2.5 2.5h-9l-6-6h-2l-1 1Z" style="fill:#b1bac1;stroke:none"/>
        <path d="M33 37.5v-2l1-1-2-2 .5-.5 2 2 1-1h2l5.5 5.5-2 2 3.5 3.5-.5.5-3.5-3.5-2 2Zm1 16L32.5 52l.5-.5 1 1Z" style="fill:#9599a2;stroke:none"/>
        <path d="M33 60.5V58h.5l2.5-2.5-3.5-3.5.5-.5 3.5 3.5 2-2 4.5 4.5-2 2 3.5 3.5-.5.5-3.5-3.5-2.5 2.5v.5h-2.5Z" style="fill:#9599a2;stroke:none"/>
        <path d="M38 71.5v-9l2.5-2.5 3.5 3.5-2 2v3l4.5 4.5h3l2-2 3 3h.5v.5L52.5 77h-9Zm.5-18.5.5-.5v-9l-.5-.5 2-2 3.5 3.5-1 1v5l2.5 2.5h5l1-1 3.5 3.5-2 2-.5-.5h-9l-.5.5Z" style="fill:#b1bac1;stroke:none"/>
        <path d="M40 95.5h-8V88h32v7.5h-8L52.5 92h-9Z" style="fill:#3c3837;stroke:none"/>
        <path d="M40 .5h16L52.5 4h-9Z" style="fill:#b1bac1;stroke:none"/>
        <path d="m39.5 12 4-4h9l4 4Zm0 72h17l-4 4h-9Z" style="fill:#9599a2;stroke:none"/>
        <path d="M41.5 22H41v-.5l2.5-2.5h9l5.5 5.5v9L55.5 36 52 32.5l2-2v-3L49.5 23h-3l-2 2Z" style="stroke:none"/>
        <path d="m42 23.5-1-1V22h.5l.5.5Z" style="fill:#9599a2;stroke:none"/>
        <path d="m41 40.5 2-2 .5.5h9l.5-.5 4.5 4.5-.5.5v9l.5.5-2 2-3.5-3.5 1-1v-5L50.5 43h-5l-1 1Z" style="stroke:none"/>
        <path d="M42 30.5v-3l4.5-4.5h3l4.5 4.5v3L49.5 35h-3Zm0 38v-3l4.5-4.5h3l4.5 4.5v3L49.5 73h-3Z" style="fill:#3c3837;stroke:none"/>
        <path d="m44.5 25-.5.5-3-3V22h.5Z" style="fill:#9599a2;stroke:none"/>
        <path d="M43 50.5v-5l2.5-2.5h5l2.5 2.5v5L50.5 53h-5Z" style="fill:#3c3837;stroke:none"/>
        <path d="M53 34.5 51.5 33l.5-.5 1 1Zm0 19L51.5 52l.5-.5 1 1Zm0 19L51.5 71l.5-.5 1 1Z" style="fill:#9599a2;stroke:none"/>
        <path d="M56 95.5H40l3.5-3.5h9Z" style="stroke:none"/>
        <path d="M52.5 8H64v1.5l-2 2v.5h-5.5Z" style="fill:#515151;stroke:none"/>
        <path d="m53 38.5 2-2-3.5-3.5.5-.5 3.5 3.5 2.5-2.5V33h2.5l2.5 2.5V38h-.5L60 40.5l3.5 3.5-.5.5-3.5-3.5-2 2Zm0 19 2-2-3.5-3.5.5-.5 3.5 3.5 2-2 5.5 5.5v2l-1 1 2.5 2.5-.5.5-2.5-2.5-1 1h-2Z" style="fill:#9599a2;stroke:none"/>
        <path d="m52.5 88 4-4H62v.5l2 2V88Z" style="fill:#515151;stroke:none"/>
        <path d="M55 74h-.5l-3-3 .5-.5 3 3Z" style="fill:#9599a2;stroke:none"/>
        <path d="m60 40.5 2.5-2.5h9l5.5 5.5v9L74.5 55H74v-.5l-3-3 2-2v-3L68.5 42h-3l-2 2Z" style="stroke:none"/>
        <path d="M61 49.5v-3l4.5-4.5h3l4.5 4.5v3L68.5 54h-3Z" style="fill:#3c3837;stroke:none"/>
        <path d="M62 12v-.5l2-2V8h16.5l7.5 7.5V32h-1.5l-2 2H84V23.5L72.5 12Z" style="fill:#9599a2;stroke:none"/>
        <path d="M62 12.5V12h10.5L84 23.5V34h-.5l-5-5h-10L67 27.5v-10Z" style="fill:#b1bac1;stroke:none"/>
        <path d="M62 84v-.5l5-5v-10l.5-.5L78 78.5 72.5 84Z" style="stroke:none"/>
        <path d="M62 84.5V84h10.5l5.5-5.5-10-10 .5-.5 10 10 5.5-5.5V62h.5l2 2H88v16.5l-3 3L95.5 94v1.5H94L83.5 85l-3 3H64v-1.5Z" style="fill:#9599a2;stroke:none"/>
        <path d="M64 8V.5h31.5V32H88V15.5L80.5 8Z" style="fill:#b1bac1;stroke:none"/>
        <path d="m65 65.5-1-1 .5-.5.5.5Z" style="fill:#515151;stroke:none"/>
        <path d="m67 67.5-3-3 .5-.5 2.5 2.5Z" style="fill:#515151;stroke:none"/>
        <path d="m68 67.5.5-.5h10l5-5h.5v10.5L78.5 78Z" style="fill:#b1bac1;stroke:none"/>
        <path d="M72 53.5 70.5 52l.5-.5 1 1Z" style="fill:#9599a2;stroke:none"/>
        <path d="M74 55h-.5l-3-3 .5-.5 3 3Zm2.5-43 7.5 7.5 1-1v-2L79.5 11h-2Zm0 72 1 1h2l5.5-5.5v-2l-1-1Z" style="fill:#9599a2;stroke:none"/>
        <path d="m76.5 12 1-1h2l5.5 5.5v2l-1 1Zm1 73-1-1 7.5-7.5 1 1v2L79.5 85Z" style="fill:#b1bac1;stroke:none"/>
        <path d="M94 95.5H64V88h16.5l3-3Z" style="stroke:none"/>
        <path d="M84 39.5V34h.5l2-2H88v11.5Z" style="fill:#515151;stroke:none"/>
        <path d="M88 43.5v9l-4 4v-17Z" style="fill:#9599a2;stroke:none"/>
        <path d="M84.5 62H84v-5.5l4-4V64h-1.5Z" style="fill:#515151;stroke:none"/>
        <path d="m85 83.5 3-3V64h7.5v30Z" style="fill:#b1bac1;stroke:none"/>
        <path d="M88 64V32h7.5v8L92 43.5v9l3.5 3.5v8Z" style="fill:#646567;stroke:none"/>
        <path d="M92 52.5v-9l3.5-3.5v16Z" style="fill:#b1bac1;stroke:none"/>
    </g>
</svg>
