<svg xmlns="http://www.w3.org/2000/svg" width="96" height="96" style="fill-opacity:1;color-rendering:auto;color-interpolation:auto;text-rendering:auto;stroke:#000;stroke-linecap:square;stroke-miterlimit:10;shape-rendering:auto;stroke-opacity:1;fill:#000;stroke-dasharray:none;font-weight:400;stroke-width:1;font-family:&quot;Dialog&quot;;font-style:normal;stroke-linejoin:miter;font-size:12px;stroke-dashoffset:0;image-rendering:auto">
    <g style="stroke-linecap:round;fill:#ffef99;stroke:#ffef99">
        <path stroke="none" d="M22 51.5v-7l3.5-3.5h7l3.5 3.5v7L32.5 55h-7Z" style="stroke:none"/>
    </g>
    <g stroke="none" style="stroke-linecap:round;fill:#ffef99;stroke:#ffef99">
        <path d="M25 46.5v3l2.5 2.5h3l2.5-2.5v-3L30.5 44h-3Z" style="stroke:none"/>
        <path d="M25 49.5v-3l2.5-2.5h3l2.5 2.5v3L30.5 52h-3Z" style="fill:#fff;stroke:none"/>
        <path d="M41 32.5v-7l3.5-3.5h7l3.5 3.5v7L51.5 36h-7Zm0 38v-7l3.5-3.5h7l3.5 3.5v7L51.5 74h-7Z" style="stroke:none"/>
        <path d="M44 27.5v3l2.5 2.5h3l2.5-2.5v-3L49.5 25h-3Zm0 38v3l2.5 2.5h3l2.5-2.5v-3L49.5 63h-3Z" style="stroke:none"/>
        <path d="M44 30.5v-3l2.5-2.5h3l2.5 2.5v3L49.5 33h-3Zm0 38v-3l2.5-2.5h3l2.5 2.5v3L49.5 71h-3Z" style="fill:#fff;stroke:none"/>
        <path d="M60 51.5v-7l3.5-3.5h7l3.5 3.5v7L70.5 55h-7Z" style="stroke:none"/>
        <path d="M63 46.5v3l2.5 2.5h3l2.5-2.5v-3L68.5 44h-3Z" style="stroke:none"/>
        <path d="M63 49.5v-3l2.5-2.5h3l2.5 2.5v3L68.5 52h-3Z" style="fill:#fff;stroke:none"/>
    </g>
</svg>
