<svg xmlns="http://www.w3.org/2000/svg" width="96" height="96" style="fill-opacity:1;color-rendering:auto;color-interpolation:auto;text-rendering:auto;stroke:#000;stroke-linecap:square;stroke-miterlimit:10;shape-rendering:auto;stroke-opacity:1;fill:#000;stroke-dasharray:none;font-weight:400;stroke-width:1;font-family:&quot;Dialog&quot;;font-style:normal;stroke-linejoin:miter;font-size:12px;stroke-dashoffset:0;image-rendering:auto">
    <g style="stroke-linecap:round;fill:#4a4b53;stroke:#4a4b53">
        <path stroke="none" d="M.5 21V9l4-4 6.5 6.5-7 7v5l-.5.5Z" style="stroke:none"/>
    </g>
    <g stroke="none" style="stroke-linecap:round;fill:#3c3837;stroke:#3c3837">
        <path d="m8.5 29-.5.5v11l-.5.5-7-7V21Z" style="stroke:none"/>
        <path d="M7.5 41 3 45.5v5L7.5 55l-7 7V34Z" style="fill:#4a4b53;stroke:none"/>
        <path d="M.5 75V62l7-7 .5.5v11l.5.5Z" style="stroke:none"/>
        <path d="M.5 87V75l3-3 .5.5v5L18.5 92h5l.5.5-3 3H9Z" style="fill:#4a4b53;stroke:none"/>
        <path d="M3 50.5v-5L7.5 41l2.5 2.5v9L7.5 55ZM3.5 24l.5-.5v-5l7-7L4.5 5l.5-.5 6.5 6.5 7-7h5l.5-.5 8 8V14h-3.5l-6-6h-2l-4 4 6 6-2 2 12 12-.5.5-12-12-2 2-6-6-4 4v2l6 6V32h-2.5ZM4 77.5v-5l-.5-.5 8-8H14v3.5l-6 6v2l4 4 6-6 4.5 4.5-6 6 4 4h2l6-6H32v2.5l-8 8-.5-.5h-5Z" style="fill:#6e7080;stroke:none"/>
        <path d="m5 4.5 4-4h12l3 3-.5.5h-5l-7 7Z" style="fill:#989aa4;stroke:none"/>
        <path d="M8 22.5v-2l4-4 6 6 2-2 6.5 6.5-2 2-4-4h-2L16 27.5v2l4.5 4.5-.5.5v2l-.5.5-5-5H14v-3.5Z" style="fill:#4a4b53;stroke:none"/>
        <path d="M11.5 32H14v5.5l-4 4v2L7.5 41l.5-.5v-11l.5-.5Zm-3 35-.5-.5v-11l-.5-.5 2.5-2.5v2l4 4V64h-2.5Z" style="fill:#515151;stroke:none"/>
        <path d="M8 75.5v-2l6-6V64h.5l5-5 .5.5v3l-4 4v2l2.5 2.5h2l4-4 4.5 4.5-4 4v2l2.5 2.5h2l4.5-4.5.5.5h2l.5.5-5 5v.5h-3.5l-6 6h-2l-4-4 6-6-4.5-4.5-6 6Z" style="fill:#4a4b53;stroke:none"/>
        <path d="M10 44.5v-3l4-4V32h.5l5 5-.5.5v2l-3 3v11l3 3v2l.5.5-5 5H14v-5.5l-4-4v-3l3.5-3.5Z" style="stroke:none"/>
        <path d="M13.5 48 10 51.5v-7Z" style="fill:#4a4b53;stroke:none"/>
        <path d="M16 29.5v-2l2.5-2.5h2l4 4-4.5 4.5Z" style="fill:#bc5452;stroke:none"/>
        <path d="M16 53.5v-11l3-3v-2l.5-.5 5.5 5.5-3 3v5l3 3-5.5 5.5-.5-.5v-2Z" style="fill:#646567;stroke:none"/>
        <path d="M16 68.5v-2l4-4 4.5 4.5-4 4h-2Z" style="fill:#bc5452;stroke:none"/>
        <path d="m16.5 12 4-4h2l6 6H32v.5l5 5-.5.5h-2l-.5.5-4.5-4.5h-2L25 18.5v2l4 4-2 2-6.5-6.5 2-2Z" style="fill:#989aa4;stroke:none"/>
        <path d="m20 33.5 4.5-4.5 2.5 2.5-4.5 4.5Z" style="fill:#feb380;stroke:none"/>
        <path d="m22.5 36 4.5-4.5-2.5-2.5 2-2 5.5 5.5-7 7v3L19.5 37l.5-.5v-2l.5-.5ZM20 62.5v-3l-.5-.5 5.5-5.5v3L39.5 71h3L37 76.5l-.5-.5h-2l-.5-.5 2-2-4.5-4.5-2.5 2.5-4.5-4.5 2.5-2.5-4.5-4.5Z" style="fill:#989aa4;stroke:none"/>
        <path d="m20 62.5 2.5-2.5 4.5 4.5-2.5 2.5Z" style="fill:#feb380;stroke:none"/>
        <path d="M21 .5h13l7 7-.5.5h-11l-.5.5Z" style="fill:#646567;stroke:none"/>
        <path d="M25 20.5v-2l2.5-2.5h2l4 4-4.5 4.5Z" style="fill:#feb380;stroke:none"/>
        <path d="M25 77.5v-2l4-4 4.5 4.5-4 4h-2Z" style="fill:#bc5452;stroke:none"/>
        <path d="m27 26.5 2-2 2.5 2.5 4.5-4.5-2-2 .5-.5h2l.5-.5 5.5 5.5h-3l-7 7Z" style="fill:#4a4b53;stroke:none"/>
        <path d="m29 8.5.5-.5h11l.5-.5 2.5 2.5h-2l-4 4H32v-2.5Z" style="fill:#515151;stroke:none"/>
        <path d="m29 24.5 4.5-4.5 2.5 2.5-4.5 4.5Z" style="fill:#bc5452;stroke:none"/>
        <path d="m29 71.5 2.5-2.5 4.5 4.5-2.5 2.5Z" style="fill:#feb380;stroke:none"/>
        <path d="m29.5 88-.5-.5 3-3V82h5.5l4 4h2L41 88.5l-.5-.5Z" style="fill:#515151;stroke:none"/>
        <path d="m30 41.5 2.5-2.5 3 3-2.5 2.5Z" style="fill:#fff;stroke:none"/>
        <path d="M32 14.5V14h5.5l4-4h3l3.5 3.5 3.5-3.5h3l4 4H64v.5l-5 5-.5-.5h-2l-3-3h-11l-3 3h-2l-.5.5Z" style="fill:#646567;stroke:none"/>
        <path d="M32 82v-.5l5-5 .5.5h2l3 3h11l3-3h2l.5-.5 5 5v.5h-5.5l-4 4h-3L48 82.5 44.5 86h-3l-4-4Zm2 13.5H21l8-8 .5.5h11l.5.5Z" style="stroke:none"/>
        <path d="M34 .5h28l-7 7L50.5 3h-5L41 7.5Z" style="fill:#989aa4;stroke:none"/>
        <path d="m34.5 37 8-8h11L67 42.5v11l-8 8-3-3 7-7v-7L51.5 33h-7l-7 7Z" style="fill:#fff;stroke:none"/>
        <path d="m37 19.5.5-.5h2l3-3h11l3 3h2l.5.5-5.5 5.5-3-3h-5l-3 3Z" style="stroke:none"/>
        <path d="m37.5 77-.5-.5 5.5-5.5 3 3h5l3-3 5.5 5.5-.5.5h-2l-3 3h-11l-3-3Z" style="fill:#646567;stroke:none"/>
        <path d="M41 7.5 45.5 3h5L55 7.5 52.5 10h-9Zm0 81 2.5-2.5h9l2.5 2.5-4.5 4.5h-5Z" style="fill:#6e7080;stroke:none"/>
        <path d="M45.5 93h5l4.5-4.5 7 7H34l7-7Z" style="fill:#4a4b53;stroke:none"/>
        <path d="M44.5 10h7L48 13.5Z" style="fill:#989aa4;stroke:none"/>
        <path d="m45 41.5 3.5-3.5h2l7.5 7.5v2L54.5 51Z" style="fill:#fff;stroke:none"/>
        <path d="m44.5 86 3.5-3.5 3.5 3.5Z" style="fill:#4a4b53;stroke:none"/>
        <path d="m51.5 63 2.5-2.5 3 3-2.5 2.5Z" style="fill:#fff;stroke:none"/>
        <path d="M52.5 10 55 7.5l.5.5h11l.5.5-3 3V14h-5.5l-4-4Zm0 76h2l4-4H64v2.5l3 3-.5.5h-11l-.5.5Z" style="fill:#515151;stroke:none"/>
        <path d="m53.5 25 5.5-5.5.5.5h3L60 22.5l4.5 4.5 2.5-2.5 4.5 4.5-2.5 2.5 4.5 4.5 2-2 .5.5v2l.5.5-5.5 5.5v-3L56.5 25Z" style="fill:#4a4b53;stroke:none"/>
        <path d="M53.5 71h3l7-7 5.5 5.5-2 2-2.5-2.5-4.5 4.5 2.5 2.5h-3l-.5.5Z" style="fill:#989aa4;stroke:none"/>
        <path d="m55.5 8-.5-.5 7-7h13l-8 8-.5-.5Z" style="fill:#646567;stroke:none"/>
        <path d="m55 88.5.5-.5h11l.5-.5 8 8H62Z" style="stroke:none"/>
        <path d="m59.5 20-.5-.5 5-5V14h3.5l6-6h2l4 4-6 6 4.5 4.5 6-6 4 4v2l-6 6V32h-.5l-5 5-.5-.5v-2l-.5-.5 4.5-4.5v-2L77.5 25h-2l-4 4-4.5-4.5 4-4v-2L68.5 16h-2l-4 4Z" style="fill:#989aa4;stroke:none"/>
        <path d="m59 76.5.5-.5h3l4 4h2l2.5-2.5v-2l-4-4 2-2 6.5 6.5-2 2 6 6-4 4h-2l-6-6H64v-.5Z" style="fill:#4a4b53;stroke:none"/>
        <path d="m60 22.5 2.5-2.5 4.5 4.5-2.5 2.5Z" style="fill:#bc5452;stroke:none"/>
        <path d="m60 73.5 4.5-4.5 2.5 2.5-4.5 4.5ZM62.5 20l4-4h2l2.5 2.5v2l-4 4Z" style="fill:#feb380;stroke:none"/>
        <path d="m62.5 76 4.5-4.5 4 4v2L68.5 80h-2Z" style="fill:#bc5452;stroke:none"/>
        <path d="M64 14v-2.5l8-8 .5.5h5L92 18.5v5l.5.5-8 8H82v-3.5l6-6v-2l-4-4-6 6-4.5-4.5 6-6-4-4h-2l-6 6Z" style="fill:#6e7080;stroke:none"/>
        <path d="m64 63.5 7-7v-3l5.5 5.5-.5.5v3L73.5 60 69 64.5l2.5 2.5-2 2Z" style="fill:#4a4b53;stroke:none"/>
        <path d="M65 65.5 63.5 64l.5-.5 1 1Z" style="fill:#6e7080;stroke:none"/>
        <path d="M64 84.5V82h3.5l6 6h2l4-4-6-6 2-2-12-12 .5-.5 12 12 2-2 6 6 4-4v-2l-6-6V64h2.5l8 8-.5.5v5l-7 7 6.5 6.5-.5.5-6.5-6.5-7 7h-5l-.5.5Z" style="fill:#6e7080;stroke:none"/>
        <path d="m69 31.5 2.5-2.5 4.5 4.5-2.5 2.5Zm0 33 4.5-4.5 2.5 2.5-4.5 4.5Z" style="fill:#bc5452;stroke:none"/>
        <path d="m69.5 69 2-2 4 4h2l2.5-2.5v-2l-4-4v-3l.5-.5 5 5h.5v3.5l6 6v2l-4 4-6-6-2 2Z" style="fill:#989aa4;stroke:none"/>
        <path d="m71 42.5 5.5-5.5.5.5v2l3 3v11l-3 3v2l-.5.5-5.5-5.5 3-3v-5Z" style="stroke:none"/>
        <path d="m72.5 4-.5-.5 3-3h12L95.5 9v12l-3 3-.5-.5v-5L77.5 4Z" style="fill:#989aa4;stroke:none"/>
        <path d="m71.5 29 4-4h2l2.5 2.5v2l-4 4Zm0 38 4.5-4.5 4 4v2L77.5 71h-2Z" style="fill:#feb380;stroke:none"/>
        <path d="m72 92.5.5-.5h5l7-7 6.5 6.5-4 4H75Z" style="fill:#4a4b53;stroke:none"/>
        <path d="M77 39.5v-2l-.5-.5 5-5h.5v5.5l4 4v3L82.5 48l3.5 3.5v3l-4 4V64h-.5l-5-5 .5-.5v-2l3-3v-11Z" style="fill:#646567;stroke:none"/>
        <path d="M82 37.5V32h2.5l3-3 .5.5v11l.5.5-2.5 2.5v-2ZM82 64v-5.5l4-4v-2l2.5 2.5-.5.5v11l-.5.5-3-3Z" style="fill:#515151;stroke:none"/>
        <path d="m82.5 48 3.5-3.5v7ZM85 84.5l7-7v-5l.5-.5 3 3v12l-4 4Z" style="fill:#989aa4;stroke:none"/>
        <path d="M86 52.5v-9l2.5-2.5 4.5 4.5v5L88.5 55Z" style="fill:#6e7080;stroke:none"/>
        <path d="m88.5 41-.5-.5v-11l-.5-.5 8-8v13Zm7 21v13l-8-8 .5-.5v-11l.5-.5Z" style="fill:#646567;stroke:none"/>
        <path d="m88.5 41 7-7v28l-7-7 4.5-4.5v-5Z" style="fill:#989aa4;stroke:none"/>
    </g>
</svg>
