<svg xmlns="http://www.w3.org/2000/svg" width="32" height="32" style="fill-opacity:1;color-rendering:auto;color-interpolation:auto;text-rendering:auto;stroke:#000;stroke-linecap:square;stroke-miterlimit:10;shape-rendering:auto;stroke-opacity:1;fill:#000;stroke-dasharray:none;font-weight:400;stroke-width:1;font-family:&quot;Dialog&quot;;font-style:normal;stroke-linejoin:miter;font-size:12px;stroke-dashoffset:0;image-rendering:auto">
    <g style="stroke-linecap:round;fill:#6e7080;stroke:#6e7080">
        <path stroke="none" d="M.5 1V.5H1l5 5L8.5 3H10v1.5l1 1L8.5 8l5 5-.5.5-5-5L5.5 11l-1-1H3V8.5L5.5 6Z" style="stroke:none"/>
    </g>
    <g stroke="none" style="stroke-linecap:round;fill:#4a4b53;stroke:#4a4b53">
        <path d="M5.5 6 3 8.5V10H.5V1Z" style="stroke:none"/>
        <path d="M.5 13v-3h4L9 14.5v3L4.5 22h-4v-3l3-3Z" style="fill:#bc5452;stroke:none"/>
        <path d="m3.5 16-3 3v-6Z" style="stroke:none"/>
        <path d="M1 .5h9V3H8.5L6 5.5Z" style="fill:#989aa4;stroke:none"/>
        <path d="M3 23.5 8.5 29H10v2.5H.5V22H3Z" style="stroke:none"/>
        <path d="M3 23.5V22h1.5l1-1 5.5 5.5-1 1V29H8.5Z" style="fill:#6e7080;stroke:none"/>
        <path d="M5.5 11 8 8.5l3 3L8.5 14Zm0 10 3-3 5.5 5.5-3 3Z" style="stroke:none"/>
        <path d="M8.5 8 11 5.5l3 3-2.5 2.5Zm0 10 .5-.5v-3l-.5-.5 2.5-2.5 2 2-1 1v3l2.5 2.5h3l1-1 2 2-2.5 2.5-.5-.5h-3l-.5.5Z" style="fill:#989aa4;stroke:none"/>
        <path d="M10 4.5v-4h3l3 3 3-3h3v4L17.5 9h-3Z" style="fill:#feb380;stroke:none"/>
        <path d="M11.5 11 14 8.5l.5.5h3l.5-.5 5.5 5.5-.5.5v3l.5.5-2.5 2.5-2-2 1-1v-3L17.5 12h-3l-1 1Z" style="stroke:none"/>
        <path d="M12 17.5v-3l2.5-2.5h3l2.5 2.5v3L17.5 20h-3Z" style="fill:#2e2f34;stroke:none"/>
        <path d="M13 31.5h-3v-4l4.5-4.5h3l4.5 4.5v4h-3l-3-3Z" style="fill:#bc5452;stroke:none"/>
        <path d="M13 .5h6l-3 3Z" style="fill:#989aa4;stroke:none"/>
        <path d="M19 31.5h-6l3-3Z" style="stroke:none"/>
        <path d="m18 8.5 3-3 5.5 5.5-3 3Z" style="fill:#989aa4;stroke:none"/>
        <path d="m18 23.5 2.5-2.5 3 3-2.5 2.5Z" style="stroke:none"/>
        <path d="M20 20.5 18.5 19l.5-.5 1 1Zm1-15 1-1V3h1.5L29 8.5V10h-1.5l-1 1Z" style="fill:#6e7080;stroke:none"/>
        <path d="m21 20.5 2.5-2.5 3 3-2.5 2.5Z" style="fill:#989aa4;stroke:none"/>
        <path d="M22 22.5 18.5 19l.5-.5 3 3Z" style="fill:#6e7080;stroke:none"/>
        <path d="m21 26.5 2.5-2.5-5-5 .5-.5 5 5 2.5-2.5 1 1H29v1.5L26.5 26l5 5v.5H31l-5-5-2.5 2.5H22v-1.5Z" style="fill:#6e7080;stroke:none"/>
        <path d="M22 3V.5h9.5V10H29V8.5L23.5 3Z" style="fill:#989aa4;stroke:none"/>
        <path d="M23 17.5v-3l4.5-4.5h4v3l-3 3 3 3v3h-4Z" style="fill:#feb380;stroke:none"/>
        <path d="M31 31.5h-9V29h1.5l2.5-2.5Z" style="stroke:none"/>
        <path d="m26.5 26 2.5-2.5V22h2.5v9Zm2-10 3-3v6Z" style="fill:#989aa4;stroke:none"/>
    </g>
</svg>
