<svg xmlns="http://www.w3.org/2000/svg" width="96" height="96" style="fill-opacity:1;color-rendering:auto;color-interpolation:auto;text-rendering:auto;stroke:#000;stroke-linecap:square;stroke-miterlimit:10;shape-rendering:auto;stroke-opacity:1;fill:#000;stroke-dasharray:none;font-weight:400;stroke-width:1;font-family:&quot;Dialog&quot;;font-style:normal;stroke-linejoin:miter;font-size:12px;stroke-dashoffset:0;image-rendering:auto">
    <g style="stroke-linecap:round;fill:#fff;stroke:#fff">
        <path stroke="none" d="M4 54.5v-13l8-8 5 5v3l-3 3v7l3 3v3l-5 5Z" style="stroke:none"/>
    </g>
    <g style="stroke-linecap:round;fill:#fff;stroke:#fff">
        <path stroke="none" d="m33.5 12 8-8h13l8 8-5 5h-3l-3-3h-7l-3 3h-3Zm0 72 5-5h3l3 3h7l3-3h3l5 5-8 8h-13ZM79 41.5v-3l5-5 8 8v13l-8 8-5-5v-3l3-3v-7Z" style="stroke:none"/>
    </g>
</svg>
