<svg xmlns="http://www.w3.org/2000/svg" width="96" height="96" style="fill-opacity:1;color-rendering:auto;color-interpolation:auto;text-rendering:auto;stroke:#000;stroke-linecap:square;stroke-miterlimit:10;shape-rendering:auto;stroke-opacity:1;fill:#000;stroke-dasharray:none;font-weight:400;stroke-width:1;font-family:&quot;Dialog&quot;;font-style:normal;stroke-linejoin:miter;font-size:12px;stroke-dashoffset:0;image-rendering:auto">
    <g style="stroke-linecap:round;fill:#4a4b53;stroke:#4a4b53">
        <path stroke="none" d="M.5 21V8L4 4.5l7 7L1.5 21Z" style="stroke:none"/>
    </g>
    <g stroke="none" style="stroke-linecap:round;fill:#bc5452;stroke:#bc5452">
        <path d="M.5 29v-8h1l3-3L9 22.5v3L5.5 29Z" style="stroke:none"/>
        <path d="M.5 45V29h5L9 25.5v2l2.5 2.5h3l4.5-4.5-4.5-4.5 3-3L29 29.5 25.5 33h-5l-2 2h-7L5 41.5V43H2.5Z" style="fill:#4a4b53;stroke:none"/>
        <path d="M.5 51v-6l2-2H5v10H2.5Z" style="stroke:none"/>
        <path d="M2.5 53H5v1.5l6.5 6.5h7l2 2h5l7.5 7.5v5l2 2v7l6.5 6.5H43v2.5l2 2H29v-5L25.5 87h2l2.5-2.5v-3L25.5 77 21 81.5 14.5 75l4.5-4.5-4.5-4.5h-3L9 68.5v2L5.5 67h-5V51Z" style="fill:#4a4b53;stroke:none"/>
        <path d="M.5 75v-8h5L9 70.5v3L4.5 78l-3-3Z" style="stroke:none"/>
        <path d="M.5 88V75h1L21 94.5v1H8Z" style="fill:#4a4b53;stroke:none"/>
        <path d="m5 5.5-1-1 .5-.5.5.5Z" style="fill:#6e7080;stroke:none"/>
        <path d="M4.5 4 8 .5h13v1L11.5 11Z" style="fill:#989aa4;stroke:none"/>
        <path d="M4.5 18 8 14.5l4 4v4l-3 3v-3Zm0 60L9 73.5v-3l3 3v4l-4 4Z" style="fill:#ea8878;stroke:none"/>
        <path d="m7 7.5-3-3 .5-.5L7 6.5Z" style="fill:#6e7080;stroke:none"/>
        <path d="m9 9.5-5-5 .5-.5L9 8.5Z" style="fill:#6e7080;stroke:none"/>
        <path d="m8 14.5 3-3-7-7 .5-.5 7 7 3-3 4 4h4l3-3h2l2.5 2.5v3L25.5 19 21 14.5l-3 3 17 17 2-2 3.5 3.5h2l2.5-2.5V33h6v.5l2.5 2.5h2l3.5-3.5 4.5 4.5-3.5 3.5v2l2.5 2.5h.5v6h-.5L60 53.5v2l3.5 3.5-2 2 17 17 3-3-4.5-4.5 4.5-4.5h3l2.5 2.5v2l-3 3v4l4 4-3 3 7 7-.5.5-7-7-3 3-4-4h-4l-3 3h-2L66 84.5v-3l4.5-4.5 4.5 4.5 3-3-17-17-2 2-3.5-3.5h-2L51 62.5v.5h-6v-.5L42.5 60h-2L37 63.5 32.5 59l3.5-3.5v-2L33.5 51H33v-6h.5l2.5-2.5v-2L32.5 37l2-2-17-17-3 3 4.5 4.5-4.5 4.5h-3L9 27.5v-2l3-3v-4Zm0 67 4-4v-4l-3-3v-2l2.5-2.5h3l4.5 4.5-4.5 4.5 6.5 6.5 4.5-4.5 4.5 4.5v3L27.5 87h-2l-3-3h-4l-4 4Z" style="fill:#6e7080;stroke:none"/>
        <path d="M12.5 35h6l2-2H25v4.5l3 3V42h-7.5l-3 3H13v-.5l3-3v-3Z" style="stroke:none"/>
        <path d="M13 51v-6h4.5l3-3H28v.5l-3 3v5l3 3v.5h-7.5l-3-3Z" style="fill:#4a4b53;stroke:none"/>
        <path d="M13 51.5V51h4.5l3 3H28v1.5l-3 3V63h-4.5l-2-2h-6l3.5-3.5v-3Z" style="stroke:none"/>
        <path d="M14.5 8 18 4.5 22.5 9h3l-3 3h-4Zm0 80 4-4h4l3 3h-3L18 91.5Z" style="fill:#ea8878;stroke:none"/>
        <path d="m18 4.5 3-3v-1h8v5L25.5 9h-3Z" style="fill:#feb380;stroke:none"/>
        <path d="m18 17.5 3-3 4.5 4.5 4.5-4.5v-3L27.5 9h-2L29 5.5v-5h16l-2 2V5h-1.5L35 11.5v7l-2 2v5L29.5 29Z" style="fill:#989aa4;stroke:none"/>
        <path d="m18 91.5 4.5-4.5h3l3.5 3.5v5h-8v-1Z" style="stroke:none"/>
        <path d="M25 37.5V33h3.5l7.5 7.5v2L33.5 45h-2l-3-3H28v-1.5Z" style="fill:#feb380;stroke:none"/>
        <path d="M25 50.5v-5l3-3V42h.5l3 3H33v6h-1.5l-3 3H28v-.5Z" style="fill:#989aa4;stroke:none"/>
        <path d="M25 63v-4.5l3-3V54h.5l3-3h2l2.5 2.5v2L28.5 63Z" style="fill:#feb380;stroke:none"/>
        <path d="m25.5 33 3.5-3.5 5.5 5.5-2 2-4-4Zm0 30h3l4-4 4.5 4.5-4 4v3Z" style="fill:#989aa4;stroke:none"/>
        <path d="m29.5 29 3.5-3.5v3l4 4-2 2Z" style="fill:#4a4b53;stroke:none"/>
        <path d="M33 25v-4.5l2-2v-6l3.5 3.5h3l3-3h.5v4.5l-3 3V28h-1.5l-3-3Z" style="fill:#feb380;stroke:none"/>
        <path d="M33 28.5V25h4.5l3 3H42v.5l3 3v2L42.5 36h-2Z" style="stroke:none"/>
        <path d="M33 71v-3.5l7.5-7.5h2l2.5 2.5v2l-3 3v.5h-1.5l-3 3Z" style="fill:#feb380;stroke:none"/>
        <path d="M33 75.5V71h4.5l3-3H42v7.5l3 3V83h-.5l-3-3h-3L35 83.5v-6Z" style="stroke:none"/>
        <path d="m37.5 44 4 4-4 4 6.5 6.5 4-4 4 4 3-3L40.5 41Z" style="fill:#6e7080;stroke:none"/>
        <path d="m37.5 44 3-3L55 55.5l-3 3-4-4-4 4-6.5-6.5 4-4Z" style="fill:#4a4b53;stroke:none"/>
        <path d="M41 40.5 55.5 55l3-3-4-4 4-4-6.5-6.5-4 4-4-4Z" style="fill:#6e7080;stroke:none"/>
        <path d="m41 40.5 3-3 4 4 4-4 6.5 6.5-4 4 4 4-3 3ZM42.5 28H42v-7.5l3-3V13h6v4.5l3 3V28h-.5l-3-3h-5Z" style="fill:#989aa4;stroke:none"/>
        <path d="M42 28.5V28h.5l3-3h5l3 3h.5v.5l-3 3V33h-6v-1.5Z" style="fill:#4a4b53;stroke:none"/>
        <path d="M42.5 68H42v-.5l3-3V63h6v1.5l3 3v.5h-.5l-3 3h-5Z" style="fill:#989aa4;stroke:none"/>
        <path d="M45.5 71h5l3-3h.5v7.5l-3 3V83h-6v-4.5l-3-3V68h.5Z" style="fill:#4a4b53;stroke:none"/>
        <path d="M43 5V2.5l2-2h6l2 2V5Z" style="fill:#feb380;stroke:none"/>
        <path d="M43 93.5V91h10v2.5l-2 2h-6Z" style="stroke:none"/>
        <path d="M51 .5h16v5L70.5 9h-2L66 11.5v3l4.5 4.5 4.5-4.5 6.5 6.5-4.5 4.5 4.5 4.5h3l2.5-2.5v-2l3.5 3.5h5v16l-2-2H91v-1.5L84.5 35h-7l-2-2h-5L63 25.5v-5l-2-2v-7L54.5 5H53V2.5Z" style="fill:#989aa4;stroke:none"/>
        <path d="M54.5 16h3l3.5-3.5v6l2 2V25h-4.5l-3 3H54v-7.5l-3-3V13h.5Z" style="fill:#feb380;stroke:none"/>
        <path d="M51 33.5v-2l3-3V28h1.5l3-3H63v3.5L55.5 36h-2Z" style="stroke:none"/>
        <path d="M51 64.5v-2l2.5-2.5h2l7.5 7.5V71h-4.5l-3-3H54v-.5Z" style="fill:#feb380;stroke:none"/>
        <path d="M51.5 83H51v-4.5l3-3V68h1.5l3 3H63v4.5l-2 2v6L57.5 80h-3Z" style="stroke:none"/>
        <path d="m59 32.5 4-4v-3l7.5 7.5h-3l-4 4Z" style="fill:#4a4b53;stroke:none"/>
        <path d="m59 63.5 2-2 5.5 5.5-3.5 3.5v-3Z" style="fill:#989aa4;stroke:none"/>
        <path d="M60 42.5v-2l7.5-7.5H71v4.5l-3 3V42h-.5l-3 3h-2Zm0 13v-2l2.5-2.5h2l3 3h.5v1.5l3 3V63h-3.5Z" style="stroke:none"/>
        <path d="m61.5 61 2-2 4 4h3L67 66.5ZM63 51v-6h1.5l3-3h.5v.5l3 3v5l-3 3v.5h-.5l-3-3Zm3 30.5v3l2.5 2.5h2L67 90.5v5H51l2-2V91h1.5l6.5-6.5v-7l2-2v-5l3.5-3.5L78 78.5l-3 3-4.5-4.5Z" style="fill:#4a4b53;stroke:none"/>
        <path d="M66 14.5v-3L68.5 9h2l3 3h4l4-4 6.5 6.5-4 4v4l3 3v2L84.5 30h-3L77 25.5l4.5-4.5-6.5-6.5-4.5 4.5Z" style="fill:#6e7080;stroke:none"/>
        <path d="M67 5.5v-5h8v1l3 3L73.5 9h-3Z" style="fill:#feb380;stroke:none"/>
        <path d="m67 66.5 3.5-3.5h5l2-2h7l6.5-6.5V53h2.5l2-2v16h-5L87 70.5v-2L84.5 66h-3L77 70.5l4.5 4.5-3 3Z" style="fill:#989aa4;stroke:none"/>
        <path d="M68 42v-1.5l3-3V33h4.5l2 2h6L80 38.5v3l3 3v.5h-4.5l-3-3Z" style="fill:#feb380;stroke:none"/>
        <path d="M68 42.5V42h7.5l3 3H83v6h-4.5l-3 3H68v-.5l3-3v-5Z" style="fill:#989aa4;stroke:none"/>
        <path d="M68 55.5V54h7.5l3-3H83v.5l-3 3v3l3.5 3.5h-6l-2 2H71v-4.5Z" style="fill:#feb380;stroke:none"/>
        <path d="M70.5 9h3L78 4.5 81.5 8l-4 4h-4Zm0 78 3-3h4l4 4-3.5 3.5-4.5-4.5Z" style="fill:#ea8878;stroke:none"/>
        <path d="m78 91.5-3 3v1h-8v-5l3.5-3.5h3Z" style="stroke:none"/>
        <path d="M75 1.5v-1h13L95.5 8v13h-1Z" style="fill:#989aa4;stroke:none"/>
        <path d="M84 22.5v-4l4-4 3.5 3.5-4.5 4.5v3Zm0 55v-4l3-3v3l4.5 4.5-3.5 3.5Z" style="fill:#ea8878;stroke:none"/>
        <path d="M91.5 92 88 95.5H75v-1l9.5-9.5Z" style="fill:#4a4b53;stroke:none"/>
        <path d="m85 84.5 9.5-9.5h1v13L92 91.5Z" style="fill:#989aa4;stroke:none"/>
        <path d="M87 25.5v-3l4.5-4.5 3 3h1v8h-5Zm0 48v-3l3.5-3.5h5v8h-1l-3 3ZM91 53V43h2.5l2 2v6l-2 2Z" style="fill:#feb380;stroke:none"/>
    </g>
</svg>
