<svg xmlns="http://www.w3.org/2000/svg" width="96" height="96" style="fill-opacity:1;color-rendering:auto;color-interpolation:auto;text-rendering:auto;stroke:#000;stroke-linecap:square;stroke-miterlimit:10;shape-rendering:auto;stroke-opacity:1;fill:#000;stroke-dasharray:none;font-weight:400;stroke-width:1;font-family:&quot;Dialog&quot;;font-style:normal;stroke-linejoin:miter;font-size:12px;stroke-dashoffset:0;image-rendering:auto">
    <g style="stroke-linecap:round;fill:#989aa4;stroke:#989aa4">
        <path stroke="none" d="M.5 1V.5H1l12 12L16.5 9l5 5 6-6H32v5h-2.5l-8 8 5 5 6-6H40v2.5L31.5 31l6 6-.5.5-6-6-8.5 8.5H20v-7.5l6-6-5-5-8 8V32H8v-4.5l6-6-5-5 3.5-3.5Z" style="stroke:none"/>
    </g>
    <g stroke="none" style="stroke-linecap:round;fill:#6e7080;stroke:#6e7080">
        <path d="M12.5 13 9 16.5l5 5-6 6V32H5.5l-5 5v-6L5 26.5v-4L.5 18V1Z" style="stroke:none"/>
        <path d="M5 22.5v4L.5 31V18ZM.5 59V37l5-5H8v12H6.5l-4 4 4 4H8v12H5.5Z" style="fill:#d57c65;stroke:none"/>
        <path d="M5.5 64H8v4.5l6 6-5 5 7.5 7.5 5-5 6 6H32v2.5l5 5h-6L26.5 91h-4L18 95.5H.5V78L5 73.5v-4L.5 65v-6Z" style="stroke:none"/>
        <path d="M5 69.5v4L.5 78V65Z" style="fill:#d57c65;stroke:none"/>
        <path d="M1 .5h17L22.5 5h4L31 .5h6l-5 5V8h-4.5l-6 6-5-5-3.5 3.5Z" style="fill:#b0bac0;stroke:none"/>
        <path d="m2.5 48 4-4H8v8H6.5Z" style="stroke:none"/>
        <path d="M8.5 44H8V32h5v32H8V52h.5l4-4Z" style="fill:#e3ae6f;stroke:none"/>
        <path d="m12.5 48-4 4H8v-8h.5ZM8 68.5V64h5v2.5L29.5 83H32v5h-4.5l-6-6-5 5L9 79.5l5-5Z" style="fill:#989aa4;stroke:none"/>
        <path d="M13 32.5v-3l8-8 5 5-6 6v7Z" style="stroke:none"/>
        <path d="M20 39.5v17l-7 7v-31Z" style="fill:#d57c65;stroke:none"/>
        <path d="M13 66.5v-3l7-7v7L32.5 76h7l-7 7h-3Z" style="stroke:none"/>
        <path d="M18 .5h13L26.5 5h-4Z" style="fill:#f7e97e;stroke:none"/>
        <path d="M20 56V40h2.5l.5-.5 5 5v7l-5 5-.5-.5Z" style="fill:#e3ae6f;stroke:none"/>
        <path d="M20 63.5V56h2.5L40 73.5V76h-7.5Z" style="fill:#989aa4;stroke:none"/>
        <path d="m21.5 21 8-8h3l7 7h-7l-6 6ZM23 39.5l8-8 6 6-9 9v-2Zm0 17 5-5v-2L46.5 68h-2l-5 5Z" style="fill:#b0bac0;stroke:none"/>
        <path d="M31 95.5H18l4.5-4.5h4Z" style="fill:#d57c65;stroke:none"/>
        <path d="M28 49.5v-3L46.5 28h3L68 46.5v3L49.5 68h-3Z" style="fill:#4a4b53;stroke:none"/>
        <path d="M32 8V5.5l5-5h22l5 5V8H52V6.5l-4-4-4 4V8Z" style="fill:#f7e97e;stroke:none"/>
        <path d="M32 13V8h12v.5l4 4 4-4V8h12v5Z" style="fill:#e3ae6f;stroke:none"/>
        <path d="m31.5 31 8-8 5 5h2l-9 9Z" style="stroke:none"/>
        <path d="M32 88v-5h32v5H52v-.5l-4-4-4 4v.5Z" style="fill:#e3ae6f;stroke:none"/>
        <path d="M32 90.5V88h12v1.5l4 4 4-4V88h12v2.5l-5 5H37Z" style="fill:#d57c65;stroke:none"/>
        <path d="M32.5 13h31l-7 7h-17Z" style="fill:#f7e97e;stroke:none"/>
        <path d="m32.5 83 7-7h17l7 7Z" style="fill:#d57c65;stroke:none"/>
        <path d="m39.5 23 .5-.5V20h16v2.5l.5.5-5 5h-7Zm.5 53v-2.5l-.5-.5 5-5h7l5 5-.5.5V76Z" style="fill:#e3ae6f;stroke:none"/>
        <path d="M44 8V6.5l4-4 4 4V8Z" style="fill:#b0bac0;stroke:none"/>
        <path d="M44 8.5V8h8v.5l-4 4ZM44 88v-.5l4-4 4 4v.5Z" style="fill:#989aa4;stroke:none"/>
        <path d="M44 89.5V88h8v1.5l-4 4ZM49.5 28h2l5-5L73 39.5l-5 5v2Z" style="stroke:none"/>
        <path d="m49.5 68 9-9 6 6-8 8-5-5Z" style="fill:#b0bac0;stroke:none"/>
        <path d="M56 22.5V20h7.5L76 32.5V40h-2.5ZM56 76v-2.5l8.5-8.5-6-6 .5-.5 6 6 8.5-8.5H76v7.5l-6 6 5 5 8-8V64h5v4.5l-6 6 5 5-3.5 3.5 12 12v.5H95l-12-12-3.5 3.5-5-5-6 6H64v-5h2.5l8-8-5-5-6 6Z" style="fill:#989aa4;stroke:none"/>
        <path d="m56.5 20 7-7h3L83 29.5v3l-7 7v-7L63.5 20Z" style="fill:#b0bac0;stroke:none"/>
        <path d="M56.5 76h7l6-6 5 5-8 8h-3Z" style="stroke:none"/>
        <path d="M59 .5h6L69.5 5h4L78 .5h17.5V18L91 22.5v4l4.5 4.5v6l-5-5H88v-4.5l-6-6 5-5L79.5 9l-5 5-6-6H64V5.5Z" style="fill:#b0bac0;stroke:none"/>
        <path d="m59 58.5 9-9v2l5 5-8 8Z" style="stroke:none"/>
        <path d="M64 13V8h4.5l6 6 5-5 7.5 7.5-5 5 6 6V32h-5v-2.5L66.5 13Z" style="fill:#989aa4;stroke:none"/>
        <path d="M65 95.5h-6l5-5V88h4.5l6-6 5 5 3.5-3.5 12 12H78L73.5 91h-4Z" style="stroke:none"/>
        <path d="M65 .5h13L73.5 5h-4Z" style="fill:#f7e97e;stroke:none"/>
        <path d="M68 51.5v-7l5-5 .5.5H76v16h-2.5l-.5.5Z" style="fill:#e3ae6f;stroke:none"/>
        <path d="m70 69.5 6-6v-7l7 7v3l-8 8Z" style="fill:#b0bac0;stroke:none"/>
        <path d="M78 95.5H65l4.5-4.5h4Z" style="fill:#d57c65;stroke:none"/>
        <path d="M76 56.5v-17l7-7v31Z" style="fill:#f7e97e;stroke:none"/>
        <path d="m82 74.5 6-6V64h2.5l5-5v6L91 69.5v4l4.5 4.5v17l-12-12 3.5-3.5Z" style="fill:#b0bac0;stroke:none"/>
        <path d="m83.5 48 4 4h.5v12h-5V32h5v12h-.5Z" style="fill:#e3ae6f;stroke:none"/>
        <path d="m83.5 48 4-4h.5v8h-.5Z" style="fill:#989aa4;stroke:none"/>
        <path d="M88 44V32h2.5l5 5v22l-5 5H88V52h1.5l4-4-4-4Z" style="fill:#f7e97e;stroke:none"/>
        <path d="M88 52v-8h1.5l4 4-4 4Z" style="fill:#b0bac0;stroke:none"/>
        <path d="M91 26.5v-4l4.5-4.5v13Zm0 47v-4l4.5-4.5v13Z" style="fill:#f7e97e;stroke:none"/>
    </g>
</svg>
