<svg xmlns="http://www.w3.org/2000/svg" width="96" height="96" style="fill-opacity:1;color-rendering:auto;color-interpolation:auto;text-rendering:auto;stroke:#000;stroke-linecap:square;stroke-miterlimit:10;shape-rendering:auto;stroke-opacity:1;fill:#000;stroke-dasharray:none;font-weight:400;stroke-width:1;font-family:&quot;Dialog&quot;;font-style:normal;stroke-linejoin:miter;font-size:12px;stroke-dashoffset:0;image-rendering:auto">
    <g style="stroke-linecap:round;fill:#4a4b53;stroke:#4a4b53">
        <path stroke="none" d="m2 10.5 4-4L22.5 23l-4 4Z" style="stroke:none"/>
    </g>
    <g stroke="none" style="stroke-linecap:round;fill:#4a4b53;stroke:#4a4b53">
        <path d="M2 85.5 18.5 69l8.5 8.5L10.5 94Z" style="stroke:none"/>
        <path d="m7 7.5-1-1 .5-.5.5.5Z" style="fill:#6e7080;stroke:none"/>
        <path d="m6.5 6 4-4L27 18.5l-4 4Z" style="fill:#989aa4;stroke:none"/>
        <path d="m9 9.5-3-3 .5-.5L9 8.5Z" style="fill:#6e7080;stroke:none"/>
        <path d="m11 11.5-5-5 .5-.5 4.5 4.5Z" style="fill:#6e7080;stroke:none"/>
        <path d="m13 13.5-7-7 .5-.5 6.5 6.5Z" style="fill:#6e7080;stroke:none"/>
        <path d="m15 15.5-9-9 .5-.5 8.5 8.5Z" style="fill:#6e7080;stroke:none"/>
        <path d="M17 17.5 6 6.5l.5-.5L17 16.5Z" style="fill:#6e7080;stroke:none"/>
        <path d="M19 19.5 6 6.5l.5-.5L19 18.5Z" style="fill:#6e7080;stroke:none"/>
        <path d="m18.5 27 4-4L6 6.5l.5-.5L23 22.5l4-4 6 6-4 4 7.5 7.5-.5.5-7.5-7.5-4 4Zm0 42 6-6 8.5 8.5-6 6Z" style="fill:#6e7080;stroke:none"/>
        <path d="m24.5 33 4-4 7 7-4 4Zm0 30 7-7 8.5 8.5-7 7Z" style="stroke:none"/>
        <path d="m29 28.5 4-4 7 7-4 4Z" style="fill:#989aa4;stroke:none"/>
        <path d="M29 52.5v-9l3-3 5.5 5.5-2 2 2 2-5.5 5.5Z" style="stroke:none"/>
        <path d="m31.5 40 4-4 6 6-4 4Zm0 16 6-6 8.5 8.5-6 6Z" style="fill:#3a5651;stroke:none"/>
        <path d="m36 35.5 4-4 6 6-4 4Z" style="fill:#92dd7e;stroke:none"/>
        <path d="m37 37.5-1-1 .5-.5.5.5Z" style="fill:#3a8f64;stroke:none"/>
        <path d="m35.5 48 6-6 2.5 2.5-3.5 3.5 7.5 7.5 3.5-3.5 2.5 2.5-6 6Z" style="fill:#989aa4;stroke:none"/>
        <path d="m39 39.5-3-3 .5-.5 2.5 2.5Z" style="fill:#3a8f64;stroke:none"/>
        <path d="m41 41.5-5-5 .5-.5 4.5 4.5Z" style="fill:#3a8f64;stroke:none"/>
        <path d="m40.5 32 3-3h9l3 3-5.5 5.5-2-2-2 2Z" style="fill:#989aa4;stroke:none"/>
        <path d="m40.5 64 5.5-5.5 2 2 2-2 5.5 5.5-3 3h-9ZM42 41.5l6-6L60.5 48l-6 6-2.5-2.5 3.5-3.5-7.5-7.5-3.5 3.5Z" style="stroke:none"/>
        <path d="m43 43.5-1-1 .5-.5.5.5Z" style="fill:#6e7080;stroke:none"/>
        <path d="m50 37.5 6-6 8.5 8.5-6 6Z" style="fill:#92dd7e;stroke:none"/>
        <path d="m50 58.5 4-4 6 6-4 4Z" style="fill:#3a5651;stroke:none"/>
        <path d="M53 53.5 51.5 52l.5-.5 1 1Z" style="fill:#6e7080;stroke:none"/>
        <path d="m55 55.5-1-1 .5-.5.5.5Z" style="fill:#3a8f64;stroke:none"/>
        <path d="m54.5 54 4-4 6 6-4 4Z" style="fill:#92dd7e;stroke:none"/>
        <path d="m56 31.5 7-7 8.5 8.5-7 7Z" style="fill:#989aa4;stroke:none"/>
        <path d="m57 57.5-3-3 .5-.5 2.5 2.5Z" style="fill:#3a8f64;stroke:none"/>
        <path d="m56 64.5 4-4 7 7-4 4Z" style="stroke:none"/>
        <path d="m59 59.5-5-5 .5-.5 4.5 4.5Z" style="fill:#3a8f64;stroke:none"/>
        <path d="m58.5 46 5.5-5.5 3 3v9l-3 3-5.5-5.5 2-2Z" style="fill:#989aa4;stroke:none"/>
        <path d="m61 61.5-1-1 .5-.5.5.5Z" style="fill:#6e7080;stroke:none"/>
        <path d="m60.5 60 4-4 7 7-4 4Z" style="fill:#989aa4;stroke:none"/>
        <path d="m63 63.5-3-3 .5-.5 2.5 2.5Zm0-39 6-6 8.5 8.5-6 6Z" style="fill:#6e7080;stroke:none"/>
        <path d="m63 71.5 4-4-7-7 .5-.5 7 7 4-4 6 6-4 4L90 89.5l-.5.5L73 73.5l-4 4Z" style="fill:#6e7080;stroke:none"/>
        <path d="M69 18.5 85.5 2l8.5 8.5L77.5 27Z" style="fill:#989aa4;stroke:none"/>
        <path d="m69 77.5 4-4L89.5 90l-4 4Z" style="stroke:none"/>
        <path d="m73.5 73 4-4L94 85.5l-4 4Z" style="fill:#989aa4;stroke:none"/>
    </g>
</svg>
