<svg xmlns="http://www.w3.org/2000/svg" width="128" height="128" style="fill-opacity:1;color-rendering:auto;color-interpolation:auto;text-rendering:auto;stroke:#000;stroke-linecap:square;stroke-miterlimit:10;shape-rendering:auto;stroke-opacity:1;fill:#000;stroke-dasharray:none;font-weight:400;stroke-width:1;font-family:&quot;Dialog&quot;;font-style:normal;stroke-linejoin:miter;font-size:12px;stroke-dashoffset:0;image-rendering:auto">
    <g style="stroke-linecap:round;fill:#869cbe;stroke:#869cbe">
        <path stroke="none" d="M35 67.5v-10L52.5 40h.5v10h-.5Z" style="stroke:none"/>
    </g>
    <g stroke="none" style="stroke-linecap:round;fill:#6e7080;stroke:#6e7080">
        <path d="M35 76.5v-9l6.5-6.5.5.5v13l9 9V90h-2.5Z" style="stroke:none"/>
        <path d="M48.5 90H51v.5l3.5 3.5 4.5-4.5v-18l4.5-4.5h.5v55h-4.5l-3-3 4-4-7.5-7.5v-4L47.5 98h-3L39 92.5v-11l.5-.5Z" style="fill:#4a4b53;stroke:none"/>
        <path d="M42 74.5v-13l-.5-.5 11-11h.5v7.5l4 4-6 6v16Zm3-40v-8l2-2v-16L50.5 5H56v2.5l-4 4v2l.5.5h3l.5.5v2l-4 4v2l.5.5h3l.5.5V27h-3.5Z" style="fill:#4a4b53;stroke:none"/>
        <path d="M45 42.5v-8l7.5-7.5h.5v8h-.5Z" style="fill:#869cbe;stroke:none"/>
        <path d="m45.5 47-.5-.5v-4l7.5-7.5h.5v5h-.5Z" style="fill:#4a4b53;stroke:none"/>
        <path d="M45 107.5V98h2.5l5.5 5.5v4l7.5 7.5-4 4Z" style="stroke:none"/>
        <path d="M51 90.5v-23L61.5 57H64v10h-.5L59 71.5v18L54.5 94Z" style="fill:#869cbe;stroke:none"/>
        <path d="m52.5 14-.5-.5v-2l4-4V5h2.5l.5.5V27h-3v-3.5l-.5-.5h-3l-.5-.5v-2l4-4v-2l-.5-.5Z" style="stroke:none"/>
        <path d="M53 35v-8h6v8Z" style="fill:#fff;stroke:none"/>
        <path d="M53 40v-5h6v5Z" style="stroke:none"/>
        <path d="M53 50V40h6v10Z" style="fill:#fff;stroke:none"/>
        <path d="M53 57.5V50h6v4.5l2.5 2.5-4.5 4.5Z" style="stroke:none"/>
        <path d="M64.5 67H64V57h2.5L77 67.5v23L73.5 94 69 89.5v-18Z" style="fill:#fff;stroke:none"/>
        <path d="M69 71.5v18l4.5 4.5 3.5-3.5V90h2.5l9-9 .5.5v11L83.5 98h-3l-5.5 5.5v4l-7.5 7.5 4 4-3 3H64V67h.5Z" style="stroke:none"/>
        <path d="m66.5 57 2.5-2.5V50h6v7.5l-4 4Zm1 58 7.5-7.5v-4l5.5-5.5H83v9.5L71.5 119ZM69 27V5.5l.5-.5H72v2.5l4 4v2l-.5.5h-3l-.5.5v2l4 4v2l-.5.5h-3l-.5.5V27Z" style="fill:#4a4b53;stroke:none"/>
        <path d="M69 35v-8h6v8Z" style="fill:#869cbe;stroke:none"/>
        <path d="M69 40v-5h6v5Z" style="fill:#4a4b53;stroke:none"/>
        <path d="M69 50V40h6v10Z" style="fill:#869cbe;stroke:none"/>
        <path d="m71 61.5 4-4V50h.5l11 11-.5.5v13l-9 9v-16Zm1-54V5h5.5L81 8.5v16l2 2v8L75.5 27H72v-3.5l.5-.5h3l.5-.5v-2l-4-4v-2l.5-.5h3l.5-.5v-2Z" style="stroke:none"/>
        <path d="M83 34.5v8L75.5 35H75v-8h.5Z" style="fill:#fff;stroke:none"/>
        <path d="M83 42.5v4l-.5.5-7-7H75v-5h.5Z" style="stroke:none"/>
        <path d="M93 57.5v10L75.5 50H75V40h.5Z" style="fill:#fff;stroke:none"/>
        <path d="M77 90v-6.5l9-9v-13l.5-.5 6.5 6.5v9L79.5 90Z" style="fill:#4a4b53;stroke:none"/>
    </g>
</svg>
