<svg xmlns="http://www.w3.org/2000/svg" width="160" height="160" style="fill-opacity:1;color-rendering:auto;color-interpolation:auto;text-rendering:auto;stroke:#000;stroke-linecap:square;stroke-miterlimit:10;shape-rendering:auto;stroke-opacity:1;fill:#000;stroke-dasharray:none;font-weight:400;stroke-width:1;font-family:&quot;Dialog&quot;;font-style:normal;stroke-linejoin:miter;font-size:12px;stroke-dashoffset:0;image-rendering:auto">
    <g style="stroke-linecap:round;fill:#6e7080;stroke:#6e7080">
        <path stroke="none" d="m80.5 130-.5-.5v-10l8-8v-7l12 12-9.5 9.5h-4l-4 4Z" style="stroke:none"/>
    </g>
    <g stroke="none" style="stroke-linecap:round;fill:#6e7080;stroke:#6e7080">
        <path d="M87 32.5v-18L94.5 7h9l1 1-5 5 4.5 4.5 5-5 2.5 2.5L96 30.5v6l10 10 6-6v8L92.5 68l8.5 8.5 11-11v6l-8.5 8.5 4 4 4-4 3 3-8.5 8.5v2l8.5 8.5-2.5 2.5v.5h-4.5L92 89.5v-5l-5-5v-19l5-5v-18Z" style="stroke:none"/>
        <path d="M88 104.5v-1l4-4v-10l15.5 15.5h4.5v3.5l-8.5 8.5h-3Z" style="fill:#ffd37f;stroke:none"/>
        <path d="m92.5 68 5-5 .5.5v9l-.5.5ZM96 36.5v-6l4.5-4.5.5.5v14l-.5.5Z" style="fill:#4a4b53;stroke:none"/>
        <path d="m97.5 73 .5-.5v-9l-.5-.5L112 48.5v17l-11 11Zm2-60 5-5 4.5 4.5-5 5Zm1 28 .5-.5v-14l-.5-.5 11-11 .5.5v25l-6 6Zm3 39 8.5-8.5v8l-4.5 4.5Zm2.5 13.5v-2l8.5-8.5 2.5 2.5v14l-2.5 2.5Z" style="fill:#ffd37f;stroke:none"/>
    </g>
</svg>
