<svg xmlns="http://www.w3.org/2000/svg" width="96" height="96" style="fill-opacity:1;color-rendering:auto;color-interpolation:auto;text-rendering:auto;stroke:#000;stroke-linecap:square;stroke-miterlimit:10;shape-rendering:auto;stroke-opacity:1;fill:#000;stroke-dasharray:none;font-weight:400;stroke-width:1;font-family:&quot;Dialog&quot;;font-style:normal;stroke-linejoin:miter;font-size:12px;stroke-dashoffset:0;image-rendering:auto">
    <g style="stroke-linecap:round;fill:#4a4b53;stroke:#4a4b53">
        <path stroke="none" d="M.5 23V11l5-5 8 8-5 5h-4Z" style="stroke:none"/>
    </g>
    <g stroke="none" style="stroke-linecap:round;fill:#3a5651;stroke:#3a5651">
        <path d="M.5 30v-7l4-4H8v5.5L2.5 30Z" style="stroke:none"/>
        <path d="M.5 31v-1h2L8 24.5l10 10v4l-3 3v.5h-.5l-7-7h-3Zm0 35v-1l4-4h3l7-7h.5v.5l3 3v4l-10 10L2.5 66Z" style="fill:#4a4b53;stroke:none"/>
        <path d="M.5 73v-7h2L8 71.5V77H4.5Z" style="stroke:none"/>
        <path d="M4.5 77h4l4.5 4.5v1l.5.5h1l4.5 4.5v4l4 4H11L.5 85V73Z" style="fill:#4a4b53;stroke:none"/>
        <path d="M5 43.5V35h2.5l7 7h.5v12h-.5l-7 7H5v-8.5L9.5 48Z" style="stroke:none"/>
        <path d="M9.5 48 5 52.5v-9Z" style="fill:#4a4b53;stroke:none"/>
        <path d="m6 5.5 5-5h12l-4 4v4l-5 5Z" style="fill:#989aa4;stroke:none"/>
        <path d="M7 7.5 5.5 6l.5-.5 1 1Z" style="fill:#6e7080;stroke:none"/>
        <path d="M9 9.5 5.5 6l.5-.5 3 3Z" style="fill:#6e7080;stroke:none"/>
        <path d="M8 24.5V19h.5l5-5-8-8 .5-.5 8 8 5-5V8h5.5l10 10h4l3-3h.5v9h-.5l-3-3h-11l-3 3 3.5 3.5 1.5-1.5h7l3 3H42v.5l3.5 3.5h5l3.5-3.5V29h2.5l3-3h7l3.5 3.5v7l-3 3V42h-.5L63 45.5v5l3.5 3.5h.5v2.5l3 3v7L68.5 68l3.5 3.5 3-3v-11l-3-3V54h9v.5l-3 3v4l10 10V77h-.5l-5 5 8 8-.5.5-8-8-5 5v.5h-5.5l-10-10h-4l-3 3H54v-9h.5l3 3h11l3-3-3.5-3.5-1.5 1.5h-7l-3-3H54v-.5L50.5 63h-5L42 66.5v.5h-2.5l-3 3h-7L26 66.5v-7l3-3V54h.5l3.5-3.5v-5L29.5 42H29v-2.5l-3-3v-7l1.5-1.5-3.5-3.5-3 3v11l3 3v.5h-9v-.5l3-3v-4Z" style="fill:#6e7080;stroke:none"/>
        <path d="M8.5 77H8v-5.5l10-10v-4l-3-3V54h9v.5l-3 3v11l6.5 6.5h11l3-3h.5v9h-.5l-3-3h-4l-10 10H19v-.5L14.5 83h-1l-.5-.5v-1ZM13 21.5l3.5 3.5 4-4-3.5-3.5Z" style="fill:#6e7080;stroke:none"/>
        <path d="m13 74.5 8.5 8.5 3.5-3.5-8.5-8.5Z" style="fill:#6e7080;stroke:none"/>
        <path d="m13 21.5 4-4 3.5 3.5-4 4Zm0 53 3.5-3.5 8.5 8.5-3.5 3.5Z" style="fill:#4a4b53;stroke:none"/>
        <path d="M15 54V42h9v12Z" style="fill:#3a8f64;stroke:none"/>
        <path d="m17.5 17 3.5 3.5 4-4-3.5-3.5Z" style="fill:#6e7080;stroke:none"/>
        <path d="m17.5 17 4-4 3.5 3.5-4 4Z" style="fill:#989aa4;stroke:none"/>
        <path d="M19 8V4.5l4-4h7v2L24.5 8Z" style="fill:#92dd7e;stroke:none"/>
        <path d="M19 91.5V88h5.5l5.5 5.5v2h-7Z" style="stroke:none"/>
        <path d="M21 38.5v-11l3-3 3.5 3.5-1.5 1.5v7l3 3V42h-5v-.5Zm0 30v-11l3-3V54h5v2.5l-3 3v7l3.5 3.5h7l3-3H42v5h-.5l-3 3h-11Z" style="fill:#4a4b53;stroke:none"/>
        <path d="M24 54V42h5v12Z" style="stroke:none"/>
        <path d="M24.5 8 30 2.5v-2h1l4 4v3l7 7v.5h-.5l-3 3h-4Zm0 16 3-3h11l3 3h.5v5h-2.5l-3-3h-7L28 27.5Z" style="fill:#989aa4;stroke:none"/>
        <path d="m24.5 88 10-10h4l3 3h.5v.5l-7 7v3l-4 4h-1v-2Z" style="fill:#4a4b53;stroke:none"/>
        <path d="M33 45.5v5L29.5 54H29V42h.5Z" style="fill:#3a8f64;stroke:none"/>
        <path d="M31 33.5v2l2.5 2.5h2l1-1-4.5-4.5Zm0 27v2l2.5 2.5h2l2.5-2.5v-2L35.5 58h-2Z" style="fill:#6e7080;stroke:none"/>
        <path d="M31 35.5v-2l1-1 4.5 4.5-1 1h-2Zm0 27v-2l2.5-2.5h2l2.5 2.5v2L35.5 65h-2Z" style="fill:#989aa4;stroke:none"/>
        <path d="m32.5 32 4.5 4.5 1-1v-2L35.5 31h-2Z" style="fill:#6e7080;stroke:none"/>
        <path d="m32.5 32 1-1h2l2.5 2.5v2l-1 1Z" style="fill:#4a4b53;stroke:none"/>
        <path d="M35 7.5V5h8.5L48 9.5 52.5 5H61v2.5l-7 7v.5H42v-.5Z" style="fill:#92dd7e;stroke:none"/>
        <path d="M36 41.5v13l5.5 5.5h13l2.5-2.5-3.5-3.5-1 1h-9L41 52.5v-9l1-1-3.5-3.5Z" style="fill:#6e7080;stroke:none"/>
        <path d="M35 91v-2.5l7-7V81h12v.5l7 7V91h-8.5L48 86.5 43.5 91Z" style="stroke:none"/>
        <path d="M36 54.5v-13l2.5-2.5 3.5 3.5-1 1v9l2.5 2.5h9l1-1 3.5 3.5-2.5 2.5h-13Z" style="fill:#4a4b53;stroke:none"/>
        <path d="m39 38.5 3.5 3.5 1-1h9l2.5 2.5v9l-1 1 3.5 3.5 2.5-2.5v-13L54.5 36h-13Z" style="fill:#6e7080;stroke:none"/>
        <path d="m39 38.5 2.5-2.5h13l5.5 5.5v13L57.5 57 54 53.5l1-1v-9L52.5 41h-9l-1 1Z" style="fill:#989aa4;stroke:none"/>
        <path d="M42 24v-9h12v9Z" style="fill:#3a8f64;stroke:none"/>
        <path d="M42 29v-5h12v5Z" style="fill:#92dd7e;stroke:none"/>
        <path d="M42 29.5V29h12v.5L50.5 33h-5ZM42 67v-.5l3.5-3.5h5l3.5 3.5v.5Z" style="fill:#3a8f64;stroke:none"/>
        <path d="M42 72v-5h12v5Z" style="stroke:none"/>
        <path d="M42 81v-9h12v9Z" style="fill:#3a8f64;stroke:none"/>
        <path d="M43.5 5h9L48 9.5Z" style="fill:#989aa4;stroke:none"/>
        <path d="m43.5 91 4.5-4.5 4.5 4.5Z" style="fill:#4a4b53;stroke:none"/>
        <path d="M54.5 15H54v-.5l7-7v-3l4-4h1v2L71.5 8l-10 10h-4Z" style="fill:#989aa4;stroke:none"/>
        <path d="M57.5 18h4l10-10H77v.5l4.5 4.5h1l.5.5v1l4.5 4.5h.5v5.5l-10 10v4l3 3v.5h-9v-.5l3-3v-11L68.5 21h-11l-3 3H54v-9h.5Z" style="fill:#6e7080;stroke:none"/>
        <path d="M54 29v-5h.5l3-3h11l6.5 6.5v11l-3 3v.5h-5v-2.5l3-3v-7L66.5 26h-7l-3 3Z" style="fill:#989aa4;stroke:none"/>
        <path d="M54.5 72H54v-5h2.5l3 3h7l1.5-1.5 3.5 3.5-3 3h-11Zm-.5 9.5V81h.5l3-3h4l10 10-5.5 5.5v2h-1l-4-4v-3Z" style="fill:#4a4b53;stroke:none"/>
        <path d="M58 33.5v2l2.5 2.5h2l2.5-2.5v-2L62.5 31h-2Zm0 27v2l2.5 2.5h2l1-1-4.5-4.5Z" style="fill:#6e7080;stroke:none"/>
        <path d="M58 35.5v-2l2.5-2.5h2l2.5 2.5v2L62.5 38h-2Z" style="fill:#4a4b53;stroke:none"/>
        <path d="M58 62.5v-2l1-1 4.5 4.5-1 1h-2Z" style="fill:#989aa4;stroke:none"/>
        <path d="m59.5 59 4.5 4.5 1-1v-2L62.5 58h-2Z" style="fill:#6e7080;stroke:none"/>
        <path d="m59.5 59 1-1h2l2.5 2.5v2l-1 1Z" style="fill:#4a4b53;stroke:none"/>
        <path d="M63 50.5v-5l3.5-3.5h.5v12h-.5Z" style="fill:#3a8f64;stroke:none"/>
        <path d="M66 2.5v-2h7l4 4V8h-5.5ZM67 54V42h5v12Z" style="fill:#92dd7e;stroke:none"/>
        <path d="M67 56.5V54h5v.5l3 3v11l-3 3-3.5-3.5 1.5-1.5v-7Z" style="fill:#989aa4;stroke:none"/>
        <path d="m71 16.5 8.5 8.5 3.5-3.5-8.5-8.5Zm0 63 3.5 3.5 4-4-3.5-3.5Z" style="fill:#6e7080;stroke:none"/>
        <path d="m71 16.5 3.5-3.5 8.5 8.5-3.5 3.5Z" style="fill:#989aa4;stroke:none"/>
        <path d="m71 79.5 4-4 3.5 3.5-4 4Z" style="fill:#4a4b53;stroke:none"/>
        <path d="M72 54V42h9v12Z" style="fill:#3a8f64;stroke:none"/>
        <path d="M73 95.5h-7v-2l5.5-5.5H77v3.5Z" style="stroke:none"/>
        <path d="M73 .5h12L95.5 11v12l-4-4h-4L83 14.5v-1l-.5-.5h-1L77 8.5v-4Z" style="fill:#989aa4;stroke:none"/>
        <path d="m75.5 75 3.5 3.5 4-4-3.5-3.5Z" style="fill:#6e7080;stroke:none"/>
        <path d="m75.5 75 4-4 3.5 3.5-4 4ZM78 38.5v-4l10-10 5.5 5.5h2v1l-4 4h-3l-7 7H81v-.5Zm0 23v-4l3-3V54h.5l7 7h3l4 4v1h-2L88 71.5Z" style="fill:#989aa4;stroke:none"/>
        <path d="M81.5 54H81V42h.5l7-7H91v8.5L86.5 48l4.5 4.5V61h-2.5Z" style="fill:#92dd7e;stroke:none"/>
        <path d="m90 90.5-5 5H73l4-4v-4l5-5Z" style="fill:#4a4b53;stroke:none"/>
        <path d="m82.5 82 5-5h4l4-4v12l-5 5Zm4-34 4.5-4.5v9Z" style="fill:#989aa4;stroke:none"/>
        <path d="M88 24.5V19h3.5l4 4v7h-2ZM88 77v-5.5l5.5-5.5h2v7l-4 4Z" style="fill:#92dd7e;stroke:none"/>
    </g>
</svg>
