<svg xmlns="http://www.w3.org/2000/svg" width="32" height="32" style="fill-opacity:1;color-rendering:auto;color-interpolation:auto;text-rendering:auto;stroke:#000;stroke-linecap:square;stroke-miterlimit:10;shape-rendering:auto;stroke-opacity:1;fill:#000;stroke-dasharray:none;font-weight:400;stroke-width:1;font-family:&quot;Dialog&quot;;font-style:normal;stroke-linejoin:miter;font-size:12px;stroke-dashoffset:0;image-rendering:auto">
    <g style="stroke-linecap:round;fill:#4a4b53;stroke:#4a4b53">
        <path stroke="none" d="M.5 10V3l1-1 4 4-2 2h-1Z" style="stroke:none"/>
    </g>
    <g stroke="none" style="stroke-linecap:round;fill:#3a5651;stroke:#3a5651">
        <path d="M.5 13v-3l2-2h1l.5-.5 5 5v7l-5 5-.5-.5h-1l-2-2v-3l3-3Z" style="stroke:none"/>
        <path d="M2.5 24h1L8 28.5v1l2 2H3L.5 29v-7Z" style="fill:#4a4b53;stroke:none"/>
        <path d="m2 1.5 1-1h7l-2 2v1l-2 2Z" style="fill:#989aa4;stroke:none"/>
        <path d="M3 3.5 1.5 2l.5-.5 1 1Z" style="fill:#6e7080;stroke:none"/>
        <path d="M5 5.5 1.5 2l.5-.5 3 3Z" style="fill:#6e7080;stroke:none"/>
        <path d="M4 7.5 5.5 6l-4-4 .5-.5 4 4L7.5 4 12 8.5 10.5 10l3 3h4l1.5 1.5v4l3 3 1.5-1.5 4.5 4.5-1.5 1.5 4 4-.5.5-4-4-1.5 1.5-4.5-4.5 1.5-1.5-3-3h-4L13 17.5v-4l-3-3L8.5 12Zm0 17L8.5 20l3.5 3.5L7.5 28Z" style="fill:#6e7080;stroke:none"/>
        <path d="m7.5 4 .5-.5v-1l2-2h3l3 3 3-3h3l2 2v1l.5.5-5 5h-7Z" style="fill:#92dd7e;stroke:none"/>
        <path d="M8 29.5v-1l-.5-.5 5-5h7l5 5-.5.5v1l-2 2h-3l-3-3-3 3h-3Z" style="stroke:none"/>
        <path d="m8.5 20 .5-.5v-7l-.5-.5 1.5-1.5 3 3v4l1.5 1.5h4l3 3-1.5 1.5-.5-.5h-7l-.5.5Z" style="fill:#4a4b53;stroke:none"/>
        <path d="M10.5 10 12 8.5l.5.5h7l.5-.5 3.5 3.5-.5.5v7l.5.5-1.5 1.5-3-3v-4L17.5 13h-4Z" style="fill:#989aa4;stroke:none"/>
        <path d="M20 8.5 24.5 4 28 7.5 23.5 12Z" style="fill:#6e7080;stroke:none"/>
        <path d="M22 .5h7L31.5 3v7l-2-2h-1L24 3.5v-1Z" style="fill:#989aa4;stroke:none"/>
        <path d="M23 19.5v-7l5-5 .5.5h1l2 2v3l-3 3 3 3v3l-2 2h-1l-.5.5Z" style="fill:#92dd7e;stroke:none"/>
        <path d="m30 30.5-1 1h-7l2-2v-1l2-2Z" style="fill:#4a4b53;stroke:none"/>
        <path d="m26.5 26 2-2h1l2-2v7l-1 1Z" style="fill:#989aa4;stroke:none"/>
    </g>
</svg>
