<svg xmlns="http://www.w3.org/2000/svg" width="32" height="32" style="fill-opacity:1;color-rendering:auto;color-interpolation:auto;text-rendering:auto;stroke:#000;stroke-linecap:square;stroke-miterlimit:10;shape-rendering:auto;stroke-opacity:1;fill:#000;stroke-dasharray:none;font-weight:400;stroke-width:1;font-family:&quot;Dialog&quot;;font-style:normal;stroke-linejoin:miter;font-size:12px;stroke-dashoffset:0;image-rendering:auto">
    <g style="stroke-linecap:round;fill:#fff;stroke:#fff">
        <path stroke="none" d="m4.5 12-.5-.5v-4L7.5 4h4l.5.5v2l-.5.5h-1L7 10.5v1l-.5.5Z" style="stroke:none"/>
    </g>
    <g style="stroke-linecap:round;fill:#fff;stroke:#fff">
        <path stroke="none" d="M4 24.5v-4l.5-.5h2l.5.5v1l3.5 3.5h1l.5.5v2l-.5.5h-4ZM20.5 7l-.5-.5v-2l.5-.5h4L28 7.5v4l-.5.5h-2l-.5-.5v-1L21.5 7Zm0 21-.5-.5v-2l.5-.5h1l3.5-3.5v-1l.5-.5h2l.5.5v4L24.5 28Z" style="stroke:none"/>
    </g>
</svg>
