<svg xmlns="http://www.w3.org/2000/svg" width="32" height="32" style="fill-opacity:1;color-rendering:auto;color-interpolation:auto;text-rendering:auto;stroke:#000;stroke-linecap:square;stroke-miterlimit:10;shape-rendering:auto;stroke-opacity:1;fill:#000;stroke-dasharray:none;font-weight:400;stroke-width:1;font-family:&quot;Dialog&quot;;font-style:normal;stroke-linejoin:miter;font-size:12px;stroke-dashoffset:0;image-rendering:auto">
    <g style="stroke-linecap:round;fill:#989aa4;stroke:#989aa4">
        <path stroke="none" d="M.5 2V.5H2l8 8L8.5 10Z" style="stroke:none"/>
    </g>
    <g stroke="none" style="stroke-linecap:round;fill:#6e7080;stroke:#6e7080">
        <path d="m4.5 6-.5.5v19L6.5 28h19l.5-.5 4 4H.5V2Z" style="stroke:none"/>
        <path d="M2 .5h29.5V30l-4-4 .5-.5v-19L25.5 4h-19l-.5.5ZM8.5 10l-.5.5v11l2.5 2.5h11l.5-.5 4 4-.5.5h-19L4 25.5v-19l.5-.5Z" style="fill:#b0bac0;stroke:none"/>
        <path d="m6 4.5.5-.5h19L28 6.5v19l-.5.5-4-4 .5-.5v-11L21.5 8h-11l-.5.5Z" style="stroke:none"/>
        <path d="M8 14v-3.5L10.5 8H13v5.5l-.5.5Z" style="fill:#4a4b53;stroke:none"/>
        <path d="M8 18v-4h4.5l.5-.5V8h1.5l6 6H24v4h-3.5l-6 6H13v-5.5l-.5-.5Z" style="fill:#f8c266;stroke:none"/>
        <path d="M8 21.5V18h4v6h-1.5Z" style="fill:#4a4b53;stroke:none"/>
        <path d="M13 24h-1v-6h.5l.5.5Zm2.5-15-1-1H16v.5Z" style="fill:#484b59;stroke:none"/>
        <path d="m14.5 24 6-6H24v3.5L21.5 24Zm1-15 .5-.5V8h4v4.5l-.5.5Z" style="fill:#4a4b53;stroke:none"/>
        <path d="m20.5 14-1-1 .5-.5V8h1.5l2.5 2.5V14Z" style="fill:#484b59;stroke:none"/>
        <path d="m22 23.5 1.5-1.5 8 8v1.5H30Z" style="fill:#989aa4;stroke:none"/>
    </g>
</svg>
