<svg xmlns="http://www.w3.org/2000/svg" width="32" height="32" style="fill-opacity:1;color-rendering:auto;color-interpolation:auto;text-rendering:auto;stroke:#000;stroke-linecap:square;stroke-miterlimit:10;shape-rendering:auto;stroke-opacity:1;fill:#000;stroke-dasharray:none;font-weight:400;stroke-width:1;font-family:&quot;Dialog&quot;;font-style:normal;stroke-linejoin:miter;font-size:12px;stroke-dashoffset:0;image-rendering:auto">
    <g style="stroke-linecap:round;fill:#6e7080;stroke:#6e7080">
        <path stroke="none" d="M.5 27V5l2-2 4 4L4 9.5v13L9.5 28h13l2.5-2.5 4 4-2 2H5Z" style="stroke:none"/>
    </g>
    <g stroke="none" style="stroke-linecap:round;fill:#b0bac0;stroke:#b0bac0">
        <path d="m3 2.5 2-2h22L31.5 5v22l-2 2-4-4 2.5-2.5v-13L22.5 4h-13L7 6.5Z" style="stroke:none"/>
        <path d="M4 4.5 2.5 3l.5-.5 1 1Z" style="fill:#989aa4;stroke:none"/>
        <path d="M4 22.5v-13L6.5 7l3 3L8 11.5v9l3.5 3.5h9l1.5-1.5 3 3-2.5 2.5h-13Z" style="stroke:none"/>
        <path d="M6 6.5 2.5 3l.5-.5 3 3Z" style="fill:#989aa4;stroke:none"/>
        <path d="M7 6.5 9.5 4h13L28 9.5v13L25.5 25l-3-3 1.5-1.5v-9L20.5 8h-9L10 9.5Z" style="fill:#6e7080;stroke:none"/>
        <path d="M8 8.5 2.5 3l.5-.5 5 5Z" style="fill:#989aa4;stroke:none"/>
        <path d="m21 23.5-.5.5h-3L8 14.5v-3l.5-.5Z" style="fill:#fff;stroke:none"/>
        <path d="M17.5 24h-6L8 20.5v-6Z" style="fill:#aaadb7;stroke:none"/>
        <path d="m9.5 10-7-7 .5-.5 7 7Z" style="fill:#989aa4;stroke:none"/>
        <path d="m8.5 11 3-3 11 11H24v1.5l-3 3Z" style="fill:#aaadb7;stroke:none"/>
        <path d="M11.5 8h4l8.5 8.5V19h-1.5Z" style="fill:#fff;stroke:none"/>
        <path d="M15.5 8h5l3.5 3.5v5Z" style="fill:#aaadb7;stroke:none"/>
        <path d="m23 23.5-1-1 .5-.5.5.5Z" style="fill:#989aa4;stroke:none"/>
        <path d="m25 25.5-3-3 .5-.5 2.5 2.5Z" style="fill:#989aa4;stroke:none"/>
        <path d="m27 27.5-5-5 .5-.5 4.5 4.5Z" style="fill:#989aa4;stroke:none"/>
        <path d="m29.5 29-.5.5-7-7 .5-.5Z" style="fill:#989aa4;stroke:none"/>
    </g>
</svg>
