<svg xmlns="http://www.w3.org/2000/svg" width="128" height="128" style="fill-opacity:1;color-rendering:auto;color-interpolation:auto;text-rendering:auto;stroke:#000;stroke-linecap:square;stroke-miterlimit:10;shape-rendering:auto;stroke-opacity:1;fill:#000;stroke-dasharray:none;font-weight:400;stroke-width:1;font-family:&quot;Dialog&quot;;font-style:normal;stroke-linejoin:miter;font-size:12px;stroke-dashoffset:0;image-rendering:auto">
    <g style="stroke-linecap:round;fill:#fff;stroke:#fff">
        <path stroke="none" d="M16 72.5v-5l1-1v-1l1-1v-1l1-1v-1l1-1v-13l1-1v-1l.5-.5h1l.5-.5v-1l1.5-1.5-2-2h-1l-2-2 1.5-1.5v-1l.5-.5h1l1-1h1l1-1h1l1.5-1.5 3.5 3.5h1l1 1h3l1 1h1l1 1h1l1.5 1.5v1l1 1v1l1 1v5l-1 1v1l-1 1v1l-1 1v1l-1 1v1l-1 1v1l-1 1v1l-1 1v1l-1 1v3l2 2 2-2v-1l2-2 2 2v7l-1 1v1l-1 1v1L40.5 78h-1L38 79.5v1l-1 1v1L35.5 84l1.5 1.5v1l.5.5h1l1.5 1.5 1.5-1.5h1l.5-.5v-1l1-1v-1l1-1v-1l.5-.5h1l1-1h3l2 2-2 2h-1l-2 2 2 2h11l1 1h1l1 1h1l1 1h1l1 1h9l1-1h1l.5-.5v-1l.5-.5h1l1.5-1.5 2 2v3l-1 1v1l-.5.5h-1l-1 1h-1l-1 1h-1l-.5.5v1l-1 1v1l-1 1v1l-1 1v1l-1 1v1l-1 1v1l-1 1v1l-.5.5h-1l-1 1h-5l-1-1h-1l-1-1h-1l-1-1h-1l-1-1h-9l-1 1h-1l-1 1h-1l-1 1h-1l-1.5 1.5-1.5-1.5h-1l-1-1h-1l-1.5-1.5v-1l-1-1v-1l-1-1v-1l-1-1v-1l-.5-.5h-1l-1-1h-1l-1-1h-1l-1-1h-1L22 96.5v-1l-1-1v-1l-1-1v-3l2-2 1.5 1.5h1l.5.5v1l1 1v1l1.5 1.5h1l1 1h1l.5.5v1l.5.5h1l.5.5v1l.5.5h1l1 1h3l2-2-1.5-1.5v-1l-.5-.5h-1l-.5-.5v-1l-1-1v-1l-1-1v-1l-.5-.5h-1l-.5-.5v-1l-.5-.5h-1l-.5-.5v-1l-1-1v-1l-1-1v-1l-1-1v-3l-2-2-2 2v1l-2 2-1.5-1.5h-1l-.5-.5v-1l-1-1v-1l-1-1v-1Z" style="stroke:none"/>
    </g>
    <g stroke="none" style="stroke-linecap:round;fill:#fff;stroke:#fff">
        <path d="m29.5 32-.5-.5 3-3v-3l2-2 2 2v5L34.5 32Zm14-4 1.5-1.5v-1l1-1v-1l1.5-1.5h1l1-1h1l1-1h9l1-1h1l1-1h1l1-1h1l1.5-1.5 1.5 1.5h1l.5.5v1l1 1v5l1 1v1l.5.5h1l1 1h1l1 1h1l.5.5v1l.5.5h1l1.5 1.5 1.5-1.5h1l.5-.5v-1l.5-.5h1l1-1h5l1 1h1l1 1h1l1.5 1.5v1l1 1v1l1 1v7l-1 1v1L96.5 47l-.5-.5v-5l-2-2-2.5 2.5 1.5 1.5v1l3 3v15l-1 1v1l-.5.5h-1l-.5.5v1l-1 1v7l-2 2-2-2v-9l1.5-1.5h1l2-2-1.5-1.5v-1l-.5-.5h-1l-.5-.5v-1L87.5 56l1.5-1.5v-1l.5-.5h1l.5-.5v-1l1.5-1.5-2-2h-7l-1-1h-1l-1-1h-1L78 44.5v-1l-1-1v-1l-1-1v-1l-1-1v-1l-.5-.5h-1l-1-1h-5l-1 1h-1l-1 1h-1l-1 1h-1l-1 1h-1l-1 1h-1l-.5.5v1l-.5.5h-1L54 44.5 52.5 43h-1l-.5-.5v-1l-1-1v-1l-1-1v-1l-1-1v-1l-1-1v-1l-1-1v-1l-1-1v-1Z" style="stroke:none"/>
        <path d="m67.5 42 2.5-2.5 2.5 2.5-2.5 2.5ZM88 100.5v-9l1-1v-1l1-1v-1l1-1v-1l1-1v-1l1-1v-1l1-1v-1l1.5-1.5h1l1.5-1.5v-1l1-1v-1l1-1v-1l1-1v-1l1-1v-1l1-1v-1l1-1v-7l2-2 2 2v3l1 1v1l1 1v1l1 1v1l1 1v17l-1 1v1l-1 1v1l-1.5 1.5h-1l-1.5 1.5v1l-1.5 1.5h-1l-1.5 1.5v1l-1.5 1.5h-1L98 99.5v1l-1.5 1.5h-1l-1 1h-1l-1.5 1.5-1.5-1.5h-1l-.5-.5v-1Z" style="stroke:none"/>
    </g>
</svg>
