<svg xmlns="http://www.w3.org/2000/svg" width="128" height="128" style="fill-opacity:1;color-rendering:auto;color-interpolation:auto;text-rendering:auto;stroke:#000;stroke-linecap:square;stroke-miterlimit:10;shape-rendering:auto;stroke-opacity:1;fill:#000;stroke-dasharray:none;font-weight:400;stroke-width:1;font-family:&quot;Dialog&quot;;font-style:normal;stroke-linejoin:miter;font-size:12px;stroke-dashoffset:0;image-rendering:auto">
    <g style="stroke-linecap:round;fill:#fff;stroke:#fff">
        <path stroke="none" d="m19.5 62 2.5-2.5 2.5 2.5-2.5 2.5Z" style="stroke:none"/>
    </g>
    <g style="stroke-linecap:round;fill:#fff;stroke:#fff">
        <path stroke="none" d="M24 52.5v-5l1-1v-1l1-1v-1l1-1v-1l1-1v-5l1-1v-1l1-1v-1l1.5-1.5h1l1.5-1.5v-1l1-1v-1l.5-.5h1l1.5-1.5 2 2v1l1 1v1l3 3v5l-1 1v1l-1 1v1L40.5 42h-1L38 43.5v1l-1 1v1l-1 1v5l-1 1v1l-1 1v1l-1 1v1l-.5.5h-1L30 60.5 28.5 59h-1l-.5-.5v-1l-1-1v-1l-1-1v-1Zm0 24v-5l1-1v-1l1-1v-1l1-1v-1l.5-.5h1l1.5-1.5 2 2v3l1 1v1l1 1v1l1.5 1.5h1l1.5 1.5v1l1 1v1l1 1v1l1 1v1l1 1v1l1 1v1l1.5 1.5-1.5 1.5v1l-.5.5h-1l-.5.5v1l-1 1v5l.5.5 3-3h1l1-1h1l.5-.5v-1l.5-.5h1l1.5-1.5 2 2v1l2 2 2-2v-1l2-2 1.5 1.5h1l.5.5v1l.5.5h1l1 1h9l1 1h1l1 1h1l1 1h1l.5.5v1l1.5 1.5-2 2h-7l-1 1h-1l-1 1h-1l-1 1h-1l-1 1h-5l-1-1h-1l-1-1h-1l-1-1h-1l-1-1h-9l-1-1h-1l-.5-.5v-1l-1-1v-1l-3-3v-1l-.5-.5h-1l-.5-.5v-1l-1-1v-1L32.5 90h-1L30 88.5v-1l-1-1v-1l-1-1v-1l-1-1v-1l-1-1v-1l-1-1v-1ZM44.5 31l-.5-.5v-5l1-1v-1l.5-.5h1l1-1h1l1-1h1l1-1h3l2 2-1.5 1.5v1l-.5.5h-1l-1 1h-1l-1 1h-1l-1 1h-1Zm19-5 2-2h11l1 1h1l1 1h1l1.5 1.5v1l1.5 1.5h1l1.5 1.5v1l1.5 1.5h1l1.5 1.5v1l1.5 1.5h1l1.5 1.5v1l1.5 1.5h1l1 1h1l1 1h3l1 1h1l.5.5v1l.5.5h1l.5.5v1l1.5 1.5-1.5 1.5v1l-2.5 2.5-.5-.5v-5l-2-2-2.5 2.5 1.5 1.5v1l3 3v5l1 1v1l1 1v1l1 1v1l1 1v5l-1 1v1l-1 1v1l-1 1v1l-1 1v1l-1 1v1l-1 1v1l-1.5 1.5h-1L98 87.5v1L96.5 90h-1l-1 1h-1l-1 1h-1l-1 1h-1l-.5.5v1l-.5.5h-1L86 96.5l-2-2v-3l1-1v-1l1-1v-1l1-1v-1l1-1v-1l1-1v-1l1-1v-1l1-1v-1l1-1v-21l-1-1v-1l-1-1v-1L88.5 50h-1L86 48.5v-1l-1-1v-1l-1-1v-1l-1-1v-1l-1-1v-1L80.5 38h-1L78 36.5v-1L76.5 34h-1L74 32.5v-1L72.5 30h-1l-1-1h-1l-1-1h-3Zm28 4 2.5-2.5 2.5 2.5-2.5 2.5Z" style="stroke:none"/>
    </g>
</svg>
