<svg xmlns="http://www.w3.org/2000/svg" width="128" height="128" style="fill-opacity:1;color-rendering:auto;color-interpolation:auto;text-rendering:auto;stroke:#000;stroke-linecap:square;stroke-miterlimit:10;shape-rendering:auto;stroke-opacity:1;fill:#000;stroke-dasharray:none;font-weight:400;stroke-width:1;font-family:&quot;Dialog&quot;;font-style:normal;stroke-linejoin:miter;font-size:12px;stroke-dashoffset:0;image-rendering:auto">
    <g style="stroke-linecap:round;fill:#989aa4;stroke:#989aa4">
        <path stroke="none" d="M.5 1V.5H1L14.5 14 20 8.5v6L14.5 20h-6l5.5-5.5Z" style="stroke:none"/>
    </g>
    <g stroke="none" style="stroke-linecap:round;fill:#6e7080;stroke:#6e7080">
        <path d="M14 14.5 8.5 20h-8V1Z" style="stroke:none"/>
        <path d="M.5 28v-8H8v8Z" style="fill:#bc5452;stroke:none"/>
        <path d="M.5 100V28H8v72Z" style="stroke:none"/>
        <path d="M.5 108v-8H8v8Z" style="fill:#bc5452;stroke:none"/>
        <path d="M1 .5h19v8L14.5 14Z" style="fill:#b0bac0;stroke:none"/>
        <path d="M8 28v-8h6.5l5.5-5.5V8h8v9.5L17.5 28Z" style="fill:#ea8878;stroke:none"/>
        <path d="M8 52V28h9.5L28 17.5V8h24v4h-8.5l-7 7h-5L19 31.5v5l-7 7V52Z" style="fill:#989aa4;stroke:none"/>
        <path d="M8 76V52h4v24Z" style="fill:#ea8878;stroke:none"/>
        <path d="M8 100V76h4v8.5l7 7v5L31.5 109h5l7 7H52v4H28v-9.5L17.5 100Z" style="fill:#989aa4;stroke:none"/>
        <path d="M8 108v-8h9.5L28 110.5v9.5h-8v-6.5l-5.5-5.5Z" style="fill:#ea8878;stroke:none"/>
        <path d="M20 119.5v8H.5V108h8Z" style="stroke:none"/>
        <path d="M8.5 108h6l5.5 5.5v6Z" style="fill:#989aa4;stroke:none"/>
        <path d="M12.5 52H12v-8.5l7-7v-3l4.5 4.5h4l2 2-9.5 9.5v10Z" style="stroke:none"/>
        <path d="M20 59.5v9L12.5 76H12V52h.5Z" style="fill:#bc5452;stroke:none"/>
        <path d="M12 84.5V76h.5l7.5-7.5v10l9.5 9.5-2 2h-4L19 94.5v-3Z" style="stroke:none"/>
        <path d="M19 33.5v-2l6-6 7.5 7.5-5 5h-4Zm0 63v-2l4.5-4.5h4L38 100.5v4l-4.5 4.5h-2Z" style="fill:#bc5452;stroke:none"/>
        <path d="M20 8V.5h8V8Z" style="fill:#feb380;stroke:none"/>
        <path d="m26 26.5-1-1 .5-.5.5.5Z" style="fill:#ea8878;stroke:none"/>
        <path d="m25.5 25 6-6h2l4.5 4.5v4l-5 5Z" style="fill:#feb380;stroke:none"/>
        <path d="m28 28.5-3-3 .5-.5 2.5 2.5Z" style="fill:#ea8878;stroke:none"/>
        <path d="M28 127.5h-8V120h8Z" style="fill:#bc5452;stroke:none"/>
        <path d="M28 8V.5h72V8Z" style="fill:#b0bac0;stroke:none"/>
        <path d="m27.5 38 5-5-7.5-7.5.5-.5 7.5 7.5 5-5 11 11-5 5 6.5 6.5-.5.5-6.5-6.5-5 5Zm0 52 11-11L49 89.5l-11 11Z" style="fill:#ea8878;stroke:none"/>
        <path d="m29.5 51-.5-.5v-3l.5-.5h3l.5.5v3l-.5.5Z" style="fill:#ffeee6;stroke:none"/>
        <path d="M33.5 19h3l7-7H52v.5l7.5 7.5h-10L40 29.5l-2-2v-4Z" style="fill:#b0bac0;stroke:none"/>
        <path d="m33.5 109 4.5-4.5v-4l2-2 9.5 9.5h10l-7.5 7.5v.5h-8.5l-7-7Z" style="stroke:none"/>
        <path d="M36 73.5v-19l3.5-3.5 5 5-.5.5v15l.5.5-5 5Z" style="fill:#b0bac0;stroke:none"/>
        <path d="m38.5 49 5-5 6.5 6.5-5.5 5.5-5-5 .5-.5Zm0 30 1.5-1.5-.5-.5 5-5L56 83.5l-5 5-.5-.5-1.5 1.5Z" style="fill:#feb380;stroke:none"/>
        <path d="m44 43.5 5-5 1.5 1.5.5-.5 5 5-5.5 5.5Z" style="fill:#bc5452;stroke:none"/>
        <path d="M44 71.5v-15l6-6 6.5 6.5-5.5 5.5v3L62.5 77h3l5.5-5.5 6.5 6.5-6 6h-15Z" style="stroke:none"/>
        <path d="m46 30.5 5.5-5.5h10l1 1-.5.5v1l.5.5-1 1h-8L49 33.5Z" style="fill:#ffeee6;stroke:none"/>
        <path d="m51 51.5-1-1 .5-.5.5.5Z" style="fill:#989aa4;stroke:none"/>
        <path d="m51 39.5 3.5-3.5h19l3.5 3.5-5 5-.5-.5h-15l-.5.5Z" style="stroke:none"/>
        <path d="m50.5 50 6-6h15L84 56.5v15l-6 6-6.5-6.5 5.5-5.5v-3L65.5 51h-3L57 56.5Zm.5 15.5v-3l5.5-5.5 2.5 2.5-4.5 4.5 9.5 9.5 4.5-4.5 2.5 2.5-5.5 5.5h-3Zm0 23 5-5 .5.5h15l.5-.5 5 5-3.5 3.5h-19Z" style="fill:#b0bac0;stroke:none"/>
        <path d="M52 12V8h24v4Z" style="fill:#ea8878;stroke:none"/>
        <path d="M52 12.5V12h24v.5L68.5 20h-9Z" style="fill:#feb380;stroke:none"/>
        <path d="m53 53.5-3-3 .5-.5 2.5 2.5Z" style="fill:#989aa4;stroke:none"/>
        <path d="M52 116v-.5l7.5-7.5h9l7.5 7.5v.5Z" style="fill:#bc5452;stroke:none"/>
        <path d="M52 120v-4h24v4Z" style="fill:#ea8878;stroke:none"/>
        <path d="m55 55.5-5-5 .5-.5 4.5 4.5Z" style="fill:#989aa4;stroke:none"/>
        <path d="m54.5 64 4.5-4.5-9-9 .5-.5 9 9 4.5-4.5 9.5 9.5-4.5 4.5 9.5 9.5-.5.5-9.5-9.5-4.5 4.5Z" style="fill:#989aa4;stroke:none"/>
        <path d="m57 56.5 5.5-5.5h3L77 62.5v3L71.5 71 69 68.5l4.5-4.5-9.5-9.5-4.5 4.5Z" style="stroke:none"/>
        <path d="m67.5 29-.5-.5v-3l.5-.5h7l.5.5v3l-.5.5Z" style="fill:#ffeee6;stroke:none"/>
        <path d="m68.5 20 7.5-7.5V12h8.5l7 7h3L90 23.5v4l-2 2-9.5-9.5Z" style="fill:#b0bac0;stroke:none"/>
        <path d="M68.5 108h10l9.5-9.5 2 2v4l4.5 4.5h-3l-7 7H76v-.5Z" style="stroke:none"/>
        <path d="m72 44.5 5-5 .5.5 1.5-1.5L89.5 49 88 50.5l.5.5-5 5Z" style="fill:#bc5452;stroke:none"/>
        <path d="m72 83.5 5.5-5.5 6.5 6.5-5 5-1.5-1.5-.5.5Z" style="fill:#feb380;stroke:none"/>
        <path d="M76 12V8h24v9.5L110.5 28h9.5v24h-4v-8.5l-7-7v-5L96.5 19h-5l-7-7Zm0 108v-4h8.5l7-7h5L109 96.5v-5l7-7V76h4v24h-9.5L100 110.5v9.5Z" style="fill:#989aa4;stroke:none"/>
        <path d="m77.5 99-.5-.5v-3l.5-.5h3l.5.5V99Z" style="fill:#ffeee6;stroke:none"/>
        <path d="m78 77.5 5.5-5.5 5 5-.5.5 1.5 1.5-5 5Z" style="fill:#bc5452;stroke:none"/>
        <path d="m79 79.5-1-1 .5-.5.5.5Z" style="fill:#ea8878;stroke:none"/>
        <path d="m79.5 33-.5-.5v-3l.5-.5h3l.5.5v3l-.5.5Z" style="fill:#ffeee6;stroke:none"/>
        <path d="m79 38.5 11-11L100.5 38l-11 11Zm0 51 5-5-6-6 .5-.5 6 6 5-5 11 11-5 5 7.5 7.5-.5.5-7.5-7.5-5 5Z" style="fill:#ea8878;stroke:none"/>
        <path d="m83.5 72 .5-.5v-15l-.5-.5 5-5 3.5 3.5v19L88.5 77Z" style="stroke:none"/>
        <path d="M90 27.5v-4l4.5-4.5h2L109 31.5v2l-4.5 4.5h-4Z" style="fill:#feb380;stroke:none"/>
        <path d="M90 104.5v-4l5-5 7.5 7.5-6 6h-2Z" style="fill:#bc5452;stroke:none"/>
        <path d="m95.5 49-.5-.5v-3l.5-.5h3l.5.5v3l-.5.5Zm-1 30 4.5-4.5v-8l.5-.5h3l.5.5v10L97.5 82Z" style="fill:#ffeee6;stroke:none"/>
        <path d="m95.5 95 5-5h4l4.5 4.5v2l-6 6Z" style="fill:#feb380;stroke:none"/>
        <path d="m98.5 40 2-2h4l4.5-4.5v3l7 7V52h-.5l-7.5 7.5v-10Z" style="fill:#b0bac0;stroke:none"/>
        <path d="m99.5 61-.5-.5v-7l.5-.5h3l.5.5v7l-.5.5Z" style="fill:#ffeee6;stroke:none"/>
        <path d="m98.5 88 9.5-9.5v-10l7.5 7.5h.5v8.5l-7 7v3l-4.5-4.5h-4Z" style="fill:#b0bac0;stroke:none"/>
        <path d="M100 127.5H28V120h72Z" style="stroke:none"/>
        <path d="M100 8V.5h8V8Z" style="fill:#feb380;stroke:none"/>
        <path d="M100 17.5V8h8v6.5l5.5 5.5h6.5v8h-9.5Zm0 102.5v-9.5l10.5-10.5h9.5v8h-6.5l-5.5 5.5v6.5Z" style="fill:#ea8878;stroke:none"/>
        <path d="M108 127.5h-8V120h8Z" style="fill:#bc5452;stroke:none"/>
        <path d="M108 8.5v-8h19.5V20h-8Z" style="fill:#b0bac0;stroke:none"/>
        <path d="M119.5 20h-6l-5.5-5.5v-6Z" style="fill:#989aa4;stroke:none"/>
        <path d="M108 68.5v-9l7.5-7.5h.5v24h-.5Z" style="fill:#feb380;stroke:none"/>
        <path d="M108 119.5v-6l5.5-5.5h6l-5.5 5.5 13.5 13.5v.5h-.5L113.5 114Z" style="fill:#989aa4;stroke:none"/>
        <path d="M127 127.5h-19v-8l5.5-5.5Z" style="stroke:none"/>
        <path d="m114 113.5 5.5-5.5h8v19Z" style="fill:#b0bac0;stroke:none"/>
        <path d="M116 76V52h4v24Z" style="fill:#ea8878;stroke:none"/>
        <path d="M120 28v-8h7.5v8Z" style="fill:#feb380;stroke:none"/>
        <path d="M120 100V28h7.5v72Z" style="fill:#b0bac0;stroke:none"/>
        <path d="M120 108v-8h7.5v8Z" style="fill:#feb380;stroke:none"/>
    </g>
</svg>
