<svg xmlns="http://www.w3.org/2000/svg" width="128" height="128" style="fill-opacity:1;color-rendering:auto;color-interpolation:auto;text-rendering:auto;stroke:#000;stroke-linecap:square;stroke-miterlimit:10;shape-rendering:auto;stroke-opacity:1;fill:#000;stroke-dasharray:none;font-weight:400;stroke-width:1;font-family:&quot;Dialog&quot;;font-style:normal;stroke-linejoin:miter;font-size:12px;stroke-dashoffset:0;image-rendering:auto">
    <g style="stroke-linecap:round;fill:#fff;stroke:#fff">
        <path stroke="none" d="m19.5 64 1.5-1.5v-1l.5-.5h1l1.5-1.5 1.5 1.5h1l.5.5v1l1.5 1.5-1.5 1.5v1l-.5.5h-1L24 68.5 22.5 67h-1l-.5-.5v-1Z" style="stroke:none"/>
    </g>
    <g style="stroke-linecap:round;fill:#fff;stroke:#fff">
        <path stroke="none" d="m19.5 78 2.5-2.5 2 2v1l2 2 2-2v-5l2-2 2 2v3l1 1v1l1 1v1l1.5 1.5h1l1.5 1.5v1l1 1v1l1 1v1l1 1v1l.5.5h1l1 1h1l1 1h1l1 1h1l1.5 1.5v1l1.5 1.5h1l1 1h1l1 1h3l2 2-2 2h-3l-1 1h-1l-1 1h-1l-1 1h-1l-1.5 1.5-1.5-1.5h-1l-1-1h-1l-1.5-1.5v-1l-1.5-1.5h-1l-1.5-1.5v-1L36.5 98h-1L34 96.5v-1l-1-1v-1l-1-1v-1l-1-1v-1l-1-1v-1L28.5 86h-1l-1-1h-1l-.5-.5v-1l-.5-.5h-1l-.5-.5v-1l-.5-.5h-1l-.5-.5v-1Zm4-32 1.5-1.5v-1l.5-.5h1l.5-.5v-1l1-1v-5l1-1v-1l.5-.5h1l1-1h5l1-1h1l1-1h1l1-1h1l1.5-1.5 1.5 1.5h1l1 1h1l1 1h1l.5.5v1l1.5 1.5-1.5 1.5v1l-.5.5h-1l-1 1h-1L46 39.5v1L44.5 42h-1L42 43.5v1L40.5 46h-1L38 47.5v1L36.5 50h-1L34 51.5v1l-1 1v1l-.5.5h-1L30 56.5l-2-2v-3l-1-1v-1l-.5-.5h-1l-.5-.5v-1Zm32-20 2-2h3l1-1h1l.5-.5v-1l.5-.5h1l1.5-1.5 1.5 1.5h1l.5.5v1l.5.5h1l1 1h3l1 1h1l.5.5v1l.5.5h1l.5.5v1l1 1v1l2 2 1.5-1.5h1l.5-.5v-1l.5-.5h1l1.5-1.5 1.5 1.5h1l.5.5v1l1 1v1l1 1v1l1 1v1l1.5 1.5h1l1 1h1l.5.5v1l1.5 1.5-1.5 1.5v1l-.5.5h-1l-1 1h-1l-1 1h-1L92 48.5 90.5 47h-1l-1-1h-1L86 44.5v-1L84.5 42h-1l-1-1h-1l-1-1h-1l-1-1h-1l-.5-.5v-1l-1-1v-7l-2-2-2 2v3l-1 1v1l-.5.5h-1l-1 1h-5l-1-1h-1l-.5-.5v-1l-1-1v-1l-1-1v-1l-.5-.5h-1l-.5-.5v-1Zm8 80 2.5-2.5 2.5 2.5-2.5 2.5Zm4-12 1.5-1.5v-1l.5-.5h1l1-1h1l1-1h1l1-1h1l1-1h1l1-1h1l1-1h1l1-1h1l1-1h1l1-1h1l1.5-1.5v-1l1.5-1.5h1l1.5-1.5v-1l1-1v-1l.5-.5h1l1.5-1.5 2 2v7l-1 1v1l-1 1v1L96.5 86h-1L94 87.5v1l-1 1v1l-1 1v5l-1 1v1l-.5.5h-1l-1.5 1.5-1.5-1.5h-1l-.5-.5v-1l-.5-.5h-1L82 95.5 80.5 97h-1l-.5.5v1l-.5.5h-1l-1.5 1.5-1.5-1.5h-1l-1-1h-1l-1-1h-1l-.5-.5v-1ZM96 62.5v-5l2-2 2 2v5l-2 2Z" style="stroke:none"/>
    </g>
</svg>
