<svg xmlns="http://www.w3.org/2000/svg" width="128" height="128" style="fill-opacity:1;color-rendering:auto;color-interpolation:auto;text-rendering:auto;stroke:#000;stroke-linecap:square;stroke-miterlimit:10;shape-rendering:auto;stroke-opacity:1;fill:#000;stroke-dasharray:none;font-weight:400;stroke-width:1;font-family:&quot;Dialog&quot;;font-style:normal;stroke-linejoin:miter;font-size:12px;stroke-dashoffset:0;image-rendering:auto">
    <g style="stroke-linecap:round;fill:#fff;stroke:#fff">
        <path stroke="none" d="M24 58.5v-11l1-1v-1l1-1v-1l1-1v-1l1-1v-3l1-1v-1l.5-.5h1l.5-.5v-1l.5-.5h1l1.5-1.5 2.5 2.5-1.5 1.5v1l-.5.5h-1l-.5.5v1L31.5 40l1.5 1.5v1l.5.5h1l.5.5v1l1.5 1.5-1.5 1.5v1l-.5.5h-1l-1 1h-1L30 51.5v1l-1 1v1L27.5 56l1.5 1.5v1l.5.5h1l.5.5v1l1 1v5l-1 1v1l-.5.5h-1l-.5.5v1l-.5.5h-1L26 72.5 23.5 70l1.5-1.5v-1l.5-.5h1l.5-.5v-1l1.5-1.5-1.5-1.5v-1l-.5-.5h-1l-.5-.5v-1Z" style="stroke:none"/>
    </g>
    <g style="stroke-linecap:round;fill:#fff;stroke:#fff">
        <path stroke="none" d="m23.5 80 1.5-1.5v-1l.5-.5h1l1.5-1.5 1.5 1.5h1l.5.5v1l1 1v3l2 2 2-2v-1l2-2 2 2v3l1 1v1l1 1v1l1.5 1.5h1l1 1h1l1 1h13l1 1h1l1 1h1l1 1h1l1 1h3l2 2-2 2h-3l-1 1h-1l-1 1h-1l-1 1h-1l-1 1h-17l-1-1h-1l-1-1h-1l-1.5-1.5v-1L36.5 98h-1L34 96.5v-1L32.5 94h-1L30 92.5v-1l-1-1v-1l-1-1v-1l-1-1v-1l-1-1v-1l-1-1v-1Zm28-54 2-2h23l1 1h1l1 1h1l1 1h1l1 1h5l1 1h1l1 1h1l1.5 1.5v1l1.5 1.5h1l1.5 1.5v1l1 1v1l1 1v9l-1 1v1l-1 1v1l-1 1v1l-.5.5h-1L94 56.5 92.5 55h-1l-.5-.5v-1l-1-1v-1l-1-1v-1l-1-1v-5l-1-1v-1l-1-1v-1L84.5 38h-1l-1-1h-1l-1-1h-1l-1-1h-1l-.5-.5v-1l-.5-.5h-1L74 31.5l-2 2v1l-2 2-1.5-1.5h-1l-.5-.5v-1l-.5-.5h-1l-1-1h-1l-1-1h-1l-1-1h-1l-1-1h-1l-1-1h-3Zm0 8 2.5-2.5 2.5 2.5-2.5 2.5Zm24 64 1.5-1.5v-1l.5-.5h1l.5-.5v-1l.5-.5h1l.5-.5v-1l.5-.5h1l1-1h1l1.5-1.5v-1l1-1v-1l1-1v-1l1-1v-1l1-1v-1l1-1v-1l1-1v-1l1-1v-1l1-1v-1l1-1v-1l1-1v-1l1-1v-1l1-1v-1l1-1v-1l1-1v-3l2-2 2 2v11l-1 1v1l-1 1v1l-1 1v1L99.5 76l1.5 1.5v1l.5.5h1l.5.5v1l1.5 1.5-1.5 1.5v1l-.5.5h-1l-1 1h-1L98 87.5v1L96.5 90h-1L94 91.5v1L92.5 94h-1L90 95.5v1l-1 1v1l-.5.5h-1l-1.5 1.5-2-2v-1l-2-2-2 2v1l-2 2Z" style="stroke:none"/>
    </g>
</svg>
