<svg xmlns="http://www.w3.org/2000/svg" width="160" height="160" style="fill-opacity:1;color-rendering:auto;color-interpolation:auto;text-rendering:auto;stroke:#000;stroke-linecap:square;stroke-miterlimit:10;shape-rendering:auto;stroke-opacity:1;fill:#000;stroke-dasharray:none;font-weight:400;stroke-width:1;font-family:&quot;Dialog&quot;;font-style:normal;stroke-linejoin:miter;font-size:12px;stroke-dashoffset:0;image-rendering:auto">
    <g style="stroke-linecap:round;fill:#2e2f34;stroke:#2e2f34">
        <path stroke="none" d="M.5 27V13L13 .5h14L30.5 4h14L48 .5h18L70.5 5h19L94 .5h18l3.5 3.5h14L133 .5h14L159.5 13v14l-3.5 3.5v14l3.5 3.5v18l-4.5 4.5v19l4.5 4.5v18l-3.5 3.5v14l3.5 3.5v14L147 159.5h-14l-3.5-3.5h-14l-3.5 3.5H94l-4.5-4.5h-19l-4.5 4.5H48l-3.5-3.5h-14l-3.5 3.5H13L.5 147v-14l3.5-3.5v-14L.5 112V94L5 89.5v-19L.5 66V48L4 44.5v-14Z" style="stroke:none"/>
    </g>
</svg>
