<svg xmlns="http://www.w3.org/2000/svg" width="32" height="32" style="fill-opacity:1;color-rendering:auto;color-interpolation:auto;text-rendering:auto;stroke:#000;stroke-linecap:square;stroke-miterlimit:10;shape-rendering:auto;stroke-opacity:1;fill:#000;stroke-dasharray:none;font-weight:400;stroke-width:1;font-family:&quot;Dialog&quot;;font-style:normal;stroke-linejoin:miter;font-size:12px;stroke-dashoffset:0;image-rendering:auto">
    <g style="stroke-linecap:round;fill:#6e7080;stroke:#6e7080">
        <path stroke="none" d="M.5 27V5l2-2 4 4L4 9.5v13L9.5 28h13l2.5-2.5 4 4-2 2H5Z" style="stroke:none"/>
    </g>
    <g stroke="none" style="stroke-linecap:round;fill:#b0bac0;stroke:#b0bac0">
        <path d="m3 2.5 2-2h22L31.5 5v22l-2 2-4-4 2.5-2.5v-13L22.5 4h-13L7 6.5Z" style="stroke:none"/>
        <path d="M4 4.5 2.5 3l.5-.5 1 1Z" style="fill:#989aa4;stroke:none"/>
        <path d="M4 12V9.5L9.5 4H12v4h-.5L8 11.5v.5Z" style="fill:#fbd367;stroke:none"/>
        <path d="M4 20v-8h4v8Z" style="fill:#fb9567;stroke:none"/>
        <path d="M4 22.5V20h4v.5l3.5 3.5h.5v4H9.5Z" style="fill:#fbd367;stroke:none"/>
        <path d="M6 6.5 2.5 3l.5-.5 3 3Zm2 14v-9L11.5 8h9l3.5 3.5v9L20.5 24h-9Z" style="fill:#989aa4;stroke:none"/>
        <path d="M12 14.5v3l2.5 2.5h3l2.5-2.5v-3L17.5 12h-3Z" style="fill:#989aa4;stroke:none"/>
        <path d="M12 8V4h8v4Z" style="fill:#fb9567;stroke:none"/>
        <path d="M12 17.5v-3l2.5-2.5h3l2.5 2.5v3L17.5 20h-3Z" style="stroke:none"/>
        <path d="M12 28v-4h8v4Z" style="fill:#fb9567;stroke:none"/>
        <path d="M20.5 8H20V4h2.5L28 9.5V12h-4v-.5ZM20 28v-4h.5l3.5-3.5V20h4v2.5L22.5 28Z" style="fill:#fbd367;stroke:none"/>
        <path d="M24 20v-8h4v8Z" style="fill:#fb9567;stroke:none"/>
        <path d="m26 26.5-1-1 .5-.5.5.5Z" style="fill:#989aa4;stroke:none"/>
        <path d="m28 28.5-3-3 .5-.5 2.5 2.5Z" style="fill:#989aa4;stroke:none"/>
    </g>
</svg>
