<svg xmlns="http://www.w3.org/2000/svg" width="32" height="32" style="fill-opacity:1;color-rendering:auto;color-interpolation:auto;text-rendering:auto;stroke:#000;stroke-linecap:square;stroke-miterlimit:10;shape-rendering:auto;stroke-opacity:1;fill:#000;stroke-dasharray:none;font-weight:400;stroke-width:1;font-family:&quot;Dialog&quot;;font-style:normal;stroke-linejoin:miter;font-size:12px;stroke-dashoffset:0;image-rendering:auto">
    <g style="stroke-linecap:round;fill:#989aa4;stroke:#989aa4">
        <path stroke="none" d="M.5 1V.5H1L9.5 9l-.5.5Z" style="stroke:none"/>
    </g>
    <g stroke="none" style="stroke-linecap:round;fill:#6e7080;stroke:#6e7080">
        <path d="m4.5 5-.5.5v20L6.5 28h20l.5-.5 4 4H.5V1Z" style="stroke:none"/>
        <path d="M1 .5h30.5V31l-4-4 .5-.5v-20L25.5 4h-20l-.5.5Zm8 9-1 1v11l2.5 2.5h11l1-1 4.5 4.5-.5.5h-20L4 25.5v-20l.5-.5Z" style="fill:#b0bac0;stroke:none"/>
        <path d="m5 4.5.5-.5h20L28 6.5v20l-.5.5-4.5-4.5 1-1v-11L21.5 8h-11l-1 1Z" style="stroke:none"/>
        <path d="M8 12v-1.5L10.5 8h11l2.5 2.5V12Z" style="fill:#464a61;stroke:none"/>
        <path d="M8 16v-4h16v4Z" style="fill:#545873;stroke:none"/>
        <path d="M8 20v-4h16v4Z" style="fill:#464a61;stroke:none"/>
        <path d="M8 21.5V20h16v1.5L21.5 24h-11Z" style="fill:#545873;stroke:none"/>
        <path d="M24 24.5 22.5 23l.5-.5 1 1Z" style="fill:#989aa4;stroke:none"/>
        <path d="M26 26.5 22.5 23l.5-.5 3 3Z" style="fill:#989aa4;stroke:none"/>
        <path d="M28 28.5 22.5 23l.5-.5 5 5Z" style="fill:#989aa4;stroke:none"/>
        <path d="M30 30.5 22.5 23l.5-.5 7 7Z" style="fill:#989aa4;stroke:none"/>
    </g>
</svg>
