<svg xmlns="http://www.w3.org/2000/svg" width="96" height="96" style="fill-opacity:1;color-rendering:auto;color-interpolation:auto;text-rendering:auto;stroke:#000;stroke-linecap:square;stroke-miterlimit:10;shape-rendering:auto;stroke-opacity:1;fill:#000;stroke-dasharray:none;font-weight:400;stroke-width:1;font-family:&quot;Dialog&quot;;font-style:normal;stroke-linejoin:miter;font-size:12px;stroke-dashoffset:0;image-rendering:auto">
    <g style="stroke-linecap:round;fill:#989aa4;stroke:#989aa4">
        <path stroke="none" d="M.5 2V.5H2L5.5 4h8L10 7.5l3 3-2.5 2.5-3-3L4 13.5v-8Z" style="stroke:none"/>
    </g>
    <g stroke="none" style="stroke-linecap:round;fill:#6e7080;stroke:#6e7080">
        <path d="M4 5.5v83L7.5 92h83l3.5 3.5H.5V2Z" style="stroke:none"/>
        <path d="M2 .5h93.5V94L92 90.5v-83L88.5 4h-83Zm2 83v-70L7.5 10l3 3L8 15.5v65l7.5 7.5h65l2.5-2.5 3 3-3.5 3.5h-70Z" style="fill:#b0bac0;stroke:none"/>
        <path d="M12.5 92h-5L4 88.5v-5Z" style="fill:#989aa4;stroke:none"/>
        <path d="M8 16v-.5l4-4 .5.5h11l.5-.5 4 4-.5.5Z" style="fill:#464a61;stroke:none"/>
        <path d="M8 16.5V16h19.5l.5-.5 4 4-.5.5h-19l-.5.5Z" style="fill:#545873;stroke:none"/>
        <path d="M28 36.5v7l-20-20v-7Z" style="fill:#73789a;stroke:none"/>
        <path d="m12 27.5-.5.5H8v-4.5Z" style="fill:#545873;stroke:none"/>
        <path d="M8 32v-4h3.5l.5-.5 4 4-.5.5Z" style="fill:#464a61;stroke:none"/>
        <path d="M8 36v-4h7.5l.5-.5 4 4-.5.5Z" style="fill:#545873;stroke:none"/>
        <path d="M8 40v-4h11.5l.5-.5 4 4-.5.5Z" style="fill:#464a61;stroke:none"/>
        <path d="M8 44v-4h15.5l.5-.5 4 4v.5Z" style="fill:#545873;stroke:none"/>
        <path d="M8 48v-4h20v4Z" style="fill:#464a61;stroke:none"/>
        <path d="M8 52v-4h20v4Z" style="fill:#545873;stroke:none"/>
        <path d="M8 52.5V52h20v4H12.5l-.5.5Z" style="fill:#464a61;stroke:none"/>
        <path d="M43.5 88h-7L8 59.5v-7Z" style="fill:#73789a;stroke:none"/>
        <path d="m12 63.5-.5.5H8v-4.5Z" style="fill:#464a61;stroke:none"/>
        <path d="M8 68v-4h3.5l.5-.5 4 4-.5.5Z" style="fill:#545873;stroke:none"/>
        <path d="M8 72v-4h7.5l.5-.5 4 4-.5.5Z" style="fill:#464a61;stroke:none"/>
        <path d="M8 76v-4h11.5l.5-.5 4 4-.5.5Z" style="fill:#545873;stroke:none"/>
        <path d="M8 80v-4h15.5l.5-.5 4 4-.5.5Z" style="fill:#464a61;stroke:none"/>
        <path d="M8 80.5V80h19.5l.5-.5 4 4-.5.5h-19l-.5.5Z" style="fill:#545873;stroke:none"/>
        <path d="M10 7.5 13.5 4h70l8.5 8.5v70L88.5 86l-3-3 2.5-2.5v-66L81.5 8h-66L13 10.5Z" style="stroke:none"/>
        <path d="m12.5 12-.5-.5L15.5 8h5l3.5 3.5-.5.5Z" style="fill:#545873;stroke:none"/>
        <path d="m12 20.5.5-.5h19l.5-.5 4 4-.5.5h-19l-.5.5Z" style="fill:#464a61;stroke:none"/>
        <path d="m12 56.5.5-.5H28v4H16.5l-.5.5Z" style="fill:#545873;stroke:none"/>
        <path d="m12 84.5.5-.5h19l.5-.5 4.5 4.5h-21Z" style="fill:#464a61;stroke:none"/>
        <path d="m16 24.5.5-.5h19l.5-.5 4.5 4.5h-20l-.5.5Z" style="fill:#545873;stroke:none"/>
        <path d="m16 60.5.5-.5h12l3.5 3.5-.5.5h-11l-.5.5Zm4-32 .5-.5h16l-4 4h-8l-.5.5Z" style="fill:#464a61;stroke:none"/>
        <path d="m20 64.5.5-.5h11l.5-.5 4.5 4.5h-12l-.5.5Z" style="fill:#545873;stroke:none"/>
        <path d="M20.5 8h11l20 20h-11Z" style="fill:#73789a;stroke:none"/>
        <path d="m24 32.5.5-.5h8L28 36.5Z" style="fill:#545873;stroke:none"/>
        <path d="m24 68.5.5-.5h28l3.5 3.5-.5.5h-27l-.5.5Z" style="fill:#464a61;stroke:none"/>
        <path d="M28.5 60H28V36.5l3.5-3.5 3 3-2.5 2.5v19l6.5 6.5h19l2.5-2.5 3 3-3 3v.5H36.5Z" style="stroke:none"/>
        <path d="m28 72.5.5-.5h27l.5-.5 4 4-.5.5h-27l-.5.5ZM31.5 8h29l3.5 3.5-.5.5h-27l-.5.5Z" style="fill:#545873;stroke:none"/>
        <path d="m31.5 33 1.5-1.5 5.5 5.5 1-1h17l3.5 3.5v3L55.5 38h-15L36 42.5v-3l1-1Z" style="fill:#989aa4;stroke:none"/>
        <path d="M32 57.5v-19l2.5-2.5 2.5 2.5-1 1v17l3.5 3.5h17l1-1 2.5 2.5-2.5 2.5h-19Z" style="fill:#b0bac0;stroke:none"/>
        <path d="m32 76.5.5-.5h27l.5-.5 4 4-.5.5h-27l-.5.5Z" style="fill:#464a61;stroke:none"/>
        <path d="m33 31.5 3.5-3.5h24l7.5 7.5V60h-.5l-3 3-3-3 2.5-2.5v-20L58.5 32h-20L36 34.5Z" style="fill:#b0bac0;stroke:none"/>
        <path d="m36 12.5.5-.5h27l.5-.5 4 4-.5.5h-27l-.5.5Z" style="fill:#464a61;stroke:none"/>
        <path d="m36 34.5 2.5-2.5h20l5.5 5.5v20L61.5 60 59 57.5l1-1v-17L56.5 36h-17l-1 1Z" style="stroke:none"/>
        <path d="M36 44.5v-2l4.5-4.5h15l4.5 4.5v2L56.5 48l3.5 3.5v2L55.5 58h-15L36 53.5v-2l3.5-3.5Z" style="fill:#f8c266;stroke:none"/>
        <path d="M39.5 48 36 51.5v-7Zm1 10h15l4.5-4.5v3l-1 1 5.5 5.5-1.5 1.5-5.5-5.5-1 1h-17L36 56.5v-3Z" style="fill:#989aa4;stroke:none"/>
        <path d="m36 80.5.5-.5h27l.5-.5 4 4-.5.5h-27l-.5.5Z" style="fill:#545873;stroke:none"/>
        <path d="m39 43.5 2.5 2.5h13l2.5-2.5-2.5-2.5h-13Zm0 9 2.5 2.5h13l2.5-2.5-2.5-2.5h-13Z" style="fill:#f8c266;stroke:none"/>
        <path d="m39 43.5 2.5-2.5h13l2.5 2.5-2.5 2.5h-13Zm0 9 2.5-2.5h13l2.5 2.5-2.5 2.5h-13Z" style="fill:#989aa4;stroke:none"/>
        <path d="m40 16.5.5-.5h27l.5-.5 4 4-.5.5h-27l-.5.5Z" style="fill:#545873;stroke:none"/>
        <path d="m40 84.5.5-.5h27l.5-.5 4.5 4.5h-29Zm4-64 .5-.5h27l.5-.5 4 4-.5.5h-27l-.5.5Z" style="fill:#464a61;stroke:none"/>
        <path d="m48 24.5.5-.5h27l.5-.5 4 4-.5.5h-28Z" style="fill:#545873;stroke:none"/>
        <path d="M52.5 68H60v.5L79.5 88h-7Z" style="fill:#73789a;stroke:none"/>
        <path d="m56.5 48 3.5-3.5v7Z" style="fill:#989aa4;stroke:none"/>
        <path d="M60 68v-.5l4-4 .5.5h11l.5-.5 4 4-.5.5Z" style="fill:#545873;stroke:none"/>
        <path d="M60 68.5V68h19.5l.5-.5 4 4-.5.5h-19l-.5.5Z" style="fill:#464a61;stroke:none"/>
        <path d="M60.5 8h11L88 24.5v11Z" style="fill:#73789a;stroke:none"/>
        <path d="M60.5 28h19l.5-.5 4 4-.5.5h-18l-.5.5Zm4 36-.5-.5 3.5-3.5h4l.5-.5 4 4-.5.5Z" style="fill:#464a61;stroke:none"/>
        <path d="m64 72.5.5-.5h19l.5-.5 4 4v.5H68.5l-.5.5Zm1-40 .5-.5h18l.5-.5 4 4v.5H68v-.5Z" style="fill:#545873;stroke:none"/>
        <path d="M68 40v-4h20v4Z" style="fill:#464a61;stroke:none"/>
        <path d="M68 44v-4h20v4Z" style="fill:#545873;stroke:none"/>
        <path d="M68 44.5V44h20v4H72.5l-.5.5Z" style="fill:#464a61;stroke:none"/>
        <path d="M88 64.5v11l-20-20v-11Z" style="fill:#73789a;stroke:none"/>
        <path d="m72 59.5-.5.5H68v-4.5Z" style="fill:#545873;stroke:none"/>
        <path d="m68 76.5.5-.5H88v4H72.5l-.5.5Z" style="fill:#464a61;stroke:none"/>
        <path d="M71.5 8h10l3.5 3.5-.5.5h-8l-.5.5Zm.5 40.5.5-.5H88v4H76.5l-.5.5Zm0 32 .5-.5H88v.5l-4 4-.5-.5h-7l-.5.5Z" style="fill:#545873;stroke:none"/>
        <path d="m76 12.5.5-.5h8l.5-.5 3 3V16h-7.5l-.5.5Zm0 40 .5-.5H88v4h-7.5l-.5.5Zm0 32 .5-.5h7l.5.5-3.5 3.5h-1Z" style="fill:#464a61;stroke:none"/>
        <path d="m80 16.5.5-.5H88v4h-3.5l-.5.5Zm0 40 .5-.5H88v4h-3.5l-.5.5Z" style="fill:#545873;stroke:none"/>
        <path d="m83 85.5 2.5-2.5 3 3 3.5-3.5v8l3.5 3.5v1.5H94L90.5 92h-8l3.5-3.5ZM83.5 4h5L92 7.5v5Z" style="fill:#989aa4;stroke:none"/>
        <path d="m84 20.5.5-.5H88v4.5Zm0 40 .5-.5H88v4.5Z" style="fill:#464a61;stroke:none"/>
    </g>
</svg>
