<svg xmlns="http://www.w3.org/2000/svg" width="64" height="64" style="fill-opacity:1;color-rendering:auto;color-interpolation:auto;text-rendering:auto;stroke:#000;stroke-linecap:square;stroke-miterlimit:10;shape-rendering:auto;stroke-opacity:1;fill:#000;stroke-dasharray:none;font-weight:400;stroke-width:1;font-family:&quot;Dialog&quot;;font-style:normal;stroke-linejoin:miter;font-size:12px;stroke-dashoffset:0;image-rendering:auto">
    <g style="stroke-linecap:round;fill:#989aa4;stroke:#989aa4">
        <path stroke="none" d="M.5 1V.5H1l9.5 9.5-.5.5Z" style="stroke:none"/>
    </g>
    <g stroke="none" style="stroke-linecap:round;fill:#6e7080;stroke:#6e7080">
        <path d="m9.5 10-9 9V1Z" style="stroke:none"/>
        <path d="M.5 30V19l9-9 1 1L8 13.5v9Z" style="fill:#bc5452;stroke:none"/>
        <path d="M.5 34v-4l2-2 4 4-4 4Z" style="stroke:none"/>
        <path d="M8 41.5v9l5.5 5.5h9l7.5 7.5H19L.5 45V34Z" style="fill:#bc5452;stroke:none"/>
        <path d="M19 63.5H.5V45Z" style="stroke:none"/>
        <path d="M1 .5h18l-9 9Z" style="fill:#b0bac0;stroke:none"/>
        <path d="M2.5 28 8 22.5v6l3.5 3.5L8 35.5v6L2.5 36l4-4Z" style="fill:#989aa4;stroke:none"/>
        <path d="M8 22.5v-9l2.5-2.5-.5-.5.5-.5.5.5L13.5 8h9Z" style="fill:#ea8878;stroke:none"/>
        <path d="M8 28.5v-6l7-7 2 2-5 5v4l4 4v3l-4 4v4L22.5 52h4l4-4h3l4 4h4l5-5 2 2-7 7h-6L32 52.5 28.5 56h-6L8 41.5v-6l3.5-3.5Z" style="fill:#b0bac0;stroke:none"/>
        <path d="M22.5 56h-9L8 50.5v-9Z" style="fill:#ea8878;stroke:none"/>
        <path d="m11 10.5-1-1 9-9h11L22.5 8h-9Z" style="fill:#feb380;stroke:none"/>
        <path d="M12 26.5v-4l5-5-2-2 .5-.5 2 2 5-5h4l4 4h3l4-4h4L52 22.5v4l-4 4v3l4 4v4l-5 5 2 2-.5.5-2-2-5 5h-4l-4-4h-3l-4 4h-4L12 41.5v-4l4-4v-3Z" style="fill:#989aa4;stroke:none"/>
        <path d="M16 22.5v4l3 3v5l-3 3v4l6.5 6.5h4l4-4h3l4 4h4l6.5-6.5v-4l-3-3v-5l3-3v-4L41.5 16h-4l-4 4h-3l-4-4h-4Z" style="fill:#989aa4;stroke:none"/>
        <path d="m15.5 15 7-7h6l3.5 3.5L35.5 8h6L56 22.5v6L52.5 32l3.5 3.5v6l-7 7-2-2 5-5v-4l-4-4v-3l4-4v-4L41.5 12h-4l-4 4h-3l-4-4h-4l-5 5Z" style="stroke:none"/>
        <path d="M16 26.5v-4l3-3 3.5 3.5-5 5Zm0 15v-4l1.5-1.5L28 46.5 26.5 48h-4Z" style="fill:#bc5452;stroke:none"/>
        <path d="m17.5 28 5-5 6.5 6.5-2.5 2.5 5.5 5.5 2.5-2.5 6.5 6.5-5 5-2.5-2.5h-3L28 46.5 17.5 36l1.5-1.5v-5Z" style="stroke:none"/>
        <path d="m20 20.5-1-1 .5-.5.5.5Z" style="fill:#ea8878;stroke:none"/>
        <path d="m19.5 19 3-3h4l1.5 1.5-5 5Z" style="fill:#feb380;stroke:none"/>
        <path d="m22 22.5-3-3 .5-.5 2.5 2.5Z" style="fill:#ea8878;stroke:none"/>
        <path d="M22.5 8 28 2.5l4 4 4-4L41.5 8h-6L32 11.5 28.5 8Z" style="fill:#989aa4;stroke:none"/>
        <path d="m23 22.5 5-5 2.5 2.5h3l2.5-2.5L46.5 28 45 29.5v5l1.5 1.5-5 5-6.5-6.5 2.5-2.5-5.5-5.5-2.5 2.5Z" style="fill:#b0bac0;stroke:none"/>
        <path d="m24 24.5-1-1 .5-.5.5.5ZM22.5 56h6l3.5-3.5 3.5 3.5h6L36 61.5l-4-4-4 4Z" style="fill:#989aa4;stroke:none"/>
        <path d="m26 26.5-3-3 .5-.5 2.5 2.5Z" style="fill:#989aa4;stroke:none"/>
        <path d="m28 28.5-5-5 .5-.5 4.5 4.5Z" style="fill:#989aa4;stroke:none"/>
        <path d="m26.5 32 2.5-2.5-6-6 .5-.5 6 6 2.5-2.5 5.5 5.5-2.5 2.5 6.5 6.5-.5.5-6.5-6.5-2.5 2.5Z" style="fill:#989aa4;stroke:none"/>
        <path d="m28 2.5 2-2h4l2 2-4 4Z" style="fill:#b0bac0;stroke:none"/>
        <path d="m28 61.5 4-4 4 4-2 2h-4Z" style="stroke:none"/>
        <path d="M34 .5h11L63.5 19v11L56 22.5v-9L50.5 8h-9Zm2 17 1.5-1.5h4l6.5 6.5v4L46.5 28Z" style="fill:#feb380;stroke:none"/>
        <path d="m36 46.5 5-5 3.5 3.5-3 3h-4Z" style="fill:#bc5452;stroke:none"/>
        <path d="m42 42.5-1-1 .5-.5.5.5ZM41.5 8h9l5.5 5.5v9Z" style="fill:#ea8878;stroke:none"/>
        <path d="m41.5 41 5-5 1.5 1.5v4l-3 3Z" style="fill:#feb380;stroke:none"/>
        <path d="M41.5 56 56 41.5v9l-2 2V54h-1.5l-2 2ZM44 44.5l-3-3 .5-.5 2.5 2.5Z" style="fill:#ea8878;stroke:none"/>
        <path d="M45 63.5H34l7.5-7.5h9l2-2H54v.5Z" style="fill:#bc5452;stroke:none"/>
        <path d="M45 .5h18.5V19Z" style="fill:#b0bac0;stroke:none"/>
        <path d="m52.5 32 3.5-3.5v-6l5.5 5.5-4 4 4 4-5.5 5.5v-6Z" style="fill:#989aa4;stroke:none"/>
        <path d="M54.5 54H54v-1.5l2-2v-9l7.5-7.5v11Z" style="fill:#feb380;stroke:none"/>
        <path d="m55 55.5-1-1V54h.5l.5.5Z" style="fill:#989aa4;stroke:none"/>
        <path d="M63 63.5H45l9-9Z" style="stroke:none"/>
        <path d="m54.5 54 9-9v18Z" style="fill:#b0bac0;stroke:none"/>
        <path d="m57 57.5-3-3V54h.5l2.5 2.5Z" style="fill:#989aa4;stroke:none"/>
        <path d="m57.5 32 4-4 2 2v4l-2 2Z" style="fill:#b0bac0;stroke:none"/>
        <path d="m59 59.5-5-5V54h.5l4.5 4.5Z" style="fill:#989aa4;stroke:none"/>
        <path d="m61 61.5-7-7V54h.5l6.5 6.5Z" style="fill:#989aa4;stroke:none"/>
        <path d="m63 63.5-9-9V54h.5l8.5 8.5Z" style="fill:#989aa4;stroke:none"/>
    </g>
</svg>
