<svg xmlns="http://www.w3.org/2000/svg" width="96" height="96" style="fill-opacity:1;color-rendering:auto;color-interpolation:auto;text-rendering:auto;stroke:#000;stroke-linecap:square;stroke-miterlimit:10;shape-rendering:auto;stroke-opacity:1;fill:#000;stroke-dasharray:none;font-weight:400;stroke-width:1;font-family:&quot;Dialog&quot;;font-style:normal;stroke-linejoin:miter;font-size:12px;stroke-dashoffset:0;image-rendering:auto">
    <g style="stroke-linecap:round;fill:#6e7080;stroke:#6e7080">
        <path stroke="none" d="M.5 1V.5H1L11.5 11l3-3H36v3.5l4.5 4.5h-7L16 33.5v7L11.5 36H8V14.5l3-3Z" style="stroke:none"/>
    </g>
    <g stroke="none" style="stroke-linecap:round;fill:#4a4b53;stroke:#4a4b53">
        <path d="m11 11.5-3 3V36H.5V1Z" style="stroke:none"/>
        <path d="M.5 44v-8H8v24H.5v-8h2L5 49.5v-3L2.5 44Z" style="fill:#665c9f;stroke:none"/>
        <path d="M.5 52v-8h2L5 46.5v3L2.5 52Z" style="stroke:none"/>
        <path d="M1 .5h35V8H14.5l-3 3Z" style="fill:#989aa4;stroke:none"/>
        <path d="m8 81.5 6.5 6.5H36v7.5H.5V60H8Z" style="stroke:none"/>
        <path d="M8 60V36h3.5l4.5 4.5v15L11.5 60Z" style="fill:#8a73c6;stroke:none"/>
        <path d="M8 81.5V60h3.5l4.5-4.5v7L33.5 80h7L36 84.5V88H14.5Zm4-63v8l.5.5h3L27 15.5v-3l-.5-.5h-8Z" style="fill:#6e7080;stroke:none"/>
        <path d="M12 69.5v8l6.5 6.5h8l.5-.5v-3L15.5 69h-3Z" style="fill:#6e7080;stroke:none"/>
        <path d="m12.5 27-.5-.5v-8l6.5-6.5h8l.5.5v3L15.5 27ZM12 77.5v-8l.5-.5h3L27 80.5v3l-.5.5h-8Z" style="fill:#989aa4;stroke:none"/>
        <path d="M16 62.5v-29l5.5-5.5 9.5 9.5-2 2v17l2 2-9.5 9.5Z" style="stroke:none"/>
        <path d="m21.5 28 3-3 9.5 9.5-3 3Zm0 40 9.5-9.5 6.5 6.5-9.5 9.5Z" style="fill:#665c9f;stroke:none"/>
        <path d="m25 24.5 3-3 9.5 9.5-3 3Z" style="fill:#bf92f9;stroke:none"/>
        <path d="M26 26.5 24.5 25l.5-.5 1 1Z" style="fill:#8a73c6;stroke:none"/>
        <path d="M28 28.5 24.5 25l.5-.5 3 3Z" style="fill:#8a73c6;stroke:none"/>
        <path d="m28 21.5 5.5-5.5h29l5.5 5.5-9.5 9.5-2-2h-17l-2 2Z" style="fill:#989aa4;stroke:none"/>
        <path d="m28 74.5 9.5-9.5 2 2h17l2-2 9.5 9.5-5.5 5.5h-29Z" style="stroke:none"/>
        <path d="M30 30.5 24.5 25l.5-.5 5 5Z" style="fill:#8a73c6;stroke:none"/>
        <path d="M29 56.5v-17L39.5 29h17L67 39.5v17L56.5 67h-17Z" style="fill:#6e7080;stroke:none"/>
        <path d="M32 32.5 24.5 25l.5-.5 7 7Z" style="fill:#8a73c6;stroke:none"/>
        <path d="m34.5 34-.5.5-9.5-9.5.5-.5Z" style="fill:#8a73c6;stroke:none"/>
        <path d="M35 42.5v11l7.5 7.5h11l3.5-3.5-3-3 .5-.5 3 3 3.5-3.5v-11L53.5 35h-11L39 38.5l3 3-.5.5-3-3Z" style="fill:#6e7080;stroke:none"/>
        <path d="M35 53.5v-11l3.5-3.5 3 3-2.5 2.5v7l5.5 5.5h7l2.5-2.5 3 3-3.5 3.5h-11Z" style="fill:#989aa4;stroke:none"/>
        <path d="M36 8V.5h8v2L46.5 5h3L52 2.5v-2h8V8Z" style="fill:#bf92f9;stroke:none"/>
        <path d="M36 11.5V8h24v3.5L55.5 16h-15ZM36 88v-3.5l4.5-4.5h15l4.5 4.5V88Z" style="fill:#8a73c6;stroke:none"/>
        <path d="m39 38.5 3.5-3.5h11l7.5 7.5v11L57.5 57l-3-3 2.5-2.5v-7L51.5 39h-7L42 41.5Z" style="stroke:none"/>
        <path d="M39 51.5v-7l5.5-5.5h7l5.5 5.5v7L51.5 57h-7Z" style="fill:#2f2d39;stroke:none"/>
        <path d="M44 93.5v2h-8V88h24v7.5h-8v-2L49.5 91h-3Z" style="fill:#665c9f;stroke:none"/>
        <path d="M44 2.5v-2h8v2L49.5 5h-3Z" style="fill:#989aa4;stroke:none"/>
        <path d="M52 93.5v2h-8v-2l2.5-2.5h3Z" style="stroke:none"/>
        <path d="m55.5 16 4.5-4.5V8h21.5l6.5 6.5V36h-3.5L80 40.5v-7L62.5 16Zm0 64h7L80 62.5v-7l4.5 4.5H88v21.5l-3 3L95.5 95v.5H95L84.5 85l-3 3H60v-3.5Z" style="fill:#6e7080;stroke:none"/>
        <path d="m58.5 31 9.5-9.5 6.5 6.5-9.5 9.5Z" style="fill:#bf92f9;stroke:none"/>
        <path d="m58.5 65 3-3 9.5 9.5-3 3Z" style="fill:#665c9f;stroke:none"/>
        <path d="M60 8V.5h35.5V36H88V14.5L81.5 8Z" style="fill:#989aa4;stroke:none"/>
        <path d="m62 61.5 3-3 9.5 9.5-3 3Z" style="fill:#bf92f9;stroke:none"/>
        <path d="M63 63.5 61.5 62l.5-.5 1 1Z" style="fill:#8a73c6;stroke:none"/>
        <path d="M65 65.5 61.5 62l.5-.5 3 3Z" style="fill:#8a73c6;stroke:none"/>
        <path d="m65 37.5 9.5-9.5 5.5 5.5v29L74.5 68 65 58.5l2-2v-17Z" style="fill:#989aa4;stroke:none"/>
        <path d="M67 67.5 61.5 62l.5-.5 5 5Z" style="fill:#8a73c6;stroke:none"/>
        <path d="M69 12.5v3L80.5 27h3l.5-.5v-8L77.5 12h-8Z" style="fill:#6e7080;stroke:none"/>
        <path d="M69 69.5 61.5 62l.5-.5 7 7Z" style="fill:#8a73c6;stroke:none"/>
        <path d="M69 80.5v3l.5.5h8l6.5-6.5v-8l-.5-.5h-3Z" style="fill:#6e7080;stroke:none"/>
        <path d="M69 15.5v-3l.5-.5h8l6.5 6.5v8l-.5.5h-3Zm.5 68.5-.5-.5v-3L80.5 69h3l.5.5v8L77.5 84Z" style="fill:#989aa4;stroke:none"/>
        <path d="m71.5 71-.5.5-9.5-9.5.5-.5ZM80 55.5v-15l4.5-4.5H88v24h-3.5Z" style="fill:#8a73c6;stroke:none"/>
        <path d="M95 95.5H60V88h21.5l3-3Z" style="stroke:none"/>
        <path d="m85 84.5 3-3V60h7.5v35Z" style="fill:#989aa4;stroke:none"/>
        <path d="M88 60V36h7.5v8h-2L91 46.5v3l2.5 2.5h2v8Z" style="fill:#bf92f9;stroke:none"/>
        <path d="M91 49.5v-3l2.5-2.5h2v8h-2Z" style="fill:#989aa4;stroke:none"/>
    </g>
</svg>
