<svg xmlns="http://www.w3.org/2000/svg" width="96" height="96" style="fill-opacity:1;color-rendering:auto;color-interpolation:auto;text-rendering:auto;stroke:#000;stroke-linecap:square;stroke-miterlimit:10;shape-rendering:auto;stroke-opacity:1;fill:#000;stroke-dasharray:none;font-weight:400;stroke-width:1;font-family:&quot;Dialog&quot;;font-style:normal;stroke-linejoin:miter;font-size:12px;stroke-dashoffset:0;image-rendering:auto">
    <g style="stroke-linecap:round;fill:#c9c9c9;stroke:#c9c9c9">
        <path stroke="none" d="M.5 44v-8H8v24H.5v-8h2L5 49.5v-3L2.5 44Z" style="stroke:none"/>
    </g>
    <g stroke="none" style="stroke-linecap:round;fill:#f4f4f4;stroke:#f4f4f4">
        <path d="M8 60V36h3.5l4.5 4.5v15L11.5 60Z" style="stroke:none"/>
        <path d="M36 8V.5h8v2L46.5 5h3L52 2.5v-2h8V8Z" style="fill:#fff;stroke:none"/>
        <path d="M36 11.5V8h24v3.5L55.5 16h-15ZM36 88v-3.5l4.5-4.5h15l4.5 4.5V88Z" style="stroke:none"/>
        <path d="M44 93.5v2h-8V88h24v7.5h-8v-2L49.5 91h-3Z" style="fill:#c9c9c9;stroke:none"/>
        <path d="M80 55.5v-15l4.5-4.5H88v24h-3.5Z" style="stroke:none"/>
        <path d="M88 60V36h7.5v8h-2L91 46.5v3l2.5 2.5h2v8Z" style="fill:#fff;stroke:none"/>
    </g>
</svg>
