<svg xmlns="http://www.w3.org/2000/svg" width="240" height="240" style="fill-opacity:1;color-rendering:auto;color-interpolation:auto;text-rendering:auto;stroke:#000;stroke-linecap:square;stroke-miterlimit:10;shape-rendering:auto;stroke-opacity:1;fill:#000;stroke-dasharray:none;font-weight:400;stroke-width:1;font-family:&quot;Dialog&quot;;font-style:normal;stroke-linejoin:miter;font-size:12px;stroke-dashoffset:0;image-rendering:auto">
    <g style="stroke-linecap:round;fill:#dcc6c6;stroke:#dcc6c6">
        <path stroke="none" d="M31 166.5v-9l3.5-3.5h4l6.5 6.5v2l-1 1-3.5-3.5h-3Z" style="stroke:none"/>
    </g>
    <g stroke="none" style="stroke-linecap:round;fill:#fff;stroke:#fff">
        <path d="M31 168.5v-2l6.5-6.5h3l3.5 3.5-6.5 6.5h-5Z" style="stroke:none"/>
        <path d="M44 153.5v-2l8.5-8.5h6l4.5 4.5-.5.5h-7l-8.5 8.5Z" style="fill:#dcc6c6;stroke:none"/>
        <path d="m47.5 157-.5-.5 8.5-8.5h7l.5-.5 2.5 2.5-7 7Z" style="stroke:none"/>
        <path d="m52 131.5-1.5-1.5 6-6h8l2.5 2.5v2l-1.5 1.5-3-3h-3l-4 4h-3Z" style="fill:#dcc6c6;stroke:none"/>
        <path d="m52 131.5.5-.5h3l4-4h3l3 3-5 5h-5Z" style="stroke:none"/>
        <path d="m80.5 230-1-1 7.5-7.5v-2l.5-.5 4.5 4.5 13.5-13.5 2.5 2.5L87.5 233h-3l-3-3Zm4.5-13.5-1-1v-7l1.5-1.5h7l2.5 2.5-3.5 3.5h-3Z" style="fill:#dcc6c6;stroke:none"/>
        <path d="m85 216.5 3.5-3.5h3l3.5-3.5-2.5-2.5 6-6h7l2.5-2.5v-1l3-3 .5.5h5l3.5-3.5 3.5 3.5h5l.5-.5 3 3v1l2.5 2.5h7l6 6-2.5 2.5 3.5 3.5h3l3.5 3.5-7 7-13.5-13.5-2.5 2.5-.5-.5h-2l-5-5-4.5 4.5-4.5-4.5-5 5h-2l-.5.5-2.5-2.5L92 223.5Z" style="stroke:none"/>
        <path d="M95 124.5v-7l5.5-5.5h2l2.5 2.5v4l-2-2Z" style="fill:#dcc6c6;stroke:none"/>
        <path d="m95.5 132-.5-.5v-7l8-8 2 2v4Z" style="stroke:none"/>
        <path d="m96.5 203-.5-.5v-4l4.5-4.5 4 4h3.5v.5l-2.5 2.5h-7Zm5-22-.5-.5v-4l6.5-6.5h6l2.5 2.5v5l-2.5-2.5h-6Z" style="fill:#dcc6c6;stroke:none"/>
        <path d="m102.5 182-1-1 6-6h6l2.5 2.5v1l-3.5 3.5Z" style="stroke:none"/>
        <path d="M106 91.5v-4l9-9 2.5 2.5-2.5 2.5 5 5 5-5-2.5-2.5 2.5-2.5 9 9v4l-2.5 2.5H130v-4.5l-3-3-5.5 5.5h-3l-5.5-5.5-3 3V94h-1.5Z" style="fill:#dcc6c6;stroke:none"/>
        <path d="M110 96.5v-7l3-3 5.5 5.5h3l5.5-5.5 3 3v7l-6 6-4-4-4 4Z" style="stroke:none"/>
        <path d="m111.5 195-.5-.5 9-9 9 9-.5.5h-5l-3.5-3.5-3.5 3.5Zm-.5 16.5 4.5-4.5 4.5 4.5 4.5-4.5 4.5 4.5-9 9Zm2-49v-3l5.5-5.5h3l5.5 5.5v3l-1.5 1.5-5.5-5.5-5.5 5.5Z" style="fill:#dcc6c6;stroke:none"/>
        <path d="m114.5 164 5.5-5.5 5.5 5.5-2 2h-7Z" style="stroke:none"/>
        <path d="M124 177.5v-5l2.5-2.5h6l6.5 6.5v4l-.5.5-6-6h-6Z" style="fill:#dcc6c6;stroke:none"/>
        <path d="M124 178.5v-1l2.5-2.5h6l6 6-1 1h-10Z" style="stroke:none"/>
        <path d="M132 198.5v-.5h3.5l4-4 4.5 4.5v4l-.5.5-2-2h-7Zm0 14 2.5-2.5 13.5 13.5 4.5-4.5.5.5v2l7.5 7.5-1 1h-1l-3 3h-3Zm3-94v-4l2.5-2.5h2l5.5 5.5v7l-8-8Z" style="fill:#dcc6c6;stroke:none"/>
        <path d="M135 122.5v-4l2-2 8 8v7l-.5.5Z" style="stroke:none"/>
        <path d="m145 209.5 2.5-2.5h7l1.5 1.5v7l-1 1-3.5-3.5h-3Zm28-81v-2l2.5-2.5h8l6 6-1.5 1.5-.5-.5h-3l-4-4h-3l-3 3Z" style="fill:#dcc6c6;stroke:none"/>
        <path d="m174.5 130 3-3h3l4 4h3l.5.5-3.5 3.5h-5Zm0 20 2.5-2.5.5.5h7l8.5 8.5-.5.5h-11Z" style="stroke:none"/>
        <path d="m177.5 148-.5-.5 4.5-4.5h6l8.5 8.5v2l-3 3-8.5-8.5Zm18.5 15.5-1-1v-2l6.5-6.5h4l3.5 3.5v9l-6.5-6.5h-3Z" style="fill:#dcc6c6;stroke:none"/>
        <path d="m196 163.5 3.5-3.5h3l6.5 6.5v2l-1.5 1.5h-5Z" style="stroke:none"/>
    </g>
</svg>
