<svg xmlns="http://www.w3.org/2000/svg" width="48" height="48" style="fill-opacity:1;color-rendering:auto;color-interpolation:auto;text-rendering:auto;stroke:#000;stroke-linecap:square;stroke-miterlimit:10;shape-rendering:auto;stroke-opacity:1;fill:#000;stroke-dasharray:none;font-weight:400;stroke-width:1;font-family:&quot;Dialog&quot;;font-style:normal;stroke-linejoin:miter;font-size:12px;stroke-dashoffset:0;image-rendering:auto">
    <g style="stroke-linecap:round;fill:#b0bac0;stroke:#b0bac0">
        <path stroke="none" d="M5 29.5v-4L9.5 21l.5.5v3Z" style="stroke:none"/>
    </g>
    <g stroke="none" style="stroke-linecap:round;fill:#989aa4;stroke:#989aa4">
        <path d="M5 34.5v-5l5-5v-3l-1-1v-1l4-4 4.5 4.5-.5.5 1 1-5.5 5.5-1-1L7 30.5l3.5 3.5 9-9 3 3h3l3-3 9 9 3.5-3.5-4.5-4.5-1 1-5.5-5.5 1-1v-1l3.5-3.5h1l3.5 3.5v1l-1 1v3l5 5v5l-8 8v-7L31.5 32h-2l-4 4h-3l-4-4h-2L13 35.5v7Z" style="stroke:none"/>
        <path d="m13 42.5-.5.5h-3L5 38.5v-4Zm-6-12 4.5-4.5 3.5 3.5-4.5 4.5Z" style="fill:#6e7080;stroke:none"/>
        <path d="m12.5 27 5.5-5.5 2 2v1l-5 5Z" style="fill:#b0bac0;stroke:none"/>
        <path d="m13 35.5 3.5-3.5h2l4 4h3l4-4h2l3.5 3.5-4 4v3l-.5.5h-2l-3-3h-3l-3 3h-2l-.5-.5v-3Zm4-15 2-2v-1l1.5-1.5h7l1.5 1.5v1l2 2-2.5 2.5-3-3h-3l-3 3Z" style="fill:#6e7080;stroke:none"/>
        <path d="M20 24v-.5l-.5-.5 3-3h3l3 3-.5.5v.5Z" style="fill:#d4816b;stroke:none"/>
        <path d="m19.5 25 .5-.5V24h8v.5l.5.5-3 3h-3Z" style="fill:#ffd37f;stroke:none"/>
        <path d="M28 24.5v-1l2-2 5.5 5.5-2.5 2.5Z" style="fill:#b0bac0;stroke:none"/>
        <path d="m33 29.5 3.5-3.5 4.5 4.5-3.5 3.5ZM35.5 43l-.5-.5 8-8v4L38.5 43Z" style="fill:#6e7080;stroke:none"/>
        <path d="M43 25.5v4l-5-5v-3l.5-.5Z" style="fill:#b0bac0;stroke:none"/>
    </g>
</svg>
