<svg xmlns="http://www.w3.org/2000/svg" width="126" height="127" style="fill-opacity:1;color-rendering:auto;color-interpolation:auto;text-rendering:auto;stroke:#000;stroke-linecap:square;stroke-miterlimit:10;shape-rendering:auto;stroke-opacity:1;fill:#000;stroke-dasharray:none;font-weight:400;stroke-width:1;font-family:&quot;Dialog&quot;;font-style:normal;stroke-linejoin:miter;font-size:12px;stroke-dashoffset:0;image-rendering:auto">
    <g style="stroke-linecap:round;fill:#dcc6c6;stroke:#dcc6c6">
        <path stroke="none" d="M29 83.5v-4l2-2 5 5-4 4Z" style="stroke:none"/>
    </g>
    <g stroke="none" style="stroke-linecap:round;fill:#fff;stroke:#fff">
        <path d="m31 77.5 3.5-3.5h5l.5.5v4l-4 4Z" style="stroke:none"/>
        <path d="M37 70.5v-2l8.5-8.5 2 2-5 5 2.5 2.5-4.5 4.5Z" style="fill:#dcc6c6;stroke:none"/>
        <path d="m42.5 67 5-5-2-2 6-6h2l4.5 4.5-4.5 4.5h-2L45 69.5Z" style="stroke:none"/>
        <path d="M51 105.5v-7l1-1 3 3v3l6.5 6.5h3l6.5-6.5v-3l3-3 1 1v7L64.5 116h-3Z" style="fill:#dcc6c6;stroke:none"/>
        <path d="m52 97.5 2.5-2.5 7 7h3l7-7 2.5 2.5-3 3v3l-6.5 6.5h-3l-6.5-6.5v-3Zm16-39 4.5-4.5h2l6 6-2 2 5 5-2.5 2.5-6.5-6.5h-2Z" style="stroke:none"/>
        <path d="m78.5 62 2-2 8.5 8.5v2L85.5 74 81 69.5l2.5-2.5Z" style="fill:#dcc6c6;stroke:none"/>
        <path d="M86 78.5v-4l.5-.5h5l3.5 3.5-5 5Z" style="stroke:none"/>
        <path d="m90 82.5 5-5 2 2v4l-3 3Z" style="fill:#dcc6c6;stroke:none"/>
    </g>
</svg>
