<svg xmlns="http://www.w3.org/2000/svg" width="64" height="45" style="fill-opacity:1;color-rendering:auto;color-interpolation:auto;text-rendering:auto;stroke:#000;stroke-linecap:square;stroke-miterlimit:10;shape-rendering:auto;stroke-opacity:1;fill:#000;stroke-dasharray:none;font-weight:400;stroke-width:1;font-family:&quot;Dialog&quot;;font-style:normal;stroke-linejoin:miter;font-size:12px;stroke-dashoffset:0;image-rendering:auto">
    <g style="stroke-linecap:round;fill:#6e7080;stroke:#6e7080">
        <path stroke="none" d="M4 12.5v-2l4-4 4 4-2 2 4.5 4.5L9 22.5l5.5 5.5-4.5 4.5 2 2-4 4-4-4v-2l3-3-3-3v-8l3-3Z" style="stroke:none"/>
    </g>
    <g stroke="none" style="stroke-linecap:round;fill:#989aa4;stroke:#989aa4">
        <path d="m9 22.5 5.5-5.5-4.5-4.5L16.5 6l5.5 5.5 3-3 4.5 4.5-5 5h-3L18 21.5v2l3.5 3.5h3l5 5-4.5 4.5-3-3-5.5 5.5-6.5-6.5 4.5-4.5Z" style="stroke:none"/>
        <path d="M16.5 6h6L25 8.5l-3 3Zm0 33 5.5-5.5 3 3-2.5 2.5ZM18 23.5v-2l3.5-3.5h3l5-5 1 1h8l5 5h5l3.5 3.5-3.5 3.5h-5l-5 5h-8l-1 1-5-5h-3Z" style="fill:#6e7080;stroke:none"/>
        <path d="m25 8.5.5-.5h7l6 6h-8Zm.5 28.5-.5-.5 5.5-5.5h8l-6 6Z" style="fill:#4a4b53;stroke:none"/>
        <path d="M28 21.5v2l4.5 4.5h4l4.5-4.5v-2L36.5 17h-4Z" style="fill:#6e7080;stroke:none"/>
        <path d="M28 23.5v-2l4.5-4.5 4.5 4.5v2L32.5 28Z" style="fill:#d1efff;stroke:none"/>
        <path d="M32.5 17h4l4.5 4.5v2L36.5 28h-4l4.5-4.5v-2Z" style="fill:#8ca9e8;stroke:none"/>
        <path d="M38.5 14h8l3 3h6l4.5 4.5v2L55.5 28h-6l-3 3h-8l5-5h5l3.5-3.5-3.5-3.5h-5Z" style="fill:#4a4b53;stroke:none"/>
    </g>
</svg>
