<svg xmlns="http://www.w3.org/2000/svg" width="70" height="70" style="fill-opacity:1;color-rendering:auto;color-interpolation:auto;text-rendering:auto;stroke:#000;stroke-linecap:square;stroke-miterlimit:10;shape-rendering:auto;stroke-opacity:1;fill:#000;stroke-dasharray:none;font-weight:400;stroke-width:1;font-family:&quot;Dialog&quot;;font-style:normal;stroke-linejoin:miter;font-size:12px;stroke-dashoffset:0;image-rendering:auto">
    <g style="stroke-linecap:round;fill:#989aa4;stroke:#989aa4">
        <path stroke="none" d="M9 31.5v-3L28.5 9h13L61 28.5v3l-2 2L44.5 19 39 24.5l7.5 7.5h5l3 3-3 3h-5L39 45.5l5.5 5.5 3.5-3.5 3.5 3.5-10 10h-13l-10-10 3.5-3.5 3.5 3.5 5.5-5.5-7.5-7.5h-5l-3-3 3-3h5l7.5-7.5-5.5-5.5L11 33.5Z" style="stroke:none"/>
    </g>
    <g stroke="none" style="stroke-linecap:round;fill:#6e7080;stroke:#6e7080">
        <path d="M11 33.5 25.5 19l5.5 5.5-7.5 7.5h-5l-3 3 3 3h5l7.5 7.5-5.5 5.5-3.5-3.5-3.5 3.5-2.5-2.5 3.5-3.5-8.5-8.5-2 2v-7Z" style="stroke:none"/>
        <path d="M9 41.5v-3l2-2 8.5 8.5-3.5 3.5Z" style="fill:#989aa4;stroke:none"/>
        <path d="m39 24.5 5.5-5.5L59 33.5l2-2v7l-2-2-8.5 8.5 3.5 3.5-2.5 2.5-3.5-3.5-3.5 3.5-5.5-5.5 7.5-7.5h5l3-3-3-3h-5Z" style="stroke:none"/>
        <path d="m50.5 45 8.5-8.5 2 2v3l-7 7Z" style="fill:#989aa4;stroke:none"/>
    </g>
</svg>
