<svg xmlns="http://www.w3.org/2000/svg" width="70" height="70" style="fill-opacity:1;color-rendering:auto;color-interpolation:auto;text-rendering:auto;stroke:#000;stroke-linecap:square;stroke-miterlimit:10;shape-rendering:auto;stroke-opacity:1;fill:#000;stroke-dasharray:none;font-weight:400;stroke-width:1;font-family:&quot;Dialog&quot;;font-style:normal;stroke-linejoin:miter;font-size:12px;stroke-dashoffset:0;image-rendering:auto">
    <g style="stroke-linecap:round;fill:#565666;stroke:#565666">
        <path stroke="none" d="m13 17.5 5.5-5.5L15 8.5 22.5 1H24v6.5l4 4-5.5 5.5L37 31.5l6-6 7.5 7.5h7l.5-.5 2.5 2.5-2.5 2.5-.5-.5h-7L43 44.5l-6-6L22.5 53l5.5 5.5-4 4V69h-1.5L15 61.5l3.5-3.5-5.5-5.5 12-12-5.5-5.5 5.5-5.5Z" style="stroke:none"/>
    </g>
    <g stroke="none" style="stroke-linecap:round;fill:#6e7080;stroke:#6e7080">
        <path d="m22.5 17 5.5-5.5-4-4V1h1.5L38 13.5 44.5 7l9.5 9.5-6 6 10 10-.5.5h-7L43 25.5l-6 6Zm0 36L37 38.5l6 6 7.5-7.5h7l.5.5-10 10 6 6-9.5 9.5-6.5-6.5L25.5 69H24v-6.5l4-4Z" style="stroke:none"/>
        <path d="m29.5 35 4 4 4-4-4-4Z" style="fill:#565666;stroke:none"/>
        <path d="m29.5 35 4-4 4 4-4 4Z" style="stroke:none"/>
        <path d="m38.5 33 2 2-2 2 2.5 2.5 4.5-4.5-4.5-4.5Z" style="fill:#565666;stroke:none"/>
        <path d="m38.5 33 2.5-2.5 4.5 4.5-4.5 4.5-2.5-2.5 2-2Z" style="stroke:none"/>
    </g>
</svg>
