<svg xmlns="http://www.w3.org/2000/svg" width="128" height="128" style="fill-opacity:1;color-rendering:auto;color-interpolation:auto;text-rendering:auto;stroke:#000;stroke-linecap:square;stroke-miterlimit:10;shape-rendering:auto;stroke-opacity:1;fill:#000;stroke-dasharray:none;font-weight:400;stroke-width:1;font-family:&quot;Dialog&quot;;font-style:normal;stroke-linejoin:miter;font-size:12px;stroke-dashoffset:0;image-rendering:auto">
    <g style="stroke-linecap:round;fill:#fff;stroke:#fff">
        <path stroke="none" d="M12 54.5v-8l5-5 1 1v6Z" style="stroke:none"/>
    </g>
    <g stroke="none" style="stroke-linecap:round;fill:#dbc5c5;stroke:#dbc5c5">
        <path d="m12.5 59-.5-.5v-4l6-6v7L14.5 59Zm.5 44.5v-2l3.5-3.5 8.5 8.5-3.5 3.5h-2Z" style="stroke:none"/>
        <path d="m16.5 98 7-7 8.5 8.5-7 7Z" style="fill:#fff;stroke:none"/>
        <path d="M18 77.5v-7l2.5-2.5.5.5v9l3 3V83h-.5Z" style="stroke:none"/>
        <path d="M21 77.5v-9l-.5-.5 3-3 .5.5v15Z" style="fill:#fff;stroke:none"/>
        <path d="m28.5 91 2-2 3.5 3.5-2 2Z" style="stroke:none"/>
        <path d="m30.5 89 2.5-2.5 3.5 3.5-2.5 2.5Z" style="fill:#fff;stroke:none"/>
        <path d="M36 104.5v-2l3.5-3.5 8.5 8.5-3.5 3.5h-2Z" style="stroke:none"/>
        <path d="m39.5 99 5-5h4l4.5 4.5v4l-5 5Z" style="fill:#fff;stroke:none"/>
        <path d="m51.5 92 2-2 3.5 3.5-2 2Z" style="stroke:none"/>
        <path d="M54 50.5v-4l6-6 1 1v2Z" style="fill:#fff;stroke:none"/>
        <path d="m54.5 54-.5-.5v-3l7-7v4Z" style="stroke:none"/>
        <path d="M54 67.5v-2l8.5-8.5h3l8.5 8.5v2L70.5 71h-1l-4 4h-3l-4-4h-1ZM53.5 90l2.5-2.5 3.5 3.5-2.5 2.5Z" style="fill:#fff;stroke:none"/>
        <path d="M62.5 75h3l4-4h.5v3.5L65.5 79h-3L58 74.5V71h.5Z" style="stroke:none"/>
        <path d="M67 43.5v-2l1-1 6 6v4Z" style="fill:#fff;stroke:none"/>
        <path d="M74 50.5v3l-.5.5-6.5-6.5v-4Z" style="stroke:none"/>
        <path d="m68.5 91 3.5-3.5 2.5 2.5-3.5 3.5Z" style="fill:#fff;stroke:none"/>
        <path d="m71 93.5 3.5-3.5 2 2-3.5 3.5Z" style="stroke:none"/>
        <path d="M75 102.5v-4l4.5-4.5h4l5 5-8.5 8.5Z" style="fill:#fff;stroke:none"/>
        <path d="m80 107.5 8.5-8.5 3.5 3.5v2l-6.5 6.5h-2Z" style="stroke:none"/>
        <path d="m91.5 90 3.5-3.5 2.5 2.5-3.5 3.5Z" style="fill:#fff;stroke:none"/>
        <path d="m94 92.5 3.5-3.5 2 2-3.5 3.5Z" style="stroke:none"/>
        <path d="m96 99.5 8.5-8.5 7 7-8.5 8.5Z" style="fill:#fff;stroke:none"/>
        <path d="m103 106.5 8.5-8.5 3.5 3.5v2l-6.5 6.5h-2Z" style="stroke:none"/>
        <path d="m107.5 68-.5.5v9l-3 3v-15l.5-.5h.5v.5Z" style="fill:#fff;stroke:none"/>
        <path d="M104.5 83h-.5v-2.5l3-3v-9l.5-.5 2.5 2.5v7Z" style="stroke:none"/>
        <path d="M110 48.5v-6l1-1 5 5v8Z" style="fill:#fff;stroke:none"/>
        <path d="M116 54.5v4l-.5.5h-2l-3.5-3.5v-7Z" style="stroke:none"/>
    </g>
</svg>
