<svg xmlns="http://www.w3.org/2000/svg" width="88" height="64" style="fill-opacity:1;color-rendering:auto;color-interpolation:auto;text-rendering:auto;stroke:#000;stroke-linecap:square;stroke-miterlimit:10;shape-rendering:auto;stroke-opacity:1;fill:#000;stroke-dasharray:none;font-weight:400;stroke-width:1;font-family:&quot;Dialog&quot;;font-style:normal;stroke-linejoin:miter;font-size:12px;stroke-dashoffset:0;image-rendering:auto">
    <g style="stroke-linecap:round;fill:#dcc6c6;stroke:#dcc6c6">
        <path stroke="none" d="M28 31.5v-3l3.5-3.5.5.5v2Z" style="stroke:none"/>
    </g>
    <g stroke="none" style="stroke-linecap:round;fill:#fff;stroke:#fff">
        <path d="m28.5 39-.5-.5v-7l4-4v8Z" style="stroke:none"/>
        <path d="M32 19.5v-3l3.5-3.5.5.5v2Z" style="fill:#dcc6c6;stroke:none"/>
        <path d="m32.5 22-.5-.5v-2l4-4v3ZM36 39.5v3l4 4V57h-1.5L33 51.5v-14l.5-.5Z" style="stroke:none"/>
        <path d="M38.5 57H40v4.5l-1 1-6-6v-5Z" style="fill:#dcc6c6;stroke:none"/>
        <path d="M48 57V46.5l4-4v-3l2.5-2.5.5.5v14L49.5 57Z" style="stroke:none"/>
        <path d="m49 62.5-1-1V57h1.5l5.5-5.5v5Zm7-46v3l-4-4v-2l.5-.5Z" style="fill:#dcc6c6;stroke:none"/>
        <path d="M56 19.5v2l-.5.5-3.5-3.5v-3Z" style="stroke:none"/>
        <path d="M60 28.5v3l-4-4v-2l.5-.5Z" style="fill:#dcc6c6;stroke:none"/>
        <path d="M60 31.5v7l-.5.5-3.5-3.5v-8Z" style="stroke:none"/>
    </g>
</svg>
