<svg xmlns="http://www.w3.org/2000/svg" width="88" height="64" style="fill-opacity:1;color-rendering:auto;color-interpolation:auto;text-rendering:auto;stroke:#000;stroke-linecap:square;stroke-miterlimit:10;shape-rendering:auto;stroke-opacity:1;fill:#000;stroke-dasharray:none;font-weight:400;stroke-width:1;font-family:&quot;Dialog&quot;;font-style:normal;stroke-linejoin:miter;font-size:12px;stroke-dashoffset:0;image-rendering:auto">
    <g style="stroke-linecap:round;fill:#b0bac0;stroke:#b0bac0">
        <path stroke="none" d="M18 33.5v-6l6-6V28h-.5Z" style="stroke:none"/>
    </g>
    <g stroke="none" style="stroke-linecap:round;fill:#6e7080;stroke:#6e7080">
        <path d="M18 48.5v-15l2.5-2.5.5.5v4l.5.5 4-4H28v7.5l-4 4v3l.5.5 3-3 4 4h.5v5.5L29.5 56h-4Z" style="stroke:none"/>
        <path d="m21.5 36-.5-.5v-4l-.5-.5 3-3h2l2.5-2.5v-4l4-4V16h4v2.5l-4 4v6L28.5 32h-3Z" style="fill:#989aa4;stroke:none"/>
        <path d="M24 24.5v-10l2.5-2.5H28v8.5Z" style="fill:#bf92f9;stroke:none"/>
        <path d="M24 28v-3.5l4-4V12h4v5.5l-4 4v4L25.5 28Z" style="fill:#665c9f;stroke:none"/>
        <path d="m24.5 47-.5-.5v-3l4-4v4Z" style="fill:#989aa4;stroke:none"/>
        <path d="m28.5 39 9 9h-6l-4-4 .5-.5V32h.5l3.5-3.5v7Z" style="fill:#b0bac0;stroke:none"/>
        <path d="m28.5 39 3.5-3.5 4.5 4.5-.5.5v2l3.5 3.5.5-.5v-3l2.5-2.5h3l2.5 2.5v3l.5.5 3.5-3.5v-2l-.5-.5 4.5-4.5 3.5 3.5-9 9h-1l-4 4h-3l-4-4h-1Z" style="fill:#989aa4;stroke:none"/>
        <path d="M32 16v-4.5L35.5 8H40v4.5L36.5 16Z" style="fill:#bf92f9;stroke:none"/>
        <path d="M32 32.5v-10l4-4V16h.5l3.5-3.5v12Z" style="fill:#665c9f;stroke:none"/>
        <path d="M32 35.5v-3l8-8v19Z" style="fill:#bf92f9;stroke:none"/>
        <path d="M33.5 48h5l4 4h3l4-4h5L52 50.5v4L46.5 60h-5L36 54.5v-4Z" style="stroke:none"/>
        <path d="M40 43.5v2l-.5.5-3.5-3.5v-2l.5-.5Z" style="fill:#665c9f;stroke:none"/>
        <path d="M40 18.5V8h.5l2-2h3l2 2h.5v10.5L45.5 16h-3Z" style="fill:#b0bac0;stroke:none"/>
        <path d="M40 22.5v-4l2.5-2.5h3l2.5 2.5v4L45.5 20h-3Z" style="fill:#989aa4;stroke:none"/>
        <path d="M40 38.5v-16l2.5-2.5h3l2.5 2.5v16L45.5 36h-3Z" style="fill:#b0bac0;stroke:none"/>
        <path d="M40 42.5v-4l2.5-2.5h3l2.5 2.5v4L45.5 40h-3Z" style="stroke:none"/>
        <path d="M48 12.5V8h4.5l3.5 3.5V16h-4.5Z" style="fill:#bf92f9;stroke:none"/>
        <path d="M51.5 16h.5v2.5l4 4v10l-8-8v-12Z" style="fill:#665c9f;stroke:none"/>
        <path d="M56 32.5v3L48.5 43H48V24.5Z" style="fill:#bf92f9;stroke:none"/>
        <path d="m48.5 46-.5-.5V43h.5l3-3 .5.5v2Z" style="fill:#665c9f;stroke:none"/>
        <path d="m50.5 48 9-9-3.5-3.5v-7l3.5 3.5h.5v11.5l.5.5-4 4Z" style="fill:#b0bac0;stroke:none"/>
        <path d="M52 18.5V16h4v1.5l4 4v4l2.5 2.5h2l3 3-.5.5v4l-.5.5-4-4h-3L56 28.5v-6Z" style="fill:#989aa4;stroke:none"/>
        <path d="M56 17.5V12h4v8.5l4 4V28h-1.5L60 25.5v-4Z" style="fill:#665c9f;stroke:none"/>
        <path d="M56 53.5V48h.5l4-4 3 3 .5-.5v-3l-4-4V32h2.5l4 4 .5-.5v-4l.5-.5 2.5 2.5v15L62.5 56h-4Z" style="stroke:none"/>
        <path d="M60 20.5V12h1.5l2.5 2.5v10Z" style="fill:#bf92f9;stroke:none"/>
        <path d="M64 43.5v3l-.5.5-3.5-3.5v-4Z" style="fill:#989aa4;stroke:none"/>
        <path d="M70 27.5v6L64.5 28H64v-6.5Z" style="fill:#b0bac0;stroke:none"/>
    </g>
</svg>
