<svg xmlns="http://www.w3.org/2000/svg" width="90" height="94" style="fill-opacity:1;color-rendering:auto;color-interpolation:auto;text-rendering:auto;stroke:#000;stroke-linecap:square;stroke-miterlimit:10;shape-rendering:auto;stroke-opacity:1;fill:#000;stroke-dasharray:none;font-weight:400;stroke-width:1;font-family:&quot;Dialog&quot;;font-style:normal;stroke-linejoin:miter;font-size:12px;stroke-dashoffset:0;image-rendering:auto">
    <g style="stroke-linecap:round;fill:#dcc6c6;stroke:#dcc6c6">
        <path stroke="none" d="m21 67.5.5-.5h4l5 5 3.5-3.5v4l-4 4Z" style="stroke:none"/>
    </g>
    <g stroke="none" style="stroke-linecap:round;fill:#fff;stroke:#fff">
        <path d="m25.5 67 6-6 2.5 2.5v5L30.5 72Zm14-31h2l3.5-3.5 3.5 3.5h2l2-2 .5.5v2l-3 3v2l-5 5-5-5v-2l-3-3v-2l.5-.5Z" style="stroke:none"/>
        <path d="M40 39.5v2l5 5 5-5v-2l3-3v7L46.5 50h-3L37 43.5v-7Z" style="fill:#dcc6c6;stroke:none"/>
        <path d="M56 68.5v-5l2.5-2.5 6 6-5 5Z" style="stroke:none"/>
        <path d="m59.5 72 5-5h4l.5.5-9 9-4-4v-4Z" style="fill:#dcc6c6;stroke:none"/>
    </g>
</svg>
