<svg xmlns="http://www.w3.org/2000/svg" width="48" height="48" style="fill-opacity:1;color-rendering:auto;color-interpolation:auto;text-rendering:auto;stroke:#000;stroke-linecap:square;stroke-miterlimit:10;shape-rendering:auto;stroke-opacity:1;fill:#000;stroke-dasharray:none;font-weight:400;stroke-width:1;font-family:&quot;Dialog&quot;;font-style:normal;stroke-linejoin:miter;font-size:12px;stroke-dashoffset:0;image-rendering:auto">
    <g style="stroke-linecap:round;fill:#dcc6c6;stroke:#dcc6c6">
        <path stroke="none" d="M7 33.5v-2L8.5 30l4.5 4.5-1.5 1.5h-2Z" style="stroke:none"/>
    </g>
    <g stroke="none" style="stroke-linecap:round;fill:#fff;stroke:#fff">
        <path d="m8.5 30 2-2h2l2.5 2.5v2l-2 2ZM20 37.5l4-4 4 4-4 4Z" style="stroke:none"/>
        <path d="m24 41.5 4-4v3l-4 4-4-4v-3Z" style="fill:#dcc6c6;stroke:none"/>
        <path d="M33 32.5v-2l2.5-2.5h2l2 2-4.5 4.5Z" style="stroke:none"/>
        <path d="m35 34.5 4.5-4.5 1.5 1.5v2L38.5 36h-2Z" style="fill:#dcc6c6;stroke:none"/>
    </g>
</svg>
