<svg xmlns="http://www.w3.org/2000/svg" width="56" height="54" style="fill-opacity:1;color-rendering:auto;color-interpolation:auto;text-rendering:auto;stroke:#000;stroke-linecap:square;stroke-miterlimit:10;shape-rendering:auto;stroke-opacity:1;fill:#000;stroke-dasharray:none;font-weight:400;stroke-width:1;font-family:&quot;Dialog&quot;;font-style:normal;stroke-linejoin:miter;font-size:12px;stroke-dashoffset:0;image-rendering:auto">
    <g style="stroke-linecap:round;fill:#6e7080;stroke:#6e7080">
        <path stroke="none" d="M5 34.5v-5L7.5 27h1l3.5 3.5-4 4v3Z" style="stroke:none"/>
    </g>
    <g stroke="none" style="stroke-linecap:round;fill:#6e7080;stroke:#6e7080">
        <path d="M8 22.5v-3l3.5-3.5.5.5v8l.5.5-1 1Z" style="stroke:none"/>
        <path d="m11.5 26 8-8h.5v1.5l.5.5-7.5 7.5 7 7v2l-.5.5-7-7-.5.5L8.5 27H8v-4.5ZM8 41.5v-7L9.5 33l9 9-4 4h-1l-.5.5Z" style="fill:#989aa4;stroke:none"/>
        <path d="m9.5 33 3-3 9 9-3 3Zm3-8-.5-.5v-8l-.5-.5 5-5H20v7h-.5Z" style="fill:#b0bac0;stroke:none"/>
        <path d="m13 27.5 3.5-3.5 3 3-3.5 3.5Z" style="fill:#ffd37f;stroke:none"/>
        <path d="m16 30.5 5.5-5.5.5.5v2l.5.5-2.5 2.5v4Z" style="stroke:none"/>
        <path d="m16.5 24 4-4 3 3-4 4Z" style="fill:#d4816b;stroke:none"/>
        <path d="m18.5 42 3-3 5 5h3l5-5 3 3-7 7h-5ZM20 19.5V19h.5l3.5-3.5v3l.5.5-2.5 2.5Z" style="stroke:none"/>
        <path d="M20 36.5v-6l5.5-5.5.5.5v3l-3 3v2Z" style="fill:#d4816b;stroke:none"/>
        <path d="m19.5 37 3.5-3.5v-2l3-3v9l.5.5-3 3Z" style="fill:#ffd37f;stroke:none"/>
        <path d="m22 21.5 6-6 6 6-1.5 1.5 2 2-.5.5v2l-.5.5-5.5-5.5-5.5 5.5-.5-.5v-2l-.5-.5 2-2Z" style="fill:#989aa4;stroke:none"/>
        <path d="m24.5 19-.5-.5v-3l2.5-2.5h3l2 2h.5v3.5l-.5.5-3.5-3.5Z" style="fill:#b0bac0;stroke:none"/>
        <path d="m23.5 41 4.5-4.5 4.5 4.5-3 3h-3Z" style="fill:#989aa4;stroke:none"/>
        <path d="m26.5 38-.5-.5v-12l-.5-.5 2.5-2.5 2.5 2.5-.5.5v12l-.5.5-1.5-1.5Z" style="fill:#b0bac0;stroke:none"/>
        <path d="M36 30.5v6l-3-3v-2l-3-3v-3l.5-.5Z" style="fill:#d4816b;stroke:none"/>
        <path d="M33 31.5v2l3.5 3.5-4 4-3-3 .5-.5v-9Z" style="fill:#ffd37f;stroke:none"/>
        <path d="m36 19.5-2 2-2.5-2.5.5-.5v-3Z" style="stroke:none"/>
        <path d="m32.5 23 3-3 4 4-3 3Z" style="fill:#d4816b;stroke:none"/>
        <path d="m40 30.5-4 4v-4L33.5 28l.5-.5v-2l.5-.5Z" style="stroke:none"/>
        <path d="m34.5 39 9-9 3 3-9 9ZM36 17.5V11h3.5l5 5-.5.5v8l-.5.5Z" style="fill:#b0bac0;stroke:none"/>
        <path d="m44.5 26 3.5-3.5V27h-.5L44 30.5l-.5-.5-7 7-.5-.5v-2l7-7-7.5-7.5.5-.5v-2Z" style="fill:#989aa4;stroke:none"/>
        <path d="m36.5 27 3-3 3.5 3.5-3 3Z" style="fill:#ffd37f;stroke:none"/>
        <path d="m37.5 42 9-9 1.5 1.5v7l-5 5-.5-.5h-1Z" style="fill:#989aa4;stroke:none"/>
        <path d="M48 19.5v3L44.5 26l-1-1 .5-.5v-8l.5-.5Zm-4 11 3.5-3.5h1l2.5 2.5v5l-3 3v-3Z" style="stroke:none"/>
    </g>
</svg>
