<svg xmlns="http://www.w3.org/2000/svg" width="40" height="36" style="fill-opacity:1;color-rendering:auto;color-interpolation:auto;text-rendering:auto;stroke:#000;stroke-linecap:square;stroke-miterlimit:10;shape-rendering:auto;stroke-opacity:1;fill:#000;stroke-dasharray:none;font-weight:400;stroke-width:1;font-family:&quot;Dialog&quot;;font-style:normal;stroke-linejoin:miter;font-size:12px;stroke-dashoffset:0;image-rendering:auto">
    <g style="stroke-linecap:round;fill:#6e7080;stroke:#6e7080">
        <path stroke="none" d="M.5 8V5h3l6 6h-5l-3-3Z" style="stroke:none"/>
    </g>
    <g stroke="none" style="stroke-linecap:round;fill:#989aa4;stroke:#989aa4">
        <path d="M.5 28V8h1l3 3h5l1.5 1.5L5.5 18l5.5 5.5L9.5 25h-5l-3 3Z" style="stroke:none"/>
        <path d="M.5 31v-3h1l3-3h5l-6 6Z" style="fill:#6e7080;stroke:none"/>
        <path d="M3.5 5h8l5.5 5.5-.5.5h-7Zm0 26 6-6h7l.5.5-5.5 5.5Z" style="fill:#4a4b53;stroke:none"/>
        <path d="m5.5 18 5.5-5.5L9.5 11h7l.5-.5L11.5 5h9l5.5 5.5-.5.5h-5l-.5.5 3.5 3.5h8l3 3-3 3h-8L20 24.5l.5.5h5l.5.5-5.5 5.5h-9l5.5-5.5-.5-.5h-7l1.5-1.5Z" style="fill:#6e7080;stroke:none"/>
        <path d="m10.5 18 5.5 5.5 5.5-5.5-5.5-5.5Z" style="fill:#6e7080;stroke:none"/>
        <path d="m10.5 18 5.5-5.5 5.5 5.5-5.5 5.5Z" style="stroke:none"/>
        <path d="m20 11.5.5-.5h5l.5-.5L20.5 5h5l3 3h4l3.5 3.5v13L32.5 28h-4l-3 3h-5l5.5-5.5-.5-.5h-5l-.5-.5 3.5-3.5h8l3-3-3-3h-8Z" style="fill:#4a4b53;stroke:none"/>
    </g>
</svg>
