<svg xmlns="http://www.w3.org/2000/svg" width="195" height="212" style="fill-opacity:1;color-rendering:auto;color-interpolation:auto;text-rendering:auto;stroke:#000;stroke-linecap:square;stroke-miterlimit:10;shape-rendering:auto;stroke-opacity:1;fill:#000;stroke-dasharray:none;font-weight:400;stroke-width:1;font-family:&quot;Dialog&quot;;font-style:normal;stroke-linejoin:miter;font-size:12px;stroke-dashoffset:0;image-rendering:auto">
    <g style="stroke-linecap:round;fill:#4a4b53;stroke:#4a4b53">
        <path stroke="none" d="M5 161.5v-5l9-9 2.5 2.5 5-5h2l4.5 4.5v4l-6 6v2l3 3v6l3.5 3.5h4l3.5-3.5v4l-6 6v2l8.5 8.5h4l3-3-7.5-7.5v-3l3.5-3.5h1l6.5 6.5 4-4v-2l-12-12 3-3V156h3.5l2-2-3.5-3.5 3.5-3.5 3.5 3.5 9.5-9.5H64v.5l3.5 3.5h2l3-3 .5.5v1l4 4 4.5-4.5 5.5 5.5v6l5.5 5.5h10l5.5-5.5v-6l5.5-5.5 4.5 4.5 4-4v-1l.5-.5 3 3h2l3.5-3.5v-.5h1.5l9.5 9.5 3.5-3.5 3.5 3.5-3.5 3.5 2 2h3.5v3.5l3 3-12 12v2l4 4 7-7 4 4v3l-7.5 7.5 3 3h4l8.5-8.5v-2l-6-6v-4l3.5 3.5h4l3.5-3.5v-6l3-3v-2l-6-6v-4l4.5-4.5h2l5 5 2.5-2.5 9 9v5l-17 17v4l4 4v3L159.5 207h-12l-18-18 6.5-6.5v-2l-8.5-8.5-4 4h-4l-17 17h-10l-17-17h-4l-4-4-8.5 8.5v2l6.5 6.5-18 18h-12L18 189.5v-3l4-4v-4Z" style="stroke:none"/>
    </g>
    <g stroke="none" style="stroke-linecap:round;fill:#989aa4;stroke:#989aa4">
        <path d="M13 108.5v-8l4-4v-3l6.5-6.5H25v.5l3 3V92h-1.5l-8.5 8.5v3Z" style="stroke:none"/>
        <path d="M13 121.5v-13l5-5v-3l8.5-8.5H28v6h-1.5l-8.5 8.5v9l.5.5Z" style="fill:#8ca9e8;stroke:none"/>
        <path d="M13 122.5v-1l3-3 5.5 5.5-3.5 3.5Zm1 25 6.5-6.5h5l7.5 7.5-.5.5 2.5 2.5-10 10v3l-3-3v-2l6-6v-4l-4.5-4.5h-2l-5 5Z" style="fill:#6e7080;stroke:none"/>
        <path d="m16 118.5 6-6 2.5 2.5h7l3 3 6-6 3 3h4l6-6h2l23-23 3.5 3.5-2 2v2l-13 13v1l.5.5L56 119.5v6l1.5 1.5-.5.5v1l-4.5 4.5h-4l-8.5-8.5L29.5 135h-4l-7.5-7.5 3.5-3.5Z" style="fill:#4a4b53;stroke:none"/>
        <path d="m18.5 116-.5-.5v-9l8.5-8.5H28v8.5Z" style="fill:#d1efff;stroke:none"/>
        <path d="m22 112.5 6-6v-16l3-3 1 1v15l3 3 5.5-5.5 4 4-3.5 3.5v3l-6.5 6.5-3-3h-7Z" style="fill:#6e7080;stroke:none"/>
        <path d="M24 40.5v-6l7.5-7.5 4 4-2.5 2.5 3.5 3.5 3-3 2.5 2.5v6l-8 8Z" style="fill:#4a4b53;stroke:none"/>
        <path d="M25 81.5v-14l11-11v-4l3.5-3.5.5.5v1l2.5 2.5H46v4.5l4 4v2l-4 4-3.5-3.5-5.5 5.5 3.5 3.5-6.5 6.5v3l4 4-.5.5 3 3h2l5-5H54v.5l2.5 2.5-5.5 5.5v5l-6.5 6.5-4-4-5.5 5.5-3-3v-15Z" style="stroke:none"/>
        <path d="m31 87.5-3 3-3-3v-6Z" style="fill:#4a4b53;stroke:none"/>
        <path d="M25 170.5v-9L36.5 150h5l1.5 1.5-12 12v4l4 4-2.5 2.5h-4Z" style="fill:#8ca9e8;stroke:none"/>
        <path d="M30 182.5v-2l6-6v-7l5-5 6.5 6.5-5 5h-1l-3.5 3.5v3l7.5 7.5-3 3h-4Z" style="fill:#6e7080;stroke:none"/>
        <path d="M31 167.5v-4l12-12 1 1v7l-8 8v3l-1 1Z" style="fill:#d1efff;stroke:none"/>
        <path d="m31.5 27 5.5-5.5 3.5 3.5-3.5 3.5 4 4 4.5-4.5 3 3h3l.5.5-7 7v5l-9 9-2-2 8-8v-6L39.5 34l-3 3-3.5-3.5 2.5-2.5Z" style="fill:#6e7080;stroke:none"/>
        <path d="m32.5 149 16-16h4l.5-.5 5 5v7l.5.5-5.5 5.5-3.5-3.5-3.5 3.5 3.5 3.5-2 2H44v-3.5l-2.5-2.5h-5l-1.5 1.5Z" style="stroke:none"/>
        <path d="M34 82.5v-3l16-16v-2l9.5-9.5h5l.5.5-3 3v3l-17 17v4l-7 7Z" style="fill:#8ca9e8;stroke:none"/>
        <path d="m37 21.5 7.5-7.5h8l6 6h2l15-15h8l5.5 5.5v13L84.5 19h-7L75 16.5l-4 4 3.5 3.5-4 4h-2l-3-3h-2l-5 5h-5L52 31.5l-.5-.5h-3l-3-3-4.5 4.5-4-4 3.5-3.5Z" style="stroke:none"/>
        <path d="m37 69.5 5.5-5.5 3.5 3.5-5.5 5.5Z" style="fill:#6e7080;stroke:none"/>
        <path d="m37.5 87 7.5-7.5V79h7.5l7-7h4l7.5-7.5v-6l-.5-.5L83 45.5l-3-3 3.5-3.5 3 3 2.5-2.5v14l-12 12V69h-5.5L67 73.5V76h-3.5l-4 4h-2L54 83.5V85h-6.5l-5 5h-2Z" style="fill:#4a4b53;stroke:none"/>
        <path d="M40 50.5v-1l-.5-.5 5.5-5.5v-5l8.5-8.5 4.5 4.5-8 8v2l3.5 3.5-5 5h-6Zm.5 61.5.5-.5v-3l10-10v-5l7.5-7.5 4 4-7.5 7.5v5l-6 6v4l.5.5-2 2h-4Z" style="fill:#8ca9e8;stroke:none"/>
        <path d="m42.5 174 5-5 5.5 5.5v2l-4 4Z" style="stroke:none"/>
        <path d="M45 79v-3.5l17-17v-3l3-3 6 6v6L63.5 72h-4l-7 7Z" style="fill:#d1efff;stroke:none"/>
        <path d="M46 57.5V53h2.5l11-11 .5.5V52h-.5L50 61.5Z" style="fill:#4a4b53;stroke:none"/>
        <path d="m49.5 113-.5-.5v-4l6-6v-5l7.5-7.5-4-4 5.5-5.5 4 4 5-5 6 6L55.5 109h-2Zm.5-68.5v-2l8-8-4.5-4.5h7l3.5 3.5v4L53.5 48Z" style="fill:#d1efff;stroke:none"/>
        <path d="m53 132.5 4-4v-1l.5-.5 4 4h5l.5.5-3 3v6.5h-1.5l-4 4-.5-.5v-7Zm1-47v-2l3.5-3.5h2l4-4H67v.5l.5.5-11 11Z" style="fill:#6e7080;stroke:none"/>
        <path d="M56 125.5v-6l4-4 3.5 3.5 3.5-3.5-3.5-3.5 4-4 4.5 4.5v5l-4 4v9l-1 1-.5-.5h-5Z" style="stroke:none"/>
        <path d="M59 157.5v2l7.5 7.5h2l3-3h2l6.5 6.5 3-3v-2l-16-16Z" style="fill:#4a4b53;stroke:none"/>
        <path d="m58.5 30 5-5h2l3 3h2l7.5-7.5V19h6.5l4.5 4.5v7L84.5 26h-3L75 32.5l4 4-3 3-4-4-12 12v-5l-.5-.5 4.5-4.5v-4L60.5 30Zm.5 129.5v-2l3-3 6 6 5-5 10 10v2l-3 3-6.5-6.5h-2l-3 3h-2Z" style="fill:#6e7080;stroke:none"/>
        <path d="M60 52v-4.5l12-12 4 4 3-3-4-4 6.5-6.5h3l4.5 4.5v9L86.5 42l-3-3-3.5 3.5 3 3-2 2-.5-.5h-8L66 53.5 64.5 52Z" style="stroke:none"/>
        <path d="m60 115.5 3.5-3.5 3.5 3.5-3.5 3.5Z" style="fill:#6e7080;stroke:none"/>
        <path d="m62 154.5 5-5 6 6-5 5Z" style="stroke:none"/>
        <path d="m64 80.5 5-5 4 4-5 5Zm0 61v-7l4-4v-9l4-4v-15l-.5-.5 8.5-8.5v-2l3.5-3.5 3.5 3.5-4 4v5l3 3-3.5 3.5-3.5-3.5-3 3v16l-3 3v7l1.5 1.5h.5v5.5l-5.5 5.5h-2Z" style="fill:#8ca9e8;stroke:none"/>
        <path d="m66 53.5 6.5-6.5h8l.5.5L70.5 58Z" style="fill:#6e7080;stroke:none"/>
        <path d="m67.5 77-.5-.5v-3l4.5-4.5H77v.5L91.5 84h12L118 69.5V69h5.5l4.5 4.5v3l-.5.5-1.5-1.5-10 10-3-3-3.5 3.5 2 2-13 13h-2l-13-13 2-2-3.5-3.5-3 3-10-10Z" style="stroke:none"/>
        <path d="M67 107.5v-1l4.5-4.5.5.5v10Z" style="fill:#6e7080;stroke:none"/>
        <path d="m71 20.5 4-4 2.5 2.5h.5v1.5L74.5 24Z" style="fill:#4a4b53;stroke:none"/>
        <path d="M73 132.5v-7l3-3v-16l3-3 3.5 3.5 3.5-3.5-3-3v-5l4-4 7.5 7.5-.5.5v3l-4 4v5l-7 7v9.5h-.5l-6 6h-2Z" style="fill:#d1efff;stroke:none"/>
        <path d="M73 143.5v-1l-.5-.5 2.5-2.5v-3l6.5 6.5-4.5 4.5Z" style="fill:#6e7080;stroke:none"/>
        <path d="M75 136.5V134h1.5l1.5-1.5 4 4 5-5-3.5-3.5 6.5-6.5v-4l5-5v-.5h5v.5l5 5v4l6.5 6.5-3.5 3.5 5 5 4-4 1.5 1.5h1.5v2.5l-12 12v.5h-1.5l-7-7 3.5-3.5-5.5-5.5-5.5 5.5 3.5 3.5-7 7H87v-.5Z" style="stroke:none"/>
        <path d="m78 132.5 4.5-4.5h1l3.5 3.5-5 5Zm.5-46.5 3.5-3.5 3.5 3.5-3.5 3.5Z" style="fill:#6e7080;stroke:none"/>
        <path d="M83.5 128H83v-9.5l7-7v-5l1-1 4 4v3l-5 5v4Z" style="fill:#4a4b53;stroke:none"/>
        <path d="M87 154.5V149h1.5l7-7-3.5-3.5 5.5-5.5 5.5 5.5-3.5 3.5 7 7h1.5v5.5l-5.5 5.5h-10Zm4-49 3-3v-3l.5-.5 2 2h2l2-2 .5.5v3l3 3-4 4v2.5h-5v-2.5Z" style="fill:#6e7080;stroke:none"/>
        <path d="M100 112.5v-3l4-4 1 1v5l7 7v9l-.5.5-6.5-6.5v-4Z" style="fill:#4a4b53;stroke:none"/>
        <path d="M101 102.5v-3l-.5-.5 7.5-7.5 4 4v5l-3 3 3.5 3.5 3.5-3.5 3 3v16l3 3v7l-1.5 1.5h-2l-6.5-6.5v-9l-7-7v-5Z" style="fill:#d1efff;stroke:none"/>
        <path d="M106 23.5v-13l5.5-5.5h8l15 15h2l6-6h8l7.5 7.5-3.5 3.5 3.5 3.5-4 4-4.5-4.5-3 3h-3l-.5.5-1.5-1.5h-5l-5-5h-2l-3 3h-2l-4-4 3.5-3.5-4-4-2.5 2.5h-7Z" style="stroke:none"/>
        <path d="M106 30.5v-7l4.5-4.5h6.5v1.5l7.5 7.5h2l3-3h2l5 5h-2l-3.5 3.5v4l4.5 4.5-.5.5v5l-12-12-4 4-3-3 4-4-6.5-6.5h-3Z" style="fill:#6e7080;stroke:none"/>
        <path d="M106 39.5v-9l4.5-4.5h3l6.5 6.5-4 4 3 3 4-4 12 12V52h-4.5l-1.5 1.5-6.5-6.5h-8l-.5.5-2-2 3-3-3.5-3.5-3 3Z" style="stroke:none"/>
        <path d="m108.5 42 3-3 3.5 3.5-3 3L124.5 58l-.5.5v6l7.5 7.5h4l7 7h7.5v.5l7.5 7.5-3 3h-2l-5-5H141v-1.5l-3.5-3.5h-2l-4-4H128v-2.5l-4.5-4.5H118v-3.5l-12-12v-14Z" style="fill:#4a4b53;stroke:none"/>
        <path d="m108 91.5 3.5-3.5 3.5 3.5v2l8.5 8.5-.5.5v15l4 4v9l4 4v7l-3.5 3.5h-2l-5.5-5.5V134h.5l1.5-1.5v-7l-3-3v-16l-3-3-3.5 3.5-3.5-3.5 3-3v-5Z" style="fill:#8ca9e8;stroke:none"/>
        <path d="m108 131.5 4-4 5 5-4 4Zm1.5-45.5 3.5-3.5 3.5 3.5-3.5 3.5Z" style="fill:#6e7080;stroke:none"/>
        <path d="M112 165.5v2l3 3 6.5-6.5h2l3 3h2l7.5-7.5v-2l-8-8Z" style="fill:#4a4b53;stroke:none"/>
        <path d="M112 167.5v-2l10-10 5 5 6-6 3 3v2l-7.5 7.5h-2l-3-3h-2l-6.5 6.5Z" style="fill:#6e7080;stroke:none"/>
        <path d="m113 89.5 3.5-3.5 23 23h2l6 6h4l3-3 6 6 3-3h7l2.5-2.5 6 6-5.5 5.5 3.5 3.5-7.5 7.5h-4L155 124.5l-8.5 8.5h-4l-4.5-4.5v-1l-.5-.5 1.5-1.5v-6L127.5 108l.5-.5v-1l-13-13v-2Z" style="fill:#4a4b53;stroke:none"/>
        <path d="m114 47.5.5-.5h8l6.5 6.5-4.5 4.5Zm-.5 95.5 6.5-6.5v3l2.5 2.5-.5.5v1l-4 4Z" style="fill:#6e7080;stroke:none"/>
        <path d="m116 85.5 6-6 5 5 4-4 5.5 5.5-4 4 7.5 7.5v5l6 6v4l-.5.5-4-4h-2Z" style="fill:#d1efff;stroke:none"/>
        <path d="M117 20.5V19h.5l2.5-2.5 4 4-3.5 3.5Z" style="fill:#4a4b53;stroke:none"/>
        <path d="m122 79.5 4-4 5 5-4 4Z" style="fill:#8ca9e8;stroke:none"/>
        <path d="m122 155.5 6-6 5 5-6 6Z" style="stroke:none"/>
        <path d="M128 106.5v1l-5 5v-10l.5-.5Z" style="fill:#6e7080;stroke:none"/>
        <path d="M123 117.5v-5l4.5-4.5 4 4-3.5 3.5 3.5 3.5 3.5-3.5 4 4v6l-5.5 5.5h-5l-.5.5-1-1v-9Z" style="stroke:none"/>
        <path d="M124 64.5v-6l6-6 3 3v3l17 17V79h-7.5l-7-7h-4Z" style="fill:#d1efff;stroke:none"/>
        <path d="m127.5 77 .5-.5V76h3.5l4 4h2l3.5 3.5v2l-2.5 2.5Zm.5 38.5 3.5-3.5 3.5 3.5-3.5 3.5Zm0 16 .5-.5h5l4-4 .5.5v1l4 4-5 5v7l-.5.5-4-4H131v-6.5Z" style="fill:#6e7080;stroke:none"/>
        <path d="m130 52.5.5-.5h5l9.5 9.5v2l16 16v3l-4 4-7-7v-4l-17-17v-3Z" style="fill:#8ca9e8;stroke:none"/>
        <path d="M131 37.5v-4l3.5-3.5h7l-4.5 4.5 8 8v2l-3.5 3.5Z" style="fill:#d1efff;stroke:none"/>
        <path d="m132.5 90 4-4 7.5 7.5v5l10 10v3l.5.5-3 3h-4l-2-2 .5-.5v-4l-6-6v-5Z" style="fill:#8ca9e8;stroke:none"/>
        <path d="M146.5 53h2.5v4.5l-4 4-9.5-9.5h-.5v-9.5l.5-.5Z" style="fill:#4a4b53;stroke:none"/>
        <path d="m137 34.5 4.5-4.5 8.5 8.5v5l5.5 5.5-.5.5v1l-2.5 2.5h-6l-5-5 3.5-3.5v-2Z" style="fill:#8ca9e8;stroke:none"/>
        <path d="m136.5 145 .5-.5v-7l5-5 .5.5h4l16 16-2.5 2.5-1.5-1.5h-5l-2.5 2.5v3.5h-3.5l-2-2 3.5-3.5-3.5-3.5-3.5 3.5Zm2-57 2.5-2.5V85h6.5l5 5h2l3-3-.5-.5 4-4v-3l-6.5-6.5 3.5-3.5-5.5-5.5-3.5 3.5-4-4v-2l4-4V53h3.5l2.5-2.5v-1l.5-.5 3.5 3.5v4l11 11v14l-7 7v15l-3 3-5.5-5.5-4 4-6.5-6.5v-5Zm3.5 88.5v-2l5.5-5.5 5 5-6.5 6.5Z" style="stroke:none"/>
        <path d="m143 31.5.5-.5h3l3-3 4.5 4.5 4-4-3.5-3.5 3.5-3.5 5.5 5.5-4 4 2.5 2.5-3.5 3.5-3-3-2.5 2.5v6l8 8-2 2-9-9v-5Zm4.5 137.5 6.5-6.5 5 5v7l6 6v2l-8.5 8.5h-4l-3-3 7.5-7.5v-3l-4-4-.5.5ZM149 67.5l3.5-3.5 5.5 5.5-3.5 3.5Zm1.5 37.5 4-4 5.5 5.5 3-3v-15l1-1 3 3v16l6 6-2.5 2.5h-7l-3 3-6.5-6.5v-3Z" style="fill:#6e7080;stroke:none"/>
        <path d="M151 159.5v-7l1-1 12 12v4l-4 4-1-1v-3Z" style="fill:#d1efff;stroke:none"/>
        <path d="m152 151.5 1.5-1.5h5l11.5 11.5v9l-3.5 3.5h-4l-2.5-2.5 4-4v-4Z" style="fill:#8ca9e8;stroke:none"/>
        <path d="M153 42.5v-6l2.5-2.5 3 3 3.5-3.5-2.5-2.5 4-4 7.5 7.5v6l-10 10Z" style="fill:#4a4b53;stroke:none"/>
        <path d="m160 151.5 2.5-2.5-.5-.5 7.5-7.5h5l6.5 6.5-2.5 2.5-5-5h-2l-4.5 4.5v4l6 6v2l-3 3v-3Z" style="fill:#6e7080;stroke:none"/>
        <path d="m164 87.5 6-6v6l-3 3Z" style="fill:#4a4b53;stroke:none"/>
        <path d="M167 92v-1.5l3-3V87h1.5l6.5 6.5v3l4 4v8l-5-5v-3l-8.5-8.5Z" style="stroke:none"/>
        <path d="M167 98v-6h1.5l8.5 8.5v3l5 5v13l-5.5-5.5.5-.5v-9l-8.5-8.5Z" style="fill:#8ca9e8;stroke:none"/>
        <path d="M167 106.5V98h1.5l8.5 8.5v9l-.5.5Z" style="fill:#d1efff;stroke:none"/>
        <path d="m173.5 124 5.5-5.5 3 3v1l-5 5Z" style="fill:#6e7080;stroke:none"/>
    </g>
</svg>
