<svg xmlns="http://www.w3.org/2000/svg" width="118" height="60" style="fill-opacity:1;color-rendering:auto;color-interpolation:auto;text-rendering:auto;stroke:#000;stroke-linecap:square;stroke-miterlimit:10;shape-rendering:auto;stroke-opacity:1;fill:#000;stroke-dasharray:none;font-weight:400;stroke-width:1;font-family:&quot;Dialog&quot;;font-style:normal;stroke-linejoin:miter;font-size:12px;stroke-dashoffset:0;image-rendering:auto">
    <g style="stroke-linecap:round;fill:#989aa4;stroke:#989aa4">
        <path stroke="none" d="M7 17.5v-4L11.5 9h5l4-4h12l4 4h8l3.5 3.5v1l.5.5-3 3h-9l-6 6h-18Z" style="stroke:none"/>
    </g>
    <g stroke="none" style="stroke-linecap:round;fill:#989aa4;stroke:#989aa4">
        <path d="M7 46.5v-4l5.5-5.5h18l6 6h9l3 3-.5.5V48h-.5l-3 3h-8l-4 4h-12l-4-4h-5Zm1-16v-1l3.5-3.5h12l4 4-4 4h-12Z" style="stroke:none"/>
        <path d="m15.5 26 3-3h12l6-6h9l3-3 4 4h6l3 3-3.5 3.5-3.5-3.5h-12l-9 9 9 9h12l3.5-3.5 3.5 3.5-3 3h-6l-4 4-3-3h-9l-6-6h-12l-3-3h8l4-4-4-4Z" style="fill:#6e7080;stroke:none"/>
        <path d="m33.5 30 9-9h12l4 4h5l5 5-5 5h-5l-4 4h-12Z" style="stroke:none"/>
        <path d="M48 13.5V11h.5l3-3h14l6 6H78v.5l.5.5-5.5 5.5 2.5 2.5h12l4-4h4l4 4h5l3 3h3.5v.5l3.5 3.5-3.5 3.5v.5h-3.5l-3 3h-5l-4 4H91v-.5L87.5 37h-12L73 39.5l5.5 5.5-1 1h-6l-6 6h-14l-3-3H48v-2.5l4.5-4.5h6l3-3-3.5-3.5.5-.5h5l5-5-5-5h-5l-.5-.5 3.5-3.5-3-3h-6Z" style="fill:#4a4b53;stroke:none"/>
        <path d="m69.5 30 4 4h6l4-4-4-4h-6Z" style="fill:#4a4b53;stroke:none"/>
        <path d="m69.5 30 4-4h6l4 4-4 4h-6Zm3.5-9.5 5.5-5.5 4 4h9l-4 4h-12Zm0 19 2.5-2.5h12l3.5 3.5v.5h-8.5l-4 4Z" style="fill:#6e7080;stroke:none"/>
    </g>
</svg>
