<svg xmlns="http://www.w3.org/2000/svg" width="60" height="60" style="fill-opacity:1;color-rendering:auto;color-interpolation:auto;text-rendering:auto;stroke:#000;stroke-linecap:square;stroke-miterlimit:10;shape-rendering:auto;stroke-opacity:1;fill:#000;stroke-dasharray:none;font-weight:400;stroke-width:1;font-family:&quot;Dialog&quot;;font-style:normal;stroke-linejoin:miter;font-size:12px;stroke-dashoffset:0;image-rendering:auto">
    <g style="stroke-linecap:round;fill:#6e7080;stroke:#6e7080">
        <path stroke="none" d="M4 35.5v-11l5-5 5.5 5.5-5 5 5 5L9 40.5Z" style="stroke:none"/>
    </g>
    <g stroke="none" style="stroke-linecap:round;fill:#4a4b53;stroke:#4a4b53">
        <path d="M9 19.5V15h.5L15 9.5V9h4.5l5.5 5.5 5-5 5 5L40.5 9h4l6.5 6.5v4L45.5 25l5 5-5 5 5.5 5.5v4L44.5 51h-4L35 45.5l-5 5-5-5-5.5 5.5h-4L9 44.5v-4l5.5-5.5-5-5 5-5Z" style="stroke:none"/>
        <path d="m19.5 9 5-5h11l5 5-5.5 5.5-5-5-5 5Zm0 42 5.5-5.5 5 5 5-5 5.5 5.5-5 5h-11Zm26-26 5.5-5.5 5 5v11l-5 5-5.5-5.5 5-5Z" style="fill:#6e7080;stroke:none"/>
    </g>
</svg>
