<svg xmlns="http://www.w3.org/2000/svg" width="213" height="276" style="fill-opacity:1;color-rendering:auto;color-interpolation:auto;text-rendering:auto;stroke:#000;stroke-linecap:square;stroke-miterlimit:10;shape-rendering:auto;stroke-opacity:1;fill:#000;stroke-dasharray:none;font-weight:400;stroke-width:1;font-family:&quot;Dialog&quot;;font-style:normal;stroke-linejoin:miter;font-size:12px;stroke-dashoffset:0;image-rendering:auto">
    <g style="stroke-linecap:round;fill:#989aa4;stroke:#989aa4">
        <path stroke="none" d="M5 184.5v-3l11-11v-5L27.5 154l4.5 4.5-4 4 3.5 3.5 2.5-2.5 8.5 8.5h2l3.5 3.5-4 4-5.5-5.5-2.5 2.5-5-5-6.5 6.5 5 5-3.5 3.5 4.5 4.5-4.5 4.5-5.5-5.5-5 5Z" style="stroke:none"/>
    </g>
    <g stroke="none" style="stroke-linecap:round;fill:#4a4b53;stroke:#4a4b53">
        <path d="m21 200.5-8 8v1l.5.5-4 4H5v-6.5l6.5-6.5-6.5-6.5v-10Z" style="stroke:none"/>
        <path d="M5 217.5V214h4.5l4-4 9 9 4-4 4.5 4.5-4 4v3l2.5 2.5-8 8-.5-.5v-4l3-3v-3l-5.5-5.5h-3l-3.5 3.5Z" style="fill:#6e7080;stroke:none"/>
        <path d="m12 224.5 3.5-3.5h3l5.5 5.5v3l-3 3v4l.5.5-2.5 2.5v6l-.5.5h-6L9 242.5v-4l-4-4v-17Z" style="stroke:none"/>
        <path d="M7 90.5v-11l4-4v-8l4.5-4.5h2l2.5 2.5v5l4.5 4.5h2l2-2 3.5 3.5-6 6 4.5 4.5 10-10 2 2h2l4.5-4.5 4.5 4.5h3l5.5-5.5 2.5 2.5-2.5 2.5 3.5 3.5-3.5 3.5v2l1.5 1.5-4.5 4.5 3 3-3.5 3.5-3.5-3.5-3 3v2l-4.5 4.5h-6l-3 3-4-4 7.5-7.5-4-4-7 7-7.5-7.5-4 4H13v-.5Z" style="fill:#989aa4;stroke:none"/>
        <path d="M13 96.5v7l3.5 3.5L27 96.5l4 4-6 6 8 8-4 4v2l8 8v2l10 10-5.5 5.5-5-5-4.5 4.5 4.5 4.5 2-2 6 6L55 143.5v-3l18-18 1 1v5l.5.5L64 139.5v6l-6 6v4l-14 14v2.5h-1.5l-8.5-8.5-2.5 2.5-3.5-3.5 4-4-4.5-4.5.5-.5v-19l-5-5v-4l-6-6-4.5 4.5-5.5-5.5v-28Z" style="stroke:none"/>
        <path d="M13 103.5V97h6.5l4-4 3.5 3.5L16.5 107Z" style="fill:#6e7080;stroke:none"/>
        <path d="M13 153.5v-29l-.5-.5 4.5-4.5 6 6v24l4.5 4.5-7 7Z" style="fill:#ffd37f;stroke:none"/>
        <path d="M13 209.5v-1l2.5-2.5 3 3 4-4 2.5 2.5 4.5-4.5 3.5 3.5 7.5-7.5 4.5 4.5v2.5h-.5L31 219.5l-4.5-4.5-4 4Z" style="fill:#bc5452;stroke:none"/>
        <path d="m15.5 195 5-5 5.5 5.5-5 5Z" style="fill:#6e7080;stroke:none"/>
        <path d="m15.5 206 15-15h2l8 8-7.5 7.5-3.5-3.5-4.5 4.5-2.5-2.5-4 4Z" style="fill:#feb380;stroke:none"/>
        <path d="m25 106.5 13-13 4 4-7.5 7.5 4 4-5.5 5.5Zm-.5 71.5 6.5-6.5 5 5-6.5 6.5ZM26 82.5l6-6-3.5-3.5 4.5-4.5v3l2.5 2.5h2l3 3-10 10Z" style="fill:#6e7080;stroke:none"/>
        <path d="M27 226.5v-3L44.5 206h12l.5-.5 5 5v3.5h-6.5l-10 10h-11l-5 5Z" style="fill:#989aa4;stroke:none"/>
        <path d="m26.5 232 8-8h18l9.5-9.5v-4l-14-14 .5-.5h1l16-16 3.5 3.5-8 8 2.5 2.5 3.5-3.5 5 5-3.5 3.5L85 215.5v6l4 4v6l-6 6v3l-5.5 5.5h-4l-.5-.5v-5l-7.5-7.5h-18l-5 5h-10Z" style="stroke:none"/>
        <path d="M29 120.5v-2l4.5-4.5 4.5 4.5 4.5-4.5h3l7 7 3-3 4.5 4.5-8.5 8.5h-2l-7.5-7.5-5 5Z" style="fill:#feb380;stroke:none"/>
        <path d="m32 145.5 4.5-4.5 5 5 5.5-5.5-5-5 6-6 1.5 1.5h2l7.5-7.5 6.5 6.5-3 3-4.5-4.5-4 4 4.5 4.5-3.5 3.5v3L44.5 154l-6-6-2 2Z" style="fill:#6e7080;stroke:none"/>
        <path d="M33 71.5v-23l1-1 .5.5h14l7-7H71v7.5l-6 6-1.5-1.5h-3l-5 5-4.5-4.5-5 5v2l3 3-11 11-.5-.5h-2Z" style="fill:#989aa4;stroke:none"/>
        <path d="m32.5 191 5-5 8 8-5 5Z" style="fill:#ffd37f;stroke:none"/>
        <path d="m34.5 48-.5-.5 5.5-5.5h5l5-5H53v3.5l.5.5h2l-7 7Z" style="fill:#6e7080;stroke:none"/>
        <path d="m33.5 114 8-8h6l10 10 2-2 4.5 4.5-4 4-4.5-4.5-3 3-7-7h-3l-4.5 4.5Z" style="fill:#bc5452;stroke:none"/>
        <path d="m33.5 179 5-5 5.5 5.5-5 5Z" style="stroke:none"/>
        <path d="M37 130.5v-2l5-5 6 6-6 6Z" style="fill:#989aa4;stroke:none"/>
        <path d="m38 74.5 11-11 3.5 3.5 3.5-3.5v-5l-.5-.5 5-5h3l5.5 5.5 8.5-8.5h2l10 10-3 3-4-4h-6l-20 20h-3L49 74.5 44.5 79h-2Z" style="stroke:none"/>
        <path d="m37.5 186 7-7 3 3 3.5-3.5 3 3 6.5-6.5 5 5-16 16h-1l-.5.5Z" style="fill:#bc5452;stroke:none"/>
        <path d="M40 42v-5.5l6.5-6.5h6l.5.5V37h-3.5l-5 5Z" style="fill:#989aa4;stroke:none"/>
        <path d="M44.5 172H44v-2.5l9-9 4.5 4.5 5-5L77 174.5l3-3 .5.5 10-10 7 7-3 3 4 4-4.5 4.5-7-7-10 10-4.5-4.5-4 4-8-8-6.5 6.5-3-3-3.5 3.5-3-3 3.5-3.5Z" style="fill:#feb380;stroke:none"/>
        <path d="M46 60.5v-2l5-5 5 5v5L52.5 67ZM45.5 224l10-10H62v.5l-9.5 9.5Zm2-118 4.5-4.5v-2l3-3 3.5 3.5-2.5 2.5v3l5 5v4l-.5.5-1-1-2 2Z" style="fill:#6e7080;stroke:none"/>
        <path d="m53 160.5 5-5 4.5 4.5-5 5Z" style="fill:#bc5452;stroke:none"/>
        <path d="m54 132.5 4-4 4.5 4.5-4 4Z" style="fill:#989aa4;stroke:none"/>
        <path d="M56 105.5v-3l6-6 3 3 24-24 4 4-8.5 8.5 4 4 3-3 2 2-8 8-4-4h-2L76 98.5v4l-11 11v1l-2.5 2.5-2-2 .5-.5v-4Z" style="stroke:none"/>
        <path d="M58 155.5v-4l5.5-5.5 8 8 5.5-5.5L90.5 162l-10 10-5.5-5.5-3 3-2.5-2.5 3-3-5.5-5.5-3 3Z" style="fill:#989aa4;stroke:none"/>
        <path d="m59 93.5 4.5-4.5 2 2-4.5 4.5Z" style="fill:#6e7080;stroke:none"/>
        <path d="m59 123.5 5-5-1.5-1.5 2.5-2.5 8 8-7.5 7.5Z" style="fill:#989aa4;stroke:none"/>
        <path d="m61 95.5 8.5-8.5h2l3 3-9.5 9.5Z" style="fill:#bc5452;stroke:none"/>
        <path d="m61 191.5 8-8 11 11-8 8-3.5-3.5 3.5-3.5-5-5-3.5 3.5Z" style="fill:#6e7080;stroke:none"/>
        <path d="M62 73.5 76.5 59h6l6 6 2-2h2l3.5 3.5v2l-5 5-5-5-3 3-3-3-6 6-4-4-5.5 5.5Z" style="fill:#bc5452;stroke:none"/>
        <path d="m62 78.5 8-8 4 4 6-6 3 3 3-3 5 5L74.5 90l-3-3h-2l-4 4-3.5-3.5v-2l3.5-3.5Z" style="fill:#feb380;stroke:none"/>
        <path d="m64 161.5 3-3 5.5 5.5-3 3Zm1-107 6-6V41h8v9h-1.5L69 58.5Z" style="fill:#6e7080;stroke:none"/>
        <path d="M68 215.5v2l4.5 4.5 2.5-2.5v-2l-4.5-4.5Z" style="stroke:none"/>
        <path d="M68 217.5v-2l2.5-2.5 4.5 4.5v2l-2.5 2.5Z" style="fill:#6e7080;stroke:none"/>
        <path d="m68.5 118 7.5-7.5v-12l3.5-3.5h2l5.5 5.5v16L74.5 129l-.5-.5v-5Z" style="fill:#ffd37f;stroke:none"/>
        <path d="m68.5 183 4-4 4.5 4.5 10-10 7 7-14 14Zm3.5-13.5 3-3 5 5-3 3Z" style="fill:#bc5452;stroke:none"/>
        <path d="m72 202.5 9-9 7.5 7.5-5 5 5.5 5.5-4 4Z" style="fill:#989aa4;stroke:none"/>
        <path d="M74 146.5v-2l8.5-8.5 3.5 3.5-9.5 9.5Z" style="fill:#6e7080;stroke:none"/>
        <path d="m77 148.5 9-9 6.5 6.5h3l3.5-3.5 6.5 6.5h2l6.5-6.5 3.5 3.5h3l6.5-6.5 9 9-6 6-3.5-3.5-3.5 3.5 3.5 3.5-4 4-5-5-7 7 8 8-4 4-5-5h-6l-5 5-4-4 8-8-7-7-5 5-4-4 3.5-3.5-3.5-3.5-3.5 3.5Z" style="stroke:none"/>
        <path d="M79.5 50H79v-9h1.5l5.5-5.5v-5l.5-.5h5l4.5 4.5v32L92.5 63h-2l-2 2-2-2 3-3Zm3 86 11-11 3.5 3.5 8.5-8.5h2l8.5 8.5 3.5-3.5 11 11-4 4-5-5-14 14h-2l-14-14-5 5Z" style="fill:#989aa4;stroke:none"/>
        <path d="m83 154.5 3.5-3.5 3.5 3.5-3.5 3.5Z" style="fill:#6e7080;stroke:none"/>
        <path d="m83.5 206 5-5h6l7-7h10l7 7h6l5 5-6 6h-8l-6-6h-6l-6 6h-8Z" style="fill:#ffd37f;stroke:none"/>
        <path d="m84.5 88 3-3 4 4-3 3Zm2 52 5-5 7.5 7.5-3.5 3.5h-3Z" style="fill:#6e7080;stroke:none"/>
        <path d="m87.5 85 5.5-5.5-4-4 7-7v20L93.5 91Z" style="fill:#989aa4;stroke:none"/>
        <path d="m90.5 162 5-5 7 7-5 5Zm20 2 7-7 5 5-7 7Zm3.5-21.5 7.5-7.5 5 5-6 6h-3Z" style="fill:#6e7080;stroke:none"/>
        <path d="m114.5 176 4-4-3-3 7-7 10 10 .5-.5 3 3 14.5-14.5 5 5 4.5-4.5 9 9v2.5h-.5l-3.5 3.5 3.5 3.5-3 3-3.5-3.5-3 3-6.5-6.5-8 8-4-4-4.5 4.5-10-10-7 7Z" style="fill:#feb380;stroke:none"/>
        <path d="M117 66.5v-32l4.5-4.5h5l.5.5v5l5.5 5.5h1.5v9h-.5l-10 10 3 3-2 2-2-2h-2Z" style="fill:#989aa4;stroke:none"/>
        <path d="M117 68.5v-2l3.5-3.5h2l2 2 6-6h6L151 73.5l-2.5 2.5-5.5-5.5-4 4-6-6-3 3-3-3-5 5Z" style="fill:#bc5452;stroke:none"/>
        <path d="m124 75.5-4 4 5.5 5.5-6 6-2.5-2.5v-20Z" style="fill:#989aa4;stroke:none"/>
        <path d="m119 180.5 7-7 10 10 4.5-4.5 4 4-11.5 11.5Z" style="fill:#bc5452;stroke:none"/>
        <path d="m120 79.5 4-4 24 24 3-3 6 6v3l-5 5v4l.5.5-2 2-2.5-2.5v-1l-11-11v-4l-3.5-3.5h-2l-4 4-8-8 2-2 3 3 4-4Z" style="stroke:none"/>
        <path d="m122 73.5 5-5 3 3 3-3 6 6 4-4 8 8-3.5 3.5 3.5 3.5v2l-3.5 3.5-4-4h-2l-3 3Z" style="fill:#feb380;stroke:none"/>
        <path d="m121.5 89 4-4 3 3-4 4Zm1.5 65.5 3.5-3.5 3.5 3.5-3.5 3.5Z" style="fill:#6e7080;stroke:none"/>
        <path d="m122.5 162 13.5-13.5 5.5 5.5 8-8 5.5 5.5v4l-6 6-3-3-5.5 5.5 3 3-2.5 2.5-3-3-5.5 5.5Z" style="fill:#989aa4;stroke:none"/>
        <path d="m123.5 60 10-10h2l8.5 8.5 5.5-5.5h3l5 5-.5.5v5l3.5 3.5 3.5-3.5 11 11-4.5 4.5h-2l-4.5-4.5-4.5 4.5h-3l-20-20h-6l-4 4Z" style="stroke:none"/>
        <path d="m124 211.5 5.5-5.5-5-5 7.5-7.5 9 9-13 13Z" style="fill:#989aa4;stroke:none"/>
        <path d="M124 231.5v-6l4-4v-6l16.5-16.5-3.5-3.5 5-5 3.5 3.5 2.5-2.5-8-8 3.5-3.5 16 16h1l.5.5-14 14v4l9.5 9.5h18l8 8-6 6h-10l-5-5h-18l-7.5 7.5v5l-.5.5h-4l-5.5-5.5v-3Z" style="stroke:none"/>
        <path d="M126 116.5v-16l5.5-5.5h2l3.5 3.5v12l7.5 7.5-5.5 5.5v5l-.5.5Z" style="fill:#ffd37f;stroke:none"/>
        <path d="m127 139.5 3.5-3.5 8.5 8.5v2l-2.5 2.5Z" style="fill:#6e7080;stroke:none"/>
        <path d="m133 171.5 5-5 3 3-5 5Z" style="fill:#bc5452;stroke:none"/>
        <path d="m133 194.5 11-11 8 8-2.5 2.5-3.5-3.5-5 5 3.5 3.5-3.5 3.5ZM134 50v-9h8v7.5l6 6-4 4-8.5-8.5Z" style="fill:#6e7080;stroke:none"/>
        <path d="M138 217.5v2l2.5 2.5 4.5-4.5v-2l-2.5-2.5Z" style="stroke:none"/>
        <path d="M138 219.5v-2l4.5-4.5 2.5 2.5v2l-4.5 4.5Z" style="fill:#6e7080;stroke:none"/>
        <path d="m138.5 90 3-3h2l8.5 8.5-4 4Z" style="fill:#bc5452;stroke:none"/>
        <path d="m138.5 129 .5-.5v-5l1-1 18 18v3l10.5 10.5 6-6 2 2 4.5-4.5-4.5-4.5-5 5-5.5-5.5 10-10v-2l8-8v-2l-4-4 8-8-6-6 4-4 10.5 10.5 3.5-3.5v-7l6-6v28l-5.5 5.5-4.5-4.5-6 6v4l-5 5v19l.5.5-4.5 4.5 4 4-3.5 3.5-2.5-2.5-8.5 8.5H169v-2.5l-14-14v-4l-6-6v-6Z" style="stroke:none"/>
        <path d="m140 122.5 8-8 2.5 2.5-1.5 1.5 5 5-6.5 6.5Z" style="fill:#989aa4;stroke:none"/>
        <path d="m140.5 164 5.5-5.5 3 3-5.5 5.5Z" style="fill:#6e7080;stroke:none"/>
        <path d="M142 48.5V41h15.5l7 7h14l.5-.5 1 1v23l-2.5 2.5h-2l-.5.5-11-11 3-3v-2l-5-5-4.5 4.5-5-5h-3l-1.5 1.5Z" style="fill:#989aa4;stroke:none"/>
        <path d="m147.5 82 3.5-3.5-2.5-2.5 2.5-2.5 5.5 5.5h3l4.5-4.5 4.5 4.5h2l2-2 10 10 4.5-4.5-6-6 3.5-3.5 2 2h2l4.5-4.5v-5l2.5-2.5h2l4.5 4.5v8l4 4v11l-6 6v.5h-6.5l-4-4-7.5 7.5-7-7-4 4 7.5 7.5-4 4-3-3h-6l-4.5-4.5v-2l-3-3-3.5 3.5-3.5-3.5 3-3-4.5-4.5 1.5-1.5v-2Z" style="fill:#989aa4;stroke:none"/>
        <path d="m147.5 91 2-2 4.5 4.5-2 2Zm0 39 6.5-6.5 7.5 7.5h2l1.5-1.5 6 6-5 5 5.5 5.5 5-5 4.5 4.5-4.5 4.5-2-2-6 6-10.5-10.5v-3l-3.5-3.5 4.5-4.5-4-4-4.5 4.5Z" style="fill:#6e7080;stroke:none"/>
        <path d="m147.5 180 5-5 6.5 6.5 3-3 3.5 3.5 3-3 7 7-10.5 10.5-.5-.5h-1Zm1.5-61.5 4.5-4.5 2 2 10-10h6l8 8-4.5 4.5-4.5-4.5h-3l-7 7-3-3-4.5 4.5Z" style="fill:#bc5452;stroke:none"/>
        <path d="m150.5 133 4.5-4.5 4 4-4.5 4.5Z" style="fill:#989aa4;stroke:none"/>
        <path d="m150.5 160 4.5-4.5 5 5-4.5 4.5Z" style="fill:#bc5452;stroke:none"/>
        <path d="M151 214v-3.5l5-5 .5.5h12l17.5 17.5v3l-2.5 2.5-5-5h-11l-10-10Z" style="fill:#989aa4;stroke:none"/>
        <path d="M151 214.5v-.5h6.5l10 10h-7Zm1.5-99.5-.5-.5v-4l5-5v-3l-2.5-2.5 3.5-3.5 3 3v2l4.5 4.5-10 10-2-2Z" style="fill:#6e7080;stroke:none"/>
        <path d="m153 122.5 4.5-4.5 3 3 7-7h3l4.5 4.5 4.5-4.5 4.5 4.5v2l-8 8-5-5-7.5 7.5h-2Z" style="fill:#feb380;stroke:none"/>
        <path d="M157 63.5v-5l5-5 5 5v2l-6.5 6.5Zm.5-22.5h2l.5-.5V37h3.5l5 5h5l5.5 5.5-.5.5h-14Z" style="fill:#6e7080;stroke:none"/>
        <path d="M160 37v-6.5l.5-.5h6l6.5 6.5V42h-4.5l-5-5Zm5 92.5 6-6 5 5v2l-5 5Zm0 46 3.5-3.5h2l8.5-8.5 2.5 2.5 3.5-3.5-4-4 4.5-4.5 11.5 11.5v5l11 11v3L197.5 195l-5-5-5.5 5.5-4.5-4.5 4.5-4.5-3.5-3.5 5-5-6.5-6.5-5 5-2.5-2.5-5.5 5.5Z" style="fill:#989aa4;stroke:none"/>
        <path d="m167.5 194 8-8 5 5-8 8Z" style="fill:#ffd37f;stroke:none"/>
        <path d="M168.5 206h-.5v-2.5l4.5-4.5 7.5 7.5 3.5-3.5 4.5 4.5 2.5-2.5 4 4 3-3 2.5 2.5v1l-9.5 9.5-4-4-4.5 4.5Z" style="fill:#bc5452;stroke:none"/>
        <path d="m169 179.5 5.5-5.5 5 5-5.5 5.5Z" style="stroke:none"/>
        <path d="m171 97.5 4-4 13 13-8 8-5.5-5.5 4-4Zm1.5-20.5 3-3h2l2.5-2.5v-3l4.5 4.5-3.5 3.5 6 6-4.5 4.5Z" style="fill:#6e7080;stroke:none"/>
        <path d="m172.5 199 8-8h2l15 15-3 3-4-4-2.5 2.5-4.5-4.5-3.5 3.5Z" style="fill:#feb380;stroke:none"/>
        <path d="m177 176.5 5-5 6.5 6.5-5 5Zm5 43 4.5-4.5 4 4 9-9 4 4h4.5v3.5l-7 7-3.5-3.5h-3l-5.5 5.5v3l3 3v4l-.5.5-8-8 2.5-2.5v-3Zm4-123 3.5-3.5 4 4h6.5v6.5l-3.5 3.5Z" style="fill:#6e7080;stroke:none"/>
        <path d="m185.5 154 4.5-4.5v-24l6-6 4.5 4.5-.5.5v29l-7.5 7.5Z" style="fill:#ffd37f;stroke:none"/>
        <path d="m187 195.5 5.5-5.5 5 5-5.5 5.5Z" style="fill:#6e7080;stroke:none"/>
        <path d="M189 229.5v-3l5.5-5.5h3l3.5 3.5 7-7v17l-4 4v4l-3.5 3.5h-6l-.5-.5v-6l-2.5-2.5.5-.5v-4Zm3-29 16-16v10l-6.5 6.5 6.5 6.5v6.5h-4.5l-4-4 .5-.5v-1Z" style="stroke:none"/>
    </g>
</svg>
