<svg xmlns="http://www.w3.org/2000/svg" width="231" height="231" style="fill-opacity:1;color-rendering:auto;color-interpolation:auto;text-rendering:auto;stroke:#000;stroke-linecap:square;stroke-miterlimit:10;shape-rendering:auto;stroke-opacity:1;fill:#000;stroke-dasharray:none;font-weight:400;stroke-width:1;font-family:&quot;Dialog&quot;;font-style:normal;stroke-linejoin:miter;font-size:12px;stroke-dashoffset:0;image-rendering:auto">
    <g style="stroke-linecap:round;fill:#dcc6c6;stroke:#dcc6c6">
        <path stroke="none" d="M10 209.5v-3l4-4v-7l7.5-7.5 5 5-4.5 4.5v6l-5 5 5 5v4l.5.5-1 1h-2Z" style="stroke:none"/>
    </g>
    <g stroke="none" style="stroke-linecap:round;fill:#fff;stroke:#fff">
        <path d="m17 208.5 5-5v-6l4.5-4.5 5 5 4-4 4.5 4.5v2L22.5 218l-.5-.5v-4Z" style="stroke:none"/>
        <path d="M34 147.5v-3l7-7v-5l8-8v-3l6-6 4.5 4.5-5.5 5.5v3l-10 10v5l.5.5-5 5h-4Z" style="fill:#dcc6c6;stroke:none"/>
        <path d="m44.5 144-.5-.5v-5l10-10v-3L69.5 110h2l4.5 4.5v2L54.5 138h-4Z" style="stroke:none"/>
        <path d="m47.5 88 8.5-8.5v-3l8.5-8.5 3.5 3.5-8 8v4l5 5-2.5 2.5-5-5-4 4h-4Z" style="fill:#dcc6c6;stroke:none"/>
        <path d="M60 83.5v-4l8-8-3.5-3.5 6.5-6.5 6 6-6 6v2l3.5 3.5-9.5 9.5Z" style="stroke:none"/>
        <path d="M60 181.5v-5l6-6v-3l8.5-8.5 3 3-8.5 8.5v7l.5.5-5 5h-3Z" style="fill:#dcc6c6;stroke:none"/>
        <path d="m69.5 178-.5-.5v-7l8.5-8.5 4 4Zm80-12 4-4 8.5 8.5v7l-.5.5Zm4.5-98.5 6-6 6.5 6.5-3.5 3.5 8 8v4l-5 5-9.5-9.5 3.5-3.5v-2Z" style="stroke:none"/>
        <path d="m153.5 162 3-3 8.5 8.5v3l6 6v5l-1.5 1.5h-3l-5-5 .5-.5v-7Z" style="fill:#dcc6c6;stroke:none"/>
        <path d="M155 116.5v-2l4.5-4.5h2l15.5 15.5v3l10 10v5l-.5.5-6-6h-4Z" style="stroke:none"/>
        <path d="m163 71.5 3.5-3.5 8.5 8.5v3l8.5 8.5-2 2h-4l-4-4-5 5-2.5-2.5 5-5v-4Zm8.5 48.5 4.5-4.5 6 6v3l8 8v5l7 7v3l-1.5 1.5h-4l-5-5 .5-.5v-5l-10-10v-3Z" style="fill:#dcc6c6;stroke:none"/>
        <path d="M191 200.5v-2l4.5-4.5 4 4 5-5 4.5 4.5v6l5 5-5 5v4l-.5.5Z" style="stroke:none"/>
        <path d="m204.5 193 5-5 7.5 7.5v7l4 4v3l-9.5 9.5h-2l-1-1 .5-.5v-4l5-5-5-5v-6Z" style="fill:#dcc6c6;stroke:none"/>
    </g>
</svg>
