<svg xmlns="http://www.w3.org/2000/svg" width="30" height="68" style="fill-opacity:1;color-rendering:auto;color-interpolation:auto;text-rendering:auto;stroke:#000;stroke-linecap:square;stroke-miterlimit:10;shape-rendering:auto;stroke-opacity:1;fill:#000;stroke-dasharray:none;font-weight:400;stroke-width:1;font-family:&quot;Dialog&quot;;font-style:normal;stroke-linejoin:miter;font-size:12px;stroke-dashoffset:0;image-rendering:auto">
    <g style="stroke-linecap:round;fill:#989aa4;stroke:#989aa4">
        <path stroke="none" d="M.5 17V2h8l21 21v5h-1l-4-4h-17Z" style="stroke:none"/>
    </g>
    <g stroke="none" style="stroke-linecap:round;fill:#6e7080;stroke:#6e7080">
        <path d="M7.5 24h5l10 10-10 10h-5l-7 7v-5l7-7h5l3.5-3.5v-3L12.5 29h-5l-7-7v-5Z" style="stroke:none"/>
        <path d="M7.5 29h5l3.5 3.5v3L12.5 39h-5l-7 7V22Zm-7 37V51l7-7h17l4-4h1v5l-21 21Z" style="fill:#989aa4;stroke:none"/>
        <path d="M12.5 24h8l9 9v2l-9 9h-8l10-10Z" style="fill:#565666;stroke:none"/>
        <path d="m15 8.5.5-.5h11l3 3v12Zm.5 51.5-.5-.5L29.5 45v12l-3 3Zm5-36h4l4 4h1v5Zm0 20 9-9v5h-1l-4 4Z" style="stroke:none"/>
    </g>
</svg>
