<svg xmlns="http://www.w3.org/2000/svg" width="140" height="140" style="fill-opacity:1;color-rendering:auto;color-interpolation:auto;text-rendering:auto;stroke:#000;stroke-linecap:square;stroke-miterlimit:10;shape-rendering:auto;stroke-opacity:1;fill:#000;stroke-dasharray:none;font-weight:400;stroke-width:1;font-family:&quot;Dialog&quot;;font-style:normal;stroke-linejoin:miter;font-size:12px;stroke-dashoffset:0;image-rendering:auto">
    <g style="stroke-linecap:round;fill:#dcc6c6;stroke:#dcc6c6">
        <path stroke="none" d="M38 104.5v-4l3.5-3.5.5.5v2l4 4v3l6 6-3 3Z" style="stroke:none"/>
    </g>
    <g stroke="none" style="stroke-linecap:round;fill:#fff;stroke:#fff">
        <path d="M42 99.5v-2l-.5-.5 6-6 6.5 6.5v13l-2 2-6-6v-3Z" style="stroke:none"/>
        <path d="M44 73.5v-4l11-11v-3l5-5 1 1V55h-1.5L55 59.5v3l-8 8V75h-1.5Z" style="fill:#dcc6c6;stroke:none"/>
        <path d="M47 75v-4.5l8-8v-3l4.5-4.5H61v8.5L49.5 75Z" style="stroke:none"/>
        <path d="m54.5 87-.5-.5v-4l2.5-2.5.5.5v3l.5.5Zm1.5 22.5v-3l3.5-3.5.5.5v1l3 3v9Z" style="fill:#dcc6c6;stroke:none"/>
        <path d="m57.5 84-.5-.5v-3l-.5-.5 2-2h2l.5.5v2Zm2.5 20.5v-1l-.5-.5 6.5-6.5v-4l4-4 4 4v4l6.5 6.5-.5.5v1l-3 3v9l-7 7-7-7v-9Z" style="stroke:none"/>
        <path d="m70 123.5 7-7v10l-7 7-7-7v-10ZM64.5 77l2.5-2.5 2 2-2.5 2.5Z" style="fill:#dcc6c6;stroke:none"/>
        <path d="m66.5 79 2.5-2.5.5.5h1l.5-.5 2.5 2.5-3.5 3.5Z" style="stroke:none"/>
        <path d="m71 76.5 2-2 2.5 2.5-2 2Zm6 40v-9l3-3v-1l.5-.5 3.5 3.5v3ZM79 55v-3.5l1-1 5 5v3l11 11v4L94.5 75H93v-4.5l-8-8v-3L80.5 55Z" style="fill:#dcc6c6;stroke:none"/>
        <path d="M79 63.5V55h1.5l4.5 4.5v3l8 8V75h-2.5Zm0 17v-2l.5-.5h2l2 2-.5.5v3l-.5.5Z" style="stroke:none"/>
        <path d="M86 82.5v4l-.5.5-3-3 .5-.5v-3l.5-.5Z" style="fill:#dcc6c6;stroke:none"/>
        <path d="M86 110.5v-13l6.5-6.5 6 6-.5.5v2l-4 4v3l-6 6Z" style="stroke:none"/>
        <path d="m88 112.5 6-6v-3l4-4v-2l.5-.5 3.5 3.5v4l-11 11Z" style="fill:#dcc6c6;stroke:none"/>
    </g>
</svg>
