<svg xmlns="http://www.w3.org/2000/svg" width="140" height="140" style="fill-opacity:1;color-rendering:auto;color-interpolation:auto;text-rendering:auto;stroke:#000;stroke-linecap:square;stroke-miterlimit:10;shape-rendering:auto;stroke-opacity:1;fill:#000;stroke-dasharray:none;font-weight:400;stroke-width:1;font-family:&quot;Dialog&quot;;font-style:normal;stroke-linejoin:miter;font-size:12px;stroke-dashoffset:0;image-rendering:auto">
    <g style="stroke-linecap:round;fill:#b0bac0;stroke:#b0bac0">
        <path stroke="none" d="M12 106.5v-3l9.5-9.5.5.5v1l3 3-9.5 9.5h-2Z" style="stroke:none"/>
    </g>
    <g stroke="none" style="stroke-linecap:round;fill:#6e7080;stroke:#6e7080">
        <path d="M14 113.5V108h1.5l9.5-9.5.5.5 4-4h8l1.5 1.5v3l-6.5 6.5h-3l-4.5 4.5v2l.5.5-4 4h-4Zm4-36v-14l3-3 3 3v9l5.5 5.5 4.5-4.5 7 7v5L38.5 88h-10Z" style="stroke:none"/>
        <path d="M21 59.5v-8l7.5-7.5 2 2h.5v5.5l2.5 2.5 4.5-4.5 2.5 2.5-5.5 5.5 2.5 2.5-.5.5 6.5 6.5-.5.5v3L39.5 74h-4l-8-8h-1L25 64.5v-1Z" style="fill:#b0bac0;stroke:none"/>
        <path d="m22 61.5-1-1v-1l1 1Zm0 34v-1l-.5-.5 3-3 .5.5v2l1.5 1.5h3l-4 4Z" style="fill:#989aa4;stroke:none"/>
        <path d="m24 54.5 3.5 3.5 2.5-2.5-3.5-3.5Z" style="fill:#b0bac0;stroke:none"/>
        <path d="m24 63.5-3-3v-1l3 3Zm0-9 2.5-2.5 3.5 3.5-2.5 2.5Z" style="fill:#989aa4;stroke:none"/>
        <path d="M26.5 66h1l.5.5-2.5 2.5 3.5 3.5 2.5-2.5 4 4h4l3.5-3.5v-3l7.5-7.5-2.5-2.5.5-.5h1l4.5-4.5 3 3v2l-10 10v3l-6 6v4l-7-7-4.5 4.5-5.5-5.5v-9l-3-3v-1l4 4v1Z" style="fill:#989aa4;stroke:none"/>
        <path d="M24 119.5v-2l3.5-3.5h3L42 102.5v-10l-.5-.5 2-2H47v.5l2 2v5l9 9-5 5v4L41.5 127h-11l-5.5-5.5v-1Z" style="stroke:none"/>
        <path d="M25 93.5v-2l-.5-.5 3.5-3.5.5.5h10l2.5-2.5v-9l6-6v-3l10-10v-2l-3-3-4.5 4.5h-1l-.5.5-4-4V51h.5l4-4-8-8h-3l-2 2H29v-.5l7-7v-12l8.5-8.5h3l6.5 6.5L68.5 5h3L86 19.5l6.5-6.5h3l8.5 8.5v12l7 7v.5h-6.5l-2-2h-3l-8 8 4 4h.5v2.5l-4 4-.5-.5h-1L86 52.5l-3 3v2l10 10v3l6 6v9l2.5 2.5h10l.5-.5 3.5 3.5-.5.5v2l-1.5 1.5h-11l-.5.5-5.5-5.5H93V79.5l-9-9v-2L78.5 63H77v-4.5L71.5 53h-3L63 58.5V63h-1.5L56 68.5v2l-9 9V90h-3.5L38 95.5l-.5-.5h-11Zm0 19v-2l4.5-4.5h3l3.5-3.5 2 2v1l.5.5-8 8h-3l-.5.5Z" style="fill:#b0bac0;stroke:none"/>
        <path d="m25.5 69 2.5-2.5 3.5 3.5-2.5 2.5Zm3 32 2.5 2.5 4.5-4.5-2.5-2.5Zm0-57 .5-.5V41h6.5l2-2h3l8 8-4 4h-2l-5-5h-7Z" style="stroke:none"/>
        <path d="m30 61.5 4.5 4.5 2-2-4.5-4.5Z" style="fill:#b0bac0;stroke:none"/>
        <path d="m28.5 101 4.5-4.5 2.5 2.5-4.5 4.5ZM30 61.5l2-2 4.5 4.5-2 2Zm1-10V46h6.5l5 5H44v2.5L37.5 60 35 57.5l5.5-5.5-2.5-2.5-4.5 4.5Z" style="fill:#989aa4;stroke:none"/>
        <path d="m36 16.5 3.5-3.5 2.5 2.5-3.5 3.5Z" style="stroke:none"/>
        <path d="m36 102.5 3-3v-3l-1-1 3.5-3.5.5.5v10l-3.5 3.5-.5-.5v-1Z" style="fill:#989aa4;stroke:none"/>
        <path d="m37 60.5 7-7 6.5 6.5-7 7Zm2 54v2l2 2 6-6v-2l-2-2Z" style="stroke:none"/>
        <path d="M39 116.5v-2l6-6 2 2v2l-6 6Z" style="fill:#989aa4;stroke:none"/>
        <path d="M41 27.5v5l5.5 5.5h1l3 3 3-3H57v.5l4 4-2.5 2.5 5.5 5.5 3.5-3.5h5l3.5 3.5 5.5-5.5-2.5-2.5 4-4V38h3.5l3 3 3-3h1l5.5-5.5v-5L92.5 21l-5 5h-5L78 30.5l1 1v1l-4 4v.5h-1.5l-2-2h-3l-2 2H65v-.5l-4-4v-1l1-1-4.5-4.5h-5l-5-5Z" style="fill:#b0bac0;stroke:none"/>
        <path d="M41 32.5v-5l6.5-6.5 5 5h5l4.5 4.5-1 1v1l-4 4V38h-3.5l-3 3-3-3h-1Z" style="fill:#989aa4;stroke:none"/>
        <path d="m42.5 31 2.5 2.5 5-5v-2l-.5-.5h-2Z" style="fill:#989aa4;stroke:none"/>
        <path d="m42.5 31 5-5h2l.5.5v2l-5 5Z" style="fill:#b0bac0;stroke:none"/>
        <path d="m44 124.5 4.5-4.5 2.5 2.5-4.5 4.5Z" style="fill:#989aa4;stroke:none"/>
        <path d="M47 83.5v-4l9-9v4Z" style="stroke:none"/>
        <path d="M47 87.5v-4l6.5-6.5.5.5v2l-4 4v1Z" style="fill:#62ae7f;stroke:none"/>
        <path d="M47 90.5v-3l3-3v-1l4-4v7L48.5 92Z" style="fill:#84f491;stroke:none"/>
        <path d="m49 34.5 1.5 1.5h2l3.5-3.5v-3l-.5-.5h-3L49 32.5Z" style="fill:#989aa4;stroke:none"/>
        <path d="M49 34.5v-2l3.5-3.5h3l.5.5v3L52.5 36h-2Z" style="stroke:none"/>
        <path d="m49.5 49 2 2 4-4-2-2Z" style="fill:#b0bac0;stroke:none"/>
        <path d="M49 97.5v-5l-.5-.5 5.5-5.5v-9l-.5-.5 2.5-2.5v-6l3.5-3.5.5.5v2l-3 3v5l4.5 4.5-7.5 7.5v14l-.5.5Zm.5-48.5 4-4 2 2-4 4Z" style="fill:#989aa4;stroke:none"/>
        <path d="m52 64.5 3.5-3.5 2.5 2.5-3.5 3.5Z" style="stroke:none"/>
        <path d="m54.5 67 3.5-3.5-2.5-2.5-3.5 3.5ZM53 115v-3.5l6-6v-5l3-3v-1l8-8 8 8v1l3 3v5l6 6v3.5h-3.5l-7.5-7.5v-4l-1-1v-1l-5-5-5 5v1l-1 1v4l-7.5 7.5Z" style="fill:#b0bac0;stroke:none"/>
        <path d="M54 95.5v-8l7.5-7.5 2 2-4.5 4.5v4Z" style="fill:#62ae7f;stroke:none"/>
        <path d="M54 101.5v-6l5-5v-4l4.5-4.5-6.5-6.5 3-3v-3l4-4 6 6 6-6 4 4v3l3 3-6.5 6.5 4.5 4.5v4l5 5v6l-7-7-1.5 1.5-7.5-7.5-7.5 7.5-1.5-1.5Z" style="fill:#84f491;stroke:none"/>
        <path d="m53.5 102 7.5-7.5 1.5 1.5-.5.5v1l-3 3v2l-2.5 2.5Z" style="fill:#62ae7f;stroke:none"/>
        <path d="M55 127.5V115h1.5l2.5-2.5.5.5h1l2 2-.5.5v1l-3 3v2l3 3 3-3v-1l1.5-1.5h7l1.5 1.5v1l3 3 3-3v-2l-3-3v-1l-.5-.5 2-2h1l.5-.5 2.5 2.5H85v12.5l-7.5 7.5h-4l-3.5-3.5-3.5 3.5h-4Zm2-89v-2l4-4 4 4v2l-4 4Z" style="stroke:none"/>
        <path d="M57 75.5v-5l3-3v-2l-.5-.5 2-2h3l5.5 5.5 5.5-5.5h3l2 2-.5.5v2l3 3v5l-3-3v-3l-4-4-6 6-6-6-4 4v3Z" style="fill:#62ae7f;stroke:none"/>
        <path d="m58 106.5-1.5-1.5 2.5-2.5v3Zm.5-61.5 6.5-6.5V37h1.5l2-2h3l2 2H75v1.5l6.5 6.5-5.5 5.5-3.5-3.5h-5L64 50.5Zm1 68-.5-.5 5-5V106h1.5l3-3h3l3 3H76v1.5l5 5-.5.5h-1l-2 2-.5-.5v-1l-5.5-5.5h-3l-5.5 5.5v1l-.5.5-2-2Zm-.5 8.5v-2l3-3 3.5 3.5-.5.5v1l-3 3Z" style="fill:#989aa4;stroke:none"/>
        <path d="M63 19.5v5l2.5 2.5h9l2.5-2.5v-5l-7-7Zm-1 97v-1l1-1v-1l5.5-5.5h3l5.5 5.5v1l1 1v1l-3.5 3.5-1-1h-7l-1 1Z" style="fill:#b0bac0;stroke:none"/>
        <path d="M63 22.5v-3l7-7 7 7v3L74.5 20h-2l-.5.5v2l3.5 3.5-1 1h-9l-1-1 3.5-3.5v-2l-.5-.5h-2Z" style="fill:#989aa4;stroke:none"/>
        <path d="M63 24.5v-2l2.5-2.5h2l.5.5v2L64.5 26Z" style="stroke:none"/>
        <path d="M63 63v-4.5l5.5-5.5h3l5.5 5.5V63h-1.5L70 68.5 64.5 63Z" style="fill:#989aa4;stroke:none"/>
        <path d="m65 60.5 3.5 3.5h3l3.5-3.5-5-5Z" style="fill:#989aa4;stroke:none"/>
        <path d="M65 76.5v5l5 5 5-5v-5l-2-2-3 3-3-3Z" style="fill:#84f491;stroke:none"/>
        <path d="M64 106v-2.5l1-1v-1l5-5 5 5v1l1 1v2.5h-1.5l-3-3h-3l-3 3Z" style="stroke:none"/>
        <path d="m65.5 42 3 3h3l3-3-3-3h-3Z" style="fill:#989aa4;stroke:none"/>
        <path d="m65 60.5 5-5 5 5-1.5 1.5-3.5-3.5-3.5 3.5Z" style="fill:#62ae7f;stroke:none"/>
        <path d="M65 77.5v-1l2-2 3 3 3-3 2 2v1l-5 5Z" style="fill:#b0bac0;stroke:none"/>
        <path d="m70 82.5 5-5v4l-5 5-5-5v-4Z" style="fill:#62ae7f;stroke:none"/>
        <path d="m65.5 42 3-3h3l3 3-3 3h-3Z" style="fill:#b0bac0;stroke:none"/>
        <path d="m66.5 62 3.5-3.5 3.5 3.5-2 2h-3Z" style="fill:#84f491;stroke:none"/>
        <path d="M72 22.5v-2l.5-.5h2l2.5 2.5v2L75.5 26Zm3 16v-2l4-4 4 4v2l-4 4Z" style="stroke:none"/>
        <path d="M75 121.5v-1l-.5-.5 3.5-3.5 3 3v2l-3 3Z" style="fill:#989aa4;stroke:none"/>
        <path d="m76.5 82 2-2 7.5 7.5v8l-5-5v-4Z" style="fill:#62ae7f;stroke:none"/>
        <path d="m78 30.5 4.5-4.5h5l5-5 6.5 6.5v5L93.5 38h-1l-3 3-3-3H83v-1.5l-4-4v-1Z" style="fill:#989aa4;stroke:none"/>
        <path d="M78 97.5v-1l-.5-.5 1.5-1.5 7.5 7.5-3 3-2.5-2.5v-2Z" style="fill:#62ae7f;stroke:none"/>
        <path d="m78.5 80 4.5-4.5v-5l-3-3v-2l.5-.5 3.5 3.5v6l2.5 2.5-.5.5v9l5.5 5.5-.5.5v5l-4.5 4.5-.5-.5v-14Z" style="fill:#989aa4;stroke:none"/>
        <path d="m82 63.5 3.5 3.5 2.5-2.5-3.5-3.5Z" style="fill:#b0bac0;stroke:none"/>
        <path d="m83.5 105-1.5 1.5-1-1v-3Z" style="fill:#989aa4;stroke:none"/>
        <path d="m82 63.5 2.5-2.5 3.5 3.5-2.5 2.5Zm0 43 9-9v-5l2-2V90h3.5l2 2-.5.5v10l11.5 11.5h3l3.5 3.5v2l-1 1v1l-5.5 5.5h-11L87 115.5v-4Z" style="stroke:none"/>
        <path d="M84 29.5v3l3.5 3.5h2l1.5-1.5v-2L87.5 29h-3Zm-1 28v-2l3-3 4.5 4.5h1l.5.5-2.5 2.5 7.5 7.5v3l3.5 3.5h4l4-4 2.5 2.5 3.5-3.5-2.5-2.5.5-.5h1l1.5-1.5v-1l3.5-3.5h.5v.5l-3 3v9l-5.5 5.5-4.5-4.5-7 7v-4l-6-6v-3Z" style="fill:#989aa4;stroke:none"/>
        <path d="M84 32.5v-3l.5-.5h3l3.5 3.5v2L89.5 36h-2Z" style="stroke:none"/>
        <path d="m84.5 47 4 4 2-2-4-4Z" style="fill:#b0bac0;stroke:none"/>
        <path d="M93 79.5v4l-9-9v-4Z" style="stroke:none"/>
        <path d="m84.5 47 2-2 4 4-2 2Z" style="fill:#989aa4;stroke:none"/>
        <path d="M93 83.5v4l-3-3v-1l-4-4v-2l.5-.5Z" style="fill:#62ae7f;stroke:none"/>
        <path d="M90 83.5v1l3 3v3L91.5 92 86 86.5v-7Z" style="fill:#84f491;stroke:none"/>
        <path d="m90 28.5 5 5 2.5-2.5-5-5h-2l-.5.5Zm-1 94 2.5-2.5 4.5 4.5-2.5 2.5Z" style="fill:#989aa4;stroke:none"/>
        <path d="M90 28.5v-2l.5-.5h2l5 5-2.5 2.5Z" style="fill:#b0bac0;stroke:none"/>
        <path d="m89.5 60 6.5-6.5 7 7-6.5 6.5Zm2-13 8-8h3l2 2h6.5v2.5l.5.5-2 2h-7l-5 5h-2Zm1.5 63.5v2l6 6 2-2v-2l-6-6Z" style="stroke:none"/>
        <path d="M93 112.5v-2l2-2 6 6v2l-2 2Zm3-59V51h1.5l5-5h6.5v5.5l-2.5 2.5-4.5-4.5-2.5 2.5 5.5 5.5-2.5 2.5Z" style="fill:#989aa4;stroke:none"/>
        <path d="M97 70.5v-3l-.5-.5 6.5-6.5-.5-.5 2.5-2.5-5.5-5.5 2.5-2.5 4.5 4.5 2.5-2.5V46h.5l2-2 7.5 7.5V60h-.5l-3.5 3.5v1l-1.5 1.5h-1l-8 8h-4Z" style="fill:#b0bac0;stroke:none"/>
        <path d="m98 15.5 2.5-2.5 3.5 3.5-2.5 2.5Z" style="stroke:none"/>
        <path d="m102 95.5-1 1v3l3 3-2 2v1l-.5.5-3.5-3.5v-10l.5-.5Z" style="fill:#989aa4;stroke:none"/>
        <path d="M99 85.5v-5l7-7 4.5 4.5 5.5-5.5v-9l3-3 3 3v14L111.5 88h-10Zm2 14v-3l1.5-1.5h8l4 4 .5-.5 9.5 9.5h1.5v5.5l-3.5 3.5h-4l-4-4 .5-.5v-2l-4.5-4.5h-3Z" style="stroke:none"/>
        <path d="m101.5 106 .5-.5v-1l2-2 3.5 3.5h3l4.5 4.5v2l-2 2-.5-.5h-3Zm2-42 2 2 4.5-4.5-2-2Z" style="fill:#b0bac0;stroke:none"/>
        <path d="m103.5 64 4.5-4.5 2 2-4.5 4.5Z" style="fill:#989aa4;stroke:none"/>
        <path d="m104.5 99 4.5 4.5 2.5-2.5-4.5-4.5Z" style="stroke:none"/>
        <path d="m104.5 99 2.5-2.5 4.5 4.5-2.5 2.5Z" style="fill:#989aa4;stroke:none"/>
        <path d="m110 55.5 2.5 2.5 3.5-3.5-2.5-2.5Z" style="fill:#b0bac0;stroke:none"/>
        <path d="m108.5 70 3.5-3.5 2.5 2.5-3.5 3.5Z" style="stroke:none"/>
        <path d="m110 55.5 3.5-3.5 2.5 2.5-3.5 3.5Zm.5 39.5h3l1.5-1.5v-2l.5-.5 3 3-.5.5v1l-3.5 3.5Z" style="fill:#989aa4;stroke:none"/>
        <path d="m115 98.5 3-3v-1l.5-.5 9.5 9.5v3l-1.5 1.5h-2Z" style="fill:#b0bac0;stroke:none"/>
    </g>
</svg>
