<svg xmlns="http://www.w3.org/2000/svg" width="48" height="48" style="fill-opacity:1;color-rendering:auto;color-interpolation:auto;text-rendering:auto;stroke:#000;stroke-linecap:square;stroke-miterlimit:10;shape-rendering:auto;stroke-opacity:1;fill:#000;stroke-dasharray:none;font-weight:400;stroke-width:1;font-family:&quot;Dialog&quot;;font-style:normal;stroke-linejoin:miter;font-size:12px;stroke-dashoffset:0;image-rendering:auto">
    <g style="stroke-linecap:round;fill:#989aa4;stroke:#989aa4">
        <path stroke="none" d="M4 24v-3.5L9.5 15H12v3.5l2 2 2-2V16h.5l4-4h7l4 4h.5v2.5l2 2 2-2V15h2.5l5.5 5.5V24h-7.5L32 28.5V32h-.5l-4 4h-7l-4-4H16v-3.5L11.5 24Z" style="stroke:none"/>
    </g>
    <g stroke="none" style="stroke-linecap:round;fill:#6e7080;stroke:#6e7080">
        <path d="M4 25.5V24h4v4.5l-.5.5Z" style="stroke:none"/>
        <path d="m7.5 29 .5-.5V24h3.5l4.5 4.5V32h-4.5l-.5.5Z" style="fill:#b0bac0;stroke:none"/>
        <path d="m11 32.5.5-.5h5l4 4h-6Z" style="stroke:none"/>
        <path d="M19 18.5v11l2.5 2.5h5l2.5-2.5v-11L25.5 15h-3Z" style="fill:#989aa4;stroke:none"/>
        <path d="M19 22.5v-4l3.5-3.5h3l3.5 3.5v4L26.5 20h-5Z" style="fill:#b0bac0;stroke:none"/>
        <path d="M19 26.5v-4l2.5-2.5h5l2.5 2.5v4L26.5 24h-5Z" style="fill:#d06b53;stroke:none"/>
        <path d="M19 29.5v-3l2.5-2.5h5l2.5 2.5v3L26.5 32h-5Z" style="fill:#ffa665;stroke:none"/>
        <path d="m27.5 36 4-4H36v1.5L33.5 36Z" style="stroke:none"/>
        <path d="M32 32v-3.5l4.5-4.5H40v3.5l.5.5-1.5 1.5v1l-.5.5h-1l-1 1Z" style="fill:#b0bac0;stroke:none"/>
        <path d="m40.5 28-.5-.5V24h4v.5l-1 1v1l-.5.5h-1Z" style="stroke:none"/>
    </g>
</svg>
