<svg xmlns="http://www.w3.org/2000/svg" width="243" height="243" style="fill-opacity:1;color-rendering:auto;color-interpolation:auto;text-rendering:auto;stroke:#000;stroke-linecap:square;stroke-miterlimit:10;shape-rendering:auto;stroke-opacity:1;fill:#000;stroke-dasharray:none;font-weight:400;stroke-width:1;font-family:&quot;Dialog&quot;;font-style:normal;stroke-linejoin:miter;font-size:12px;stroke-dashoffset:0;image-rendering:auto">
    <g style="stroke-linecap:round;fill:#dcc6c6;stroke:#dcc6c6">
        <path stroke="none" d="M25 161.5v-3l10-10v-4l6.5-6.5 4 4-6.5 6.5 2 2-9 9 4.5 4.5-4.5 4.5Z" style="stroke:none"/>
    </g>
    <g stroke="none" style="stroke-linecap:round;fill:#fff;stroke:#fff">
        <path d="m32 159.5 9-9-2-2 6.5-6.5 2.5 2.5v8L36.5 164Z" style="stroke:none"/>
        <path d="M44 224.5v-9l4-4-2-2 4-4 4.5 4.5h2l8.5-8.5 6 6-8.5 8.5h-6L46 226.5Z" style="fill:#dcc6c6;stroke:none"/>
        <path d="M50 205.5 63.5 192h6l7.5 7.5v2l-6 6-6-6-8.5 8.5h-2Z" style="stroke:none"/>
        <path d="M80 103.5v-3l6-6v-9l6.5-6.5.5.5v8l-4 4v6l-7.5 7.5Z" style="fill:#dcc6c6;stroke:none"/>
        <path d="m81.5 105 7.5-7.5v-6l4-4v5l5.5 5.5-11 11h-2Z" style="stroke:none"/>
        <path d="m92.5 192 6-6 5.5 5.5-2 2 6 6v8l6.5 6.5h2.5v11.5l-.5.5h-3l-8.5-8.5v-13ZM96 56.5v-11l6.5-6.5h5l1.5 1.5V42h-1.5l-7.5 7.5v8l.5.5-1.5 1.5Z" style="fill:#dcc6c6;stroke:none"/>
        <path d="m98.5 186 6.5-6.5 4 4v6l8 8V214h-2.5l-6.5-6.5v-8l-6-6 2-2Zm2-128-.5-.5v-8l7.5-7.5h1.5v7.5ZM126 214v-16.5l8-8v-6l4-4 6.5 6.5-5.5 5.5 2 2-6 6v8l-6.5 6.5Z" style="stroke:none"/>
        <path d="m126.5 226-.5-.5V214h2.5l6.5-6.5v-8l6-6-2-2 5.5-5.5 6 6-12.5 12.5v13l-8.5 8.5ZM134 42v-1.5l1.5-1.5h5l6.5 6.5v11l-3 3-1.5-1.5.5-.5v-8l-7.5-7.5Z" style="fill:#dcc6c6;stroke:none"/>
        <path d="M134 49.5V42h1.5l7.5 7.5v8l-.5.5ZM144.5 98l5.5-5.5v-5l4 4v6l7.5 7.5-4 4h-2Z" style="stroke:none"/>
        <path d="M157 85.5v9l6 6v3l-1.5 1.5-7.5-7.5v-6l-4-4v-8l.5-.5Z" style="fill:#dcc6c6;stroke:none"/>
        <path d="M166 201.5v-2l7.5-7.5h6l13.5 13.5-4.5 4.5h-2l-8.5-8.5-6 6Z" style="stroke:none"/>
        <path d="m172 207.5 6-6 8.5 8.5h2l4.5-4.5 4 4-2 2 4 4v9l-2 2-10.5-10.5h-6Z" style="fill:#dcc6c6;stroke:none"/>
        <path d="M195 152.5v-8l2.5-2.5 6.5 6.5-2 2 9 9-4.5 4.5Z" style="stroke:none"/>
        <path d="m197.5 142 4-4 6.5 6.5v4l10 10v3l-7 7-4.5-4.5 4.5-4.5-9-9 2-2Z" style="fill:#dcc6c6;stroke:none"/>
    </g>
</svg>
