<svg xmlns="http://www.w3.org/2000/svg" width="320" height="320" style="fill-opacity:1;color-rendering:auto;color-interpolation:auto;text-rendering:auto;stroke:#000;stroke-linecap:square;stroke-miterlimit:10;shape-rendering:auto;stroke-opacity:1;fill:#000;stroke-dasharray:none;font-weight:400;stroke-width:1;font-family:&quot;Dialog&quot;;font-style:normal;stroke-linejoin:miter;font-size:12px;stroke-dashoffset:0;image-rendering:auto">
    <g style="stroke-linecap:round;fill:#dcc6c6;stroke:#dcc6c6">
        <path stroke="none" d="M65 165.5v-13l2.5-2.5.5.5v7l2 2 15-15v5l-18 18Z" style="stroke:none"/>
    </g>
    <g stroke="none" style="stroke-linecap:round;fill:#fff;stroke:#fff">
        <path d="M68 157.5v-7l-.5-.5 10-10h3l4.5 4.5-15 15Zm41 35v-1l1.5-1.5h4l11 11h4l5.5 5.5v5l-6.5-6.5-3.5 3.5Z" style="stroke:none"/>
        <path d="m125 208.5 3.5-3.5 6.5 6.5v3l-1.5 1.5h-4L109 195.5v-3Zm21 43v-2l1.5-1.5 11 11h3l11-11 1.5 1.5v2L162.5 263h-5Z" style="fill:#dcc6c6;stroke:none"/>
        <path d="m147.5 248 2-2h2l6-6h5l6 6h2l2 2-11 11h-3Zm11-100h3l6-6 .5.5v8l-6.5 6.5h-3l-6.5-6.5v-8l.5-.5Z" style="stroke:none"/>
        <path d="M158.5 157h3l6.5-6.5v6l-6.5 6.5h-3l-6.5-6.5v-6Z" style="fill:#dcc6c6;stroke:none"/>
        <path d="M155 49.5v-14l5-5 5 5v14l-3.5 3.5h-3Z" style="stroke:none"/>
        <path d="M158.5 53h3l3.5-3.5v6l-3.5 3.5h-3l-3.5-3.5v-6Z" style="fill:#dcc6c6;stroke:none"/>
        <path d="M185 211.5v-5l5.5-5.5h4l11-11h4l1.5 1.5v1l-16 16-3.5-3.5Z" style="stroke:none"/>
        <path d="M185 214.5v-3l6.5-6.5 3.5 3.5 16-16v3L190.5 216h-4Z" style="fill:#dcc6c6;stroke:none"/>
        <path d="m235 144.5 4.5-4.5h3l10 10-.5.5v7l-2 2Z" style="stroke:none"/>
        <path d="m250 159.5 2-2v-7l.5-.5 2.5 2.5v13l-2 2-18-18v-5Z" style="fill:#dcc6c6;stroke:none"/>
    </g>
</svg>
