<svg xmlns="http://www.w3.org/2000/svg" width="64" height="64" style="fill-opacity:1;color-rendering:auto;color-interpolation:auto;text-rendering:auto;stroke:#000;stroke-linecap:square;stroke-miterlimit:10;shape-rendering:auto;stroke-opacity:1;fill:#000;stroke-dasharray:none;font-weight:400;stroke-width:1;font-family:&quot;Dialog&quot;;font-style:normal;stroke-linejoin:miter;font-size:12px;stroke-dashoffset:0;image-rendering:auto">
    <g style="stroke-linecap:round;fill:#dcc6c6;stroke:#dcc6c6">
        <path stroke="none" d="m15.5 36 3-3 4 4-3 3Z" style="stroke:none"/>
    </g>
    <g stroke="none" style="stroke-linecap:round;fill:#fff;stroke:#fff">
        <path d="m18.5 33 3.5-3.5 2 2v4L22.5 37ZM26 44.5v-3l2.5-2.5 3.5 3.5 3.5-3.5 2.5 2.5v3l-6 6Z" style="stroke:none"/>
        <path d="m32 50.5 6-6v6l-6 6-6-6v-6Z" style="fill:#dcc6c6;stroke:none"/>
        <path d="M40 35.5v-4l2-2 3.5 3.5-4 4Z" style="stroke:none"/>
        <path d="m41.5 37 4-4 3 3-4 4Z" style="fill:#dcc6c6;stroke:none"/>
    </g>
</svg>
