<svg xmlns="http://www.w3.org/2000/svg" width="82" height="84" style="fill-opacity:1;color-rendering:auto;color-interpolation:auto;text-rendering:auto;stroke:#000;stroke-linecap:square;stroke-miterlimit:10;shape-rendering:auto;stroke-opacity:1;fill:#000;stroke-dasharray:none;font-weight:400;stroke-width:1;font-family:&quot;Dialog&quot;;font-style:normal;stroke-linejoin:miter;font-size:12px;stroke-dashoffset:0;image-rendering:auto">
    <g style="stroke-linecap:round;fill:#989aa4;stroke:#989aa4">
        <path stroke="none" d="m7 48.5-1-1v-4l13-13 3 3-4 4 3 3-3 3V48h-1.5L12 43.5Z" style="stroke:none"/>
    </g>
    <g stroke="none" style="stroke-linecap:round;fill:#6e7080;stroke:#6e7080">
        <path d="m7 48.5 5-5 4 4-5 5Z" style="stroke:none"/>
        <path d="m11 52.5 5-5 .5.5H18v1.5l2.5 2.5-4 4h-2Z" style="fill:#4a4b53;stroke:none"/>
        <path d="M13 69.5v-5l3.5-3.5 4 4-6 6Z" style="fill:#989aa4;stroke:none"/>
        <path d="m14.5 71 6-6-4-4 5.5-5.5L32.5 66 27 71.5l-4-4-6 6Z" style="stroke:none"/>
        <path d="m17 73.5 6-6 4 4 5.5-5.5-7.5-7.5 4.5-4.5-3-3 5-5 9.5 9.5 9.5-9.5 5 5-3 3 4.5 4.5-7.5 7.5 5.5 5.5 4-4 6 6-4.5 4.5h-4l-13-13 2-2-4.5-4.5-4.5 4.5 2 2-13 13h-4Z" style="fill:#4a4b53;stroke:none"/>
        <path d="m18 37.5 4-4 3 3-4 4Z" style="stroke:none"/>
        <path d="M18 47.5v-4l7-7 2 2v5L24.5 41Z" style="fill:#d4816b;stroke:none"/>
        <path d="M18 49.5v-2l6.5-6.5 2.5 2.5v1l.5.5-7 7Z" style="fill:#ffd37f;stroke:none"/>
        <path d="m19 30.5 3.5-3.5 5 5-.5.5v6Z" style="fill:#4a4b53;stroke:none"/>
        <path d="m20.5 29-.5-.5v-4l6-6v-8L31.5 5h3l2 2-5 5 2.5 2.5 3-3 2 2V15h-.5L33 20.5v-2L31.5 17 23 25.5v1Z" style="fill:#989aa4;stroke:none"/>
        <path d="m21.5 51 9.5-9.5v4l.5.5-7.5 7.5Z" style="stroke:none"/>
        <path d="m22 55.5 4.5-4.5 3 3-4.5 4.5Z" style="fill:#989aa4;stroke:none"/>
        <path d="m22.5 27 .5-.5v-1l8.5-8.5 1.5 1.5v2L24.5 29Z" style="fill:#d4816b;stroke:none"/>
        <path d="m24.5 29 8.5-8.5v5l.5.5-6 6Z" style="fill:#ffd37f;stroke:none"/>
        <path d="m27.5 45-.5-.5v-12L39.5 20h3L55 32.5v12l-.5.5-3.5-3.5v-7l-10-10-10 10v7Z" style="fill:#989aa4;stroke:none"/>
        <path d="M31 40.5v-6l7.5-7.5.5.5v5Z" style="fill:#d4816b;stroke:none"/>
        <path d="M31 45.5v-5l8-8v12L34.5 49Z" style="fill:#ffd37f;stroke:none"/>
        <path d="m31.5 12 5-5 .5.5v4l-3 3Zm2 14-.5-.5v-5l5.5-5.5h5l5.5 5.5v5l-.5.5-6-6h-3Z" style="stroke:none"/>
        <path d="m34.5 49 4.5-4.5V41h4v3.5l4.5 4.5-3 3-3.5-3.5-3.5 3.5Z" style="fill:#989aa4;stroke:none"/>
        <path d="m36.5 63 4.5-4.5 4.5 4.5-4.5 4.5Zm1-11 3.5-3.5 3.5 3.5-3.5 3.5ZM39 41V27.5l-.5-.5 2.5-2.5 2.5 2.5-.5.5V41Z" style="stroke:none"/>
        <path d="M43.5 15H43v-1.5l2-2 3 3 2.5-2.5-5-5 2-2h3l5.5 5.5v8l6 6v4l-.5.5-2.5-2.5v-1L50.5 17 49 18.5v2Z" style="fill:#989aa4;stroke:none"/>
        <path d="M51 34.5v6l-8-8v-5l.5-.5Z" style="fill:#d4816b;stroke:none"/>
        <path d="M51 40.5v5L47.5 49 43 44.5v-12Z" style="fill:#ffd37f;stroke:none"/>
        <path d="M50.5 12 48 14.5l-3-3v-4l.5-.5Z" style="stroke:none"/>
        <path d="M49 20.5v-2l1.5-1.5 8.5 8.5v1l.5.5-2 2Z" style="fill:#d4816b;stroke:none"/>
        <path d="m57.5 29-3 3-6-6 .5-.5v-5Z" style="fill:#ffd37f;stroke:none"/>
        <path d="M49.5 66 60 55.5l5.5 5.5-4 4 6 6-2.5 2.5-6-6-4 4Zm11-15L58 53.5 50.5 46l.5-.5v-4Z" style="stroke:none"/>
        <path d="m52.5 54 3-3 4.5 4.5-3 3Z" style="fill:#989aa4;stroke:none"/>
        <path d="M55 38.5v-6l-.5-.5 5-5 3.5 3.5Z" style="fill:#4a4b53;stroke:none"/>
        <path d="M55 43.5v-5l2-2 7 7v4L57.5 41Z" style="fill:#d4816b;stroke:none"/>
        <path d="m54.5 45 .5-.5v-1l2.5-2.5 6.5 6.5v2L61.5 52Z" style="fill:#ffd37f;stroke:none"/>
        <path d="m57 36.5 3-3 4 4-3 3Z" style="stroke:none"/>
        <path d="m60 33.5 3-3 13 13v4l-1 1-5-5-4.5 4.5H64v-4.5l-3-3 3-3Z" style="fill:#989aa4;stroke:none"/>
        <path d="m61.5 52 2.5-2.5V48h1.5l.5-.5 5 5-3.5 3.5h-2Z" style="fill:#4a4b53;stroke:none"/>
        <path d="m61.5 65 4-4 3.5 3.5v5L67.5 71Z" style="fill:#989aa4;stroke:none"/>
        <path d="m66 47.5 4-4 5 5-4 4Z" style="stroke:none"/>
    </g>
</svg>
