<svg xmlns="http://www.w3.org/2000/svg" width="56" height="54" style="fill-opacity:1;color-rendering:auto;color-interpolation:auto;text-rendering:auto;stroke:#000;stroke-linecap:square;stroke-miterlimit:10;shape-rendering:auto;stroke-opacity:1;fill:#000;stroke-dasharray:none;font-weight:400;stroke-width:1;font-family:&quot;Dialog&quot;;font-style:normal;stroke-linejoin:miter;font-size:12px;stroke-dashoffset:0;image-rendering:auto">
    <g style="stroke-linecap:round;fill:#fff;stroke:#fff">
        <path stroke="none" d="m24 38.5 4-4 4 4 2.5-2.5.5.5v2l-2 2v3l-5 5-5-5v-3l-2-2v-2l.5-.5Z" style="stroke:none"/>
    </g>
    <g stroke="none" style="stroke-linecap:round;fill:#dcc6c6;stroke:#dcc6c6">
        <path d="M23 40.5v3l-2-2v-3Zm5 8 5-5v4l-5 5-5-5v-4Zm-4-21v-4l4-4 4 4v4l-4-4Z" style="stroke:none"/>
        <path d="m24.5 31-.5-.5v-3l4-4 4 4v3l-.5.5-2-2h-3Z" style="fill:#fff;stroke:none"/>
        <path d="M33 43.5v-3l2-2v3Z" style="stroke:none"/>
    </g>
</svg>
