<svg xmlns="http://www.w3.org/2000/svg" width="48" height="48" style="fill-opacity:1;color-rendering:auto;color-interpolation:auto;text-rendering:auto;stroke:#000;stroke-linecap:square;stroke-miterlimit:10;shape-rendering:auto;stroke-opacity:1;fill:#000;stroke-dasharray:none;font-weight:400;stroke-width:1;font-family:&quot;Dialog&quot;;font-style:normal;stroke-linejoin:miter;font-size:12px;stroke-dashoffset:0;image-rendering:auto">
    <g style="stroke-linecap:round;fill:#6e7080;stroke:#6e7080">
        <path stroke="none" d="M4 37.5v-7L6.5 28h4l5.5 5.5v6l.5.5-4 4h-2l-3-3 4-4L8 33.5Z" style="stroke:none"/>
    </g>
    <g stroke="none" style="stroke-linecap:round;fill:#989aa4;stroke:#989aa4">
        <path d="m4 37.5 4-4 3.5 3.5-4 4Z" style="stroke:none"/>
        <path d="M5 16.5v-2l10-10 1 1v8l.5.5-6 6h-2Z" style="fill:#b0bac0;stroke:none"/>
        <path d="M8.5 20h2l6-6 2 2-2.5 2.5v3l-4 4 5 5-1 1v2L10.5 28H8v-2.5l-3-3v-6Z" style="stroke:none"/>
        <path d="m12 25.5 4-4 2.5 2.5h.5v3.5l.5.5-2.5 2.5Z" style="fill:#6e7080;stroke:none"/>
        <path d="M16 21.5v-3l6.5-6.5h3l6.5 6.5v3L29.5 24H29v-3.5l-5-5-5 5V24h-.5Zm0 18v-8l3.5-3.5 2 2h5l2-2 3.5 3.5v8L28.5 43h-9Z" style="fill:#b0bac0;stroke:none"/>
        <path d="M19.5 24H19v-3.5l5-5 5 5V24h-.5L24 19.5Z" style="fill:#d06b53;stroke:none"/>
        <path d="M19 27.5V24h.5l4.5-4.5 4.5 4.5h.5v3.5L26.5 30h-5Z" style="fill:#ffa665;stroke:none"/>
        <path d="m19.5 36 3 3h3l3-3-3-3h-3Z" style="fill:#b0bac0;stroke:none"/>
        <path d="m19.5 36 3-3h3l3 3-3 3h-3Z" style="stroke:none"/>
        <path d="m28.5 28 .5-.5V24h.5l2.5-2.5 4 4-5 5Z" style="fill:#6e7080;stroke:none"/>
        <path d="m29.5 16 2-2 6 6h2l3.5-3.5v6l-3 3V28h-2.5L32 33.5v-2l-1-1 5-5-4-4v-3Z" style="stroke:none"/>
        <path d="m31.5 14 .5-.5v-8l1-1 10 10v2L39.5 20h-2Z" style="fill:#b0bac0;stroke:none"/>
        <path d="m31.5 40 .5-.5v-6l5.5-5.5h4l2.5 2.5v7l-4-4-3.5 3.5 4 4-3 3h-2Z" style="fill:#6e7080;stroke:none"/>
        <path d="m36.5 37 3.5-3.5 4 4-3.5 3.5Z" style="stroke:none"/>
    </g>
</svg>
