<svg xmlns="http://www.w3.org/2000/svg" width="100" height="80" style="fill-opacity:1;color-rendering:auto;color-interpolation:auto;text-rendering:auto;stroke:#000;stroke-linecap:square;stroke-miterlimit:10;shape-rendering:auto;stroke-opacity:1;fill:#000;stroke-dasharray:none;font-weight:400;stroke-width:1;font-family:&quot;Dialog&quot;;font-style:normal;stroke-linejoin:miter;font-size:12px;stroke-dashoffset:0;image-rendering:auto">
    <g style="stroke-linecap:round;fill:#989aa4;stroke:#989aa4">
        <path stroke="none" d="M15 51.5v-6l2.5-2.5h1l.5.5v1l.5.5h3l1.5-1.5v-2l6-6v-3L25.5 28l.5-.5v-3l4.5-4.5H38v3.5l3 3 5-5V20h8v1.5l5 5 3-3V20h7.5l4.5 4.5v3l.5.5-4.5 4.5v3l6 6v2l1.5 1.5h3l.5-.5v-1l.5-.5h1l2.5 2.5v6L79.5 57l-.5-.5v-5L75.5 48h-10L62 51.5v5L57.5 61l-2-2h-5l3.5-3.5v-3l6.5-6.5h7l2.5-2.5v2l.5.5 3-3-7-7H62v-2.5l-6-6-.5.5-2.5-2.5-3 3-3-3-2.5 2.5h-1L38 33.5V36h-4.5l-7 7 3 3 .5-.5v-2l2.5 2.5h7l6.5 6.5v3l3.5 3.5h-5l-2 2-4.5-4.5v-5L34.5 48h-10L21 51.5v5l-.5.5Z" style="stroke:none"/>
    </g>
    <g stroke="none" style="stroke-linecap:round;fill:#6e7080;stroke:#6e7080">
        <path d="M19 41.5v2l-.5-.5H18V32.5l4-4v-4l7 7Z" style="stroke:none"/>
        <path d="m19.5 45-.5-.5v-3l10-10 1 1v3l-6 6v2L22.5 45Z" style="fill:#b0bac0;stroke:none"/>
        <path d="m20.5 57 .5-.5v-5l3.5-3.5H30v4h-1.5l-3 3 4 4-3.5 3.5Z" style="stroke:none"/>
        <path d="M22 24.5V20h.5l4-4h4l4 4h-4L26 24.5v3l-.5.5Z" style="fill:#b0bac0;stroke:none"/>
        <path d="m25.5 55 3-3H30v.5l3.5 3.5h.5v1.5L32.5 59h-3Z" style="fill:#989aa4;stroke:none"/>
        <path d="m26.5 43 3-3 .5.5v5l-.5.5Z" style="stroke:none"/>
        <path d="M30 25.5v5l1.5 1.5h3l1.5-1.5v-3l-4-4Z" style="fill:#989aa4;stroke:none"/>
        <path d="M30 30.5v-5l2-2 4 4v3L34.5 32h-3Zm0 13v-3l-.5-.5 4-4H38v3.5l4 4V46h-9.5Zm0 9V48h4.5l3.5 3.5V56h-4.5Z" style="fill:#b0bac0;stroke:none"/>
        <path d="m32.5 59 1.5-1.5V56h4v.5l4.5 4.5-2 2h-4Z" style="stroke:none"/>
        <path d="M38 23.5V20h.5l4-4H46v5.5l-5 5Z" style="fill:#b0bac0;stroke:none"/>
        <path d="M38 34.5v-1l5.5-5.5h1l1 1h.5v3.5l4 4 4-4V29h.5l1.5-1.5 6 6V35h-.5L54 42.5v7L51.5 52h-3L46 49.5v-7Z" style="fill:#ffa665;stroke:none"/>
        <path d="M46 42.5v7L42.5 46H42v-2.5l-4-4v-5Z" style="fill:#d06b53;stroke:none"/>
        <path d="M39.5 46h3l3.5 3.5v3Z" style="stroke:none"/>
        <path d="m45.5 29-1-1 2.5-2.5 3 3 3-3 2.5 2.5-1 1h-1L50 32.5 46.5 29Z" style="fill:#b0bac0;stroke:none"/>
        <path d="M46 20v-4.5l4-4 4 4V20Z" style="stroke:none"/>
        <path d="m50 32.5 3.5-3.5h.5v3.5l-4 4-4-4V29h.5ZM48.5 52h3l2.5-2.5v3l-4 4-4-4v-3Z" style="fill:#d06b53;stroke:none"/>
        <path d="m50 56.5 4-4v3L50.5 59h-1L46 55.5v-3Z" style="stroke:none"/>
        <path d="M54 21.5V16h3.5l4 4h.5v3.5l-3 3Z" style="fill:#b0bac0;stroke:none"/>
        <path d="M54 49.5v-7l7.5-7.5h.5v4.5l-4 4V46h-.5Z" style="fill:#d06b53;stroke:none"/>
        <path d="M54 52.5v-3l3.5-3.5h3Z" style="stroke:none"/>
        <path d="M58 46v-2.5l4-4V36h4.5l4 4-.5.5v3L67.5 46Z" style="fill:#b0bac0;stroke:none"/>
        <path d="m57.5 61 4.5-4.5V56h4v1.5l1.5 1.5-4 4h-4Z" style="stroke:none"/>
        <path d="M62 56v-4.5l3.5-3.5H70v4.5L66.5 56Z" style="fill:#b0bac0;stroke:none"/>
        <path d="M64 27.5v3l1.5 1.5h3l1.5-1.5v-5l-2-2Z" style="fill:#989aa4;stroke:none"/>
        <path d="M64 30.5v-3l4-4 2 2v5L68.5 32h-3ZM65.5 20l4-4H74v.5l4 4v4L74.5 28l-.5-.5v-3L69.5 20Z" style="fill:#b0bac0;stroke:none"/>
        <path d="M66 57.5V56h.5l3.5-3.5V52h1.5l3 3-4 4h-3Z" style="fill:#989aa4;stroke:none"/>
        <path d="M70 35.5v-3l1-1 10 10v3l-.5.5h-3L76 43.5v-2Z" style="fill:#b0bac0;stroke:none"/>
        <path d="m73.5 43-3 3-.5-.5v-5l.5-.5ZM70 52v-4h5.5l3.5 3.5v5l.5.5-5.5 5.5-3.5-3.5 4-4-3-3Zm1-20.5 7-7v4l4 4V43h-.5l-.5.5v-2Z" style="stroke:none"/>
    </g>
</svg>
