<svg xmlns="http://www.w3.org/2000/svg" width="100" height="80" style="fill-opacity:1;color-rendering:auto;color-interpolation:auto;text-rendering:auto;stroke:#000;stroke-linecap:square;stroke-miterlimit:10;shape-rendering:auto;stroke-opacity:1;fill:#000;stroke-dasharray:none;font-weight:400;stroke-width:1;font-family:&quot;Dialog&quot;;font-style:normal;stroke-linejoin:miter;font-size:12px;stroke-dashoffset:0;image-rendering:auto">
    <g style="stroke-linecap:round;fill:#dcc6c6;stroke:#dcc6c6">
        <path stroke="none" d="m35.5 34-.5-.5v-2l2.5-2.5.5.5v3l.5.5-1 1Z" style="stroke:none"/>
    </g>
    <g stroke="none" style="stroke-linecap:round;fill:#dcc6c6;stroke:#dcc6c6">
        <path d="M35 41.5v-2l.5-.5h2l1 1-.5.5v3l-.5.5Z" style="stroke:none"/>
        <path d="m38.5 33-.5-.5v-3l-.5-.5 3-3h4l.5.5ZM42 43.5v2l-.5.5h-2l-2-2 .5-.5v-3l.5-.5Zm4 6v3l4 4 4-4v-3l2.5-2.5.5.5v12l-7 7-7-7v-12l.5-.5Z" style="fill:#fff;stroke:none"/>
        <path d="m50 66.5 7-7v4L51.5 69h-3L43 63.5v-4Z" style="stroke:none"/>
        <path d="m55 26.5.5-.5h4l3 3-.5.5v3l-.5.5ZM58.5 46l-.5-.5v-2l3.5-3.5.5.5v3l.5.5-2 2Z" style="fill:#fff;stroke:none"/>
        <path d="M65 31.5v2l-.5.5h-2l-1-1 .5-.5v-3l.5-.5ZM62.5 44l-.5-.5v-3l-.5-.5 1-1h2l.5.5v2Z" style="stroke:none"/>
    </g>
</svg>
