<svg xmlns="http://www.w3.org/2000/svg" width="56" height="56" style="fill-opacity:1;color-rendering:auto;color-interpolation:auto;text-rendering:auto;stroke:#000;stroke-linecap:square;stroke-miterlimit:10;shape-rendering:auto;stroke-opacity:1;fill:#000;stroke-dasharray:none;font-weight:400;stroke-width:1;font-family:&quot;Dialog&quot;;font-style:normal;stroke-linejoin:miter;font-size:12px;stroke-dashoffset:0;image-rendering:auto">
    <g style="stroke-linecap:round;fill:#dcc6c6;stroke:#dcc6c6">
        <path stroke="none" d="M16 33.5v-4l3.5-3.5.5.5v3Z" style="stroke:none"/>
    </g>
    <g stroke="none" style="stroke-linecap:round;fill:#fff;stroke:#fff">
        <path d="M16 37.5v-4l4-4 8 8 8-8 4 4v4l-3-3-4 4v6L29.5 48h-3L23 44.5v-6l-4-4Z" style="stroke:none"/>
        <path d="M26.5 48h3l3.5-3.5v4L29.5 52h-3L23 48.5v-4ZM25 34.5l3-3 3 3-3 3Zm15-5v4l-4-4v-3l.5-.5Z" style="fill:#dcc6c6;stroke:none"/>
    </g>
</svg>
