<svg xmlns="http://www.w3.org/2000/svg" width="68" height="68" style="fill-opacity:1;color-rendering:auto;color-interpolation:auto;text-rendering:auto;stroke:#000;stroke-linecap:square;stroke-miterlimit:10;shape-rendering:auto;stroke-opacity:1;fill:#000;stroke-dasharray:none;font-weight:400;stroke-width:1;font-family:&quot;Dialog&quot;;font-style:normal;stroke-linejoin:miter;font-size:12px;stroke-dashoffset:0;image-rendering:auto">
    <g style="stroke-linecap:round;fill:#6e7080;stroke:#6e7080">
        <path stroke="none" d="m8 52.5-1-1v-6l3-3v-3l2.5 2.5H14v1.5l1.5 1.5Z" style="stroke:none"/>
    </g>
    <g stroke="none" style="stroke-linecap:round;fill:#989aa4;stroke:#989aa4">
        <path d="m8 52.5 7.5-7.5 1 1H20v1.5L13.5 54h-4Z" style="stroke:none"/>
        <path d="M10 39.5v-1l8-8v4L11.5 41Z" style="fill:#b0bac0;stroke:none"/>
        <path d="m12.5 42-1-1 2-2 .5.5V42Z" style="stroke:none"/>
        <path d="M14 21.5v-6L22.5 7h1L26 9.5Z" style="fill:#b0bac0;stroke:none"/>
        <path d="M14 25.5v-4l2.5-2.5.5.5v5l1.5 1.5h4l5-5 1 1H30v.5l.5.5-8.5 8.5v4L20.5 34H18v-4.5Z" style="fill:#6e7080;stroke:none"/>
        <path d="M14.5 42H14v-2.5l-.5-.5 4.5-4.5V34h2.5l1.5 1.5v4L20.5 38h-2Z" style="fill:#d4816b;stroke:none"/>
        <path d="M14 43.5V42h.5l4-4h2l1.5 1.5v4l-2 2v.5h-3.5Z" style="fill:#ffd37f;stroke:none"/>
        <path d="M17 24.5v-5l-.5-.5L26 9.5V15h-.5L19 21.5v3l1 1 6-6 1.5 1.5-5 5h-4Z" style="stroke:none"/>
        <path d="m17.5 50 2.5-2.5v-2l2-2v-1l5.5-5.5 1.5 1.5-7 7v3l1.5 1.5h2l8.5-8.5 8.5 8.5h2l1.5-1.5v-3l-7-7 1.5-1.5 5.5 5.5v1l2 2v2l2.5 2.5-8 8h-2L38 55.5v-6l-4-4-4 4v6L27.5 58h-2Z" style="fill:#6e7080;stroke:none"/>
        <path d="m20 25.5-1-1v-3l6.5-6.5h.5v4.5Zm2 13v-7l5.5-5.5 2.5 2.5-4 4v1l-1 1v1Z" style="fill:#b0bac0;stroke:none"/>
        <path d="M22 42.5v-4l3-3v-1l1-1v2l1.5 1.5Z" style="stroke:none"/>
        <path d="m22.5 49-.5-.5v-3l2.5-2.5 2 2Z" style="fill:#b0bac0;stroke:none"/>
        <path d="m23.5 50-1-1 4-4-2-2 1.5-1.5 2 2 6-6 6 6 2-2 1.5 1.5-2 2 4 4-1 1h-2L34 41.5 25.5 50Z" style="stroke:none"/>
        <path d="m26.5 36-.5-.5v-3l6.5-6.5h3l6.5 6.5v3l-.5.5-7.5-7.5Z" style="fill:#d4816b;stroke:none"/>
        <path d="m26 41.5 3-3 2 2-3 3Z" style="fill:#b0bac0;stroke:none"/>
        <path d="m26.5 36 7.5-7.5 7.5 7.5-4.5 4.5-3-3-3 3Z" style="fill:#ffd37f;stroke:none"/>
        <path d="m27.5 26 5-5h3l5 5-2.5 2.5-2.5-2.5h-3L30 28.5Z" style="stroke:none"/>
        <path d="m30.5 23-.5-.5v-3l2.5-2.5h3l2.5 2.5v3l-.5.5-2-2h-3ZM37 40.5l2-2 3 3-2 2Z" style="fill:#b0bac0;stroke:none"/>
        <path d="m37.5 23 .5-.5V22h1.5l1-1 5 5h4l1.5-1.5v-5l.5-.5 2.5 2.5v4l-4 4V34h-2.5L46 35.5v-4Z" style="fill:#6e7080;stroke:none"/>
        <path d="m38 28.5 2.5-2.5 5.5 5.5v7l-3-3v-1l-1-1v-1Z" style="fill:#b0bac0;stroke:none"/>
        <path d="m40.5 21 1.5-1.5 6 6 1-1v-3l-7-7v-5l9.5 9.5-.5.5v5L49.5 26h-4Zm0 16 1.5-1.5v-2l1 1v1l3 3v4Z" style="stroke:none"/>
        <path d="M42 9.5 44.5 7h1l8.5 8.5v6Zm7 12v3l-1 1-6-6v-5ZM41.5 45l2-2 2.5 2.5v3l-.5.5Z" style="fill:#b0bac0;stroke:none"/>
        <path d="M46.5 39H46v-3.5l1.5-1.5H50v.5l4.5 4.5-.5.5V42h-.5l-4-4h-2Z" style="fill:#d4816b;stroke:none"/>
        <path d="M46 43.5V39h.5l1-1h2l4 4h.5v1.5L51.5 46H48v-.5Z" style="fill:#ffd37f;stroke:none"/>
        <path d="M48 47.5V46h3.5l1-1 7.5 7.5-1.5 1.5h-4Z" style="stroke:none"/>
        <path d="M58 38.5v1L56.5 41 50 34.5v-4Z" style="fill:#b0bac0;stroke:none"/>
        <path d="m52.5 45 1.5-1.5V42h1.5l2.5-2.5v3l3 3v6l-1 1Z" style="fill:#6e7080;stroke:none"/>
        <path d="m56.5 41-1 1H54v-2.5l.5-.5Z" style="stroke:none"/>
    </g>
</svg>
