<svg xmlns="http://www.w3.org/2000/svg" width="72" height="72" style="fill-opacity:1;color-rendering:auto;color-interpolation:auto;text-rendering:auto;stroke:#000;stroke-linecap:square;stroke-miterlimit:10;shape-rendering:auto;stroke-opacity:1;fill:#000;stroke-dasharray:none;font-weight:400;stroke-width:1;font-family:&quot;Dialog&quot;;font-style:normal;stroke-linejoin:miter;font-size:12px;stroke-dashoffset:0;image-rendering:auto">
    <g style="stroke-linecap:round;fill:#dcc6c6;stroke:#dcc6c6">
        <path stroke="none" d="m28.5 40-.5-.5v-3l.5-.5H30v4Z" style="stroke:none"/>
    </g>
    <g stroke="none" style="stroke-linecap:round;fill:#fff;stroke:#fff">
        <path d="m31.5 47 4.5-4.5 4.5 4.5 3-3 .5.5v3l-8 8-8-8v-3l.5-.5Z" style="stroke:none"/>
        <path d="m36 55.5 8-8v3l-8 8-8-8v-3Z" style="fill:#dcc6c6;stroke:none"/>
        <path d="M30.5 40H30v-4h.5l2-2h7l2 2h.5v4h-.5l-2-2h-7Z" style="stroke:none"/>
        <path d="M42 40v-4h1.5l.5.5v3l-.5.5Z" style="fill:#dcc6c6;stroke:none"/>
    </g>
</svg>
