<svg xmlns="http://www.w3.org/2000/svg" width="72" height="72" style="fill-opacity:1;color-rendering:auto;color-interpolation:auto;text-rendering:auto;stroke:#000;stroke-linecap:square;stroke-miterlimit:10;shape-rendering:auto;stroke-opacity:1;fill:#000;stroke-dasharray:none;font-weight:400;stroke-width:1;font-family:&quot;Dialog&quot;;font-style:normal;stroke-linejoin:miter;font-size:12px;stroke-dashoffset:0;image-rendering:auto">
    <g style="stroke-linecap:round;fill:#b0bac0;stroke:#b0bac0">
        <path stroke="none" d="m1.5 56 12-12H20v1.5L17.5 48h-3L4 58.5Z" style="stroke:none"/>
    </g>
    <g stroke="none" style="stroke-linecap:round;fill:#6e7080;stroke:#6e7080">
        <path d="m4 58.5 1-1L6.5 59l5-5 4.5 4.5 4-4v-4l4-4v3l2.5 2.5H28v.5l2 2-1 1v4l-.5.5-4-4-8 8h-1l-4-4-3 3Z" style="stroke:none"/>
        <path d="m5 57.5 9.5-9.5h3l2.5-2.5v-2l-8-8v-4l6.5 6.5h3l2-2 .5.5v2l.5.5 3-3h3l2-2h7l2 2h3l3 3 .5-.5v-3l2.5 2.5h3l6.5-6.5v4l-8 8v2l2.5 2.5h3l9.5 9.5-1.5 1.5-5-5-4.5 4.5-4-4v-4l-4-4v-3L44.5 40h-3l-2-2h-7l-2 2h-3L24 43.5v3l-4 4v4l-4 4-4.5-4.5-5 5Z" style="fill:#989aa4;stroke:none"/>
        <path d="M12 31.5v-4l3.5-3.5h1l3.5-3.5v12l3.5 3.5-2 2h-3Z" style="fill:#b0bac0;stroke:none"/>
        <path d="M20 43.5v.5h-1.5L12 37.5v-2Z" style="stroke:none"/>
        <path d="M14 52.5v2l.5.5h2l2.5-2.5v-2l-.5-.5h-2Z" style="fill:#989aa4;stroke:none"/>
        <path d="m14.5 55-.5-.5v-2l2.5-2.5h2l.5.5v2L16.5 55Z" style="fill:#b0bac0;stroke:none"/>
        <path d="M16.5 24H16v-4.5l3.5-3.5h.5v4.5Z" style="fill:#989aa4;stroke:none"/>
        <path d="M20 32.5v-4l1-1 3 3v6Z" style="stroke:none"/>
        <path d="m21 27.5 2-2 .5.5h2l5.5-5.5v-2l3.5-3.5h3l3.5 3.5v2l5.5 5.5h2l.5-.5 2 2-3 3-12-12-12 12Z" style="fill:#989aa4;stroke:none"/>
        <path d="m23.5 26-.5-.5 1-1V24h.5l5-5H31v1.5L25.5 26Zm1 13-.5-.5v-8l7.5-7.5.5.5v3l-4 4V36h-.5Zm-.5 9.5v-5l3.5-3.5.5.5v3l6.5 6.5h3l6.5-6.5v-3l.5-.5 3.5 3.5V49h-.5L45 51.5v.5h-1.5l-2 2-2-2h-7l-2 2-2-2H27v-.5Z" style="fill:#b0bac0;stroke:none"/>
        <path d="m25 50.5-1-1v-1l1 1Z" style="fill:#989aa4;stroke:none"/>
        <path d="M27 52h-.5L24 49.5v-1l3 3Z" style="fill:#989aa4;stroke:none"/>
        <path d="M28 33.5v-3l4-4v3Z" style="fill:#d06b53;stroke:none"/>
        <path d="M28 36v-2.5l4-4v-3l4-4 4 4v3l4 4V36h-2.5l-2-2h-7l-2 2Zm-.5 4h3l2-2h7l2 2h3L40 44.5v2l.5.5-3 3h-3l-3-3 .5-.5v-2Z" style="fill:#ffa665;stroke:none"/>
        <path d="M32 44.5v2l-.5.5-3.5-3.5v-3Z" style="fill:#d06b53;stroke:none"/>
        <path d="m29 53.5-1-1V52h.5l.5.5Z" style="fill:#989aa4;stroke:none"/>
        <path d="m29.5 19-.5-.5v-2l5.5-5.5h3l5.5 5.5v2l-.5.5H41v-.5L37.5 15h-3L31 18.5v.5Z" style="stroke:none"/>
        <path d="M29 57.5v-2l1-1-2-2V52h.5l2 2 2-2h7l2 2 2-2h.5v.5l-2 2 1 1v2L39.5 54h-7Z" style="fill:#989aa4;stroke:none"/>
        <path d="m28.5 60 .5-.5v-2l3.5-3.5h7l3.5 3.5v2l.5.5-2 2-.5-.5v-1L39.5 59h-7L31 60.5v1l-.5.5Z" style="fill:#b0bac0;stroke:none"/>
        <path d="M32 26.5v-3l-.5-.5 4.5-4.5 4.5 4.5-.5.5v3l-4-4Z" style="fill:#d06b53;stroke:none"/>
        <path d="M48 30.5v8l-.5.5-3-3H44v-5.5l-4-4v-3l.5-.5Z" style="fill:#b0bac0;stroke:none"/>
        <path d="M44 30.5v3l-4-4v-3ZM40.5 47l-.5-.5v-2l4-4v3Z" style="fill:#d06b53;stroke:none"/>
        <path d="M41 20.5V19h1.5l5 5h.5v.5l1 1-.5.5h-2Z" style="fill:#b0bac0;stroke:none"/>
        <path d="m42 54.5 2-2V52h1.5l2.5-2.5v-3l4 4v4l4 4 4.5-4.5 5 5 1.5-1.5 1 1-4.5 4.5-3-3-4 4h-1l-8-8-4 4-.5-.5v-4Z" style="stroke:none"/>
        <path d="M45.5 52H45v-.5l2.5-2.5h.5v.5Z" style="fill:#989aa4;stroke:none"/>
        <path d="m48.5 36-.5-.5v-5l3-3 1 1v4Z" style="stroke:none"/>
        <path d="m48.5 36 3.5-3.5v-12l3.5 3.5h1l3.5 3.5v4L53.5 38h-3Z" style="fill:#b0bac0;stroke:none"/>
        <path d="M56 19.5V24h-.5L52 20.5V16h.5Z" style="fill:#989aa4;stroke:none"/>
        <path d="M52 44v-.5l8-8v2L53.5 44Z" style="stroke:none"/>
        <path d="M52 45.5V44h6.5l12 12-2.5 2.5L57.5 48h-3Z" style="fill:#b0bac0;stroke:none"/>
        <path d="m53.5 50-.5.5v2l2.5 2.5h2l.5-.5v-2L55.5 50Z" style="fill:#989aa4;stroke:none"/>
        <path d="M53 52.5v-2l.5-.5h2l2.5 2.5v2l-.5.5h-2Z" style="fill:#b0bac0;stroke:none"/>
    </g>
</svg>
