<svg xmlns="http://www.w3.org/2000/svg" width="66" height="72" style="fill-opacity:1;color-rendering:auto;color-interpolation:auto;text-rendering:auto;stroke:#000;stroke-linecap:square;stroke-miterlimit:10;shape-rendering:auto;stroke-opacity:1;fill:#000;stroke-dasharray:none;font-weight:400;stroke-width:1;font-family:&quot;Dialog&quot;;font-style:normal;stroke-linejoin:miter;font-size:12px;stroke-dashoffset:0;image-rendering:auto">
    <g style="stroke-linecap:round;fill:#989aa4;stroke:#989aa4">
        <path stroke="none" d="M9 25.5v-2l7.5-7.5h2l2 2-3.5 3.5v3l3 3-3.5 3.5h-2Z" style="stroke:none"/>
    </g>
    <g stroke="none" style="stroke-linecap:round;fill:#6e7080;stroke:#6e7080">
        <path d="M14.5 31 12 33.5l-3-3v-5Z" style="stroke:none"/>
        <path d="M9 53.5v-5l3.5-3.5 3 3 3-3-3-3 .5-.5V36h.5l5 5-.5.5 4 4V48h-2.5L17 53.5l-4-4Z" style="fill:#989aa4;stroke:none"/>
        <path d="M9 54.5v-1l4-4 5.5 5.5h2l3.5-3.5 3 3v4L22.5 63h-5Zm3-21 2.5-2.5h2l.5-.5 3.5 3.5h2l5-5 3 3-9 9-5-5h-2Z" style="fill:#4a4b53;stroke:none"/>
        <path d="m12.5 45 3-3 3 3-3 3ZM17 24.5v-3l5.5-5.5 1.5 1.5v5l.5.5-4.5 4.5Z" style="stroke:none"/>
        <path d="m17 30.5 3-3 4.5 4.5-2 2h-2Z" style="fill:#d4816b;stroke:none"/>
        <path d="m17 53.5 5.5-5.5h3l4 4-2.5 2.5-3-3-3.5 3.5h-2Z" style="stroke:none"/>
        <path d="m20 27.5 8.5-8.5h.5v7.5l.5.5-5 5Z" style="fill:#ffd37f;stroke:none"/>
        <path d="m21 41.5 3-3 4 4-3 3Z" style="fill:#d4816b;stroke:none"/>
        <path d="M22 15.5v-2L28.5 7h9l6.5 6.5v2L42.5 17 38 12.5l-1 1v3l-4-4-4 4v-3l-1-1-4.5 4.5Z" style="fill:#989aa4;stroke:none"/>
        <path d="m24.5 23-.5-.5v-5l-.5-.5 4.5-4.5 1 1V19h-.5Z" style="fill:#d4816b;stroke:none"/>
        <path d="m24 38.5 3-3 .5.5h3l2.5-2.5 2.5 2.5h3l.5-.5 3 3-4 4-.5-.5h-1L33 45.5l-4-4-1 1Z" style="fill:#ffd37f;stroke:none"/>
        <path d="M25.5 48H25v-2.5l4-4 4 4 3.5-3.5h1l3.5 3.5V48h-.5l-4 4-2-2h-3l-2 2Z" style="fill:#4a4b53;stroke:none"/>
        <path d="m27.5 36-.5-.5 6-6 6 6-.5.5h-3L33 33.5 30.5 36Z" style="fill:#d4816b;stroke:none"/>
        <path d="m27.5 29 5.5-5.5 5.5 5.5-3 3-2.5-2.5-2.5 2.5Zm2-9H29v-3.5l4-4 4 4v4l-4-4Z" style="stroke:none"/>
        <path d="m29.5 27-.5-.5V20h.5l3.5-3.5 4 4v6l-.5.5-3.5-3.5Z" style="fill:#989aa4;stroke:none"/>
        <path d="m35.5 32 3-3 5 5h2l3.5-3.5.5.5h2l2.5 2.5-2.5 2.5h-2l-5 5Z" style="fill:#4a4b53;stroke:none"/>
        <path d="M37 18.5v-5l1-1 4.5 4.5-.5.5v5l-.5.5Z" style="fill:#d4816b;stroke:none"/>
        <path d="M46 27.5 41.5 32l-5-5 .5-.5v-8Z" style="fill:#ffd37f;stroke:none"/>
        <path d="m36.5 52 4-4h3l5.5 5.5-1.5 1.5h-2L42 51.5l-3 3Z" style="stroke:none"/>
        <path d="m38 42.5 4-4 3 3-4 4Z" style="fill:#d4816b;stroke:none"/>
        <path d="M39 58.5v-4l3-3 3.5 3.5h2l5.5-5.5 4 4v1L48.5 63h-5Z" style="fill:#4a4b53;stroke:none"/>
        <path d="M41 48v-2.5l4-4-.5-.5 5-5h.5v5.5l.5.5-3 3 3 3 3-3 3.5 3.5v5l-4-4-4 4-5.5-5.5Z" style="fill:#989aa4;stroke:none"/>
        <path d="m41.5 23 .5-.5v-5l1.5-1.5 5.5 5.5v3l-3 3Z" style="stroke:none"/>
        <path d="m41.5 32 4.5-4.5 3 3-3.5 3.5h-2Z" style="fill:#d4816b;stroke:none"/>
        <path d="m45.5 18 2-2h2l7.5 7.5v2L51.5 31h-2L46 27.5l3-3v-3Z" style="fill:#989aa4;stroke:none"/>
        <path d="m47.5 45 3-3 3 3-3 3Zm4-14 5.5-5.5v5l-3 3Z" style="stroke:none"/>
    </g>
</svg>
