<svg xmlns="http://www.w3.org/2000/svg" width="96" height="96" style="fill-opacity:1;color-rendering:auto;color-interpolation:auto;text-rendering:auto;stroke:#000;stroke-linecap:square;stroke-miterlimit:10;shape-rendering:auto;stroke-opacity:1;fill:#000;stroke-dasharray:none;font-weight:400;stroke-width:1;font-family:&quot;Dialog&quot;;font-style:normal;stroke-linejoin:miter;font-size:12px;stroke-dashoffset:0;image-rendering:auto">
    <g style="stroke-linecap:round;fill:#989aa4;stroke:#989aa4">
        <path stroke="none" d="m9.5 26-.5-.5v-4l3-3v-5l3.5-3.5h3l.5.5v4l-5 5v2Z" style="stroke:none"/>
    </g>
    <g stroke="none" style="stroke-linecap:round;fill:#6e7080;stroke:#6e7080">
        <path d="M9 72.5v-4l3-3 4 4v2l-4 4ZM9.5 26l4.5-4.5v-2l5-5v5l-3 3v5l7.5 7.5-1.5 1.5V40h-.5l-9 9-.5-.5v-4l4-4v-2l2-2v-3L12.5 28h-1Z" style="stroke:none"/>
        <path d="M18 33.5v3l-2 2-4-4V28h.5Z" style="fill:#4a4b53;stroke:none"/>
        <path d="M12 65.5v-4l4-4 3 3v5L15.5 69Z" style="fill:#989aa4;stroke:none"/>
        <path d="M12 81.5v-6l4-4v-2l-.5-.5 3.5-3.5V64h4.5l2-2 5 5h1l.5-.5 5 5 2.5-2.5-5.5-5.5v-1l3.5-3.5-4-4 .5-.5v-6l3.5-3.5 2 2 3-3 3 3-6 6 5.5 5.5-2.5 2.5 5.5 5.5 5.5-5.5-2.5-2.5 5.5-5.5-6-6 3-3 3 3 2-2 3.5 3.5v6l.5.5-4 4 3.5 3.5v1L56.5 69l2.5 2.5 5-5 1 1 5.5-5.5 2 2H77v1.5l3.5 3.5-.5.5v2l4 4v6L79.5 86h-2l-.5-.5v-11L72.5 70h-5L63 74.5v11l-.5.5h-2L55 80.5v-4l-2-2-3.5 3.5h-3L43 74.5l-2 2v4L35.5 86h-2l-.5-.5v-11L28.5 70h-5L19 74.5v11l-.5.5h-2Z" style="fill:#4a4b53;stroke:none"/>
        <path d="m12.5 49 9-9h1l3 3h1l4 4-6 6-5-5-4 4ZM16 27.5v-5l3-3v4l3.5 3.5h6l4.5-4.5v-3l3 3v3L33.5 28l4 4 8-8h5l8 8 4-4-2.5-2.5v-3l3-3v3l4.5 4.5h6l3.5-3.5v-4l3 3v5L72.5 35l-3-3h-3L63 35.5v2l3.5 3.5-6 6-2-2 2-2-11-11h-3l-11 11 2 2-2 2-6-6 3.5-3.5v-2L29.5 32h-3l-3 3Z" style="fill:#989aa4;stroke:none"/>
        <path d="M16 57.5v-5l-.5-.5 4-4 5 5-3.5 3.5v2l-2 2Z" style="fill:#4a4b53;stroke:none"/>
        <path d="M19 64v-3.5l2-2 4 4-1.5 1.5Z" style="stroke:none"/>
        <path d="M21 58.5v-2l2-2 2.5 2.5 4.5-4.5 3 3-7 7-.5-.5-.5.5Z" style="fill:#feb380;stroke:none"/>
        <path d="M22.5 40H22v-3.5l4.5-4.5h3l3.5 3.5v2l-2 2-4-4Z" style="fill:#bc5452;stroke:none"/>
        <path d="m22.5 40 4.5-4.5 4 4-4 4-.5-.5h-1Z" style="fill:#feb380;stroke:none"/>
        <path d="m23 54.5 7.5-7.5 3.5 3.5v4l-1 1-3-3-4.5 4.5Z" style="fill:#bc5452;stroke:none"/>
        <path d="m26 62.5 7.5-7.5 4 4-3.5 3.5v1l.5.5-3 3h-1Z" style="fill:#989aa4;stroke:none"/>
        <path d="m27 43.5 2.5-2.5 6 6-1.5 1.5v2Zm5 23 2.5-2.5 5 5-2.5 2.5Z" style="stroke:none"/>
        <path d="M33 14.5v-4l.5-.5h4l3.5 3.5v9Z" style="fill:#989aa4;stroke:none"/>
        <path d="M41 22.5v5l.5.5-4 4-4-4 2.5-2.5v-3l-3-3v-5Z" style="stroke:none"/>
        <path d="m35.5 43 11-11h3l11 11-4 4-3-3 .5-.5v-2l-6-6-6 6v2l.5.5-3 3Z" style="fill:#bc5452;stroke:none"/>
        <path d="m39.5 53 3-3 1.5 1.5v1l4 4 4-4v-1l1.5-1.5 3 3-5.5 5.5 2.5 2.5-5.5 5.5-5.5-5.5 2.5-2.5Z" style="stroke:none"/>
        <path d="M42 43.5v-2l6-6 6 6v2L49.5 48h-3Z" style="fill:#feb380;stroke:none"/>
        <path d="m42.5 50 3-3 1 1h3l1-1 3 3-1.5 1.5v1l-4 4-4-4v-1ZM55 22.5v-9l3.5-3.5h4l.5.5v4Z" style="fill:#989aa4;stroke:none"/>
        <path d="m54.5 28 .5-.5v-5l8-8v5l-3 3v3l2.5 2.5-4 4Zm2 41 5-5 2.5 2.5-5 5Z" style="stroke:none"/>
        <path d="m58.5 59 4-4 7.5 7.5-5 5-3.5-3.5.5-.5v-1Z" style="fill:#989aa4;stroke:none"/>
        <path d="m60.5 47 6-6 2.5 2.5-7 7v-2Z" style="stroke:none"/>
        <path d="m63 55.5-1-1v-4l3.5-3.5 7.5 7.5-2.5 2.5-4.5-4.5Zm0-18v-2l3.5-3.5h3l4.5 4.5v3l-.5.5-4.5-4.5-4 4Z" style="fill:#bc5452;stroke:none"/>
        <path d="m63 55.5 3-3 4.5 4.5 2.5-2.5 2 2v2l-4 4-.5-.5-.5.5Zm2-16 4-4 4.5 4.5-3 3h-1l-.5.5Z" style="fill:#feb380;stroke:none"/>
        <path d="m65.5 47 4-4h1l3.5-3.5 9.5 9.5-3 3-4-4-5 5Z" style="fill:#989aa4;stroke:none"/>
        <path d="m71 62.5 4-4 2 2V64h-4.5Z" style="stroke:none"/>
        <path d="m71.5 53 5-5 4 4-.5.5v5l-3 3-2-2v-2Z" style="fill:#4a4b53;stroke:none"/>
        <path d="m72.5 35 7.5-7.5v-5l-3-3v-5l5 5v2l4.5 4.5-2 2h-1L78 33.5v3l2 2v2l4 4v4l-.5.5-9.5-9.5v-3Z" style="stroke:none"/>
        <path d="M77 14.5v-4l.5-.5h3l3.5 3.5v5l3 3v4l-.5.5-4.5-4.5v-2Zm0 51v-5l3-3 4 4v4L80.5 69Z" style="fill:#989aa4;stroke:none"/>
        <path d="M78 36.5v-3l5.5-5.5h.5v6.5l-4 4Z" style="fill:#4a4b53;stroke:none"/>
        <path d="M80 71.5v-2l4-4 3 3v4l-3 3Z" style="stroke:none"/>
    </g>
</svg>
