<svg xmlns="http://www.w3.org/2000/svg" width="100" height="100" style="fill-opacity:1;color-rendering:auto;color-interpolation:auto;text-rendering:auto;stroke:#000;stroke-linecap:square;stroke-miterlimit:10;shape-rendering:auto;stroke-opacity:1;fill:#000;stroke-dasharray:none;font-weight:400;stroke-width:1;font-family:&quot;Dialog&quot;;font-style:normal;stroke-linejoin:miter;font-size:12px;stroke-dashoffset:0;image-rendering:auto">
    <g style="stroke-linecap:round;fill:#dcc6c6;stroke:#dcc6c6">
        <path stroke="none" d="m27.5 47 6.5-6.5 4.5 4.5-6.5 6.5Z" style="stroke:none"/>
    </g>
    <g stroke="none" style="stroke-linecap:round;fill:#fff;stroke:#fff">
        <path d="M37.5 39h2l2-2 .5.5v4L38.5 45 34 40.5v-4l.5-.5Z" style="stroke:none"/>
        <path d="M39 74.5v-5l2-2 5.5 5.5-1.5 1.5v5l-.5.5Z" style="fill:#dcc6c6;stroke:none"/>
        <path d="m41 67.5 5.5-5.5.5.5v1l3 3 3-3v-1l.5-.5 5.5 5.5-5.5 5.5-3.5-3.5-3.5 3.5Z" style="stroke:none"/>
        <path d="m53.5 73 5.5-5.5 2 2v5L55.5 80l-.5-.5v-5Z" style="fill:#dcc6c6;stroke:none"/>
        <path d="M60.5 39h2l3-3 .5.5v4L61.5 45 58 41.5v-4l.5-.5Z" style="stroke:none"/>
        <path d="m61.5 45 4.5-4.5 6.5 6.5-4.5 4.5Z" style="fill:#dcc6c6;stroke:none"/>
    </g>
</svg>
