<svg xmlns="http://www.w3.org/2000/svg" width="88" height="101" style="fill-opacity:1;color-rendering:auto;color-interpolation:auto;text-rendering:auto;stroke:#000;stroke-linecap:square;stroke-miterlimit:10;shape-rendering:auto;stroke-opacity:1;fill:#000;stroke-dasharray:none;font-weight:400;stroke-width:1;font-family:&quot;Dialog&quot;;font-style:normal;stroke-linejoin:miter;font-size:12px;stroke-dashoffset:0;image-rendering:auto">
    <g style="stroke-linecap:round;fill:#6e7080;stroke:#6e7080">
        <path stroke="none" d="M5 58.5v-10L9.5 44h3l.5.5-2 2v10l5 5v2l-.5.5h-5Z" style="stroke:none"/>
    </g>
    <g stroke="none" style="stroke-linecap:round;fill:#6e7080;stroke:#6e7080">
        <path d="M8 81.5v-7l5.5-5.5h6l.5.5-7 7v2l7.5 7.5h2l5-5 1 1h3l6.5-6.5v-2l-.5-.5h-3L30 68.5V66h1.5l3 3H39v1.5l.5.5-1.5 1.5 3.5 3.5-.5.5v1l-4 4V85h-.5l-2 2-3.5-3.5-8.5 8.5h-4Z" style="stroke:none"/>
        <path d="m9.5 73-.5-.5v-7l1.5-1.5H15v1.5l-3 3v1l.5.5ZM11 51v-4.5l3-3v-6l6-6 1.5 1.5-.5.5v3l-4 4v3l1 1v3L14.5 51Z" style="fill:#b0bac0;stroke:none"/>
        <path d="M11 56.5V51h3.5l3.5-3.5v-3l-1-1v-3l4-4v-3l.5-.5 2.5 2.5v2l-4 4v4l2 2-8.5 8.5 2 2h2l2-2 .5.5v3l.5.5-2.5 2.5v4l.5.5 5.5-5.5v-2l3 3-3 3V72h-1.5l-3-3h-6l-1 1-.5-.5v-1l3-3V64h.5l.5-.5v-2Zm2 22v-2l4-4 2.5 2.5-1 1h-1L15 78.5v1l-.5.5Z" style="fill:#989aa4;stroke:none"/>
        <path d="m13.5 56 7-7 .5.5v5L17.5 58h-2Zm1 24 .5-.5v-1l2.5-2.5h1l.5-.5 2.5 2.5-4.5 4.5Zm2.5-7.5 3-3 2.5 2.5-3 3Z" style="fill:#b0bac0;stroke:none"/>
        <path d="m17 82.5 1.5-1.5 2.5 2.5 2.5-2.5-2.5-2.5 3-3v2l3.5 3.5-5 5h-2Z" style="fill:#989aa4;stroke:none"/>
        <path d="m18.5 67-.5-.5v-4l6-6v5Z" style="fill:#b0bac0;stroke:none"/>
        <path d="m19 75.5 3.5-3.5H24v3.5L21.5 78Zm-.5 5.5 2.5-2.5 2.5 2.5-2.5 2.5ZM20 31.5l3-3 4.5 4.5h4l.5.5-10 10v3l.5.5H24v9.5L20.5 60l-.5-.5v-3l-.5-.5 1.5-1.5v-5l-.5-.5 1.5-1.5-2-2v-4l4-4v-2Z" style="stroke:none"/>
        <path d="m22.5 47-.5-.5v-3L40.5 25h2L40 27.5v4L36.5 35h-2L24 45.5V47Z" style="fill:#b0bac0;stroke:none"/>
        <path d="m23 28.5 2.5-2.5.5.5v1l2.5 2.5h3l4-4-2-2 1-1h5l3-3h3l3 3h5l1 1-2 2 4 4h3l2.5-2.5v-1l.5-.5 2.5 2.5-4.5 4.5h-4l-.5.5-8.5-8.5h-7L32 33.5l-.5-.5h-4Z" style="fill:#989aa4;stroke:none"/>
        <path d="M24 47v-1.5L34.5 35h4l.5.5v1l.5.5-2.5 2.5v1l-1 1-1.5-1.5h-2l-7 7Z" style="fill:#d06b53;stroke:none"/>
        <path d="M24 54.5V47h1.5l7-7h2l1.5 1.5-6 6v8l6.5 6.5-1 1h-3Z" style="fill:#ffa665;stroke:none"/>
        <path d="M32.5 63h3l1-1 3 3-.5.5V69h-4.5l-3-3H30v-.5l-6-6v-5Z" style="fill:#d06b53;stroke:none"/>
        <path d="M24 77.5v-12l3-3 3 3v3l4.5 4.5h3l.5.5v2L31.5 82h-3Zm2-50v-1l-.5-.5 3-3 1 1h4l2 2-4 4h-3Z" style="fill:#b0bac0;stroke:none"/>
        <path d="m28 76.5 1.5 1.5h2l2-2-2.5-2.5Z" style="fill:#b0bac0;stroke:none"/>
        <path d="m28 76.5 3-3 2.5 2.5-2 2h-2Z" style="fill:#989aa4;stroke:none"/>
        <path d="m29.5 24-1-1 4.5-4.5.5.5H35v4h-.5l-1 1Z" style="stroke:none"/>
        <path d="m30.5 21-.5-.5v-4l7-7 .5.5h1l.5.5v2Z" style="fill:#b0bac0;stroke:none"/>
        <path d="M30 51.5v-4l2.5-2.5.5.5v3Z" style="stroke:none"/>
        <path d="m31 56.5-1-1v-4l3-3v5l.5.5Z" style="fill:#989aa4;stroke:none"/>
        <path d="m31 56.5 2.5-2.5 5 5H40v.5l4 4 4-4V59h1.5l5-5 2.5 2.5L45.5 68h-3Z" style="stroke:none"/>
        <path d="m33.5 19-.5-.5 6-6v-2l-.5-.5h-1l-.5-.5L42.5 4h3L51 9.5l-.5.5h-1l-.5.5v2l6 6-.5.5h-2L44 10.5 35.5 19Z" style="fill:#989aa4;stroke:none"/>
        <path d="M33 53.5v-8l-.5-.5 4.5-4.5v-1l5.5-5.5h3l5.5 5.5v1l4.5 4.5-.5.5v8L49.5 59H48v-5.5l3-3v-4l-3-3v-3l-4-4-4 4V44h-.5L37 46.5v4l3 3V59h-1.5ZM35 23v-4h.5l8.5-8.5 8.5 8.5h.5v4h-4.5l-3-3h-3l-3 3Zm0 65.5v-1l-.5-.5 2-2h2l5.5 5.5 5.5-5.5h2l2 2-.5.5v1L46.5 95h-5Z" style="fill:#b0bac0;stroke:none"/>
        <path d="m36.5 35 3-3 1.5 1.5 3-3 3 3 1.5-1.5 3 3h-2l-.5.5v1l-.5.5-3-3h-3l-3 3-.5-.5v-1l-.5-.5Z" style="stroke:none"/>
        <path d="M37 50.5v-4l2.5-2.5h.5v9.5ZM37 85v-3.5l4-4v-1l.5-.5 1 1h3l1-1 .5.5v1l4 4V85h-1.5L44 90.5 38.5 85Z" style="fill:#989aa4;stroke:none"/>
        <path d="m38 72.5 1.5-1.5 4.5 4.5 4.5-4.5 1.5 1.5-4.5 4.5h-3Z" style="fill:#d06b53;stroke:none"/>
        <path d="M42.5 68h3l3-3 .5.5v5l-.5.5-1-1h-7l-1 1-.5-.5v-5l.5-.5Zm-3 15 4.5 4.5 4.5-4.5-3-3h-3Z" style="fill:#989aa4;stroke:none"/>
        <path d="M40 30.5v-3l2.5-2.5h3l2.5 2.5v3l-4-4Z" style="fill:#d06b53;stroke:none"/>
        <path d="M41 33.5 39.5 32l.5-.5v-1l4-4 4 4v1l.5.5-1.5 1.5-3-3Z" style="fill:#ffa665;stroke:none"/>
        <path d="M40.5 45H40v-4.5l4-4 4 4v5l-4-4Z" style="fill:#d06b53;stroke:none"/>
        <path d="M40 54.5V45h.5l3.5-3.5 4 4v9l-4 4Z" style="fill:#ffa665;stroke:none"/>
        <path d="m44 58.5 4-4v5l-4 4-4-4v-5Z" style="fill:#d06b53;stroke:none"/>
        <path d="m39.5 71 1-1h7l1 1-4.5 4.5Z" style="fill:#ffa665;stroke:none"/>
        <path d="m39.5 83 3-3h3l3 3-4.5 4.5Zm6-58h2L66 43.5v3l-.5.5H64v-1.5L53.5 35h-2L48 31.5v-4Z" style="fill:#b0bac0;stroke:none"/>
        <path d="M47 77.5v-1l-.5-.5 3.5-3.5-1.5-1.5.5-.5V69h4.5l3-3H58v2.5L53.5 73h-3l-.5.5v2l6.5 6.5h3l1-1 5 5h2l7.5-7.5v-2l-7-7 .5-.5h6l5.5 5.5v7L69.5 92h-4L57 83.5 53.5 87l-2-2H51v-3.5Z" style="stroke:none"/>
        <path d="M51 46.5v4l-3 3v-10Z" style="fill:#989aa4;stroke:none"/>
        <path d="M49 12.5v-2l.5-.5h1l.5-.5 7 7v4l-.5.5Z" style="fill:#b0bac0;stroke:none"/>
        <path d="m48.5 37 .5-.5v-1l.5-.5h4L64 45.5V47h-1.5l-7-7h-2L52 41.5l-1-1v-1Zm.5 32v-3.5l-.5-.5 3-3 1 1h3l8.5-8.5v5l-6 6v.5h-1.5l-3 3Z" style="fill:#d06b53;stroke:none"/>
        <path d="M50 75.5v-2l.5-.5h3l4.5-4.5v-3l3-3 3 3v12L59.5 82h-3Z" style="fill:#b0bac0;stroke:none"/>
        <path d="m52 41.5 1.5-1.5h2l7 7H64v7.5L55.5 63h-3l-1-1 6.5-6.5v-8Z" style="fill:#ffa665;stroke:none"/>
        <path d="M53.5 23H53v-4h1.5l.5-.5 4.5 4.5-1 1h-4Z" style="stroke:none"/>
        <path d="m52.5 26 2-2h4l1-1 3 3-.5.5v1L59.5 30h-3Zm2 50 2 2h2l1.5-1.5-3-3Z" style="fill:#b0bac0;stroke:none"/>
        <path d="M58 47.5v4l-3-3v-3l.5-.5Z" style="stroke:none"/>
        <path d="M58 51.5v4l-1 1-2.5-2.5.5-.5v-5ZM54.5 76l2.5-2.5 3 3-1.5 1.5h-2Z" style="fill:#989aa4;stroke:none"/>
        <path d="m56 33.5.5-.5h4l4.5-4.5 3 3-4 4v2l4 4v4l-2 2 1.5 1.5-.5.5v5l1.5 1.5-.5.5v3l-.5.5-3.5-3.5V47h1.5l.5-.5v-3Z" style="stroke:none"/>
        <path d="m61 62.5 3-3v2l5.5 5.5.5-.5v-4L67.5 60l.5-.5v-3l.5-.5 2 2h2l2-2-8.5-8.5 2-2v-4l-4-4v-2l2.5-2.5.5.5v3l4 4v3l-1 1v3l3.5 3.5H77v5.5l-5 5v2l.5.5h.5v1.5l3 3v1l-.5.5-1-1h-6l-3 3H64v-6.5ZM60.5 81l3.5-3.5v-2l3 3-2.5 2.5 2.5 2.5 2.5-2.5 1.5 1.5-3.5 3.5h-2Z" style="fill:#989aa4;stroke:none"/>
        <path d="M70 62.5v4l-.5.5-5.5-5.5v-5Z" style="fill:#b0bac0;stroke:none"/>
        <path d="M64 75.5V72h1.5l3.5 3.5-2.5 2.5Zm.5 5.5 2.5-2.5 2.5 2.5-2.5 2.5Z" style="stroke:none"/>
        <path d="m65.5 72 2.5-2.5 3 3-2.5 2.5ZM67 36.5v-3l-.5-.5 1.5-1.5 6 6v6l3 3V51h-3.5L70 47.5v-3l1-1v-3ZM74.5 56l-2 2h-2L67 54.5v-5l.5-.5Zm-8 22 2.5-2.5.5.5h1l2.5 2.5v1l.5.5-2.5 2.5Z" style="fill:#b0bac0;stroke:none"/>
        <path d="m69.5 76-1-1 2.5-2.5 4 4v2L73.5 80l-.5-.5v-1L70.5 76Z" style="fill:#989aa4;stroke:none"/>
        <path d="m72.5 64-.5-.5v-2l5-5v-10l-2-2 .5-.5h3l4.5 4.5v10L77.5 64Z" style="stroke:none"/>
        <path d="M73 65.5V64h4.5l1.5 1.5v7l-.5.5-3-3 .5-.5v-1Z" style="fill:#b0bac0;stroke:none"/>
    </g>
</svg>
