<svg xmlns="http://www.w3.org/2000/svg" width="128" height="128" style="fill-opacity:1;color-rendering:auto;color-interpolation:auto;text-rendering:auto;stroke:#000;stroke-linecap:square;stroke-miterlimit:10;shape-rendering:auto;stroke-opacity:1;fill:#000;stroke-dasharray:none;font-weight:400;stroke-width:1;font-family:&quot;Dialog&quot;;font-style:normal;stroke-linejoin:miter;font-size:12px;stroke-dashoffset:0;image-rendering:auto">
    <g style="stroke-linecap:round;fill:#fff;stroke:#fff">
        <path stroke="none" d="M40 81.5v-1l4-4 4 4-4.5 4.5Z" style="stroke:none"/>
    </g>
    <g stroke="none" style="stroke-linecap:round;fill:#dcc6c6;stroke:#dcc6c6">
        <path d="m43.5 85 4.5-4.5 2.5 2.5-6.5 6.5-4-4v-4Z" style="stroke:none"/>
        <path d="M55 66.5v-4l4.5-4.5.5.5v13Z" style="fill:#fff;stroke:none"/>
        <path d="M60 71.5v4l-1 1-4-4v-6Z" style="stroke:none"/>
        <path d="M62.5 94h3l4-4 .5.5v3L65.5 98h-3L58 93.5v-3l.5-.5Z" style="fill:#fff;stroke:none"/>
        <path d="M62.5 98h3l4.5-4.5v3l-4.5 4.5h-3L58 96.5v-3Z" style="stroke:none"/>
        <path d="M73 62.5v4l-5 5v-13l.5-.5Z" style="fill:#fff;stroke:none"/>
        <path d="m69 76.5-1-1v-4l5-5v6Zm8.5 6.5 2.5-2.5 4.5 4.5 3.5-3.5v4l-4 4Z" style="stroke:none"/>
        <path d="m80 80.5 4-4 4 4v1L84.5 85Z" style="fill:#fff;stroke:none"/>
    </g>
</svg>
