<svg xmlns="http://www.w3.org/2000/svg" width="48" height="48" style="fill-opacity:1;color-rendering:auto;color-interpolation:auto;text-rendering:auto;stroke:#000;stroke-linecap:square;stroke-miterlimit:10;shape-rendering:auto;stroke-opacity:1;fill:#000;stroke-dasharray:none;font-weight:400;stroke-width:1;font-family:&quot;Dialog&quot;;font-style:normal;stroke-linejoin:miter;font-size:12px;stroke-dashoffset:0;image-rendering:auto">
    <g style="stroke-linecap:round;fill:#b0bac0;stroke:#b0bac0">
        <path stroke="none" d="M8 34.5v-3l7-7 5.5 5.5-7 7h-2l-.5.5Z" style="stroke:none"/>
    </g>
    <g stroke="none" style="stroke-linecap:round;fill:#989aa4;stroke:#989aa4">
        <path d="M10 19.5v-5l3-3 3.5 3.5 3-3h.5v.5l2.5 2.5h3l2.5-2.5V12h.5l3 3 3.5-3.5 3 3v5l-5-5-5.5 5.5-3.5-3.5-3.5 3.5-5.5-5.5Z" style="stroke:none"/>
        <path d="m10 19.5 5-5 5.5 5.5-.5.5V22h-.5L16 25.5Zm1 18 .5-.5h3l5-5 4 4-4 4h-6Z" style="fill:#6e7080;stroke:none"/>
        <path d="M13 11.5 16.5 8h3l.5.5V12h-.5l-3 3Z" style="fill:#b0bac0;stroke:none"/>
        <path d="M14.5 37h-1l7-7-4.5-4.5 3.5-3.5h.5v3.5l4 4 4-4v-4l4 4-4.5 4.5 6.5 6.5v.5h-.5l-5-5-4 4h-1l-4-4Z" style="stroke:none"/>
        <path d="M20.5 23H20v-2.5l4-4 4 4v3l-4-4Z" style="fill:#62ae7f;stroke:none"/>
        <path d="M20 25.5V23h.5l3.5-3.5 4 4v2l-4 4Z" style="fill:#84f491;stroke:none"/>
        <path d="m24.5 36 4-4 5 5h3l.5.5-2.5 2.5h-6Z" style="fill:#6e7080;stroke:none"/>
        <path d="M28.5 12H28V8.5l.5-.5h3l3.5 3.5-3.5 3.5Z" style="fill:#b0bac0;stroke:none"/>
        <path d="M28 21.5v-1l-.5-.5 5.5-5.5 5 5-6 6Z" style="fill:#6e7080;stroke:none"/>
        <path d="m27.5 30 5.5-5.5 7 7v3l-3 3-.5-.5H34v-.5Z" style="fill:#b0bac0;stroke:none"/>
    </g>
</svg>
