<svg xmlns="http://www.w3.org/2000/svg" width="280" height="400" style="fill-opacity:1;color-rendering:auto;color-interpolation:auto;text-rendering:auto;stroke:#000;stroke-linecap:square;stroke-miterlimit:10;shape-rendering:auto;stroke-opacity:1;fill:#000;stroke-dasharray:none;font-weight:400;stroke-width:1;font-family:&quot;Dialog&quot;;font-style:normal;stroke-linejoin:miter;font-size:12px;stroke-dashoffset:0;image-rendering:auto">
    <g style="stroke-linecap:round;fill:#dcc6c6;stroke:#dcc6c6">
        <path stroke="none" d="m60.5 244 8.5-8.5 6 6v6l-4.5-4.5-5.5 5.5Z" style="stroke:none"/>
    </g>
    <g stroke="none" style="stroke-linecap:round;fill:#fff;stroke:#fff">
        <path d="m62.5 183 4-4 3 3 5.5-5.5 4.5 4.5h1l2.5 2.5v3l-1.5 1.5h-3l-5.5-5.5-3.5 3.5h-4Zm2.5 65.5 5.5-5.5 4.5 4.5v4l-1.5 1.5h-4Z" style="stroke:none"/>
        <path d="m66.5 179 7-7h9l1.5 1.5v2l-4 4v1.5h-.5l-4.5-4.5-5.5 5.5Zm19 54 16-16 .5.5v17l-6-6-7.5 7.5Z" style="fill:#dcc6c6;stroke:none"/>
        <path d="m88.5 150 5.5-5.5 6.5 6.5-4 4h-3Zm0 86 7.5-7.5 6 6v1l2 2v2l-3.5 3.5h-5Z" style="stroke:none"/>
        <path d="m94 144.5 3.5-3.5h3l3.5 3.5v3l-3.5 3.5Zm1.5 54.5 4-4 5 5-3 3h-2Z" style="fill:#dcc6c6;stroke:none"/>
        <path d="m99.5 195 4-4h2l4 4-5 5ZM118 298.5v-9l2.5-2.5h6l13.5 13.5 13.5-13.5h6l2.5 2.5v9l-12 12v6l-4 4v4l-6 6-6-6v-4l-4-4v-6Z" style="stroke:none"/>
        <path d="M130 310.5v6l4 4v4l6 6 6-6v-4l4-4v-6l12-12v18l-11 11v5l-9.5 9.5h-3l-9.5-9.5v-5l-11-11v-18Zm-5-139v-5l3.5-3.5 5 5-.5.5v8l-.5.5h-2Z" style="fill:#dcc6c6;stroke:none"/>
        <path d="m128.5 163 3.5-3.5v-1l8-8 8 8v1l3.5 3.5-5 5-5-5h-3l-5 5Z" style="stroke:none"/>
        <path d="M132 158.5v-6l6.5-6.5h3l6.5 6.5v6l-8-8Zm3 64v-10l5-5 5 5v10l-5-5Z" style="fill:#dcc6c6;stroke:none"/>
        <path d="M135 230.5v-8l5-5 5 5v8l-5 5Z" style="stroke:none"/>
        <path d="m147.5 177-.5-.5v-8l-.5-.5 5-5 3.5 3.5v5l-5.5 5.5Z" style="fill:#dcc6c6;stroke:none"/>
        <path d="m170.5 195 4-4h2l4 4-5 5Z" style="stroke:none"/>
        <path d="M176 147.5v-3l3.5-3.5h3l3.5 3.5-6.5 6.5Zm-.5 52.5 5-5 4 4-4 4h-2Z" style="fill:#dcc6c6;stroke:none"/>
        <path d="M176 239.5v-2l2-2v-1l6-6 7.5 7.5-7 7h-5Z" style="stroke:none"/>
        <path d="m194.5 233-3 3-7.5-7.5-6 6v-17l.5-.5Z" style="fill:#dcc6c6;stroke:none"/>
        <path d="m179.5 151 6.5-6.5 5.5 5.5-5 5h-3Z" style="stroke:none"/>
        <path d="M196 175.5v-2l1.5-1.5h9l7 7-3 3-5.5-5.5-4.5 4.5h-.5v-1.5Z" style="fill:#dcc6c6;stroke:none"/>
        <path d="M197 186.5v-3l2.5-2.5h1l4.5-4.5 5.5 5.5 3-3 4 4-3 3h-4l-3.5-3.5-5.5 5.5h-3Z" style="stroke:none"/>
        <path d="M205 247.5v-6l6-6 8.5 8.5-4.5 4.5-5.5-5.5Z" style="fill:#dcc6c6;stroke:none"/>
        <path d="M205 251.5v-4l4.5-4.5 5.5 5.5-4.5 4.5h-4Z" style="stroke:none"/>
    </g>
</svg>
