<svg xmlns="http://www.w3.org/2000/svg" width="258" height="366" style="fill-opacity:1;color-rendering:auto;color-interpolation:auto;text-rendering:auto;stroke:#000;stroke-linecap:square;stroke-miterlimit:10;shape-rendering:auto;stroke-opacity:1;fill:#000;stroke-dasharray:none;font-weight:400;stroke-width:1;font-family:&quot;Dialog&quot;;font-style:normal;stroke-linejoin:miter;font-size:12px;stroke-dashoffset:0;image-rendering:auto">
    <g style="stroke-linecap:round;fill:#989aa4;stroke:#989aa4">
        <path stroke="none" d="M5 129.5v-2l3-3 7 7v2l-3 3Z" style="stroke:none"/>
    </g>
    <g stroke="none" style="stroke-linecap:round;fill:#6e7080;stroke:#6e7080">
        <path d="M5 176.5v-11l2.5-2.5.5.5v5l6.5 6.5h7l18-18h3L56 143.5v-23l3-3v-6l7-7v-10l7 7v8l-6 6v23l2.5 2.5h16l3-3H99v6h-3v-.5l-3-3-3 3v1l2 2v.5H76.5l-4 4h-8l-10 10h-3l-23 23h-7l-4.5 4.5Z" style="stroke:none"/>
        <path d="M6 122.5v-9l12-12v-25l22-22v-4L50.5 40h4l4.5 4.5v73l-3 3v23l-7.5 7.5-9-9h-2l-4.5 4.5v2l8.5 8.5h-2l-18 18h-7L8 168.5v-5l-.5-.5 7.5-7.5v-24Z" style="fill:#b0bac0;stroke:none"/>
        <path d="m8.5 206 4-4 9.5 9.5v2l-3 3Z" style="fill:#989aa4;stroke:none"/>
        <path d="M11 115.5v2l4.5 4.5.5-.5v-10l-.5-.5Z" style="fill:#b0bac0;stroke:none"/>
        <path d="m11.5 118-.5-.5v-2l4.5-4.5.5.5v2Z" style="stroke:none"/>
        <path d="m10.5 324 9-9 1.5 1.5v9l-4.5 4.5Zm1-206 4.5-4.5v8l-.5.5Z" style="fill:#989aa4;stroke:none"/>
        <path d="M12 201.5v-3l3-3L33.5 214h5l9 9h4l.5-.5 1.5 1.5h1l7.5 7.5-6.5 6.5h-2l-2.5 2.5v3l-3-3v-5L37.5 225l-.5.5v4L21.5 214l.5-.5v-2Z" style="stroke:none"/>
        <path d="m15 164.5 5.5 5.5 4.5-4.5-5.5-5.5Z" style="fill:#b0bac0;stroke:none"/>
        <path d="M14 352.5v-10l3-3v-9l-.5-.5 4.5-4.5v-18l4-4v-7l2.5-2.5 12 12h3l3-3h4l7.5 7.5-.5.5h-4l-2.5 2.5L60.5 324 50 334.5v2l4.5 4.5 14-14h7l6-6-4-4h-4l-.5-.5 5.5-5.5h6l7 7h3l-6.5 6.5v3l5.5 5.5h2l8.5-8.5v-4l-3-3 11.5-11.5 11.5 11.5v22l-13 13v3l-6 6L79.5 336h-4l-23 23h-4L36 346.5 24.5 358h-5Z" style="stroke:none"/>
        <path d="m15 164.5 4.5-4.5 3 3-4.5 4.5Z" style="fill:#989aa4;stroke:none"/>
        <path d="M15 195.5v-5l6.5-6.5h7l23-23h1l3 3h3l6-6h5l2.5-2.5V151h.5l4-4h4l5 5h3l3.5-3.5V147h1.5l2.5-2.5v-.5h3v5.5l3 3-.5.5h-3l-4.5 4.5v4l4.5 4.5h3l4.5-4.5v-5l-2-2 .5-.5h1l8-8 .5.5v4l5 5-.5.5h-1l-3.5 3.5v2l-2.5-2.5-3.5 3.5 2.5 2.5-9 9h-3l-1 1-11-11h-1l-.5-.5 6.5-6.5-3-3h-2l-2.5 2.5-3-3-4.5 4.5 3 3-11 11h-7l-8.5 8.5 6.5 6.5h5l7.5-7.5V175h1.5l7-7 6.5 6.5v4l-2 2-.5-.5h-1l-3 3 3 3h3l4-4 .5.5v6l-5 5-3.5-3.5h-3l-4-4h-3L60 198.5v3l2.5 2.5h3l-3.5 3.5v5L51.5 223h-4l-9-9h-5L45 202.5v-2l-2-2L30.5 211l-3-3L39 196.5v-2l-2-2L24.5 205l-3-3L32 191.5v-2l-2-2L18.5 199Z" style="fill:#b0bac0;stroke:none"/>
        <path d="m18 167.5 4.5-4.5 2.5 2.5-4.5 4.5Z" style="stroke:none"/>
        <path d="M20 133.5v5l4.5 4.5 5.5-5.5v-3l-5.5-5.5Z" style="fill:#b0bac0;stroke:none"/>
        <path d="m18.5 199 9-9 3 3-9 9Zm1.5-60.5v-5l4.5-4.5 5.5 5.5v3l-5.5 5.5Z" style="fill:#989aa4;stroke:none"/>
        <path d="m21 152.5 5 5 4.5-4.5-5-5Z" style="fill:#b0bac0;stroke:none"/>
        <path d="M21 335.5v7l2.5 2.5h2l7.5-7.5v-7l-2.5-2.5h-2Z" style="stroke:none"/>
        <path d="m21 152.5 4.5-4.5 2.5 2.5-4.5 4.5Zm0 190v-7l7.5-7.5h2l2.5 2.5v7l-7.5 7.5h-2Z" style="fill:#989aa4;stroke:none"/>
        <path d="M24 101.5v17L44.5 139h2l3.5-3.5v-9L33.5 110H33v-7.5L29.5 99h-3Z" style="fill:#b0bac0;stroke:none"/>
        <path d="m23.5 288-.5-.5v-23l4.5-4.5 3.5 3.5 5.5-5.5 2 2h2L51 249.5v7l-2 2v12l5.5 5.5h3l2-2h1L79 255.5v-2l-7.5-7.5h-5l7.5-7.5-5.5-5.5 6.5-6.5v-4l4-4v-4l-4.5-4.5h-3l-8.5 8.5v2l-4.5-4.5 3.5-3.5v-5l3.5-3.5h19l3.5 3.5v4l5 5v6l.5.5-1.5 1.5v2l-8 8v16l8 8v5l4.5 4.5H98v12.5l3.5 3.5-3.5 3.5v2l2.5 2.5h6.5v4h-9.5l-5 5h-14l-6-6h-3l3.5-3.5v-2l3.5 3.5h2l3.5-3.5v-14l-5.5-5.5h-4l-3 3h-2L56 284.5v4l6.5 6.5h-10l-8-8 2.5-2.5V283h1.5l4-4-6-6h-1l-1-1h-5Z" style="stroke:none"/>
        <path d="M24 117.5v-16l2.5-2.5h3l3.5 3.5v7.5h-1.5Z" style="fill:#989aa4;stroke:none"/>
        <path d="M24 118.5v-1l7.5-7.5h2l6 6-9 9Zm-.5 36.5 4.5-4.5 2.5 2.5-4.5 4.5Z" style="stroke:none"/>
        <path d="m24.5 205 10-10 3 3-10 10Zm1.5 46.5v-2l7-7 4 4v2l-7 7Z" style="fill:#989aa4;stroke:none"/>
        <path d="M28 75.5v4l.5.5 5.5-5.5v-4l-.5-.5Z" style="fill:#b0bac0;stroke:none"/>
        <path d="m28.5 80-.5-.5v-4l5.5-5.5.5.5v4Z" style="fill:#989aa4;stroke:none"/>
        <path d="M29 86.5v3l3.5 3.5h13l2.5-2.5v-8l-.5-.5 3.5-3.5v-3L46.5 71h-2Z" style="fill:#b0bac0;stroke:none"/>
        <path d="m27.5 190 2.5-2.5 2 2v2l-1.5 1.5Z" style="stroke:none"/>
        <path d="m27.5 260 .5-.5v-2l9-9v-23l.5-.5L48 235.5v11l-17 17Z" style="fill:#b0bac0;stroke:none"/>
        <path d="M28 288.5v-4l-.5-.5 12-12h5l.5.5-3 3v2l5 5v2l-2.5 2.5-4-4h-7Z" style="fill:#989aa4;stroke:none"/>
        <path d="m27.5 294 .5-.5v-5l5.5-5.5h7l12 12h20l6 6h14l5-5h10l4.5 4.5v5l.5.5-12 12h-9l-7-7h-6l-8 8h-5l-16-16h-4l-3 3h-3Z" style="fill:#b0bac0;stroke:none"/>
        <path d="M29 311.5v3l2.5 2.5h3l3.5-3.5v-2l-2.5-2.5h-4Zm0-222v-3L44.5 71h2l4.5 4.5v3L36.5 93h-4Z" style="stroke:none"/>
        <path d="M29 314.5v-3l2.5-2.5h4l2.5 2.5v2l-3.5 3.5h-3Z" style="fill:#989aa4;stroke:none"/>
        <path d="m31 171.5 2.5 2.5 7.5-7.5-2.5-2.5Z" style="stroke:none"/>
        <path d="m30.5 125 9-9 4 4-9 9Zm.5 46.5 7.5-7.5 2.5 2.5-7.5 7.5Zm-.5 39.5 10-10 3 3-10 10Zm2.5-62.5v-2l4.5-4.5h2l9 9-6 6h-1Z" style="fill:#989aa4;stroke:none"/>
        <path d="m35 295.5 3.5 3.5 6.5-6.5-3.5-3.5Z" style="fill:#b0bac0;stroke:none"/>
        <path d="m34.5 129 9-9 6.5 6.5v9l-3.5 3.5h-2Zm0 66 2.5-2.5 2 2v2l-1.5 1.5Z" style="stroke:none"/>
        <path d="m35 295.5 3.5-3.5 3.5 3.5-3.5 3.5Z" style="fill:#989aa4;stroke:none"/>
        <path d="M36 325.5v5l4.5 4.5h3l7.5-7.5v-2l-2.5-2.5h-1l-3-3h-3Z" style="stroke:none"/>
        <path d="M36 330.5v-5l5.5-5.5h3l2.5 2.5-9.5 9.5ZM36.5 93l11-11 .5.5v7L45.5 87 42 90.5l2.5 2.5Zm0 165L48 246.5v-6l3 3v6L40.5 260h-2Z" style="fill:#989aa4;stroke:none"/>
        <path d="M39 186.5v2l7.5 7.5h3l3.5-3.5v-4l-6.5-6.5h-3ZM37.5 332l9.5-9.5.5.5h1l2.5 2.5v2l-7.5 7.5h-3ZM40 104.5v2l10 10 3-3v-3l-8.5-8.5h-2Z" style="fill:#b0bac0;stroke:none"/>
        <path d="M39 188.5v-2l4.5-4.5h3l6.5 6.5v4l-3.5 3.5h-3ZM38.5 292l3-3 3.5 3.5-3 3Z" style="stroke:none"/>
        <path d="M40 106.5v-2l2.5-2.5h2l8.5 8.5v3l-3 3Z" style="fill:#989aa4;stroke:none"/>
        <path d="M42 64.5v3l.5.5 4.5-4.5v-3l-.5-.5Z" style="fill:#b0bac0;stroke:none"/>
        <path d="m40.5 201 2.5-2.5 2 2v2l-1.5 1.5Z" style="stroke:none"/>
        <path d="m42.5 68-.5-.5v-3l4.5-4.5.5.5v3Z" style="fill:#989aa4;stroke:none"/>
        <path d="m42 90.5 3.5-3.5 2.5 2.5v1L45.5 93h-1Z" style="stroke:none"/>
        <path d="M42 277.5v-2l3-3 .5.5h1l6 6-4 4H47v-.5Z" style="fill:#62ae7f;stroke:none"/>
        <path d="m44 212.5 2.5 2.5 3.5-3.5-2.5-2.5Zm1-38 2.5 2.5 4.5-4.5-2.5-2.5Z" style="fill:#b0bac0;stroke:none"/>
        <path d="m44 212.5 3.5-3.5 2.5 2.5-3.5 3.5Zm1-38 4.5-4.5 2.5 2.5-4.5 4.5Z" style="fill:#989aa4;stroke:none"/>
        <path d="M49 270.5v-12l2-2v-16l2.5-2.5h2l8 8h8l7.5 7.5v2l-3 3-.5-.5h-2l-8.5-8.5-3 3-6-6-1 1v20l5 5v1.5h-.5l-2 2h-3Z" style="fill:#62ae7f;stroke:none"/>
        <path d="m51 206.5 6 6 3.5-3.5-6-6Z" style="fill:#b0bac0;stroke:none"/>
        <path d="m50 313.5 2.5-2.5h4l.5-.5 8.5 8.5h5l2.5-2.5.5.5h4l4 4-6 6h-7l-14 14-4.5-4.5v-2L60.5 324Z" style="fill:#989aa4;stroke:none"/>
        <path d="m51 206.5 3.5-3.5 2.5 2.5-3.5 3.5Z" style="stroke:none"/>
        <path d="m52 222.5 6.5-6.5 4.5 4.5v10l-1 1-7.5-7.5h-1Zm.5-61.5h2l10-10H72v4.5l-2.5 2.5h-5l-6 6h-3Z" style="fill:#989aa4;stroke:none"/>
        <path d="m53 180.5 8.5-8.5h7l.5-.5 3 3v1.5h-6.5l-8.5 8.5Z" style="stroke:none"/>
        <path d="m53.5 209 3.5-3.5 2 2-3.5 3.5Z" style="fill:#62ae7f;stroke:none"/>
        <path d="M55 267.5v-20l1-1 6 6 3-3 8.5 8.5h2l.5.5L60.5 274H60v-1.5Zm2-55-1.5-1.5 3.5-3.5 1.5 1.5Z" style="fill:#84f491;stroke:none"/>
        <path d="m55.5 238 7.5-7.5v-12l8.5-8.5h3l4.5 4.5v4l-4 4v4l-6.5 6.5 5.5 5.5-7.5 7.5h-3Z" style="fill:#b0bac0;stroke:none"/>
        <path d="M56 288.5v-4l3.5-3.5 8 8H73v2.5l-3.5 3.5h-7Z" style="fill:#62ae7f;stroke:none"/>
        <path d="m57 184.5 8.5-8.5H72v3.5l-7.5 7.5h-5Z" style="fill:#989aa4;stroke:none"/>
        <path d="M59 134.5v5l.5.5 3.5-3.5v-5l-.5-.5Z" style="stroke:none"/>
        <path d="m59.5 140-.5-.5v-5l3.5-3.5.5.5v5Z" style="fill:#989aa4;stroke:none"/>
        <path d="M60 201.5v-3l4-4 .5.5h4l5-5h9l3.5 3.5v4l-2.5-2.5h-7l-9 9h-5Z" style="fill:#62ae7f;stroke:none"/>
        <path d="m59.5 281 8-8h2l3.5 3.5V289h-5.5Z" style="fill:#84f491;stroke:none"/>
        <path d="m64.5 195-.5-.5 8.5-8.5h3l4 4h-6l-5 5Z" style="fill:#989aa4;stroke:none"/>
        <path d="m65 311.5 3.5 3.5 7.5-7.5-3.5-3.5Z" style="fill:#b0bac0;stroke:none"/>
        <path d="M65 68.5v-11l7-7 3.5 3.5-5.5 5.5v5l7 7-2.5 2.5h-4Z" style="stroke:none"/>
        <path d="m65 311.5 4.5-4.5 3.5 3.5-4.5 4.5Z" style="fill:#989aa4;stroke:none"/>
        <path d="M66 92.5v-5L80.5 73h2l1.5 1.5-3 3v1l.5.5-6.5 6.5 5.5 5.5h1l2.5 2.5 7-7-3.5-3.5 2.5-2.5 3.5 3.5 7.5-7.5 4 4-8.5 8.5h-5l-5 5h-4l-2 2h-3l-6-6h-3Z" style="stroke:none"/>
        <path d="M66 94.5v-2l2.5-2.5h3l6 6h3l2-2h4l5-5h5l9.5-9.5v-8l-3-3 3-3v-6l-3-3 3-3v-6l-3-3 3-3v-6l-2.5-2.5h-2L90 44.5 88.5 43h-2L80 49.5l2.5 2.5 1.5-1.5 3.5 3.5-5 5h-4L77 60.5v11l-7-7v-5l5.5-5.5-3.5-3.5-1.5 1.5-.5-.5v-13L103.5 5h2l4.5 4.5v17l4 4v24l4 4v29l6 6v6l2.5 2.5h5l2.5-2.5v-6l6-6v-29l4-4v-24l4-4v-17l4.5-4.5h2L188 38.5v13l-.5.5-1.5-1.5-3.5 3.5 5.5 5.5v5l-7 7v-11l-1.5-1.5h-4l-5-5 3.5-3.5 1.5 1.5 2.5-2.5-6.5-6.5h-2l-1.5 1.5L156.5 33h-2l-2.5 2.5v6l3 3-3 3v6l3 3-3 3v6l3 3-3 3v8l9.5 9.5h5l5 5h4l2 2h3l6-6h3l2.5 2.5v2l-7 7v8l6 6v5l-3.5-3.5h-3l-.5.5-13-13 2.5-2.5-3-3h-6l-8-8h-3l-3-3h-2l-4.5 4.5v5l-4 4v2l.5.5h5l6 6h11l6 6h6l.5-.5 11.5 11.5h2l2.5-2.5v5l-5.5 5.5 4.5 4.5-1.5 1.5h-16l-3-3H159v-2h1.5l3-3-14-14-2.5 2.5v1l-.5.5-.5-.5v-5l-5.5-5.5h-2l-1.5 1.5v19l-4.5-4.5h-7l-4.5 4.5v-19l-1.5-1.5h-2l-5.5 5.5v5l-.5.5-.5-.5v-1l-2.5-2.5-14 14 3 3H99v2H88.5l-3 3h-16l-1.5-1.5 4.5-4.5-5.5-5.5v-5l2.5 2.5h2L83 115.5l.5.5h6l6-6h11l6-6h5l.5-.5v-2l-4-4v-5l-4.5-4.5h-2l-3 3h-3l-8 8h-6l-3 3 2.5 2.5-13 13-.5-.5h-3l-3.5 3.5v-5l6-6v-8Z" style="fill:#b0bac0;stroke:none"/>
        <path d="M67 124.5v-4l3.5-3.5h3l.5.5-2 2 3.5 3.5-4 4h-2Zm5.5 10.5-4.5 4.5-1-1v-9Z" style="fill:#989aa4;stroke:none"/>
        <path d="m67.5 204 9-9h7l2.5 2.5v3.5h-.5l-3 3Z" style="fill:#84f491;stroke:none"/>
        <path d="M70.5 74h4l.5-.5 2.5 2.5-8 8-.5-.5v-10l.5-.5Z" style="fill:#b0bac0;stroke:none"/>
        <path d="m69 171.5 3.5-3.5 4 4-3 3H72v-.5Z" style="fill:#62ae7f;stroke:none"/>
        <path d="m69.5 273 3-3h4l5.5 5.5v9l-2.5 2.5h-3l-3.5-3.5v-7Z" style="fill:#b0bac0;stroke:none"/>
        <path d="m69.5 307 3-3 3.5 3.5-3 3Z" style="stroke:none"/>
        <path d="m72 119.5 3.5-3.5 3.5 3.5-3.5 3.5Z" style="fill:#62ae7f;stroke:none"/>
        <path d="m72.5 168 2.5-2.5 4 4-2.5 2.5Z" style="stroke:none"/>
        <path d="M76.5 287h3l2.5-2.5v5l-3.5 3.5h-2l-3.5-3.5v-6ZM75 73.5l2-2v-11l1.5-1.5h3l-4 4 6.5 6.5 4-4 .5.5h1l1.5 1.5-7 7-1.5-1.5h-2l-3 3Z" style="fill:#989aa4;stroke:none"/>
        <path d="m75 85.5 4.5-4.5 3.5 3.5-4.5 4.5Z" style="fill:#b0bac0;stroke:none"/>
        <path d="m75 165.5 3.5-3.5 4 4-3.5 3.5Z" style="fill:#62ae7f;stroke:none"/>
        <path d="m76.5 39 4.5 4.5L91.5 33 87 28.5Z" style="fill:#b0bac0;stroke:none"/>
        <path d="m75.5 116 2.5-2.5 3.5 3.5-2.5 2.5Z" style="stroke:none"/>
        <path d="M76.5 39 87 28.5l4.5 4.5L81 43.5Zm0 119 4.5-4.5 3 3-4.5 4.5Z" style="fill:#989aa4;stroke:none"/>
        <path d="m77.5 63 4-4h1l8.5-8.5-3.5-3.5-5 5-2.5-2.5 6.5-6.5h2l5 5 7.5-7.5 3 3-1.5 1.5h-1L90 56.5l3.5 3.5 7.5-7.5 3 3-1.5 1.5h-1L91 67.5 89.5 66h-1l-.5-.5 3-3-3.5-3.5-7 7Z" style="stroke:none"/>
        <path d="m78 113.5 3.5-3.5 3.5 3.5-3.5 3.5Z" style="fill:#62ae7f;stroke:none"/>
        <path d="M79 128.5v2l2.5 2.5h4l6.5-6.5v-2l-2.5-2.5h-4Z" style="fill:#b0bac0;stroke:none"/>
        <path d="m78.5 89 4.5-4.5-3.5-3.5 2-2 2.5 2.5 4-4 .5.5h1l1.5 1.5-10 10V91h-.5Zm.5 41.5v-2l6.5-6.5h4l2.5 2.5v2l-6.5 6.5h-4Z" style="fill:#989aa4;stroke:none"/>
        <path d="m78.5 162 8-8h2l3 3-9 9Z" style="fill:#84f491;stroke:none"/>
        <path d="m81 224.5 3.5 3.5 3.5-3.5-3.5-3.5Z" style="stroke:none"/>
        <path d="m80.5 66 3.5-3.5 3.5 3.5-3.5 3.5Zm.5 12.5v-1l3-3 3.5 3.5-3.5 3.5Zm.5 12.5H81v-1.5l3-3 3.5 3.5-3.5 3.5Z" style="fill:#b0bac0;stroke:none"/>
        <path d="M80.5 147H92v1.5l-3.5 3.5h-3Z" style="fill:#989aa4;stroke:none"/>
        <path d="m80.5 168 4.5-4.5.5.5h1l6.5 6.5-4.5 4.5H87v-.5Z" style="stroke:none"/>
        <path d="m80.5 183 1.5-1.5 3.5 3.5-1 1h-1Z" style="fill:#84f491;stroke:none"/>
        <path d="m81 224.5 3.5-3.5 3.5 3.5-3.5 3.5Z" style="fill:#b0bac0;stroke:none"/>
        <path d="m81.5 110 8-8h2l2.5 2.5-9 9Z" style="fill:#84f491;stroke:none"/>
        <path d="m82 181.5 1.5-1.5h1l3 3-2 2Z" style="fill:#62ae7f;stroke:none"/>
        <path d="m83.5 116-.5-.5 11-11-2.5-2.5h9l9-9h4.5v4.5l4 4v2l-.5.5h-5l-6 6h-11l-6 6Z" style="stroke:none"/>
        <path d="m82.5 204 3-3h1l4.5-4.5v17l-.5.5-2.5-2.5v-4l-3.5-3.5Z" style="fill:#b0bac0;stroke:none"/>
        <path d="m84 50.5 3.5-3.5 3.5 3.5-3.5 3.5Zm0 12 3.5-3.5 3.5 3.5-3.5 3.5Zm0 12 3.5-3.5 3.5 3.5-3.5 3.5Zm0 12 3.5-3.5 3.5 3.5-3.5 3.5Zm0 151v-3l2-2 6 6-3.5 3.5Z" style="fill:#62ae7f;stroke:none"/>
        <path d="m86.5 240-.5.5v7l2.5 2.5h5l3.5-3.5v9l4 4-3 3-2.5-2.5h-2l-1.5 1.5v-3l-8-8v-13Z" style="fill:#989aa4;stroke:none"/>
        <path d="M85 288.5v2l2.5 2.5h3l3.5-3.5v-2l2-2v-8l-2.5-2.5h-4l-2.5 2.5v8l.5.5Z" style="stroke:none"/>
        <path d="m84.5 102 3-3h6l8-8h3l3-3h2l4.5 4.5v.5h-4.5l-9 9h-11l-2.5 2.5Zm.5 78.5 2-2V175h1.5l4.5-4.5 4.5 4.5-11 11h-2l3-3Zm0 110v-2l2.5-2.5 2 2H94v1.5l-3.5 3.5h-3Z" style="fill:#989aa4;stroke:none"/>
        <path d="M86.5 201H86v-7.5l5-5v8Z" style="stroke:none"/>
        <path d="m86 232.5 3-3 4 4 2.5-2.5 1.5 1.5v11Z" style="fill:#b0bac0;stroke:none"/>
        <path d="m92 245.5 3.5-3.5 1.5 1.5v3l-3.5 3.5h-5l-2.5-2.5v-7l.5-.5Z" style="stroke:none"/>
        <path d="M87 285.5v-8l2.5-2.5h4l2.5 2.5v8l-2 2v.5h-4.5Z" style="fill:#b0bac0;stroke:none"/>
        <path d="m87.5 71 2.5-2.5 3.5 3.5 7.5-7.5 3 3-1.5 1.5h-1L91 79.5 89.5 78h-1l-.5-.5 3-3Z" style="stroke:none"/>
        <path d="M88 327.5v-3l6.5-6.5h6l.5-.5 3 3v4l-8.5 8.5h-2Zm1-98 2.5-2.5 4 4-2.5 2.5Z" style="fill:#989aa4;stroke:none"/>
        <path d="m88.5 242 3.5-3.5 3.5 3.5-3.5 3.5Z" style="fill:#84f491;stroke:none"/>
        <path d="m90 44.5 3.5-3.5 3.5 3.5-3.5 3.5Zm0 12 3.5-3.5 3.5 3.5-3.5 3.5Zm0 12 3.5-3.5 3.5 3.5-3.5 3.5Zm0 12 3.5-3.5 3.5 3.5-3.5 3.5Zm0 63.5v-.5l3-3 3 3v.5Z" style="fill:#62ae7f;stroke:none"/>
        <path d="M90 144.5v-.5h6v.5l-2.5 2.5H92v-.5Z" style="fill:#84f491;stroke:none"/>
        <path d="M91 200.5v-18l-.5-.5 8-8h3l12.5-12.5v-2l3.5-3.5h1l.5-.5 3 3v.5h-1.5l-3.5 3.5v10l-7.5 7.5h-2L97 190.5v4Z" style="fill:#62ae7f;stroke:none"/>
        <path d="m90.5 214 .5-.5v-13l6-6v-4l10.5-10.5h2l7.5-7.5v-10l3.5-3.5h1.5v24.5l-20 20v7l-6.5 6.5H93v-.5Z" style="fill:#84f491;stroke:none"/>
        <path d="m91.5 227 .5-.5v-2l17-17v-10l-.5-.5 13.5-13.5v-11l5.5-5.5h3l5.5 5.5v11l13.5 13.5-.5.5v10l17 17v2l.5.5-2.5 2.5-21-21v-9l-1-1v-1l-3.5-3.5h-3l-1 1-5.5-5.5-5.5 5.5-1-1h-3l-3.5 3.5v1l-1 1v9l-21 21Z" style="fill:#b0bac0;stroke:none"/>
        <path d="M92 263.5v-2l1.5-1.5h2l2 2-3.5 3.5Z" style="fill:#84f491;stroke:none"/>
        <path d="m93.5 223-.5-.5V217h2.5l6.5-6.5v-7l6.5-6.5.5.5v10Z" style="fill:#989aa4;stroke:none"/>
        <path d="m94 307.5 3.5 3.5 3.5-3.5-3.5-3.5Z" style="fill:#b0bac0;stroke:none"/>
        <path d="m93.5 41 8-8h2l2.5 2.5-9 9Zm0 12 8-8h1l.5-.5 3 3-9 9Zm0 12 8-8h1l.5-.5 3 3-9 9Zm0 12 8-8h1l.5-.5 3 3-9 9Z" style="fill:#84f491;stroke:none"/>
        <path d="M94 161.5v-4l4.5-4.5h3l.5-.5 4 4v5l-4.5 4.5h-3Z" style="stroke:none"/>
        <path d="m94 229.5 21-21v-9l1-1v-1l3.5-3.5h3l1 1-3.5 3.5v18l-7.5 7.5-.5-.5v-2l-1-1-5 5v5l-3 3v5l-5.5 5.5H97v-11.5Zm0 36 3.5-3.5 3 3-2.5 2.5v.5h-1.5Z" style="fill:#62ae7f;stroke:none"/>
        <path d="m94 307.5 2-2 3.5 3.5-2 2Z" style="fill:#989aa4;stroke:none"/>
        <path d="m94.5 133 8-8 .5.5v5l.5.5-4.5 4.5v.5h-1.5Z" style="stroke:none"/>
        <path d="m96.5 26 6 6 4-4-5-5h-2Z" style="fill:#b0bac0;stroke:none"/>
        <path d="m96 305.5 1.5-1.5 3.5 3.5-1.5 1.5Z" style="stroke:none"/>
        <path d="m96.5 26 3-3h2l5 5-4 4Z" style="fill:#989aa4;stroke:none"/>
        <path d="M97 255.5V244h.5l5.5-5.5v-5l3-3v-5l5-5 1 1v2l.5.5 7.5-7.5v-18l3.5-3.5.5.5v29l-19 19v12l-4 4Z" style="fill:#84f491;stroke:none"/>
        <path d="m98 262.5 7-7v-12l19-19v-5l5 5 5-5v5l19 19v12l7 7-4 4v12l-5 5v6l-3 3v1L136.5 305h-15L110 293.5v-1l-3-3v-6l-5-5v-12Z" style="stroke:none"/>
        <path d="M98 280.5v-13l2.5-2.5 1.5 1.5v12l5 5v1.5h-4.5Z" style="fill:#b0bac0;stroke:none"/>
        <path d="M98 289.5v-2l3.5-3.5 1 1h4.5v7h-6.5Z" style="fill:#989aa4;stroke:none"/>
        <path d="m98.5 346 4 4 10.5-10.5v-2l-3-3Z" style="stroke:none"/>
        <path d="M99 143v-7.5l13-13v-5l4.5-4.5.5.5v13l-4 4v4l-8.5 8.5Z" style="fill:#62ae7f;stroke:none"/>
        <path d="M99 149.5V143h5.5l8.5-8.5v-4l4-4v-13l-.5-.5 1-1h2l1.5 1.5v25L105.5 154h-1l-.5.5Z" style="fill:#84f491;stroke:none"/>
        <path d="m98.5 346 11.5-11.5 3 3v2L102.5 350ZM101 40.5l5-5v6l-2 2Zm0 12 5-5v6l-2 2Zm0 12 5-5v6l-2 2Zm0 12 5-5v8l-1 1Zm2.5 54.5-.5-.5v-5l-.5-.5 6-6 2.5 2.5v1l.5.5Z" style="fill:#989aa4;stroke:none"/>
        <path d="M108 278.5v2l7 7 4-4-8-8Zm0-116 3.5-3.5 2.5 2.5-3.5 3.5Z" style="stroke:none"/>
        <path d="M108 280.5v-2l3-3 8 8-4 4Z" style="fill:#989aa4;stroke:none"/>
        <path d="M112 243.5v25l10.5 10.5h13l10.5-10.5v-25l-17-17Z" style="stroke:none"/>
        <path d="M112 252.5v-9l17-17 17 17v9l-3.5-3.5h-3L129 259.5 118.5 249h-3Z" style="fill:#b0bac0;stroke:none"/>
        <path d="M112 268.5v-16l3.5-3.5h3l10.5 10.5 10.5-10.5h3l3.5 3.5v16L135.5 279h-13Zm-.5 83.5 9.5-9.5 4 4-9.5 9.5Z" style="fill:#989aa4;stroke:none"/>
        <path d="m114 265.5 9.5 9.5 3-3h5l3 3 9.5-9.5-3-3v-2l-2.5-2.5h-2l-7.5 7.5-7.5-7.5h-2l-2.5 2.5v2Zm0-115v-4l-.5-.5 7.5-7.5v-6l4.5-4.5h7l4.5 4.5v6l7.5 7.5-.5.5v4l-8 8v14l-5.5-5.5h-3l-5.5 5.5v-14Z" style="fill:#989aa4;stroke:none"/>
        <path d="m114 265.5 3-3 9.5 9.5-3 3Z" style="stroke:none"/>
        <path d="M117 262.5v-2l2.5-2.5h2l7.5 7.5 7.5-7.5h2l2.5 2.5v2l-9.5 9.5h-5Z" style="fill:#b0bac0;stroke:none"/>
        <path d="M121 148.5v4l2.5 2.5h11l2.5-2.5v-4l-6.5-6.5h-3Z" style="fill:#989aa4;stroke:none"/>
        <path d="m121 243.5 3.5 3.5 2.5-2.5-3.5-3.5Z" style="fill:#b0bac0;stroke:none"/>
        <path d="m122 153.5-1-1v-4l6.5-6.5h3l6.5 6.5v4l-1 1-7-7Z" style="fill:#62ae7f;stroke:none"/>
        <path d="m121 243.5 2.5-2.5 3.5 3.5-2.5 2.5Zm.5 47.5 3 3h9l3-3-6-6h-3Z" style="stroke:none"/>
        <path d="m122.5 111 6.5 6.5 6.5-6.5-5-5h-3Z" style="fill:#b0bac0;stroke:none"/>
        <path d="m122 153.5 7-7 7 7-1.5 1.5h-11Z" style="fill:#84f491;stroke:none"/>
        <path d="m121.5 291 6-6h3l6 6-3 3h-9Z" style="fill:#989aa4;stroke:none"/>
        <path d="m122.5 111 5-5h3l5 5-6.5 6.5Z" style="stroke:none"/>
        <path d="M124 206.5v-11l-.5-.5 5.5-5.5 5.5 5.5-.5.5v11l-3.5-3.5h-3Z" style="fill:#989aa4;stroke:none"/>
        <path d="M124 219.5v-13l3.5-3.5h3l3.5 3.5v13l-5 5Z" style="fill:#b0bac0;stroke:none"/>
        <path d="M126 159.5v2l3 3 3-3v-2l-3-3Z" style="fill:#989aa4;stroke:none"/>
        <path d="M126 178.5v2l3 3 3-3v-2l-3-3Zm-.5 57.5 3.5 3.5 3.5-3.5-3.5-3.5Zm.5-74.5v-2l3-3 3 3v2l-3 3Z" style="fill:#b0bac0;stroke:none"/>
        <path d="M126 180.5v-2l3-3 3 3v2l-3 3Zm-.5 55.5 3.5-3.5 3.5 3.5-3.5 3.5Z" style="stroke:none"/>
        <path d="m131 244.5 2.5 2.5 3.5-3.5-2.5-2.5Z" style="fill:#b0bac0;stroke:none"/>
        <path d="m131 244.5 3.5-3.5 2.5 2.5-3.5 3.5Zm.5 27.5 9.5-9.5 3 3-9.5 9.5Z" style="stroke:none"/>
        <path d="m133 346.5 4-4 9.5 9.5-4 4Z" style="fill:#989aa4;stroke:none"/>
        <path d="M138 198.5v18l7.5 7.5.5-.5v-2l1-1 5 5v5l3 3v5l6 6v11l-4 4-4-4v-12l-19-19v-29l.5-.5Z" style="fill:#84f491;stroke:none"/>
        <path d="M134 339.5v-22l11.5-11.5 11.5 11.5-3 3v4l8.5 8.5h2l5.5-5.5v-3l-6.5-6.5h3l7-7h6l5.5 5.5-.5.5h-4l-4 4 6 6h7l14 14 4.5-4.5v-2L197.5 324l10.5-10.5-2.5-2.5h-4l-.5-.5 7.5-7.5h4l3 3h3l12-12 2.5 2.5v7l4 4v18l4.5 4.5-.5.5v9l3 3v10l-5.5 5.5h-5L222 346.5 209.5 359h-4l-23-23h-4L153 361.5l-6-6v-3Z" style="stroke:none"/>
        <path d="m134.5 195 1-1h3l3.5 3.5v1l1 1v9l21 21-3 3v12l-6-6v-5l-3-3v-5l-5-5-1 1v2l-.5.5-7.5-7.5v-18Zm1.5-36v-.5l3-3 .5.5h1l3.5 3.5v2l12.5 12.5h3l8 8-.5.5v18l-6-6v-4L150.5 180h-2l-7.5-7.5v-10l-3.5-3.5Z" style="fill:#62ae7f;stroke:none"/>
        <path d="M136 183.5V159h1.5l3.5 3.5v10l7.5 7.5h2l10.5 10.5v4l6 6v13l.5.5-2.5 2.5v.5h-2.5l-6.5-6.5v-7Zm1-45v-25l1.5-1.5h2l1 1-.5.5v13l4 4v4l8.5 8.5h5.5v6.5l-5 5-.5-.5h-1Z" style="fill:#84f491;stroke:none"/>
        <path d="m139 283.5 4 4 7-7v-2l-3-3Z" style="stroke:none"/>
        <path d="m139.5 156-.5-.5 5-5v-4l.5-.5 8 8h1l.5.5-2 2v5l4.5 4.5h3l4.5-4.5v-4l-4.5-4.5h-3l-.5-.5 3-3V144h3v.5l2.5 2.5h1.5v1.5l3.5 3.5h3l5-5h4l4 4h.5v4.5l2.5 2.5h5l6 6h3l3-3h1l23 23h7l6.5 6.5v5l-3.5 3.5-11.5-11.5-2 2v2l10.5 10.5-3 3-12.5-12.5-2 2v2l11.5 11.5-3 3-12.5-12.5-2 2v2l11.5 11.5h-5l-9 9h-4L196 212.5v-5l-3.5-3.5h3l2.5-2.5v-3L185.5 186h-3l-4 4h-3l-3.5 3.5-5-5v-6l.5-.5 4 4h3l3-3-3.5-3.5-1 1-2-2v-4l6.5-6.5 7 7h1.5v4.5l7.5 7.5h5l6.5-6.5-8.5-8.5h-7l-11-11 3-3-4.5-4.5-3 3-2.5-2.5h-2l-3 3 6.5 6.5-.5.5h-1l-11 11-1-1h-3l-9-9 2.5-2.5-3.5-3.5-2.5 2.5v-2l-3.5-3.5Z" style="fill:#b0bac0;stroke:none"/>
        <path d="m139 283.5 8-8 3 3v2l-7 7Z" style="fill:#989aa4;stroke:none"/>
        <path d="m140.5 104-.5-.5v-2l4-4V93h4.5l9 9h9l-2.5 2.5 11 11-.5.5h-6l-6-6h-11l-6-6Z" style="stroke:none"/>
        <path d="M146 117.5v5l13 13v7.5h-5.5l-8.5-8.5v-4l-4-4v-13l.5-.5Z" style="fill:#62ae7f;stroke:none"/>
        <path d="M144 93v-.5l4.5-4.5h2l3 3h3l8 8h6l3 3-2.5 2.5-2.5-2.5h-11l-9-9Z" style="fill:#989aa4;stroke:none"/>
        <path d="m144 161.5 2.5-2.5 3.5 3.5-2.5 2.5Zm1 176v2l10.5 10.5 4-4-11.5-11.5Z" style="stroke:none"/>
        <path d="M145 339.5v-2l3-3 11.5 11.5-4 4Z" style="fill:#989aa4;stroke:none"/>
        <path d="m145.5 306 .5-.5v-5l4.5-4.5h10l5 5h14l6-6h20l12-12h7l5.5 5.5v5l.5.5-12 12h-3l-3-3h-4l-16 16h-5l-8-8h-6l-7 7h-9Z" style="fill:#b0bac0;stroke:none"/>
        <path d="m146.5 123 .5-.5v-1l2.5-2.5 6 6-.5.5v5l-.5.5Zm9.5 80.5v7l6.5 6.5h2.5v5.5l-.5.5-15.5-15.5v-10l.5-.5Z" style="fill:#989aa4;stroke:none"/>
        <path d="m151.5 28 4 4 6-6-3-3h-2Zm-.5 257v-1.5l5-5v-12l1.5-1.5 2.5 2.5v13l-4.5 4.5Z" style="fill:#b0bac0;stroke:none"/>
        <path d="M151 292v-7h4.5l1-1 3.5 3.5v2l-2.5 2.5Z" style="fill:#989aa4;stroke:none"/>
        <path d="M151 296v-4h6.5l2.5-2.5v-2l-3.5-3.5 3.5-3.5V268h1.5l4.5-4.5v-5l8-8v-16l-8-8v-2l-1.5-1.5.5-.5v-6l5-5v-4l3.5-3.5h19l3.5 3.5v5l3.5 3.5-4.5 4.5v-2l-8.5-8.5h-3l-4.5 4.5v4l4 4v4l6.5 6.5-5.5 5.5 7.5 7.5h-5l-7.5 7.5v2l18.5 18.5h1l2 2h3l5.5-5.5v-12l-2-2v-7l10.5 10.5h2l2-2 5.5 5.5 3.5-3.5 4.5 4.5v23l-.5.5-16-16h-5l-1 1h-1l-6 6 4 4h1.5v1.5l2.5 2.5-8 8h-10l6.5-6.5v-4L190.5 273h-2l-3-3h-4l-5.5 5.5v14l3.5 3.5h2l3.5-3.5v2l3.5 3.5h-3l-6 6h-14l-5-5Z" style="stroke:none"/>
        <path d="m151.5 28 5-5h2l3 3-6 6Z" style="fill:#989aa4;stroke:none"/>
        <path d="m152 35.5 2.5-2.5h2l8 8-3.5 3.5Z" style="fill:#84f491;stroke:none"/>
        <path d="m157 40.5-3 3-2-2v-6Z" style="fill:#989aa4;stroke:none"/>
        <path d="m152 47.5 3-3 .5.5h1l8 8-3.5 3.5Z" style="fill:#84f491;stroke:none"/>
        <path d="m157 52.5-3 3-2-2v-6Z" style="fill:#989aa4;stroke:none"/>
        <path d="m152 59.5 3-3 .5.5h1l8 8-3.5 3.5Z" style="fill:#84f491;stroke:none"/>
        <path d="m157 64.5-3 3-2-2v-6Z" style="fill:#989aa4;stroke:none"/>
        <path d="m152 71.5 3-3 .5.5h1l8 8-3.5 3.5Z" style="fill:#84f491;stroke:none"/>
        <path d="m157 76.5-4 4-1-1v-8Z" style="fill:#989aa4;stroke:none"/>
        <path d="M152 161.5v-5l4-4 .5.5h3l4.5 4.5v4l-4.5 4.5h-3Zm1-81 4-4 7.5 7.5 3.5-3.5 2.5 2.5-3.5 3.5 7 7 2.5-2.5h1l5.5-5.5-6.5-6.5.5-.5v-1l-3-3 1.5-1.5h2L192 87.5v5l-2.5-2.5h-3l-6 6h-3l-2-2h-4l-5-5h-5Zm1-37 3-3 7.5 7.5 5-5h2l6.5 6.5-2.5 2.5-5-5-3.5 3.5 8.5 8.5h1l4 4-3 3-7-7-3.5 3.5 3.5 3.5h-2l-1.5 1.5L156.5 57h-1l-1.5-1.5 3-3 7.5 7.5 3.5-3.5L156.5 45h-1Z" style="stroke:none"/>
        <path d="m154 67.5 3-3 7.5 7.5 3.5-3.5 2.5 2.5-3.5 3.5 3.5 3.5h-2l-1.5 1.5L156.5 69h-1Z" style="stroke:none"/>
        <path d="M154 324.5v-4l3-3 .5.5h6l6.5 6.5v3l-5.5 5.5h-2Z" style="fill:#989aa4;stroke:none"/>
        <path d="m163.5 133-3 3H159v-.5l-4.5-4.5.5-.5v-5l.5-.5Z" style="stroke:none"/>
        <path d="m157 307.5 3.5 3.5 3.5-3.5-3.5-3.5Z" style="fill:#b0bac0;stroke:none"/>
        <path d="m157 259.5 4-4v-9l3.5 3.5h5l2.5-2.5v-7l-.5-.5 2.5-2.5v13l-8 8v3l-1.5-1.5h-2l-2.5 2.5Z" style="fill:#989aa4;stroke:none"/>
        <path d="m157 307.5 3.5-3.5 1.5 1.5-3.5 3.5Z" style="stroke:none"/>
        <path d="m157.5 265 3-3 3.5 3.5-2.5 2.5H160v-.5Z" style="fill:#62ae7f;stroke:none"/>
        <path d="M159 144v-6h10.5l3 3h16l2.5-2.5v-23l-6-6v-8l7-7v10l7 7v6l3 3v23l13.5 13.5h3l18 18h7l6.5-6.5v-5l.5-.5 2.5 2.5v11l-12 12-4.5-4.5h-7l-23-23h-3l-10-10h-8l-4-4H166v-.5l2-2v-1l-3-3-3 3v.5Z" style="stroke:none"/>
        <path d="m158.5 309 3.5-3.5 2 2-3.5 3.5Z" style="fill:#989aa4;stroke:none"/>
        <path d="m161 44.5 3.5-3.5 3.5 3.5-3.5 3.5Zm0 12 3.5-3.5 3.5 3.5-3.5 3.5Zm0 12 3.5-3.5 3.5 3.5-3.5 3.5Zm0 12 3.5-3.5 3.5 3.5-3.5 3.5Z" style="fill:#62ae7f;stroke:none"/>
        <path d="m160.5 175 4.5-4.5 4.5 4.5h1.5v3.5l2 2-2.5 2.5 3 3h-2Z" style="fill:#989aa4;stroke:none"/>
        <path d="M161 243.5v-11l1.5-1.5 2.5 2.5 4-4 3 3Z" style="fill:#b0bac0;stroke:none"/>
        <path d="M161 246.5v-3l1.5-1.5 3.5 3.5 5.5-5.5.5.5v7l-2.5 2.5h-5Z" style="stroke:none"/>
        <path d="m160.5 262 2-2h2l1.5 1.5v2l-2 2Z" style="fill:#84f491;stroke:none"/>
        <path d="M162 277.5v8l2 2v2l3.5 3.5h3l2.5-2.5v-2l-2.5-2.5.5-.5v-8l-2.5-2.5h-4Z" style="stroke:none"/>
        <path d="M162 144v-.5l3-3 3 3v.5Z" style="fill:#62ae7f;stroke:none"/>
        <path d="M162 144.5v-.5h6v.5l-2 2v.5h-1.5Z" style="fill:#84f491;stroke:none"/>
        <path d="M162 285.5v-8l2.5-2.5h4l2.5 2.5v8l-2.5 2.5H164v-.5Z" style="fill:#b0bac0;stroke:none"/>
        <path d="m162.5 231 4-4 2.5 2.5-4 4Z" style="fill:#989aa4;stroke:none"/>
        <path d="m162.5 242 3.5-3.5 3.5 3.5-3.5 3.5Zm1.5-137.5 2.5-2.5h2l8 8-3.5 3.5Z" style="fill:#84f491;stroke:none"/>
        <path d="M164 289.5V288h4.5l2-2 2.5 2.5v2l-2.5 2.5h-3Z" style="fill:#989aa4;stroke:none"/>
        <path d="M166 124.5v2l6.5 6.5h4l2.5-2.5v-2l-6.5-6.5h-4Z" style="fill:#b0bac0;stroke:none"/>
        <path d="m165 170.5 6.5-6.5h1l.5-.5 4.5 4.5-6.5 6.5v.5h-1.5Z" style="stroke:none"/>
        <path d="M166.5 33 177 43.5l4.5-4.5L171 28.5Z" style="fill:#b0bac0;stroke:none"/>
        <path d="M166 126.5v-2l2.5-2.5h4l6.5 6.5v2l-2.5 2.5h-4Zm0 22V147h11.5l-5 5h-3Z" style="fill:#989aa4;stroke:none"/>
        <path d="m166 238.5 6-6 2 2v3l-4.5 4.5Z" style="fill:#62ae7f;stroke:none"/>
        <path d="m166.5 33 4.5-4.5L181.5 39l-4.5 4.5Z" style="fill:#989aa4;stroke:none"/>
        <path d="m167 50.5 3.5-3.5 3.5 3.5-3.5 3.5Zm0 12 3.5-3.5 3.5 3.5-3.5 3.5Z" style="fill:#62ae7f;stroke:none"/>
        <path d="m167 67.5 1.5-1.5h2l3.5 3.5 6.5-6.5-4-4h3l1.5 1.5v11l2 2-2.5 2.5-3-3h-2l-1.5 1.5Z" style="fill:#989aa4;stroke:none"/>
        <path d="m167 74.5 3.5-3.5 3.5 3.5-3.5 3.5Z" style="fill:#62ae7f;stroke:none"/>
        <path d="m167 79.5 1.5-1.5h2l3.5 3.5 2.5-2.5 2 2-3.5 3.5 4.5 4.5-2 2h-.5v-1.5Z" style="fill:#989aa4;stroke:none"/>
        <path d="m167 86.5 3.5-3.5 3.5 3.5-3.5 3.5Z" style="fill:#62ae7f;stroke:none"/>
        <path d="m166.5 157 3-3h2l8 8-4 4Z" style="fill:#84f491;stroke:none"/>
        <path d="M172 193.5v7.5h-.5l-4.5-4.5v-8Z" style="stroke:none"/>
        <path d="M171.5 201h1l3 3h-2l-3.5 3.5v4l-2.5 2.5-.5-.5v-17Z" style="fill:#b0bac0;stroke:none"/>
        <path d="m170 224.5 3.5 3.5 3.5-3.5-3.5-3.5Z" style="stroke:none"/>
        <path d="m170 224.5 3.5-3.5 3.5 3.5-3.5 3.5Zm.5-158.5 3.5-3.5 3.5 3.5-3.5 3.5Zm0 12 3.5-3.5 3 3v1l-3 3Zm0 12 3.5-3.5 3 3V91h-.5l-2.5 2.5Z" style="fill:#b0bac0;stroke:none"/>
        <path d="m170.5 183 3.5-3.5 2 2-3.5 3.5Zm1.5 14.5v-4l3.5-3.5h9l5 5h4l.5-.5 4 4v3l-2.5 2.5h-5l-9-9h-7Z" style="fill:#62ae7f;stroke:none"/>
        <path d="M172.5 201h-.5v-3.5l2.5-2.5h7l9 9h-15Z" style="fill:#84f491;stroke:none"/>
        <path d="m173 113.5 3.5-3.5 3.5 3.5-3.5 3.5Z" style="fill:#62ae7f;stroke:none"/>
        <path d="m173.5 186-1-1 3.5-3.5 1.5 1.5-3 3Z" style="fill:#84f491;stroke:none"/>
        <path d="m174 156.5 3-3 4.5 4.5-3 3Z" style="fill:#989aa4;stroke:none"/>
        <path d="m175 84.5 3.5-3.5 4.5 4.5-3.5 3.5Z" style="fill:#b0bac0;stroke:none"/>
        <path d="m175.5 166 4-4 3.5 3.5-4 4Z" style="fill:#62ae7f;stroke:none"/>
        <path d="M176 284.5v-9l5.5-5.5h4l3 3-3.5 3.5v7l-3.5 3.5h-3Z" style="fill:#b0bac0;stroke:none"/>
        <path d="M178.5 287h3l3.5-3.5v6l-3.5 3.5h-2l-3.5-3.5v-5Z" style="fill:#989aa4;stroke:none"/>
        <path d="m176.5 117 3.5-3.5 2.5 2.5-3.5 3.5Z" style="stroke:none"/>
        <path d="m176.5 321 4-4h4l.5-.5 2.5 2.5h5l8.5-8.5.5.5h4l2.5 2.5-10.5 10.5 10.5 10.5v2l-4.5 4.5-14-14h-7Z" style="fill:#989aa4;stroke:none"/>
        <path d="m179 119.5 3.5-3.5 3.5 3.5-3.5 3.5Z" style="fill:#62ae7f;stroke:none"/>
        <path d="m179 169.5 4-4 2.5 2.5-4 4Z" style="stroke:none"/>
        <path d="m178.5 190 4-4h3l8.5 8.5-.5.5h-4l-5-5Z" style="fill:#989aa4;stroke:none"/>
        <path d="M179 218.5v-4l4.5-4.5h3l8.5 8.5v12l7.5 7.5-8 8h-3l-7.5-7.5 5.5-5.5-6.5-6.5v-4Z" style="fill:#b0bac0;stroke:none"/>
        <path d="M179 255.5v-2l7.5-7.5h8l8-8h2l2.5 2.5v16l2 2v12l-5.5 5.5h-3l-2-2h-.5v-1.5l5-5v-20l-1-1-6 6-3-3-8.5 8.5h-2l-.5.5Z" style="fill:#62ae7f;stroke:none"/>
        <path d="m181 71.5 7-7v-5l-5.5-5.5 3.5-3.5 7 7v11l-5.5 5.5h-4Z" style="stroke:none"/>
        <path d="m180.5 76 2.5-2.5.5.5h4l1-1 .5.5v10l-.5.5Zm1.5 231.5 7.5 7.5 3.5-3.5-7.5-7.5Z" style="fill:#b0bac0;stroke:none"/>
        <path d="m181.5 172 4-4 3.5 3.5-3 3v.5h-1.5Z" style="fill:#62ae7f;stroke:none"/>
        <path d="m182 258.5.5-.5h2l8.5-8.5 3 3 6-6 1 1v20l-5 5v1.5h-.5Z" style="fill:#84f491;stroke:none"/>
        <path d="m182 307.5 3.5-3.5 3 3-3.5 3.5Z" style="stroke:none"/>
        <path d="m182.5 123 3.5-3.5-2-2 .5-.5h3l3.5 3.5v4l-2.5 2.5h-2Z" style="fill:#989aa4;stroke:none"/>
        <path d="M185 289v-12.5l3.5-3.5h2l8 8-8 8Z" style="fill:#84f491;stroke:none"/>
        <path d="M185 291.5V289h5.5l8-8 3.5 3.5v4l-6.5 6.5h-7Z" style="fill:#62ae7f;stroke:none"/>
        <path d="m185 310.5 3.5-3.5 4.5 4.5-3.5 3.5Zm.5-175.5 5.5-5.5v9l-1 1Zm.5 20.5V151h7.5l10 10h2l-3 3h-3l-6-6h-5Z" style="fill:#989aa4;stroke:none"/>
        <path d="M186 176v-1.5l3-3 .5.5h7l8.5 8.5-4 4-8.5-8.5Z" style="stroke:none"/>
        <path d="M186 179.5V176h6.5l8.5 8.5-2.5 2.5h-5Z" style="fill:#989aa4;stroke:none"/>
        <path d="M195 131.5v5l3.5 3.5.5-.5v-5l-3.5-3.5Z" style="stroke:none"/>
        <path d="M199 134.5v5l-.5.5-3.5-3.5v-5l.5-.5Zm-3 97-1-1v-10l4.5-4.5 6.5 6.5-1.5 1.5h-1Z" style="fill:#989aa4;stroke:none"/>
        <path d="m196 231.5 7.5-7.5h1l1.5-1.5.5.5h4l9-9h5l18.5-18.5 3 3v3l-10 10v2l.5.5-15.5 15.5v-4l-.5-.5-10.5 10.5v5l-3 3v-3l-2.5-2.5h-2Z" style="stroke:none"/>
        <path d="m197.5 209 3.5 3.5 6-6-3.5-3.5Z" style="fill:#b0bac0;stroke:none"/>
        <path d="m197.5 209 1.5-1.5 3.5 3.5-1.5 1.5Z" style="fill:#84f491;stroke:none"/>
        <path d="M199 117.5v-73l4.5-4.5h4L218 50.5v4l22 22v25l12 12v9l-9 9v24l7.5 7.5-.5.5v5l-6.5 6.5h-7l-18-18h-2l8.5-8.5v-2l-4.5-4.5h-2l-9 9-7.5-7.5v-23Z" style="fill:#b0bac0;stroke:none"/>
        <path d="m199 207.5 2-2 3.5 3.5-2 2Z" style="fill:#62ae7f;stroke:none"/>
        <path d="m201 205.5 2.5-2.5 3.5 3.5-2.5 2.5Z" style="stroke:none"/>
        <path d="M205 110.5v3l3 3 10-10v-2l-2.5-2.5h-2Zm0 78v4l3.5 3.5h3l7.5-7.5v-2l-4.5-4.5h-3Z" style="fill:#b0bac0;stroke:none"/>
        <path d="M205 113.5v-3l8.5-8.5h2l2.5 2.5v2l-10 10Z" style="fill:#989aa4;stroke:none"/>
        <path d="m206 172.5 4.5 4.5 2.5-2.5-4.5-4.5Z" style="fill:#b0bac0;stroke:none"/>
        <path d="M205 192.5v-4l6.5-6.5h3l4.5 4.5v2l-7.5 7.5h-3Z" style="stroke:none"/>
        <path d="M207 75.5v3l3.5 3.5-.5.5v8l2.5 2.5h13l3.5-3.5v-3L213.5 71h-2Z" style="fill:#b0bac0;stroke:none"/>
        <path d="m206 172.5 2.5-2.5 4.5 4.5-2.5 2.5Z" style="fill:#989aa4;stroke:none"/>
        <path d="m205.5 279 6-6h1l.5-.5 3 3v2l-5 5v.5h-1.5Z" style="fill:#62ae7f;stroke:none"/>
        <path d="M207 325.5v2l7.5 7.5h3l4.5-4.5v-5l-5.5-5.5h-3l-3 3h-1Zm0-247v-3l4.5-4.5h2L229 86.5v3l-3.5 3.5h-4Z" style="stroke:none"/>
        <path d="M208 126.5v9l3.5 3.5h2l20.5-20.5v-17l-2.5-2.5h-3l-3.5 3.5v7.5h-.5Zm0 85 3.5 3.5 2.5-2.5-3.5-3.5Z" style="fill:#b0bac0;stroke:none"/>
        <path d="M207 249.5v-6l3-3v6l11.5 11.5-2 2h-2Z" style="fill:#989aa4;stroke:none"/>
        <path d="M207 327.5v-2l2.5-2.5h1l.5-.5 9.5 9.5-3 3h-3Z" style="fill:#b0bac0;stroke:none"/>
        <path d="M208 135.5v-9l6.5-6.5 9 9-10 10h-2Z" style="stroke:none"/>
        <path d="m208 211.5 2.5-2.5 3.5 3.5-2.5 2.5Z" style="fill:#989aa4;stroke:none"/>
        <path d="M211 60.5v3l4.5 4.5.5-.5v-3l-4.5-4.5Z" style="fill:#b0bac0;stroke:none"/>
        <path d="M221.5 93h-8l2.5-2.5-3.5-3.5-2.5 2.5v-7l.5-.5Z" style="fill:#989aa4;stroke:none"/>
        <path d="M210 90.5v-1l2.5-2.5 3.5 3.5-2.5 2.5h-1Z" style="stroke:none"/>
        <path d="m209.5 151 9-9h2l4.5 4.5v2l-8.5 8.5h-1Z" style="fill:#989aa4;stroke:none"/>
        <path d="M210 246.5v-11l10.5-10.5.5.5v23l9 9v2l.5.5-3.5 3.5Z" style="fill:#b0bac0;stroke:none"/>
        <path d="M216 64.5v3l-.5.5-4.5-4.5v-3l.5-.5Zm-5 220v-2l5-5v-2l-3-3 .5-.5h5l12 12-.5.5v4l-5.5-5.5h-7l-4 4Zm0 38 2.5-2.5h3l5.5 5.5v5l-1.5 1.5Z" style="fill:#989aa4;stroke:none"/>
        <path d="m213 292.5 6.5 6.5 3.5-3.5-6.5-6.5Z" style="fill:#b0bac0;stroke:none"/>
        <path d="M213 202.5v-2l2-2 2.5 2.5-3 3Zm0 90 3.5-3.5 3 3-3.5 3.5Z" style="stroke:none"/>
        <path d="m214.5 120 4-4 9 9-4 4Zm0 84 3-3 10 10-3 3Z" style="fill:#989aa4;stroke:none"/>
        <path d="m217 166.5 7.5 7.5 2.5-2.5-7.5-7.5Z" style="stroke:none"/>
        <path d="m216 295.5 3.5-3.5 3.5 3.5-3.5 3.5Zm1-129 2.5-2.5 7.5 7.5-2.5 2.5Z" style="fill:#989aa4;stroke:none"/>
        <path d="m218.5 116 6-6h2l7.5 7.5v1l-6.5 6.5Zm.5 80.5v-2l2-2 2.5 2.5-3 3Zm1 115v2l3.5 3.5h3l2.5-2.5v-3l-2.5-2.5h-4Z" style="stroke:none"/>
        <path d="M220 313.5v-2l2.5-2.5h4l2.5 2.5v3l-2.5 2.5h-3Zm.5-115.5 3-3 10 10-3 3Zm.5 50.5v-2l4-4 7 7v2l-4 4Z" style="fill:#989aa4;stroke:none"/>
        <path d="M224 70.5v4l5.5 5.5.5-.5v-4l-5.5-5.5Z" style="fill:#b0bac0;stroke:none"/>
        <path d="M230 75.5v4l-.5.5-5.5-5.5v-4l.5-.5Z" style="fill:#989aa4;stroke:none"/>
        <path d="M225 330.5v7l7.5 7.5h2l2.5-2.5v-7l-7.5-7.5h-2Z" style="stroke:none"/>
        <path d="M225 110v-7.5l3.5-3.5h3l2.5 2.5v16l-7.5-7.5Zm0 227.5v-7l2.5-2.5h2l7.5 7.5v7l-2.5 2.5h-2Z" style="fill:#989aa4;stroke:none"/>
        <path d="M226 191.5v-2l2-2 2.5 2.5-3 3Z" style="stroke:none"/>
        <path d="M228 134.5v3l5.5 5.5 4.5-4.5v-5l-4.5-4.5Zm-.5 18.5 4.5 4.5 5-5-4.5-4.5Z" style="fill:#b0bac0;stroke:none"/>
        <path d="M228 137.5v-3l5.5-5.5 4.5 4.5v5l-4.5 4.5Z" style="fill:#989aa4;stroke:none"/>
        <path d="m227.5 153 2.5-2.5 4.5 4.5-2.5 2.5Z" style="stroke:none"/>
        <path d="m227.5 193 3-3 9 9-3 3Zm2.5-42.5 2.5-2.5 4.5 4.5-2.5 2.5Z" style="fill:#989aa4;stroke:none"/>
        <path d="m233 165.5 4.5 4.5 5.5-5.5-4.5-4.5Z" style="fill:#b0bac0;stroke:none"/>
        <path d="m233 165.5 2.5-2.5 4.5 4.5-2.5 2.5Z" style="stroke:none"/>
        <path d="m235.5 163 3-3 4.5 4.5-3 3Zm.5 50.5v-2l9.5-9.5 4 4-10.5 10.5Zm1 112v-9l1.5-1.5 9 9-6 6Z" style="fill:#989aa4;stroke:none"/>
        <path d="M242 111.5v10l.5.5 4.5-4.5v-2l-4.5-4.5Z" style="fill:#b0bac0;stroke:none"/>
        <path d="M247 115.5v2l-.5.5-4.5-4.5v-2l.5-.5Z" style="stroke:none"/>
        <path d="m246.5 118-4 4-.5-.5v-8Zm-3.5 15.5v-2l7-7 3 3v2l-7 7Z" style="fill:#989aa4;stroke:none"/>
    </g>
</svg>
