<svg xmlns="http://www.w3.org/2000/svg" width="56" height="56" style="fill-opacity:1;color-rendering:auto;color-interpolation:auto;text-rendering:auto;stroke:#000;stroke-linecap:square;stroke-miterlimit:10;shape-rendering:auto;stroke-opacity:1;fill:#000;stroke-dasharray:none;font-weight:400;stroke-width:1;font-family:&quot;Dialog&quot;;font-style:normal;stroke-linejoin:miter;font-size:12px;stroke-dashoffset:0;image-rendering:auto">
    <g style="stroke-linecap:round;fill:#dcc6c6;stroke:#dcc6c6">
        <path stroke="none" d="m19.5 32-.5-.5v-3l1.5-1.5.5.5v2l.5.5Z" style="stroke:none"/>
    </g>
    <g stroke="none" style="stroke-linecap:round;fill:#fff;stroke:#fff">
        <path d="m21.5 30-.5-.5v-2l-.5-.5 3-3 .5.5v3ZM23 41.5v-3l3.5-3.5H30v.5l3 3v3l-5 5Z" style="stroke:none"/>
        <path d="m28 46.5 5-5v4l-5 5-5-5v-4Z" style="fill:#dcc6c6;stroke:none"/>
        <path d="m35.5 27-.5.5v2l-.5.5-2.5-2.5v-3l.5-.5Z" style="stroke:none"/>
        <path d="M37 28.5v3l-.5.5-2-2 .5-.5v-2l.5-.5Z" style="fill:#dcc6c6;stroke:none"/>
    </g>
</svg>
