<svg xmlns="http://www.w3.org/2000/svg" width="48" height="48" style="fill-opacity:1;color-rendering:auto;color-interpolation:auto;text-rendering:auto;stroke:#000;stroke-linecap:square;stroke-miterlimit:10;shape-rendering:auto;stroke-opacity:1;fill:#000;stroke-dasharray:none;font-weight:400;stroke-width:1;font-family:&quot;Dialog&quot;;font-style:normal;stroke-linejoin:miter;font-size:12px;stroke-dashoffset:0;image-rendering:auto">
    <g style="stroke-linecap:round;fill:#565666;stroke:#565666">
        <path stroke="none" d="M8 29.5v-8l6.5-6.5h19l6.5 6.5v8L37.5 32H36v-5.5L29.5 20h-11L12 26.5V32h-1.5Z" style="stroke:none"/>
    </g>
    <g stroke="none" style="stroke-linecap:round;fill:#6e7080;stroke:#6e7080">
        <path d="M12 32.5v-6l6.5-6.5h11l6.5 6.5v6l-3 3-1-1v-1L29.5 31l-4 4h-3l-4-4-2.5 2.5v1l-1 1Z" style="stroke:none"/>
        <path d="m15 35.5 1-1v-1l2.5-2.5 4 4h3l4-4 2.5 2.5v1l1 1-3.5 3.5h-11Z" style="fill:#565666;stroke:none"/>
    </g>
</svg>
