<svg xmlns="http://www.w3.org/2000/svg" width="140" height="130" style="fill-opacity:1;color-rendering:auto;color-interpolation:auto;text-rendering:auto;stroke:#000;stroke-linecap:square;stroke-miterlimit:10;shape-rendering:auto;stroke-opacity:1;fill:#000;stroke-dasharray:none;font-weight:400;stroke-width:1;font-family:&quot;Dialog&quot;;font-style:normal;stroke-linejoin:miter;font-size:12px;stroke-dashoffset:0;image-rendering:auto">
    <g style="stroke-linecap:round;fill:#dcc6c6;stroke:#dcc6c6">
        <path stroke="none" d="M37 113.5v-7l7.5-7.5 3.5 3.5-4.5 4.5 5 5-1.5 1.5v5l-2.5 2.5Z" style="stroke:none"/>
    </g>
    <g stroke="none" style="stroke-linecap:round;fill:#fff;stroke:#fff">
        <path d="m43.5 107 4.5-4.5-3.5-3.5 4-4h3l8.5 8.5-6.5 6.5h-3l-2 2Z" style="stroke:none"/>
        <path d="m57 100.5 5-5 2 2v2l-4 4Zm5.5 6.5 4-4 .5.5v3l3 3 3-3v-3l.5-.5 4 4-7.5 7.5Z" style="fill:#dcc6c6;stroke:none"/>
        <path d="M67 106.5v-3l-.5-.5 3.5-3.5 3.5 3.5-.5.5v3l-3 3Z" style="stroke:none"/>
        <path d="M76 99.5v-2l2-2 5 5-3 3Z" style="fill:#dcc6c6;stroke:none"/>
        <path d="m80 103.5 8.5-8.5h3l4 4-3.5 3.5 4.5 4.5-5 5-2-2h-3Z" style="stroke:none"/>
        <path d="m92 102.5 3.5-3.5 7.5 7.5v7l-7.5 7.5-2.5-2.5v-5l-1.5-1.5 5-5Z" style="fill:#dcc6c6;stroke:none"/>
    </g>
</svg>
