<svg xmlns="http://www.w3.org/2000/svg" width="140" height="130" style="fill-opacity:1;color-rendering:auto;color-interpolation:auto;text-rendering:auto;stroke:#000;stroke-linecap:square;stroke-miterlimit:10;shape-rendering:auto;stroke-opacity:1;fill:#000;stroke-dasharray:none;font-weight:400;stroke-width:1;font-family:&quot;Dialog&quot;;font-style:normal;stroke-linejoin:miter;font-size:12px;stroke-dashoffset:0;image-rendering:auto">
    <g style="stroke-linecap:round;fill:#4a4b53;stroke:#4a4b53">
        <path stroke="none" d="M31 84.5v-5l1.5-1.5L44 89.5v3l-5 5v3l5 5 5.5-5.5h2l4 4H60v.5l2.5 2.5h3l4.5-4.5 4.5 4.5h3l2.5-2.5v-.5h4.5l4-4h2l5.5 5.5 5-5v-3l-5-5v-3L107.5 78l1.5 1.5v5l-8 8 .5.5h3l3.5 3.5v6l-8.5 8.5h-6l-4.5 4.5v4l-3.5 3.5h-3L70 110.5 57.5 123h-3l-3.5-3.5v-4l-4.5-4.5h-6l-8.5-8.5v-6l3.5-3.5h3l.5-.5Z" style="stroke:none"/>
    </g>
    <g stroke="none" style="stroke-linecap:round;fill:#665c9f;stroke:#665c9f">
        <path d="m32.5 78 2-2h14l5.5 5.5-3 3-4.5-4.5-3.5 3.5 4.5 4.5-2 2H44v-.5Zm6.5 22.5v-3l3-3 4.5 4.5-4.5 4.5Z" style="stroke:none"/>
        <path d="m42 94.5 2-2V90h1.5l2-2-4.5-4.5 3.5-3.5L57 90.5 51.5 96h-2l-3 3Z" style="fill:#bf92f9;stroke:none"/>
        <path d="m42 103.5 7.5-7.5h2l.5-.5 5 5 5-5 2.5 2.5 3-3h5l3 3 2.5-2.5 5 5 5-5 .5.5h2l7.5 7.5-2 2-5.5-5.5h-2l-4 4H80v-1.5l-3-3-5 5-2-2-2 2-5-5-3 3v1.5h-4.5l-4-4h-2l-5.5 5.5Z" style="fill:#6e7080;stroke:none"/>
        <path d="M48.5 76h4l2.5 2.5v2l-1 1Z" style="fill:#4a4b53;stroke:none"/>
        <path d="m51 84.5 4-4 9.5 9.5h11l10-10 4.5 4.5-.5.5h-1l-13 13-3-3h-5l-3 3Z" style="fill:#989aa4;stroke:none"/>
        <path d="m52 95.5 5-5 5 5-5 5Z" style="stroke:none"/>
        <path d="M60 104.5v-2l3-3 5 5-2.5 2.5h-3Zm12 0 5-5 3 3v2l-2.5 2.5h-3Z" style="fill:#989aa4;stroke:none"/>
        <path d="m78 95.5 5-5 5 5-5 5Z" style="stroke:none"/>
        <path d="m83 90.5 5.5-5.5h1l.5-.5-.5-.5 4-4 3.5 3.5-3.5 3.5 2.5 2.5v3l2 2-4.5 4.5-3-3h-2Z" style="fill:#bf92f9;stroke:none"/>
        <path d="M85 79.5v-1l2.5-2.5h4l-5 5Z" style="fill:#4a4b53;stroke:none"/>
        <path d="m86.5 81 5-5h14l2 2L96 89.5 93.5 87l3.5-3.5-3.5-3.5-4 4Zm7 18 4.5-4.5 3 3v3l-3 3Z" style="stroke:none"/>
    </g>
</svg>
