<svg xmlns="http://www.w3.org/2000/svg" width="400" height="400" style="fill-opacity:1;color-rendering:auto;color-interpolation:auto;text-rendering:auto;stroke:#000;stroke-linecap:square;stroke-miterlimit:10;shape-rendering:auto;stroke-opacity:1;fill:#000;stroke-dasharray:none;font-weight:400;stroke-width:1;font-family:&quot;Dialog&quot;;font-style:normal;stroke-linejoin:miter;font-size:12px;stroke-dashoffset:0;image-rendering:auto">
    <g style="stroke-linecap:round;fill:#dcc6c6;stroke:#dcc6c6">
        <path stroke="none" d="M94 220.5v-12l5.5-5.5 2 2-.5.5v11l5.5 5.5h11l.5-.5 2 2-5.5 5.5h-12Z" style="stroke:none"/>
    </g>
    <g stroke="none" style="stroke-linecap:round;fill:#fff;stroke:#fff">
        <path d="m118 221.5-.5.5h-11l-5.5-5.5v-11l.5-.5Z" style="stroke:none"/>
        <path d="M143 149.5v-11l10.5-10.5.5.5v3l1.5 1.5-8.5 8.5v11l-.5.5Z" style="fill:#dcc6c6;stroke:none"/>
        <path d="m146.5 153 .5-.5v-11l8.5-8.5.5.5v1l4.5 4.5h2l.5.5-8 8v13l-.5.5ZM169 350.5v-7l6-6 1 1v5Z" style="stroke:none"/>
        <path d="m169.5 355-.5-.5v-4l7-7v5ZM173 78.5l-1-1v-13l13-13v4l-7 7v10l.5.5Zm2.5 213.5 7-7 2.5 2.5v9l13.5 13.5h3l13.5-13.5v-9l2.5-2.5 7 7-7.5 7.5v10L202.5 324h-5L183 309.5v-10Z" style="fill:#dcc6c6;stroke:none"/>
        <path d="m178.5 73-.5-.5v-10l7-7v-4l8-8v15Zm4 212 10-10 4 4h7l4-4 10 10-2.5 2.5v9L201.5 310h-3L185 296.5v-9Z" style="stroke:none"/>
        <path d="M185 51.5v-8l7-7 1 1v6Z" style="fill:#dcc6c6;stroke:none"/>
        <path d="M189 106.5v-1l9.5-9.5h3l9.5 9.5v1l-9.5 9.5h-3Z" style="stroke:none"/>
        <path d="M198.5 116h3l9.5-9.5v8l-9.5 9.5h-3l-9.5-9.5v-8ZM191 226.5l.5-.5h4l3 3h3l3-3h4l.5.5-5.5 5.5h-7Z" style="fill:#dcc6c6;stroke:none"/>
        <path d="m191.5 296 4.5 4.5 2.5-2.5-4.5-4.5Z" style="stroke:none"/>
        <path d="m191.5 296 2.5-2.5 4.5 4.5-2.5 2.5Z" style="fill:#dbc5c5;stroke:none"/>
        <path d="m196 175.5.5-.5h7l.5.5-4 4Z" style="fill:#dcc6c6;stroke:none"/>
        <path d="M195.5 226h9l-3 3h-3Zm6 72 2.5 2.5 4.5-4.5-2.5-2.5Z" style="stroke:none"/>
        <path d="m201.5 298 4.5-4.5 2.5 2.5-4.5 4.5Z" style="fill:#dbc5c5;stroke:none"/>
        <path d="M207 43.5v-6l1-1 7 7v8Z" style="fill:#dcc6c6;stroke:none"/>
        <path d="M215 51.5v4l7 7v10l-.5.5L207 58.5v-15Z" style="stroke:none"/>
        <path d="M228 64.5v13l-1 1-5.5-5.5.5-.5v-10l-7-7v-4Z" style="fill:#dcc6c6;stroke:none"/>
        <path d="M224 343.5v-5l1-1 6 6v7Z" style="stroke:none"/>
        <path d="M231 350.5v4l-.5.5-6.5-6.5v-5Z" style="fill:#dcc6c6;stroke:none"/>
        <path d="m237 139.5.5-.5h2l4.5-4.5v-1l.5-.5 8.5 8.5v11l.5.5-8 8-.5-.5v-13Z" style="stroke:none"/>
        <path d="m244.5 133 1.5-1.5v-3l.5-.5 10.5 10.5v11l-3.5 3.5-.5-.5v-11Zm35.5 90.5 2-2 .5.5h11l5.5-5.5v-11l-.5-.5 2-2 5.5 5.5v12l-8.5 8.5h-12Z" style="fill:#dcc6c6;stroke:none"/>
        <path d="m282.5 222-.5-.5 16.5-16.5.5.5v11l-5.5 5.5Z" style="stroke:none"/>
    </g>
</svg>
