<svg xmlns="http://www.w3.org/2000/svg" width="264" height="351" style="fill-opacity:1;color-rendering:auto;color-interpolation:auto;text-rendering:auto;stroke:#000;stroke-linecap:square;stroke-miterlimit:10;shape-rendering:auto;stroke-opacity:1;fill:#000;stroke-dasharray:none;font-weight:400;stroke-width:1;font-family:&quot;Dialog&quot;;font-style:normal;stroke-linejoin:miter;font-size:12px;stroke-dashoffset:0;image-rendering:auto">
    <g style="stroke-linecap:round;fill:#b0bac0;stroke:#b0bac0">
        <path stroke="none" d="M5 176.5v-11l4-4v-8l13-13v-7L37.5 118h3l3.5-3.5v-7l16-16V91h1.5l7-7h11l7-7h10l6-6h11l4 4h2.5v20.5l3.5 3.5h-7l-3-3h-11l-13 13h-9l-5.5 5.5v11l3.5 3.5L89 118.5l.5.5H94v3.5l8.5 8.5-6.5 6.5v2l13.5 13.5h2l3 3 10-10 3 3h9l3-3 10 10 3-3h2l13.5-13.5v-2l-6.5-6.5 8.5-8.5V119h4.5l.5-.5 10.5 10.5 3.5-3.5v-11l-5.5-5.5h-9l-13-13h-11l-3 3h-7l3.5-3.5V75h2.5l4-4h11l6 6h10l7 7h11l7 7h1.5v.5l16 16v7l3.5 3.5h3l15.5 15.5v7l13 13v8l4 4v11l-2.5 2.5h-3l-4-4h-8l-1.5-1.5v-4l1.5-1.5h2l2.5 2.5 2.5-2.5-4-4h-10l-4-4h-8l-6 6h-14l-4.5-4.5v-15l-8.5-8.5h-4l-.5.5-9.5-9.5h-2l-3.5 3.5v2l1.5 1.5-.5.5v3l9.5 9.5h6l3.5 3.5v2l-2.5 2.5h-7l-5-5h-12l-9.5 9.5 3.5 3.5-1.5 1.5v1l-1 1v3l8.5 8.5h4l8.5-8.5.5.5h3l4.5-4.5.5.5h2l2.5-2.5V164h2.5l2.5 2.5v3l-3 3 11.5 11.5 4-4h7l11 11-.5.5v7l-3.5 3.5 3 3-5 5h-2l-3 3h-18l-3.5-3.5v-2l-11-11-8.5 8.5-6-6h-6l-3.5 3.5v10l7.5 7.5h7l12.5 12.5 11.5-11.5h2l13 13-4.5 4.5-7.5-7.5h-3L185 241.5v-2L173.5 228h-3l-1 1-4-4H161v-2.5l-14-14-1.5 1.5-.5-.5v-15l-.5-.5 7.5-7.5v-8l-20-20-20 20v8l7.5 7.5-.5.5v15l-.5.5-1.5-1.5-14 14v2.5h-4.5l-4 4-1-1h-3L79 239.5v2L68.5 231h-3l-7.5 7.5-4.5-4.5 13-13h2L80 232.5 92.5 220h7l7.5-7.5v-10l-3.5-3.5h-6l-6 6-8.5-8.5-11 11v2l-3.5 3.5h-18l-3-3h-2l-5-5 3-3-3.5-3.5v-7l-.5-.5 11-11h7l4 4L73 172.5l-3-3v-3l2.5-2.5H75v1.5l2.5 2.5h2l.5-.5 4.5 4.5h3l.5-.5 8.5 8.5h4l8.5-8.5v-3l-1-1v-1l-1.5-1.5 3.5-3.5-9.5-9.5h-12l-5 5h-7l-2.5-2.5v-2l3.5-3.5h6l9.5-9.5v-3l-.5-.5 1.5-1.5v-2l-3.5-3.5h-2l-9.5 9.5-.5-.5h-4l-8.5 8.5v15l-4.5 4.5h-14l-6-6h-8l-4 4h-10l-4 4 2.5 2.5 2.5-2.5h2l1.5 1.5v4l-1.5 1.5h-8l-4 4h-3Z" style="stroke:none"/>
    </g>
    <g stroke="none" style="stroke-linecap:round;fill:#6e7080;stroke:#6e7080">
        <path d="M8 182.5V179h2.5l4-4h8l1.5-1.5v-4l-1.5-1.5 4-4h3l4-4h8l6 6h14l4-4 4.5 4.5v3l3 3L61.5 184l-4-4h-7l-17 17h-11Z" style="stroke:none"/>
        <path d="m15.5 168 4-4h7l-4 4h-2l-2.5 2.5Z" style="fill:#989aa4;stroke:none"/>
        <path d="M16 270.5v-14L32.5 240l5 5h4l7-7 6 6-7 7 4 4-16 16-11-11-.5.5v9l5 5v5l6 6-5.5 5.5h-1l-8.5-8.5v-8ZM20.5 153l3 3h16l5.5-5.5v-5l-2.5-2.5h-2l-3 3h-10Z" style="fill:#b0bac0;stroke:none"/>
        <path d="M20 305.5v-8l6.5-6.5h3l5.5-5.5-1-1 7-7-5-5v-1l-.5-.5 16-16 1.5 1.5 7-7L41.5 231l-17 17-.5-.5v-16L45.5 210h2l3 3h14L75 223.5l1.5-1.5 2 2h2L93 211.5v-5l-1.5-1.5 6-6h6l3.5 3.5v10l-7.5 7.5h-7L80 232.5 68.5 221h-2l-13 13 4.5 4.5-.5.5 9 9h2l8.5-8.5 2 2v2l4 4-5.5 5.5-3-3h-2l-8.5 8.5v2l8 8L83.5 257l4 4 3.5-3.5v-1l.5-.5 8 8h4l27-27h3l27 27h4l8-8 .5.5v1l3.5 3.5 4-4 11.5 11.5 8-8v-2l-8.5-8.5h-2l-3 3-5.5-5.5 4-4v-2l2-2 8.5 8.5h2l9-9-.5-.5 4.5-4.5-13-13h-2L184 232.5 171.5 220h-7l-7.5-7.5v-10l3.5-3.5h6l6 6-1.5 1.5v5l12.5 12.5h2l2-2 1.5 1.5 10.5-10.5h14l3-3h2l21.5 21.5v16l-.5.5-17-17-18.5 18.5 7 7 1.5-1.5 16 16-.5.5v1l-5 5 7 7-1 1 5.5 5.5h3l6.5 6.5v8l-6 6v5l-9.5 9.5h-8l-15 15h-4l-5-5h-10l-4.5-4.5-14.5 14.5h-6l-3-3h-2l17.5-17.5v-4l-7.5-7.5h-5l-20 20h-19l-20-20h-5l-7.5 7.5v4l17.5 17.5h-2l-3 3h-6L82 331.5l-4.5 4.5h-10l-5 5h-4l-15-15h-8l-9.5-9.5v-5Zm.5-152.5 7-7h10l3-3h2l2.5 2.5v5l-3 3-3.5-3.5h-3l-6 6h-6Z" style="stroke:none"/>
        <path d="M24 231.5v-10L40.5 205l5 5Zm12 40v1l5 5-7 7-5-5v-5l-5-5v-9l.5-.5Z" style="fill:#989aa4;stroke:none"/>
        <path d="M29 136.5v2l1.5 1.5h3l3-3h9l6.5-6.5.5.5h6l3.5-3.5v-4l-2.5-2.5h-2l-4.5 4.5-1.5-1.5h-4l-6 6h-6Z" style="fill:#b0bac0;stroke:none"/>
        <path d="m28.5 173 7 7h2l4.5-4.5v-2l-7-7Zm.5-34.5v-2l6.5-6.5h6l6-6h4l2.5 2.5v2l-8.5 8.5h-9l-3 3h-3Z" style="stroke:none"/>
        <path d="m28.5 173 6.5-6.5 7 7v2l-4.5 4.5h-2Zm1-17 6-6h3l3.5 3.5-2.5 2.5Z" style="fill:#989aa4;stroke:none"/>
        <path d="M32 295.5v10l4.5 4.5.5-.5v-7L49.5 315h11L73 302.5v-10l.5-.5 6 6 .5-.5v-12L69.5 275h-2l-5.5 5.5-1.5-1.5h-11l-12 12h-1Z" style="stroke:none"/>
        <path d="M32 305.5v-10l4.5-4.5h.5v18.5l-.5.5Z" style="fill:#b0bac0;stroke:none"/>
        <path d="m32.5 240 9-9 7 7-7 7h-4Z" style="fill:#989aa4;stroke:none"/>
        <path d="M34 259.5v4l1 1 5-5v-4l-1-1Z" style="fill:#b0bac0;stroke:none"/>
        <path d="m35 264.5-1-1v-4l5-5 1 1v4Z" style="stroke:none"/>
        <path d="M37 302.5V291h.5l12-12h11l13 13-.5.5v10L60.5 315h-11Z" style="fill:#989aa4;stroke:none"/>
        <path d="M41 294.5v5L52.5 311h5L69 299.5v-5L57.5 283h-5Z" style="fill:#989aa4;stroke:none"/>
        <path d="M41 299.5v-5L52.5 283h5L69 294.5v5L57.5 311h-5Zm3.5-28.5 4.5 4.5 9-9v-2l-2.5-2.5h-2Z" style="stroke:none"/>
        <path d="M44.5 297 55 307.5 65.5 297 55 286.5Z" style="stroke:none"/>
        <path d="m44.5 271 9-9h2l2.5 2.5v2l-9 9Zm0 26L55 286.5 65.5 297 55 307.5Z" style="fill:#989aa4;stroke:none"/>
        <path d="M47 85.5v-23l9-9v-6L98.5 5h13l5.5 5.5v28l5 5v10l-9.5-9.5h-10l-12 12h-2L74 70.5v2L56.5 90h-5Z" style="fill:#b0bac0;stroke:none"/>
        <path d="m47.5 251 7-7 5.5 5.5-7 7Z" style="fill:#989aa4;stroke:none"/>
        <path d="M50 190.5v2l4.5 4.5 5.5-5.5-4.5-4.5h-2Z" style="fill:#b0bac0;stroke:none"/>
        <path d="m49.5 297 5.5 5.5 5.5-5.5-5.5-5.5Z" style="fill:#989aa4;stroke:none"/>
        <path d="M51 152.5v3l2.5 2.5h4l2.5-2.5v-3l-2.5-2.5h-4Z" style="fill:#b0bac0;stroke:none"/>
        <path d="M50 192.5v-2l3.5-3.5h2l4.5 4.5-5.5 5.5Z" style="fill:#989aa4;stroke:none"/>
        <path d="m49.5 297 5.5-5.5 5.5 5.5-5.5 5.5ZM52 110.5v5l.5.5h3L66 105.5v-6l-.5-.5h-2Zm0 34 .5.5h4l3.5-3.5-.5-.5h-4Z" style="fill:#b0bac0;stroke:none"/>
        <path d="M51 155.5v-3l2.5-2.5h4l2.5 2.5v3l-2.5 2.5h-4Zm1.5-39.5-.5-.5v-5L63.5 99h2l.5.5v6L55.5 116Zm0 15-.5-.5 2-2v-2l-1-1 4.5-4.5h2l2.5 2.5v4l-3.5 3.5Zm0 14-.5-.5 3.5-3.5h4l.5.5-3.5 3.5Z" style="fill:#989aa4;stroke:none"/>
        <path d="M54 69.5v11l1 1 9-9 .5.5h2l2.5-2.5v-17l-3-3-6 6v7Z" style="fill:#b0bac0;stroke:none"/>
        <path d="m54 275.5 2.5 2.5 4-4-2.5-2.5Z" style="stroke:none"/>
        <path d="m55 81.5-1-1v-11l6-6v5l4 4Zm-1 194 4-4 2.5 2.5-4 4Z" style="fill:#989aa4;stroke:none"/>
        <path d="m58.5 202 4.5 4.5 9-9v3l1 1 7-7v-5l-1-1-7.5 7.5-3.5-3.5Z" style="fill:#b0bac0;stroke:none"/>
        <path d="m59 87.5 15-15v9l2.5 2.5h-8l-7 7H60v-2.5ZM58.5 202l9.5-9.5 4 4v1l-9 9Z" style="fill:#989aa4;stroke:none"/>
        <path d="m59.5 325 4 4h3l11-11-5.5-5.5ZM60 68.5v-12l6-6 3 3v17L66.5 73h-2Z" style="stroke:none"/>
        <path d="M59.5 325 72 312.5l5.5 5.5-11 11h-3Z" style="fill:#989aa4;stroke:none"/>
        <path d="m62 280.5 5.5-5.5h2L80 285.5v12l-.5.5Z" style="fill:#b0bac0;stroke:none"/>
        <path d="M64 260.5v-2l8.5-8.5h2l3 3 5-5 .5.5v8l.5.5L72 268.5Z" style="fill:#989aa4;stroke:none"/>
        <path d="M66 131.5v4l1 1 4-4v-4l-1-1Z" style="fill:#b0bac0;stroke:none"/>
        <path d="M64.5 213h4l3.5-3.5v3l3 3v5l1.5 1.5-1.5 1.5Z" style="fill:#989aa4;stroke:none"/>
        <path d="m67 136.5-1-1v-4l4-4 1 1v4Z" style="stroke:none"/>
        <path d="m65.5 162 .5-.5v-15l8.5-8.5h4l.5.5-4 4v4l2.5 2.5-3.5 3.5v2l2.5 2.5-1.5 1.5v5.5h-2.5l-2.5 2.5Z" style="fill:#989aa4;stroke:none"/>
        <path d="m67.5 36-.5-.5v-7l5.5-5.5.5.5v6l.5.5Z" style="stroke:none"/>
        <path d="M69 103.5v2l.5.5h3l5.5-5.5v-3l-.5-.5h-2Zm0 78v2l2.5 2.5h2l2.5-2.5v-2l-2.5-2.5h-2Z" style="fill:#b0bac0;stroke:none"/>
        <path d="m69.5 106-.5-.5v-2l6.5-6.5h2l.5.5v3l-5.5 5.5Z" style="fill:#989aa4;stroke:none"/>
        <path d="M69 183.5v-2l2.5-2.5h2l2.5 2.5v2l-2.5 2.5h-2Z" style="stroke:none"/>
        <path d="M73 42.5v16l.5.5L85 47.5v-6l19-19v-7l-.5-.5h-3Z" style="fill:#b0bac0;stroke:none"/>
        <path d="m73 201.5-1-1v-4l-.5-.5 2-2 3.5 3.5Zm-1 11v-5l7.5-7.5 7 7-4.5 4.5v2l4.5 4.5-6 6h-2l-3.5-3.5v-5Z" style="fill:#d06b53;stroke:none"/>
        <path d="m73.5 59-.5-.5v-16L100.5 15h3l.5.5v7l-19 19v6Z" style="fill:#989aa4;stroke:none"/>
        <path d="M75 44.5v6l.5.5 5.5-5.5v-6l-.5-.5Z" style="fill:#989aa4;stroke:none"/>
        <path d="M74 81.5v-11L88.5 56h2l12-12h10l9.5 9.5v19l-2 2v.5h-2.5l-4-4h-11l-6 6h-10l-7 7h-3Z" style="stroke:none"/>
        <path d="m73.5 194 5.5-5.5 1 1v5l-3 3Z" style="fill:#ffa665;stroke:none"/>
        <path d="m75 310.5 3.5 3.5 2.5-2.5-3.5-3.5Z" style="stroke:none"/>
        <path d="m75.5 51-.5-.5v-6l5.5-5.5.5.5v6Z" style="fill:#b0bac0;stroke:none"/>
        <path d="M75 125.5v-11l5.5-5.5H84v4.5l5 5L78.5 129Z" style="fill:#989aa4;stroke:none"/>
        <path d="M75 146.5v-4L88.5 129h2l3.5 3.5v2L79.5 149h-2Zm0 19v-7l1.5-1.5h7l5-5h4l-2.5 2.5v6l-1 1-.5-.5h-3l-3.5 3.5v1l-2.5 2.5h-2Z" style="stroke:none"/>
        <path d="m75 310.5 2.5-2.5 3.5 3.5-2.5 2.5Z" style="fill:#b0bac0;stroke:none"/>
        <path d="M80 118.5v3l1 1 3-3v-3l-1-1Z" style="fill:#989aa4;stroke:none"/>
        <path d="M79 243.5v-4L90.5 228h3l14 14-8.5 8.5-8.5-8.5h-2l-5.5 5.5Z" style="fill:#ffa665;stroke:none"/>
        <path d="M81 94.5v2l5.5 5.5h2L99 91.5v-2L93.5 84h-2Zm0 28-1-1v-3l3-3 1 1v3Z" style="fill:#b0bac0;stroke:none"/>
        <path d="m79.5 149 13-13 .5.5v3l-9.5 9.5Zm.5 18.5 2-2v-1l3.5-3.5h3l.5.5-5.5 5.5 4.5 4.5-.5.5h-3Z" style="fill:#989aa4;stroke:none"/>
        <path d="m79.5 200 3.5-3.5 10 10v5l-6.5 6.5-4.5-4.5v-2l4.5-4.5Z" style="fill:#ffa665;stroke:none"/>
        <path d="M81 96.5v-2l2-2 7.5 7.5-2 2h-2Z" style="stroke:none"/>
        <path d="M82 183.5v7l6.5 6.5h4l5.5-5.5v-5l-6.5-6.5h-6Z" style="fill:#b0bac0;stroke:none"/>
        <path d="m82 268.5 4.5 4.5 5.5-5.5v-2l-2.5-2.5h-2Zm-.5 25.5 2.5 2.5v4l7.5 7.5h4l6-6h4l4-4h4l6.5 6.5v2l-4 4 7.5 7.5h17l7.5-7.5-4-4v-2l6.5-6.5h4l4 4h4l6 6h4l7.5-7.5v-4l2.5-2.5-7-7h-4l-7.5 7.5-1.5-1.5 3.5-3.5v-2l-3.5-3.5h-2l6-6h4l2.5-2.5-9.5-9.5h-3l-15 15h-3l-7-7h-7l-7 7h-3l-15-15h-3l-9.5 9.5 2.5 2.5h4l6 6h-2l-3.5 3.5v2l3.5 3.5-1.5 1.5-7.5-7.5h-4Z" style="stroke:none"/>
        <path d="M82 190.5v-7l3.5-3.5h6l6.5 6.5v5l-5.5 5.5h-4Zm0 78 2.5-2.5.5.5v1l2.5 2.5h1l.5.5-2.5 2.5Zm-.5 25.5 7-7h4l7.5 7.5 1.5-1.5-3.5-3.5v-2l3.5-3.5h3l9 9h37l9-9h3l3.5 3.5v2l-3.5 3.5 1.5 1.5 7.5-7.5h4l7 7-2.5 2.5v4l-7.5 7.5h-4l-6-6h-4l-4-4h-4l-6.5 6.5v2l4 4-7.5 7.5h-17l-7.5-7.5 4-4v-2l-6.5-6.5h-4l-4 4h-4l-6 6h-4l-7.5-7.5v-4ZM83 92.5l8.5-8.5h2l5.5 5.5v2l-8.5 8.5Z" style="fill:#989aa4;stroke:none"/>
        <path d="M83 251.5v-3l-.5-.5 6-6h2l8.5 8.5 8.5-8.5 7.5 7.5v2l.5.5-12 12h-4l-8-8-.5.5v1l-3.5 3.5-4.5-4.5v-4l4.5 4.5 3.5-3.5v-3l-2.5-2.5h-2Z" style="fill:#d06b53;stroke:none"/>
        <path d="M83 252.5v-1l3.5-3.5h2l2.5 2.5v3l-3.5 3.5Z" style="fill:#ffa665;stroke:none"/>
        <path d="M84 113.5V109h5.5l13-13h11l2.5 2.5-7.5 7.5 3 3-6.5 6.5-3-3v-8l-.5-.5-7.5 7.5v7.5h-4.5Z" style="stroke:none"/>
        <path d="m83.5 167 6.5-6.5v-6l2.5-2.5H96v5.5l5.5 5.5h3l3.5 3.5v1l-4 4-5-5-8 8Z" style="fill:#d06b53;stroke:none"/>
        <path d="M85 267.5v-1l-.5-.5 3-3h2l2.5 2.5v2l-3 3-.5-.5h-1Zm5 58v-4l7.5-7.5h5l18 18-.5.5v1l-9.5 9.5h-3Zm2-283v3l1 1 7-7v-3l-1-1Z" style="fill:#b0bac0;stroke:none"/>
        <path d="m91 174.5 8-8 5 5 4-4 1 1v3l-8.5 8.5h-4Z" style="fill:#ffa665;stroke:none"/>
        <path d="m91 275.5 9.5-9.5h3l4.5 4.5-7.5 7.5h-7Z" style="fill:#b0bac0;stroke:none"/>
        <path d="m93 46.5-1-1v-3l7-7 1 1v3Z" style="fill:#989aa4;stroke:none"/>
        <path d="M94 62.5v4l1.5 1.5h7l4-4h3l5.5-5.5v-4l-2.5-2.5h-4l-6 6h-4Z" style="stroke:none"/>
        <path d="M94 66.5v-4l4.5-4.5h4l6-6h4l2.5 2.5v4l-5.5 5.5h-3l-4 4h-7Z" style="fill:#b0bac0;stroke:none"/>
        <path d="M94.5 119H94v-7.5l7.5-7.5.5.5v8l3 3 6.5-6.5-3-3 7.5-7.5.5.5h7l6-6h5l6 6h7l.5-.5 7.5 7.5-3 3 6.5 6.5 3-3v-8l.5-.5 7.5 7.5v7.5h-.5l-1.5-1.5-9.5 9.5 3.5 3.5-.5.5 6.5 6.5v2l-3 3-4.5-4.5h-7l-3.5-3.5 4-4v-2l-3.5-3.5h-2l-3.5 3.5-4-4v-2l3-3v-3l-8.5-8.5h-7l-8.5 8.5v3l3 3v2l-4 4-3.5-3.5h-2l-3.5 3.5v2l4 4-3.5 3.5h-7l-4.5 4.5-3-3v-2l6.5-6.5-.5-.5 3.5-3.5-9.5-9.5Z" style="fill:#d06b53;stroke:none"/>
        <path d="M94 122.5V119h.5l1.5-1.5 9.5 9.5-3.5 3.5Z" style="fill:#ffa665;stroke:none"/>
        <path d="m94.5 229 4-4h5l11 11-6.5 6.5Z" style="fill:#989aa4;stroke:none"/>
        <path d="M96 157.5V152h4.5l9.5 9.5-3.5 3.5-2-2h-3Z" style="stroke:none"/>
        <path d="m98.5 326 10.5 10.5 4.5-4.5-10.5-10.5Z" style="fill:#b0bac0;stroke:none"/>
        <path d="m99 142.5 4.5-4.5h7l3.5-3.5-4-4v-2l3.5-3.5h2l3.5 3.5 4-4v-2l-3-3v-3l8.5-8.5h7l8.5 8.5v3l-3 3v2l4 4 3.5-3.5h2l3.5 3.5v2l-4 4 3.5 3.5h7l4.5 4.5-10.5 10.5h-2l-9-9h-2l-5 5h-9l-5-5h-2l-9 9h-2Z" style="fill:#ffa665;stroke:none"/>
        <path d="m100 184.5 2.5 2.5 3.5-3.5-2.5-2.5Z" style="fill:#b0bac0;stroke:none"/>
        <path d="m98.5 326 4.5-4.5 10.5 10.5-4.5 4.5Zm1.5-141.5 3.5-3.5 2.5 2.5-3.5 3.5Z" style="fill:#989aa4;stroke:none"/>
        <path d="M103 31.5v3l1 1 3-3v-3l-1-1Zm0 51v3l5 5 4-4v-8l-1.5-1.5h-2Z" style="fill:#b0bac0;stroke:none"/>
        <path d="m104 35.5-1-1v-3l3-3 1 1v3Z" style="stroke:none"/>
        <path d="M103 85.5v-3l5.5-5.5h2l1.5 1.5v8l-4 4Z" style="fill:#989aa4;stroke:none"/>
        <path d="m103.5 193 4 4h2l.5-.5v-2l-4-4Z" style="fill:#b0bac0;stroke:none"/>
        <path d="M103.5 225h-.5v-2.5l9.5-9.5 8.5 8.5-3.5 3.5 6 6h17l6-6-3.5-3.5 8.5-8.5 9.5 9.5v2.5h-.5L144 241.5l-.5-.5h-5l-.5.5-4.5-4.5h-3l-4.5 4.5-.5-.5h-5l-.5.5Z" style="fill:#d06b53;stroke:none"/>
        <path d="m103.5 193 2.5-2.5 4 4v2l-.5.5h-2Z" style="stroke:none"/>
        <path d="m108 242.5 6.5-6.5 5.5 5.5-6.5 6.5Z" style="fill:#b0bac0;stroke:none"/>
        <path d="m111.5 153 9-9h2l2 2-10 10Z" style="fill:#989aa4;stroke:none"/>
        <path d="M112 186.5v-8l20-20 20 20v8l-3 3-5.5-5.5h-5l-3-3 4-4-7.5-7.5-7.5 7.5 4 4-3 3h-5l-5.5 5.5Z" style="fill:#d06b53;stroke:none"/>
        <path d="m112.5 213 4.5-4.5 11.5 11.5h7l11.5-11.5 4.5 4.5-8.5 8.5 3.5 3.5-6 6h-17l-6-6 3.5-3.5Z" style="fill:#ffa665;stroke:none"/>
        <path d="m113.5 248 7-7h5l.5.5-10.5 10.5-.5-.5v-2Z" style="fill:#989aa4;stroke:none"/>
        <path d="M116 162.5v2l1 1 4-4v-2l-1-1Z" style="fill:#b0bac0;stroke:none"/>
        <path d="m115 189.5 5.5-5.5h5l3-3-4-4 7.5-7.5 7.5 7.5-4 4 3 3h5l5.5 5.5-13.5 13.5h-7Z" style="fill:#ffa665;stroke:none"/>
        <path d="m116 263.5 4.5 4.5 4.5-4.5-4.5-4.5Z" style="stroke:none"/>
        <path d="m117 165.5-1-1v-2l4-4 1 1v2Zm-1 98 4.5-4.5 4.5 4.5-4.5 4.5Z" style="fill:#989aa4;stroke:none"/>
        <path d="M118 105.5v3l.5.5h2l3.5-3.5v-3l-.5-.5h-2Z" style="fill:#d06b53;stroke:none"/>
        <path d="m118.5 109-.5-.5v-3l3.5-3.5h2l.5.5v3l-3.5 3.5Z" style="fill:#ffa665;stroke:none"/>
        <path d="m126.5 201-.5.5v3l3.5 3.5h5l3.5-3.5v-3l-.5-.5 7-7 .5.5v15l.5.5-10 10h-7l-10-10 .5-.5v-15l.5-.5Z" style="fill:#989aa4;stroke:none"/>
        <path d="M128.5 203h7l2-2 .5.5v3l-3.5 3.5h-5l-3.5-3.5v-3l.5-.5Z" style="fill:#b0bac0;stroke:none"/>
        <path d="m138 241.5.5-.5h5l7 7-1.5 1.5v2l-.5.5Z" style="fill:#989aa4;stroke:none"/>
        <path d="m139 263.5 4.5 4.5 4.5-4.5-4.5-4.5Z" style="stroke:none"/>
        <path d="M140 102.5v3l3.5 3.5h2l.5-.5v-3l-3.5-3.5h-2Z" style="fill:#d06b53;stroke:none"/>
        <path d="m139 263.5 4.5-4.5 4.5 4.5-4.5 4.5Z" style="fill:#989aa4;stroke:none"/>
        <path d="M140 105.5v-3l.5-.5h2l3.5 3.5v3l-.5.5h-2Z" style="fill:#ffa665;stroke:none"/>
        <path d="m139.5 146 2-2h2l9 9-3 3Z" style="fill:#989aa4;stroke:none"/>
        <path d="M142 53.5v-10l5-5v-28l5.5-5.5h13L208 47.5v6l9 9v23l-4.5 4.5h-5L190 72.5v-2L175.5 56h-2l-12-12h-10Z" style="fill:#b0bac0;stroke:none"/>
        <path d="M142 72.5v-19l9.5-9.5h10l12 12h2L190 70.5v11l-2.5 2.5h-3l-7-7h-10l-6-6h-11l-4 4H144v-.5Z" style="stroke:none"/>
        <path d="M143 159.5v2l4 4 1-1v-2l-4-4Z" style="fill:#b0bac0;stroke:none"/>
        <path d="M143 161.5v-2l1-1 4 4v2l-1 1Z" style="fill:#989aa4;stroke:none"/>
        <path d="m144 241.5 5.5-5.5 6.5 6.5-5.5 5.5Zm0 92v-1l-.5-.5 18-18h5l7.5 7.5v4L156.5 343h-3Z" style="fill:#b0bac0;stroke:none"/>
        <path d="M149 54.5v4l5.5 5.5h3l4 4h7l1.5-1.5v-4l-4.5-4.5h-4l-6-6h-4Zm-1 44 2.5-2.5h11l13 13h5.5v4.5l-5.5 5.5H170v-7.5l-7.5-7.5-.5.5v8l-3 3-6.5-6.5 3-3Z" style="stroke:none"/>
        <path d="M149 58.5v-4l2.5-2.5h4l6 6h4l4.5 4.5v4l-1.5 1.5h-7l-4-4h-3Z" style="fill:#b0bac0;stroke:none"/>
        <path d="m148.5 252 .5-.5v-2l7.5-7.5 8.5 8.5 8.5-8.5h2l6 6-.5.5v3l-3.5-3.5h-2l-2.5 2.5v3l3.5 3.5 4.5-4.5v4l-4.5 4.5-3.5-3.5v-1l-.5-.5-8 8h-4Z" style="fill:#d06b53;stroke:none"/>
        <path d="m149.5 236 11-11h5l4 4-13.5 13.5Z" style="fill:#989aa4;stroke:none"/>
        <path d="m150.5 332 4.5 4.5 10.5-10.5-4.5-4.5ZM152 78.5v8l4 4 5-5v-3l-5.5-5.5h-2Z" style="fill:#b0bac0;stroke:none"/>
        <path d="m150.5 332 10.5-10.5 4.5 4.5-10.5 10.5ZM152 86.5v-8l1.5-1.5h2l5.5 5.5v3l-5 5Z" style="fill:#989aa4;stroke:none"/>
        <path d="M154 194.5v2l.5.5h2l4-4-2.5-2.5Z" style="fill:#b0bac0;stroke:none"/>
        <path d="m154 161.5 9.5-9.5h4.5v5.5l-5.5 5.5h-3l-2 2Zm.5 35.5-.5-.5v-2l4-4 2.5 2.5-4 4Z" style="stroke:none"/>
        <path d="M155 171.5v-3l1-1 4 4 5-5 8 8-5.5 5.5h-4Z" style="fill:#ffa665;stroke:none"/>
        <path d="M157 29.5v3l3 3 1-1v-3l-3-3Z" style="fill:#b0bac0;stroke:none"/>
        <path d="M156 167.5v-1l3.5-3.5h3l5.5-5.5V152h3.5l2.5 2.5v6l6.5 6.5-7.5 7.5-8-8-5 5Z" style="fill:#d06b53;stroke:none"/>
        <path d="m156 270.5 4.5-4.5h3l9.5 9.5-2.5 2.5h-7Z" style="fill:#b0bac0;stroke:none"/>
        <path d="M157 32.5v-3l1-1 3 3v3l-1 1Z" style="stroke:none"/>
        <path d="m158 183.5 3.5 3.5 2.5-2.5-3.5-3.5Z" style="fill:#b0bac0;stroke:none"/>
        <path d="m156.5 242 14-14h3l11.5 11.5v4l-4 4-5.5-5.5h-2l-8.5 8.5Z" style="fill:#ffa665;stroke:none"/>
        <path d="m158 183.5 2.5-2.5 3.5 3.5-2.5 2.5Z" style="fill:#989aa4;stroke:none"/>
        <path d="M160 15.5v7l19 19v6L190.5 59l.5-.5v-16L163.5 15h-3Z" style="fill:#b0bac0;stroke:none"/>
        <path d="m158.5 127 9.5-9.5 1.5 1.5h.5v3.5l-8 8Z" style="fill:#ffa665;stroke:none"/>
        <path d="M160 22.5v-7l.5-.5h3L191 42.5v16l-.5.5L179 47.5v-6Z" style="fill:#989aa4;stroke:none"/>
        <path d="M164 36.5v3l7 7 1-1v-3l-7-7Z" style="fill:#b0bac0;stroke:none"/>
        <path d="M164 39.5v-3l1-1 7 7v3l-1 1Z" style="fill:#989aa4;stroke:none"/>
        <path d="M165 89.5v2l10.5 10.5h2l5.5-5.5v-2L172.5 84h-2Z" style="fill:#b0bac0;stroke:none"/>
        <path d="M165 91.5v-2l5.5-5.5h2l8.5 8.5-7.5 7.5Z" style="fill:#989aa4;stroke:none"/>
        <path d="M166 186.5v5l5.5 5.5h4l6.5-6.5v-7l-3.5-3.5h-6Z" style="fill:#b0bac0;stroke:none"/>
        <path d="M166 191.5v-5l6.5-6.5h6l3.5 3.5v7l-6.5 6.5h-4Z" style="fill:#989aa4;stroke:none"/>
        <path d="M170 134.5v-2l3.5-3.5h2l13.5 13.5v4l-2.5 2.5h-2Z" style="stroke:none"/>
        <path d="M184.5 149h-4l-9.5-9.5v-3l.5-.5Z" style="fill:#989aa4;stroke:none"/>
        <path d="M171 211.5v-5l10-10 3.5 3.5-7 7 4.5 4.5v2l-4.5 4.5Z" style="fill:#ffa665;stroke:none"/>
        <path d="M172 265.5v2l5.5 5.5 4.5-4.5-5.5-5.5h-2Zm-.5-113.5h4l5 5h7l1.5 1.5v7l-2.5 2.5h-2l-2.5-2.5v-1l-3.5-3.5h-3l-.5.5-1-1v-6Z" style="stroke:none"/>
        <path d="M172 267.5v-2l2.5-2.5h2l3 3-.5.5v1l-2.5 2.5h-1l-.5.5Z" style="fill:#b0bac0;stroke:none"/>
        <path d="M173 253.5v-3l2.5-2.5h2l3.5 3.5v1l-4.5 4.5Z" style="fill:#ffa665;stroke:none"/>
        <path d="m173.5 100 7.5-7.5 2 2v2l-5.5 5.5h-2Z" style="stroke:none"/>
        <path d="m175 118.5 5-5V109h3.5l5.5 5.5v11l-3.5 3.5Zm0 43 .5-.5h3l3.5 3.5v1l2 2-4.5 4.5h-3l-.5-.5 4.5-4.5Zm0 109 .5-.5h1l2.5-2.5v-1l.5-.5 2.5 2.5-4.5 4.5Z" style="fill:#989aa4;stroke:none"/>
        <path d="m177.5 207 7-7 7.5 7.5v5l-3 3v5l-3.5 3.5h-2l-6-6 4.5-4.5v-2Z" style="fill:#d06b53;stroke:none"/>
        <path d="m180 119.5 3 3 1-1v-3l-3-3-1 1Z" style="fill:#989aa4;stroke:none"/>
        <path d="M180 119.5v-3l1-1 3 3v3l-1 1Z" style="fill:#b0bac0;stroke:none"/>
        <path d="m186.5 253 3-3h2l8.5 8.5v2l-8 8-11.5-11.5.5-.5v-8l.5-.5ZM183 39.5v6l5.5 5.5.5-.5v-6l-5.5-5.5Z" style="fill:#989aa4;stroke:none"/>
        <path d="m183 311.5 2.5 2.5 3.5-3.5-2.5-2.5Z" style="stroke:none"/>
        <path d="M189 44.5v6l-.5.5-5.5-5.5v-6l.5-.5Zm-5 145v5l7 7 1-1v-3l9 9 4.5-4.5-9.5-9.5-3.5 3.5-7.5-7.5Z" style="fill:#b0bac0;stroke:none"/>
        <path d="M184 285.5v12l.5.5 6-6 .5.5v10l12.5 12.5h11l12.5-12.5v7l.5.5 4.5-4.5v-10l-4.5-4.5h-1l-12-12h-11l-1.5 1.5-5.5-5.5h-2Z" style="stroke:none"/>
        <path d="m183 311.5 3.5-3.5 2.5 2.5-3.5 3.5Z" style="fill:#b0bac0;stroke:none"/>
        <path d="M184 194.5v-5l1-1 5.5 5.5-3.5 3.5Z" style="fill:#ffa665;stroke:none"/>
        <path d="m184.5 298-.5-.5v-12l10.5-10.5h2l5.5 5.5ZM186 97.5v3l5.5 5.5h3l.5-.5v-2l-6.5-6.5h-2Z" style="fill:#b0bac0;stroke:none"/>
        <path d="m185 138.5.5-.5h4l8.5 8.5v15l.5.5-4.5 4.5-2.5-2.5H189v-5.5l-1.5-1.5 2.5-2.5v-2l-3.5-3.5 2.5-2.5v-4Zm1-38v-3l.5-.5h2l6.5 6.5v2l-.5.5h-3Z" style="fill:#989aa4;stroke:none"/>
        <path d="m186.5 318 11 11h3l4-4-12.5-12.5Z" style="stroke:none"/>
        <path d="M188 181.5v2l2.5 2.5h2l2.5-2.5v-2l-2.5-2.5h-2Z" style="fill:#b0bac0;stroke:none"/>
        <path d="m187 197.5 3.5-3.5 2 2-.5.5v4l-1 1Z" style="fill:#d06b53;stroke:none"/>
        <path d="m186.5 318 5.5-5.5 12.5 12.5-4 4h-3Zm1-234 2.5-2.5v-9l15 15-1 1V91h-1.5l-7-7Z" style="fill:#989aa4;stroke:none"/>
        <path d="M188 183.5v-2l2.5-2.5h2l2.5 2.5v2l-2.5 2.5h-2Z" style="stroke:none"/>
        <path d="m189 223.5-1.5-1.5 1.5-1.5v-5l3-3v-3l3.5 3.5h4Z" style="fill:#989aa4;stroke:none"/>
        <path d="M197 28.5v7l-.5.5-6-6 .5-.5v-6l.5-.5Zm-6 144 3-3v-3l4.5-4.5 4 4h14l6-6h8l4 4h3l4 4-1.5 1.5v4l1.5 1.5h8l4 4h2.5v3.5L241.5 197h-11l-17-17h-7l-4 4Z" style="stroke:none"/>
        <path d="M191 302.5v-10l-.5-.5 13-13h11l12 12h.5v11.5L214.5 315h-11Z" style="fill:#989aa4;stroke:none"/>
        <path d="M193 128.5v4l4 4 1-1v-4l-4-4Z" style="fill:#b0bac0;stroke:none"/>
        <path d="M192 197.5v-1l4-4 9.5 9.5-4.5 4.5Z" style="fill:#989aa4;stroke:none"/>
        <path d="M193 132.5v-4l1-1 4 4v4l-1 1Z" style="stroke:none"/>
        <path d="M195 53.5v17l2.5 2.5h2l.5-.5 9 9 1-1v-11l-6-6v-7l-6-6Z" style="fill:#b0bac0;stroke:none"/>
        <path d="M195 294.5v5l11.5 11.5h5l11.5-11.5v-5L211.5 283h-5Z" style="fill:#989aa4;stroke:none"/>
        <path d="M195 70.5v-17l3-3 6 6v12l-4.5 4.5h-2Zm0 229v-5l11.5-11.5h5l11.5 11.5v5L211.5 311h-5Z" style="stroke:none"/>
        <path d="M198 99.5v6l10.5 10.5h3l.5-.5v-5L200.5 99h-2Z" style="fill:#b0bac0;stroke:none"/>
        <path d="M198 105.5v-6l.5-.5h2l11.5 11.5v5l-.5.5h-3Z" style="fill:#989aa4;stroke:none"/>
        <path d="m198.5 297 10.5 10.5 10.5-10.5-10.5-10.5Z" style="stroke:none"/>
        <path d="m198.5 297 10.5-10.5 10.5 10.5-10.5 10.5ZM200 72.5l4-4v-5l6 6v11l-1 1Z" style="fill:#989aa4;stroke:none"/>
        <path d="M202 123.5v4l3.5 3.5h6l.5-.5 6.5 6.5h9l3 3h3l1.5-1.5v-2l-6.5-6.5h-6l-6-6h-4l-1.5 1.5-4.5-4.5h-2Z" style="fill:#b0bac0;stroke:none"/>
        <path d="M202 127.5v-4l2.5-2.5h2l4.5 4.5-1 1v2l2 2-.5.5h-6Z" style="fill:#989aa4;stroke:none"/>
        <path d="m204 141.5 3.5 3.5h4l.5-.5-3.5-3.5h-4Zm0 11v3l2.5 2.5h4l2.5-2.5v-3l-2.5-2.5h-4Zm0 39 5.5 5.5 4.5-4.5v-2l-3.5-3.5h-2Z" style="fill:#b0bac0;stroke:none"/>
        <path d="m203.5 274 4 4 2.5-2.5-4-4Z" style="stroke:none"/>
        <path d="m203.5 297 5.5 5.5 5.5-5.5-5.5-5.5Zm.5-155.5.5-.5h4l3.5 3.5-.5.5h-4Zm0 14v-3l2.5-2.5h4l2.5 2.5v3l-2.5 2.5h-4Zm0 36 4.5-4.5h2l3.5 3.5v2l-4.5 4.5Zm0 58 5.5-5.5 7 7-5.5 5.5Zm-.5 24.5 2.5-2.5 4 4-2.5 2.5Z" style="fill:#989aa4;stroke:none"/>
        <path d="m203.5 297 5.5-5.5 5.5 5.5-5.5 5.5Z" style="fill:#b0bac0;stroke:none"/>
        <path d="M206 264.5v2l9 9 4.5-4.5-9-9h-2Z" style="stroke:none"/>
        <path d="M206 266.5v-2l2.5-2.5h2l9 9-4.5 4.5Z" style="fill:#989aa4;stroke:none"/>
        <path d="M210 128.5v-2l2.5-2.5h4l6 6h6l6.5 6.5v2l-1.5 1.5h-3l-3-3h-9Z" style="stroke:none"/>
        <path d="m209.5 244 6-6 7 7h4l5-5 16.5 16.5v14l-4 4v8l-8.5 8.5h-1l-5.5-5.5 6-6v-5l5-5v-9l-.5-.5-11 11-16-16 4-4Z" style="fill:#b0bac0;stroke:none"/>
        <path d="m215.5 238 7-7 9 9-5 5h-4Z" style="fill:#989aa4;stroke:none"/>
        <path d="M219 145.5v5l5.5 5.5h16l3-3-7-7h-10l-3-3h-2Z" style="fill:#b0bac0;stroke:none"/>
        <path d="M219 150.5v-5l2.5-2.5h2l3 3h10l7 7-3 3h-6l-6-6h-3l-3.5 3.5Z" style="stroke:none"/>
        <path d="m218.5 210 5-5 16.5 16.5v10Z" style="fill:#989aa4;stroke:none"/>
        <path d="M222 173.5v2l4.5 4.5h2l7-7-6.5-6.5Z" style="stroke:none"/>
        <path d="m222 153.5 3.5-3.5h3l6 6h-10Zm0 22v-2l7-7 6.5 6.5-7 7h-2Z" style="fill:#989aa4;stroke:none"/>
        <path d="M224 255.5v4l5 5 1-1v-4l-5-5Z" style="fill:#b0bac0;stroke:none"/>
        <path d="m223 277.5 5-5v-1l11.5-11.5.5.5v9l-5 5v5l-5 5Z" style="fill:#989aa4;stroke:none"/>
        <path d="M224 259.5v-4l1-1 5 5v4l-1 1Z" style="stroke:none"/>
        <path d="M232 295.5v10l-4.5 4.5-.5-.5V291h.5Z" style="fill:#b0bac0;stroke:none"/>
        <path d="M237.5 164h7l4 4-2.5 2.5-2.5-2.5h-2Z" style="fill:#989aa4;stroke:none"/>
    </g>
</svg>
