<svg xmlns="http://www.w3.org/2000/svg" width="280" height="400" style="fill-opacity:1;color-rendering:auto;color-interpolation:auto;text-rendering:auto;stroke:#000;stroke-linecap:square;stroke-miterlimit:10;shape-rendering:auto;stroke-opacity:1;fill:#000;stroke-dasharray:none;font-weight:400;stroke-width:1;font-family:&quot;Dialog&quot;;font-style:normal;stroke-linejoin:miter;font-size:12px;stroke-dashoffset:0;image-rendering:auto">
    <g style="stroke-linecap:round;fill:#dcc6c6;stroke:#dcc6c6">
        <path stroke="none" d="m64 233.5 7-7 6 6-7 7Z" style="stroke:none"/>
    </g>
    <g stroke="none" style="stroke-linecap:round;fill:#fff;stroke:#fff">
        <path d="m71 226.5 5.5-5.5h2l3.5 3.5v3l-5 5Z" style="stroke:none"/>
        <path d="M74 179.5v-8l3.5-3.5h2l.5.5v7.5h-2.5Z" style="fill:#dcc6c6;stroke:none"/>
        <path d="m75 187.5-1-1v-7l3.5-3.5H80v6.5Z" style="stroke:none"/>
        <path d="M81 153.5v-13l6.5-6.5h5l4 4Z" style="fill:#dcc6c6;stroke:none"/>
        <path d="M81 155.5v-2L96.5 138l.5.5v8l2 2v2l-8.5 8.5h-6Z" style="stroke:none"/>
        <path d="M102 184.5v-10l5-5 9.5 9.5-10 10Zm-.5 72.5 5-5h6l8.5 8.5-8 8Z" style="fill:#dcc6c6;stroke:none"/>
        <path d="m106.5 189 10-10 10 10-9 9h-2Zm6.5 79.5 8-8 7.5 7.5h7l3-3h3l3 3h7l7.5-7.5 8 8-16.5 16.5h-3l-7.5 7.5-7.5-7.5h-3Z" style="stroke:none"/>
        <path d="M129.5 285h3l7.5 7.5 7.5-7.5h3l7-7 .5.5v9l-18 18-18-18v-9l.5-.5Z" style="fill:#dcc6c6;stroke:none"/>
        <path d="m153.5 189 10-10 10 10-9 9h-2Z" style="stroke:none"/>
        <path d="m159 260.5 8.5-8.5h6l5 5-11.5 11.5Zm4.5-81.5 9.5-9.5 5 5v10l-4.5 4.5Z" style="fill:#dcc6c6;stroke:none"/>
        <path d="M181 150.5v-2l2-2v-8l.5-.5 15.5 15.5v2l-3.5 3.5h-6Z" style="stroke:none"/>
        <path d="m183.5 138 4-4h5l6.5 6.5v13Z" style="fill:#dcc6c6;stroke:none"/>
        <path d="M198 227.5v-3l3.5-3.5h2l5.5 5.5-6 6Z" style="stroke:none"/>
        <path d="M200 176v-7.5l.5-.5h2l3.5 3.5v8l-3.5-3.5Z" style="fill:#dcc6c6;stroke:none"/>
        <path d="M200 182.5V176h2.5l3.5 3.5v7l-1 1Z" style="stroke:none"/>
        <path d="m203 232.5 6-6 7 7-6 6Z" style="fill:#dcc6c6;stroke:none"/>
    </g>
</svg>
