<svg xmlns="http://www.w3.org/2000/svg" width="64" height="64" style="fill-opacity:1;color-rendering:auto;color-interpolation:auto;text-rendering:auto;stroke:#000;stroke-linecap:square;stroke-miterlimit:10;shape-rendering:auto;stroke-opacity:1;fill:#000;stroke-dasharray:none;font-weight:400;stroke-width:1;font-family:&quot;Dialog&quot;;font-style:normal;stroke-linejoin:miter;font-size:12px;stroke-dashoffset:0;image-rendering:auto">
    <g style="stroke-linecap:round;fill:#6e7080;stroke:#6e7080">
        <path stroke="none" d="M43 14V9.5l.5-.5h3L57 19.5V25h-1.5l-11-11Z" style="stroke:none"/>
    </g>
    <g stroke="none" style="stroke-linecap:round;fill:#565666;stroke:#565666">
        <path d="M43 20v-6h1.5l11 11H57v17.5l-7 7-4.5-4.5H44v-5h1.5l8.5-8.5v-3L45.5 20Z" style="stroke:none"/>
        <path d="M43 22.5V20h2.5l8.5 8.5v3L45.5 40H44v-6.5l4-4v-2l-.5-.5H47v-.5ZM44.5 52l-.5-.5V45h1.5l4.5 4.5-2.5 2.5Z" style="fill:#6e7080;stroke:none"/>
    </g>
</svg>
