<svg xmlns="http://www.w3.org/2000/svg" width="58" height="48" style="fill-opacity:1;color-rendering:auto;color-interpolation:auto;text-rendering:auto;stroke:#000;stroke-linecap:square;stroke-miterlimit:10;shape-rendering:auto;stroke-opacity:1;fill:#000;stroke-dasharray:none;font-weight:400;stroke-width:1;font-family:&quot;Dialog&quot;;font-style:normal;stroke-linejoin:miter;font-size:12px;stroke-dashoffset:0;image-rendering:auto">
    <g style="stroke-linecap:round;fill:#dcc6c6;stroke:#dcc6c6">
        <path stroke="none" d="M5.5 25 7 23.5l3.5 3.5L9 28.5Z" style="stroke:none"/>
    </g>
    <g stroke="none" style="stroke-linecap:round;fill:#fff;stroke:#fff">
        <path d="M7 23.5 9.5 21l3.5 3.5-2.5 2.5Z" style="stroke:none"/>
        <path d="m14.5 39 1.5-1.5 4.5 4.5-1.5 1.5Z" style="fill:#dcc6c6;stroke:none"/>
        <path d="m16 37.5 2-2 4.5 4.5-2 2Z" style="stroke:none"/>
        <path d="M21 29.5v-3l2.5-2.5.5.5v2Z" style="fill:#dcc6c6;stroke:none"/>
        <path d="M21 32.5v-3l3-3v4l2.5 2.5h5l2.5-2.5v-4l3 3v3l-3 3v3L30.5 42h-3L24 38.5v-3Z" style="stroke:none"/>
        <path d="M27.5 42h3l3.5-3.5v4L30.5 46h-3L24 42.5v-4ZM37 26.5v3l-3-3v-2l.5-.5Z" style="fill:#dcc6c6;stroke:none"/>
        <path d="m35.5 40 4.5-4.5 2 2-4.5 4.5Z" style="stroke:none"/>
        <path d="M39 43.5 37.5 42l4.5-4.5 1.5 1.5Z" style="fill:#dcc6c6;stroke:none"/>
        <path d="m45 24.5 3.5-3.5 2.5 2.5-3.5 3.5Z" style="stroke:none"/>
        <path d="M49 28.5 47.5 27l3.5-3.5 1.5 1.5Z" style="fill:#dcc6c6;stroke:none"/>
    </g>
</svg>
