<svg xmlns="http://www.w3.org/2000/svg" width="68" height="58" style="fill-opacity:1;color-rendering:auto;color-interpolation:auto;text-rendering:auto;stroke:#000;stroke-linecap:square;stroke-miterlimit:10;shape-rendering:auto;stroke-opacity:1;fill:#000;stroke-dasharray:none;font-weight:400;stroke-width:1;font-family:&quot;Dialog&quot;;font-style:normal;stroke-linejoin:miter;font-size:12px;stroke-dashoffset:0;image-rendering:auto">
    <g style="stroke-linecap:round;fill:#989aa4;stroke:#989aa4">
        <path stroke="none" d="m9 35.5 3.5-3.5 1.5 1.5 14-14v-1l4.5-4.5h3l4.5 4.5v1l14 14 1.5-1.5 3.5 3.5-2.5 2.5-3-3-5.5 5.5-2-2 .5-.5h1l4-4-6.5-6.5-.5.5-5.5-5.5v-1L35.5 18h-3L29 21.5v1L23.5 28h-1l-6 6 4 4h1l.5.5-2 2-5.5-5.5-3 3Z" style="stroke:none"/>
    </g>
    <g stroke="none" style="stroke-linecap:round;fill:#b0bac0;stroke:#b0bac0">
        <path d="m9 40.5 5.5-5.5 5.5 5.5-5.5 5.5Z" style="stroke:none"/>
        <path d="m10.5 30 3.5-3.5v-6l3.5 3.5h2l.5-.5 2 2-8 8Z" style="fill:#6e7080;stroke:none"/>
        <path d="m18.5 20 3.5-3.5 2.5 2.5-5 5h-2L14 20.5v-4l.5-.5Z" style="fill:#989aa4;stroke:none"/>
        <path d="m14.5 16 3.5-3.5 4 4-3.5 3.5Z" style="stroke:none"/>
        <path d="m16.5 34 3.5-3.5 4 4v1l.5.5-2.5 2.5-.5-.5h-1Z" style="fill:#84f491;stroke:none"/>
        <path d="m19 41.5 6.5-6.5 6 6-6.5 6.5Z" style="fill:#6e7080;stroke:none"/>
        <path d="m20 23.5 4.5-4.5H28v.5l-6 6Z" style="stroke:none"/>
        <path d="m20 30.5 2.5-2.5h1l3 3-.5.5v3L24.5 36l-.5-.5v-1Z" style="fill:#62ae7f;stroke:none"/>
        <path d="m23.5 28 5.5-5.5v6L26.5 31Z" style="stroke:none"/>
        <path d="m26.5 36-1-1 .5-.5v-3l3-3V34h-.5Z" style="fill:#989aa4;stroke:none"/>
        <path d="m26.5 36 2-2h.5v1.5l2.5 2.5h5l2.5-2.5v-2l2.5 2.5-5 5h-5Z" style="stroke:none"/>
        <path d="M29 27.5v-6l3.5-3.5h3l3.5 3.5v6l-2-2v-2l-3-3-3 3v2Z" style="fill:#62ae7f;stroke:none"/>
        <path d="M29 31.5v-4l2-2V25h6v.5l2 2v4L35.5 28h-3Z" style="fill:#6e7080;stroke:none"/>
        <path d="M29.5 35H29v-3.5l3.5-3.5h3l3.5 3.5v4l-5-5Z" style="fill:#62ae7f;stroke:none"/>
        <path d="M29 35.5V35h.5l4.5-4.5 5 5-2.5 2.5h-5ZM31 25v-1.5l3-3 3 3V25Z" style="fill:#84f491;stroke:none"/>
        <path d="m36.5 41 6-6 6.5 6.5-6 6Z" style="fill:#6e7080;stroke:none"/>
        <path d="m44.5 28-3 3-2.5-2.5v-6Z" style="stroke:none"/>
        <path d="M42 31.5v3l.5.5-1 1-2.5-2.5v-5Z" style="fill:#989aa4;stroke:none"/>
        <path d="M40 19.5V19h3.5l4.5 4.5-2 2Z" style="stroke:none"/>
        <path d="M42 34.5v-3l-.5-.5 3.5-3.5 3 3-4 4v1l-.5.5Z" style="fill:#62ae7f;stroke:none"/>
        <path d="m43.5 19 2.5-2.5 3.5 3.5 4-4 .5.5v4L50.5 24h-2Z" style="fill:#989aa4;stroke:none"/>
        <path d="m43.5 36 .5-.5v-1l4-4 3.5 3.5-4 4h-1l-.5.5Z" style="fill:#84f491;stroke:none"/>
        <path d="m46 16.5 4-4 3.5 3.5-4 4Z" style="stroke:none"/>
        <path d="m46 25.5 2-2 .5.5h2l3.5-3.5v6l3.5 3.5-3.5 3.5Z" style="fill:#6e7080;stroke:none"/>
        <path d="m48 40.5 5.5-5.5 5.5 5.5-5.5 5.5Z" style="stroke:none"/>
    </g>
</svg>
