<svg xmlns="http://www.w3.org/2000/svg" width="220" height="220" style="fill-opacity:1;color-rendering:auto;color-interpolation:auto;text-rendering:auto;stroke:#000;stroke-linecap:square;stroke-miterlimit:10;shape-rendering:auto;stroke-opacity:1;fill:#000;stroke-dasharray:none;font-weight:400;stroke-width:1;font-family:&quot;Dialog&quot;;font-style:normal;stroke-linejoin:miter;font-size:12px;stroke-dashoffset:0;image-rendering:auto">
    <g style="stroke-linecap:round;fill:#dcc6c6;stroke:#dcc6c6">
        <path stroke="none" d="m30.5 120-.5-.5 7.5-7.5h2l4 4-4 4Z" style="stroke:none"/>
    </g>
    <g stroke="none" style="stroke-linecap:round;fill:#fff;stroke:#fff">
        <path d="m39.5 112 11-11 4 4-11 11Z" style="stroke:none"/>
        <path d="M55 99.5v5l-.5.5-4-4 .5-.5v-4l.5-.5Z" style="fill:#dcc6c6;stroke:none"/>
        <path d="M56 57.5v-2l.5-.5h5l2.5 2.5-4 4Z" style="stroke:none"/>
        <path d="m60 61.5 4-4 4.5 4.5-4 4Zm7 93-1-1v-8l3.5-3.5.5.5v6l1.5 1.5Z" style="fill:#dcc6c6;stroke:none"/>
        <path d="m67 154.5 4.5-4.5 5.5 5.5-2.5 2.5h-4Z" style="stroke:none"/>
        <path d="m74 124.5 3.5-3.5h2l-1.5 1.5 5.5 5.5h-6Z" style="fill:#dcc6c6;stroke:none"/>
        <path d="m78 122.5 1.5-1.5h10l.5.5-6.5 6.5Z" style="stroke:none"/>
        <path d="m96.5 76-.5-.5v-6l3.5-3.5.5.5v5l.5.5Zm.5 33.5.5-.5h2l2.5-2.5 4 4v8Z" style="fill:#dcc6c6;stroke:none"/>
        <path d="m100.5 72-.5-.5v-5l-.5-.5 3-3 .5.5v6Zm1.5 34.5 8-8 8 8-4 4v8l-4 4-4-4v-8Z" style="stroke:none"/>
        <path d="m110 122.5 4-4v8l-4 4-4-4v-8Zm4-4v-8l4-4 2.5 2.5h2l.5.5Z" style="fill:#dcc6c6;stroke:none"/>
        <path d="m120.5 66-.5.5v5l-.5.5-2.5-2.5v-6l.5-.5Z" style="stroke:none"/>
        <path d="M124 69.5v6l-.5.5-4-4 .5-.5v-5l.5-.5Z" style="fill:#dcc6c6;stroke:none"/>
        <path d="m130 121.5.5-.5h10l1.5 1.5-5.5 5.5Z" style="stroke:none"/>
        <path d="m136.5 128 5.5-5.5-1.5-1.5h2l3.5 3.5-3.5 3.5Z" style="fill:#dcc6c6;stroke:none"/>
        <path d="m143 155.5 5.5-5.5 4.5 4.5-3.5 3.5h-4Z" style="stroke:none"/>
        <path d="m148.5 150 1.5-1.5v-6l.5-.5 3.5 3.5v8l-1 1Zm3-88 4.5-4.5 4 4-4.5 4.5Z" style="fill:#dcc6c6;stroke:none"/>
        <path d="m156 57.5 2.5-2.5h5l.5.5v2l-4 4Z" style="stroke:none"/>
        <path d="m165.5 105-.5-.5v-5l3.5-3.5.5.5v4l.5.5Z" style="fill:#dcc6c6;stroke:none"/>
        <path d="m165.5 105 4-4 11 11-4 4Z" style="stroke:none"/>
        <path d="m176.5 116 4-4h2l7.5 7.5-.5.5h-9Z" style="fill:#dcc6c6;stroke:none"/>
    </g>
</svg>
