<svg xmlns="http://www.w3.org/2000/svg" width="80" height="80" style="fill-opacity:1;color-rendering:auto;color-interpolation:auto;text-rendering:auto;stroke:#000;stroke-linecap:square;stroke-miterlimit:10;shape-rendering:auto;stroke-opacity:1;fill:#000;stroke-dasharray:none;font-weight:400;stroke-width:1;font-family:&quot;Dialog&quot;;font-style:normal;stroke-linejoin:miter;font-size:12px;stroke-dashoffset:0;image-rendering:auto">
    <g style="stroke-linecap:round;fill:#565666;stroke:#565666">
        <path stroke="none" d="m17.5 32-.5-.5 6.5-6.5h33l6.5 6.5-.5.5h-4l-.5.5 5 5v9l-5 5 .5.5h4l.5.5-6.5 6.5h-33L17 52.5l.5-.5h4l.5-.5-5-5v-9l5-5-.5-.5Z" style="stroke:none"/>
    </g>
    <g stroke="none" style="stroke-linecap:round;fill:#565666;stroke:#565666">
        <path d="M24 39.5v5l8.5 8.5h15l8.5-8.5v-5L47.5 31h-15Z" style="stroke:none"/>
        <path d="M24 44.5v-5l8.5-8.5h15l8.5 8.5v5L47.5 53h-15Z" style="fill:#6e7080;stroke:none"/>
    </g>
</svg>
