<svg xmlns="http://www.w3.org/2000/svg" width="152" height="124" style="fill-opacity:1;color-rendering:auto;color-interpolation:auto;text-rendering:auto;stroke:#000;stroke-linecap:square;stroke-miterlimit:10;shape-rendering:auto;stroke-opacity:1;fill:#000;stroke-dasharray:none;font-weight:400;stroke-width:1;font-family:&quot;Dialog&quot;;font-style:normal;stroke-linejoin:miter;font-size:12px;stroke-dashoffset:0;image-rendering:auto">
    <g style="stroke-linecap:round;fill:#555565;stroke:#555565">
        <path stroke="none" d="M104 83.5v-25l10-10v-33l4.5-4.5h13L144 23.5v10l6 6v16l-3 3v.5h-12.5l-9.5 9.5 4 4 7.5-7.5H150v4h-12.5l-7 7h-6l-4-4h-5Z" style="stroke:none"/>
    </g>
    <g stroke="none" style="stroke-linecap:round;fill:#6d6f7f;stroke:#6d6f7f">
        <path d="M104 86.5v-3L115.5 72h5l4 4h6l7-7H150v19.5l-6 6v4l-5.5 5.5h-17Z" style="stroke:none"/>
        <path d="m125 68.5 9.5-9.5H146v2.5l2.5 2.5h.5v.5l.5.5h-13l-7.5 7.5Z" style="stroke:none"/>
    </g>
</svg>
