<svg xmlns="http://www.w3.org/2000/svg" width="152" height="124" style="fill-opacity:1;color-rendering:auto;color-interpolation:auto;text-rendering:auto;stroke:#000;stroke-linecap:square;stroke-miterlimit:10;shape-rendering:auto;stroke-opacity:1;fill:#000;stroke-dasharray:none;font-weight:400;stroke-width:1;font-family:&quot;Dialog&quot;;font-style:normal;stroke-linejoin:miter;font-size:12px;stroke-dashoffset:0;image-rendering:auto">
    <g style="stroke-linecap:round;fill:#555565;stroke:#555565">
        <path stroke="none" d="M5 71.5v-14l3-3v-4l5.5-5.5h4l9-9h8l4-4h7l4-4h8l4-4h6l7 7h3l7-7h6l4 4h8l4 4h7l4 4h8l9 9h4l5.5 5.5v4l3 3v14l-12 12v4l-5.5 5.5h-8l-3 3h-6l-1-1-5 5h-8l-3 3h-6l-7-7h-2l-3 3h-3l-3-3h-2l-7 7h-6l-3-3h-8l-5-5-1 1h-6l-3-3h-8L17 87.5v-4Z" style="stroke:none"/>
    </g>
</svg>
