<svg xmlns="http://www.w3.org/2000/svg" width="70" height="78" style="fill-opacity:1;color-rendering:auto;color-interpolation:auto;text-rendering:auto;stroke:#000;stroke-linecap:square;stroke-miterlimit:10;shape-rendering:auto;stroke-opacity:1;fill:#000;stroke-dasharray:none;font-weight:400;stroke-width:1;font-family:&quot;Dialog&quot;;font-style:normal;stroke-linejoin:miter;font-size:12px;stroke-dashoffset:0;image-rendering:auto">
    <g style="stroke-linecap:round;fill:#dcc6c6;stroke:#dcc6c6">
        <path stroke="none" d="m17 48.5 2-2 4 4-2 2Z" style="stroke:none"/>
    </g>
    <g stroke="none" style="stroke-linecap:round;fill:#fff;stroke:#fff">
        <path d="m19 46.5 2-2 3 3v2l-1 1Z" style="stroke:none"/>
        <path d="m27 36.5 3-3 3 3-3 3ZM28.5 48l2-2 4.5 4.5 4.5-4.5 2 2-6.5 6.5Z" style="fill:#dcc6c6;stroke:none"/>
        <path d="m30 33.5 5-5 5 5-3.5 3.5h-3Zm.5 12.5 2-2h5l2 2-4.5 4.5Z" style="stroke:none"/>
        <path d="m37 36.5 3-3 3 3-3 3Z" style="fill:#dcc6c6;stroke:none"/>
        <path d="m47 50.5-1-1v-2l3-3 2 2Z" style="stroke:none"/>
        <path d="m47 50.5 4-4 2 2-4 4Z" style="fill:#dcc6c6;stroke:none"/>
    </g>
</svg>
