<svg xmlns="http://www.w3.org/2000/svg" width="96" height="96" style="fill-opacity:1;color-rendering:auto;color-interpolation:auto;text-rendering:auto;stroke:#000;stroke-linecap:square;stroke-miterlimit:10;shape-rendering:auto;stroke-opacity:1;fill:#000;stroke-dasharray:none;font-weight:400;stroke-width:1;font-family:&quot;Dialog&quot;;font-style:normal;stroke-linejoin:miter;font-size:12px;stroke-dashoffset:0;image-rendering:auto">
    <g style="stroke-linecap:round;fill:#dcc6c6;stroke:#dcc6c6">
        <path stroke="none" d="m25.5 56 4.5-4.5 2.5 2.5-4.5 4.5Z" style="stroke:none"/>
    </g>
    <g stroke="none" style="stroke-linecap:round;fill:#fff;stroke:#fff">
        <path d="m28 58.5 4.5-4.5 4.5 4.5-3.5 3.5h-2Z" style="stroke:none"/>
        <path d="m33.5 43 3.5-3.5 2.5 2.5-3.5 3.5Z" style="fill:#dcc6c6;stroke:none"/>
        <path d="m36 45.5 3.5-3.5 1.5 1.5v2L39.5 47h-2Zm8 9v-3l4-4 4 4v3l-4 4Z" style="stroke:none"/>
        <path d="m48 58.5 4-4v5l-4 4-4-4v-5Z" style="fill:#dcc6c6;stroke:none"/>
        <path d="M55 45.5v-2l1.5-1.5 3.5 3.5-1.5 1.5h-2Z" style="stroke:none"/>
        <path d="m56.5 42 2.5-2.5 3.5 3.5-2.5 2.5Z" style="fill:#dcc6c6;stroke:none"/>
        <path d="m59 58.5 4.5-4.5 4.5 4.5-3.5 3.5h-2Z" style="stroke:none"/>
        <path d="m63.5 54 2.5-2.5 4.5 4.5-2.5 2.5Z" style="fill:#dcc6c6;stroke:none"/>
    </g>
</svg>
