<svg xmlns="http://www.w3.org/2000/svg" width="128" height="128" style="fill-opacity:1;color-rendering:auto;color-interpolation:auto;text-rendering:auto;stroke:#000;stroke-linecap:square;stroke-miterlimit:10;shape-rendering:auto;stroke-opacity:1;fill:#000;stroke-dasharray:none;font-weight:400;stroke-width:1;font-family:&quot;Dialog&quot;;font-style:normal;stroke-linejoin:miter;font-size:12px;stroke-dashoffset:0;image-rendering:auto">
    <g style="stroke-linecap:round;fill:#555565;stroke:#555565">
        <path stroke="none" d="M89 68.5v-12l4-4v-20l3.5-3.5h12l8.5 8.5v13l4 4v7l-4 4v2l-.5.5-5-5-6.5 6.5L117.5 82h2.5v1.5l-3 3v.5h-1.5l-8-8-6.5 6.5-4-4-8 8v-10l4-4v-3Z" style="stroke:none"/>
    </g>
    <g style="stroke-linecap:round;fill:#6d6f7f;stroke:#6d6f7f">
        <path stroke="none" d="m89 89.5 8-8 4 4 6.5-6.5 8 8h1.5v21.5l-3.5 3.5h-9l-7.5-7.5v-7Zm16-20 6.5-6.5 9.5 9.5v8l-1 1v.5h-2.5Z" style="stroke:none"/>
    </g>
</svg>
