<svg xmlns="http://www.w3.org/2000/svg" width="94" height="75" style="fill-opacity:1;color-rendering:auto;color-interpolation:auto;text-rendering:auto;stroke:#000;stroke-linecap:square;stroke-miterlimit:10;shape-rendering:auto;stroke-opacity:1;fill:#000;stroke-dasharray:none;font-weight:400;stroke-width:1;font-family:&quot;Dialog&quot;;font-style:normal;stroke-linejoin:miter;font-size:12px;stroke-dashoffset:0;image-rendering:auto">
    <g style="stroke-linecap:round;fill:#bf92f9;stroke:#bf92f9">
        <path stroke="none" d="M8 43.5v-7l4.5-4.5H14v6h-.5Z" style="stroke:none"/>
    </g>
    <g stroke="none" style="stroke-linecap:round;fill:#665c9f;stroke:#665c9f">
        <path d="M8 47.5v-4l5.5-5.5h.5v3.5Z" style="stroke:none"/>
        <path d="M8 48.5v-1l6-6 3 3v1l1 1 4-4v7L15.5 56ZM9.5 62l4.5-4.5L25.5 69 21 73.5Z" style="fill:#6e7080;stroke:none"/>
        <path d="M14.5 38H14v-6h1.5l1.5 1.5v7Z" style="fill:#b0bac0;stroke:none"/>
        <path d="M17 40.5v4l-3-3V38h.5Z" style="fill:#989aa4;stroke:none"/>
        <path d="m14 57.5 3.5-3.5 5 5-3.5 3.5Z" style="fill:#b0bac0;stroke:none"/>
        <path d="M15.5 32H15v-4.5l6.5-6.5.5.5v8l-.5.5h-2l-3 3Z" style="fill:#989aa4;stroke:none"/>
        <path d="M17 42.5v-9l-.5-.5 3-3h2l.5-.5v-8l-.5-.5 3-3H27v7.5l-5 5v7Z" style="fill:#bf92f9;stroke:none"/>
        <path d="m18 46.5-1-1v-3l5-5v5Z" style="stroke:none"/>
        <path d="m17.5 54 4-4L33 61.5 25.5 69 19 62.5l3.5-3.5Z" style="fill:#989aa4;stroke:none"/>
        <path d="M22 34v-3.5l5-5v5L23.5 34Z" style="stroke:none"/>
        <path d="M22 37v-3h1.5l3.5-3.5v3L23.5 37Z" style="fill:#6e7080;stroke:none"/>
        <path d="m21.5 50 .5-.5V37h1.5l2.5-2.5 2 2v6l.5.5-1.5 1.5v2L37.5 57 33 61.5Z" style="fill:#b0bac0;stroke:none"/>
        <path d="m26 34.5 1-1v-8l3-3V22h4.5l3.5-3.5v3l2.5 2.5 6.5-6.5 6.5 6.5 2.5-2.5v-3l3.5 3.5H64v.5l3 3v8l1 1-2 2-2.5-2.5.5-.5v-5L62.5 27h-2L57 23.5l-1 1v2l-9 9-9-9v-2l-1-1-3.5 3.5h-2L30 28.5v5l.5.5-2.5 2.5Z" style="fill:#989aa4;stroke:none"/>
        <path d="M27 25.5V18h.5l2.5-2.5v7Z" style="fill:#b0bac0;stroke:none"/>
        <path d="M27 46.5v-2l2.5-2.5.5.5v4L28.5 48Z" style="fill:#6e7080;stroke:none"/>
        <path d="m28.5 43-.5-.5v-6l3.5-3.5.5.5v5l1 1 5-5v5L34.5 43H32v-2.5l-.5-.5Z" style="stroke:none"/>
        <path d="m28.5 48 1.5-1.5v-4l-.5-.5 2-2 .5.5v8L30.5 50Z" style="fill:#989aa4;stroke:none"/>
        <path d="M30 19v-4.5l3.5-3.5H38v4.5L34.5 19Z" style="fill:#bf92f9;stroke:none"/>
        <path d="M30 22v-3h4.5l3.5-3.5v3L34.5 22Z" style="stroke:none"/>
        <path d="m30.5 34-.5-.5v-5l1.5-1.5H33v4.5Z" style="fill:#b0bac0;stroke:none"/>
        <path d="M32.5 50h2l9 9-8 8-3-3h-1l-.5-.5 6.5-6.5-7-7 1-1Z" style="fill:#6e7080;stroke:none"/>
        <path d="m33 39.5-1-1v-5l-.5-.5 1.5-1.5V27h.5l3.5-3.5 1 1v10ZM32 47v-4h2.5l3.5-3.5V44h-.5l-3 3Z" style="fill:#bf92f9;stroke:none"/>
        <path d="m32.5 50-1-1 .5-.5V47h2.5l3-3h.5v3.5l-3 3-.5-.5Z" style="stroke:none"/>
        <path d="m35 50.5 2.5-2.5 9.5 9.5 9.5-9.5 2.5 2.5L48.5 61h-3Zm.5 16.5 3.5-3.5 4.5 4.5-3.5 3.5Z" style="fill:#989aa4;stroke:none"/>
        <path d="M38 21.5V11h.5l3-3h5L43 11.5v4l.5.5Z" style="fill:#b0bac0;stroke:none"/>
        <path d="m38 21.5 9-9 9 9-2.5 2.5-6.5-6.5-6.5 6.5Z" style="fill:#6e7080;stroke:none"/>
        <path d="m47 35.5 9-9V44h-.5L53 41.5v-1l-2-2-4 4-4-4-2 2v1L38.5 44H38V26.5Z" style="fill:#b0bac0;stroke:none"/>
        <path d="m37.5 48 .5-.5V44h.5l2.5-2.5 6 6 6-6 2.5 2.5h.5v3.5l.5.5-9.5 9.5Z" style="fill:#6e7080;stroke:none"/>
        <path d="m39 63.5 4.5-4.5 2 2h3l2-2 4.5 4.5-4.5 4.5h-7Z" style="fill:#b0bac0;stroke:none"/>
        <path d="m40.5 72-.5-.5 3.5-3.5h7l3.5 3.5-.5.5Z" style="fill:#6e7080;stroke:none"/>
        <path d="M41 41.5v-1l2-2 4 4 4-4 2 2v1l-6 6ZM43.5 16l-.5-.5v-4L46.5 8h1l3.5 3.5v4l-.5.5-3.5-3.5Zm0 11 3.5 3.5 3.5-3.5-3.5-3.5Z" style="fill:#989aa4;stroke:none"/>
        <path d="m43.5 27 3.5-3.5 3.5 3.5-3.5 3.5Zm4-19h5l3 3h.5v10.5L50.5 16l.5-.5v-4Z" style="fill:#b0bac0;stroke:none"/>
        <path d="m50.5 59 9-9h2l1-1 1 1-7 7 6.5 6.5-.5.5h-1l-3 3Z" style="fill:#6e7080;stroke:none"/>
        <path d="m50.5 68 4.5-4.5 3.5 3.5-4.5 4.5Z" style="fill:#989aa4;stroke:none"/>
        <path d="M56 15.5V11h4.5l3.5 3.5V19h-4.5Z" style="fill:#bf92f9;stroke:none"/>
        <path d="M59.5 19H64v3h-4.5L56 18.5v-3Z" style="stroke:none"/>
        <path d="M56 34.5v-10l1-1 3.5 3.5h.5v4.5l1.5 1.5-.5.5v5l-1 1Z" style="fill:#bf92f9;stroke:none"/>
        <path d="m61 39.5 1-1v-5l.5-.5 3.5 3.5v6l-.5.5-3-3-.5.5V43h-2.5L56 39.5v-5Z" style="stroke:none"/>
        <path d="M59.5 43H62v4h-2.5l-3-3H56v-4.5Z" style="fill:#bf92f9;stroke:none"/>
        <path d="M59.5 47H62v1.5l.5.5-1 1h-2l-.5.5-3-3V44h.5Z" style="stroke:none"/>
        <path d="M56.5 57 67 46.5v-2L65.5 43l.5-.5v-6l2-2 2.5 2.5H72v12.5l.5.5L61 61.5ZM61 31.5V27h1.5l1.5 1.5v5l-.5.5Z" style="fill:#b0bac0;stroke:none"/>
        <path d="M61 61.5 72.5 50l4 4-5 5 3.5 3.5-6.5 6.5ZM64.5 42l-.5.5v4l1.5 1.5-2 2-1.5-1.5v-8l.5-.5Z" style="fill:#989aa4;stroke:none"/>
        <path d="M66.5 18h.5v7.5l-3-3v-7Z" style="fill:#b0bac0;stroke:none"/>
        <path d="M67 44.5v2L65.5 48 64 46.5v-4l.5-.5Z" style="fill:#6e7080;stroke:none"/>
        <path d="M67 25.5V18h2.5l3 3-.5.5v8l.5.5h2l3 3-.5.5v9l-5-5v-7Z" style="fill:#bf92f9;stroke:none"/>
        <path d="M72 30.5V34h-1.5L67 30.5v-5Z" style="stroke:none"/>
        <path d="M70.5 34H72v3h-1.5L67 33.5v-3Zm-2 35L80 57.5l4.5 4.5L73 73.5Z" style="fill:#6e7080;stroke:none"/>
        <path d="M79 27.5V32h-.5l-1 1-3-3h-2l-.5-.5v-8l.5-.5Z" style="fill:#989aa4;stroke:none"/>
        <path d="M77 42.5v3l-1 1-4-4v-5Z" style="stroke:none"/>
        <path d="m76 46.5 1-1v-1l3-3 6 6v1L78.5 56 72 49.5v-7Z" style="fill:#6e7080;stroke:none"/>
        <path d="m71.5 59 5-5 3.5 3.5-5 5ZM77 40.5v-7l1.5-1.5H80v6h-.5Z" style="fill:#b0bac0;stroke:none"/>
        <path d="M77 44.5v-4l2.5-2.5h.5v3.5Z" style="fill:#989aa4;stroke:none"/>
        <path d="M80.5 38H80v-6h1.5l4.5 4.5v7Z" style="fill:#bf92f9;stroke:none"/>
        <path d="M86 43.5v4l-6-6V38h.5Z" style="stroke:none"/>
    </g>
</svg>
