<svg xmlns="http://www.w3.org/2000/svg" width="64" height="64" style="fill-opacity:1;color-rendering:auto;color-interpolation:auto;text-rendering:auto;stroke:#000;stroke-linecap:square;stroke-miterlimit:10;shape-rendering:auto;stroke-opacity:1;fill:#000;stroke-dasharray:none;font-weight:400;stroke-width:1;font-family:&quot;Dialog&quot;;font-style:normal;stroke-linejoin:miter;font-size:12px;stroke-dashoffset:0;image-rendering:auto">
    <g style="stroke-linecap:round;fill:#373a4d;stroke:#373a4d">
        <path stroke="none" d="M12 13V7.5l.5-.5h13l.5.5V13Z" style="stroke:none"/>
    </g>
    <g stroke="none" style="stroke-linecap:round;fill:#181920;stroke:#181920">
        <path d="M12 22v-9h14v9Z" style="stroke:none"/>
        <path d="M12 31v-9h14v9Z" style="fill:#373a4d;stroke:none"/>
        <path d="M12 40v-9h14v9Z" style="stroke:none"/>
        <path d="M12 49v-9h14v9Z" style="fill:#373a4d;stroke:none"/>
        <path d="m12.5 58-.5-.5V49h14v8.5l-.5.5Z" style="stroke:none"/>
        <path d="M38 13V7.5l.5-.5h13l.5.5V13Z" style="fill:#373a4d;stroke:none"/>
        <path d="M38 22v-9h14v9Z" style="stroke:none"/>
        <path d="M38 31v-9h14v9Z" style="fill:#373a4d;stroke:none"/>
        <path d="M38 40v-9h14v9Z" style="stroke:none"/>
        <path d="M38 49v-9h14v9Z" style="fill:#373a4d;stroke:none"/>
        <path d="m38.5 58-.5-.5V49h14v8.5l-.5.5Z" style="stroke:none"/>
    </g>
</svg>
