<svg xmlns="http://www.w3.org/2000/svg" width="64" height="64" style="fill-opacity:1;color-rendering:auto;color-interpolation:auto;text-rendering:auto;stroke:#000;stroke-linecap:square;stroke-miterlimit:10;shape-rendering:auto;stroke-opacity:1;fill:#000;stroke-dasharray:none;font-weight:400;stroke-width:1;font-family:&quot;Dialog&quot;;font-style:normal;stroke-linejoin:miter;font-size:12px;stroke-dashoffset:0;image-rendering:auto">
    <g style="stroke-linecap:round;fill:#dcc6c6;stroke:#dcc6c6">
        <path stroke="none" d="M9 23.5v-3l2.5-2.5h2l2.5 2.5-5 5Z" style="stroke:none"/>
    </g>
    <g stroke="none" style="stroke-linecap:round;fill:#fff;stroke:#fff">
        <path d="m11 25.5 5-5 4 4v3L18.5 29h-4Z" style="stroke:none"/>
        <path d="M13 49.5v-3l3-3 5 5-3.5 3.5h-2Z" style="fill:#dcc6c6;stroke:none"/>
        <path d="m16 43.5 5-5 5 5-5 5Zm22 0 5-5 5 5-5 5Z" style="stroke:none"/>
        <path d="m43 48.5 5-5 3 3v3L48.5 52h-2Z" style="fill:#dcc6c6;stroke:none"/>
        <path d="M44 27.5v-3l4-4 5 5-3.5 3.5h-4Z" style="stroke:none"/>
        <path d="m48 20.5 2.5-2.5h2l2.5 2.5v3l-2 2Z" style="fill:#dcc6c6;stroke:none"/>
    </g>
</svg>
