<svg xmlns="http://www.w3.org/2000/svg" width="190" height="162" style="fill-opacity:1;color-rendering:auto;color-interpolation:auto;text-rendering:auto;stroke:#000;stroke-linecap:square;stroke-miterlimit:10;shape-rendering:auto;stroke-opacity:1;fill:#000;stroke-dasharray:none;font-weight:400;stroke-width:1;font-family:&quot;Dialog&quot;;font-style:normal;stroke-linejoin:miter;font-size:12px;stroke-dashoffset:0;image-rendering:auto">
    <g style="stroke-linecap:round;fill:#4a4b53;stroke:#4a4b53">
        <path stroke="none" d="M32 82.5v-2l4.5-4.5h2l2.5 2.5-6.5 6.5Z" style="stroke:none"/>
    </g>
    <g stroke="none" style="stroke-linecap:round;fill:#989aa4;stroke:#989aa4">
        <path d="M33 90.5v-4l8-8v-6l3-3v-3l-3-3v-2l9-9v-7l9.5-9.5h5l5 5h4l10-10h3l8.5 8.5 8.5-8.5h3l10 10h4l5-5h5l9.5 9.5v7l9 9v2l-3 3v3l3 3v6l8 8v4l-2.5 2.5-8-8h-3l-4-4-4 4-4-4 4.5-4.5v-1l4-4-3-3 3-3-5-5-6.5 6.5-3-3h-5l-3 3 3 3-5 5-4-4h-3l-2.5-2.5.5-.5h1l4.5-4.5v-1l.5-.5 2.5 2.5 3.5-3.5-2.5-2.5 5-5 4.5 4.5 5.5-5.5-6.5-6.5-5.5 5.5-4.5-4.5h-5l-.5.5-6-6-5.5 5.5 2 2-4.5 4.5-4.5-4.5 2-2-5.5-5.5-6 6-.5-.5h-5L71 51.5 65.5 46 59 52.5l5.5 5.5 4.5-4.5 5 5-2.5 2.5 3.5 3.5 2.5-2.5.5.5v1l4.5 4.5h1l.5.5-2.5 2.5h-3l-4 4-5-5 3-3-3-3h-5l-3 3-6.5-6.5-5 5 3 3-3 3 4 4v1l4.5 4.5-4 4-4-4-4 4h-3l-8 8Z" style="stroke:none"/>
        <path d="m35.5 93 5-5 5.5 5.5-5 5Z" style="fill:#8ca9e8;stroke:none"/>
        <path d="m38.5 54 7.5-7.5 4 4v2L43.5 59Z" style="fill:#6e7080;stroke:none"/>
        <path d="m40.5 88 3-3h3l.5-.5 4 4-5 5Z" style="fill:#d1efff;stroke:none"/>
        <path d="M41 98.5 66.5 73l5 5-7.5 7.5v2l.5.5-3.5 3.5v2l2.5 2.5h6l3.5-3.5 5.5 5.5h8l6 6h5l6-6h8l5.5-5.5 3.5 3.5h6l2.5-2.5v-2l-3.5-3.5.5-.5v-2l-7.5-7.5 5-5L149 98.5l-2.5 2.5h-2l-3.5-3.5-6.5 6.5h-2l-2-2h-6l-5.5 5.5-3.5-3.5h-3l-4.5 4.5v1l-3 3v2l5 5 4-4 .5.5h4l3.5-3.5v-1l.5-.5 6.5 6.5 3.5-3.5 6.5 6.5-10.5 10.5h-5l-9-9-6 6-3.5-3.5-7.5 7.5h-5l-7.5-7.5-3.5 3.5-6-6-9 9h-5L51 120.5l6.5-6.5 3.5 3.5 6.5-6.5.5.5v1l3.5 3.5h4l.5-.5 4 4 5-5v-2l-3-3v-1l-4.5-4.5h-3l-3.5 3.5-5.5-5.5h-6l-2 2h-2L49 97.5l-3.5 3.5h-2Z" style="fill:#4a4b53;stroke:none"/>
        <path d="m47 84.5 3.5-3.5 4 4-3.5 3.5Zm0 32v-6l6.5-6.5H57v3.5l-8 8v2l-.5.5Z" style="fill:#6e7080;stroke:none"/>
        <path d="m48.5 118 .5-.5v-2l8-8V104h.5l2-2h6l5.5 5.5-10 10-3.5-3.5-6.5 6.5Z" style="stroke:none"/>
        <path d="m50 65.5 5-5 6.5 6.5-2.5 2.5-3.5-3.5-2.5 2.5Z" style="fill:#6e7080;stroke:none"/>
        <path d="m50 71.5 5.5-5.5 3.5 3.5-5.5 5.5Z" style="fill:#4a4b53;stroke:none"/>
        <path d="M54 76.5v-1l-.5-.5 3.5-3.5 5.5 5.5-4 4Z" style="fill:#8ca9e8;stroke:none"/>
        <path d="m57 71.5 7.5-7.5h5l3 3-10 10Z" style="fill:#d1efff;stroke:none"/>
        <path d="m59 52.5 6.5-6.5 5.5 5.5-6.5 6.5Zm2 41v-2l3.5-3.5 3 3H73v1.5L69.5 96h-6Z" style="fill:#6e7080;stroke:none"/>
        <path d="M64 87.5v-2L78.5 71h3l.5-.5 2 2-5 5 3.5 3.5-2 2h-7l-7 7Z" style="fill:#d1efff;stroke:none"/>
        <path d="m66.5 73 3-3 5 5-3 3Z" style="fill:#6e7080;stroke:none"/>
        <path d="m67.5 91-1-1 7-7h7l2-2-3.5-3.5 5-5 4 4v6L82.5 88h-7L73 90.5v.5Z" style="fill:#8ca9e8;stroke:none"/>
        <path d="m66.5 131 9-9 6 6-7 7h-4Z" style="fill:#6e7080;stroke:none"/>
        <path d="M68 112.5v-1l-.5-.5 3.5-3.5 5.5 5.5h1l.5.5-2.5 2.5h-4Z" style="fill:#8ca9e8;stroke:none"/>
        <path d="m69 53.5 6.5-6.5h5l6 6-9 9Z" style="fill:#4a4b53;stroke:none"/>
        <path d="m71 107.5 3.5-3.5h3l4.5 4.5v1l-4 4-.5-.5h-1Z" style="fill:#d1efff;stroke:none"/>
        <path d="m71.5 61 2.5-2.5 3.5 3.5-2.5 2.5Z" style="fill:#6e7080;stroke:none"/>
        <path d="M73 92.5v-2l2.5-2.5h7l5.5-5.5v-1l7-7 7 7v1l5.5 5.5h7l2.5 2.5v2l-5.5 5.5h-8l-.5.5-4.5-4.5 3-3-5-5h-3l-5 5 3 3-4.5 4.5-.5-.5h-8Z" style="stroke:none"/>
        <path d="m76 115.5 6-6 3 3v2l-5 5Z" style="fill:#6e7080;stroke:none"/>
        <path d="M78 63.5v-1l-.5-.5 9.5-9.5 3 3-5 5v2l2.5 2.5-3.5 3.5-.5-.5h-1Z" style="fill:#8ca9e8;stroke:none"/>
        <path d="m81 47.5 6-6 5.5 5.5-6 6Z" style="fill:#6e7080;stroke:none"/>
        <path d="m82 70.5 5.5-5.5 7.5 7.5 7.5-7.5 5.5 5.5-6 6v5l-7-7-7 7v-5Z" style="fill:#4a4b53;stroke:none"/>
        <path d="M85 62.5v-2l5-5-3-3 3.5-3.5 4.5 4.5 4.5-4.5 3.5 3.5-3 3 5 5v2l-4.5 4.5-5.5-5.5-5.5 5.5Z" style="fill:#d1efff;stroke:none"/>
        <path d="m87 98.5 4.5-4.5-3-3 5-5h3l5 5-3 3 4.5 4.5-5.5 5.5h-5Z" style="fill:#6e7080;stroke:none"/>
        <path d="M90 113.5v2l5 5 5-5v-2l-5-5Z" style="fill:#4a4b53;stroke:none"/>
        <path d="m89.5 67 5.5-5.5 5.5 5.5-5.5 5.5Zm.5 48.5v-2l5-5 5 5v2l-5 5ZM97.5 47l5.5-5.5 6 6-5.5 5.5Z" style="fill:#6e7080;stroke:none"/>
        <path d="m100 55.5 3-3 9.5 9.5-.5.5v1l-4.5 4.5h-1l-.5.5-3.5-3.5 2.5-2.5v-2Zm2 27v-6l4-4 5 5-3.5 3.5 2 2h7l7 7-1 1H117v-.5l-2.5-2.5h-7Z" style="fill:#8ca9e8;stroke:none"/>
        <path d="m103.5 53 6-6h5l6.5 6.5-8.5 8.5Z" style="fill:#4a4b53;stroke:none"/>
        <path d="M105 114.5v-2l3-3 6 6-4 4Z" style="fill:#6e7080;stroke:none"/>
        <path d="m106 72.5 2-2 .5.5h3L126 85.5v2l-2.5 2.5-7-7h-7l-2-2 3.5-3.5Zm2 37v-1l4.5-4.5h3l3.5 3.5-5.5 5.5h-1l-.5.5Z" style="fill:#d1efff;stroke:none"/>
        <path d="m108.5 128 6-6 9 9-4 4h-4Z" style="fill:#6e7080;stroke:none"/>
        <path d="m112 113.5.5-.5h1l5.5-5.5 3.5 3.5-.5.5v1l-3.5 3.5h-4Z" style="fill:#8ca9e8;stroke:none"/>
        <path d="m112.5 62 3.5-3.5 2.5 2.5-3.5 3.5Zm3 13 5-5 3 3-5 5Zm1.5 17.5V91h5.5l3-3 3.5 3.5v2l-2.5 2.5h-6Z" style="fill:#6e7080;stroke:none"/>
        <path d="m117.5 67 3-3h5l7.5 7.5-5.5 5.5Z" style="fill:#d1efff;stroke:none"/>
        <path d="m119 51.5 5.5-5.5 6.5 6.5-5.5 5.5Z" style="fill:#6e7080;stroke:none"/>
        <path d="m119 107.5 5.5-5.5h6l2 2h.5v3.5l8 8v2l.5.5-2.5 2.5-6.5-6.5-3.5 3.5Z" style="stroke:none"/>
        <path d="m127.5 77 5.5-5.5 3.5 3.5-.5.5v1l-4.5 4.5Z" style="fill:#8ca9e8;stroke:none"/>
        <path d="m128.5 67 6.5-6.5 5 5-3 3-2.5-2.5-3.5 3.5Z" style="fill:#6e7080;stroke:none"/>
        <path d="m131 69.5 3.5-3.5 5.5 5.5-3.5 3.5Z" style="fill:#4a4b53;stroke:none"/>
        <path d="M133 107.5V104h3.5l6.5 6.5v6l-1.5 1.5-.5-.5v-2Zm2.5-22.5 4-4 3.5 3.5-4 4Z" style="fill:#6e7080;stroke:none"/>
        <path d="m139 88.5 4-4 .5.5h3l3 3-5.5 5.5Z" style="fill:#d1efff;stroke:none"/>
        <path d="M140 52.5v-2l4-4 7.5 7.5-5 5Z" style="fill:#6e7080;stroke:none"/>
        <path d="m144 93.5 5.5-5.5 5 5-5.5 5.5Z" style="fill:#8ca9e8;stroke:none"/>
        <path d="m149 78.5 2.5-2.5h2l4.5 4.5v2l-2.5 2.5Z" style="fill:#4a4b53;stroke:none"/>
    </g>
</svg>
