<svg xmlns="http://www.w3.org/2000/svg" width="43" height="50" style="fill-opacity:1;color-rendering:auto;color-interpolation:auto;text-rendering:auto;stroke:#000;stroke-linecap:square;stroke-miterlimit:10;shape-rendering:auto;stroke-opacity:1;fill:#000;stroke-dasharray:none;font-weight:400;stroke-width:1;font-family:&quot;Dialog&quot;;font-style:normal;stroke-linejoin:miter;font-size:12px;stroke-dashoffset:0;image-rendering:auto">
    <g style="stroke-linecap:round;fill:#989aa4;stroke:#989aa4">
        <path stroke="none" d="M.5 18V2h8L14 7.5v1L4.5 18Z" style="stroke:none"/>
    </g>
    <g stroke="none" style="stroke-linecap:round;fill:#6e7080;stroke:#6e7080">
        <path d="M.5 32V18h4L14 8.5l8 8-2.5 2.5-3-3h-3L6 23.5v3l7.5 7.5h3l3-3 2.5 2.5-8 8L4.5 32Z" style="stroke:none"/>
        <path d="M.5 48V32h4l9.5 9.5v1L8.5 48ZM6 26.5v-3l7.5-7.5h3l8 8-.5.5v1l.5.5-8 8h-3Z" style="fill:#989aa4;stroke:none"/>
        <path d="M14 8.5v-1L17.5 4h6l6 6-3.5 3.5 5.5 5.5 3.5-3.5 7.5 7.5v4L35 34.5 31.5 31 26 36.5l3.5 3.5-6 6h-6L14 42.5v-1l8-8-2.5-2.5 5-5 3.5 3.5 4.5-4.5-4.5-4.5-3.5 3.5-5-5 2.5-2.5Z" style="fill:#4a4b53;stroke:none"/>
        <path d="M23.5 4h10l1 1-5 5Zm.5 21.5v-1l4-4 4.5 4.5-4.5 4.5ZM23.5 46l6-6 5 5-1 1ZM26 13.5l3-3 5.5 5.5-3 3Zm0 23 5.5-5.5 3 3-5.5 5.5Z" style="stroke:none"/>
        <path d="M29 10.5 34.5 5l5.5 5.5-5.5 5.5Zm0 29 5.5-5.5 5.5 5.5-5.5 5.5Z" style="fill:#989aa4;stroke:none"/>
        <path d="m35 15.5 5-5 2.5 2.5v10Zm0 19 7.5-7.5v10L40 39.5Z" style="stroke:none"/>
    </g>
</svg>
