<svg xmlns="http://www.w3.org/2000/svg" width="160" height="190" style="fill-opacity:1;color-rendering:auto;color-interpolation:auto;text-rendering:auto;stroke:#000;stroke-linecap:square;stroke-miterlimit:10;shape-rendering:auto;stroke-opacity:1;fill:#000;stroke-dasharray:none;font-weight:400;stroke-width:1;font-family:&quot;Dialog&quot;;font-style:normal;stroke-linejoin:miter;font-size:12px;stroke-dashoffset:0;image-rendering:auto">
    <g style="stroke-linecap:round;fill:#6d6f7f;stroke:#6d6f7f">
        <path stroke="none" d="M7 105.5v-15L9.5 88h.5v1.5l1.5 1.5h1l4.5 4.5 9-9-1-1v-11l5.5-5.5 6 6 5-5H43v3.5L30.5 86h-1l-.5.5 7 7 2.5-2.5 5.5 5.5 7.5-7.5 4 4H57v5.5l3 3-5 5-5-5-1 1-3.5-3.5-7 7 4 4-3.5 3.5-6.5-6.5 1.5-1.5v-2L25.5 95 11 109.5Z" style="stroke:none"/>
    </g>
    <g stroke="none" style="stroke-linecap:round;fill:#bf92f9;stroke:#bf92f9">
        <path d="M10.5 88H10v-5.5l5.5-5.5H17v4.5Z" style="stroke:none"/>
        <path d="M10 89.5V88h.5l6.5-6.5v6l-4 4-.5-.5h-1Z" style="fill:#665c9f;stroke:none"/>
        <path d="m11.5 131 9-9 7 7-8 8h-2Z" style="fill:#6d6f7f;stroke:none"/>
        <path d="m13.5 79-.5-.5v-5l4-4 5.5 5.5H25v4h-1.5L19 74.5l-2 2v.5h-1.5Z" style="fill:#b0bac0;stroke:none"/>
        <path d="m13 91.5 4-4V86h1.5l1.5-1.5v-1l1.5-1.5-4.5-4.5v-1l2-2 4.5 4.5H25v6.5l1 1-9 9Z" style="fill:#9799a3;stroke:none"/>
        <path d="M16 117.5v-3l1.5-1.5 3 3h4l7.5 7.5v2l-3 3v.5h-1.5Z" style="fill:#b0bac0;stroke:none"/>
        <path d="M17 69.5v-1l2-2 2.5 2.5h5l7-7h3l.5.5-12 12v.5h-2.5Z" style="fill:#665c9f;stroke:none"/>
        <path d="M21.5 82 20 83.5v1L18.5 86H17v-8.5Z" style="fill:#b0bac0;stroke:none"/>
        <path d="M17 112.5v-1l3-3 5 5-2.5 2.5h-2Z" style="fill:#665c9f;stroke:none"/>
        <path d="m19 66.5 6-6V60h4.5l3-3h3l3 3-.5.5v1l-1 1-.5-.5h-3l-7 7h-5Zm1 42 4-4 4 4v1l.5.5-3.5 3.5Z" style="stroke:none"/>
        <path d="m22.5 116 6-6 7 7-4 4 10 10h2l3-3h3l3.5-3.5v-4l2-2-.5-.5 9.5-9.5v3l13 13-3.5 3.5-7-7L52 135.5l6.5 6.5 5.5-5.5-4-4 4-4 7 7L54.5 152h-3l-7.5-7.5v-2l6.5-6.5-5.5-5.5-13 13-7.5-7.5 4.5-4.5v-3l3-3v-2l-7.5-7.5Z" style="fill:#6d6f7f;stroke:none"/>
        <path d="m24 104.5 2-2v-1l3-3 5 5v2l-5 5-1-1v-1Z" style="fill:#9799a3;stroke:none"/>
        <path d="M25 60v-.5L37.5 47h5l8-8h7l2 2-8 8-1.5-1.5-1.5 1.5h-1L43 53.5l-.5-.5h-1l-5 5-1-1h-3l-3 3Z" style="fill:#b0bac0;stroke:none"/>
        <path d="m29 86.5.5-.5h1l1.5-1.5 6.5 6.5-2.5 2.5Z" style="fill:#9799a3;stroke:none"/>
        <path d="m29 110.5 3.5-3.5 6.5 6.5-3.5 3.5Z" style="fill:#b0bac0;stroke:none"/>
        <path d="m30.5 69 4.5-4.5 5 5 4-4 2 2-2.5 2.5h-2l-5 5Z" style="fill:#9799a3;stroke:none"/>
        <path d="m32 84.5 8-8 7 7-8 8Z" style="fill:#b0bac0;stroke:none"/>
        <path d="m31.5 121 11-11-4-4 7-7 3.5 3.5-6.5 6.5 6 6h-2l-9.5 9.5v1l-.5.5Z" style="fill:#9799a3;stroke:none"/>
        <path d="m35 64.5 3-3v-1l.5-.5 5.5 5.5-4 4Z" style="fill:#b0bac0;stroke:none"/>
        <path d="m36.5 58 5-5h1l2 2-4.5 4.5v1l-.5.5Z" style="fill:#9799a3;stroke:none"/>
        <path d="m36.5 126 .5-.5v-1l3-3 .5.5h1l3 3h2l4-4H53v3.5l-3.5 3.5h-3l-3 3h-2ZM39 91.5l3-3 5 5-3 3Z" style="fill:#665c9f;stroke:none"/>
        <path d="m39.5 61 .5-.5v-1l2.5-2.5 6.5 6.5V65h-.5L46 67.5Z" style="fill:#6d6f7f;stroke:none"/>
        <path d="m40 76.5 2.5-2.5 3.5 3.5-.5.5 2 2h7L52 82.5v1l-2 2V87h-5.5l-.5-.5 3-3Z" style="fill:#9799a3;stroke:none"/>
        <path d="m40.5 122-.5-.5 6.5-6.5h5l3.5 3.5-2 2v.5h-2.5l-4 4h-2l-3-3ZM42 88.5l2-2 .5.5H50v.5l1.5 1.5-4.5 4.5Z" style="stroke:none"/>
        <path d="m43 53.5 3-3 4 4-1.5 1.5h-1l-1 1Z" style="fill:#665c9f;stroke:none"/>
        <path d="m42.5 57 2-2 5 5-.5.5v3Z" style="fill:#b0bac0;stroke:none"/>
        <path d="M43 73.5V70h.5l5-5h2l2 2-3 3h-3Z" style="stroke:none"/>
        <path d="m42.5 74 4-4h3l3-3 2 2-8.5 8.5Z" style="fill:#665c9f;stroke:none"/>
        <path d="m42.5 109 7.5-7.5 5 5 5-5 4 4v3l-9.5 9.5-3-3h-3Z" style="fill:#b0bac0;stroke:none"/>
        <path d="m46 50.5 1.5-1.5h1l1.5-1.5 2 2v3l-2 2Z" style="stroke:none"/>
        <path d="m45.5 78 7.5-7.5 5.5 5.5-4 4h-7Z" style="fill:#6d6f7f;stroke:none"/>
        <path d="m46.5 57 1-1h1l2.5-2.5 2.5 2.5-4 4Z" style="fill:#9799a3;stroke:none"/>
        <path d="M50 87.5v-2l2-2 4.5 4.5h2l2.5-2.5.5.5 4.5-4.5-6.5-6.5-1 1-3.5-3.5 3-3V66h.5l2-2 .5.5v3l2.5 2.5h1l1.5 1.5v5l5.5 5.5 7-7h3l7 7 5.5-5.5v-5l1.5-1.5h1l2.5-2.5v-3l.5-.5 2 2h.5v3.5l3 3-3.5 3.5-1-1-6.5 6.5 4.5 4.5.5-.5 2.5 2.5h2l4.5-4.5 2 2v2l-5.5 5.5h-2l-8-8h-2l-12 12h-1l-12-12h-2l-8 8h-2Zm1-34 1-1v-1l2-2 3 3-3.5 3.5Z" style="fill:#b0bac0;stroke:none"/>
        <path d="M52 51.5v-2l-.5-.5 8-8 4.5 4.5-7 7-3-3Z" style="fill:#9799a3;stroke:none"/>
        <path d="M52 83.5v-1l3-3 6 6-2.5 2.5h-2Z" style="fill:#665c9f;stroke:none"/>
        <path d="m52 135.5 9-9 2.5 2.5-3.5 3.5 4 4-5.5 5.5Zm1-65 1.5-1.5-.5-.5 2.5-2.5H58v3.5l-3 3Z" style="fill:#9799a3;stroke:none"/>
        <path d="m55 79.5 4.5-4.5 6.5 6.5-4.5 4.5Z" style="stroke:none"/>
        <path d="m56 122.5 2.5 2.5 3.5-3.5-2.5-2.5Z" style="fill:#6d6f7f;stroke:none"/>
        <path d="m56 122.5 3.5-3.5 2.5 2.5-3.5 3.5Z" style="fill:#b0bac0;stroke:none"/>
        <path d="M57 97.5V93h.5l8-8h2L79 96.5l-5 5v-2l-2-2-4 4-3.5-3.5 3-3-4-4Z" style="stroke:none"/>
        <path d="M57 98.5v-1l6.5-6.5 4 4-3 3 3.5 3.5 4-4 2 2v9l-5.5 5.5h-1l-.5.5-3-3v-6ZM61.5 68l-.5-.5v-3l-.5-.5 7-7 .5.5v4Z" style="fill:#665c9f;stroke:none"/>
        <path d="m61 126.5 5.5-5.5 8.5 8.5v2l-4 4-7-7-.5.5Z" style="fill:#b0bac0;stroke:none"/>
        <path d="m61.5 68 6.5-6.5v-4l-.5-.5 2-2h3l1.5 1.5v8L71.5 67h-1l-3 3h-4Z" style="stroke:none"/>
        <path d="M64.5 70h3l3-3h1l.5-.5 5.5 5.5h5l5.5-5.5.5.5h1l3 3h3L94 71.5v5L88.5 82l-7-7h-3l-7 7-5.5-5.5v-5Z" style="fill:#9799a3;stroke:none"/>
        <path d="m68 74.5 3.5 3.5 3.5-3.5-3.5-3.5Z" style="fill:#9799a3;stroke:none"/>
        <path d="m67 114.5.5-.5h1l5.5-5.5 4.5 4.5h3l4.5-4.5 5.5 5.5h1l.5.5-9.5 9.5-3.5-3.5-3.5 3.5Zm1-40 3.5-3.5 3.5 3.5-3.5 3.5Zm4-8 2-2v-8l-.5-.5 5-5h3l5 5-.5.5v8l2 2-5.5 5.5h-5Z" style="fill:#b0bac0;stroke:none"/>
        <path d="M74 104.5v-3l5-5 .5.5h1l.5-.5 5 5v3l-6-6Z" style="fill:#9799a3;stroke:none"/>
        <path d="M74 108.5v-4l6-6 6 6v4l-4.5 4.5h-3Z" style="fill:#6d6f7f;stroke:none"/>
        <path d="m75 129.5-1.5-1.5 3.5-3.5-.5-.5 3.5-3.5 3.5 3.5-.5.5 3.5 3.5-1.5 1.5-3.5-3.5h-3Z" style="fill:#9799a3;stroke:none"/>
        <path d="m75 60.5 5 5 5-5-5-5Z" style="fill:#b0bac0;stroke:none"/>
        <path d="m75 60.5 5-5 5 5-5 5Z" style="fill:#9799a3;stroke:none"/>
        <path d="m75.5 87 4.5 4.5 4.5-4.5-4.5-4.5Z" style="fill:#b0bac0;stroke:none"/>
        <path d="m75.5 87 4.5-4.5 4.5 4.5-4.5 4.5Z" style="fill:#9799a3;stroke:none"/>
        <path d="M81 96.5 92.5 85h2l8 8h.5v4.5L96.5 91l-4 4 3 3-3.5 3.5-4-4-2 2v2Z" style="stroke:none"/>
        <path d="m83 124.5 13-13v-3l9.5 9.5-.5.5 2 2v4l3.5 3.5h3l3 3h2l10-10-4-4 7-7 6 6h-2l-7.5 7.5v2l3 3v3l4.5 4.5-7.5 7.5-13-13-5.5 5.5 6.5 6.5v2l-7.5 7.5h-3L89 135.5l6.5-6.5h1l3.5 3.5-4 4 5.5 5.5 6.5-6.5L93.5 121l-7 7Z" style="fill:#6d6f7f;stroke:none"/>
        <path d="m85 74.5 3.5 3.5 3.5-3.5-3.5-3.5Z" style="fill:#9799a3;stroke:none"/>
        <path d="m85 74.5 3.5-3.5 3.5 3.5-3.5 3.5Zm0 57v-2l8.5-8.5 5.5 5.5-2.5 2.5h-1l-6.5 6.5Z" style="fill:#b0bac0;stroke:none"/>
        <path d="M86 64.5v-8l1.5-1.5h3l2 2-.5.5v4l6.5 6.5-2 2h-4l-3-3h-1Z" style="stroke:none"/>
        <path d="M86 108.5v-9l2-2 4 4 3.5-3.5-3-3 4-4 6.5 6.5v1l-7 7v6l-3 3-.5-.5h-1ZM99.5 64l-.5.5v3l-.5.5-6.5-6.5v-4l.5-.5Z" style="fill:#665c9f;stroke:none"/>
        <path d="m94 81.5 6.5-6.5 4.5 4.5-6.5 6.5Z" style="stroke:none"/>
        <path d="m96 45.5 4.5-4.5 8 8-.5.5v2l-2-2-3 3Z" style="fill:#9799a3;stroke:none"/>
        <path d="M96 108.5v-3l4-4 5 5 4.5-4.5h1l7 7-6 6h-3l-3 3Z" style="fill:#b0bac0;stroke:none"/>
        <path d="m96 136.5 4-4-3.5-3.5 2.5-2.5 9 9-6.5 6.5Z" style="fill:#9799a3;stroke:none"/>
        <path d="m98 121.5 3.5 3.5 2.5-2.5-3.5-3.5Z" style="fill:#6d6f7f;stroke:none"/>
        <path d="m98 121.5 2.5-2.5 3.5 3.5-2.5 2.5Z" style="fill:#b0bac0;stroke:none"/>
        <path d="m99 85.5 6-6 3 3v1l-4.5 4.5h-2Z" style="fill:#665c9f;stroke:none"/>
        <path d="m100 101.5 3-3V93h1.5l4-4 7.5 7.5 5.5-5.5 2.5 2.5 7-7-.5-.5h-1L117 73.5V70h1.5l5 5 6-6 5.5 5.5v11l-1 1 9 9 4.5-4.5h1l1.5-1.5V88h.5l2.5 2.5v15l-4 4L134.5 95l-8.5 8.5v2l1.5 1.5-6.5 6.5-3.5-3.5 4-4-7-7-3.5 3.5-.5-.5h-1l-4.5 4.5Z" style="fill:#6d6f7f;stroke:none"/>
        <path d="m100.5 41 2-2h7l8 8h5L135 59.5v.5h-4.5l-3-3h-3l-1 1-5.5-5.5-1 1-4.5-4.5h-1l-1.5-1.5-1.5 1.5Z" style="fill:#b0bac0;stroke:none"/>
        <path d="M102 69.5V66h1.5l2.5 2.5-.5.5 1.5 1.5-2 2Z" style="fill:#9799a3;stroke:none"/>
        <path d="m101.5 76 5.5-5.5 7.5 7.5-2 2h-6l-.5.5Z" style="fill:#6d6f7f;stroke:none"/>
        <path d="m103 52.5 3-3 2 2v1l1 1-2.5 2.5Z" style="fill:#b0bac0;stroke:none"/>
        <path d="m105 118.5 3.5-3.5h5l6.5 6.5-.5.5h-1l-3 3h-2l-4-4H107v-.5Z" style="stroke:none"/>
        <path d="m105.5 69 2-2 3 3h3l4 4-3.5 3.5Z" style="fill:#665c9f;stroke:none"/>
        <path d="m106 80.5.5-.5h6l2-2-.5-.5 3.5-3.5 2.5 2.5-7 7 3 3-.5.5H110v-1.5l-2-2v-1Zm.5-24.5 2.5-2.5 2.5 2.5h1l1 1-3 3Z" style="fill:#9799a3;stroke:none"/>
        <path d="M107 124.5V121h2.5l4 4h2l3-3h1l.5-.5 3 3v1l.5.5-5 5h-2l-3-3h-3Z" style="fill:#665c9f;stroke:none"/>
        <path d="M108 52.5v-3l2-2 1.5 1.5h1l1.5 1.5-4 4Zm-.5 14.5 2-2h2l5 5h.5v3.5l-3.5-3.5h-3Zm1 22 1.5-1.5V87h5.5l.5-.5 2 2-5 5Z" style="stroke:none"/>
        <path d="m110 54.5 4-4 3 3-3.5 3.5-1-1h-1Z" style="fill:#665c9f;stroke:none"/>
        <path d="M111 63.5v-3l-.5-.5 5-5 2 2Z" style="fill:#b0bac0;stroke:none"/>
        <path d="M111.5 65h-.5v-1.5l6.5-6.5 2.5 2.5v1l.5.5-6.5 6.5Z" style="fill:#6d6f7f;stroke:none"/>
        <path d="m111 102.5 3.5-3.5 7 7-4 4 11 11-5 5-.5-.5v-1l-9.5-9.5h-2l6-6Z" style="fill:#9799a3;stroke:none"/>
        <path d="m113 83.5 7-7 8 8-7 7Z" style="fill:#b0bac0;stroke:none"/>
        <path d="m113 93.5 5-5 3 3-5 5Z" style="fill:#665c9f;stroke:none"/>
        <path d="m114 67.5 2-2 4 4 5-5 4.5 4.5-6 6-5-5h-2Zm1.5-12.5 2.5-2.5 5.5 5.5-3 3-.5-.5v-1Z" style="fill:#9799a3;stroke:none"/>
        <path d="m116 65.5 5.5-5.5.5.5v1l3 3-5 5Zm5 48 6.5-6.5 3.5 3.5-6.5 6.5Z" style="fill:#b0bac0;stroke:none"/>
        <path d="m123 62.5-1-1v-1l-.5-.5 3-3h3l3 3h4.5v.5l6 6-2.5 2.5h-5l-7-7h-3Z" style="stroke:none"/>
        <path d="m121.5 91 6.5-6.5 1.5 1.5h1l.5.5-7 7Z" style="fill:#9799a3;stroke:none"/>
        <path d="m123 62.5.5-.5h3l7 7h5l2.5-2.5 2 2v1l-5.5 5.5H135v-.5Z" style="fill:#665c9f;stroke:none"/>
        <path d="M126 105.5v-2l5-5 3 3v1l2 2-4 4v1l-1 1Z" style="fill:#9799a3;stroke:none"/>
        <path d="M128 125.5v-2l7.5-7.5h4l3-3 1.5 1.5v3L132.5 129H131v-.5Z" style="fill:#b0bac0;stroke:none"/>
        <path d="m131.5 110 .5-.5v-1l4-4 4 4-5 5Z" style="stroke:none"/>
        <path d="m132.5 129 7-7 9 9-6 6h-2Z" style="fill:#6d6f7f;stroke:none"/>
        <path d="m134 86.5 1-1V79h1.5l4.5-4.5 2 2v1l-4.5 4.5 1.5 1.5v1l1.5 1.5h1.5v1.5l4 4-4 4Z" style="fill:#9799a3;stroke:none"/>
        <path d="M135 79v-4h2.5l5.5-5.5 4 4v5l-.5.5-2-2H143v-.5l-2-2-4.5 4.5Z" style="fill:#b0bac0;stroke:none"/>
        <path d="m135 113.5 5-5 3 3v1l-3.5 3.5h-2Z" style="fill:#665c9f;stroke:none"/>
        <path d="m138.5 82 4.5-4.5V86h-1.5l-1.5-1.5v-1Z" style="fill:#b0bac0;stroke:none"/>
        <path d="M143 81.5V77h1.5l5.5 5.5V88h-.5Z" style="stroke:none"/>
        <path d="M149.5 88h.5v1.5l-1.5 1.5h-1l-.5.5-4-4v-6Z" style="fill:#665c9f;stroke:none"/>
    </g>
</svg>
