<svg xmlns="http://www.w3.org/2000/svg" width="152" height="124" style="fill-opacity:1;color-rendering:auto;color-interpolation:auto;text-rendering:auto;stroke:#000;stroke-linecap:square;stroke-miterlimit:10;shape-rendering:auto;stroke-opacity:1;fill:#000;stroke-dasharray:none;font-weight:400;stroke-width:1;font-family:&quot;Dialog&quot;;font-style:normal;stroke-linejoin:miter;font-size:12px;stroke-dashoffset:0;image-rendering:auto">
    <g style="stroke-linecap:round;fill:#fff;stroke:#fff">
        <path stroke="none" d="M9 43.5v-3l3.5-3.5.5.5v2Z" style="stroke:none"/>
    </g>
    <g stroke="none" style="stroke-linecap:round;fill:#dbc5c5;stroke:#dbc5c5">
        <path d="m9.5 46-.5-.5v-2l4-4v3ZM9 58.5l2.5-2.5 4 4-2.5 2.5Z" style="stroke:none"/>
        <path d="m11.5 56 3.5-3.5 4 4-3.5 3.5Z" style="fill:#fff;stroke:none"/>
        <path d="M18 109.5v-4l3-3 7.5 7.5-3 3h-4Z" style="stroke:none"/>
        <path d="m21 102.5 4.5-4.5h2l5.5 5.5v2l-4.5 4.5Z" style="fill:#fff;stroke:none"/>
        <path d="M26 68.5v-4l2.5-2.5 6.5 6.5-2.5 2.5h-4Z" style="stroke:none"/>
        <path d="m28.5 62 5-5 6.5 6.5-5 5ZM33 87.5v-5l4-4 2 2v1Z" style="fill:#fff;stroke:none"/>
        <path d="m33 87.5 6-6v4l-4 4ZM40.5 72l2-2 3.5 3.5-2 2Z" style="stroke:none"/>
        <path d="m42.5 70 2.5-2.5 3.5 3.5-2.5 2.5Zm8-30-.5-.5v-6l6-6 1 1v5Z" style="fill:#fff;stroke:none"/>
        <path d="m50 105.5 2.5-2.5 4 4-2.5 2.5Zm.5-65.5 6.5-6.5v5l-4 4Z" style="stroke:none"/>
        <path d="m52.5 103 3.5-3.5 4 4-3.5 3.5ZM70 88.5v6l-10-10v-5l.5-.5Z" style="fill:#fff;stroke:none"/>
        <path d="M70 94.5v2l-.5.5h-2L60 89.5v-5Z" style="stroke:none"/>
        <path d="M70 69.5v-1l6-6 6 6v1l-6 6Z" style="fill:#fff;stroke:none"/>
        <path d="m76 75.5 6-6v6L77.5 80h-3L70 75.5v-6Z" style="stroke:none"/>
        <path d="M82 94.5v-6l9.5-9.5.5.5v5Z" style="fill:#fff;stroke:none"/>
        <path d="m82.5 97-.5-.5v-2l10-10v5L84.5 97Z" style="stroke:none"/>
        <path d="m92 103.5 4-4 3.5 3.5-4 4Zm3-70v-5l1-1 6 6v6l-.5.5Z" style="fill:#fff;stroke:none"/>
        <path d="M101.5 40 99 42.5l-4-4v-5Zm-6 67 4-4 2.5 2.5-4 4Z" style="stroke:none"/>
        <path d="m103.5 71 3.5-3.5 2.5 2.5-3.5 3.5Z" style="fill:#fff;stroke:none"/>
        <path d="m106 73.5 3.5-3.5 2 2-3.5 3.5Z" style="stroke:none"/>
        <path d="m112 63.5 6.5-6.5 5 5-6.5 6.5Zm1 18v-1l2-2 4 4v5Z" style="fill:#fff;stroke:none"/>
        <path d="m119 87.5-2 2-4-4v-4Zm-2-19 6.5-6.5 2.5 2.5v4l-2.5 2.5h-4Z" style="stroke:none"/>
        <path d="M119 105.5v-2l5.5-5.5h2l4.5 4.5-7.5 7.5Z" style="fill:#fff;stroke:none"/>
        <path d="m123.5 110 7.5-7.5 3 3v4l-3.5 3.5h-4Z" style="stroke:none"/>
        <path d="m133 56.5 4-4 3.5 3.5-4 4Z" style="fill:#fff;stroke:none"/>
        <path d="m136.5 60 4-4 2.5 2.5-4 4Z" style="stroke:none"/>
        <path d="M143 40.5v3l-4-4v-2l.5-.5Z" style="fill:#fff;stroke:none"/>
        <path d="M143 43.5v2l-.5.5-3.5-3.5v-3Z" style="stroke:none"/>
    </g>
</svg>
