<svg xmlns="http://www.w3.org/2000/svg" width="90" height="90" style="fill-opacity:1;color-rendering:auto;color-interpolation:auto;text-rendering:auto;stroke:#000;stroke-linecap:square;stroke-miterlimit:10;shape-rendering:auto;stroke-opacity:1;fill:#000;stroke-dasharray:none;font-weight:400;stroke-width:1;font-family:&quot;Dialog&quot;;font-style:normal;stroke-linejoin:miter;font-size:12px;stroke-dashoffset:0;image-rendering:auto">
    <g style="stroke-linecap:round;fill:#6e7080;stroke:#6e7080">
        <path stroke="none" d="M15 34.5v-3l5.5-5.5h2l8 8-6 6h-4Z" style="stroke:none"/>
    </g>
    <g stroke="none" style="stroke-linecap:round;fill:#6e7080;stroke:#6e7080">
        <path d="M15 58.5v-3l5.5-5.5h4l6 6-8 8h-2Z" style="stroke:none"/>
        <path d="M17 25.5v-3l8.5-8.5 4 4 5-5 6.5 6.5v2L35.5 27l4 4 16-16 2.5 2.5v3l4.5 4.5-6.5 6.5v4l9.5 9.5-9.5 9.5v4l6.5 6.5-4.5 4.5v3L55.5 75l-16-16-4 4 5.5 5.5v2L34.5 77l-5-5-4 4-8.5-8.5v-3l2-2 1.5 1.5h2l8-8 1 1 8.5-8.5v-7L31.5 33l-1 1-8-8h-2L19 27.5Z" style="fill:#565666;stroke:none"/>
        <path d="m25.5 14 7-7h12l3-3h5L58 9.5v3L39.5 31l-4-4 5.5-5.5v-2L34.5 13l-5 5Zm0 62 4-4 5 5 6.5-6.5v-2L35.5 63l4-4L58 77.5v3L52.5 86h-5l-3-3h-12Z" style="stroke:none"/>
        <path d="M42 33.5v3l4.5 4.5h2l4.5-4.5v-3L48.5 29h-2Zm0 20v3l4.5 4.5h2l4.5-4.5v-3L48.5 49h-2Z" style="fill:#565666;stroke:none"/>
        <path d="M42 36.5v-3l4.5-4.5h2l4.5 4.5v3L48.5 41h-2Zm0 20v-3l4.5-4.5h2l4.5 4.5v3L48.5 61h-2Zm14-21v-4l12-12 13 13v4l7 7v3l-7 7v4l-13 13-12-12v-4l9.5-9.5Z" style="stroke:none"/>
    </g>
</svg>
