<svg xmlns="http://www.w3.org/2000/svg" width="154" height="154" style="fill-opacity:1;color-rendering:auto;color-interpolation:auto;text-rendering:auto;stroke:#000;stroke-linecap:square;stroke-miterlimit:10;shape-rendering:auto;stroke-opacity:1;fill:#000;stroke-dasharray:none;font-weight:400;stroke-width:1;font-family:&quot;Dialog&quot;;font-style:normal;stroke-linejoin:miter;font-size:12px;stroke-dashoffset:0;image-rendering:auto">
    <g style="stroke-linecap:round;fill:#989aa4;stroke:#989aa4">
        <path stroke="none" d="M6 93v-6.5l7.5-7.5 5 5-.5.5v1L10.5 93Z" style="stroke:none"/>
    </g>
    <g stroke="none" style="stroke-linecap:round;fill:#6e7080;stroke:#6e7080">
        <path d="M6 101.5V93h4.5l7.5-7.5v-1l.5-.5 2 2 3.5-3.5 3.5 3.5h-2l-5 5 3.5 3.5-3.5 3.5-3.5-3.5-5 5v8Z" style="stroke:none"/>
        <path d="M12 58.5v-16l6-6 3.5 3.5 4.5-4.5-3.5-3.5 4-4h4l9.5-9.5v-4L45.5 9h10l3.5 3.5v3l-9 9 4 4-5.5 5.5 10 10-5 5-.5-.5v-2l-2-2v-1l-7-7-5.5 5.5-3-3-4.5 4.5 3.5 3.5-4 4-4-4h-2L19 52.5v2l2.5 2.5-5.5 5.5Zm0 57v-16l5-5 3.5 3.5 3.5-3.5-3.5-3.5 5-5h9L45 96.5v3L33.5 111h-2l-5.5-5.5-6 6 4 4-4.5 4.5h-3Z" style="fill:#989aa4;stroke:none"/>
        <path d="M16.5 120h.5v7.5l2 2v7l-4 4-3-3v-22Z" style="stroke:none"/>
        <path d="M13 78.5v-3l3-3V72h3.5l7.5 7.5-6.5 6.5Z" style="fill:#4a4b53;stroke:none"/>
        <path d="M15 30v-9.5l4.5-4.5H27v8h-3.5l-6 6Z" style="fill:#989aa4;stroke:none"/>
        <path d="m15.5 39-.5-.5V30h2.5l6-6H27v4h-.5Z" style="stroke:none"/>
        <path d="m15 140.5 4-4v-7l-2-2V120h2.5l4.5-4.5 1.5 1.5h5l3-3h3l5.5 5.5 5-5v-4l-4-4v-4l-.5-.5 2.5-2.5v-3L38.5 90l3.5-3.5 9.5 9.5 5.5-5.5 2.5 2.5-8 8 3 3h6l.5.5L45.5 120l11 11-2.5 2.5v9l-3.5 3.5h-2l-.5-.5v-13l-7-7-3.5 3.5h-4l-3.5-3.5-7 7v13l-.5.5h-2ZM16 66v-3.5l13-13 1.5 1.5 4-4 7.5 7.5v4l9.5 9.5H53v1.5l.5.5-4 4h-2l-5-5-6 6h-4l-9-9Z" style="fill:#4a4b53;stroke:none"/>
        <path d="M16 72v-6h7.5l8.5 8.5-5 5-7.5-7.5Z" style="stroke:none"/>
        <path d="m18 36.5 4.5-4.5 3.5 3.5-4.5 4.5Z" style="fill:#4a4b53;stroke:none"/>
        <path d="M19 54.5v-2l5.5-5.5h2l2.5 2.5-7.5 7.5Zm1 57 6-6 5.5 5.5h2l9-9 .5.5v4l4 4v4l-5 5-5.5-5.5h-3l-3 3h-5Zm11-68 4.5-4.5 3 3-4.5 4.5Z" style="stroke:none"/>
        <path d="m34 46.5 4-4 3.5 3.5 3.5-3.5 4 4-7.5 7.5Z" style="fill:#feb380;stroke:none"/>
        <path d="M36 80.5V75h.5l6-6 5 5h2l4-4 3.5 3.5-14 14Z" style="fill:#989aa4;stroke:none"/>
        <path d="m38 42.5 6-6 7 7v1l-2 2-4-4-3.5 3.5Z" style="fill:#bc5452;stroke:none"/>
        <path d="m43 59.5-1-1v-4l-.5-.5 3.5-3.5 3.5 3.5Z" style="fill:#989aa4;stroke:none"/>
        <path d="m43 59.5 6.5-6.5 4 4 11-11 5 5L53 67.5v.5h-1.5Zm0 28 5.5-5.5 4 4 8-8 4.5 4.5L51.5 96Z" style="fill:#feb380;stroke:none"/>
        <path d="m45 50.5 6-6 2 2v2l.5.5-5 5Z" style="stroke:none"/>
        <path d="M45.5 120 61 104.5l4 4-11 11 3.5 3.5 2-2 3.5 3.5-6.5 6.5Z" style="fill:#bc5452;stroke:none"/>
        <path d="m48.5 34 5.5-5.5-4-4 7.5-7.5 6 6h.5v.5l-13 13Z" style="stroke:none"/>
        <path d="M48.5 82 60 70.5l8 8V80h-.5L65 82.5 60.5 78l-8 8Zm1-29 12-12h5l5.5 5.5v2L69.5 51l-5-5-11 11Z" style="fill:#bc5452;stroke:none"/>
        <path d="m51 36.5 5.5-5.5 8 8 3-3 3.5 3.5-3 3-1.5-1.5h-5l-3 3Z" style="fill:#4a4b53;stroke:none"/>
        <path d="M51.5 101 65 87.5l6 6v2l-4.5 4.5h-1l-4.5 4.5-.5-.5h-6Z" style="fill:#989aa4;stroke:none"/>
        <path d="M53 69.5v-2l19-19 2 2v3l-14 14v3l-3 3Z" style="stroke:none"/>
        <path d="m54 119.5 11-11-4-4 4.5-4.5h1l8.5 8.5v4l-12 12-3.5-3.5-2 2Z" style="fill:#feb380;stroke:none"/>
        <path d="m56.5 31 7.5-7.5V23h.5l7.5-7.5V15h10v.5l7.5 7.5h.5v.5l7.5 7.5-8 8-3-3-3.5 3.5-4.5-4.5h-3L71 39.5 67.5 36l-3 3Z" style="fill:#989aa4;stroke:none"/>
        <path d="m57 90.5 5.5-5.5 2.5 2.5-5.5 5.5Z" style="stroke:none"/>
        <path d="M60 70.5v-3l14-14v-3l-2-2v-2l-.5-.5 5.5-5.5 5.5 5.5-.5.5v2l-2 2v3l14 14v3l-8 8V80h-.5l-3-3-3.5 3.5 3.5 3.5-3 3h-5l-3-3 3.5-3.5-3.5-3.5-3 3H68v-1.5Z" style="fill:#989aa4;stroke:none"/>
        <path d="m62.5 85 5-5h.5v.5l6.5 6.5h5l6.5-6.5V80h.5l5 5-8.5 8.5v.5H71v-.5Z" style="fill:#4a4b53;stroke:none"/>
        <path d="m64.5 123 7.5-7.5 3.5 3.5h3l3.5-3.5 7.5 7.5L78 134.5l-.5-.5h-1l-.5.5Zm2-23 4.5-4.5V94h12v1.5l4.5 4.5-3 3-6-6h-3l-6 6ZM68 42.5l7.5-7.5h3l7.5 7.5-3.5 3.5-5.5-5.5-5.5 5.5Zm0 38V80h.5l3-3 3.5 3.5-3.5 3.5Z" style="stroke:none"/>
        <path d="m69.5 103 6-6h3l6 6-5 5-2.5-2.5-2.5 2.5Z" style="fill:#989aa4;stroke:none"/>
        <path d="m72 115.5 3-3v-4l-.5-.5 2.5-2.5 2.5 2.5-.5.5v4l3 3-3.5 3.5h-3Z" style="fill:#4a4b53;stroke:none"/>
        <path d="m79 80.5 3.5-3.5 3 3h.5v.5L82.5 84Z" style="stroke:none"/>
        <path d="M79 112.5v-4l9-9 5 5-4 4 11 11-3.5 3.5-2-2-3.5 3.5Z" style="fill:#feb380;stroke:none"/>
        <path d="M80 53.5v-3l2-2 19 19v2l-4 4-3-3v-3Z" style="stroke:none"/>
        <path d="M82 48.5v-2l5.5-5.5h5l12 12-4 4-11-11-5 5Z" style="fill:#bc5452;stroke:none"/>
        <path d="m83 39.5 3.5-3.5 3 3 8-8 5.5 5.5-7.5 7.5-3-3h-5L86 42.5Z" style="fill:#4a4b53;stroke:none"/>
        <path d="M83 95.5v-2l6-6 13.5 13.5-3 3h-6l-.5.5-5-5-.5.5Z" style="fill:#989aa4;stroke:none"/>
        <path d="m84.5 51 5-5 11 11 4-4 6.5 6.5-8.5 8.5H101v-.5Z" style="fill:#feb380;stroke:none"/>
        <path d="M86.5 80H86v-1.5l8-8L105.5 82l-4 4-8-8-4.5 4.5Z" style="fill:#bc5452;stroke:none"/>
        <path d="m89 82.5 4.5-4.5 8 8 4-4 5.5 5.5-8.5 8.5Z" style="fill:#feb380;stroke:none"/>
        <path d="m89 87.5 2.5-2.5 5.5 5.5-2.5 2.5Z" style="stroke:none"/>
        <path d="m89 108.5 4-4 15.5 15.5-11 11-6.5-6.5 3.5-3.5 2 2 3.5-3.5Z" style="fill:#bc5452;stroke:none"/>
        <path d="M90 23.5V23h.5l6-6 7.5 7.5-4 4 5.5 5.5-2.5 2.5Z" style="stroke:none"/>
        <path d="m93 104.5.5-.5h6l3-3-8-8 2.5-2.5 5.5 5.5 9.5-9.5 3.5 3.5-6.5 6.5v3l2.5 2.5-.5.5v4l-4 4v4l5 5 5.5-5.5h3l3 3h5l1.5-1.5 4.5 4.5h2.5v7.5l-2 2v7l4 4-5.5 5.5h-2l-.5-.5v-13l-7-7-3.5 3.5h-4l-3.5-3.5-7 7v13l-.5.5h-2l-3.5-3.5v-9l-2.5-2.5 11-11Z" style="fill:#4a4b53;stroke:none"/>
        <path d="M95 15.5v-3L98.5 9h10l5.5 5.5v4l9.5 9.5h4l4 4-3.5 3.5 4.5 4.5 3.5-3.5 2.5 2.5h.5v.5l3 3v16l-4 4-5.5-5.5 2.5-2.5v-2l-5.5-5.5h-2l-4 4-4-4 3.5-3.5-4.5-4.5-3 3-5.5-5.5-7 7v1l-2 2v2l-.5.5-5-5 10-10-5.5-5.5 4-4Zm2 58 3.5-3.5 4 4h2l5-5 6 6h.5v5.5l-7 7Z" style="fill:#989aa4;stroke:none"/>
        <path d="m100.5 49 .5-.5v-2l2-2 6 6-3.5 3.5Z" style="stroke:none"/>
        <path d="m100.5 70 .5-.5V68h1.5l9.5-9.5v-4l7.5-7.5 4 4 1.5-1.5 13 13V66h-7.5l-9 9h-4l-6-6-5 5h-2Z" style="fill:#4a4b53;stroke:none"/>
        <path d="M103 44.5v-1l7-7 6 6-3.5 3.5-3.5-3.5-4 4Z" style="fill:#bc5452;stroke:none"/>
        <path d="m105 46.5 4-4 3.5 3.5 3.5-3.5 4 4-7.5 7.5Z" style="fill:#feb380;stroke:none"/>
        <path d="m105.5 54 3.5-3.5 3.5 3.5-.5.5v4l-1 1Z" style="fill:#989aa4;stroke:none"/>
        <path d="M107 114.5v-4l4-4v-4l.5-.5 9 9h2l5.5-5.5 6 6-5.5 5.5h-5l-3-3h-3l-5.5 5.5Z" style="stroke:none"/>
        <path d="M109 99.5v-3L119.5 86h9l5 5-3.5 3.5 3.5 3.5 3.5-3.5 5 5v16l-4.5 4.5h-3l-4.5-4.5 4-4-6-6-5.5 5.5h-2Z" style="fill:#989aa4;stroke:none"/>
        <path d="m115.5 42 3-3 4.5 4.5-3 3Zm6.5 32.5 8.5-8.5h7.5v6h-3.5l-7.5 7.5Zm3-25 2.5-2.5h2l5.5 5.5v2l-2.5 2.5Z" style="stroke:none"/>
        <path d="M127 24v-8h7.5l4.5 4.5V30h-2.5l-6-6Z" style="fill:#989aa4;stroke:none"/>
        <path d="M127.5 28h-.5v-4h3.5l6 6h2.5v9h-.5Z" style="stroke:none"/>
        <path d="m127 79.5 7.5-7.5h3.5v.5l3 3v3l-7.5 7.5Z" style="fill:#4a4b53;stroke:none"/>
        <path d="m126.5 86 3.5-3.5 3.5 3.5 2-2 .5.5v1l7.5 7.5h4.5v8.5l-6 6v-8l-5-5-3.5 3.5-3.5-3.5 3.5-3.5-5-5Z" style="stroke:none"/>
        <path d="m128 35.5 3.5-3.5 4.5 4.5-3.5 3.5Z" style="fill:#4a4b53;stroke:none"/>
        <path d="M135 136.5v-7l2-2V120h.5l4.5-4.5v22l-3 3Z" style="stroke:none"/>
        <path d="M136 85.5v-1l-.5-.5 5-5 7.5 7.5V93h-4.5Z" style="fill:#989aa4;stroke:none"/>
    </g>
</svg>
