<svg xmlns="http://www.w3.org/2000/svg" width="170" height="140" style="fill-opacity:1;color-rendering:auto;color-interpolation:auto;text-rendering:auto;stroke:#000;stroke-linecap:square;stroke-miterlimit:10;shape-rendering:auto;stroke-opacity:1;fill:#000;stroke-dasharray:none;font-weight:400;stroke-width:1;font-family:&quot;Dialog&quot;;font-style:normal;stroke-linejoin:miter;font-size:12px;stroke-dashoffset:0;image-rendering:auto">
    <g style="stroke-linecap:round;fill:#6d6f7f;stroke:#6d6f7f">
        <path stroke="none" d="M18 64.5v-2l2.5-2.5 17 17-8 8 3.5 3.5 6.5-6.5-.5-.5 1.5-1.5 6.5 6.5v3L40.5 96l8 8h5l6-6h5L79 83.5v-2l4-4 .5.5h3l.5-.5 4 4v2L105.5 98h5l6 6h5l8-8-6.5-6.5v-3l6.5-6.5 1.5 1.5-.5.5 6.5 6.5 3.5-3.5-8-8 17-17 2.5 2.5v2l-11 11v4l5 5v8l4 4v7l-6.5 6.5 2.5 2.5v6l-5.5 5.5h-17l-5-5h-12l-15-15-6.5 6.5-6.5-6.5-15 15h-12l-5 5h-17l-5.5-5.5v-6l2.5-2.5-6.5-6.5v-7l4-4v-8l5-5v-4Z" style="stroke:none"/>
    </g>
    <g stroke="none" style="stroke-linecap:round;fill:#b0bac0;stroke:#b0bac0">
        <path d="m20.5 60 18-18h8l3.5-3.5v-8L62.5 18h7l3.5 3.5v13l6.5 6.5h11l6.5-6.5v-13l3.5-3.5h7L120 30.5v8l3.5 3.5h8l18 18-3.5 3.5-4.5-4.5h-2l-1.5 1.5v2l4.5 4.5-7.5 7.5-2-2-7.5 7.5h-5l-5.5 5.5v3l2.5 2.5 3.5-3.5 2 2v6l-3 3v3l-2.5 2.5h-1l-6-6h-5L99 91.5l1-1v-5l7.5 7.5h3l.5-.5v-5l-3.5-3.5.5-.5v-1l11-11v-2l-3-3v-3l3-3v-1l.5-.5 12 12h2l3.5-3.5v-2L122.5 51h-5l-.5-.5 1-1-4-4-.5.5-5-5-4 4 3.5 3.5-3 3-3-3-2 2v-3l-6-6-3 3v8L87.5 49h-5L79 52.5v-8l-3-3-6 6v3l-2-2-3 3-3-3 3.5-3.5-4-4-5 5h-1L52 49.5l1 1-.5.5h-5L33 65.5v2l3.5 3.5h2l12-12 .5.5v1l3 3v3l-3 3v2l11 11v1l.5.5-3.5 3.5v5l.5.5h3l7.5-7.5v5l1 1-6.5 6.5h-5l-6 6h-1l-2.5-2.5v-3l-3-3v-6l2-2 3.5 3.5 2.5-2.5v-3L49.5 80h-5L37 72.5l-2 2-7.5-7.5 4.5-4.5v-2L30.5 59h-2L24 63.5Z" style="stroke:none"/>
        <path d="m24 63.5 4.5-4.5h2l1.5 1.5v2L27.5 67Z" style="fill:#9799a3;stroke:none"/>
        <path d="m25.5 97 2.5 2.5 4.5-4.5-2.5-2.5Z" style="fill:#6d6f7f;stroke:none"/>
        <path d="m25.5 97 4.5-4.5 2.5 2.5-4.5 4.5Z" style="fill:#9799a3;stroke:none"/>
        <path d="m27 105.5 2.5 2.5h9l3.5-3.5-2.5-2.5h-9Z" style="fill:#6d6f7f;stroke:none"/>
        <path d="m27 105.5 3.5-3.5h9l2.5 2.5-3.5 3.5h-9Z" style="fill:#9799a3;stroke:none"/>
        <path d="m29.5 85 6.5-6.5 3.5 3.5-6.5 6.5ZM33 55.5l3.5 3.5 7.5-7.5-2.5-2.5h-2Z" style="stroke:none"/>
        <path d="m33 55.5 6.5-6.5h2l2.5 2.5-7.5 7.5Z" style="fill:#9799a3;stroke:none"/>
        <path d="m34 68.5-1-1v-2L47.5 51h5l.5-.5 2.5 2.5-.5.5v1L50.5 59h-7Z" style="fill:#62ae7f;stroke:none"/>
        <path d="m34 68.5 9.5-9.5h7l-12 12h-2Z" style="fill:#84f491;stroke:none"/>
        <path d="m35 74.5 2-2 7.5 7.5h5l5.5 5.5v3L52.5 91 49 87.5l-2 2v-3L40.5 80 39 81.5l-3-3 1.5-1.5Z" style="fill:#9799a3;stroke:none"/>
        <path d="M42 71.5v4l.5.5h2l5.5-5.5v-2l-.5-.5h-4Z" style="stroke:none"/>
        <path d="m40.5 96 6.5-6.5v6l3 3v3l2.5 2.5h-4Z" style="fill:#9799a3;stroke:none"/>
        <path d="M42 75.5v-4l3.5-3.5h4Z" style="fill:#62ae7f;stroke:none"/>
        <path d="m42.5 76-.5-.5 7.5-7.5.5.5v2L44.5 76Z" style="fill:#84f491;stroke:none"/>
        <path d="m42.5 112 2 2h4l4-4-2-2h-4Z" style="fill:#6d6f7f;stroke:none"/>
        <path d="m42.5 112 4-4h4l2 2-4 4h-4Z" style="fill:#9799a3;stroke:none"/>
        <path d="M51 60.5v-1l-.5-.5 1.5-1.5.5.5h2l4 4-2 2H54v-.5Zm0 11v-2l2.5-2.5 8.5 8.5v3l-2 2Zm1-22 3.5-3.5h1L68 57.5v2L66.5 61h-3Z" style="fill:#6d6f7f;stroke:none"/>
        <path d="m52.5 58-.5-.5 3-3v-1l.5-.5 7.5 7.5-2 2v6l7.5 7.5H70v9.5L65.5 81l-3 3-.5-.5v-1l-2-2 2-2v-3L53.5 67l.5-.5V64h2.5l2-2-4-4Z" style="fill:#9799a3;stroke:none"/>
        <path d="M54 33.5v2l.5.5h4l11-11-1-1h-5Z" style="stroke:none"/>
        <path d="m54.5 36-.5-.5v-2l9.5-9.5h5l1 1-11 11Z" style="fill:#6d6f7f;stroke:none"/>
        <path d="m56.5 46 5-5 4 4-3.5 3.5 3 3 3-3 2 2v1l-4 4Z" style="fill:#9799a3;stroke:none"/>
        <path d="m59.5 93-.5-.5v-5l6.5-6.5 4.5 4.5-7.5 7.5Z" style="fill:#6d6f7f;stroke:none"/>
        <path d="M61 68.5v-6l2-2 .5.5h1l3 3 2.5-2.5V76h-1.5Z" style="stroke:none"/>
        <path d="M64.5 61h2l1.5-1.5V58h2v3.5L67.5 64Z" style="fill:#9799a3;stroke:none"/>
        <path d="m66 55.5 4-4V58h-2v-.5Z" style="stroke:none"/>
        <path d="M70 66.5v-19l6-6 3 3v13Z" style="fill:#62ae7f;stroke:none"/>
        <path d="M70 72.5v-6l9-9v6Z" style="fill:#84f491;stroke:none"/>
        <path d="M70.5 77H70v-4.5l9-9V69h-.5Z" style="fill:#62ae7f;stroke:none"/>
        <path d="m71 91.5-1-1V77h.5l8-8h.5v14.5Z" style="fill:#84f491;stroke:none"/>
        <path d="m76 91.5 9 9 9-9v-2l-9-9-9 9Z" style="fill:#6d6f7f;stroke:none"/>
        <path d="M76 91.5v-2l2.5-2.5.5.5v2l6 6 6-6v-2l.5-.5 2.5 2.5v2l-9 9Z" style="fill:#9799a3;stroke:none"/>
        <path d="M79 56.5v-4l3.5-3.5h5l3.5 3.5v4L86.5 52h-3Z" style="fill:#6d6f7f;stroke:none"/>
        <path d="M79 60.5v-4l4.5-4.5h3l4.5 4.5v4l-6-6Z" style="fill:#9799a3;stroke:none"/>
        <path d="M79 69v-8.5l6-6 6 6V69h-1.5L85 73.5 80.5 69Z" style="stroke:none"/>
        <path d="M79 75v-6h1.5l4.5 4.5 4.5-4.5H91v6h-1.5l-3 3h-3l-3-3Z" style="fill:#9799a3;stroke:none"/>
        <path d="M79 81.5V75h1.5l2.5 2.5Zm0 8v-2l-.5-.5 6.5-6.5 6.5 6.5-.5.5v2l-6 6Zm8-12 2.5-2.5H91v6.5Z" style="stroke:none"/>
        <path d="M91 57.5v-13l3-3 6 6v19Z" style="fill:#62ae7f;stroke:none"/>
        <path d="M100 66.5v6l-9-9v-6Z" style="fill:#84f491;stroke:none"/>
        <path d="M100 72.5v5L91.5 69H91v-5.5Z" style="fill:#62ae7f;stroke:none"/>
        <path d="M100 77.5v13l-1 1-8-8V69h.5Z" style="fill:#84f491;stroke:none"/>
        <path d="m100.5 25 11 11h4l.5-.5v-2l-9.5-9.5h-5Z" style="stroke:none"/>
        <path d="M100 51.5v-1l2-2 3 3 3-3-3.5-3.5 4-4 5 5-9.5 9.5Z" style="fill:#9799a3;stroke:none"/>
        <path d="m104 55.5-2 2v.5h-2v-6.5Z" style="stroke:none"/>
        <path d="M100 61.5V58h2v1.5l1.5 1.5h2l-3 3Z" style="fill:#9799a3;stroke:none"/>
        <path d="m102.5 64 3-3h1l.5-.5 2 2v6l-7.5 7.5H100V61.5Z" style="stroke:none"/>
        <path d="M100 85.5V76h1.5l7.5-7.5v-6l-2-2 7.5-7.5.5.5v1l3 3-.5.5h-2l-4 4 2 2h2.5v2.5l.5.5-8.5 8.5v3l2 2-2 2v1l-.5.5-3-3Z" style="fill:#9799a3;stroke:none"/>
        <path d="m100 85.5 4.5-4.5 6.5 6.5v5l-.5.5h-3Zm.5-60.5 1-1h5l9.5 9.5v2l-.5.5h-4Zm1.5 34.5v-2l12-12 4 4L106.5 61h-3Zm6 19v-3l8.5-8.5 2.5 2.5v2l-9 9Zm3.5-16.5 4-4h2l.5-.5 1.5 1.5-.5.5v1l-3 3v.5h-2.5Z" style="fill:#6d6f7f;stroke:none"/>
        <path d="M115 54.5v-1l-.5-.5 2.5-2.5.5.5h5L137 65.5v2l-1 1-9.5-9.5h-6l-.5.5Z" style="fill:#62ae7f;stroke:none"/>
        <path d="M115 88.5v-3l5.5-5.5h5l7.5-7.5 2 2-2.5 2.5 1.5 1.5-3 3-1.5-1.5-6.5 6.5v3l-2-2-3.5 3.5Z" style="fill:#9799a3;stroke:none"/>
        <path d="m117.5 110 4 4h4l2-2-4-4h-4Z" style="fill:#6d6f7f;stroke:none"/>
        <path d="m117.5 104 2.5-2.5v-3l3-3v-6l6.5 6.5-8 8Zm0 6 2-2h4l4 4-2 2h-4Z" style="fill:#9799a3;stroke:none"/>
        <path d="M120 68.5v2l5.5 5.5h2l.5-.5v-4l-3.5-3.5h-4Z" style="stroke:none"/>
        <path d="m120 59.5.5-.5h6l9.5 9.5-2.5 2.5h-2Zm8 16-.5.5h-2l-5.5-5.5v-2l.5-.5Z" style="fill:#84f491;stroke:none"/>
        <path d="M120.5 68h4l3.5 3.5v4Z" style="fill:#62ae7f;stroke:none"/>
        <path d="m126 51.5 7.5 7.5 3.5-3.5-6.5-6.5h-2Z" style="stroke:none"/>
        <path d="m126 51.5 2.5-2.5h2l6.5 6.5-3.5 3.5Z" style="fill:#9799a3;stroke:none"/>
        <path d="m128 104.5 3.5 3.5h9l2.5-2.5-3.5-3.5h-9Z" style="fill:#6d6f7f;stroke:none"/>
        <path d="m128 104.5 2.5-2.5h9l3.5 3.5-2.5 2.5h-9Z" style="fill:#9799a3;stroke:none"/>
        <path d="m130.5 82 3.5-3.5 6.5 6.5-3.5 3.5Z" style="stroke:none"/>
        <path d="m137.5 95 4.5 4.5 2.5-2.5-4.5-4.5Z" style="fill:#6d6f7f;stroke:none"/>
        <path d="M138 62.5v-2l1.5-1.5h2l4.5 4.5-3.5 3.5Zm-.5 32.5 2.5-2.5 4.5 4.5-2.5 2.5Z" style="fill:#9799a3;stroke:none"/>
    </g>
</svg>
