<svg xmlns="http://www.w3.org/2000/svg" width="112" height="112" style="fill-opacity:1;color-rendering:auto;color-interpolation:auto;text-rendering:auto;stroke:#000;stroke-linecap:square;stroke-miterlimit:10;shape-rendering:auto;stroke-opacity:1;fill:#000;stroke-dasharray:none;font-weight:400;stroke-width:1;font-family:&quot;Dialog&quot;;font-style:normal;stroke-linejoin:miter;font-size:12px;stroke-dashoffset:0;image-rendering:auto">
    <g style="stroke-linecap:round;fill:#fff;stroke:#fff">
        <path stroke="none" d="M28 84.5v-3l1.5-1.5.5.5v1l5.5 5.5h1l.5.5-1.5 1.5h-3Z" style="stroke:none"/>
    </g>
    <g stroke="none" style="stroke-linecap:round;fill:#fff;stroke:#fff">
        <path d="M29 36.5v-3l4.5-4.5h3l1.5 1.5-.5.5h-1L31 36.5v1l-.5.5Zm4 43v-3l1.5-1.5.5.5v1l5.5 5.5h1l.5.5-1.5 1.5h-3Zm1-38v-3l4.5-4.5h3l1.5 1.5-.5.5h-1L36 41.5v1l-.5.5Z" style="stroke:none"/>
        <path d="m40.5 95-.5-.5 5-5 2.5 2.5h1l.5.5-2.5 2.5Z" style="fill:#dcc6c6;stroke:none"/>
        <path d="m45 89.5 3.5-3.5h.5v.5l3 3-3 3-.5-.5h-1Zm7-37v-8l3.5-3.5h1l3.5 3.5v8l-4 4Z" style="stroke:none"/>
        <path d="m56 56.5 4-4v4L56.5 60h-1L52 56.5v-4Z" style="fill:#dcc6c6;stroke:none"/>
        <path d="M52 79.5v-12l4-4 4 4v12l-4 4Z" style="stroke:none"/>
        <path d="m56 83.5 4-4v5L56.5 88h-1L52 84.5v-5Z" style="fill:#dcc6c6;stroke:none"/>
        <path d="m60 89.5 3-3V86h.5l3.5 3.5-2.5 2.5h-1l-.5.5Z" style="stroke:none"/>
        <path d="m63 92.5.5-.5h1l2.5-2.5 5 5-.5.5h-6Z" style="fill:#dcc6c6;stroke:none"/>
        <path d="m69.5 36-.5-.5 1-1V34h2.5l.5-.5 5.5 5.5-.5.5v1l.5.5-2 2-.5-.5v-1L70.5 36Zm.5 46.5.5-.5h1l5.5-5.5v-1l.5-.5 1 1h.5v2.5l.5.5-5.5 5.5-.5-.5H71v-.5ZM74.5 31l-.5-.5 1.5-1.5h3l4.5 4.5v3L81.5 38l-.5-.5v-1L75.5 31Zm.5 56.5.5-.5h1l5.5-5.5v-1l.5-.5 1.5 1.5v3L79.5 89h-3Z" style="stroke:none"/>
    </g>
</svg>
