<svg xmlns="http://www.w3.org/2000/svg" width="112" height="112" style="fill-opacity:1;color-rendering:auto;color-interpolation:auto;text-rendering:auto;stroke:#000;stroke-linecap:square;stroke-miterlimit:10;shape-rendering:auto;stroke-opacity:1;fill:#000;stroke-dasharray:none;font-weight:400;stroke-width:1;font-family:&quot;Dialog&quot;;font-style:normal;stroke-linejoin:miter;font-size:12px;stroke-dashoffset:0;image-rendering:auto">
    <g style="stroke-linecap:round;fill:#b0bac0;stroke:#b0bac0">
        <path stroke="none" d="m3.5 109-.5-.5v-6l18-18V84h1.5l8 8h5l12-12 3.5 3.5L35.5 99H31v-.5l-9-9-15 15 .5.5Z" style="stroke:none"/>
    </g>
    <g stroke="none" style="stroke-linecap:round;fill:#6e7080;stroke:#6e7080">
        <path d="m7 104.5 2-2 2 2 7-7-2-2 6-6 9 9v7l-4 4-6.5-6.5-6 6h-3Z" style="stroke:none"/>
        <path d="M8 44.5v-4l5.5-5.5h2l.5-.5v-2l8-8v6L16.5 38h-2Z" style="fill:#b0bac0;stroke:none"/>
        <path d="m8 44.5 6.5-6.5h2l7.5-7.5v-8l6.5-6.5h7l5.5-5.5 2 2-6 6 3 3 3.5-3.5 2.5 2.5-.5.5h-1L44 23.5v3L38.5 21h-5L26 28.5v14l3 3-1 1v6l7 7-1 1 4 4-.5.5h-4L24 74.5v10l-.5.5-1-1H21v-7.5l-.5-.5 2.5-2.5-3.5-3.5-3 3H16v-2.5l3-3 2 2 7-7-4-4 4.5-4.5-4-4-.5.5v2l-4-4 4.5-4.5-4-4h-2l-5 5h-1l-2 2Z" style="fill:#989aa4;stroke:none"/>
        <path d="m16.5 53-.5.5v6l-.5.5h-3L8 55.5v-11Z" style="stroke:none"/>
        <path d="m9 102.5 7-7 2 2-7 7Z" style="fill:#989aa4;stroke:none"/>
        <path d="m10.5 47 2-2h1l.5-.5 4 4-1 1v3l-.5.5Z" style="fill:#b0bac0;stroke:none"/>
        <path d="M12 84.5v-8l3.5-3.5h1l.5-.5 4 4v8L16.5 89Zm2-40 4.5-4.5h2l4 4-5 5h-1Z" style="stroke:none"/>
        <path d="m17 72.5 2.5-2.5 3.5 3.5-2.5 2.5Zm.5-6.5 7-7 3.5 3.5-7 7Z" style="fill:#b0bac0;stroke:none"/>
        <path d="M28.5 54 24 58.5v-8l.5-.5ZM24 81.5v-7l9.5-9.5h4l.5-.5 6 6v8L37.5 72h-4Zm2-48v-5l7.5-7.5h5l5.5 5.5v8L35.5 26h-2Z" style="stroke:none"/>
        <path d="M35.5 46h2l6.5-6.5v5l.5.5-7 7h-2L26 42.5v-6Z" style="fill:#b0bac0;stroke:none"/>
        <path d="m29.5 61 2.5-2.5-2.5-2.5-2.5 2.5Z" style="fill:#989aa4;stroke:none"/>
        <path d="m27 58.5 2.5-2.5 2.5 2.5-2.5 2.5Z" style="fill:#b0bac0;stroke:none"/>
        <path d="M35.5 52h2l5-5 .5.5v2l-3 3V60h-4.5L28 52.5v-6l1-1Z" style="stroke:none"/>
        <path d="M31 16v-3.5L35.5 8l5 5-3 3Z" style="fill:#b0bac0;stroke:none"/>
        <path d="M31 103.5V99h4.5L51 83.5l3.5 3.5-5.5 5.5v4l-4.5 4.5-3-3-3 3h-5Z" style="fill:#989aa4;stroke:none"/>
        <path d="m34 60.5 1-1 .5.5H40v.5l7 7-3 3Z" style="fill:#d06b53;stroke:none"/>
        <path d="M35.5 8h5l2.5 2.5-2.5 2.5Z" style="stroke:none"/>
        <path d="m39 18.5 3.5-3.5 3 3-3.5 3.5Z" style="fill:#b0bac0;stroke:none"/>
        <path d="M40 57.5v-5l3-3v-2l-.5-.5 9-9h.5v4.5l-6 6v3Z" style="fill:#d06b53;stroke:none"/>
        <path d="M40 60.5v-3l6-6v-3l6-6v14l4 4 4-4v-14l6 6v3l6 6v3l-7 7 3 3v1L60.5 79H60V67.5l-4-4-4 4v12l-8-8v-1l3-3Z" style="fill:#ffa665;stroke:none"/>
        <path d="M40.5 8h5l6.5 6.5v5Z" style="fill:#b0bac0;stroke:none"/>
        <path d="m43 95.5 3 3 2.5-2.5-3-3Z" style="fill:#989aa4;stroke:none"/>
        <path d="m42.5 15 2.5-2.5 7 7v1l-2 2Z" style="stroke:none"/>
        <path d="m43 95.5 2.5-2.5 3 3-2.5 2.5Zm1-57v-15l2.5-2.5h1l.5-.5 4 4v6Z" style="fill:#b0bac0;stroke:none"/>
        <path d="M44 42.5v-4l8-8v4Z" style="stroke:none"/>
        <path d="m44.5 45-.5-.5v-2l8-8V38h-.5Zm4 31-.5.5v3L44.5 83l-.5-.5v-11Z" style="fill:#989aa4;stroke:none"/>
        <path d="m43.5 102 5.5-5.5v-4l5.5-5.5 1.5 1.5 1.5-1.5 5.5 5.5v4l5.5 5.5-4 4-4-4H60v-7.5l-4-4-4 4v7.5h-.5l-4 4Z" style="stroke:none"/>
        <path d="M52 79.5v4l-.5.5-4-4 .5-.5v-3l.5-.5Z" style="fill:#d06b53;stroke:none"/>
        <path d="m50 22.5 2-2 4 4 4-4 2 2-2 2v10l-4-4-4 4v-10Z" style="fill:#989aa4;stroke:none"/>
        <path d="M52.5 38H52v-3.5l4-4 4 4V38h-.5L56 41.5Z" style="fill:#b0bac0;stroke:none"/>
        <path d="m56 41.5 3.5-3.5h.5v4h-.5l-3 3h-1L52 41.5V38h.5Z" style="stroke:none"/>
        <path d="M55.5 45 52 48.5v-7Z" style="fill:#989aa4;stroke:none"/>
        <path d="M52 52.5v-4l3.5-3.5h1l3.5 3.5v4l-4 4Z" style="fill:#b0bac0;stroke:none"/>
        <path d="m56 56.5 4-4v4l-4 4-4-4v-4Zm-4 14v-3l4-4 4 4v3l-4-4Z" style="fill:#d06b53;stroke:none"/>
        <path d="M52 72.5v-2l4-4 4 4v2l-4 4Z" style="fill:#b0bac0;stroke:none"/>
        <path d="m56 76.5 4-4V78h-.5l-2 2h-3L52 77.5v-5Z" style="fill:#989aa4;stroke:none"/>
        <path d="M54.5 80h3l2-2h.5v5.5l.5.5-4.5 4.5-4.5-4.5.5-.5v-6Z" style="fill:#b0bac0;stroke:none"/>
        <path d="M52 98.5v-4l4-4 4 4v4l-4-4Z" style="fill:#989aa4;stroke:none"/>
        <path d="M52.5 102H52v-3.5l4-4 4 4v3.5h-.5L56 98.5Z" style="fill:#b0bac0;stroke:none"/>
        <path d="m56.5 45 3-3h.5v6.5Zm1 42 3.5-3.5L76.5 99H81v4.5l-2.5-2.5h-5l-3-3-3 3-4.5-4.5v-4Z" style="fill:#989aa4;stroke:none"/>
        <path d="M60 19.5v-5L66.5 8h5Z" style="fill:#b0bac0;stroke:none"/>
        <path d="M60 20.5v-1l7-7 2.5 2.5-7.5 7.5Z" style="stroke:none"/>
        <path d="M60 30.5v-6l4-4 .5.5h1l2.5 2.5v15Z" style="fill:#b0bac0;stroke:none"/>
        <path d="M68 38.5v4l-8-8v-4Z" style="stroke:none"/>
        <path d="M68 42.5v2l-.5.5-7-7H60v-3.5Z" style="fill:#989aa4;stroke:none"/>
        <path d="m69.5 47-.5.5v2l3 3v5l-6-6v-3l-6-6V38h.5Zm-9 37-.5-.5V79h.5l3-3 .5.5v3l.5.5Z" style="fill:#d06b53;stroke:none"/>
        <path d="m61 83.5 3.5-3.5 12 12h5l8-8H91v.5l18 18v6l-.5.5-4-4 .5-.5-15-15-9 9v.5h-4.5Z" style="fill:#b0bac0;stroke:none"/>
        <path d="m64.5 21-.5-.5 2.5-2.5 3.5 3.5 3-3-6-6 2-2 5.5 5.5h7l6.5 6.5v8l7.5 7.5h2l6.5 6.5-2.5 2.5-2-2h-1l-5-5h-2l-4 4 4.5 4.5-4 4v-2l-.5-.5-3 3-.5-.5v-6l-1-1 3-3v-14L78.5 21h-5L68 26.5v-3L65.5 21ZM64 79.5v-3l-.5-.5 4.5-4.5v11l-.5.5ZM63.5 96l2.5 2.5 3-3-2.5-2.5Z" style="fill:#989aa4;stroke:none"/>
        <path d="m63.5 96 3-3 2.5 2.5-3 3Z" style="fill:#b0bac0;stroke:none"/>
        <path d="m65 67.5 7-7V60h4.5l.5-.5 1 1-10 10Z" style="fill:#d06b53;stroke:none"/>
        <path d="m66.5 18 3-3 3.5 3.5-3 3Z" style="fill:#b0bac0;stroke:none"/>
        <path d="M68 34.5v-8l5.5-5.5h5l7.5 7.5v5L78.5 26h-2Z" style="stroke:none"/>
        <path d="M74.5 46h2l9.5-9.5v6L76.5 52h-2l-7-7 .5-.5v-5Z" style="fill:#b0bac0;stroke:none"/>
        <path d="M68 78.5v-8l6-6 .5.5h4l9.5 9.5v7L78.5 72h-4Zm1-68L71.5 8h5l-5 5ZM74.5 52h2l6.5-6.5 1 1v6l.5.5 3-3 .5.5v8l-4-4v-1l-.5-.5-7 7H72v-7.5l-3-3v-2l.5-.5Z" style="stroke:none"/>
        <path d="m71.5 13 5-5 4.5 4.5V16h-6.5Z" style="fill:#b0bac0;stroke:none"/>
        <path d="m74.5 65-.5-.5 4-4-1-1 6.5-6.5.5.5v1l4 4-4 4 7 7 2-2 3 3V73h-.5l-3-3-3.5 3.5 2.5 2.5-.5.5V84h-1.5l-1 1-.5-.5v-10L78.5 65Z" style="fill:#989aa4;stroke:none"/>
        <path d="m80 58.5 2.5-2.5 2.5 2.5-2.5 2.5Z" style="fill:#b0bac0;stroke:none"/>
        <path d="m82.5 61 2.5-2.5-2.5-2.5-2.5 2.5Z" style="fill:#989aa4;stroke:none"/>
        <path d="M81 105.5v-7l9-9 6 6-2 2 7 7 2-2 2 2-4.5 4.5h-3l-6-6-6.5 6.5Z" style="stroke:none"/>
        <path d="m84 62.5 3.5-3.5 7 7-3.5 3.5Zm12-30v2l.5.5h2l5.5 5.5v4L97.5 38h-2L88 30.5v-6Z" style="fill:#b0bac0;stroke:none"/>
        <path d="m87.5 44 4-4h2l4.5 4.5-4.5 4.5h-1Z" style="stroke:none"/>
        <path d="m89 73.5 3.5-3.5 2.5 2.5-3.5 3.5Z" style="fill:#b0bac0;stroke:none"/>
        <path d="M91 84.5v-8l4-4 .5.5h1l3.5 3.5v8L95.5 89Z" style="stroke:none"/>
        <path d="m94 48.5 4-4 .5.5h1l2 2-6 6-.5-.5v-3Z" style="fill:#b0bac0;stroke:none"/>
        <path d="m94 97.5 2-2 7 7-2 2Z" style="fill:#989aa4;stroke:none"/>
        <path d="m96.5 60-.5-.5v-6l-.5-.5 8.5-8.5v11L99.5 60Z" style="stroke:none"/>
    </g>
</svg>
