<svg xmlns="http://www.w3.org/2000/svg" width="256" height="256" style="fill-opacity:1;color-rendering:auto;color-interpolation:auto;text-rendering:auto;stroke:#000;stroke-linecap:square;stroke-miterlimit:10;shape-rendering:auto;stroke-opacity:1;fill:#000;stroke-dasharray:none;font-weight:400;stroke-width:1;font-family:&quot;Dialog&quot;;font-style:normal;stroke-linejoin:miter;font-size:12px;stroke-dashoffset:0;image-rendering:auto">
    <g style="stroke-linecap:round;fill:#fff;stroke:#fff">
        <path stroke="none" d="M.5 34V4l1-1h1l.5-.5v-1l1-1h18v1l1 1v1l1 1v4l1 1v2l-1 1-1.5-1.5h-1l-1-1h-1l-1-1h-1L16 7.5 14.5 9h-1l-1 1h-1L10 11.5v1l-1 1v1l-1 1v27l-.5.5L6 41.5v-1l-3-3v-1Z" style="stroke:none"/>
    </g>
    <g stroke="none" style="stroke-linecap:round;fill:#fff;stroke:#fff">
        <path d="M3 49.5v1l3 3v1l3 3v1l1.5 1.5L9 61.5v4l-1 1v4l-1 1L5.5 70h-1l-1-1h-1l-2-2V47Zm0 32v1L6.5 86h1l.5.5v15l-1 1L3.5 99h-1l-2-2V79ZM1.5 107h1l3 3h1l1.5 1.5v28l-1 1-2.5-2.5h-1l-2-2h-1v-30Zm-1 48v-14h1l1 1h1l2 2h1l1.5 1.5v12l-.5.5-1-1h-2l-1-1h-2Zm0 38v-24h1l1 1h1l1 1h2l1.5 1.5v13Zm0 29v-24l7-7 .5.5v25l-.5.5h-1l-3 3h-1Zm0 30v-22h1l2-2h1l3-3 .5.5v19l1 1v1l.5.5h1l2.5 2.5v1l1 1v1l1 1v1l1 1H4l-1-1v-1l-.5-.5h-1Zm11-230 2.5-2.5 2.5 2.5-2.5 2.5Zm.5 210.5v-5l1-1v-1l.5-.5h1l1-1h5l1 1h1l.5.5v1l1.5 1.5-1.5 1.5v1l-1 1v1l-1.5 1.5h-1l-1 1h-1l-1.5 1.5-1.5-1.5h-1l-.5-.5v-1Zm4-196v-3l2-2 1.5 1.5h1l.5.5v1l.5.5h1l.5.5v1l1.5 1.5-2 2h-3l-1-1h-1l-.5-.5v-1ZM15.5 196l1.5-1.5v-1l.5-.5h5l.5.5v1l1.5 1.5-1.5 1.5v1l-.5.5h-1l-1.5 1.5-1.5-1.5h-1l-.5-.5v-1ZM20 65.5l-1-1 1-1 1 1ZM18.5 90l2.5-2.5 2.5 2.5-2.5 2.5ZM20 248.5l1.5-1.5h1l1-1h1l1-1h1l1-1h5l1 1h1l1 1h1l1 1h1l1 1h8l.5.5-1 1v1l-1 1v1l-1 1v2H22v-4l-1-1v-1Zm5-248h49v1l1 1v2l1 1v2l-.5.5h-15l-1 1-1-1h-27L30 9.5l-2-2v-1l-1-1v-2l-1-1v-1Zm1 137v-3l1-1v-1l.5-.5h1l1-1h3l1 1h1l.5.5v1l1 1v3l-1 1v1l-.5.5h-1l-1 1h-3l-1-1h-1l-.5-.5v-1Zm2-31v-4l1-1v-1l1.5-1.5h1l1-1h4l1 1h1l1.5 1.5v1l1 1v4l-1 1v1l-1.5 1.5h-1l-1 1h-4l-1-1h-1l-1.5-1.5v-1Zm1.5 56.5 2.5-2.5 2.5 2.5-2.5 2.5ZM36 72.5v-2l2.5-2.5h2l2.5 2.5v2L40.5 75h-2Zm.5 140.5 2.5-2.5 2.5 2.5-2.5 2.5Zm6-164 2.5-2.5 2.5 2.5-2.5 2.5Zm1-33 1.5-1.5v-1l.5-.5h1l1.5-1.5 1.5 1.5h1l.5.5v1l1.5 1.5-1.5 1.5v1l-.5.5h-1L48 20.5 46.5 19h-1l-.5-.5v-1ZM45 134.5v-2l2.5-2.5h2l2.5 2.5v2l-2.5 2.5h-2ZM47.5 240l1.5-1.5v-1l.5-.5h1l1.5-1.5 1.5 1.5h1l.5.5v1l1.5 1.5-1.5 1.5v1l-.5.5h-1l-1.5 1.5-1.5-1.5h-1l-.5-.5v-1ZM50 64.5v-3l1-1v-1l.5-.5h1l1-1h3l1 1h1l.5.5v1l1 1v3l-1 1v1l-.5.5h-1l-1 1h-3l-1-1h-1l-.5-.5v-1Zm7 132v-3l1-1v-1l.5-.5h1l1-1h3l1 1h1l.5.5v1l1 1v3l-1 1v1l-.5.5h-1l-1 1h-3l-1-1h-1l-.5-.5v-1Zm8.5 40.5 2.5-2.5 2.5 2.5-2.5 2.5ZM78 1.5v-1h30l1 1v1l1 1v1l1 1v1l1 1-.5.5h-30L80 6.5v-2l-1-1v-1ZM77.5 158l2.5-2.5 2.5 2.5-2.5 2.5Zm4-130 2.5-2.5 2.5 2.5-2.5 2.5ZM85 214.5v-2l2.5-2.5h2l2.5 2.5v2l-2.5 2.5h-2Zm7 36 1.5 1.5 2.5-2.5v-1l.5-.5h44l1 1-1.5 1.5v2l-1 1v2H49l1.5-1.5h1l3.5-3.5v-1l1.5-1.5h35l.5.5Zm10-223v-3l1-1v-1l.5-.5h1l1.5-1.5v-1l.5-.5h1l1-1h4l1 1h1l.5.5v1l1 1v4l-1 1v1l-2.5 2.5h-1l-1 1h-5l-1-1h-1l-.5-.5v-1Zm10 206v-6l1-1v-1l.5-.5h1l1-1h3l1 1h1l.5.5v1l.5.5h2l1 1h1l.5.5v1l1 1v3l-1 1v1l-.5.5h-1l-1 1h-8l-1-1h-1l-.5-.5v-1Zm2-25v-2l2.5-2.5h2l2.5 2.5v2l-2.5 2.5h-2Zm2-208h23v1l1 1v5l-.5.5h-20l-.5-.5v-1l-1-1v-1l-1-1v-2ZM129.5 39l2.5-2.5 2.5 2.5-2.5 2.5ZM146 1.5v-1h15v1l-1 1v1l-1 1v1l-1 1v1l-.5.5h-10l-.5-.5v-5Zm9.5 229.5 2.5-2.5 2.5 2.5-2.5 2.5Zm7-223-.5-.5 1-1v-1l1-1v-1l1-1v-1l1-1h64v1l-2 2v1l-2 2v1l-.5.5h-9l-4 4h-9l-1.5-1.5v-2l-.5-.5h-24l-2 2h-1l-1 1h-4L168 9.5v-1l-.5-.5Zm1.5 247.5h-19l4.5-4.5h1l.5-.5v-2l.5-.5h17l.5.5-1 1v1l-2 2v1ZM163.5 30l2.5-2.5 2.5 2.5-2.5 2.5Zm3.5 179.5v-3l1-1v-1l.5-.5h1l1-1h3l1 1h1l.5.5v1l1 1v3l-1 1v1l-.5.5h-1l-1 1h-3l-1-1h-1l-.5-.5v-1Zm9-148v-4l1-1v-1l1.5-1.5h1l1-1h4l1 1h1l4.5 4.5v1l1 1v4l-1 1v1l-1.5 1.5h-1l-1 1h-4l-1-1h-1l-4.5-4.5v-1Zm9 38v-2l2.5-2.5h2l2.5 2.5v2l-2.5 2.5h-2Zm5 135v-3l2.5-2.5h1l3-3h3l2.5 2.5v3l-1 1v1l-3.5 3.5h-5Zm1-51v-2l2.5-2.5h2l2.5 2.5v2l-2.5 2.5h-2Zm2-161v-3l2.5-2.5h6l2.5 2.5v4l-1.5 1.5h-1l-1 1h-4Zm5 229v1l2 2v1h-31l2-2v-1l2-2v-1l1.5-1.5h20Zm4-2v-2l1.5-1.5h1l1-1h1l1.5-1.5 1.5 1.5h1l.5.5v1l1.5 1.5h20l.5.5v2l1.5 1.5h3l1.5-1.5v-1l1.5-1.5h6l.5-.5v-5l4-4v-1l1-1v-5l-1-1v-2l-2-2v-1l-1-1v-1l-1-1v-18l-1.5-1.5 2-2h4l1-1h2l1-1v13l-.5.5v11l.5.5v28l-1 1h-1l-.5.5v1l-1 1h-47v-1l-2-2v-2Zm3-192v-2l2.5-2.5h2l2.5 2.5v2l-2.5 2.5h-2Zm0 41v-3l1-1v-2l1-1v-1l.5-.5h1l1-1h3l1 1h1l1 1h1l3.5 3.5v1l1 1v1l1 1v3l-1 1v1l-.5.5h-1l-1 1h-3l-1-1h-1l-2-2h-3l-1-1h-1l-.5-.5v-1Zm4.5 36.5 2.5-2.5 2.5 2.5-2.5 2.5Zm6 71 2.5-2.5 2.5 2.5-2.5 2.5Zm7.5-33.5v-3l1-1v-6l1-1v-1l.5-.5h1l1-1h3l1 1h1l.5.5v1l1 1v7l-1 1v2l-1 1v1l-.5.5h-1l-1 1h-3l-1-1h-1l-.5-.5v-1Zm9-148v-5l1-1v-1l.5-.5h1l1-1h5l1 1h1l.5.5v1l1 1v5l-1 1v1l-.5.5h-1l-1 1h-5l-1-1h-1l-.5-.5v-1Z" style="stroke:none"/>
        <path d="m231.5 236 1.5-1.5v-1l1-1v-1l1.5-1.5h1l1-1h1l1.5-1.5 1.5 1.5h1l.5.5v1l1 1v4l-.5.5h-1l-1 1h-1l-2 2h-1l-1.5 1.5-1.5-1.5h-1l-.5-.5v-1Zm3-228-.5-.5 1-1v-4l1-1v-1h16l1 1v1l.5.5h1l1 1v37h-1l-1 1h-1l-1 1h-1l-2 2-.5-.5v-33l-1-1v-1l-.5-.5h-1l-1-1Zm1 38 2.5-2.5 2.5 2.5-2.5 2.5Zm0 82 2.5-2.5 2 2-1 1v1l-1 1Zm0 76 1.5-1.5v-1l.5-.5h1l1.5-1.5 1.5 1.5h1l.5.5v1l1.5 1.5-1.5 1.5v1l-.5.5h-1l-1.5 1.5-1.5-1.5h-1l-.5-.5v-1ZM247 71.5v-2l1-1v-9l.5-.5h1l1-1h1l1-1h1l2-2v23h-6l-1 1-.5-.5v-6Zm.5 115.5-.5-.5v-10l1-1v-13l.5-.5 3 3h1l3 3v22l-1-1h-2l-1-1h-2l-1-1Zm1-86-.5-.5v-17l1.5-1.5h3l1-1h1l1-1v23h-2l-1-1h-2l-1-1Zm1 8h2l1 1h2l1 1v14l-1-1h-4l-1.5-1.5v-1l-1-1v-12l.5-.5Zm1 29h1l4 4v21l-7.5-7.5v-19l.5-.5Z" style="stroke:none"/>
    </g>
</svg>
