<svg xmlns="http://www.w3.org/2000/svg" width="64" height="64" style="fill-opacity:1;color-rendering:auto;color-interpolation:auto;text-rendering:auto;stroke:#000;stroke-linecap:square;stroke-miterlimit:10;shape-rendering:auto;stroke-opacity:1;fill:#000;stroke-dasharray:none;font-weight:400;stroke-width:1;font-family:&quot;Dialog&quot;;font-style:normal;stroke-linejoin:miter;font-size:12px;stroke-dashoffset:0;image-rendering:auto">
    <g style="stroke-linecap:round;fill:#fff;stroke:#fff">
        <path stroke="none" d="M16 26.5v-7l1-1v-1l.5-.5h1l1-1h7l2 2-2 2h-3l-1 1h-1l-.5.5v1l-1 1v3l-2 2Z" style="stroke:none"/>
    </g>
    <g style="stroke-linecap:round;fill:#fff;stroke:#fff">
        <path stroke="none" d="m15.5 38 2.5-2.5 2.5 2.5-2.5 2.5Zm8 8 2-2h5l2 2-2 2h-5Zm8-18 1.5-1.5v-1l.5-.5h1l1.5-1.5 1.5 1.5h1l.5.5v1l1.5 1.5-1.5 1.5v1l-.5.5h-1L36 32.5 34.5 31h-1l-.5-.5v-1Zm4-10 2-2h7l1 1h1l.5.5v1l1 1v7l-2 2-2-2v-3l-1-1v-1l-.5-.5h-1l-1-1h-3Zm0 28 2-2h3l1-1h1l.5-.5v-1l1-1v-3l2-2 2 2v7l-1 1v1l-.5.5h-1l-1 1h-7Z" style="stroke:none"/>
    </g>
</svg>
