<svg xmlns="http://www.w3.org/2000/svg" width="192" height="192" style="fill-opacity:1;color-rendering:auto;color-interpolation:auto;text-rendering:auto;stroke:#000;stroke-linecap:square;stroke-miterlimit:10;shape-rendering:auto;stroke-opacity:1;fill:#000;stroke-dasharray:none;font-weight:400;stroke-width:1;font-family:&quot;Dialog&quot;;font-style:normal;stroke-linejoin:miter;font-size:12px;stroke-dashoffset:0;image-rendering:auto">
    <g style="stroke-linecap:round;fill:#fff;stroke:#fff">
        <path stroke="none" d="M.5 30V4l1-1h1l.5-.5v-1l1-1h25v3l1 1v2l1 1L29.5 9l-1-1h-4l-.5.5 1 1v2l-1 1-1.5-1.5h-1l-1-1h-1l-1-1h-1L16 7.5 14.5 9h-1l-1 1h-1L10 11.5v1l-1 1v1l-1 1v13l-.5.5-1-1h-2l-1 1h-1l-1 1Z" style="stroke:none"/>
    </g>
    <g stroke="none" style="stroke-linecap:round;fill:#fff;stroke:#fff">
        <path d="M.5 52V34h1l2 2h1l2 2h1l.5.5v17l-.5.5-1-1h-1l-1-1h-1l-1-1h-1Zm0 35V58h1l1 1h1l2 2h1l1 1h1l.5.5v3l-1 1v18L6.5 86h-3l-1 1Zm0 39V90h2l1 1h4l.5.5v29L6.5 122h-1l-2 2h-1Zm0 27v-19h2l2-2h1l1.5-1.5 1 1v17L6.5 150h-1l-1 1h-1l-1 1h-1Zm0 35v-27h1l1 1h2l1 1h2l.5.5v17l1 1v1l.5.5h1l2 2h7l2-2h1l1-1h1l1.5-1.5 1 1v2l-1 1v2l-1 1v2l-1 1v1H4l-1-1v-1l-.5-.5h-1Zm11-166 2.5-2.5 2.5 2.5-2.5 2.5Z" style="stroke:none"/>
        <path d="M12 168.5v-5l1-1v-1l.5-.5h1l1-1h5l1 1h1l.5.5v1l1.5 1.5-1.5 1.5v1l-1 1v1l-1.5 1.5h-1l-1 1h-1l-1.5 1.5-1.5-1.5h-1l-.5-.5v-1Zm3.5-36.5 1.5-1.5v-1l.5-.5h5l.5.5v1l1.5 1.5-1.5 1.5v1l-.5.5h-1l-1.5 1.5-1.5-1.5h-1l-.5-.5v-1Zm2.5-31.5v-5l1-1v-1l1.5-1.5h1l1-1h3l1 1h1l1.5 1.5v1l1 1v2l1 1v3l-1 1v1l-1.5 1.5h-1l-1 1h-3l-1-1h-1l-2.5-2.5v-1Zm5-50v-2l1.5-1.5h2l1.5 1.5v2L26.5 52h-2Zm9 99v-3l1.5-1.5h3l1.5 1.5v3l-1.5 1.5h-3Zm3.5 32.5h1l1 1h1l1 1h40l1.5-1.5 1 1v1l1 1v2l-3 3v1H26l5-5v-1l1-1v-2l2-2ZM37 .5h28l-1 1v1l-1 1v4l-.5.5h-22L39 6.5v-2l-1-1v-2ZM43.5 16l1.5-1.5v-1l.5-.5h1l1.5-1.5 1.5 1.5h1l.5.5v1l1.5 1.5-1.5 1.5v1l-.5.5h-1L48 20.5 46.5 19h-1l-.5-.5v-1Zm4 160 1.5-1.5v-1l.5-.5h1l1.5-1.5 1.5 1.5h1l.5.5v1l1.5 1.5-1.5 1.5v1l-.5.5h-1l-1.5 1.5-1.5-1.5h-1l-.5-.5v-1ZM67 3.5v-3h28l-2 2v1L88.5 8h-20l-.5-.5v-3Zm2 154v-4l2.5-2.5h4l2.5 2.5v4l-2.5 2.5h-4Zm7-130v-3l1-1v-1l.5-.5h1l1-1h3l1 1h1l.5.5v1l1 1v3l-1 1v1l-.5.5h-1l-1 1h-3l-1-1h-1l-.5-.5v-1ZM100.5 8l-1-1 3.5-3.5v-1l2-2h34l-1 1v1l-1 1v1l-1 1v1L134.5 8h-20l-2 2h-1l-1 1h-4L105 9.5v-1l-.5-.5Zm3.5 164.5v-4l2.5-2.5h4l2.5 2.5v4l-2.5 2.5h-4Zm9.5 11.5h7l2.5 2.5v1l2 2v1l1 1H83v-2l1-1v-1l1-1v-2l.5-.5h16l1-1h1l1-1h7ZM120 28.5l-1.5-1.5 1.5-1.5 1.5 1.5Zm7 142v-3l2.5-2.5h1l3-3h3l2.5 2.5v3l-1 1v1l-3.5 3.5h-5Zm0 14 .5-.5h11l2-2h1l1-1h1l1.5-1.5 1.5 1.5h1l.5.5v1l1.5 1.5h11l4.5 4.5v1l2 2h-35l-1-1v-1l-2-2v-1Zm8-151v-3l1-1v-1l1.5-1.5h1l1-1h3l1 1h1l1.5 1.5v1l1 1v3l-1 1v1l-1.5 1.5h-1l-1 1h-3l-1-1h-1l-1.5-1.5v-1Zm4-23 1-1v-1l1-1v-1l1-1v-1l2-2v-1l1-1h20v2l-1 1v2l-1 1v1l-.5.5h-9l-4 4h-9Zm16 103v-4l3.5-3.5h4l2 2h1l3.5 3.5v6l-3.5 3.5h-4l-3.5-3.5v-1Zm.5 56.5 2.5-2.5 2.5 2.5-2.5 2.5Zm1.5-12.5v-3l1-1v-1l.5-.5h1l1-1h5l1 1h1l2.5 2.5v1l1 1v4l-1 1v1l-.5.5h-1l-1 1h-3l-1-1h-1l-.5-.5v-1l-.5-.5h-1l-1-1h-1l-.5-.5v-1Zm1-128v-3l1-1v-1l2.5-2.5h1l1-1h4l1 1h1l.5.5v1l1 1v3l-1 1v1l-.5.5h-1l-2 2h-1l-1 1h-3l-1-1h-1l-.5-.5v-1Zm6 47v-3l1.5-1.5h2l1-1h3l1.5 1.5v6l-1.5 1.5h-3l-2-2h-1Zm4 108 .5-.5h15l.5-.5v-14l.5-.5h2l1-1h2l2-2v23h-1l-.5.5v1l-1 1h-15l-4-4v-1Zm.5-13.5 2.5-2.5 2.5 2.5-2.5 2.5ZM173 1.5v-1h16l1 1v1l.5.5h1v34l-1.5 1.5v1l-4 4v1l-.5.5-.5-.5v-33l-1-1v-1l-.5-.5h-4l-1-1h-2L175 6.5v-1l-1-1v-2Zm-.5 44.5 2.5-2.5 2.5 2.5-2.5 2.5Zm0 94 1.5-1.5v-1l.5-.5h1l1.5-1.5 1.5 1.5h1l.5.5v1l1.5 1.5-1.5 1.5v1l-.5.5h-1l-1.5 1.5-1.5-1.5h-1l-.5-.5v-1ZM184 71.5v-2l1-1v-15l1-1v-1l4-4v-1l1.5-1.5v31h-1l-3 3h-2l-.5-.5v-6Zm0 52v-24l1-1v-8l6.5-6.5v45l-1-1h-1l-2-2h-1Zm2.5 8.5h1l2 2h1l1 1v19l-5.5 5.5v1l-1.5 1.5-.5-.5v-31l.5-.5Z" style="stroke:none"/>
    </g>
</svg>
