<svg xmlns="http://www.w3.org/2000/svg" width="224" height="224" style="fill-opacity:1;color-rendering:auto;color-interpolation:auto;text-rendering:auto;stroke:#000;stroke-linecap:square;stroke-miterlimit:10;shape-rendering:auto;stroke-opacity:1;fill:#000;stroke-dasharray:none;font-weight:400;stroke-width:1;font-family:&quot;Dialog&quot;;font-style:normal;stroke-linejoin:miter;font-size:12px;stroke-dashoffset:0;image-rendering:auto">
    <g style="stroke-linecap:round;fill:#fff;stroke:#fff">
        <path stroke="none" d="M.5 34V4l1-1h1l.5-.5v-1l1-1h18v1l1 1v1l1 1v4l1 1v2l-1 1-1.5-1.5h-1l-1-1h-1l-1-1h-1L16 7.5 14.5 9h-1l-1 1h-1L10 11.5v1l-1 1v1l-1 1v27l-.5.5L6 41.5v-1l-3-3v-1Z" style="stroke:none"/>
    </g>
    <g stroke="none" style="stroke-linecap:round;fill:#fff;stroke:#fff">
        <path d="M3 49.5v1l3 3v1l3 3v1l1.5 1.5L9 61.5v4l-1 1v12l-.5.5h-2l-1-1h-2l-1-1h-1V47ZM1.5 86h2l1 1h2L8 88.5v12l-.5.5h-2l-1 1h-4V85Zm-1 47v-29h4l.5.5v1l.5.5h2l.5.5v22L6.5 130h-1l-1 1h-1l-1 1h-1Zm0 87v-74h1l1-1h1l1-1h1l1.5-1.5 1 1v22l1 1v4l-1 1v41l1 1v1l.5.5h1l2.5 2.5v1l1 1v1l1 1v1l1 1H4l-1-1v-1l-.5-.5h-1Zm11-198 2.5-2.5 2.5 2.5-2.5 2.5Z" style="stroke:none"/>
        <path d="M12 200.5v-5l1-1v-1l.5-.5h1l1-1h5l1 1h1l.5.5v1l1.5 1.5-1.5 1.5v1l-1 1v1l-1.5 1.5h-1l-1 1h-1l-1.5 1.5-1.5-1.5h-1l-.5-.5v-1Zm2-84v-6l1-1v-1l1.5-1.5h1l1-1h5l1 1h1l.5.5v1l1 1v3l-1 1v1l-.5.5h-1l-.5.5v1l-1 1v1l-.5.5h-1l-1 1h-3l-1-1h-1l-.5-.5v-1Zm2-80v-3l2-2 1.5 1.5h1l.5.5v1l.5.5h1l.5.5v1l1.5 1.5-2 2h-3l-1-1h-1l-.5-.5v-1ZM15.5 164l1.5-1.5v-1l.5-.5h5l.5.5v1l1.5 1.5-1.5 1.5v1l-.5.5h-1l-1.5 1.5-1.5-1.5h-1l-.5-.5v-1ZM20 65.5l-1-1 1-1 1 1Zm0 151 1.5-1.5h1l1-1h1l1-1h1l1-1h5l1 1h1l1 1h1l1 1h1l1 1h8l.5.5-1 1v1l-1 1v1l-1 1v2H22v-4l-1-1v-1Zm5-216h26v1l1 1v2l1 1v1l1 1-.5.5h-22L30 9.5l-2-2v-1l-1-1v-2l-1-1v-1Zm6 61v-3l1-1v-1l3.5-3.5h1l1-1h3l1 1h1l1.5 1.5v1l1 1v3l-1 1v1L40.5 65h-1l-1 1h-3l-1-1h-1L32 63.5v-1Zm6-23v-2l1.5-1.5h2l1.5 1.5v2L40.5 40h-2Zm0 151v-2l1.5-1.5h2l1.5 1.5v2l-1.5 1.5h-2Zm1-104v-2l1.5-1.5h2l1.5 1.5v2L41.5 87h-2ZM43.5 16l1.5-1.5v-1l.5-.5h1l1.5-1.5 1.5 1.5h1l.5.5v1l1.5 1.5-1.5 1.5v1l-.5.5h-1L48 20.5 46.5 19h-1l-.5-.5v-1Zm4 192 1.5-1.5v-1l.5-.5h1l1.5-1.5 1.5 1.5h1l.5.5v1l1.5 1.5-1.5 1.5v1l-.5.5h-1l-1.5 1.5-1.5-1.5h-1l-.5-.5v-1ZM56 .5h26v3l-2 2v2l-.5.5h-4l-.5.5v2l-1 1L71.5 9h-1l-1-1h-10l-.5-.5v-1l-1-1v-1l-1-1v-2Zm8 181v-3l1-1v-1l1.5-1.5h1l1-1h3l1 1h1l1.5 1.5v1l1 1v3l-1 1v1l-1.5 1.5h-1l-1 1h-3l-1-1h-1l-1.5-1.5v-1ZM67.5 30l2.5-2.5 2.5 2.5-2.5 2.5ZM72 223.5H52l1-1v-1l1-1v-1l1-1v-1l1.5-1.5h16l1-1 1 1h4l.5.5Zm0-24v-2l2.5-2.5h1l1-1h2l2.5 2.5v2l-3.5 3.5h-3Zm18-198v-1h26v1l1 1v1l1 1v1l1.5 1.5-1 1h-25L92 6.5v-2l-1-1v-1Zm9 23v-3l1-1v-1l1.5-1.5h1l1-1h6l1 1h1l1.5 1.5v1l1 1v4l-1 1v1l-1.5 1.5h-1l-1 1h-3l-1-1h-2l-1-1h-1l-1.5-1.5v-1Zm13 199H89l2-2v-1l4.5-4.5h16l.5.5Zm10.5-22.5-.5-.5v-2l.5-.5h2l.5.5v2l-.5.5Zm2-193-.5-.5v-7h34l-1 1v1l-1 1v2l-1 1v1l-.5.5h-9l-2 2h-1l-1 1h-2l-.5-.5v-2l-.5-.5Zm6.5 197.5v-2l2.5-2.5h2l2.5 2.5v2l-2.5 2.5h-2Zm6-183v-2l1.5-1.5h2l1.5 1.5v2l-1.5 1.5h-2Zm3 197 1 1v3h-26l1-1v-1l1-1v-4l.5-.5h22l.5.5Zm12-1v-2l.5-.5h17l2-2h1l1-1h1l1.5-1.5 1.5 1.5h1l.5.5v1l1.5 1.5h4l.5.5v7h-33l1-1v-3Zm6-16v-3l2.5-2.5h1l3-3h3l2.5 2.5v3l-1 1v1l-3.5 3.5h-5ZM160.5 8l-.5-.5 1-1v-2l1-1v-1l1-1v-1h28l-4 4v1l-6.5 6.5h-9l-1.5-1.5v-2l-.5-.5Zm.5 14.5v-3l2.5-2.5h6l2.5 2.5v4l-1.5 1.5h-1l-1 1h-4Zm19 39v-2l1.5-1.5h2l1 1h1l1.5 1.5v2l-1.5 1.5h-2l-1-1h-1Zm8 76v-3l1-1v-1l1.5-1.5h1l1-1h3l1 1h1l2.5 2.5v1l1 1v5l1 1v3l-1 1v1l-1.5 1.5h-1l-1 1h-4l-1-1h-1l-2.5-2.5v-1l-1-1v-4l1-1Zm3-28v-3l1-1v-1l.5-.5h1l1-1h3l1 1h1l.5.5v1l1 1v3l-1 1v1l-.5.5h-1l-1 1h-3l-1-1h-1l-.5-.5v-1ZM193.5 8l-.5-.5 2-2v-2l2-2v-1h23l1 1v1l.5.5h1l1 1v23h-5l-1.5 1.5v1l-.5.5-.5-.5v-3l-1-1v-2l1-1v-11l-1-1v-1l-.5-.5h-1l-1-1Zm4.5 172.5v-2l1.5-1.5h2l1.5 1.5v2l-1.5 1.5h-2Z" style="stroke:none"/>
        <path d="M200 24.5v-5l1-1v-1l.5-.5h1l1-1h5l1 1h1l.5.5v1l1 1v5l-1 1v1l-.5.5h-1l-1 1h-5l-1-1h-1l-.5-.5v-1Zm-.5 179.5 1.5-1.5v-1l1-1v-1l1.5-1.5h1l1-1h1l1.5-1.5 1.5 1.5h1l.5.5v1l1 1v4l-.5.5h-1l-1 1h-1l-2 2h-1l-1.5 1.5-1.5-1.5h-1l-.5-.5v-1Z" style="stroke:none"/>
        <path d="m201 218.5 1.5 1.5h3l1.5-1.5v-1l1.5-1.5h6l.5-.5v-5l4-4v-1l1-1v-5l-1-1v-2l-2-2v-1l-1-1v-1l-1-1v-2l.5-.5h7l.5.5v3l.5.5v28l-1 1h-1l-.5.5v1l-1 1h-27v-7l.5-.5h7l.5.5Zm1-132v-2l2.5-2.5h2l2.5 2.5v2l-2.5 2.5h-2Zm1.5-40.5 2.5-2.5 2.5 2.5-2.5 2.5Zm0 126 1.5-1.5v-1l.5-.5h1l1.5-1.5 1.5 1.5h1l.5.5v1l1.5 1.5-1.5 1.5v1l-.5.5h-1l-1.5 1.5-1.5-1.5h-1l-.5-.5v-1ZM216 95.5l-1-1v-19l.5-.5h1l1.5-1.5v-1l2-2v-2l1-1v-2l-1-1-1.5 1.5h-2l-.5-.5v-18l1-1v-1l3-3v-1l3-3v-1l.5-.5v54h-1l-1 1h-1l-2 2h-1Zm0 15-1-1v-4l1.5-1.5h1l2-2h1l1-1h1l1-1v6l-1 1h-1l-1 1h-1l-1 1h-1Zm-.5 22.5-.5-.5v-8l.5-.5h1l2-2h1l1-1h1l1-1h1v27l-1 1h-2l-1 1h-2l-1.5 1.5-1-1v-11l.5-.5h1l1-1h1l.5-.5-1-1v-1l-1.5-1.5Zm0 50-.5-.5v-24l.5-.5h2l1-1h2l.5-.5v-1l2.5-2.5v27l-.5.5v2l-.5.5Z" style="stroke:none"/>
    </g>
</svg>
