<svg xmlns="http://www.w3.org/2000/svg" width="160" height="160" style="fill-opacity:1;color-rendering:auto;color-interpolation:auto;text-rendering:auto;stroke:#000;stroke-linecap:square;stroke-miterlimit:10;shape-rendering:auto;stroke-opacity:1;fill:#000;stroke-dasharray:none;font-weight:400;stroke-width:1;font-family:&quot;Dialog&quot;;font-style:normal;stroke-linejoin:miter;font-size:12px;stroke-dashoffset:0;image-rendering:auto">
    <g style="stroke-linecap:round;fill:#fff;stroke:#fff">
        <path stroke="none" d="M.5 34V4l1-1h1l.5-.5v-1l1-1h18v1l1 1v1l1 1v4l1 1v2l-1 1-1.5-1.5h-1l-1-1h-1l-1-1h-1L16 7.5 14.5 9h-1l-1 1h-1L10 11.5v1l-1 1v1l-1 1v27l-.5.5L6 41.5v-1l-3-3v-1Z" style="stroke:none"/>
    </g>
    <g stroke="none" style="stroke-linecap:round;fill:#fff;stroke:#fff">
        <path d="M3 49.5v1l3 3v1l3 3v1l1.5 1.5L9 61.5v4l-1 1v23L.5 97V47ZM.5 156v-54l7-7 .5.5v53l1 1v1l.5.5h1l2.5 2.5v1l1 1v1l1 1v1l1 1H4l-1-1v-1l-.5-.5h-1Zm11-134 2.5-2.5 2.5 2.5-2.5 2.5Z" style="stroke:none"/>
        <path d="M12 136.5v-5l1-1v-1l.5-.5h1l1-1h5l1 1h1l.5.5v1l1.5 1.5-1.5 1.5v1l-1 1v1l-1.5 1.5h-1l-1 1h-1l-1.5 1.5-1.5-1.5h-1l-.5-.5v-1Zm4-100v-3l2-2 1.5 1.5h1l.5.5v1l.5.5h1l.5.5v1l1.5 1.5-2 2h-3l-1-1h-1l-.5-.5v-1Zm-.5 63.5 1.5-1.5v-1l.5-.5h5l.5.5v1l1.5 1.5-1.5 1.5v1l-.5.5h-1l-1.5 1.5-1.5-1.5h-1l-.5-.5v-1ZM20 65.5l-1-1 1-1 1 1Zm0 87 1.5-1.5h1l1-1h1l1-1h1l1-1h5l1 1h1l1 1h1l1 1h1l1 1h8l.5.5-1 1v1l-1 1v1l-1 1v2H22v-4l-1-1v-1Zm5-152h55l1 1v4l2 2-.5.5h-1l-2 2h-1l-1 1h-4L72 9.5v-1l-.5-.5h-40L30 9.5l-2-2v-1l-1-1v-2l-1-1v-1ZM43.5 16l1.5-1.5v-1l.5-.5h1l1.5-1.5 1.5 1.5h1l.5.5v1l1.5 1.5-1.5 1.5v1l-.5.5h-1L48 20.5 46.5 19h-1l-.5-.5v-1Zm4 128 1.5-1.5v-1l.5-.5h1l1.5-1.5 1.5 1.5h1l.5.5v1l1.5 1.5-1.5 1.5v1l-.5.5h-1l-1.5 1.5-1.5-1.5h-1l-.5-.5v-1Zm20-114 2.5-2.5 2.5 2.5-2.5 2.5ZM73 158.5v1H52l1-1v-1l1-1v-1l1-1v-1l1.5-1.5h16l1-1 2 2-1.5 1.5v3ZM87 .5h40l-4 4v1l-6.5 6.5h-9l-1.5-1.5v-2l-.5-.5h-13l-.5-.5v-1l-2-2v-1Zm7 138v-3l2.5-2.5h1l3-3h3l2.5 2.5v3l-1 1v1l-3.5 3.5h-5Zm3-116v-3l2.5-2.5h6l2.5 2.5v4l-1.5 1.5h-1l-1 1h-4Zm5 133v1l2 2v1H80v-2l1-1v-3l1.5-1.5h16Zm4-4 1.5-1.5h1l1-1h1l1.5-1.5 1.5 1.5h1l.5.5v1l1.5 1.5h20l.5.5v2l1.5 1.5h3l1.5-1.5v-1l1.5-1.5h6l.5-.5v-5l4-4v-1l1-1v-5l-1-1v-2l-2-2v-1l-1-1v-1l-1-1v-27l1-1 1.5 1.5h4l1 1h1v15l-.5.5v11l.5.5v28l-1 1h-1l-.5.5v1l-1 1h-44l-2-2v-1l-3-3v-1ZM129.5 8l-.5-.5 2-2v-2l2-2v-1h23l1 1v1l.5.5h1l1 1v16l-.5.5v1l-3 3v1l-3 3v1l-.5.5-.5-.5v-18l-1-1v-1l-.5-.5h-1l-1-1Z" style="stroke:none"/>
        <path d="M136 24.5v-5l1-1v-1l.5-.5h1l1-1h5l1 1h1l.5.5v1l1 1v5l-1 1v1l-.5.5h-1l-1 1h-5l-1-1h-1l-.5-.5v-1Zm-.5 115.5 1.5-1.5v-1l1-1v-1l1.5-1.5h1l1-1h1l1.5-1.5 1.5 1.5h1l.5.5v1l1 1v4l-.5.5h-1l-1 1h-1l-2 2h-1l-1.5 1.5-1.5-1.5h-1l-.5-.5v-1Zm4-94 2.5-2.5 2.5 2.5-2.5 2.5Zm0 62 1.5-1.5v-1l.5-.5h1l1.5-1.5 1.5 1.5h1l.5.5v1l1.5 1.5-1.5 1.5v1l-.5.5h-1l-1.5 1.5-1.5-1.5h-1l-.5-.5v-1ZM152 72.5l-1-1v-2l1-1v-21l1-1v-1l3-3v-1l3-3v-1l.5-.5v56l-1-1h-4l-1-1h-2l-.5-.5v-10l2.5-2.5h1l2.5-2.5v-1l1-1v-1l1-1v-2l-.5-.5-1 1h-1l-1 1h-2Z" style="stroke:none"/>
    </g>
</svg>
