<svg xmlns="http://www.w3.org/2000/svg" width="128" height="128" style="fill-opacity:1;color-rendering:auto;color-interpolation:auto;text-rendering:auto;stroke:#000;stroke-linecap:square;stroke-miterlimit:10;shape-rendering:auto;stroke-opacity:1;fill:#000;stroke-dasharray:none;font-weight:400;stroke-width:1;font-family:&quot;Dialog&quot;;font-style:normal;stroke-linejoin:miter;font-size:12px;stroke-dashoffset:0;image-rendering:auto">
    <g style="stroke-linecap:round;fill:#fff;stroke:#fff">
        <path stroke="none" d="M.5 12V4l1-1h1l.5-.5v-1l1-1h24l1 1v1l1 1v1l1 1v1l1 1L30.5 9h-1l-1 1h-1l-1 1h-1L24 12.5 22.5 11h-1l-1-1h-1l-1-1h-1L16 7.5 14.5 9h-1l-1 1h-1L10 11.5v1l-1 1v1L7.5 16l-1-1h-1l-1-1h-1l-1-1h-1Z" style="stroke:none"/>
    </g>
    <g stroke="none" style="stroke-linecap:round;fill:#fff;stroke:#fff">
        <path d="M1.5 21h1l1 1h1l1 1h1L8 24.5v3L6.5 29h-1l-1 1h-1l-1 1h-1l-1 1V20Zm0 16h1l1 1h1l1 1h1L8 40.5v4l1 1v1l1 1v1l1 1v1l1 1v5l-1 1v1l-1 1v1l-1 1v1l-1 1v.5H.5V36Zm0 32h1l1 1h1l1 1h1L8 72.5v28L6.5 99h-1l-.5-.5v-1l-.5-.5h-1l-1-1h-2V68Zm0 32h1l.5.5v1l.5.5h1l1 1H8v12.5l1 1v1l.5.5h1l2.5 2.5v1l1 1v1l1 1v1l1 1H4l-1-1v-1l-.5-.5h-1l-1-1v-24Zm10-79 2.5-2.5 2.5 2.5-2.5 2.5Zm.5 82.5v-5l1-1v-1l.5-.5h1l1-1h5l1 1h1l.5.5v1l1.5 1.5-1.5 1.5v1l-1 1v1l-1.5 1.5h-1l-1 1h-1l-1.5 1.5-1.5-1.5h-1l-.5-.5v-1Zm4-68v-3l2-2 1.5 1.5h1l.5.5v1l.5.5h1l.5.5v1l1.5 1.5-2 2h-3l-1-1h-1l-.5-.5v-1ZM15.5 68l1.5-1.5v-1l.5-.5h1l1.5-1.5 1.5 1.5h1l.5.5v1l1.5 1.5-1.5 1.5v1l-.5.5h-1L20 72.5 18.5 71h-1l-.5-.5v-1Zm4.5 52.5 1.5-1.5h1l1-1h1l1-1h1l1-1h5l1 1h1l1 1h1l1 1h1l1 1h9l-1.5 1.5v1l-1 1v1l-1 1v1l-1 1H24l-1-1v-1l-1-1v-1l-1-1v-1ZM36 .5h32l-1 1v1l-.5.5h-1l-1 1h-1l-1 1h-1l-.5.5v1L59.5 8h-19L39 6.5v-1l-1-1v-1l-1-1v-1ZM43.5 16l1.5-1.5v-1l.5-.5h1l1.5-1.5 1.5 1.5h1l.5.5v1l1.5 1.5-1.5 1.5v1l-.5.5h-1L48 20.5 46.5 19h-1l-.5-.5v-1Zm4 96 1.5-1.5v-1l.5-.5h1l1.5-1.5 1.5 1.5h1l.5.5v1l1.5 1.5-1.5 1.5v1l-.5.5h-1l-1.5 1.5-1.5-1.5h-1l-.5-.5v-1Zm20-82 2.5-2.5 2.5 2.5-2.5 2.5Zm4-22L73 6.5v-1l1-1v-1l1-1v-1l1-1h28l-1 1v1l-.5.5h-1l-.5.5v1l-1 1V8h-8.5l-1 1h-1l-1 1h-1l-1 1h-1l-1 1h-9l-1-1h-1l-.5-.5v-1Zm10 109h1l.5.5v1l1 1v3l1 1v1l.5.5h1l.5.5v1l1 1H52l1-1v-1l1-1v-1l1-1v-1l1.5-1.5h16l1-1h1l1-1h1l1-1h1l1.5-1.5Zm6 3h17l-1.5 1.5v1l-1 1v1l-1 1v1l-1 1h-8v-2l-1-1v-1l-.5-.5h-1l-.5-.5v-1Zm16-112 1.5-1.5v-1l.5-.5h1l.5-.5v-1l1-1v-2h16l1 1v1l.5.5h1l1 1v32l-1-1h-1l-1-1h-1l-1-1h-1l-1.5-1.5v-20l-1-1v-1l-.5-.5h-1l-1-1Z" style="stroke:none"/>
        <path d="M104 24.5v-5l1-1v-1l.5-.5h1l1-1h5l1 1h1l.5.5v1l1 1v5l-1 1v1l-.5.5h-1l-1 1h-5l-1-1h-1l-.5-.5v-1Zm-.5 83.5 1.5-1.5v-1l1-1v-1l1.5-1.5h1l1-1h1l1.5-1.5 1.5 1.5h1l.5.5v1l1 1v5l-1 1v1l-.5.5h-1l-1 1h-5l-1-1h-1l-.5-.5v-1Zm4-62 2.5-2.5 2.5 2.5-2.5 2.5Zm0 30 1.5-1.5v-1l.5-.5h1l1.5-1.5 1.5 1.5h1l.5.5v1l1.5 1.5-1.5 1.5v1l-.5.5h-1l-1.5 1.5-1.5-1.5h-1l-.5-.5v-1Zm14-35h1l1 1h1l1 1h1l1 1v16l-1 1h-1l-1 1h-1l-1 1h-1l-1.5 1.5v-25ZM120 88.5v-16l1.5-1.5h1l1-1h1l1-1h1l1-1v16l-1 1h-1l-1 1h-1l-1 1h-1Zm0 27.5V96h7.5v28l-1 1h-1l-.5.5v1l-1 1h-12l1-1v-1l.5-.5h1l1-1h1l1-1h1l1-1h1l1-1h1l.5-.5v-1l1.5-1.5-2-2Z" style="stroke:none"/>
    </g>
</svg>
