<svg xmlns="http://www.w3.org/2000/svg" width="64" height="64" style="fill-opacity:1;color-rendering:auto;color-interpolation:auto;text-rendering:auto;stroke:#000;stroke-linecap:square;stroke-miterlimit:10;shape-rendering:auto;stroke-opacity:1;fill:#000;stroke-dasharray:none;font-weight:400;stroke-width:1;font-family:&quot;Dialog&quot;;font-style:normal;stroke-linejoin:miter;font-size:12px;stroke-dashoffset:0;image-rendering:auto">
    <g style="stroke-linecap:round;fill:#6e7080;stroke:#6e7080">
        <path stroke="none" d="M.5 1V.5H1L7.5 7l-.5.5Z" style="stroke:none"/>
    </g>
    <g stroke="none" style="stroke-linecap:round;fill:#4a4b53;stroke:#4a4b53">
        <path d="m4.5 5-.5.5v18L.5 20V1Z" style="stroke:none"/>
        <path d="M4 23.5v17L.5 44v-9l3-3-3-3v-9Z" style="fill:#bc5452;stroke:none"/>
        <path d="m3.5 32-3 3v-6Z" style="stroke:none"/>
        <path d="M1 .5h19L23.5 4h-18l-.5.5Z" style="fill:#989aa4;stroke:none"/>
        <path d="m4 59.5.5.5h19L20 63.5H.5V44L4 40.5Z" style="stroke:none"/>
        <path d="M7 7.5v19l-3-3v-18l.5-.5Z" style="fill:#989aa4;stroke:none"/>
        <path d="M7 26.5v11l-3 3v-17Z" style="fill:#feb380;stroke:none"/>
        <path d="m4.5 60-.5-.5v-19l3-3v19l.5.5h19l-3 3Z" style="fill:#989aa4;stroke:none"/>
        <path d="m5 4.5.5-.5h18l3 3h-19Z" style="stroke:none"/>
        <path d="m7.5 57-.5-.5v-49l.5-.5h49l.5.5v49l-.5.5Z" style="fill:#2e2f34;stroke:none"/>
        <path d="M20 .5h9l3 3 3-3h9L40.5 4h-17Z" style="fill:#feb380;stroke:none"/>
        <path d="M23.5 4h17l-3 3h-11Z" style="fill:#bc5452;stroke:none"/>
        <path d="m23.5 60 3-3h11l3 3Z" style="fill:#feb380;stroke:none"/>
        <path d="M29 63.5h-9l3.5-3.5h17l3.5 3.5h-9l-3-3Z" style="fill:#bc5452;stroke:none"/>
        <path d="M29 .5h6l-3 3Z" style="fill:#989aa4;stroke:none"/>
        <path d="M35 63.5h-6l3-3ZM37.5 7l3-3h19l.5.5v19l-3 3v-19l-.5-.5Z" style="stroke:none"/>
        <path d="M37.5 57h19l2.5 2.5-.5.5h-18Zm3-53L44 .5h19.5V20L60 23.5v-19l-.5-.5Z" style="fill:#989aa4;stroke:none"/>
        <path d="M40.5 60h18l.5-.5 4 4H44Z" style="stroke:none"/>
        <path d="M57 37.5v-11l3-3v17Z" style="fill:#bc5452;stroke:none"/>
        <path d="M60 40.5v18l-.5.5-2.5-2.5v-19Z" style="stroke:none"/>
        <path d="M58 58.5 56.5 57l.5-.5 1 1Z" style="fill:#6e7080;stroke:none"/>
        <path d="M60 60.5 56.5 57l.5-.5 3 3Z" style="fill:#6e7080;stroke:none"/>
        <path d="m60.5 32 3 3v9L60 40.5v-17l3.5-3.5v9Z" style="fill:#feb380;stroke:none"/>
        <path d="M63.5 44v19l-4-4 .5-.5v-18Zm-3-12 3-3v6Z" style="fill:#989aa4;stroke:none"/>
        <path d="M62 62.5 56.5 57l.5-.5 5 5Z" style="fill:#6e7080;stroke:none"/>
    </g>
</svg>
