<svg xmlns="http://www.w3.org/2000/svg" width="96" height="96" style="fill-opacity:1;color-rendering:auto;color-interpolation:auto;text-rendering:auto;stroke:#000;stroke-linecap:square;stroke-miterlimit:10;shape-rendering:auto;stroke-opacity:1;fill:#000;stroke-dasharray:none;font-weight:400;stroke-width:1;font-family:&quot;Dialog&quot;;font-style:normal;stroke-linejoin:miter;font-size:12px;stroke-dashoffset:0;image-rendering:auto">
    <g style="stroke-linecap:round;fill:#665c9f;stroke:#665c9f">
        <path stroke="none" d="M.5 9V7L3 4.5 6.5 8l.5-.5 3 3L7.5 13h-3Z" style="stroke:none"/>
    </g>
    <g stroke="none" style="stroke-linecap:round;fill:#6e7080;stroke:#6e7080">
        <path d="M4.5 13h3l2.5-2.5 1.5 1.5L8 15.5v8l2.5 2.5h-3l-7-7V9Z" style="stroke:none"/>
        <path d="M7.5 26H11v6H4.5l-4-4v-9Z" style="fill:#665c9f;stroke:none"/>
        <path d="M4.5 32h6L8 34.5v8l2.5 2.5h-3l-7-7V28Z" style="stroke:none"/>
        <path d="M7.5 45H11v6H7.5l-7 7v-7l3-3-3-3v-7Z" style="fill:#665c9f;stroke:none"/>
        <path d="M.5 68V58l7-7h3L8 53.5v8l2.5 2.5h-6Z" style="stroke:none"/>
        <path d="M.5 77v-9l4-4H11v6H7.5Z" style="fill:#665c9f;stroke:none"/>
        <path d="M.5 87V77l7-7h3L8 72.5v8l7.5 7.5h8l2.5-2.5v3l-7 7H9l4-4v-3L7.5 83h-3Z" style="stroke:none"/>
        <path d="M.5 89v-2l4-4h3l5.5 5.5v3l-4 4H7L4.5 93 8 89.5 6.5 88 3 91.5Z" style="fill:#665c9f;stroke:none"/>
        <path d="m4 5.5-1-1 .5-.5.5.5Zm-1 86L6.5 88 8 89.5 4.5 93Z" style="stroke:none"/>
        <path d="m5 4.5-1-1 .5-.5.5.5Z" style="fill:#b0bac0;stroke:none"/>
        <path d="M5 5.5 3.5 4l.5-.5 1 1Z" style="fill:#989aa4;stroke:none"/>
        <path d="M4.5 3 7 .5h2l4 4v3L10.5 10l-3-3 .5-.5Z" style="fill:#bf92f9;stroke:none"/>
        <path d="m6 7.5-3-3 .5-.5L6 6.5Z" style="stroke:none"/>
        <path d="m7 6.5-3-3 .5-.5L7 5.5Z" style="fill:#b0bac0;stroke:none"/>
        <path d="m7.5 7-.5.5L3.5 4l.5-.5Z" style="fill:#989aa4;stroke:none"/>
        <path d="m8 8.5-1-1 .5-.5.5.5Z" style="fill:#8a73c6;stroke:none"/>
        <path d="M8 23.5v-8l3.5-3.5-1.5-1.5.5-.5 1.5 1.5L15.5 8h8l2.5 2.5v3l6 6v.5h-3.5l-4 4 6 6H32v1.5l-.5.5H30v-1.5l-6-6-4 4V32h-.5l-6-6h-3Zm0 19v-8l2.5-2.5h1l6 6H20v4.5l2.5 2.5h-12Zm0 19v-8l2.5-2.5h12L20 53.5V58h-2.5l-6 6h-1Zm0 19v-8l2.5-2.5h3l6-6h.5v3.5l8.5 8.5H32v.5l-6 6v3L23.5 88h-8Z" style="fill:#989aa4;stroke:none"/>
        <path d="M9 .5h10l7 7v3L23.5 8h-8L12 11.5 10.5 10 13 7.5v-3Z" style="fill:#b0bac0;stroke:none"/>
        <path d="m10.5 10-.5.5-3-3 .5-.5Zm1 22H11v-6h2.5l6 6h.5v6h-2.5ZM11 51v-6h12v6Zm0 19v-6h.5l6-6H20v6h-.5l-6 6Z" style="fill:#8a73c6;stroke:none"/>
        <path d="m14 21.5 3.5 3.5 3.5-3.5-3.5-3.5Zm0 53 7.5 7.5 3.5-3.5-7.5-7.5Z" style="fill:#989aa4;stroke:none"/>
        <path d="m14 21.5 3.5-3.5 3.5 3.5-3.5 3.5Zm0 53 3.5-3.5 7.5 7.5-3.5 3.5Z" style="stroke:none"/>
        <path d="m18 17.5 3.5 3.5 3.5-3.5-3.5-3.5Z" style="fill:#989aa4;stroke:none"/>
        <path d="m18 17.5 3.5-3.5 3.5 3.5-3.5 3.5Z" style="fill:#b0bac0;stroke:none"/>
        <path d="M19 .5h9l4 4V11h-6V7.5Z" style="fill:#bf92f9;stroke:none"/>
        <path d="M20 32v-3.5l4-4 6 6V32Z" style="stroke:none"/>
        <path d="M20 38v-6h9v6Z" style="fill:#665c9f;stroke:none"/>
        <path d="M20 42.5V38h9.5l2.5 2.5v.5h-4.5l-4 4h-1ZM20 58v-4.5l2.5-2.5h1l4 4H32v.5L29.5 58Z" style="stroke:none"/>
        <path d="M20 64v-6h9v6Z" style="fill:#665c9f;stroke:none"/>
        <path d="M20 67.5V64h9.5l2.5 2.5V76h-3.5Z" style="stroke:none"/>
        <path d="M23.5 51H23v-6h.5l4-4H32v6h-3.5l-1 1 1 1H32v6h-4.5Z" style="fill:#665c9f;stroke:none"/>
        <path d="m24.5 24 4-4H32v10h-1.5Z" style="fill:#b0bac0;stroke:none"/>
        <path d="M26 13.5V11h6v.5l6 6V20h-6v-.5ZM26 85v-2.5l6-6V76h6v2.5l-6 6v.5Z" style="fill:#8a73c6;stroke:none"/>
        <path d="M28 95.5h-9l7-7V85h6v6.5Z" style="fill:#665c9f;stroke:none"/>
        <path d="M28 .5h10l7 7v3L42.5 8h-8L32 10.5v-6Z" style="fill:#b0bac0;stroke:none"/>
        <path d="m28.5 49-1-1 1-1H32v2Z" style="stroke:none"/>
        <path d="M29 38v-6h2.5l.5-.5V29h6v3.5l2.5 2.5.5-.5V32h6v4.5L36.5 47H32v-6h2.5l.5-.5-2.5-2.5Zm0 26v-6h3.5l2.5-2.5-.5-.5H32v-6h4.5L47 59.5V64h-6v-2.5l-.5-.5-2.5 2.5V67h-6v-2.5l-.5-.5Z" style="fill:#8a73c6;stroke:none"/>
        <path d="M29.5 38h3l2.5 2.5-.5.5H32v-.5Zm0 20 2.5-2.5V55h2.5l.5.5-2.5 2.5Zm0 6h2l.5.5v2ZM32 11.5v-1L34.5 8h8l2.5 2.5v12L42.5 20H38v-2.5Z" style="fill:#989aa4;stroke:none"/>
        <path d="M32 29v-9h6v9Z" style="fill:#bf92f9;stroke:none"/>
        <path d="M32 49v-2h4.5L47 36.5V32h2v4.5L59.5 47H64v2h-4.5L49 59.5V64h-2v-4.5L36.5 49Z" style="fill:#989aa4;stroke:none"/>
        <path d="M32 76v-9h6v9Z" style="fill:#665c9f;stroke:none"/>
        <path d="M32 85.5v-1l6-6V76h4.5l2.5-2.5v12L42.5 88h-8Z" style="fill:#989aa4;stroke:none"/>
        <path d="M34.5 88h8l2.5-2.5v3l-7 7H28l4-4v-6Z" style="stroke:none"/>
        <path d="M38 .5h7l3 3 3-3h7l-7 7V11h-6V7.5Z" style="fill:#bf92f9;stroke:none"/>
        <path d="M38 29.5V20h4.5l2.5 2.5v1l-4 4V32h-.5Z" style="fill:#b0bac0;stroke:none"/>
        <path d="M40.5 32h.5v2.5l-.5.5-2.5-2.5v-3ZM38 66.5v-3l2.5-2.5.5.5V64h-.5Z" style="fill:#989aa4;stroke:none"/>
        <path d="M38 76v-9.5l2.5-2.5h.5v4.5l4 4v1L42.5 76Z" style="stroke:none"/>
        <path d="M41 32v-4.5l4-4V23h6v.5l4 4V32h-6v-3.5l-1-1-1 1V32Z" style="fill:#bf92f9;stroke:none"/>
        <path d="M41 68.5V64h6v3.5l1 1 1-1V64h6v4.5l-4 4v.5h-6v-.5Zm4 27h-7l7-7V85h6v3.5l7 7h-7l-3-3Z" style="fill:#665c9f;stroke:none"/>
        <path d="M45 23V11h6v12Zm0 62V73h6v12Z" style="fill:#8a73c6;stroke:none"/>
        <path d="M47 32v-3.5l1-1 1 1V32Z" style="fill:#b0bac0;stroke:none"/>
        <path d="m48 68.5-1-1V64h2v3.5Z" style="stroke:none"/>
        <path d="M49 36.5V32h6v2.5l.5.5 2.5-2.5V29h6v2.5l.5.5H67v6h-3.5L61 40.5l.5.5H64v6h-4.5ZM49 64v-4.5L59.5 49H64v6h-2.5l-.5.5 2.5 2.5H67v6h-2.5l-.5.5V67h-6v-3.5L55.5 61l-.5.5V64Z" style="fill:#8a73c6;stroke:none"/>
        <path d="M51 10.5v-3l7-7h10l-4 4v6L61.5 8h-8Z" style="fill:#b0bac0;stroke:none"/>
        <path d="M51 22.5v-12L53.5 8h8l2.5 2.5v1l-6 6V20h-4.5Z" style="fill:#989aa4;stroke:none"/>
        <path d="M51 23.5v-1l2.5-2.5H58v9.5L55.5 32H55v-4.5Z" style="fill:#b0bac0;stroke:none"/>
        <path d="M51 73.5v-1l4-4V64h.5l2.5 2.5V76h-4.5Z" style="stroke:none"/>
        <path d="M53.5 76H58v2.5l6 6v1L61.5 88h-8L51 85.5v-12Z" style="fill:#989aa4;stroke:none"/>
        <path d="M53.5 88h8l2.5-2.5v6l4 4H58l-7-7v-3Z" style="stroke:none"/>
        <path d="m55.5 35-.5-.5V32h.5l2.5-2.5v3ZM58 63.5v3L55.5 64H55v-2.5l.5-.5Z" style="fill:#989aa4;stroke:none"/>
        <path d="M58 20v-2.5l6-6V11h6v2.5l-6 6v.5Z" style="fill:#8a73c6;stroke:none"/>
        <path d="M58 29v-9h6v9Z" style="fill:#bf92f9;stroke:none"/>
        <path d="M58 76v-9h6v9Z" style="fill:#665c9f;stroke:none"/>
        <path d="M58 78.5V76h6v.5l6 6V85h-6v-.5Z" style="fill:#8a73c6;stroke:none"/>
        <path d="m61.5 41-.5-.5 2.5-2.5h3L64 40.5v.5ZM61 55.5l.5-.5H64v.5l2.5 2.5h-3Z" style="fill:#989aa4;stroke:none"/>
        <path d="M64 11V4.5l4-4h9l-7 7V11Z" style="fill:#bf92f9;stroke:none"/>
        <path d="M64 20v-.5l6-6v-3L72.5 8h8l7.5 7.5v8L85.5 26h-3l-6 6H76v-3.5L67.5 20Z" style="fill:#989aa4;stroke:none"/>
        <path d="M64 29.5V20h3.5l8.5 8.5V32h-9.5Z" style="fill:#b0bac0;stroke:none"/>
        <path d="M66.5 32h-2l-.5-.5v-2Z" style="fill:#989aa4;stroke:none"/>
        <path d="M64 41v-.5l2.5-2.5H76v4.5L73.5 45h-1l-4-4Z" style="fill:#b0bac0;stroke:none"/>
        <path d="M64 47v-6h4.5l4 4h.5v6h-.5l-4 4H64v-6h3.5l1-1-1-1Z" style="fill:#bf92f9;stroke:none"/>
        <path d="M64 49v-2h3.5l1 1-1 1Zm0 6.5V55h4.5l4-4h1l2.5 2.5V58h-9.5Z" style="fill:#b0bac0;stroke:none"/>
        <path d="M64 66v-1.5l.5-.5H66v1.5l6 6 4-4V64h.5l6 6h3l2.5 2.5v8L84.5 84l2 2-.5.5-2-2-3.5 3.5h-8L70 85.5v-3l-6-6V76h3.5l4-4-6-6Z" style="fill:#989aa4;stroke:none"/>
        <path d="M64 76V66h1.5l6 6-4 4Z" style="stroke:none"/>
        <path d="M64 91.5V85h6v3.5l7 7h-9Z" style="fill:#665c9f;stroke:none"/>
        <path d="M66 65.5V64h10v3.5l-4 4Z" style="fill:#b0bac0;stroke:none"/>
        <path d="M67 38v-6h9v6Zm0 26v-6h9v6Z" style="fill:#bf92f9;stroke:none"/>
        <path d="M70 10.5v-3l7-7h10l-4 4v3l5.5 5.5h3l4-4v10l-7 7h-3l2.5-2.5v-8L80.5 8h-8Z" style="fill:#b0bac0;stroke:none"/>
        <path d="m71 17.5 7.5 7.5 3.5-3.5-7.5-7.5Zm0 61 3.5 3.5 3.5-3.5-3.5-3.5Z" style="fill:#989aa4;stroke:none"/>
        <path d="M72.5 88h8l3.5-3.5 1.5 1.5-2.5 2.5v3l4 4H77l-7-7v-3Z" style="stroke:none"/>
        <path d="m71 17.5 3.5-3.5 7.5 7.5-3.5 3.5Z" style="fill:#b0bac0;stroke:none"/>
        <path d="m71 78.5 3.5-3.5 3.5 3.5-3.5 3.5Z" style="stroke:none"/>
        <path d="M73 51v-6h12v6Z" style="fill:#8a73c6;stroke:none"/>
        <path d="m73.5 45 2.5-2.5V38h2.5l6-6h1l2.5 2.5v8L85.5 45Zm0 6h12l2.5 2.5v8L85.5 64h-1l-6-6H76v-4.5ZM75 74.5l3.5 3.5 3.5-3.5-3.5-3.5Z" style="fill:#989aa4;stroke:none"/>
        <path d="m75 74.5 3.5-3.5 3.5 3.5-3.5 3.5Z" style="fill:#b0bac0;stroke:none"/>
        <path d="M76 38v-6h.5l6-6H85v6h-.5l-6 6Zm.5 26H76v-6h2.5l6 6h.5v6h-2.5Z" style="fill:#8a73c6;stroke:none"/>
        <path d="M83 7.5v-3l4-4h2L91.5 3 88 6.5 89.5 8 93 4.5 95.5 7v2l-4 4h-3Z" style="fill:#bf92f9;stroke:none"/>
        <path d="M83 91.5v-3l2.5-2.5 3 3-.5.5 3.5 3.5-2.5 2.5h-2Z" style="fill:#665c9f;stroke:none"/>
        <path d="M85 32v-6h3.5l7-7v9l-4 4Zm0 19v-6h3.5l7-7v7l-3 3 3 3v7l-7-7Zm0 19v-6h6.5l4 4v9l-7-7Z" style="fill:#bf92f9;stroke:none"/>
        <path d="M86 85.5 84.5 84l3.5-3.5v-8L85.5 70h3l7 7v10l-4-4h-3ZM85.5 32h6l4-4v10l-7 7h-3l2.5-2.5v-8Zm0 19h3l7 7v10l-4-4h-6l2.5-2.5v-8Z" style="fill:#b0bac0;stroke:none"/>
        <path d="m86 85.5 2.5-2.5h3l4 4v2L93 91.5 89.5 88l-.5.5Z" style="fill:#bf92f9;stroke:none"/>
        <path d="m87 87.5-1-1 .5-.5.5.5Z" style="fill:#8a73c6;stroke:none"/>
        <path d="M88 6.5 91.5 3 93 4.5 89.5 8Z" style="fill:#b0bac0;stroke:none"/>
        <path d="m89.5 89-.5.5-3-3 .5-.5Z" style="fill:#8a73c6;stroke:none"/>
        <path d="m89 90.5-1-1 .5-.5.5.5Z" style="stroke:none"/>
        <path d="m90 89.5-1-1 .5-.5.5.5Z" style="fill:#b0bac0;stroke:none"/>
        <path d="m90 90.5-1-1 .5-.5.5.5Z" style="fill:#989aa4;stroke:none"/>
        <path d="m91 92.5-3-3 .5-.5 2.5 2.5Z" style="stroke:none"/>
        <path d="m92 91.5-3-3 .5-.5 2.5 2.5Z" style="fill:#b0bac0;stroke:none"/>
        <path d="m92.5 92-.5.5-3-3 .5-.5Z" style="fill:#989aa4;stroke:none"/>
    </g>
</svg>
