<svg xmlns="http://www.w3.org/2000/svg" width="96" height="96" style="fill-opacity:1;color-rendering:auto;color-interpolation:auto;text-rendering:auto;stroke:#000;stroke-linecap:square;stroke-miterlimit:10;shape-rendering:auto;stroke-opacity:1;fill:#000;stroke-dasharray:none;font-weight:400;stroke-width:1;font-family:&quot;Dialog&quot;;font-style:normal;stroke-linejoin:miter;font-size:12px;stroke-dashoffset:0;image-rendering:auto">
    <g style="stroke-linecap:round;fill:#989aa4;stroke:#989aa4">
        <path stroke="none" d="M.5 1V.5H1L8.5 8l-.5.5Z" style="stroke:none"/>
    </g>
    <g stroke="none" style="stroke-linecap:round;fill:#6e7080;stroke:#6e7080">
        <path d="m4.5 5-.5.5v16L.5 18V1Z" style="stroke:none"/>
        <path d="M4 21.5v8L.5 26v-8Z" style="fill:#665c9f;stroke:none"/>
        <path d="M4 29.5v37L.5 70V26Z" style="stroke:none"/>
        <path d="M.5 78v-8L4 66.5v8Z" style="fill:#665c9f;stroke:none"/>
        <path d="M1 .5h17L21.5 4h-16l-.5.5Z" style="fill:#b0bac0;stroke:none"/>
        <path d="m4 91.5.5.5h17L18 95.5H.5V78L4 74.5Z" style="stroke:none"/>
        <path d="M8 8.5v17l-4-4v-16l.5-.5Z" style="fill:#b0bac0;stroke:none"/>
        <path d="M8 25.5v8l-4-4v-8Z" style="fill:#bf92f9;stroke:none"/>
        <path d="M8 33.5v29l-4 4v-37Z" style="fill:#b0bac0;stroke:none"/>
        <path d="M4 74.5v-8l4-4v8Z" style="fill:#bf92f9;stroke:none"/>
        <path d="m4.5 92-.5-.5v-17l4-4v17l.5.5h17l-4 4Z" style="fill:#b0bac0;stroke:none"/>
        <path d="m5 4.5.5-.5h16l4 4h-17Z" style="stroke:none"/>
        <path d="m8.5 88-.5-.5v-79l.5-.5h79l.5.5v79l-.5.5Z" style="fill:#565666;stroke:none"/>
        <path d="M18 .5h8L29.5 4h-8Z" style="fill:#bf92f9;stroke:none"/>
        <path d="M21.5 4h8l4 4h-8Z" style="fill:#665c9f;stroke:none"/>
        <path d="m21.5 92 4-4h8l-4 4Z" style="fill:#bf92f9;stroke:none"/>
        <path d="M26 95.5h-8l3.5-3.5h8Z" style="fill:#665c9f;stroke:none"/>
        <path d="M26 .5h44L66.5 4h-37Z" style="fill:#b0bac0;stroke:none"/>
        <path d="M29.5 4h37l-4 4h-29Z" style="stroke:none"/>
        <path d="m29.5 92 4-4h29l4 4Z" style="fill:#b0bac0;stroke:none"/>
        <path d="m62.5 8 4-4h8l-4 4Z" style="fill:#665c9f;stroke:none"/>
        <path d="M62.5 88h8l4 4h-8Z" style="fill:#bf92f9;stroke:none"/>
        <path d="M70 95.5H26l3.5-3.5h37Z" style="stroke:none"/>
        <path d="M66.5 4 70 .5h8L74.5 4Z" style="fill:#bf92f9;stroke:none"/>
        <path d="M66.5 92h8l3.5 3.5h-8Z" style="fill:#665c9f;stroke:none"/>
        <path d="m70.5 8 4-4h17l.5.5v17l-4 4v-17l-.5-.5Z" style="stroke:none"/>
        <path d="M70.5 88h17l3.5 3.5-.5.5h-16Zm4-84L78 .5h17.5V18L92 21.5v-17l-.5-.5Z" style="fill:#b0bac0;stroke:none"/>
        <path d="M74.5 92h16l.5-.5 4 4H78Z" style="stroke:none"/>
        <path d="M88 33.5v-8l4-4v8Z" style="fill:#665c9f;stroke:none"/>
        <path d="M88 62.5v-29l4-4v37Z" style="stroke:none"/>
        <path d="M92 66.5v8l-4-4v-8Z" style="fill:#665c9f;stroke:none"/>
        <path d="M92 74.5v16l-.5.5-3.5-3.5v-17Z" style="stroke:none"/>
        <path d="M89 89.5 87.5 88l.5-.5 1 1Z" style="fill:#989aa4;stroke:none"/>
        <path d="M91 91.5 87.5 88l.5-.5 3 3Z" style="fill:#989aa4;stroke:none"/>
        <path d="M92 29.5v-8l3.5-3.5v8Z" style="fill:#bf92f9;stroke:none"/>
        <path d="M92 66.5v-37l3.5-3.5v44Z" style="fill:#b0bac0;stroke:none"/>
        <path d="M95.5 70v8L92 74.5v-8Z" style="fill:#bf92f9;stroke:none"/>
        <path d="M95.5 78v17l-4-4 .5-.5v-16Z" style="fill:#b0bac0;stroke:none"/>
        <path d="M93 93.5 87.5 88l.5-.5 5 5Z" style="fill:#989aa4;stroke:none"/>
        <path d="M95 95.5 87.5 88l.5-.5 7 7Z" style="fill:#989aa4;stroke:none"/>
    </g>
</svg>
