<svg xmlns="http://www.w3.org/2000/svg" width="32" height="32" style="fill-opacity:1;color-rendering:auto;color-interpolation:auto;text-rendering:auto;stroke:#000;stroke-linecap:square;stroke-miterlimit:10;shape-rendering:auto;stroke-opacity:1;fill:#000;stroke-dasharray:none;font-weight:400;stroke-width:1;font-family:&quot;Dialog&quot;;font-style:normal;stroke-linejoin:miter;font-size:12px;stroke-dashoffset:0;image-rendering:auto">
    <g style="stroke-linecap:round;fill:#6e7080;stroke:#6e7080">
        <path stroke="none" d="M.5 8V.5H8V4h-.5L4 7.5V8Z" style="stroke:none"/>
    </g>
    <g stroke="none" style="stroke-linecap:round;fill:#4a4b53;stroke:#4a4b53">
        <path d="M.5 24V8H4v16Z" style="stroke:none"/>
        <path d="M7.5 28H8v3.5H.5V24H4v.5Z" style="fill:#6e7080;stroke:none"/>
        <path d="M4 12V7.5L7.5 4H12v4h-1.5L8 10.5V12Z" style="fill:#b0bac0;stroke:none"/>
        <path d="M4 20v-8h4v8Z" style="fill:#8a73c6;stroke:none"/>
        <path d="M4 24.5V20h4v1.5l2.5 2.5H12v4H7.5Z" style="fill:#989aa4;stroke:none"/>
        <path d="M8 4V.5h16V4Zm0 17.5v-11L10.5 8h11l2.5 2.5v11L21.5 24h-11Z" style="stroke:none"/>
        <path d="m10 20.5 1.5 1.5h2l.5-.5v-11l-.5-.5h-2L10 11.5Z" style="stroke:none"/>
        <path d="M10 20.5v-9l1.5-1.5h2l.5.5v11l-.5.5h-2ZM12 8V4h8v4Z" style="fill:#bf92f9;stroke:none"/>
        <path d="M12 28v-4h8v4Z" style="fill:#8a73c6;stroke:none"/>
        <path d="M18 10.5v11l.5.5h2l1.5-1.5v-9L20.5 10h-2Z" style="stroke:none"/>
        <path d="m18.5 22-.5-.5v-11l.5-.5h2l1.5 1.5v9L20.5 22Z" style="fill:#bf92f9;stroke:none"/>
        <path d="M20 8V4h4.5L28 7.5V12h-4v-1.5L21.5 8Zm0 20v-4h1.5l2.5-2.5V20h4v4.5L24.5 28Z" style="fill:#b0bac0;stroke:none"/>
        <path d="M24 31.5H8V28h16Z" style="stroke:none"/>
        <path d="M24.5 4H24V.5h7.5V8H28v-.5Z" style="fill:#6e7080;stroke:none"/>
        <path d="M24 20v-8h4v8Z" style="fill:#bf92f9;stroke:none"/>
        <path d="M28 24V8h3.5v16Z" style="stroke:none"/>
    </g>
</svg>
