<svg xmlns="http://www.w3.org/2000/svg" width="32" height="32" style="fill-opacity:1;color-rendering:auto;color-interpolation:auto;text-rendering:auto;stroke:#000;stroke-linecap:square;stroke-miterlimit:10;shape-rendering:auto;stroke-opacity:1;fill:#000;stroke-dasharray:none;font-weight:400;stroke-width:1;font-family:&quot;Dialog&quot;;font-style:normal;stroke-linejoin:miter;font-size:12px;stroke-dashoffset:0;image-rendering:auto">
    <g style="stroke-linecap:round;fill:#665c9f;stroke:#665c9f">
        <path stroke="none" d="M.5 9V5L2 3.5 5.5 7l.5-.5L9.5 10l-3 3h-2Z" style="stroke:none"/>
    </g>
    <g stroke="none" style="stroke-linecap:round;fill:#6e7080;stroke:#6e7080">
        <path d="M4.5 13h2l3-3 2 2-4 4 8.5 8.5 4-4 2 2-3 3v2l4 4H9l4-4v-2L6.5 19h-2l-4 4V9Z" style="stroke:none"/>
        <path d="M.5 27v-4l4-4h2l6.5 6.5v2l-4 4H5L3.5 30 7 26.5 5.5 25 2 28.5Z" style="fill:#665c9f;stroke:none"/>
        <path d="m3 4.5-1-1 .5-.5.5.5Zm-1 24L5.5 25 7 26.5 3.5 30Z" style="stroke:none"/>
        <path d="m4 3.5-1-1 .5-.5.5.5Z" style="fill:#b0bac0;stroke:none"/>
        <path d="M4 4.5 2.5 3l.5-.5 1 1Z" style="fill:#989aa4;stroke:none"/>
        <path d="M3.5 2 5 .5h4l4 4v2l-3 3L6.5 6l.5-.5Z" style="fill:#bf92f9;stroke:none"/>
        <path d="m5 6.5-3-3 .5-.5L5 5.5Z" style="stroke:none"/>
        <path d="m6 5.5-3-3 .5-.5L6 4.5Z" style="fill:#b0bac0;stroke:none"/>
        <path d="m6.5 6-.5.5L2.5 3l.5-.5Z" style="fill:#989aa4;stroke:none"/>
        <path d="m7 7.5-1-1 .5-.5.5.5Z" style="fill:#8a73c6;stroke:none"/>
        <path d="m9 9.5-3-3 .5-.5L9 8.5Z" style="fill:#8a73c6;stroke:none"/>
        <path d="m7.5 16 4-4-1.5-1.5.5-.5 1.5 1.5 4-4 8.5 8.5-4 4 2 2-.5.5-2-2-4 4Z" style="fill:#989aa4;stroke:none"/>
        <path d="M9 .5h14l-4 4v2l6.5 6.5h2l4-4v14l-4-4h-2l-3 3-2-2 4-4L16 7.5l-4 4-2-2 3-3v-2Z" style="fill:#b0bac0;stroke:none"/>
        <path d="M19 6.5v-2l4-4h4L28.5 2 25 5.5 26.5 7 30 3.5 31.5 5v4l-4 4h-2Z" style="fill:#bf92f9;stroke:none"/>
        <path d="M19 27.5v-2l3-3 3.5 3.5-.5.5 3.5 3.5-1.5 1.5h-4Z" style="fill:#665c9f;stroke:none"/>
        <path d="m23 23.5-1-1 .5-.5.5.5Z" style="fill:#8a73c6;stroke:none"/>
        <path d="m22.5 22 3-3h2l4 4v4L30 28.5 26.5 25l-.5.5Z" style="fill:#bf92f9;stroke:none"/>
        <path d="m25 25.5-3-3 .5-.5 2.5 2.5Z" style="fill:#8a73c6;stroke:none"/>
        <path d="M25 5.5 28.5 2 30 3.5 26.5 7Z" style="fill:#b0bac0;stroke:none"/>
        <path d="m26 27.5-1-1 .5-.5.5.5Z" style="stroke:none"/>
        <path d="m27 26.5-1-1 .5-.5.5.5Z" style="fill:#b0bac0;stroke:none"/>
        <path d="m27 27.5-1-1 .5-.5.5.5Z" style="fill:#989aa4;stroke:none"/>
        <path d="m28 29.5-3-3 .5-.5 2.5 2.5Z" style="stroke:none"/>
        <path d="m29 28.5-3-3 .5-.5 2.5 2.5Z" style="fill:#b0bac0;stroke:none"/>
        <path d="m29.5 29-.5.5-3-3 .5-.5Z" style="fill:#989aa4;stroke:none"/>
    </g>
</svg>
