<svg xmlns="http://www.w3.org/2000/svg" width="96" height="96" style="fill-opacity:1;color-rendering:auto;color-interpolation:auto;text-rendering:auto;stroke:#000;stroke-linecap:square;stroke-miterlimit:10;shape-rendering:auto;stroke-opacity:1;fill:#000;stroke-dasharray:none;font-weight:400;stroke-width:1;font-family:&quot;Dialog&quot;;font-style:normal;stroke-linejoin:miter;font-size:12px;stroke-dashoffset:0;image-rendering:auto">
    <g style="stroke-linecap:round;fill:#4a4b53;stroke:#4a4b53">
        <path stroke="none" d="M4 79.5v-6l6.5-6.5h4l6.5-6.5v-10l-1-1 4.5-4.5H33v1.5l-8 8v7l.5.5 7.5-7.5v5L19.5 73l8 8 5.5-5.5 8.5 8.5-6 6h-6L23 83.5 16.5 90h-2Z" style="stroke:none"/>
    </g>
    <g stroke="none" style="stroke-linecap:round;fill:#4a4b53;stroke:#4a4b53">
        <path d="M6 58.5V46h.5l5-5L7 36.5l9.5-9.5 11 11h-6L9 50.5l5 5v4L10.5 63Z" style="stroke:none"/>
        <path d="m9 50.5 6-6 5 5-6 6Z" style="fill:#feb380;stroke:none"/>
        <path d="M11 67v-3.5l-.5-.5 3.5-3.5v-4l6-6 1 1v10L14.5 67Z" style="fill:#6e7080;stroke:none"/>
        <path d="m15 44.5 6.5-6.5h6l6 6-.5.5v.5h-8.5L20 49.5Z" style="fill:#ea8878;stroke:none"/>
        <path d="m19.5 73 5.5-5.5 7.5 7.5.5-.5v-30l6.5-6.5.5.5V67h-.5L35 71.5l9.5 9.5-3 3-8.5-8.5-5.5 5.5Zm1-42 6-6 7.5 7.5-6 6Z" style="fill:#6e7080;stroke:none"/>
        <path d="m25.5 62-.5-.5v-7l8-8v8Zm-.5 5.5 8-8v15l-.5.5Z" style="fill:#ea8878;stroke:none"/>
        <path d="m26.5 25 .5-.5v-14L30.5 7h2l3 3-3.5 3.5 6.5 6.5 3.5-3.5 3.5 3.5-3.5 3.5 6 6V36h-.5L40 43.5v-5l-.5-.5 5.5-5.5-5.5-5.5-5.5 5.5Z" style="stroke:none"/>
        <path d="m28 38.5 6-6 5.5 5.5-6 6Z" style="fill:#feb380;stroke:none"/>
        <path d="m32 13.5 3.5-3.5 6.5 6.5-3.5 3.5Z" style="fill:#6e7080;stroke:none"/>
        <path d="m34 32.5 5.5-5.5 5.5 5.5-5.5 5.5Z" style="fill:#ea8878;stroke:none"/>
        <path d="m35.5 10 3-3 6.5 6.5-3 3Z" style="stroke:none"/>
        <path d="M40 52.5v-9l7.5-7.5h.5v9h-.5Z" style="fill:#ea8878;stroke:none"/>
        <path d="M40 58.5v-6l7.5-7.5h.5v6h-.5Z" style="stroke:none"/>
        <path d="M40.5 67H40v-8.5l7.5-7.5h.5v9h-.5Z" style="fill:#ea8878;stroke:none"/>
        <path d="m40.5 67 7-7h.5v13h-1.5Z" style="stroke:none"/>
        <path d="m42 23.5 3.5-3.5 2 2h.5v6.5l.5.5 5.5-5.5-3.5-3.5 3.5-3.5 3.5 3.5 6.5-6.5-3.5-3.5 4-4 4.5 4.5v14l.5.5-7.5 7.5-5.5-5.5-5.5 5.5 5.5 5.5-.5.5v5L48.5 36H48v-6.5Z" style="fill:#6e7080;stroke:none"/>
        <path d="m48.5 29-.5-.5V22h.5l2-2 3.5 3.5Z" style="stroke:none"/>
        <path d="M56 43.5v9L48.5 45H48v-9h.5Z" style="fill:#feb380;stroke:none"/>
        <path d="M56 52.5v6L48.5 51H48v-6h.5Z" style="fill:#6e7080;stroke:none"/>
        <path d="M56 58.5v8l-.5.5-7-7H48v-9h.5Z" style="fill:#feb380;stroke:none"/>
        <path d="m55.5 67-6 6H48V60h.5ZM51 13.5 57.5 7l3 3-6.5 6.5Z" style="fill:#6e7080;stroke:none"/>
        <path d="m51 32.5 5.5-5.5 5.5 5.5-5.5 5.5Z" style="fill:#feb380;stroke:none"/>
        <path d="m51.5 81 9.5-9.5-5-5v-28l.5-.5 6.5 6.5v30l.5.5 7.5-7.5 5.5 5.5-8 8-5-5-8.5 8.5ZM54 16.5l6.5-6.5 3.5 3.5-6.5 6.5Z" style="stroke:none"/>
        <path d="m55 84.5 8.5-8.5 5 5 8-8L63 59.5v-5l7.5 7.5.5-.5v-7l-8-8V45h8.5l4.5 4.5-1 1v10l6.5 6.5h4l6.5 6.5v6L81.5 90h-2L73 83.5 66.5 90h-6Z" style="fill:#6e7080;stroke:none"/>
        <path d="m56.5 38 5.5-5.5 6 6-5.5 5.5Z" style="fill:#ea8878;stroke:none"/>
        <path d="m62 32.5 7.5-7.5 6 6-7.5 7.5Z" style="stroke:none"/>
        <path d="M63 45v-.5l-.5-.5 6.5-6.5.5.5h5l6.5 6.5-5 5-4.5-4.5Zm8 9.5v7l-.5.5-7.5-7.5v-8Zm0 13L63.5 75l-.5-.5v-15Z" style="fill:#feb380;stroke:none"/>
        <path d="m69.5 38-.5-.5L79.5 27l9.5 9.5-4.5 4.5 5.5 5.5v12L85.5 63 82 59.5v-4l5-5L74.5 38Z" style="fill:#6e7080;stroke:none"/>
        <path d="M75 60.5v-10l1-1 6 6v4l3.5 3.5-.5.5V67h-3.5Z" style="stroke:none"/>
        <path d="m76 49.5 5-5 6 6-5 5Z" style="fill:#ea8878;stroke:none"/>
    </g>
</svg>
