<svg xmlns="http://www.w3.org/2000/svg" width="96" height="96" style="fill-opacity:1;color-rendering:auto;color-interpolation:auto;text-rendering:auto;stroke:#000;stroke-linecap:square;stroke-miterlimit:10;shape-rendering:auto;stroke-opacity:1;fill:#000;stroke-dasharray:none;font-weight:400;stroke-width:1;font-family:&quot;Dialog&quot;;font-style:normal;stroke-linejoin:miter;font-size:12px;stroke-dashoffset:0;image-rendering:auto">
    <g style="stroke-linecap:round;fill:#4a4b53;stroke:#4a4b53">
        <path stroke="none" d="M48 29.5v-7l2.5-2.5 3.5 3.5Z" style="stroke:none"/>
    </g>
    <g stroke="none" style="stroke-linecap:round;fill:#6e7080;stroke:#6e7080">
        <path d="m48.5 33-.5-.5v-3l6-6-3.5-3.5 3.5-3.5 3.5 3.5 6.5-6.5-3.5-3.5 4-4 4.5 4.5v14l.5.5-7.5 7.5-5.5-5.5-6 6Z" style="stroke:none"/>
        <path d="M51 13.5 57.5 7l3 3-6.5 6.5Z" style="stroke:none"/>
        <path d="m51 32.5 5.5-5.5 5.5 5.5-5.5 5.5Z" style="fill:#feb380;stroke:none"/>
        <path d="m54 16.5 6.5-6.5 3.5 3.5-6.5 6.5Z" style="fill:#4a4b53;stroke:none"/>
        <path d="m56.5 38 5.5-5.5 6 6-5.5 5.5Z" style="fill:#ea8878;stroke:none"/>
        <path d="m62 32.5 7.5-7.5 6 6-7.5 7.5Z" style="fill:#4a4b53;stroke:none"/>
        <path d="m63.5 45-1-1 6.5-6.5.5.5h5l6.5 6.5-5 5-4.5-4.5Z" style="fill:#feb380;stroke:none"/>
        <path d="m69.5 38-.5-.5L79.5 27l9.5 9.5-4.5 4.5 5.5 5.5v12L85.5 63 82 59.5v-4l5-5L74.5 38Z" style="stroke:none"/>
        <path d="m76 49.5 5-5 6 6-5 5Z" style="fill:#ea8878;stroke:none"/>
    </g>
</svg>
