<svg xmlns="http://www.w3.org/2000/svg" width="96" height="96" style="fill-opacity:1;color-rendering:auto;color-interpolation:auto;text-rendering:auto;stroke:#000;stroke-linecap:square;stroke-miterlimit:10;shape-rendering:auto;stroke-opacity:1;fill:#000;stroke-dasharray:none;font-weight:400;stroke-width:1;font-family:&quot;Dialog&quot;;font-style:normal;stroke-linejoin:miter;font-size:12px;stroke-dashoffset:0;image-rendering:auto">
    <g style="stroke-linecap:round;fill:#989aa4;stroke:#989aa4">
        <path stroke="none" d="M.5 1V.5H1l11 11L15.5 8h1l-4 4 5 5-.5.5-5-5L8.5 16H8v-.5l3.5-3.5Z" style="stroke:none"/>
    </g>
    <g stroke="none" style="stroke-linecap:round;fill:#6e7080;stroke:#6e7080">
        <path d="M11.5 12 8 15.5V28h-.5l-4 4 4 4H8v4H6.5l-6-6V1Z" style="stroke:none"/>
        <path d="M6.5 40H8v16H6.5l-6 6V52l4-4-4-4V34Z" style="fill:#d4816b;stroke:none"/>
        <path d="m4.5 48-4 4v-8Z" style="stroke:none"/>
        <path d="M1 .5h33l6 6V8h-4v-.5l-4-4-4 4V8H15.5L12 11.5Z" style="fill:#b0bac0;stroke:none"/>
        <path d="m3.5 64 4 4H8v12.5l7.5 7.5H28v.5l4 4 4-4V88h4v1.5l-6 6H.5V62l6-6H8v4h-.5Z" style="stroke:none"/>
        <path d="m3.5 32 4-4H8v8h-.5Zm0 32 4-4H8v8h-.5Z" style="fill:#d4816b;stroke:none"/>
        <path d="M8 28V16h.5l3.5-3.5 5 5-4 4V28Z" style="fill:#b0bac0;stroke:none"/>
        <path d="M8 36v-8h5v.5l3 3v1L12.5 36Z" style="fill:#ffd37f;stroke:none"/>
        <path d="M8 40v-4h4.5l3.5-3.5v11L12.5 40Z" style="fill:#b0bac0;stroke:none"/>
        <path d="M8 56V40h4.5l3.5 3.5v9L12.5 56Z" style="fill:#ffd37f;stroke:none"/>
        <path d="M8 60v-4h4.5l3.5-3.5v11L12.5 60Z" style="fill:#b0bac0;stroke:none"/>
        <path d="M8 68v-8h4.5l3.5 3.5v1l-3 3v.5Z" style="fill:#ffd37f;stroke:none"/>
        <path d="M8 79.5V68h5v6.5l8.5 8.5H28v5H16v-.5Z" style="fill:#b0bac0;stroke:none"/>
        <path d="m9 81.5-1-1v-1l1 1Z" style="fill:#989aa4;stroke:none"/>
        <path d="m11 83.5-3-3v-1l3 3Z" style="fill:#989aa4;stroke:none"/>
        <path d="m13 85.5-5-5v-1l5 5Z" style="fill:#989aa4;stroke:none"/>
        <path d="m12.5 12 4-4H28v5h-6.5l-4 4Z" style="stroke:none"/>
        <path d="M13 28.5v-7l8.5-8.5h7l3 3h33l3-3h7l8.5 8.5v7l-3 3v33l3 3v7L74.5 83h-7l-3-3h-33l-3 3h-7L13 74.5v-7l3-3v-33Z" style="fill:#4a4b53;stroke:none"/>
        <path d="m15 87.5-7-7v-1l7 7Z" style="fill:#989aa4;stroke:none"/>
        <path d="M28 8v-.5l4-4 4 4V8Z" style="fill:#ffd37f;stroke:none"/>
        <path d="M28.5 13H28V8h8v4.5L32.5 16h-1Z" style="fill:#d4816b;stroke:none"/>
        <path d="M28 88v-5h.5l3-3h1l3.5 3.5V88Z" style="fill:#ffd37f;stroke:none"/>
        <path d="M28 88.5V88h8v.5l-4 4Z" style="fill:#d4816b;stroke:none"/>
        <path d="m32.5 16 3.5-3.5V8h4v4.5l3.5 3.5Z" style="stroke:none"/>
        <path d="M32.5 80h11L40 83.5V88h-4v-4.5Z" style="fill:#b0bac0;stroke:none"/>
        <path d="M34 .5h10l4 4 4-4h10l-6 6V8H40V6.5Z" style="fill:#ffd37f;stroke:none"/>
        <path d="M40 45.5v5l5.5 5.5h5l5.5-5.5v-5L50.5 40h-5Z" style="fill:#4a4b53;stroke:none"/>
        <path d="M40 12.5V8h16v4.5L52.5 16h-9Z" style="fill:#d4816b;stroke:none"/>
        <path d="M40 50.5v-5l5.5-5.5h5l5.5 5.5v5L50.5 56h-5Z" style="stroke:none"/>
        <path d="M40 88v-4.5l3.5-3.5h9l3.5 3.5V88Z" style="fill:#ffd37f;stroke:none"/>
        <path d="M44 95.5H34l6-6V88h16v1.5l6 6H52l-4-4Z" style="fill:#d4816b;stroke:none"/>
        <path d="M44 .5h8l-4 4Z" style="fill:#b0bac0;stroke:none"/>
        <path d="M52 95.5h-8l4-4Zm.5-79.5 3.5-3.5V8h4v4.5l3.5 3.5Z" style="stroke:none"/>
        <path d="M52.5 80h11L60 83.5V88h-4v-4.5ZM56 8V6.5l6-6h33.5V34l-6 6H88v-4h.5l4-4-4-4H88V15.5L80.5 8H68v-.5l-4-4-4 4V8Z" style="fill:#b0bac0;stroke:none"/>
        <path d="M56 89.5V88h4v.5l4 4 4-4V88h12.5l3.5-3.5 11 11H62Z" style="stroke:none"/>
        <path d="M60 8v-.5l4-4 4 4V8Z" style="fill:#ffd37f;stroke:none"/>
        <path d="M60 12.5V8h8v5h-.5l-3 3h-1Z" style="fill:#d4816b;stroke:none"/>
        <path d="M60 88v-4.5l3.5-3.5h1l3 3h.5v5Z" style="fill:#ffd37f;stroke:none"/>
        <path d="M60 88.5V88h8v.5l-4 4Z" style="fill:#d4816b;stroke:none"/>
        <path d="M68 13V8h12v.5l8 8V28h-5v-6.5L74.5 13Z" style="stroke:none"/>
        <path d="M68 88v-5h6.5l4-4 5 5-4 4Z" style="fill:#b0bac0;stroke:none"/>
        <path d="m79 78.5 4-4V68h5v12h-.5L84 83.5Z" style="stroke:none"/>
        <path d="M80 80.5 78.5 79l.5-.5 1 1Zm1-71-1-1V8h.5l.5.5Z" style="fill:#989aa4;stroke:none"/>
        <path d="M80 32.5v-1l3-3V28h5v8h-4.5Z" style="fill:#d4816b;stroke:none"/>
        <path d="M83.5 36H88v4h-4.5L80 43.5v-11Z" style="stroke:none"/>
        <path d="M80 52.5v-9l3.5-3.5H88v16h-4.5Z" style="fill:#d4816b;stroke:none"/>
        <path d="M83.5 56H88v4h-4.5L80 63.5v-11Z" style="stroke:none"/>
        <path d="M80 64.5v-1l3.5-3.5H88v8h-5v-.5Z" style="fill:#d4816b;stroke:none"/>
        <path d="M80.5 88h-1l4-4-5-5 .5-.5 5 5 3.5-3.5h.5v.5L84.5 84l11 11v.5H95l-11-11ZM83 11.5l-3-3V8h.5l2.5 2.5Z" style="fill:#989aa4;stroke:none"/>
        <path d="m85 13.5-5-5V8h.5l4.5 4.5Z" style="fill:#989aa4;stroke:none"/>
        <path d="m84.5 84 3.5-3.5V68h.5l4-4-4-4H88v-4h1.5l6 6v33Z" style="fill:#b0bac0;stroke:none"/>
        <path d="m87 15.5-7-7V8h.5l6.5 6.5Z" style="fill:#989aa4;stroke:none"/>
        <path d="m92.5 32-4 4H88v-8h.5ZM88 56V40h1.5l6-6v10l-4 4 4 4v10l-6-6Zm4.5 8-4 4H88v-8h.5Z" style="fill:#ffd37f;stroke:none"/>
        <path d="m91.5 48 4-4v8Z" style="fill:#b0bac0;stroke:none"/>
    </g>
</svg>
