<svg xmlns="http://www.w3.org/2000/svg" width="96" height="96" style="fill-opacity:1;color-rendering:auto;color-interpolation:auto;text-rendering:auto;stroke:#000;stroke-linecap:square;stroke-miterlimit:10;shape-rendering:auto;stroke-opacity:1;fill:#000;stroke-dasharray:none;font-weight:400;stroke-width:1;font-family:&quot;Dialog&quot;;font-style:normal;stroke-linejoin:miter;font-size:12px;stroke-dashoffset:0;image-rendering:auto">
    <g style="stroke-linecap:round;fill:#6e7080;stroke:#6e7080">
        <path stroke="none" d="M1 1.5 11.5 12 8 15.5V40H6.5l-4-4h-2V.5H1Z" style="stroke:none"/>
    </g>
    <g stroke="none" style="stroke-linecap:round;fill:#62ae7f;stroke:#62ae7f">
        <path d="M.5 60V36h2l4 4H8v16H6.5l-4 4Z" style="stroke:none"/>
        <path d="M1.5 1H1V.5h35v2l4 4V8H15.5L12 11.5Z" style="fill:#b0bac0;stroke:none"/>
        <path d="m2 2.5-1-1V1h.5l.5.5Z" style="fill:#989aa4;stroke:none"/>
        <path d="m4 4.5-3-3V1h.5L4 3.5Z" style="fill:#989aa4;stroke:none"/>
        <path d="m6 6.5-5-5V1h.5L6 5.5Z" style="fill:#989aa4;stroke:none"/>
        <path d="m8 8.5-7-7V1h.5L8 7.5Z" style="fill:#989aa4;stroke:none"/>
        <path d="m8 80.5 7.5 7.5H40v1.5l-4 4v2H.5V60h2l4-4H8Z" style="fill:#6e7080;stroke:none"/>
        <path d="M8.5 16H8v-.5l3.5-3.5L1 1.5V1h.5L12 11.5 15.5 8h1l-4 4 8 8-.5.5-8-8Z" style="fill:#989aa4;stroke:none"/>
        <path d="M8 28V16h.5l3.5-3.5 8 8-4 4v6L13.5 28Z" style="fill:#b0bac0;stroke:none"/>
        <path d="M8 36v-8h5.5l2.5 2.5v3L13.5 36Z" style="fill:#84f491;stroke:none"/>
        <path d="M8 40v-4h5.5l2.5-2.5v11L11.5 40Z" style="fill:#b0bac0;stroke:none"/>
        <path d="M8 56V40h3.5l4.5 4.5v7L11.5 56Z" style="fill:#84f491;stroke:none"/>
        <path d="M8 60v-4h3.5l4.5-4.5v11L13.5 60Z" style="fill:#b0bac0;stroke:none"/>
        <path d="M8 68v-8h5.5l2.5 2.5v3L13.5 68Z" style="fill:#84f491;stroke:none"/>
        <path d="M8 79.5V68h5.5l2.5-2.5v6l8.5 8.5h6L28 82.5V88H16v-.5Z" style="fill:#b0bac0;stroke:none"/>
        <path d="m9 81.5-1-1v-1l1 1Z" style="fill:#989aa4;stroke:none"/>
        <path d="m11 83.5-3-3v-1l3 3Z" style="fill:#989aa4;stroke:none"/>
        <path d="m13 85.5-5-5v-1l5 5Z" style="fill:#989aa4;stroke:none"/>
        <path d="m12.5 12 4-4H28v5.5l2.5 2.5h3l2.5-2.5V8h4v3.5l4.5 4.5h-8l-.5.5v3l4 4v3L38.5 28h-5L27 21.5v-5l-.5-.5h-2l-4 4Z" style="fill:#6e7080;stroke:none"/>
        <path d="m15 87.5-7-7v-1l7 7Z" style="fill:#989aa4;stroke:none"/>
        <path d="M16 27v-2.5l8.5-8.5h2l.5.5v5l6.5 6.5h5l1.5-1.5v-3l-4-4v-3l.5-.5h23l.5.5v3l-4 4v3l1.5 1.5h5l6.5-6.5v-5l.5-.5h2l8.5 8.5v2l-.5.5h-5L68 33.5v5l1.5 1.5h3l4-4h3l.5.5v23l-.5.5h-3l-4-4h-3L68 57.5v5l6.5 6.5h5l.5.5v2L71.5 80H69v-5.5L62.5 68h-5L56 69.5v3l4 4V80H36v-3.5l4-4v-3L38.5 68h-5L27 74.5V80h-2.5L16 71.5V69h5.5l6.5-6.5v-5L26.5 56h-3l-4 4H16V36h3.5l4 4h3l1.5-1.5v-5L21.5 27Z" style="fill:#4a4b53;stroke:none"/>
        <path d="M16 36v-9h5.5l6.5 6.5v5L26.5 40h-3l-4-4Zm0 33v-9h3.5l4-4h3l1.5 1.5v5L21.5 69Zm11 11v-5.5l6.5-6.5h5l1.5 1.5v3l-4 4V80Z" style="fill:#6e7080;stroke:none"/>
        <path d="M28 13.5V8h8v5.5L33.5 16h-3Z" style="stroke:none"/>
        <path d="M28 88v-5.5l2.5-2.5h3l2.5 2.5V88Z" style="fill:#84f491;stroke:none"/>
        <path d="M33.5 80h11L40 84.5V88h-4v-5.5Z" style="fill:#b0bac0;stroke:none"/>
        <path d="M36 2.5v-2h24v2l-4 4V8H40V6.5Z" style="fill:#84f491;stroke:none"/>
        <path d="M39 46.5v3l7.5 7.5h3l7.5-7.5v-3L49.5 39h-3Z" style="fill:#4a4b53;stroke:none"/>
        <path d="M39 49.5v-3l7.5-7.5h3l7.5 7.5v3L49.5 57h-3Z" style="fill:#6e7080;stroke:none"/>
        <path d="M40 11.5V8h16v3.5L51.5 16h-7Z" style="stroke:none"/>
        <path d="M40 88v-3.5l4.5-4.5h7l4.5 4.5V88Z" style="fill:#84f491;stroke:none"/>
        <path d="m51.5 16 4.5-4.5V8h4v5.5l2.5 2.5h3l2.5-2.5V8h12v.5l8 8V28h-5.5L80 30.5v3l2.5 2.5H88v4h-3.5L80 44.5v-8l-.5-.5h-3l-4 4h-3L68 38.5v-5l6.5-6.5h5l.5-.5v-2L71.5 16h-2l-.5.5v5L62.5 28h-5L56 26.5v-3l4-4v-3l-.5-.5Z" style="fill:#6e7080;stroke:none"/>
        <path d="M51.5 80h11L60 82.5V88h-4v-3.5Z" style="fill:#b0bac0;stroke:none"/>
        <path d="m56 89.5 4 4v2H36v-2l4-4V88h16Z" style="stroke:none"/>
        <path d="M56 8V6.5l4-4v-2h35.5V36h-2l-4 4H88V15.5L80.5 8Z" style="fill:#b0bac0;stroke:none"/>
        <path d="M56 72.5v-3l1.5-1.5h5l6.5 6.5V80h-9v-3.5Zm0 17V88h24.5l3.5-3.5 11 11H60v-2Z" style="fill:#6e7080;stroke:none"/>
        <path d="M60 13.5V8h8v5.5L65.5 16h-3Z" style="stroke:none"/>
        <path d="M60 88v-5.5l2.5-2.5h3l2.5 2.5V88Z" style="fill:#84f491;stroke:none"/>
        <path d="M65.5 80h6l4-4 8 8-4 4H68v-5.5Z" style="fill:#b0bac0;stroke:none"/>
        <path d="M68 62.5v-5l1.5-1.5h3l4 4h3l.5-.5v-8l4.5 4.5H88v4h-5.5L80 62.5v3l2.5 2.5H88v12h-.5L84 83.5l-8-8 4-4v-2l-.5-.5h-5Z" style="fill:#6e7080;stroke:none"/>
        <path d="M77 77.5 75.5 76l.5-.5 1 1Z" style="fill:#989aa4;stroke:none"/>
        <path d="M79 79.5 75.5 76l.5-.5 3 3Zm2-70-1-1V8h.5l.5.5Z" style="fill:#989aa4;stroke:none"/>
        <path d="M80 33.5v-3l2.5-2.5H88v8h-5.5Zm0 18v-7l4.5-4.5H88v16h-3.5Zm0 14v-3l2.5-2.5H88v8h-5.5Z" style="stroke:none"/>
        <path d="M81 81.5 75.5 76l.5-.5 5 5Z" style="fill:#989aa4;stroke:none"/>
        <path d="M80.5 88h-1l4-4-8-8 .5-.5 8 8 3.5-3.5h.5v.5L84.5 84l11 11v.5H95l-11-11ZM83 11.5l-3-3V8h.5l2.5 2.5Z" style="fill:#989aa4;stroke:none"/>
        <path d="m85 13.5-5-5V8h.5l4.5 4.5Z" style="fill:#989aa4;stroke:none"/>
        <path d="m84.5 84 3.5-3.5V56h1.5l4 4h2v35Z" style="fill:#b0bac0;stroke:none"/>
        <path d="m87 15.5-7-7V8h.5l6.5 6.5Z" style="fill:#989aa4;stroke:none"/>
        <path d="M88 56V40h1.5l4-4h2v24h-2l-4-4Z" style="fill:#84f491;stroke:none"/>
    </g>
</svg>
