<svg xmlns="http://www.w3.org/2000/svg" width="160" height="160" style="fill-opacity:1;color-rendering:auto;color-interpolation:auto;text-rendering:auto;stroke:#000;stroke-linecap:square;stroke-miterlimit:10;shape-rendering:auto;stroke-opacity:1;fill:#000;stroke-dasharray:none;font-weight:400;stroke-width:1;font-family:&quot;Dialog&quot;;font-style:normal;stroke-linejoin:miter;font-size:12px;stroke-dashoffset:0;image-rendering:auto">
    <g style="stroke-linecap:round;fill:#ffd37f;stroke:#ffd37f">
        <path stroke="none" d="M127 59.5v-6l6.5-6.5H146v12h-6.5l-6.5 6.5Z" style="stroke:none"/>
    </g>
    <g stroke="none" style="stroke-linecap:round;fill:#ffd37f;stroke:#ffd37f">
        <path d="M127 106.5v-6l6-6 6.5 6.5h6.5v12h-12.5Zm2-76 11-11 5.5 5.5h.5v3.5l-5 5V39h-3.5Zm0 99 8.5-8.5h3.5v5.5l5 5v3.5h-.5l-5.5 5.5Z" style="stroke:none"/>
        <path d="M141 39v-5.5l5-5 5 5-5.5 5.5Zm0 87.5V121h4.5l5.5 5.5-5 5Zm3-45v-3l5.5-5.5h1.5v14h-1.5Z" style="fill:#eab678;stroke:none"/>
        <path d="M146 28.5V25h3.5l6-6h4v15h-8Zm0 30.5V47h.5l5-5h8v11l-6 6Zm.5 54h-.5v-12h7.5l6 6v11h-8Zm-.5 22v-3.5l5.5-5.5h8v15h-4l-6-6Zm5-48V73h3.5l5-5v24l-5-5Z" style="fill:#d4816b;stroke:none"/>
    </g>
</svg>
