<svg xmlns="http://www.w3.org/2000/svg" width="224" height="224" style="fill-opacity:1;color-rendering:auto;color-interpolation:auto;text-rendering:auto;stroke:#000;stroke-linecap:square;stroke-miterlimit:10;shape-rendering:auto;stroke-opacity:1;fill:#000;stroke-dasharray:none;font-weight:400;stroke-width:1;font-family:&quot;Dialog&quot;;font-style:normal;stroke-linejoin:miter;font-size:12px;stroke-dashoffset:0;image-rendering:auto">
    <g style="stroke-linecap:round;fill:#989aa4;stroke:#989aa4">
        <path stroke="none" d="M.5 1V.5H1L42.5 42l4-4h7l8.5 8.5v7l-4 4L73.5 73l-.5.5L57.5 58l-4 4h-7L38 53.5v-7l4-4Z" style="stroke:none"/>
    </g>
    <g stroke="none" style="stroke-linecap:round;fill:#6e7080;stroke:#6e7080">
        <path d="M26.5 27 14 39.5v18L8.5 52h-8v-5h5l1-1-6-6V1Z" style="stroke:none"/>
        <path d="m6.5 46-1 1h-5v-7Zm-6 18V52h8l5.5 5.5V64Z" style="fill:#d4816b;stroke:none"/>
        <path d="M.5 74V64H14v10Z" style="stroke:none"/>
        <path d="M.5 86V74H14v.5l7.5 7.5-.5.5V94h-3.5l-8-8Z" style="fill:#d4816b;stroke:none"/>
        <path d="M.5 97V86h9l8 8H21v8H10.5l-5-5Z" style="stroke:none"/>
        <path d="M.5 127V97h5l5 5H21v20H10.5l-5 5Z" style="fill:#d4816b;stroke:none"/>
        <path d="M.5 138v-11h5l5-5H21v8h-3.5l-8 8Z" style="stroke:none"/>
        <path d="M.5 150v-12h9l8-8H21v11.5l.5.5-7.5 7.5v.5Z" style="fill:#d4816b;stroke:none"/>
        <path d="M.5 160v-10H14v10Z" style="stroke:none"/>
        <path d="M.5 172v-12H14v6.5L8.5 172Z" style="fill:#d4816b;stroke:none"/>
        <path d="M.5 177v-5h8l5.5-5.5v18L39.5 210h18l-5.5 5.5v8h-5v-5l-1-1-6 6H.5V184l6-6-1-1Z" style="stroke:none"/>
        <path d="M.5 184v-7h5l1 1Z" style="fill:#d4816b;stroke:none"/>
        <path d="M1 .5h39l6 6 1-1v-5h5v8l5.5 5.5h-18L27 26.5Zm13 57v-18L26.5 27l5.5 5.5-8 8v19L40.5 76h19l8-8 5.5 5.5-8.5 8.5h-29l-7-7-.5.5v13l-14-14V64h3.5l.5-.5v-2Z" style="fill:#b0bac0;stroke:none"/>
        <path d="M18 61.5v2l-.5.5H14v-6.5Z" style="fill:#ffd37f;stroke:none"/>
        <path d="M14 160v-10.5l14-14v17l4 4-8 8v19L40.5 200h19l8-8 4 4h17l-14 14H64v-3.5l-.5-.5h-2l-4 4h-18L14 184.5v-18l4-4v-2l-.5-.5Z" style="fill:#b0bac0;stroke:none"/>
        <path d="M14 166.5V160h3.5l.5.5v2Zm14-78V94h-7V82.5l.5-.5Z" style="fill:#ffd37f;stroke:none"/>
        <path d="M21.5 102H21v-8h7v14.5Z" style="fill:#b0bac0;stroke:none"/>
        <path d="M28 108.5v7l-6.5 6.5H21v-20h.5Z" style="fill:#ffd37f;stroke:none"/>
        <path d="M21 130v-8h.5l6.5-6.5V130Z" style="fill:#b0bac0;stroke:none"/>
        <path d="m21.5 142-.5-.5V130h7v5.5Z" style="fill:#ffd37f;stroke:none"/>
        <path d="M24 59.5v-19l8-8 5.5 5.5-6.5 6.5v11L44.5 69h11l6.5-6.5 5.5 5.5-8 8h-19Zm0 124v-19l8-8 5.5 5.5-6.5 6.5v11L44.5 193h11l6.5-6.5 5.5 5.5-8 8h-19Zm3-157L39.5 14h18l4 4h2l.5-.5V14h10.5l14 14h-2l-.5.5v21L96.5 60l-6 6h-4l-4-4-.5.5v2L73.5 73 68 67.5l8-8v-19L59.5 24h-19l-8 8ZM35.5 82h26l4.5 4.5v4l-6 6L49.5 86H28V75.5l.5-.5Z" style="stroke:none"/>
        <path d="M28 96.5V86h21.5L60 96.5l6-6v-4L61.5 82h3L82 64.5v-2l.5-.5 4 4h4l6-6L86 49.5v-21l.5-.5h10l5.5 5.5v17l8.5 8.5h3l8.5-8.5v-17l5.5-5.5h10l.5.5v21L127.5 60l6 6h4l4.5-4.5v3L159.5 82h3l-4.5 4.5v4l6 6L174.5 86h21l.5.5v10l-5.5 5.5h-17l-8.5 8.5v3l8.5 8.5h17l5.5 5.5v10l-.5.5h-21L164 127.5l-6 6v4l4 4-.5.5h-2L142 159.5v3l-4.5-4.5h-4l-6 6 10.5 10.5V196h-10.5l-5.5-5.5v-17l-8.5-8.5h-3l-8.5 8.5v17l-5.5 5.5H86v-21.5L96.5 164l-6-6h-4l-4 4-.5-.5v-2L64.5 142h-2l-.5-.5 4-4v-4l-6-6L49.5 138H28v-10.5l5.5-5.5h17l8.5-8.5v-3l-8.5-8.5h-17Z" style="fill:#4a4b53;stroke:none"/>
        <path d="M33.5 102h17l8.5 8.5v3l-8.5 8.5h-17l-5.5 5.5v-31ZM28 151.5V138h21.5L60 127.5l6 6v4l-4 4 .5.5h2L82 159.5v2l.5.5 4-4h4l6 6L86 174.5V196H72v-.5l-4-4 8-8v-19L59.5 148h-19l-8 8Z" style="stroke:none"/>
        <path d="m29 153.5-1-1v-1l1 1Z" style="fill:#989aa4;stroke:none"/>
        <path d="m31 155.5-3-3v-1l3 3Z" style="fill:#989aa4;stroke:none"/>
        <path d="M31 55.5v-11l6.5-6.5 4.5 4.5-4 4v7l8.5 8.5h7l4-4 4.5 4.5-6.5 6.5h-11Zm0 124v-11l6.5-6.5 4.5 4.5-4 4v7l8.5 8.5h7l4-4 4.5 4.5-6.5 6.5h-11Z" style="fill:#b0bac0;stroke:none"/>
        <path d="M33 90.5v3l4.5 4.5h2l.5-.5v-5L37.5 90h-4Zm0 40v3l.5.5h4l2.5-2.5v-5l-.5-.5h-2Z" style="fill:#4a4b53;stroke:none"/>
        <path d="m33 157.5-5-5v-1l5 5Z" style="fill:#989aa4;stroke:none"/>
        <path d="m32.5 32 8-8h19L76 40.5v19l-8 8-5.5-5.5 6.5-6.5v-11L55.5 31h-11L38 37.5Z" style="fill:#b0bac0;stroke:none"/>
        <path d="M33 93.5v-3l.5-.5h4l2.5 2.5v5l-.5.5h-2Zm.5 40.5-.5-.5v-3l4.5-4.5h2l.5.5v5l-2.5 2.5Z" style="stroke:none"/>
        <path d="m32.5 156 8-8h19L76 164.5v19l-8 8-5.5-5.5 6.5-6.5v-11L55.5 155h-11l-6.5 6.5Z" style="fill:#b0bac0;stroke:none"/>
        <path d="m35 159.5-7-7v-1l7 7Z" style="fill:#989aa4;stroke:none"/>
        <path d="m37 161.5-9-9v-1l9 9Z" style="fill:#989aa4;stroke:none"/>
        <path d="m38 37.5 6.5-6.5h11L69 44.5v11L62.5 62 58 57.5l4-4v-7L53.5 38h-7l-4 4Zm0 124 6.5-6.5h11L69 168.5v11l-6.5 6.5-4.5-4.5 4-4v-7l-8.5-8.5h-7l-4 4Z" style="stroke:none"/>
        <path d="m39 163.5-11-11v-1l11 11Z" style="fill:#989aa4;stroke:none"/>
        <path d="M38 177.5v-7l4-4-14-14v-1L42.5 166l4-4h7l8.5 8.5v7l-4 4 14 14v.5h-.5l-14-14-4 4h-7Z" style="fill:#989aa4;stroke:none"/>
        <path d="M40 .5h7v5l-1 1Z" style="fill:#ffd37f;stroke:none"/>
        <path d="M43 47.5v5l4.5 4.5h5l4.5-4.5v-5L52.5 43h-5Zm0 124v5l4.5 4.5h5l4.5-4.5v-5l-4.5-4.5h-5Z" style="fill:#989aa4;stroke:none"/>
        <path d="M43 52.5v-5l4.5-4.5h5l4.5 4.5v5L52.5 57h-5Zm0 124v-5l4.5-4.5h5l4.5 4.5v5l-4.5 4.5h-5Z" style="stroke:none"/>
        <path d="M47 223.5h-7l6-6 1 1Z" style="fill:#d4816b;stroke:none"/>
        <path d="M52 8.5v-8h12V14h-6.5Z" style="fill:#ffd37f;stroke:none"/>
        <path d="M57.5 14H64v3.5l-.5.5h-2Z" style="fill:#d4816b;stroke:none"/>
        <path d="m57.5 210 4-4h2l.5.5v3.5Z" style="fill:#ffd37f;stroke:none"/>
        <path d="M64 223.5H52v-8l5.5-5.5H64Z" style="fill:#d4816b;stroke:none"/>
        <path d="M64 14V.5h10V14Z" style="fill:#b0bac0;stroke:none"/>
        <path d="M74 223.5H64V210h10Z" style="stroke:none"/>
        <path d="M74.5 14H74V.5h12v9l8 8V21H82.5l-.5.5Z" style="fill:#ffd37f;stroke:none"/>
        <path d="m82 21.5.5-.5H94v7h-5.5Z" style="fill:#d4816b;stroke:none"/>
        <path d="m82.5 203-.5-.5 6.5-6.5H94v7Z" style="fill:#ffd37f;stroke:none"/>
        <path d="M86 214.5v9H74V210h.5l7.5-7.5.5.5H94v3.5Z" style="fill:#d4816b;stroke:none"/>
        <path d="M86 9.5v-9h11v5l5 5V21h-8v-3.5Z" style="fill:#b0bac0;stroke:none"/>
        <path d="M88 108.5v7l20.5 20.5h7l20.5-20.5v-7L115.5 88h-7Z" style="fill:#4a4b53;stroke:none"/>
        <path d="M88 115.5v-7L108.5 88h7l20.5 20.5v7L115.5 136h-7Z" style="stroke:none"/>
        <path d="M90 33.5v4l2.5 2.5h5l.5-.5v-2L93.5 33h-3Zm0 153v4l.5.5h3l4.5-4.5v-2l-.5-.5h-5Z" style="fill:#4a4b53;stroke:none"/>
        <path d="M90 37.5v-4l.5-.5h3l4.5 4.5v2l-.5.5h-5Zm.5 153.5-.5-.5v-4l2.5-2.5h5l.5.5v2l-4.5 4.5Z" style="stroke:none"/>
        <path d="M94 28v-7h8v.5l6.5 6.5h7l6.5-6.5V21h8v7h-2.5l-5.5 5.5v17l-8.5 8.5h-3l-8.5-8.5v-17L96.5 28Z" style="stroke:none"/>
        <path d="M94 203v-7h14.5l-6.5 6.5v.5Z" style="fill:#b0bac0;stroke:none"/>
        <path d="M97 218.5v5H86v-9l8-8V203h8v10.5Z" style="stroke:none"/>
        <path d="M97 5.5v-5h30v5l-5 5V21h-20V10.5Z" style="fill:#ffd37f;stroke:none"/>
        <path d="m96.5 196 5.5-5.5v-17l8.5-8.5h3l8.5 8.5v17l5.5 5.5Z" style="stroke:none"/>
        <path d="M102 21.5V21h20v.5l-6.5 6.5h-7Z" style="fill:#d4816b;stroke:none"/>
        <path d="M102 203v-.5l6.5-6.5h7l6.5 6.5v.5Z" style="fill:#ffd37f;stroke:none"/>
        <path d="M115.5 196H130v7h-8v-.5Z" style="fill:#b0bac0;stroke:none"/>
        <path d="m122 213.5 5 5v5H97v-5l5-5V203h20Z" style="fill:#d4816b;stroke:none"/>
        <path d="M122 21V10.5l5-5v-5h11v9l-8 8V21Z" style="fill:#b0bac0;stroke:none"/>
        <path d="M122 213.5V203h8v3.5l8 8v9h-11v-5Z" style="stroke:none"/>
        <path d="M126 37.5v2l.5.5h5l2.5-2.5v-4l-.5-.5h-3Zm0 147v2l4.5 4.5h3l.5-.5v-4l-2.5-2.5h-5Z" style="fill:#4a4b53;stroke:none"/>
        <path d="m126.5 40-.5-.5v-2l4.5-4.5h3l.5.5v4l-2.5 2.5Zm-.5 146.5v-2l.5-.5h5l2.5 2.5v4l-.5.5h-3Z" style="stroke:none"/>
        <path d="M127.5 60 138 49.5v-21l-.5-.5h-2l14-14H160v3.5l.5.5h2l4-4h18L210 39.5v18l-4 4v2l.5.5h3.5v10.5l-14 14v-2l-.5-.5h-21L164 96.5l-6-6v-4l4.5-4.5h26l8.5-8.5v-1l-5-5 8-8v-19L183.5 24h-19l-8 8-5-5h-1l-8.5 8.5v26l-4.5 4.5h-4Zm0 104 6-6h4l4.5 4.5v26l7 7-.5.5H138v-21.5Z" style="stroke:none"/>
        <path d="M130 21v-3.5l8-8v-9h12V14h-.5l-7.5 7.5-.5-.5Z" style="fill:#ffd37f;stroke:none"/>
        <path d="M130 28v-7h11.5l.5.5-6.5 6.5Z" style="fill:#d4816b;stroke:none"/>
        <path d="M130 203v-7h5.5l6.5 6.5-.5.5Z" style="fill:#ffd37f;stroke:none"/>
        <path d="M130 206.5V203h11.5l.5-.5 7.5 7.5h.5v13.5h-12v-9Z" style="fill:#d4816b;stroke:none"/>
        <path d="M135.5 196h13l.5-.5-7-7v-29l8.5-8.5 5.5 5.5-8 8v19l16.5 16.5h19l8-8 5.5 5.5-12.5 12.5h-18l-4-4h-2l-.5.5v3.5h-10.5ZM142 64.5v-29l8.5-8.5h.5v.5l5 5-8 8v19L164.5 76h19l8-8 5 5h.5v.5l-8.5 8.5h-29Z" style="fill:#b0bac0;stroke:none"/>
        <path d="M148 59.5v-19l8-8 5.5 5.5-6.5 6.5v11L168.5 69h11l6.5-6.5 5.5 5.5-8 8h-19Zm0 124v-19l8-8 5.5 5.5-6.5 6.5v11l13.5 13.5h11l6.5-6.5 5.5 5.5-8 8h-19Z" style="stroke:none"/>
        <path d="M150 14V.5h10V14Z" style="fill:#b0bac0;stroke:none"/>
        <path d="m152 28.5-1-1V27h.5l.5.5Z" style="fill:#989aa4;stroke:none"/>
        <path d="m151 150.5 8.5-8.5h2l.5-.5-4-4v-4l6-6 10.5 10.5h21l.5-.5v-2l14 14V160h-3.5l-.5.5v2l4 4v18L197.5 197l-5.5-5.5 8-8v-19L183.5 148h-19l-8 8Z" style="stroke:none"/>
        <path d="m152 152.5-1.5-1.5.5-.5 1 1Zm2-122-3-3V27h.5l2.5 2.5Z" style="fill:#989aa4;stroke:none"/>
        <path d="m154 154.5-3.5-3.5.5-.5 3 3Zm2-122-5-5V27h.5l4.5 4.5Z" style="fill:#989aa4;stroke:none"/>
        <path d="M155 55.5v-11l6.5-6.5 4.5 4.5-4 4v7l8.5 8.5h7l4-4 4.5 4.5-6.5 6.5h-11Z" style="fill:#b0bac0;stroke:none"/>
        <path d="m156 156.5-5.5-5.5.5-.5 5 5Z" style="fill:#989aa4;stroke:none"/>
        <path d="M155 179.5v-11l6.5-6.5 4.5 4.5-4 4v7l8.5 8.5h7l4-4 4.5 4.5-6.5 6.5h-11ZM156.5 32l8-8h19L200 40.5v19l-8 8-5.5-5.5 6.5-6.5v-11L179.5 31h-11l-6.5 6.5Z" style="fill:#b0bac0;stroke:none"/>
        <path d="m158 34.5-7-7V27h.5l6.5 6.5Z" style="fill:#989aa4;stroke:none"/>
        <path d="m156.5 156 8-8h19l16.5 16.5v19l-8 8-5.5-5.5 6.5-6.5v-11L179.5 155h-11l-6.5 6.5Z" style="fill:#b0bac0;stroke:none"/>
        <path d="m158 158.5-7.5-7.5.5-.5 7 7Zm2-122-9-9V27h.5l8.5 8.5Z" style="fill:#989aa4;stroke:none"/>
        <path d="m160 160.5-9.5-9.5.5-.5 9 9Z" style="fill:#989aa4;stroke:none"/>
        <path d="M160 223.5h-10V210h10Z" style="stroke:none"/>
        <path d="M160 14V.5h12v8l-5.5 5.5Z" style="fill:#ffd37f;stroke:none"/>
        <path d="m160.5 18-.5-.5V14h6.5l-4 4Z" style="fill:#d4816b;stroke:none"/>
        <path d="M160 210v-3.5l.5-.5h2l4 4Z" style="fill:#ffd37f;stroke:none"/>
        <path d="m162 38.5-11-11V27h.5L162 37.5Zm0 124L150.5 151l.5-.5 11 11Z" style="fill:#989aa4;stroke:none"/>
        <path d="m162 37.5 6.5-6.5h11L193 44.5v11l-6.5 6.5-4.5-4.5 4-4v-7l-8.5-8.5h-7l-4 4Z" style="stroke:none"/>
        <path d="M162 53.5v-7l4-4-15-15V27h.5l15 15 4-4h7l8.5 8.5v7l-4 4 15 15v.5h-.5l-15-15-4 4h-7Z" style="fill:#989aa4;stroke:none"/>
        <path d="m162 161.5 6.5-6.5h11l13.5 13.5v11l-6.5 6.5-4.5-4.5 4-4v-7l-8.5-8.5h-7l-4 4Z" style="stroke:none"/>
        <path d="M162 177.5v-7l4-4-15.5-15.5.5-.5 15.5 15.5 4-4h7l8.5 8.5v7l-4 4 41.5 41.5v.5h-.5L181.5 182l-4 4h-7Z" style="fill:#989aa4;stroke:none"/>
        <path d="M165 113.5v-3l8.5-8.5h17l5.5-5.5V94h7v8h-.5l-6.5 6.5v7l6.5 6.5h.5v8h-7v-2.5l-5.5-5.5h-17Z" style="stroke:none"/>
        <path d="M167 47.5v5l4.5 4.5h5l4.5-4.5v-5l-4.5-4.5h-5Zm0 124v5l4.5 4.5h5l4.5-4.5v-5l-4.5-4.5h-5Z" style="fill:#989aa4;stroke:none"/>
        <path d="M172 215.5v8h-12V210h6.5Z" style="fill:#d4816b;stroke:none"/>
        <path d="m166.5 14 5.5-5.5v-8h5v5l1 1 6-6h39.5V40l-6 6 1 1h5v5h-8l-5.5 5.5v-18L184.5 14Z" style="fill:#b0bac0;stroke:none"/>
        <path d="M167 52.5v-5l4.5-4.5h5l4.5 4.5v5l-4.5 4.5h-5Zm0 124v-5l4.5-4.5h5l4.5 4.5v5l-4.5 4.5h-5Zm-.5 33.5h18l12.5-12.5 26 26h-39l-6-6-1 1v5h-5v-8Z" style="stroke:none"/>
        <path d="m178 6.5-1-1v-5h7Z" style="fill:#ffd37f;stroke:none"/>
        <path d="M184 223.5h-7v-5l1-1Z" style="fill:#d4816b;stroke:none"/>
        <path d="M184 92.5v5l.5.5h2l4.5-4.5v-3l-.5-.5h-4Zm0 34v5l2.5 2.5h4l.5-.5v-3l-4.5-4.5h-2Z" style="fill:#4a4b53;stroke:none"/>
        <path d="m184.5 98-.5-.5v-5l2.5-2.5h4l.5.5v3l-4.5 4.5Zm-.5 33.5v-5l.5-.5h2l4.5 4.5v3l-.5.5h-4Z" style="stroke:none"/>
        <path d="M196 94v-5.5l6.5-6.5.5.5V94Zm0 21.5v-7l6.5-6.5h.5v20h-.5Zm0 20V130h7v11.5l-.5.5Z" style="fill:#d4816b;stroke:none"/>
        <path d="m197.5 197 12.5-12.5v-18l5.5 5.5h8v5h-5l-1 1 6 6v39Z" style="fill:#b0bac0;stroke:none"/>
        <path d="M203 94V82.5l-.5-.5 7.5-7.5V74h13.5v12h-9l-8 8Z" style="fill:#ffd37f;stroke:none"/>
        <path d="M203 102v-8h3.5l8-8h9v11h-5l-5 5Z" style="fill:#b0bac0;stroke:none"/>
        <path d="M203 122v-20h10.5l5-5h5v30h-5l-5-5Z" style="fill:#ffd37f;stroke:none"/>
        <path d="M203 130v-8h10.5l5 5h5v11h-9l-8-8Z" style="fill:#b0bac0;stroke:none"/>
        <path d="m202.5 142 .5-.5V130h3.5l8 8h9v12H210v-.5Z" style="fill:#ffd37f;stroke:none"/>
        <path d="m206.5 64-.5-.5v-2l4-4V64Zm-.5 98.5v-2l.5-.5h3.5v6.5Z" style="fill:#d4816b;stroke:none"/>
        <path d="M210 64v-6.5l5.5-5.5h8v12Z" style="fill:#ffd37f;stroke:none"/>
        <path d="M210 74V64h13.5v10Zm0 86v-10h13.5v10Z" style="fill:#b0bac0;stroke:none"/>
        <path d="M210 166.5V160h13.5v12h-8ZM218.5 47l-1-1 6-6v7Zm-1 131 1-1h5v7Z" style="fill:#ffd37f;stroke:none"/>
    </g>
</svg>
