<svg xmlns="http://www.w3.org/2000/svg" width="160" height="160" style="fill-opacity:1;color-rendering:auto;color-interpolation:auto;text-rendering:auto;stroke:#000;stroke-linecap:square;stroke-miterlimit:10;shape-rendering:auto;stroke-opacity:1;fill:#000;stroke-dasharray:none;font-weight:400;stroke-width:1;font-family:&quot;Dialog&quot;;font-style:normal;stroke-linejoin:miter;font-size:12px;stroke-dashoffset:0;image-rendering:auto">
    <g style="stroke-linecap:round;fill:#6569c9;stroke:#6569c9">
        <path stroke="none" d="M128 84.5v-9l4.5-4.5h7l-2.5 2.5v13l2.5 2.5h-7Z" style="stroke:none"/>
    </g>
    <g stroke="none" style="stroke-linecap:round;fill:#6569c9;stroke:#6569c9">
        <path d="m129 47.5.5-.5h8l4-4 5.5 5.5v5l.5.5-2 2h-8Zm.5 65.5-.5-.5 8.5-8.5h8l2 2-.5.5v5l-5.5 5.5-4-4Z" style="stroke:none"/>
        <path d="M137 86.5v-13l2.5-2.5h8l.5.5-5 5v7l5 5-.5.5h-8Zm4.5-43.5 4-4 .5.5v1l7.5 7.5-6 6-.5-.5v-5Zm0 74 5.5-5.5v-5l.5-.5 6 6-7.5 7.5v1l-.5.5Z" style="fill:#8ca9e8;stroke:none"/>
        <path d="M143 83.5v-7L155.5 64h4v11h-2l-5 5 5 5h2v11h-4Zm3-43v-1l-.5-.5 5-5h9v14h-6Zm-.5 80.5.5-.5v-1l7.5-7.5h6v14h-9Z" style="fill:#d1efff;stroke:none"/>
    </g>
</svg>
