<svg xmlns="http://www.w3.org/2000/svg" width="96" height="96" style="fill-opacity:1;color-rendering:auto;color-interpolation:auto;text-rendering:auto;stroke:#000;stroke-linecap:square;stroke-miterlimit:10;shape-rendering:auto;stroke-opacity:1;fill:#000;stroke-dasharray:none;font-weight:400;stroke-width:1;font-family:&quot;Dialog&quot;;font-style:normal;stroke-linejoin:miter;font-size:12px;stroke-dashoffset:0;image-rendering:auto">
    <g style="stroke-linecap:round;fill:#6e7080;stroke:#6e7080">
        <path stroke="none" d="M.5 1V.5H1l11 11L15.5 8h.5v.5L12.5 12l6.5 6.5-.5.5-6.5-6.5L8.5 16H8v-.5l3.5-3.5Z" style="stroke:none"/>
    </g>
    <g stroke="none" style="stroke-linecap:round;fill:#4a4b53;stroke:#4a4b53">
        <path d="M11.5 12 8 15.5V17H5.5l-5 5V1Z" style="stroke:none"/>
        <path d="M.5 33V22l5-5H8v10H6.5Z" style="fill:#6569c9;stroke:none"/>
        <path d="M.5 63V33l6-6H8v7.5l-3 3v21l3 3V69H6.5Z" style="stroke:none"/>
        <path d="M6.5 69H8v10H5.5l-5-5V63Z" style="fill:#6569c9;stroke:none"/>
        <path d="M5.5 79H8v1.5l7.5 7.5H17v2.5l5 5H.5V74Z" style="stroke:none"/>
        <path d="M1 .5h21l-5 5V8h-1.5L12 11.5Z" style="fill:#989aa4;stroke:none"/>
        <path d="M5 58.5v-21l3-3 3 3v21l-3 3Z" style="fill:#6e7080;stroke:none"/>
        <path d="M8 17v-1h.5l3.5-3.5 6.5 6.5-2.5 2.5v15l.5.5h3l1 1-.5.5v19l.5.5-1 1h-3l-.5.5v15l5.5 5.5h15l.5-.5v-3l1-1 .5.5h19l.5-.5 1 1v3l.5.5h15l2.5-2.5 6.5 6.5-3.5 3.5v.5h-1v-7.5l-.5-.5h-2L69 87.5v.5h-7.5l-3-3h-21l-3 3H27v-.5L19.5 80h-2l-.5.5V88h-1v-.5L8.5 80H8v-1h7.5l.5-.5v-2L8.5 69H8v-7.5l3-3v-21l-3-3V27h.5l7.5-7.5v-2l-.5-.5Z" style="fill:#989aa4;stroke:none"/>
        <path d="M8.5 27H8V17h7.5l.5.5v2ZM16 76.5v2l-.5.5H8V69h.5Z" style="fill:#d1efff;stroke:none"/>
        <path d="m9 81.5-1-1V80h.5l.5.5Z" style="fill:#6e7080;stroke:none"/>
        <path d="m11 83.5-3-3V80h.5l2.5 2.5Z" style="fill:#6e7080;stroke:none"/>
        <path d="m13 85.5-5-5V80h.5l4.5 4.5Z" style="fill:#6e7080;stroke:none"/>
        <path d="M12.5 12 16 8.5V8h1v7.5l.5.5h2L27 8.5V8h7.5l3 3h21l3-3H69v.5l7.5 7.5h2l.5-.5V8h1v.5l7.5 7.5h.5v1h-7.5l-.5.5v2l7.5 7.5h.5v7.5l-3 3v21l3 3V69h-.5L80 76.5v2l.5.5H88v1h-.5L84 83.5 77.5 77l2.5-2.5v-15l-.5-.5h-3L68 50.5v-5l8.5-8.5h3l.5-.5v-15L74.5 16h-15l-.5.5v3L50.5 28h-5L37 19.5v-3l-.5-.5h-15L19 18.5Z" style="stroke:none"/>
        <path d="m15 87.5-7-7V80h.5l6.5 6.5Z" style="fill:#6e7080;stroke:none"/>
        <path d="m16.5 37-.5-.5v-15l5.5-5.5h15l.5.5v3l8.5 8.5h5l8.5-8.5v-3l.5-.5h15l5.5 5.5v15l-.5.5h-3L68 45.5v5l8.5 8.5h3l.5.5v15L74.5 80h-15l-.5-.5v-3L50.5 68h-5L37 76.5v3l-.5.5h-15L16 74.5v-15l.5-.5h3l8.5-8.5v-5L19.5 37Z" style="fill:#2e2f34;stroke:none"/>
        <path d="M17 8V5.5l5-5h11l-6 6V8Z" style="fill:#d1efff;stroke:none"/>
        <path d="m17.5 16-.5-.5V8h10v.5L19.5 16Z" style="fill:#6569c9;stroke:none"/>
        <path d="M17 88v-7.5l.5-.5h2l7.5 7.5v.5Z" style="fill:#d1efff;stroke:none"/>
        <path d="M17 90.5V88h10v1.5l6 6H22Z" style="fill:#6569c9;stroke:none"/>
        <path d="M28 45.5v5L20.5 58l-.5-.5v-19l.5-.5Z" style="stroke:none"/>
        <path d="M22 28.5v2l6.5 6.5h2l6.5-6.5v-2L30.5 22h-2Zm0 37v2l6.5 6.5h2l6.5-6.5v-2L30.5 59h-2Z" style="fill:#2e2f34;stroke:none"/>
        <path d="M22 30.5v-2l6.5-6.5h2l6.5 6.5v2L30.5 37h-2Zm0 37v-2l6.5-6.5h2l6.5 6.5v2L30.5 74h-2Z" style="stroke:none"/>
        <path d="M27 8V6.5l6-6h30l6 6V8h-7.5l-3-3h-21l-3 3Z" style="fill:#989aa4;stroke:none"/>
        <path d="M27 89.5V88h7.5l3 3h21l3-3H69v1.5l-6 6H33Z" style="stroke:none"/>
        <path d="m34.5 8 3-3h21l3 3-3 3h-21Zm0 80 3-3h21l3 3-3 3h-21Z" style="fill:#6e7080;stroke:none"/>
        <path d="M39 46.5v3l7.5 7.5h3l7.5-7.5v-3L49.5 39h-3Z" style="fill:#2e2f34;stroke:none"/>
        <path d="m38.5 76-.5-.5 7.5-7.5h5l7.5 7.5-.5.5Zm.5-26.5v-3l7.5-7.5h3l7.5 7.5v3L49.5 57h-3Z" style="stroke:none"/>
        <path d="M59 28.5v2l6.5 6.5h2l6.5-6.5v-2L67.5 22h-2Zm0 37v2l6.5 6.5h2l6.5-6.5v-2L67.5 59h-2Z" style="fill:#2e2f34;stroke:none"/>
        <path d="M59 30.5v-2l6.5-6.5h2l6.5 6.5v2L67.5 37h-2Zm0 37v-2l6.5-6.5h2l6.5 6.5v2L67.5 74h-2Z" style="stroke:none"/>
        <path d="M63 .5h11l5 5V8H69V6.5Z" style="fill:#d1efff;stroke:none"/>
        <path d="M69 8.5V8h10v7.5l-.5.5h-2Z" style="fill:#6569c9;stroke:none"/>
        <path d="M69 88v-.5l7.5-7.5h2l.5.5V88Z" style="fill:#d1efff;stroke:none"/>
        <path d="M74 95.5H63l6-6V88h10v2.5Z" style="fill:#6569c9;stroke:none"/>
        <path d="M74 .5h21.5V22l-5-5H88v-1.5L80.5 8H79V5.5Z" style="fill:#989aa4;stroke:none"/>
        <path d="m78 78.5-1-1 .5-.5.5.5Z" style="fill:#6e7080;stroke:none"/>
        <path d="m80 80.5-3-3 .5-.5 2.5 2.5Zm1-71-1-1V8h.5l.5.5Z" style="fill:#6e7080;stroke:none"/>
        <path d="M80 19.5v-2l.5-.5H88v10h-.5Zm.5 59.5-.5-.5v-2l7.5-7.5h.5v10Z" style="fill:#6569c9;stroke:none"/>
        <path d="M80.5 88H80v-.5l3.5-3.5-6.5-6.5.5-.5 6.5 6.5 3.5-3.5h.5v.5L84.5 84l11 11v.5H95l-11-11ZM83 11.5l-3-3V8h.5l2.5 2.5Z" style="fill:#6e7080;stroke:none"/>
        <path d="m85 13.5-5-5V8h.5l4.5 4.5Z" style="fill:#6e7080;stroke:none"/>
        <path d="M95 95.5H74l5-5V88h1.5l3.5-3.5Z" style="stroke:none"/>
        <path d="M85 58.5v-21l3-3 3 3v21l-3 3Z" style="fill:#6e7080;stroke:none"/>
        <path d="m84.5 84 3.5-3.5V79h2.5l5-5v21Z" style="fill:#989aa4;stroke:none"/>
        <path d="m87 15.5-7-7V8h.5l6.5 6.5Z" style="fill:#6e7080;stroke:none"/>
        <path d="M88 27V17h2.5l5 5v11l-6-6Z" style="fill:#d1efff;stroke:none"/>
        <path d="M88 34.5V27h1.5l6 6v30l-6 6H88v-7.5l3-3v-21Z" style="fill:#989aa4;stroke:none"/>
        <path d="M88 79V69h1.5l6-6v11l-5 5Z" style="fill:#d1efff;stroke:none"/>
    </g>
</svg>
