<svg xmlns="http://www.w3.org/2000/svg" width="96" height="96" style="fill-opacity:1;color-rendering:auto;color-interpolation:auto;text-rendering:auto;stroke:#000;stroke-linecap:square;stroke-miterlimit:10;shape-rendering:auto;stroke-opacity:1;fill:#000;stroke-dasharray:none;font-weight:400;stroke-width:1;font-family:&quot;Dialog&quot;;font-style:normal;stroke-linejoin:miter;font-size:12px;stroke-dashoffset:0;image-rendering:auto">
    <g style="stroke-linecap:round;fill:#6e7080;stroke:#6e7080">
        <path stroke="none" d="M.5 1V.5H1l11 11L15.5 8h1l-4 4 5.5 5.5-.5.5-5.5-5.5L8.5 16H8v-.5l3.5-3.5Z" style="stroke:none"/>
    </g>
    <g stroke="none" style="stroke-linecap:round;fill:#4a4b53;stroke:#4a4b53">
        <path d="M11.5 12 8 15.5v11l-4 4v7L.5 41V1Z" style="stroke:none"/>
        <path d="M.5 55V41L4 37.5 7.5 41H8v14h-.5L4 58.5Z" style="fill:#6569c9;stroke:none"/>
        <path d="M4 58.5v7l4 4v11l7.5 7.5h11l4 4h7l3.5 3.5H.5V55Z" style="stroke:none"/>
        <path d="M1 .5h40L37.5 4h-7l-4 4h-11L12 11.5Z" style="fill:#989aa4;stroke:none"/>
        <path d="M4 37.5v-7l4-4 4 4v7L8.5 41h-1Zm0 28v-7L7.5 55h1l3.5 3.5v7l-4 4Z" style="fill:#6e7080;stroke:none"/>
        <path d="M8 26.5V16h.5l3.5-3.5 5.5 5.5-2.5 2.5v6l4 4v7l-4 4v3L11.5 41h-3l3.5-3.5v-7Z" style="fill:#989aa4;stroke:none"/>
        <path d="M8 55V41h3.5l3.5 3.5v7L11.5 55Z" style="fill:#d1efff;stroke:none"/>
        <path d="M8 79.5v-10l4-4v-7L8.5 55h3l3.5-3.5v3l4 4v7l-4 4v6l5.5 5.5h6l4-4h7l4 4h3L41 84.5v3L37.5 84h-7l-4 4H16v-.5Z" style="fill:#989aa4;stroke:none"/>
        <path d="m9 81.5-1-1v-1l1 1Z" style="fill:#6e7080;stroke:none"/>
        <path d="m11 83.5-3-3v-1l3 3Z" style="fill:#6e7080;stroke:none"/>
        <path d="m13 85.5-5-5v-1l5 5Z" style="fill:#6e7080;stroke:none"/>
        <path d="m12.5 12 4-4h10l4 4h7L41 8.5v3l3.5 3.5h-3l-4 4h-7l-4-4h-6L18 17.5Z" style="stroke:none"/>
        <path d="m15 87.5-7-7v-1l7 7Z" style="fill:#6e7080;stroke:none"/>
        <path d="M15 26.5v-6l5.5-5.5h6l4 4h7l4-4h13l4 4h7l4-4h6l5.5 5.5v6l-4 4v7l4 4v13l-4 4v7l4 4v6L75.5 81h-6l-4-4h-7l-4 4h-13l-4-4h-7l-4 4h-6L15 75.5v-6l4-4v-7l-4-4v-13l4-4v-7Z" style="fill:#2e2f34;stroke:none"/>
        <path d="m26.5 8 4-4h7L41 7.5v1L37.5 12h-7Zm0 80 4-4h7l3.5 3.5v1L37.5 92h-7Z" style="fill:#6e7080;stroke:none"/>
        <path d="M37.5 4 41 .5h14L58.5 4 55 7.5V8H41v-.5Z" style="fill:#d1efff;stroke:none"/>
        <path d="M39 46.5v3l7.5 7.5h3l7.5-7.5v-3L49.5 39h-3Z" style="fill:#2e2f34;stroke:none"/>
        <path d="m37.5 92 3.5-3.5V88h14v.5l3.5 3.5-3.5 3.5H41Z" style="fill:#6569c9;stroke:none"/>
        <path d="M39 49.5v-3l7.5-7.5h3l7.5 7.5v3L49.5 57h-3Z" style="stroke:none"/>
        <path d="M41 11.5V8h14v3.5L51.5 15h-7Z" style="fill:#6569c9;stroke:none"/>
        <path d="M41 88v-3.5l3.5-3.5h7l3.5 3.5V88Z" style="fill:#d1efff;stroke:none"/>
        <path d="m51.5 15 3.5-3.5v-3l3.5 3.5h7l4-4H80v.5l8 8v10l-4 4v7l3.5 3.5h-3L81 44.5v-3l-4-4v-7l4-4v-6L75.5 15h-6l-4 4h-7l-4-4Z" style="stroke:none"/>
        <path d="M51.5 81h3l4-4h7l4 4h6l2.5-2.5 5.5 5.5-4 4h-10l-4-4h-7L55 87.5v-3ZM55 .5h40.5V41L92 37.5v-7l-4-4v-11L80.5 8h-11l-4-4h-7Z" style="fill:#989aa4;stroke:none"/>
        <path d="M55 8.5v-1L58.5 4h7l4 4-4 4h-7Zm0 80v-1l3.5-3.5h7l4 4-4 4h-7Z" style="fill:#6e7080;stroke:none"/>
        <path d="M77 65.5v-7l4-4v-3l3.5 3.5h3L84 58.5v7l4 4V80h-.5L84 83.5 78.5 78l2.5-2.5v-6Z" style="stroke:none"/>
        <path d="m79 79.5-1-1 .5-.5.5.5Zm2-70-1-1V8h.5l.5.5Z" style="fill:#6e7080;stroke:none"/>
        <path d="m81 81.5-3-3 .5-.5 2.5 2.5Z" style="fill:#6e7080;stroke:none"/>
        <path d="M80.5 88h-1l4-4-5.5-5.5.5-.5 5.5 5.5 3.5-3.5h.5v.5L84.5 84l11 11v.5H95l-11-11Z" style="fill:#6e7080;stroke:none"/>
        <path d="M81 51.5v-7l3.5-3.5H88v14h-3.5Z" style="fill:#6569c9;stroke:none"/>
        <path d="m83 11.5-3-3V8h.5l2.5 2.5Z" style="fill:#6e7080;stroke:none"/>
        <path d="m85 13.5-5-5V8h.5l4.5 4.5Zm-1 24v-7l4-4 4 4v7L88.5 41h-1Zm0 28v-7l3.5-3.5h1l3.5 3.5v7l-4 4Z" style="fill:#6e7080;stroke:none"/>
        <path d="M95 95.5H55l3.5-3.5h7l4-4h11l3.5-3.5Z" style="stroke:none"/>
        <path d="m84.5 84 3.5-3.5v-11l4-4v-7l3.5-3.5v40Z" style="fill:#989aa4;stroke:none"/>
        <path d="m87 15.5-7-7V8h.5l6.5 6.5Z" style="fill:#6e7080;stroke:none"/>
        <path d="M88.5 55H88V41h.5l3.5-3.5 3.5 3.5v14L92 58.5Z" style="fill:#d1efff;stroke:none"/>
    </g>
</svg>
