<svg xmlns="http://www.w3.org/2000/svg" width="32" height="32" style="fill-opacity:1;color-rendering:auto;color-interpolation:auto;text-rendering:auto;stroke:#000;stroke-linecap:square;stroke-miterlimit:10;shape-rendering:auto;stroke-opacity:1;fill:#000;stroke-dasharray:none;font-weight:400;stroke-width:1;font-family:&quot;Dialog&quot;;font-style:normal;stroke-linejoin:miter;font-size:12px;stroke-dashoffset:0;image-rendering:auto">
    <g style="stroke-linecap:round;fill:#989aa4;stroke:#989aa4">
        <path stroke="none" d="M.5 1V.5H1l5 5-.5.5Z" style="stroke:none"/>
    </g>
    <g stroke="none" style="stroke-linecap:round;fill:#6e7080;stroke:#6e7080">
        <path d="M5.5 6 4 7.5v17L7.5 28h17l1.5-1.5 5 5H.5V1Z" style="stroke:none"/>
        <path d="M1 .5h30.5V31l-5-5 1.5-1.5v-17L24.5 4h-17L6 5.5Z" style="fill:#b0bac0;stroke:none"/>
        <path d="M4 24.5v-17L5.5 6l4 4L8 11.5v9l3.5 3.5h9l1.5-1.5 4 4-1.5 1.5h-17Z" style="fill:#62ae7f;stroke:none"/>
        <path d="m5.5 6 2-2h17L28 7.5v17l-2 2-4-4 2-2v-9L20.5 8h-9l-2 2Z" style="fill:#84f491;stroke:none"/>
        <path d="M8 20.5v-9L11.5 8h9l3.5 3.5v9L20.5 24h-9Z" style="fill:#989aa4;stroke:none"/>
        <path d="M12 14.5v3l2.5 2.5h3l2.5-2.5v-3L17.5 12h-3Z" style="fill:#989aa4;stroke:none"/>
        <path d="M12 17.5v-3l2.5-2.5h3l2.5 2.5v3L17.5 20h-3Z" style="fill:#b0bac0;stroke:none"/>
        <path d="m27 27.5-1-1 .5-.5.5.5Z" style="fill:#989aa4;stroke:none"/>
        <path d="m29 29.5-3-3 .5-.5 2.5 2.5Z" style="fill:#989aa4;stroke:none"/>
        <path d="m31 31.5-5-5 .5-.5 4.5 4.5Z" style="fill:#989aa4;stroke:none"/>
    </g>
</svg>
