<svg xmlns="http://www.w3.org/2000/svg" width="64" height="64" style="fill-opacity:1;color-rendering:auto;color-interpolation:auto;text-rendering:auto;stroke:#000;stroke-linecap:square;stroke-miterlimit:10;shape-rendering:auto;stroke-opacity:1;fill:#000;stroke-dasharray:none;font-weight:400;stroke-width:1;font-family:&quot;Dialog&quot;;font-style:normal;stroke-linejoin:miter;font-size:12px;stroke-dashoffset:0;image-rendering:auto">
    <g style="stroke-linecap:round;fill:#6e7080;stroke:#6e7080">
        <path stroke="none" d="m5.5 55-.5-.5v-8L15.5 36h.5v19.5L11.5 60h-2l-.5-.5v-7l-.5-.5Z" style="stroke:none"/>
    </g>
    <g stroke="none" style="stroke-linecap:round;fill:#6e7080;stroke:#6e7080">
        <path d="M9 29.5v-6l4.5-4.5H16v4.5l-.5.5h-1Z" style="stroke:none"/>
        <path d="M9 33.5v-4l5.5-5.5h1l.5-.5v-8l4-4V28h-1.5L16 30.5v-2l-1-1Z" style="fill:#b0bac0;stroke:none"/>
        <path d="M9 36.5v-3l6-6 1 1V31h-1.5Z" style="stroke:none"/>
        <path d="m9.5 42-.5-.5v-5l5.5-5.5H16v5h-.5Z" style="fill:#62ae7f;stroke:none"/>
        <path d="M16 36v-5.5l2.5-2.5H20v8Z" style="fill:#84f491;stroke:none"/>
        <path d="M16 50.5V36h4v11h-.5Z" style="fill:#b0bac0;stroke:none"/>
        <path d="m20.5 19 7.5 7.5v6L23.5 28H20V7.5L23.5 4h3l.5.5v8Z" style="stroke:none"/>
        <path d="M20 36v-8h3.5l4.5 4.5V39h-1.5l-3-3Z" style="fill:#62ae7f;stroke:none"/>
        <path d="M20.5 48H20V36h3.5l3 3H28v1.5Z" style="stroke:none"/>
        <path d="M20 51.5V48h.5l7.5-7.5v9l-5 5Zm.5-32.5 6.5-6.5v7l1.5 1.5-.5.5v5Z" style="fill:#62ae7f;stroke:none"/>
        <path d="m23 54.5 4.5-4.5 4.5 4.5V57h-.5L28 53.5l-3 3Z" style="stroke:none"/>
        <path d="m25 56.5 3-3 3.5 3.5h.5v3h-3.5Z" style="fill:#62ae7f;stroke:none"/>
        <path d="M32 24.5V30h-.5L28 26.5v-5l.5-.5Z" style="fill:#84f491;stroke:none"/>
        <path d="M31.5 30h.5v6h-.5L28 32.5v-6Z" style="fill:#b0bac0;stroke:none"/>
        <path d="m31.5 36-3 3H28v-6.5Zm0 10L28 49.5v-7Z" style="fill:#84f491;stroke:none"/>
        <path d="m27.5 50 4-4h.5v7.5l.5.5 4-4 4.5 4.5-2 2-3-3-3.5 3.5H32v-2.5Z" style="fill:#b0bac0;stroke:none"/>
        <path d="M32.5 30H32v-5.5l3.5-3.5.5.5v5Z" style="fill:#62ae7f;stroke:none"/>
        <path d="M32.5 36H32v-6h.5l3.5-3.5v6Zm4 14-4 4-.5-.5V46h.5Z" style="fill:#989aa4;stroke:none"/>
        <path d="M32 60v-3h.5l3.5-3.5 3 3-3.5 3.5Z" style="fill:#84f491;stroke:none"/>
        <path d="m32.5 36 3.5-3.5V39h-.5Zm0 10 3.5-3.5v7Z" style="fill:#62ae7f;stroke:none"/>
        <path d="M36 26.5v-5l-.5-.5 1.5-1.5v-7l6.5 6.5Z" style="fill:#84f491;stroke:none"/>
        <path d="M36 32.5v-6l7.5-7.5-6.5-6.5v-8l.5-.5h3L44 7.5V28h-3.5Z" style="fill:#b0bac0;stroke:none"/>
        <path d="M36 39v-6.5l4.5-4.5H44v8h-3.5l-3 3Z" style="fill:#84f491;stroke:none"/>
        <path d="M36 40.5V39h1.5l3-3H44v12.5Z" style="fill:#b0bac0;stroke:none"/>
        <path d="M44 48.5v3l-3 3-5-5v-9Z" style="fill:#84f491;stroke:none"/>
        <path d="M48 15.5v8l.5.5h1l5.5 5.5v4l-6-6-1 1v2L45.5 28H44V11.5Z" style="fill:#989aa4;stroke:none"/>
        <path d="M44 36v-8h1.5l2.5 2.5V36Z" style="fill:#62ae7f;stroke:none"/>
        <path d="M44 46.5V36h4v14.5Z" style="fill:#989aa4;stroke:none"/>
        <path d="m48.5 24-.5-.5V19h2.5l4.5 4.5v6L49.5 24Zm-.5 7v-2.5l1-1 6 6v3L49.5 31Z" style="fill:#b0bac0;stroke:none"/>
        <path d="M48.5 36H48v-5h1.5l5.5 5.5v5l-.5.5Z" style="fill:#84f491;stroke:none"/>
        <path d="M59 46.5v8l-.5.5-3-3-.5.5v7l-.5.5h-2L48 55.5V36h.5Z" style="fill:#b0bac0;stroke:none"/>
    </g>
</svg>
