<svg xmlns="http://www.w3.org/2000/svg" width="32" height="32" style="fill-opacity:1;color-rendering:auto;color-interpolation:auto;text-rendering:auto;stroke:#000;stroke-linecap:square;stroke-miterlimit:10;shape-rendering:auto;stroke-opacity:1;fill:#000;stroke-dasharray:none;font-weight:400;stroke-width:1;font-family:&quot;Dialog&quot;;font-style:normal;stroke-linejoin:miter;font-size:12px;stroke-dashoffset:0;image-rendering:auto">
    <g style="stroke-linecap:round;fill:#6e7080;stroke:#6e7080">
        <path stroke="none" d="M8 12.5v-7l3-3 1 1v12l-.5.5Z" style="stroke:none"/>
    </g>
    <g stroke="none" style="stroke-linecap:round;fill:#62ae7f;stroke:#62ae7f">
        <path d="M15.5 20h.5v6h-.5L8 18.5v-6Z" style="stroke:none"/>
        <path d="M15.5 26h.5v3h-1.5L8 22.5v-4Z" style="fill:#6e7080;stroke:none"/>
        <path d="M12 9.5V8h4v5h-.5Z" style="stroke:none"/>
        <path d="M15.5 13h.5v7h-.5l-4-4 .5-.5v-6Z" style="fill:#b0bac0;stroke:none"/>
        <path d="M16.5 13H16V8h4v1.5Z" style="fill:#84f491;stroke:none"/>
        <path d="M16.5 20H16v-7h.5L20 9.5v6l.5.5Z" style="fill:#989aa4;stroke:none"/>
        <path d="M16.5 26H16v-6h.5l7.5-7.5v6Z" style="fill:#84f491;stroke:none"/>
        <path d="M16 29v-3h.5l7.5-7.5v4L17.5 29Zm4.5-13-.5-.5v-12l1-1 3 3v7Z" style="fill:#b0bac0;stroke:none"/>
    </g>
</svg>
