<svg xmlns="http://www.w3.org/2000/svg" width="64" height="64" style="fill-opacity:1;color-rendering:auto;color-interpolation:auto;text-rendering:auto;stroke:#000;stroke-linecap:square;stroke-miterlimit:10;shape-rendering:auto;stroke-opacity:1;fill:#000;stroke-dasharray:none;font-weight:400;stroke-width:1;font-family:&quot;Dialog&quot;;font-style:normal;stroke-linejoin:miter;font-size:12px;stroke-dashoffset:0;image-rendering:auto">
    <g style="stroke-linecap:round;fill:#4a4b53;stroke:#4a4b53">
        <path stroke="none" d="M.5 14V9l4-4L8 8.5l-4 4v5Z" style="stroke:none"/>
    </g>
    <g stroke="none" style="stroke-linecap:round;fill:#d4816b;stroke:#d4816b">
        <path d="M4 17.5v10L.5 24V14Z" style="stroke:none"/>
        <path d="M4 27.5v9L.5 40V24Z" style="fill:#4a4b53;stroke:none"/>
        <path d="M.5 50V40L4 36.5v10Z" style="stroke:none"/>
        <path d="M.5 55v-5L4 46.5v5l8.5 8.5h5L14 63.5H9Z" style="fill:#4a4b53;stroke:none"/>
        <path d="M4 17.5v-5l4-4L4.5 5l.5-.5L8.5 8l4-4h5L20 6.5 13.5 13l13 13 2-2h7l4.5 4.5v7l-2 2 13 13 6.5-6.5 2.5 2.5v5l-4 4 3.5 3.5-.5.5-3.5-3.5-4 4h-5L44 57.5l6.5-6.5-13-13-2 2h-7L24 35.5v-7l2-2-13-13L6.5 20Z" style="fill:#6e7080;stroke:none"/>
        <path d="M7 20.5v10l-3-3v-10Z" style="fill:#eab678;stroke:none"/>
        <path d="M7 30.5v3l-3 3v-9Z" style="fill:#6e7080;stroke:none"/>
        <path d="M4 46.5v-10l3-3v10Z" style="fill:#eab678;stroke:none"/>
        <path d="M4 51.5v-5L6.5 44 20 57.5 17.5 60h-5Z" style="fill:#6e7080;stroke:none"/>
        <path d="m5 4.5 4-4h5L17.5 4h-5l-4 4ZM6.5 44l.5-.5v-23l-.5-.5 6.5-6.5 3.5 3.5-4.5 4.5v21l9.5 9.5h21l4.5-4.5 3.5 3.5-6.5 6.5-.5-.5h-23l-.5.5Z" style="fill:#989aa4;stroke:none"/>
        <path d="M12 23.5v-2l4.5-4.5 5 5-3.5 3.5v4Z" style="fill:#4a4b53;stroke:none"/>
        <path d="M18 29.5v5l-6 6v-17Z" style="stroke:none"/>
        <path d="M12 42.5v-2l6-6v4l7.5 7.5h4l-6 6h-2Z" style="fill:#4a4b53;stroke:none"/>
        <path d="M14 .5h10L27.5 4h-10Z" style="fill:#ffd37f;stroke:none"/>
        <path d="M13.5 13 20 6.5l.5.5h23l.5-.5L57.5 20l-.5.5v23l.5.5-6.5 6.5-3.5-3.5 4.5-4.5v-21L42.5 12h-21L17 16.5Z" style="fill:#4a4b53;stroke:none"/>
        <path d="m17 16.5 4.5-4.5h2l6 6h-4L22 21.5Z" style="fill:#989aa4;stroke:none"/>
        <path d="M17.5 4h10l3 3h-10Z" style="fill:#eab678;stroke:none"/>
        <path d="M18 38.5v-13l3.5-3.5 4.5 4.5-2 2v7l4.5 4.5h7l2-2 4.5 4.5-3.5 3.5h-13Z" style="fill:#989aa4;stroke:none"/>
        <path d="m17.5 60 3-3h10l-3 3Z" style="fill:#eab678;stroke:none"/>
        <path d="m22 21.5 3.5-3.5h13l7.5 7.5v13L42.5 42 38 37.5l2-2v-7L35.5 24h-7l-2 2Z" style="fill:#4a4b53;stroke:none"/>
        <path d="M24 63.5H14l3.5-3.5h10Z" style="stroke:none"/>
        <path d="M24 .5h16L36.5 4h-9Z" style="fill:#989aa4;stroke:none"/>
        <path d="M23.5 12h17l-6 6h-5Z" style="fill:#ffd37f;stroke:none"/>
        <path d="m23.5 52 6-6h5l6 6Z" style="stroke:none"/>
        <path d="M27.5 4h9l-3 3h-3Zm0 56 3-3h3l3 3Z" style="fill:#6e7080;stroke:none"/>
        <path d="m33.5 7 3-3h10l-3 3Zm0 50h10l3 3h-10Z" style="fill:#eab678;stroke:none"/>
        <path d="m34.5 18 6-6h2l9.5 9.5v2l-6 6v-4L38.5 18Z" style="fill:#989aa4;stroke:none"/>
        <path d="M34.5 46h4l3.5-3.5 5 5-4.5 4.5h-2ZM40 63.5H24l3.5-3.5h9Z" style="fill:#4a4b53;stroke:none"/>
        <path d="M36.5 4 40 .5h10L46.5 4Z" style="fill:#ffd37f;stroke:none"/>
        <path d="M36.5 60h10l3.5 3.5H40Z" style="stroke:none"/>
        <path d="m42.5 42 3.5-3.5v-4l6 6v2L47.5 47Z" style="fill:#989aa4;stroke:none"/>
        <path d="M44 6.5 46.5 4h5l8.5 8.5v5L57.5 20Z" style="fill:#6e7080;stroke:none"/>
        <path d="M46 34.5v-5l6-6v17Z" style="fill:#ffd37f;stroke:none"/>
        <path d="M46.5 4 50 .5h5L63.5 9v5L60 17.5v-5L51.5 4Z" style="fill:#989aa4;stroke:none"/>
        <path d="M46.5 60h5l4-4 3.5 3.5-4 4h-5Z" style="fill:#4a4b53;stroke:none"/>
        <path d="m56 55.5 4-4v-5l3.5 3.5v5l-4 4Z" style="fill:#989aa4;stroke:none"/>
        <path d="M57 30.5v-10l3-3v10Z" style="fill:#eab678;stroke:none"/>
        <path d="M57 33.5v-3l3-3v9Z" style="fill:#6e7080;stroke:none"/>
        <path d="M60 36.5v10l-3-3v-10Z" style="fill:#eab678;stroke:none"/>
        <path d="M60 27.5v-10l3.5-3.5v10Z" style="fill:#ffd37f;stroke:none"/>
        <path d="M60 36.5v-9l3.5-3.5v16Z" style="fill:#989aa4;stroke:none"/>
        <path d="M63.5 40v10L60 46.5v-10Z" style="fill:#ffd37f;stroke:none"/>
    </g>
</svg>
