<svg xmlns="http://www.w3.org/2000/svg" width="32" height="32" style="fill-opacity:1;color-rendering:auto;color-interpolation:auto;text-rendering:auto;stroke:#000;stroke-linecap:square;stroke-miterlimit:10;shape-rendering:auto;stroke-opacity:1;fill:#000;stroke-dasharray:none;font-weight:400;stroke-width:1;font-family:&quot;Dialog&quot;;font-style:normal;stroke-linejoin:miter;font-size:12px;stroke-dashoffset:0;image-rendering:auto">
    <g style="stroke-linecap:round;fill:#989aa4;stroke:#989aa4">
        <path stroke="none" d="m5 4.5-1 1v2l4 4v9l-4 4v2L5.5 28h2l4-4h9l4 4h2l1-1 4 4v.5H20l-4-4-4 4H.5V20l4-4-4-4V.5H1Z" style="stroke:none"/>
    </g>
    <g stroke="none" style="stroke-linecap:round;fill:#b0bac0;stroke:#b0bac0">
        <path d="m4.5 16-4 4v-8ZM1 .5h11l4 4 4-4h11.5V12l-4 4 4 4v11l-4-4 .5-.5v-2l-4-4v-9l4-4v-2L26.5 4h-2l-4 4h-9l-4-4h-2l-.5.5Z" style="stroke:none"/>
        <path d="M4 7.5v-2L5.5 4h2l4 4h9l4-4h2L28 5.5v2l-4 4v9l4 4v2L26.5 28h-2l-4-4h-9l-4 4h-2L4 26.5v-2l4-4v-9Z" style="fill:#6e7080;stroke:none"/>
        <path d="m11.5 14 6.5 6.5 2-2v-3L16.5 12h-3Z" style="fill:#6e7080;stroke:none"/>
        <path d="M12 .5h8l-4 4Z" style="fill:#989aa4;stroke:none"/>
        <path d="m11.5 14 2-2h3l3.5 3.5v3l-2 2Z" style="fill:#fff;stroke:none"/>
        <path d="M20 31.5h-8l4-4Z" style="stroke:none"/>
        <path d="m27.5 16 4-4v8Z" style="fill:#989aa4;stroke:none"/>
    </g>
</svg>
