<svg xmlns="http://www.w3.org/2000/svg" width="32" height="32" style="fill-opacity:1;color-rendering:auto;color-interpolation:auto;text-rendering:auto;stroke:#000;stroke-linecap:square;stroke-miterlimit:10;shape-rendering:auto;stroke-opacity:1;fill:#000;stroke-dasharray:none;font-weight:400;stroke-width:1;font-family:&quot;Dialog&quot;;font-style:normal;stroke-linejoin:miter;font-size:12px;stroke-dashoffset:0;image-rendering:auto">
    <g style="stroke-linecap:round;fill:#989aa4;stroke:#989aa4">
        <path stroke="none" d="M.5 1V.5H1L9.5 9l-.5.5Z" style="stroke:none"/>
    </g>
    <g stroke="none" style="stroke-linecap:round;fill:#6e7080;stroke:#6e7080">
        <path d="m6 6.5-2 2v16L7.5 28h16l2-2 5.5 5.5H.5V1Z" style="stroke:none"/>
        <path d="M1 .5h30.5V31L26 25.5l2-2v-16L24.5 4h-16l-2 2Zm3 23v-15l2-2 3 3-1 1v11l2.5 2.5h11l1-1 3 3-2 2H8v-.5Z" style="fill:#b0bac0;stroke:none"/>
        <path d="m5 25.5-1-1v-1l1 1Z" style="fill:#989aa4;stroke:none"/>
        <path d="m7 27.5-3-3v-1l3 3Z" style="fill:#989aa4;stroke:none"/>
        <path d="m6.5 6 2-2H24v.5l4 4v15l-2 2-3-3 1-1v-11L21.5 8h-11l-1 1Z" style="stroke:none"/>
        <path d="M12 14.5v-1l1.5-1.5h3l3.5 3.5v3L18.5 20h-1Z" style="fill:#fff;stroke:none"/>
        <path d="M24 24.5 22.5 23l.5-.5 1 1Zm1-19-1-1V4h.5l.5.5Z" style="fill:#989aa4;stroke:none"/>
        <path d="M26 26.5 22.5 23l.5-.5 3 3Zm1-19-3-3V4h.5L27 6.5Z" style="fill:#989aa4;stroke:none"/>
        <path d="M28 28.5 22.5 23l.5-.5 5 5Z" style="fill:#989aa4;stroke:none"/>
        <path d="M30 30.5 22.5 23l.5-.5 7 7Z" style="fill:#989aa4;stroke:none"/>
    </g>
</svg>
