<svg xmlns="http://www.w3.org/2000/svg" width="32" height="32" style="fill-opacity:1;color-rendering:auto;color-interpolation:auto;text-rendering:auto;stroke:#000;stroke-linecap:square;stroke-miterlimit:10;shape-rendering:auto;stroke-opacity:1;fill:#000;stroke-dasharray:none;font-weight:400;stroke-width:1;font-family:&quot;Dialog&quot;;font-style:normal;stroke-linejoin:miter;font-size:12px;stroke-dashoffset:0;image-rendering:auto">
    <g style="stroke-linecap:round;fill:#6e7080;stroke:#6e7080">
        <path stroke="none" d="M.5 4V.5H4Z" style="stroke:none"/>
    </g>
    <g stroke="none" style="stroke-linecap:round;fill:#b0bac0;stroke:#b0bac0">
        <path d="M.5 12V4L4 .5h8l4 4 4-4h8L31.5 4v8l-4 4 4 4v8L28 31.5h-8l-4-4-4 4H4L.5 28v-8l4-4Z" style="stroke:none"/>
        <path d="m4.5 16-4 4v-8ZM4 31.5H.5V28Z" style="fill:#6e7080;stroke:none"/>
        <path d="M3.5 7 8 11.5v9L3.5 25 7 28.5l4.5-4.5h9l4.5 4.5 3.5-3.5-4.5-4.5v-9L28.5 7 25 3.5 20.5 8h-9L7 3.5Z" style="stroke:none"/>
        <path d="M3.5 7 7 3.5 11.5 8h9L25 3.5 28.5 7 24 11.5v9l4.5 4.5-3.5 3.5-4.5-4.5 2-2-3.5-3.5 1-1v-3L17.5 12h-3l-1 1L10 9.5l-2 2Zm0 18L8 20.5l3.5 3.5L7 28.5Z" style="fill:#989aa4;stroke:none"/>
        <path d="M8 20.5v-9l2-2 3.5 3.5-1.5 1.5v3l2.5 2.5h3l1.5-1.5 3.5 3.5-2 2h-9Zm4-20h8l-4 4Z" style="fill:#6e7080;stroke:none"/>
        <path d="M12 17.5v-3l2.5-2.5h3l2.5 2.5v3L17.5 20h-3Z" style="stroke:none"/>
        <path d="M20 31.5h-8l4-4Zm8-31h3.5V4ZM27.5 16l4-4v8Z" style="fill:#6e7080;stroke:none"/>
    </g>
</svg>
