<svg xmlns="http://www.w3.org/2000/svg" width="32" height="32" style="fill-opacity:1;color-rendering:auto;color-interpolation:auto;text-rendering:auto;stroke:#000;stroke-linecap:square;stroke-miterlimit:10;shape-rendering:auto;stroke-opacity:1;fill:#000;stroke-dasharray:none;font-weight:400;stroke-width:1;font-family:&quot;Dialog&quot;;font-style:normal;stroke-linejoin:miter;font-size:12px;stroke-dashoffset:0;image-rendering:auto">
    <g style="stroke-linecap:round;fill:#989aa4;stroke:#989aa4">
        <path stroke="none" d="M.5 8V.5H8V4h-.5L6 5.5 9.5 9 8 10.5v11l2.5 2.5h11l1.5-1.5 3.5 3.5 1.5-1.5V24h3.5v7.5H24v-3l-.5-.5h-15l-.5.5v3H.5V24h3l.5-.5v-15L3.5 8Z" style="stroke:none"/>
    </g>
    <g stroke="none" style="stroke-linecap:round;fill:#6e7080;stroke:#6e7080">
        <path d="M.5 24V8h3l.5.5v15l-.5.5Z" style="stroke:none"/>
        <path d="M6 5.5 7.5 4h17L28 7.5v17L26.5 26 23 22.5l1-1v-11L21.5 8h-11l-1 1Z" style="fill:#b0bac0;stroke:none"/>
        <path d="M8 4V.5h16V4Zm0 17.5v-11L10.5 8h11l2.5 2.5v11L21.5 24h-11Z" style="stroke:none"/>
        <path d="M12 14.5v3l2.5 2.5h3l2.5-2.5v-3L17.5 12h-3Z" style="stroke:none"/>
        <path d="M12 17.5v-3l2.5-2.5h3l2.5 2.5v3L17.5 20h-3Z" style="fill:#989aa4;stroke:none"/>
        <path d="M24 31.5H8v-3l.5-.5h15l.5.5Z" style="stroke:none"/>
        <path d="M24.5 4H24V.5h7.5V8H28v-.5Z" style="fill:#989aa4;stroke:none"/>
        <path d="M28 24V8h3.5v16Z" style="stroke:none"/>
    </g>
</svg>
