<svg xmlns="http://www.w3.org/2000/svg" width="32" height="32" style="fill-opacity:1;color-rendering:auto;color-interpolation:auto;text-rendering:auto;stroke:#000;stroke-linecap:square;stroke-miterlimit:10;shape-rendering:auto;stroke-opacity:1;fill:#000;stroke-dasharray:none;font-weight:400;stroke-width:1;font-family:&quot;Dialog&quot;;font-style:normal;stroke-linejoin:miter;font-size:12px;stroke-dashoffset:0;image-rendering:auto">
    <g style="stroke-linecap:round;fill:#4a4b53;stroke:#4a4b53">
        <path stroke="none" d="M.5 10V4L2 2.5 5.5 6 4 7.5V8H2.5Z" style="stroke:none"/>
    </g>
    <g stroke="none" style="stroke-linecap:round;fill:#3a5651;stroke:#3a5651">
        <path d="M.5 22V10l2-2H4v16H2.5Z" style="stroke:none"/>
        <path d="M2.5 24H4v.5l4 4-.5.5 2.5 2.5H4L.5 28v-6Z" style="fill:#4a4b53;stroke:none"/>
        <path d="m3 3.5-1-1 .5-.5.5.5Z" style="fill:#6e7080;stroke:none"/>
        <path d="M2.5 2 4 .5h6l-2 2V4h-.5L6 5.5Z" style="fill:#989aa4;stroke:none"/>
        <path d="m5 5.5-3-3 .5-.5L5 4.5Z" style="fill:#6e7080;stroke:none"/>
        <path d="M4.5 8H4v-.5L5.5 6 2 2.5l.5-.5L6 5.5 7.5 4H8v.5L6.5 6l2 2H10v.5L8.5 10H8V8.5l-2-2Z" style="fill:#6e7080;stroke:none"/>
        <path d="m5 24.5-.5-.5H4V8h.5l.5-.5L7.5 10H8v11.5Z" style="fill:#92dd7e;stroke:none"/>
        <path d="m5 25.5-1-1V24h.5l.5.5Z" style="fill:#6e7080;stroke:none"/>
        <path d="m5 7.5 1-1 2 2V10h-.5Zm0 17 3-3 2.5 2.5-3 3Z" style="fill:#989aa4;stroke:none"/>
        <path d="m7 27.5-3-3V24h.5L7 26.5Z" style="fill:#6e7080;stroke:none"/>
        <path d="M10 7.5V8H8.5l-2-2 1-1Z" style="fill:#4a4b53;stroke:none"/>
        <path d="M8 4V2.5l2-2h12l2 2V4Z" style="fill:#92dd7e;stroke:none"/>
        <path d="m7.5 5 .5-.5V4h16v.5l.5.5-3 3H10v-.5Z" style="stroke:none"/>
        <path d="m8.5 28-1-1 3-3h11l3 3-1 1Z" style="fill:#92dd7e;stroke:none"/>
        <path d="m7.5 29 1-1h15l1 1-2.5 2.5H10Z" style="stroke:none"/>
        <path d="M22 .5h6L31.5 4v6L29 7.5l-.5.5-4-4H24V2.5Z" style="fill:#989aa4;stroke:none"/>
        <path d="m21.5 8 3-3L27 7.5l-3 3Z" style="fill:#4a4b53;stroke:none"/>
        <path d="m25.5 26-1 1-3-3 1-1Z" style="fill:#989aa4;stroke:none"/>
        <path d="m23 22.5 1-1 3 3-1 1Z" style="fill:#4a4b53;stroke:none"/>
        <path d="M24 24.5 22.5 23l.5-.5 1 1Zm1-19-1-1V4h.5l.5.5Z" style="fill:#6e7080;stroke:none"/>
        <path d="M24 21.5v-11l3-3 1 1v15l-1 1Z" style="stroke:none"/>
        <path d="m24 28.5-.5-.5 2-2-3-3 .5-.5 3 3 2-2 .5.5-2 2 3.5 3.5-.5.5-3.5-3.5Zm3-21-3-3V4h.5L27 6.5Z" style="fill:#6e7080;stroke:none"/>
        <path d="M29.5 30 28 31.5h-6l2.5-2.5-.5-.5 2-2Z" style="fill:#4a4b53;stroke:none"/>
        <path d="m26.5 26 2-2 .5.5 2.5-2.5v6L30 29.5Z" style="fill:#989aa4;stroke:none"/>
        <path d="m29 24.5-1-1v-15l1-1 2.5 2.5v12Z" style="fill:#92dd7e;stroke:none"/>
    </g>
</svg>
