<svg xmlns="http://www.w3.org/2000/svg" width="32" height="32" style="fill-opacity:1;color-rendering:auto;color-interpolation:auto;text-rendering:auto;stroke:#000;stroke-linecap:square;stroke-miterlimit:10;shape-rendering:auto;stroke-opacity:1;fill:#000;stroke-dasharray:none;font-weight:400;stroke-width:1;font-family:&quot;Dialog&quot;;font-style:normal;stroke-linejoin:miter;font-size:12px;stroke-dashoffset:0;image-rendering:auto">
    <g style="stroke-linecap:round;fill:#4a4b53;stroke:#4a4b53">
        <path stroke="none" d="M.5 9V3l1-1 4 4L4 7.5V12h-.5Z" style="stroke:none"/>
    </g>
    <g stroke="none" style="stroke-linecap:round;fill:#3a5651;stroke:#3a5651">
        <path d="M3.5 12H4v8h-.5l-3 3V9Z" style="stroke:none"/>
        <path d="M.5 29v-6l3-3H4v4.5L7.5 28H12v.5l-3 3H3Z" style="fill:#4a4b53;stroke:none"/>
        <path d="m2 1.5 1-1h6l3 3V4H7.5L6 5.5Z" style="fill:#989aa4;stroke:none"/>
        <path d="M3 3.5 1.5 2l.5-.5 1 1Z" style="fill:#6e7080;stroke:none"/>
        <path d="M5 5.5 1.5 2l.5-.5 3 3Z" style="fill:#6e7080;stroke:none"/>
        <path d="M4.5 8H4v-.5L5.5 6l-4-4 .5-.5 4 4L7.5 4h1l-2 2 3 3-.5.5-3-3Z" style="fill:#6e7080;stroke:none"/>
        <path d="M4 12V8h.5L6 6.5l3 3-1 1V12Z" style="fill:#989aa4;stroke:none"/>
        <path d="M4 20v-8h4v8Z" style="fill:#92dd7e;stroke:none"/>
        <path d="M4 23.5V20h4v1.5l2.5 2.5H12v4H8v-.5Z" style="fill:#989aa4;stroke:none"/>
        <path d="m5 25.5-1-1v-1l1 1Z" style="fill:#6e7080;stroke:none"/>
        <path d="m7 27.5-3-3v-1l3 3Z" style="fill:#6e7080;stroke:none"/>
        <path d="m6.5 6 2-2H12v4h-1.5l-1 1Z" style="fill:#4a4b53;stroke:none"/>
        <path d="M9 .5h14l-3 3V4h-8v-.5Z" style="fill:#92dd7e;stroke:none"/>
        <path d="M12 8V4h8v4Z" style="stroke:none"/>
        <path d="m11.5 12 2-2h5l3.5 3.5v5l-2 2-2-2v-2L15.5 14h-2Z" style="fill:#fff;stroke:none"/>
        <path d="M12 28v-4h8v4Z" style="fill:#92dd7e;stroke:none"/>
        <path d="M23 31.5H9l3-3V28h8v.5Z" style="stroke:none"/>
        <path d="M20 4v-.5l3-3h6L31.5 3v6l-3 3H28V7.5L24.5 4Z" style="fill:#989aa4;stroke:none"/>
        <path d="M20 8V4h4v.5l4 4V12h-4v-1.5L21.5 8Z" style="fill:#4a4b53;stroke:none"/>
        <path d="M20 28v-4h1.5l1-1 3 3-2 2Z" style="fill:#989aa4;stroke:none"/>
        <path d="M20 28.5V28h4.5l1.5-1.5 4 4-1 1h-6Zm3-6 1-1V20h4v4h-.5L26 25.5Z" style="fill:#4a4b53;stroke:none"/>
        <path d="M24 24.5 22.5 23l.5-.5 1 1Zm1-19-1-1V4h.5l.5.5Z" style="fill:#6e7080;stroke:none"/>
        <path d="M24 20v-8h4v8Z" style="stroke:none"/>
        <path d="M24.5 28h-1l2-2-3-3 .5-.5 3 3 1.5-1.5h.5v.5L26.5 26l4 4-.5.5-4-4ZM27 7.5l-3-3V4h.5L27 6.5Z" style="fill:#6e7080;stroke:none"/>
        <path d="m26.5 26 1.5-1.5V20h.5l3 3v6l-1 1Z" style="fill:#989aa4;stroke:none"/>
        <path d="M28.5 20H28v-8h.5l3-3v14Z" style="fill:#92dd7e;stroke:none"/>
    </g>
</svg>
