<svg xmlns="http://www.w3.org/2000/svg" width="128" height="128" style="fill-opacity:1;color-rendering:auto;color-interpolation:auto;text-rendering:auto;stroke:#000;stroke-linecap:square;stroke-miterlimit:10;shape-rendering:auto;stroke-opacity:1;fill:#000;stroke-dasharray:none;font-weight:400;stroke-width:1;font-family:&quot;Dialog&quot;;font-style:normal;stroke-linejoin:miter;font-size:12px;stroke-dashoffset:0;image-rendering:auto">
    <g style="stroke-linecap:round;fill:#4a4b53;stroke:#4a4b53">
        <path stroke="none" d="M.5 112V16h1L8 9.5l2 2v1l.5.5h1l1.5 1.5v1l1.5 1.5h1l1.5 1.5v1l1.5 1.5h1l1.5 1.5v1l1.5 1.5h1l2.5 2.5-2.5 2.5h-1l-.5.5v1L19.5 34h-1l-.5.5v1L15.5 38h-1l-.5.5v1l-3 3v10l.5.5h5l.5-.5v-1l1.5-1.5h1l2.5-2.5v33L19.5 78h-1L17 76.5v-1l-.5-.5h-5l-.5.5v10l3 3v1l.5.5h1l2.5 2.5v1l.5.5h1l2.5 2.5v1l.5.5h1l2.5 2.5v1l.5.5h1l2.5 2.5v1l.5.5h1l2.5 2.5v1l.5.5h1l2.5 2.5v1l.5.5h1l3 3h10l.5-.5v-5l-.5-.5h-1l-1.5-1.5v-1l-2.5-2.5h33l-2.5 2.5v1l-1.5 1.5h-1l-.5.5v5l.5.5h10l3-3h1l.5-.5v-1l2.5-2.5h1l.5-.5v-1l2.5-2.5h1l.5-.5v-1l2.5-2.5 2.5 2.5v1l1.5 1.5h1l1.5 1.5v1l1.5 1.5h1l1.5 1.5v1l1.5 1.5h1l1.5 1.5v1l.5.5h1l1.5 1.5v1l-6 6v1H16v-1L1.5 112Z" style="stroke:none"/>
    </g>
    <g stroke="none" style="stroke-linecap:round;fill:#6e7080;stroke:#6e7080">
        <path d="M8 9.5V8h1.5l2 2h1l.5.5v1l1.5 1.5h1l1.5 1.5v1l1.5 1.5h1l1.5 1.5v1l1.5 1.5h1l1.5 1.5v1l2.5 2.5 2.5-2.5v-1l.5-.5h1l2.5-2.5v-1l.5-.5h1l2.5-2.5v-1l.5-.5h1l3-3h10l.5.5v5l-.5.5h-1L50 18.5v1L47.5 22h-2L35 32.5v2l6.5 6.5H43v1.5l11 11 6.5-6.5h7L81 60.5v7L74.5 74l11 11H87v1.5l6.5 6.5h2L106 82.5v-2l2.5-2.5h1l1.5-1.5v-1l.5-.5h5l.5.5v10l-3 3v1l-.5.5h-1l-2.5 2.5v1l-.5.5h-1l-2.5 2.5v1l-.5.5h-1l-2.5 2.5 2.5 2.5h1l1.5 1.5v1l1.5 1.5h1l1.5 1.5v1l1.5 1.5h1l1.5 1.5v1l1.5 1.5h1l.5.5v1l1.5 1.5h.5v2h-2v-.5l-1.5-1.5h-1l-.5-.5v-1l-1.5-1.5h-1l-1.5-1.5v-1l-1.5-1.5h-1l-1.5-1.5v-1l-1.5-1.5h-1l-1.5-1.5v-1l-2.5-2.5-2.5 2.5v1l-.5.5h-1l-2.5 2.5v1l-.5.5h-1l-2.5 2.5v1l-.5.5h-1l-3 3h-10l-.5-.5v-5l.5-.5h1l1.5-1.5v-1l2.5-2.5h2L93 95.5v-2L86.5 87H85v-1.5l-11-11-6.5 6.5h-7L47 67.5v-7l6.5-6.5-11-11H41v-1.5L34.5 35h-2L22 45.5v2L19.5 50h-1L17 51.5v1l-.5.5h-5l-.5-.5v-10l3-3v-1l.5-.5h1l2.5-2.5v-1l.5-.5h1l2.5-2.5v-1l.5-.5h1l2.5-2.5-2.5-2.5h-1L21 23.5v-1L19.5 21h-1L17 19.5v-1L15.5 17h-1L13 15.5v-1L11.5 13h-1l-.5-.5v-1Z" style="stroke:none"/>
        <path d="M9.5 8 16 1.5v-1h96v1L126.5 16h1v96h-1l-6 6h-1l-1.5-1.5v-1l-.5-.5h-1l-1.5-1.5v-1l-1.5-1.5h-1l-1.5-1.5v-1l-1.5-1.5h-1l-1.5-1.5v-1l-1.5-1.5h-1l-2.5-2.5 2.5-2.5h1l.5-.5v-1l2.5-2.5h1l.5-.5v-1l2.5-2.5h1l.5-.5v-1l3-3v-10l-.5-.5h-5l-.5.5v1l-1.5 1.5h-1l-2.5 2.5v-33l2.5 2.5h1l1.5 1.5v1l.5.5h5l.5-.5v-10l-3-3v-1l-.5-.5h-1l-2.5-2.5v-1l-.5-.5h-1l-2.5-2.5v-1l-.5-.5h-1l-2.5-2.5v-1l-.5-.5h-1L98 23.5v-1l-.5-.5h-1L94 19.5v-1l-.5-.5h-1L90 15.5v-1l-.5-.5h-1l-3-3h-10l-.5.5v5l.5.5h1l1.5 1.5v1l2.5 2.5h-33l2.5-2.5v-1l1.5-1.5h1l.5-.5v-5l-.5-.5h-10l-3 3h-1l-.5.5v1L35.5 18h-1l-.5.5v1L31.5 22h-1l-.5.5v1L27.5 26 25 23.5v-1L23.5 21h-1L21 19.5v-1L19.5 17h-1L17 15.5v-1L15.5 13h-1L13 11.5v-1l-.5-.5h-1Z" style="fill:#989aa4;stroke:none"/>
        <path d="M11 85.5v-10l.5-.5h5l.5.5v1l1.5 1.5h1l2.5 2.5v2L45.5 106h2l2.5 2.5v1l1.5 1.5h1l.5.5v5l-.5.5h-10l-3-3h-1l-.5-.5v-1l-2.5-2.5h-1l-.5-.5v-1l-2.5-2.5h-1l-.5-.5v-1l-2.5-2.5h-1l-.5-.5v-1L23.5 98h-1l-.5-.5v-1L19.5 94h-1l-.5-.5v-1L15.5 90h-1l-.5-.5v-1Z" style="stroke:none"/>
        <path d="M22 82.5v-37L32.5 35h2l6.5 6.5V43h-.5L33 50.5v1l-1 1v23l1 1v1L50.5 95h1l1 1h23l1-1h1l7.5-7.5V87h1.5l6.5 6.5v2L82.5 106h-37Z" style="fill:#989aa4;stroke:none"/>
        <path d="M32 75.5v-23l1-1v-1l7.5-7.5h2l11 11-6.5 6.5v7L60.5 81h7l6.5-6.5 11 11v2L77.5 95h-1l-1 1h-23l-1-1h-1L33 77.5v-1Zm3-41v-2L45.5 22h37L106 45.5v37L95.5 93h-2L87 86.5V85h.5l7.5-7.5v-1l1-1v-23l-1-1v-1L77.5 33h-1l-1-1h-23l-1 1h-1L43 40.5v.5h-1.5Z" style="fill:#4a4b53;stroke:none"/>
        <path d="M43 42.5v-2l7.5-7.5h1l1-1h23l1 1h1L95 50.5v1l1 1v23l-1 1v1L87.5 85h-2l-11-11 6.5-6.5v-7L67.5 47h-7L54 53.5Z" style="fill:#989aa4;stroke:none"/>
        <path d="m75.5 17-.5-.5v-5l.5-.5h10l3 3h1l.5.5v1l2.5 2.5h1l.5.5v1l2.5 2.5h1l.5.5v1l2.5 2.5h1l.5.5v1l2.5 2.5h1l.5.5v1l2.5 2.5h1l.5.5v1l2.5 2.5h1l.5.5v1l3 3v10l-.5.5h-5l-.5-.5v-1l-1.5-1.5h-1l-2.5-2.5v-2L82.5 22h-2L78 19.5v-1L76.5 17Z" style="stroke:none"/>
    </g>
</svg>
