<svg xmlns="http://www.w3.org/2000/svg" width="128" height="128" style="fill-opacity:1;color-rendering:auto;color-interpolation:auto;text-rendering:auto;stroke:#000;stroke-linecap:square;stroke-miterlimit:10;shape-rendering:auto;stroke-opacity:1;fill:#000;stroke-dasharray:none;font-weight:400;stroke-width:1;font-family:&quot;Dialog&quot;;font-style:normal;stroke-linejoin:miter;font-size:12px;stroke-dashoffset:0;image-rendering:auto">
    <g style="stroke-linecap:round;fill:#9d7f7f;stroke:#9d7f7f">
        <path stroke="none" d="M.5 48V38h7l.5.5v1l3.5 3.5-5 5Z" style="stroke:none"/>
    </g>
    <g stroke="none" style="stroke-linecap:round;fill:#9d7f7f;stroke:#9d7f7f">
        <path d="M.5 67v-6h1l7-7h1l1-1h4l1 1h1l1.5 1.5v1l.5.5H20v.5l1.5 1.5h.5v10h-.5l-2 2h-1l-.5.5v1L16.5 74h-1l-1 1h-4l-1-1h-1l-7-7Zm0 23V80h6l5 5L8 88.5v1l-.5.5Z" style="stroke:none"/>
        <path d="M22 69V59h10v10Z" style="fill:#fff;stroke:none"/>
        <path d="M32 69V59h2.5l2.5 2.5v1l1.5 1.5-1.5 1.5v1L34.5 69Z" style="stroke:none"/>
        <path d="m38.5 8-.5-.5v-7h11v7l-.5.5h-1l-3 3h-2l-3-3Z" style="fill:#fff;stroke:none"/>
        <path d="M47.5 120h1l.5.5v7H38v-7l.5-.5h1l3-3h2Z" style="stroke:none"/>
        <path d="M53 14.5v-4l1-1v-1l7-7v-1h6v1l7 7v1l1 1v4l-1 1v1L72.5 18h-1l-.5.5V20h-.5L69 21.5v.5H59v-.5l-2-2v-1l-.5-.5h-1L54 16.5v-1Z" style="fill:#fff;stroke:none"/>
        <path d="M53 117.5v-4l1-1v-1l1.5-1.5h1l.5-.5V108h.5l1.5-1.5v-.5h10v.5l2 2v1l.5.5h1l1.5 1.5v1l1 1v4l-1 1v1l-7 7v1h-6v-1l-7-7v-1ZM59 32V22h10v10Z" style="stroke:none"/>
        <path d="M59 34.5V32h10v2.5L66.5 37h-1L64 38.5 62.5 37h-1Z" style="fill:#fff;stroke:none"/>
        <path d="M59 96v-2.5l2.5-2.5h1l1.5-1.5 1.5 1.5h1l2.5 2.5V96Z" style="stroke:none"/>
        <path d="M59 106V96h10v10ZM79.5 8l-.5-.5v-7h11v7l-.5.5h-1l-3 3h-2l-3-3Z" style="fill:#fff;stroke:none"/>
        <path d="M88.5 120h1l.5.5v7H79v-7l.5-.5h1l3-3h2Z" style="stroke:none"/>
        <path d="m89.5 64 1.5-1.5v-1l2.5-2.5H96v10h-2.5L91 66.5v-1Z" style="fill:#fff;stroke:none"/>
        <path d="M96 69V59h10v10Z" style="stroke:none"/>
        <path d="M106.5 69h-.5V59h.5l2-2h1l.5-.5v-1l1.5-1.5h1l1-1h4l1 1h1l7 7h1v6h-1l-7 7h-1l-1 1h-4l-1-1h-1l-1.5-1.5v-1l-.5-.5H108v-.5Zm10-26 3.5-3.5v-1l.5-.5h7v10h-6Zm0 42 5-5h6v10h-7l-.5-.5v-1Z" style="fill:#fff;stroke:none"/>
    </g>
</svg>
