<svg xmlns="http://www.w3.org/2000/svg" width="32" height="32" style="fill-opacity:1;color-rendering:auto;color-interpolation:auto;text-rendering:auto;stroke:#000;stroke-linecap:square;stroke-miterlimit:10;shape-rendering:auto;stroke-opacity:1;fill:#000;stroke-dasharray:none;font-weight:400;stroke-width:1;font-family:&quot;Dialog&quot;;font-style:normal;stroke-linejoin:miter;font-size:12px;stroke-dashoffset:0;image-rendering:auto">
    <g style="stroke-linecap:round;fill:#989aa4;stroke:#989aa4">
        <path stroke="none" d="M.5 1V.5H1L13.5 13l1-1h3l2.5 2.5v3l-1 1L31.5 31v.5H31L18.5 19l-1 1h-3L12 17.5v-3l1-1Z" style="stroke:none"/>
    </g>
    <g stroke="none" style="stroke-linecap:round;fill:#6e7080;stroke:#6e7080">
        <path d="m4.5 5-.5.5v6L1.5 9h-1V1Z" style="stroke:none"/>
        <path d="M.5 23V9h1L4 11.5v9L1.5 23Z" style="fill:#62ae7f;stroke:none"/>
        <path d="M1 .5h8v1L11.5 4h-6l-.5.5Z" style="fill:#b0bac0;stroke:none"/>
        <path d="M4 26.5 5.5 28h6L9 30.5v1H.5V23h1L4 20.5Z" style="stroke:none"/>
        <path d="m8.5 9-.5.5v6l-4-4v-6l.5-.5Z" style="fill:#b0bac0;stroke:none"/>
        <path d="M8 15.5v1l-4 4v-9Z" style="fill:#84f491;stroke:none"/>
        <path d="M4 26.5v-6l4-4v6L9.5 24h6l-4 4h-6Z" style="fill:#b0bac0;stroke:none"/>
        <path d="m5 4.5.5-.5h6l4 4h-6l-.5.5Zm8 9-1 1v3l2.5 2.5h3l1-1 4.5 4.5-.5.5h-13L8 22.5v-13l.5-.5Z" style="stroke:none"/>
        <path d="M9 1.5v-1h14v1L20.5 4h-9Z" style="fill:#84f491;stroke:none"/>
        <path d="m9 8.5.5-.5h13L24 9.5v13l-.5.5-4.5-4.5 1-1v-3L17.5 12h-3l-1 1Z" style="fill:#b0bac0;stroke:none"/>
        <path d="M11.5 4h9l-4 4h-1Z" style="fill:#62ae7f;stroke:none"/>
        <path d="m11.5 28 4-4h1l4 4Z" style="fill:#84f491;stroke:none"/>
        <path d="m16.5 8 4-4h6L28 5.5v6l-4 4v-6L22.5 8Z" style="stroke:none"/>
        <path d="M16.5 24h6l.5-.5 4 4-.5.5h-6Z" style="fill:#b0bac0;stroke:none"/>
        <path d="M23 30.5v1H9v-1l2.5-2.5h9Z" style="fill:#62ae7f;stroke:none"/>
        <path d="M20.5 4 23 1.5v-1h8.5V9h-1L28 11.5v-6L26.5 4Z" style="fill:#b0bac0;stroke:none"/>
        <path d="M20.5 28h6l.5-.5 4 4h-8v-1Z" style="stroke:none"/>
        <path d="M24 16.5v-1l4-4v9Z" style="fill:#62ae7f;stroke:none"/>
        <path d="M28 20.5v6l-.5.5-4-4 .5-.5v-6Z" style="stroke:none"/>
        <path d="M28 20.5v-9L30.5 9h1v14h-1Z" style="fill:#84f491;stroke:none"/>
        <path d="M30.5 23h1v8l-4-4 .5-.5v-6Z" style="fill:#b0bac0;stroke:none"/>
    </g>
</svg>
