<svg xmlns="http://www.w3.org/2000/svg" width="64" height="64" style="fill-opacity:1;color-rendering:auto;color-interpolation:auto;text-rendering:auto;stroke:#000;stroke-linecap:square;stroke-miterlimit:10;shape-rendering:auto;stroke-opacity:1;fill:#000;stroke-dasharray:none;font-weight:400;stroke-width:1;font-family:&quot;Dialog&quot;;font-style:normal;stroke-linejoin:miter;font-size:12px;stroke-dashoffset:0;image-rendering:auto">
    <g style="stroke-linecap:round;fill:#f4f4f4;stroke:#f4f4f4">
        <path stroke="none" d="M14 36.5v-8l7.5-7.5.5.5v7Z" style="stroke:none"/>
    </g>
    <g stroke="none" style="stroke-linecap:round;fill:#c1c3d4;stroke:#c1c3d4">
        <path d="M14 38.5v-2l8-8v-7l-.5-.5-3 3-.5-.5v-5l9-9 1 1v23l3.5 3.5h.5v7h-.5l-4-4-.5.5v4l-.5.5-3-3-5.5 5.5v-5Z" style="stroke:none"/>
        <path d="m18 47.5 5.5-5.5 7.5 7.5-5.5 5.5Z" style="fill:#f4f4f4;stroke:none"/>
        <path d="m21 36.5 3.5 3.5.5-.5v-5L21.5 31l-.5.5Z" style="stroke:none"/>
        <path d="M25 34.5v5l-.5.5-3.5-3.5v-5l.5-.5Zm6.5 9.5h.5v6h-.5l-5-5 .5-.5v-4l.5-.5Zm.5-27.5V23h-.5L28 19.5v-7l.5.5h.5v.5Z" style="fill:#6f80e8;stroke:none"/>
        <path d="M31.5 23h.5v7h-.5L28 26.5v-7Z" style="fill:#f4f4f4;stroke:none"/>
        <path d="M31.5 30h.5v7h-.5L28 33.5v-7Z" style="fill:#6f80e8;stroke:none"/>
        <path d="M32.5 23H32v-6.5l4-4v7Z" style="fill:#88a4ff;stroke:none"/>
        <path d="M32.5 30H32v-7h.5l3.5-3.5v7Z" style="stroke:none"/>
        <path d="M32.5 37H32v-7h.5l3.5-3.5v7Z" style="fill:#88a4ff;stroke:none"/>
        <path d="M32.5 44H32v-7h.5l3.5-3.5v-23l1-1 9 9v5l-.5.5-3-3-.5.5v7l8 8v2l-4 4v5L40.5 42l-3 3-.5-.5v-4l-.5-.5Z" style="fill:#f4f4f4;stroke:none"/>
        <path d="M32.5 50H32v-6h.5l4-4 .5.5v4l.5.5Z" style="fill:#88a4ff;stroke:none"/>
        <path d="m33 49.5 7.5-7.5 5.5 5.5-7.5 7.5Z" style="stroke:none"/>
        <path d="M39 34.5v5l.5.5 3.5-3.5v-5l-.5-.5Z" style="fill:#f4f4f4;stroke:none"/>
        <path d="m39.5 40-.5-.5v-5l3.5-3.5.5.5v5Z" style="fill:#88a4ff;stroke:none"/>
        <path d="M50 28.5v8l-8-8v-7l.5-.5Z" style="stroke:none"/>
    </g>
</svg>
