<svg xmlns="http://www.w3.org/2000/svg" width="32" height="32" style="fill-opacity:1;color-rendering:auto;color-interpolation:auto;text-rendering:auto;stroke:#000;stroke-linecap:square;stroke-miterlimit:10;shape-rendering:auto;stroke-opacity:1;fill:#000;stroke-dasharray:none;font-weight:400;stroke-width:1;font-family:&quot;Dialog&quot;;font-style:normal;stroke-linejoin:miter;font-size:12px;stroke-dashoffset:0;image-rendering:auto">
    <g style="stroke-linecap:round;fill:#4a4b53;stroke:#4a4b53">
        <path stroke="none" d="M.5 11V4L2 2.5 5.5 6 3 8.5V11Z" style="stroke:none"/>
    </g>
    <g stroke="none" style="stroke-linecap:round;fill:#d4816b;stroke:#d4816b">
        <path d="M.5 21V11h3L6 13.5v5L3.5 21Z" style="stroke:none"/>
        <path d="M.5 28v-7H3v2.5L8.5 29H11v2.5H4Z" style="fill:#4a4b53;stroke:none"/>
        <path d="m3 3.5-1-1 .5-.5.5.5Z" style="fill:#6e7080;stroke:none"/>
        <path d="M2.5 2 4 .5h7V3H8.5L6 5.5Z" style="fill:#989aa4;stroke:none"/>
        <path d="M3.5 11H3V8.5L5.5 6 2 2.5l.5-.5L6 5.5 8.5 3H11v.5L13.5 6h-2L9 8.5l3.5 3.5 1-1h5l2.5 2.5v5l-1 1 3.5 3.5 2.5-2.5v-2l2.5 2.5h.5v2.5L26.5 26l3.5 3.5-.5.5-3.5-3.5-2.5 2.5H21v-.5L18.5 26h2l2.5-2.5-3.5-3.5-1 1h-5L11 18.5v-5l1-1L8.5 9 6 11.5v2ZM3 23.5V21h.5L6 18.5v2l5.5 5.5h2L11 28.5v.5H8.5Z" style="fill:#6e7080;stroke:none"/>
        <path d="M6 20.5v-9L8.5 9l3.5 3.5-1 1v5l2.5 2.5h5l1-1 3.5 3.5-2.5 2.5h-9Z" style="fill:#4a4b53;stroke:none"/>
        <path d="M9 8.5 11.5 6h9l5.5 5.5v9L23.5 23 20 19.5l1-1v-5L18.5 11h-5l-1 1Z" style="fill:#989aa4;stroke:none"/>
        <path d="M11 3.5v-3h10v3L18.5 6h-5Z" style="fill:#ffd37f;stroke:none"/>
        <path d="M21 28.5v3H11v-3l2.5-2.5h5Z" style="stroke:none"/>
        <path d="M18.5 6 21 3.5V3h2.5L29 8.5V11h-.5L26 13.5v-2L20.5 6Z" style="fill:#6e7080;stroke:none"/>
        <path d="M21 3V.5h7L31.5 4v7H29V8.5L23.5 3Z" style="fill:#989aa4;stroke:none"/>
        <path d="M26 18.5v-5l2.5-2.5h3v10h-3Z" style="fill:#ffd37f;stroke:none"/>
        <path d="M29.5 30 28 31.5h-7V29h2.5l2.5-2.5Z" style="fill:#4a4b53;stroke:none"/>
        <path d="m26.5 26 2.5-2.5V21h2.5v7L30 29.5Z" style="fill:#989aa4;stroke:none"/>
    </g>
</svg>
