<svg xmlns="http://www.w3.org/2000/svg" width="64" height="64" style="fill-opacity:1;color-rendering:auto;color-interpolation:auto;text-rendering:auto;stroke:#000;stroke-linecap:square;stroke-miterlimit:10;shape-rendering:auto;stroke-opacity:1;fill:#000;stroke-dasharray:none;font-weight:400;stroke-width:1;font-family:&quot;Dialog&quot;;font-style:normal;stroke-linejoin:miter;font-size:12px;stroke-dashoffset:0;image-rendering:auto">
    <g style="stroke-linecap:round;fill:#bc5452;stroke:#bc5452">
        <path stroke="none" d="M10 53.5v-12l3-3v12Z" style="stroke:none"/>
    </g>
    <g stroke="none" style="stroke-linecap:round;fill:#c1c3d4;stroke:#c1c3d4">
        <path d="m10.5 55-.5-.5v-1l3-3v-12l2.5-2.5.5.5v17l.5.5-1 1Z" style="stroke:none"/>
        <path d="m16.5 54-.5-.5v-17l-.5-.5 4-4 .5.5v17l.5.5ZM18 30.5v-6l4-4v6Z" style="fill:#f4f4f4;stroke:none"/>
        <path d="m18.5 33-.5-.5v-2l4-4v-12L27.5 9l.5.5v17l.5.5-2.5 2.5v5l.5.5 5-5h.5v4h-.5L26 39.5v5l.5.5-5.5 5.5-1-1v-17l-.5-.5Z" style="stroke:none"/>
        <path d="m21 50.5 5.5-5.5 4.5 4.5-5.5 5.5Z" style="fill:#f4f4f4;stroke:none"/>
        <path d="m26.5 35-.5-.5v-5l5.5-5.5h.5v6h-.5Zm0 10-.5-.5v-5l5.5-5.5h.5v6h-.5Z" style="fill:#bc5452;stroke:none"/>
        <path d="m26.5 45 5-5h.5v9h-.5l-.5.5Z" style="stroke:none"/>
        <path d="M28 21.5v-6l3.5-3.5h.5v6h-.5Z" style="fill:#bc5452;stroke:none"/>
        <path d="m28.5 27-.5-.5v-5l3.5-3.5h.5v6h-.5Z" style="fill:#f4f4f4;stroke:none"/>
        <path d="M36 15.5v6L32.5 18H32v-6h.5Z" style="fill:#feb380;stroke:none"/>
        <path d="M36 21.5v5l-.5.5-3-3H32v-6h.5Z" style="stroke:none"/>
        <path d="M38 29.5v5l-.5.5-5-5H32v-6h.5Z" style="fill:#feb380;stroke:none"/>
        <path d="m37.5 35 .5-.5v-5L35.5 27l.5-.5v-17l.5-.5 5.5 5.5v12l4 4v2l-.5.5-1-1-.5.5v17l-1 1-5.5-5.5.5-.5v-5L32.5 34H32v-4h.5Z" style="fill:#f4f4f4;stroke:none"/>
        <path d="M38 39.5v5l-.5.5-5-5H32v-6h.5Z" style="fill:#feb380;stroke:none"/>
        <path d="M37.5 45 33 49.5l-.5-.5H32v-9h.5Z" style="fill:#f4f4f4;stroke:none"/>
        <path d="m33 49.5 4.5-4.5 5.5 5.5-4.5 4.5Zm13-25v6l-4-4v-6ZM48.5 36l-.5.5v17l-.5.5-4-4 .5-.5v-17l.5-.5Z" style="stroke:none"/>
        <path d="M51 38.5v12l3 3v1l-.5.5h-5l-1-1 .5-.5v-17l.5-.5Z" style="fill:#f4f4f4;stroke:none"/>
        <path d="M54 41.5v12l-3-3v-12Z" style="fill:#feb380;stroke:none"/>
    </g>
</svg>
