<svg xmlns="http://www.w3.org/2000/svg" width="32" height="32" style="fill-opacity:1;color-rendering:auto;color-interpolation:auto;text-rendering:auto;stroke:#000;stroke-linecap:square;stroke-miterlimit:10;shape-rendering:auto;stroke-opacity:1;fill:#000;stroke-dasharray:none;font-weight:400;stroke-width:1;font-family:&quot;Dialog&quot;;font-style:normal;stroke-linejoin:miter;font-size:12px;stroke-dashoffset:0;image-rendering:auto">
    <g style="stroke-linecap:round;fill:#4a4b53;stroke:#4a4b53">
        <path stroke="none" d="M4 12V8.5L8.5 4H12v1.5L14.5 8h3L20 5.5V4h3.5L28 8.5V12h-1.5L24 14.5v3l2.5 2.5H28v3.5L23.5 28H20v-1.5L17.5 24h-3L12 26.5V28H8v-.5L4.5 24H4v-4h1.5L8 17.5v-3L5.5 12Z" style="stroke:none"/>
    </g>
    <g stroke="none" style="stroke-linecap:round;fill:#6e7080;stroke:#6e7080">
        <path d="M4 20v-8h1.5L8 14.5v3L5.5 20Z" style="stroke:none"/>
        <path d="m7.5 10 2.5 2.5 2.5-2.5L10 7.5Zm0 12 2.5 2.5 2.5-2.5-2.5-2.5Z" style="fill:#4a4b53;stroke:none"/>
        <path d="M12 5.5V4h8v1.5L17.5 8h-3ZM12 28v-1.5l2.5-2.5h3l2.5 2.5V28Z" style="stroke:none"/>
        <path d="m19.5 10 2.5 2.5 2.5-2.5L22 7.5Zm0 12 2.5 2.5 2.5-2.5-2.5-2.5Z" style="fill:#4a4b53;stroke:none"/>
        <path d="M24 17.5v-3l2.5-2.5H28v8h-1.5Z" style="stroke:none"/>
    </g>
</svg>
