<svg xmlns="http://www.w3.org/2000/svg" width="32" height="32" style="fill-opacity:1;color-rendering:auto;color-interpolation:auto;text-rendering:auto;stroke:#000;stroke-linecap:square;stroke-miterlimit:10;shape-rendering:auto;stroke-opacity:1;fill:#000;stroke-dasharray:none;font-weight:400;stroke-width:1;font-family:&quot;Dialog&quot;;font-style:normal;stroke-linejoin:miter;font-size:12px;stroke-dashoffset:0;image-rendering:auto">
    <g style="stroke-linecap:round;fill:#6974c4;stroke:#6974c4">
        <path stroke="none" d="m4.5 24-.5-.5v-5l4-4v8L6.5 24Z" style="stroke:none"/>
    </g>
    <g stroke="none" style="stroke-linecap:round;fill:#c1c3d4;stroke:#c1c3d4">
        <path d="M8 25.5v-12l4-4V7h.5l3-3h.5v12h-1.5L12 18.5v6l1 1 2.5-2.5h.5v5h-5.5Z" style="stroke:none"/>
        <path d="m13 25.5-1-1v-6l2.5-2.5H16v7h-.5Z" style="fill:#6974c4;stroke:none"/>
        <path d="M20 7.5v2l4 4v12L21.5 28H16v-5h.5l2.5 2.5 1-1v-6L17.5 16H16V4h.5Z" style="fill:#f4f4f4;stroke:none"/>
        <path d="M16.5 23H16v-7h1.5l2.5 2.5v6l-1 1ZM28 18.5v5l-.5.5H25v-.5l-1-1v-8Z" style="fill:#8aa3f4;stroke:none"/>
    </g>
</svg>
