<svg xmlns="http://www.w3.org/2000/svg" width="96" height="96" style="fill-opacity:1;color-rendering:auto;color-interpolation:auto;text-rendering:auto;stroke:#000;stroke-linecap:square;stroke-miterlimit:10;shape-rendering:auto;stroke-opacity:1;fill:#000;stroke-dasharray:none;font-weight:400;stroke-width:1;font-family:&quot;Dialog&quot;;font-style:normal;stroke-linejoin:miter;font-size:12px;stroke-dashoffset:0;image-rendering:auto">
    <g style="stroke-linecap:round;fill:#4a4b53;stroke:#4a4b53">
        <path stroke="none" d="M6 66.5 9.5 63l7.5 7.5-3.5 3.5Z" style="stroke:none"/>
    </g>
    <g stroke="none" style="stroke-linecap:round;fill:#3a8f64;stroke:#3a8f64">
        <path d="M9 62.5v-18l1-1 6 6v9l1.5 1.5 3.5-3.5V49h.5l7 7-7.5 7.5v11Z" style="stroke:none"/>
        <path d="m10 43.5 7.5-7.5h3l.5.5V49h-.5L16 53.5v-4Z" style="fill:#4a4b53;stroke:none"/>
        <path d="M16 58.5v-5l4.5-4.5h.5v7.5L17.5 60Z" style="fill:#92dd7e;stroke:none"/>
        <path d="m16 81.5 5-5 7.5 7.5-5 5Z" style="fill:#4a4b53;stroke:none"/>
        <path d="M21.5 49H21v-6.5L32.5 31l.5.5v8l-4 4v12l-.5.5Z" style="fill:#6e7080;stroke:none"/>
        <path d="m21 63.5 8-8v-12l4-4v-8l-.5-.5-3 3-.5-.5v-17L36.5 9l.5.5v4l5 5v8L37.5 22l-.5.5v6l5 5v8L37.5 37l-.5.5v20l9.5 9.5h1l.5.5V75h-.5L34 61.5 26.5 69Z" style="fill:#4a4b53;stroke:none"/>
        <path d="m29.5 72-.5.5v11l-.5.5-7.5-7.5v-13Z" style="fill:#6e7080;stroke:none"/>
        <path d="m26.5 69 7.5-7.5 6 6-7.5 7.5Z" style="stroke:none"/>
        <path d="m45.5 88-4 4h-5l-8-8 .5-.5v-11l.5-.5Z" style="fill:#4a4b53;stroke:none"/>
        <path d="m32.5 75 7.5-7.5 3.5 3.5-7.5 7.5Z" style="fill:#92dd7e;stroke:none"/>
        <path d="m36 78.5 7.5-7.5 4 4h.5v13h-2.5Z" style="stroke:none"/>
        <path d="M37 13.5v-4l-.5-.5 3-3h2l.5.5v12Zm5 13v7l-5-5v-6l.5-.5Z" style="fill:#6e7080;stroke:none"/>
        <path d="M42 41.5v13l6 6v6l1 1 10-10v-20l-.5-.5-4.5 4.5v-8l5-5v-6l-.5-.5-4.5 4.5v-8l5-5v-4l.5-.5 7.5 7.5v17l-.5.5-3-3-.5.5v8l4 4v12l8 8-5.5 5.5-7.5-7.5L48.5 75H48v-7.5l-.5-.5h-1L37 57.5v-20l.5-.5Z" style="fill:#6e7080;stroke:none"/>
        <path d="M48 88V75h.5l4-4 7.5 7.5-9.5 9.5Z" style="fill:#92dd7e;stroke:none"/>
        <path d="m49 67.5-1-1v-6l6-6v-13l4.5-4.5.5.5v20Z" style="fill:#4a4b53;stroke:none"/>
        <path d="m50.5 88 16-16 .5.5v11l.5.5-8 8h-5Z" style="fill:#6e7080;stroke:none"/>
        <path d="m52.5 71 3.5-3.5 7.5 7.5-3.5 3.5Z" style="stroke:none"/>
        <path d="M54 18.5v-12l.5-.5h2l3 3-.5.5v4Zm0 15v-7l4.5-4.5.5.5v6Z" style="fill:#4a4b53;stroke:none"/>
        <path d="m56 67.5 6-6 7.5 7.5-6 6Z" style="fill:#92dd7e;stroke:none"/>
        <path d="M75 42.5V49h-.5l-7 7-.5-.5v-12l-4-4v-8l.5-.5ZM67.5 84l-.5-.5v-11l-.5-.5 8.5-8.5v13Z" style="fill:#4a4b53;stroke:none"/>
        <path d="m67.5 56 7-7h.5v7.5l3.5 3.5 1.5-1.5v-9l6-6 1 1v18l-12 12v-11Z" style="fill:#92dd7e;stroke:none"/>
        <path d="m67.5 84 7.5-7.5 5 5-7.5 7.5Zm8-35H75V36.5l.5-.5h3l7.5 7.5-6 6v4Z" style="fill:#6e7080;stroke:none"/>
        <path d="M80 53.5v5L78.5 60 75 56.5V49h.5Z" style="stroke:none"/>
        <path d="m79 70.5 7.5-7.5 3.5 3.5-7.5 7.5Z" style="fill:#6e7080;stroke:none"/>
    </g>
</svg>
