<svg width="96" height="96" viewBox="0 0 25.4 25.4" xmlns="http://www.w3.org/2000/svg"><path d="M10.583 1.058H9.525L8.467 2.117v2.91l.793.794v1.587h1.059l.529.53v.529h.794l.793.793h.265V7.673h-.794L10.583 6.35Z" style="fill:#7b7b7b"/><path style="fill:#7b7b7b;fill-opacity:0;fill-rule:nonzero;stroke:none;stroke-width:.264583" d="M10.583 1.058V.397a40.95 40.95 0 0 0-1.34.025l-.174.18c-.319.331-.665.694-1.034 1.083l-.182.192.003.24.044 2.91.004.252.162.149.684.627c.014.443.028.895.044 1.353l.016.49.45-.023.915-.046.333.287.037.35.033.323.27-.02.705-.048.745.677.076.07.061-.013a29.628 29.628 0 0 1 .412-.079l-.004-.116a632.67 632.67 0 0 1-.048-1.587l-.003-.1-.092.005-.774.043c-.465-.446-.915-.88-1.326-1.278-.01-2.008-.017-3.788-.017-5.285 0 1.5-.006 3.28-.016 5.292v.007l.005.005c.4.412.834.863 1.298 1.347l.013.014.023.001c.222.011.455.024.697.038l-.04 1.329c.084.016.031.006-.023-.005l-.723-.795-.058-.065-.117-.008c-.153-.01-.307-.02-.462-.032l.026-.248.012-.118-.117-.136-.49-.568-.096-.11-.196-.01-.577-.03.037-1.145.006-.194-.158-.173-.59-.644c.011-.701.025-1.586.036-2.428l.705-.673c.3.007.57.01.805.01v-.66z" fill="none"/><path d="M12.7 1.058h-.794v2.646l.53.53h.264V1.057z" style="fill:#7b7b7b"/><path style="fill:#7b7b7b;fill-opacity:0;fill-rule:nonzero;stroke:none;stroke-width:.264583" d="M12.7 1.058V.397c-.189 0-.468.037-.794.094-.197.035-.394.074-.59.116l.023.451c.043.814.097 1.716.154 2.646l.014.223.107.07.646.412c.048.03.096.062.143.093l.032-.02a4.64 4.64 0 0 1 .362-.202l-.002-.047a81.128 81.128 0 0 1-.095-3.175c0 .728-.035 1.79-.088 3.032a6.223 6.223 0 0 1-.177-.105l.176.073-.286-.448c.037-.596.077-1.271.113-1.907.1.011.188.017.262.017v-.662z" fill="none"/><path d="M13.494 1.058v2.646l-.53.53H12.7v3.439h.794l1.323-1.323V2.117l-1.059-1.059Z" style="fill:#7b7b7b"/><path style="fill:#7b7b7b;fill-opacity:0;fill-rule:nonzero;stroke:none;stroke-width:.264583" d="M12.832 1.058V3.43l-.335.336.468-.194h-.926V8.334h1.729l.193-.193 1.323-1.323.194-.194V1.843l-.194-.194L14.226.59l-.194-.194h-.538zm.662.662h.264l-.467-.194.864.865v3.685l-.935.935h.141V4.233l-.661.662h.539l.193-.194.53-.53.193-.193v-2.92z" fill="none"/><path d="m16.933 5.027-.793.794v1.587h.793z" style="fill:#7b7b7b"/><path style="fill:#4d4e58;fill-opacity:0;fill-rule:nonzero;stroke:none;stroke-width:.264583" d="m16.466 4.56-.794.793-.194.194V8.07h2.117V5.028zm-.194.467v1.72h.529v-.652l.6-.6z" fill="none"/><path d="M8.467 5.027v2.381h.793V5.821Z" style="fill:#4d4e58"/><path style="fill:#4d4e58;fill-opacity:0;fill-rule:nonzero;stroke:none;stroke-width:.264583" d="M8.467 5.027h-.662c0 .543.054 1.396.13 2.381l.052.634c.16-.031.32-.066.48-.103.247-.058.52-.129.793-.2l.362-.094-.03-.237a126.82 126.82 0 0 1-.201-1.587l-.008-.071-.03-.022c-.383-.274-.705-.52-.886-.7.171.17.402.47.659.826-.04.34-.091.742-.144 1.151.2.052.123.032.045.012.06-.819.101-1.52.101-1.99h-.661z" fill="none"/><path d="M11.906 1.058h-.264l-1.059 1.059V6.35l1.323 1.323h.794v-3.44h-.265l-.529-.529Z" style="fill:#4d4e58"/><path style="fill:#4d4e58;fill-opacity:0;fill-rule:nonzero;stroke:none;stroke-width:.264583" d="M11.906.397h-.538l-.194.194-1.058 1.058-.194.194v4.781l.194.194 1.323 1.323.193.193h1.729V3.572h-.926l.468.194-.335-.336V1.058zm-.661.661v2.92l.194.194.529.53.193.193h.539l-.661-.662v2.778h.141l-.935-.935V2.391l.864-.865-.467.194h.264z" fill="none"/><path d="M13.494 1.058H12.7v3.175h.265l.529-.529Z" style="fill:#4d4e58"/><path style="fill:#4d4e58;fill-opacity:0;fill-rule:nonzero;stroke:none;stroke-width:.264583" d="M13.494 1.058V.397c-.19 0-.468.037-.794.094-.196.035-.392.073-.586.116l.02.451c.042.977.096 2.06.153 3.175l.033.638c.128-.073.255-.147.38-.225l.265-.164.213-.132-.038.059a25.528 25.528 0 0 1 .45-.68l-.002-.025a56.372 56.372 0 0 1-.094-2.646c0 .62-.037 1.531-.092 2.596-.127.088-.295.198-.47.311L12.7 3.82l.413.413c.045-.875.088-1.73.125-2.529.097.01.183.016.256.016v-.662z" fill="none"/><path d="M14.817 1.058h1.058l1.058 1.059v2.91l-.793.794v1.587H15.08l-.529.53v.529h-.794l-.793.793H12.7V7.673h.794l1.323-1.323z" style="fill:#4d4e58"/><path style="fill:#4d4e58;fill-opacity:0;fill-rule:nonzero;stroke:none;stroke-width:.264583" d="M14.817 1.058v.662c.235 0 .505-.004.805-.01.078.075.381.365.705.672.008.59.021 1.491.036 2.428l-.59.644-.158.173a3975416.03 3975416.03 0 0 0 .043 1.339l-.577.03-.196.01-.096.11-.49.568-.117.136.012.117.026.25-.462.031-.117.008-.058.065-.723.795c.062-.012.02-.003-.022.005-.011-.344-.027-.845-.04-1.33l.696-.037.023-.001.013-.014c.464-.484.899-.935 1.298-1.347l.005-.005V6.35c-.01-2.011-.016-3.793-.016-5.292 0 1.497-.006 3.277-.017 5.285-.402.39-.848.82-1.326 1.278a98.517 98.517 0 0 1-.774-.043l-.092-.005-.003.1a632.67 632.67 0 0 1-.048 1.587l-.004.116a23.485 23.485 0 0 1 .412.08l.061.012.076-.07.745-.677.705.049.27.019.033-.322.037-.35.333-.288.915.046.45.022.016-.489c.016-.458.03-.91.044-1.353.235-.214.463-.424.684-.627l.162-.15.004-.25.044-2.911.003-.24-.182-.192c-.37-.389-.715-.752-1.034-1.083l-.175-.18a40.952 40.952 0 0 0-1.34-.025v.661z" fill="none"/><path d="M9.525 7.408h.794l.529.53v1.058l-.53.529h-.793Z" style="fill:#f3e979"/><path style="fill:#f3e979;fill-opacity:0;fill-rule:nonzero;stroke:none;stroke-width:.264583" d="M9.525 8.07h.52l.141.141v.51c.082-.08-.03.032-.141.143h.141V7.408zm-.661-.662v2.778h1.729l.193-.193.53-.53.193-.193V7.664l-.193-.194-.53-.53-.193-.193H9.525z" fill="none"/><path d="M15.875 7.408h-.794l-.529.53v1.058l.53.529h.793Z" style="fill:#d99f6b"/><path style="fill:#d99f6b;fill-opacity:0;fill-rule:nonzero;stroke:none;stroke-width:.264583" d="M15.875 7.408v-.661c-.195 0-.47.028-.794.072-.107.015-.215.03-.322.047l-.095.126a25.539 25.539 0 0 0-.593.832l.014.113c.043.344.09.701.136 1.059l.024.183.073.05a104.865 104.865 0 0 1 .718.498l.045-.007a28.604 28.604 0 0 1 .87-.133l-.004-.062a45.109 45.109 0 0 1-.072-2.117c0 .505-.026 1.21-.068 2.035-.143-.019-.373-.055-.615-.094-.08-.114-.19-.272-.299-.432l.093-.723c.018-.012.136-.095.248-.176.257.032.477.052.641.052v-.662z" fill="none"/><path d="M9.525 7.408H8.467L7.408 8.467H6.35l-2.117 2.116v1.852l.265.265h.794l2.116-2.117h1.059l1.058-1.058Z" style="fill:#d99f6b"/><path style="fill:#d99f6b;fill-opacity:0;fill-rule:nonzero;stroke:none;stroke-width:.264583" d="M9.525 6.747H8.193l-.194.194-.865.864H6.076L5.882 8l-2.116 2.117-.194.193V12.71l.194.194.264.265.194.193h1.342l.193-.193 1.923-1.923H8.741l.193-.194 1.059-1.058.193-.194V7.408zm-.661.661v1.843l-.671.67H7.134l-.193.195-1.923 1.923h-.246l.123.122v-1.304l1.729-1.729h1.058l.194-.194.865-.864h.784z" fill="none"/><path d="M15.875 9.525V7.408h1.058l1.059 1.059h1.058l2.117 2.116v1.852l-.265.265h-.794l-2.116-2.117h-1.059z" style="fill:#f3e979"/><path style="fill:#f3e979;fill-opacity:0;fill-rule:nonzero;stroke:none;stroke-width:.264583" d="M16.536 9.525V8.07h.123l.865.864.194.194h1.058l1.73 1.73v1.303l.122-.122h-.246l-1.923-1.923-.193-.194H17.207l-.864-.865Zm-1.129.468 1.059 1.058.193.194H17.718l1.923 1.923.193.193h1.342l.194-.193.264-.265.194-.194V10.31l-.194-.193-2.116-2.117-.194-.194h-1.058l-.865-.864-.194-.194h-1.993v2.778z" fill="none"/><path style="fill:#4d4e58;fill-opacity:0;fill-rule:nonzero;stroke:none;stroke-width:.264583" d="M4.233 9.922h-.538l-.194.194-.53.529-.193.194V13.239l.194.193.326.326-.59.59-.194.195V18.795l1.129-1.13 1.852-1.851-.468.193h.265l-.662-.661v3.978l.194.194 1.058 1.058.194.194h1.058l2.982 2.981.193.194h3.052V22.745l-.193-.194-.865-.865v.02l-.123.122h1.181V19.447h-1.445l-.671-.671V16.395l-1.13 1.129-1.851 1.852.467-.194h-.264l.661.662v-3.572H7.947l-1.994-1.994V12.04H4.772l.123.122v-1.578zm-.661.661V12.71l.194.194.264.265.194.193h.406v1.465l.194.194L7.205 17.4l.194.194h.406v2.91H9.005l.194-.194 1.852-1.852-1.13-.467v1.332l.195.194 1.058 1.058.194.194h.671v-.265H11.632l-.193.194-.265.265-.194.193v1.077l.194.194 1.058 1.058-.193-.467v.264l.661-.661h-1.843l-2.98-2.981-.195-.194H6.624l-.67-.671V14.684H4.752l-.194.194-1.852 1.852 1.13.468V15.09l.864-.865.468-.468-.468-.467-.6-.6v-1.305l.335-.335-.467.194h.264z" fill="none"/><path d="M8.467 10.583H7.408L5.292 12.7v1.852l2.38 2.381h.795v-1.058l-1.059-1.058v-1.852l1.059-1.059Z" style="fill:#7b7b7b"/><path style="fill:#7b7b7b;fill-opacity:0;fill-rule:nonzero;stroke:none;stroke-width:.264583" d="M8.467 9.922H7.134l-.193.194-2.117 2.116-.194.194V14.826l.194.194L7.205 17.4l.194.194h1.729V15.6l-.194-.194-.864-.864v-1.304l.864-.865.194-.194v-1.597zm-.662.661v1.05l-.864.864-.194.194V15.09l.194.193.864.865v.123h.142l-1.994-1.994v-1.304l1.73-1.73h.784z" fill="none"/><path d="M12.7 10.583h-1.058L9.525 12.7v3.175h.794l.264.265v.793h1.059l1.058-1.058Z" style="fill:#7b7b7b"/><path style="fill:#7b7b7b;fill-opacity:0;fill-rule:nonzero;stroke:none;stroke-width:.264583" d="M12.7 10.583v-.661c-.279 0-.64.014-1.058.038l-.282.018-.159.165a490.55 490.55 0 0 0-2.066 2.167l-.167.176.006.214c.025 1.01.054 2.077.084 3.175l.015.516a120.325 120.325 0 0 0 1.175-.131l.07.042.07.631.024.21.171-.015c.366-.03.722-.059 1.059-.084l.052-.004.026-.029c.36-.4.698-.773 1.007-1.109l.012-.012v-.015a482.396 482.396 0 0 1-.039-5.292c0 1.392-.014 3.19-.038 5.275-.314.289-.674.616-1.06.962-.231-.017-.514-.04-.804-.064l.07-.616.006-.054-.09-.148-.199-.33-.052-.085-.214-.025-.316-.036c.017-.598.043-1.581.067-2.52.545-.516 1.205-1.144 1.808-1.723.319.017.597.026.822.026v-.662z" fill="none"/><path style="fill:#4d4e58;fill-opacity:0;fill-rule:nonzero;stroke:none;stroke-width:.264583" d="M10.848 8.467v.661c.161 0 .343-.003.543-.008.191.182.395.375.61.575l.22.207a9.085 9.085 0 0 0 .479-.066l-.575-.576.027.817-.51.023-.215.01-.127.132-2.081 2.152-.13.134a622426.76 622426.76 0 0 1 .048 2.984c.077-.004-.235.01-.547.026l-.906-.846-.045-1.64.954-1.02.055-.058-.003-.068a705.93 705.93 0 0 1-.046-1.273l.965-1.024c.263-.014.515-.027.755-.038h.021l.011-.013c.18-.199.35-.384.507-.552l.005-.005v-.005c-.01-.2-.015-.378-.015-.53 0 .15-.005.326-.015.523-.16.15-.339.314-.531.489-.247-.011-.506-.025-.777-.039l-.032-.002-.029.027-1.09 1.027-.036.034-.002.058-.045 1.243-1.044.977-.064.06-.003.102-.05 1.852-.004.106.085.091 1.022 1.095.083.09.15.007 1.059.051.376.018.006-.4.048-2.989 1.873-1.811.872.04.511.021.02-.553.044-1.323.015-.468a15.305 15.305 0 0 0-.855-.147l.435.18a115.89 115.89 0 0 0-.943-.995l-.285-.01c-.3-.01-.568-.015-.794-.015v.662z" fill="none"/><path d="M9.525 15.875h-.794l-.264.265v3.704h.264l.794-.794Z" style="fill:#d99f6b"/><path style="fill:#d99f6b;fill-opacity:0;fill-rule:nonzero;stroke:none;stroke-width:.264583" d="M9.525 15.214H8.457l-.193.193-.265.265-.194.194v4.639H9.005l.194-.194.794-.793.193-.194v-3.449zm-.661.661v2.901l-.6.6.467-.194h-.264l.661.662v-3.43l-.123.122h.52z" fill="none"/><path style="fill:#4d4e58;fill-opacity:0;fill-rule:nonzero;stroke:none;stroke-width:.264583" d="M10.186 8.467v.255l-.141.142H9.25l-.194.193L8 10.116l-.194.193v1.324l-.864.864-.194.194V15.09l.194.193 1.058 1.059-.194-.468V17.736l1.13-1.129.07-.07h1.181V12.973l1.73-1.73h1.445V8.6h-.926l.468.194-.794-.794-.193-.194h-1.068zm.662.661h.52l.6.6.193.194h.539l-.661-.662v.662h-.671l-.194.194-2.117 2.116-.193.194v2.788H8.457l-.193.193-.265.265 1.13.468V15.6l-.195-.194-.864-.864v-1.304l.864-.865.194-.194v-1.323l.671-.67h.794l.193-.194.53-.53.193-.193v-.804z" fill="none"/><path style="fill:#4d4e58;fill-opacity:0;fill-rule:nonzero;stroke:none;stroke-width:.264583" d="M12.7 11.583h.909l1.266 1.267v3.025l1-1h-1.208l-.293.293-.264.264-.293.293v1.208l1-1h-.909l-.208-.208v-5.142zm-1-1v5.971l.293.293.794.793.293.293h2.737V16.14l-.293.707.264-.265-.707.293h1.794V12.021l-.293-.293-1.852-1.852-.293-.293H12.7z" fill="none"/><path d="M15.875 15.875h-.794l-.264.265v1.852l1.058 1.058Z" style="fill:#d99f6b"/><path style="fill:#d99f6b;fill-opacity:0;fill-rule:nonzero;stroke:none;stroke-width:.264583" d="M15.875 15.875v-1c-.189 0-.468.057-.794.143-.196.052-.39.11-.583.173a6.472 6.472 0 0 0-.123.507l-.147.713-.036-.271.25 1.852.026.206.083.06a65.788 65.788 0 0 1 1.487 1.094l-.02-.302c-.086-1.304-.143-2.42-.143-3.175 0 .678-.046 1.647-.117 2.781-.025-.03-.285-.387-.553-.76l.18-1.342c.108-.023.21-.047.302-.073l-.606.251c.326.086.605.143.794.143v-1z" fill="none"/><path d="M9.525 15.875h.794l.264.265v1.852L9.525 19.05Z" style="fill:#f3e979"/><path style="fill:#f3e979;fill-opacity:0;fill-rule:nonzero;stroke:none;stroke-width:.264583" d="M9.525 16.875h.794l-.707-.293.264.265-.293-.707v1.437l-.765.766 1.707.707v-3.175zm-1-1v5.589l1.707-1.707L11.29 18.7l.293-.293v-2.681l-.293-.293-.264-.264-.293-.293H9.525z" fill="none"/><path d="M15.875 15.875h.794l.264.265v3.704h-.264l-.794-.794Z" style="fill:#f3e979"/><path style="fill:#f3e979;fill-opacity:0;fill-rule:nonzero;stroke:none;stroke-width:.264583" d="M15.875 16.875h.794l-.707-.293.264.265-.293-.707v3.704l1-1h-.264l.707.293-.501-.501v-2.761zm-1-1v3.589l.293.293.794.794.293.293h1.678V15.725l-.293-.293-.264-.264-.293-.293h-1.208z" fill="none"/><path d="M16.933 10.583h1.059l2.116 2.117v1.852l-2.38 2.381h-.795v-1.058l1.059-1.058v-1.852l-1.059-1.059Z" style="fill:#4d4e58"/><path style="fill:#4d4e58;fill-opacity:0;fill-rule:nonzero;stroke:none;stroke-width:.264583" d="M16.933 10.583v1c.2 0 .438-.009.706-.025.278.264.934.881 1.635 1.535l.072 1.185-1.937 2.08c.198-.03.078-.012-.043.007l-.043-.37c.288-.34.572-.674.849-.998l.08-.094-.005-.086c-.041-.643-.079-1.264-.112-1.852l-.004-.068-.038-.033a88.855 88.855 0 0 1-1.112-.98c-.03-.51-.048-.951-.048-1.3 0 .354-.018.803-.049 1.322v.018l.015.017c.292.325.61.686.947 1.073-.029.501-.064 1.08-.102 1.68-.35.299-.71.605-1.076.915l-.088.075-.022.191-.125 1.058L15 16l1.933 1.433.794.125.21.032.232-.215 2.466-2.296.197-.183.021-.344c.041-.642.079-1.264.112-1.852l.018-.317-.269-.289a351.918 351.918 0 0 0-2.05-2.183l-.23-.242a29.055 29.055 0 0 0-.442-.037 14.86 14.86 0 0 0-1.059-.049v1z" fill="none"/><path d="M12.7 10.583h1.323l1.852 1.852v3.44h-.794l-.264.265v.793h-1.059L12.7 15.875Z" style="fill:#4d4e58"/><path style="fill:#4d4e58;fill-opacity:0;fill-rule:nonzero;stroke:none;stroke-width:.264583" d="M12.7 10.583v1c.27 0 .6-.012.978-.035.198.185.769.71 1.377 1.266.019.537.054 1.495.092 2.48l-.066.012-.354.062-.048.104-.167.363-.13.281.004.024.094.54c-.01.003-.347.044-.668.08a78.67 78.67 0 0 1-1.054-.911 318.198 318.198 0 0 1-.058-5.266c0 1.395-.021 3.2-.058 5.292v.021l.017.02c.302.342.632.725.981 1.135l.034.04.084.01c.337.038.693.08 1.059.127l.24.03a79.294 79.294 0 0 1 .144-.85l.283-.13-.403.166a128.625 128.625 0 0 0 1.468.247l.032-.816c.046-1.19.089-2.344.127-3.44l.011-.309-.255-.28a248.43 248.43 0 0 0-2.002-2.171 40.903 40.903 0 0 0-.44-.034 20.004 20.004 0 0 0-1.322-.058v1z" fill="none"/><path d="M10.583 16.933h1.059l1.058-1.058v3.175l-1.058-1.058h-1.059z" style="fill:#4d4e58"/><path d="M10.583 16.933h1.059l1.058-1.058v3.175l-1.058-1.058h-1.059z" style="fill:#4d4e58"/><path d="M10.583 16.933h1.059l1.058-1.058v3.175l-1.058-1.058h-1.059z" style="fill:#4d4e58"/><path d="M10.583 16.933h1.059l1.058-1.058v3.175l-1.058-1.058h-1.059z" style="fill:#4d4e58"/><path d="M10.583 16.933h1.059l1.058-1.058v3.175l-1.058-1.058h-1.059z" style="fill:#4d4e58"/><path d="M10.583 16.933h1.059l1.058-1.058v3.175l-1.058-1.058h-1.059z" style="fill:#4d4e58"/><path d="M10.583 16.933h1.059l1.058-1.058v3.175l-1.058-1.058h-1.059z" style="fill:#4d4e58"/><path d="M10.583 16.933h1.059l1.058-1.058v3.175l-1.058-1.058h-1.059z" style="fill:#4d4e58"/><path d="M10.583 16.933h1.059l1.058-1.058v3.175l-1.058-1.058h-1.059z" style="fill:#4d4e58"/><path d="M10.583 16.933h1.059l1.058-1.058v3.175l-1.058-1.058h-1.059z" style="fill:#4d4e58"/><path d="M10.583 16.933h1.059l1.058-1.058v3.175l-1.058-1.058h-1.059z" style="fill:#4d4e58"/><path d="M10.583 16.933h1.059l1.058-1.058v3.175l-1.058-1.058h-1.059z" style="fill:#4d4e58"/><path d="M10.583 16.933h1.059l1.058-1.058v3.175l-1.058-1.058h-1.059z" style="fill:#4d4e58"/><path d="M10.583 16.933h1.059l1.058-1.058v3.175l-1.058-1.058h-1.059z" style="fill:#4d4e58"/><path d="M10.583 16.933h1.059l1.058-1.058v3.175l-1.058-1.058h-1.059z" style="fill:#4d4e58"/><path style="fill:#4d4e58;fill-opacity:0;fill-rule:nonzero;stroke:none;stroke-width:.264583" d="M10.583 16.933v1c.252 0 .624-.056 1.059-.143.166-.033.331-.068.496-.106l.11-.145c.28-.37.583-.79.894-1.222l-1.066-.442.188 2.402a45.537 45.537 0 0 1-.586-.436l-.036.008c-.435.086-.807.143-1.059.143.236 0 .578.05.977.127.274.364.57.773.874 1.197.188.261.375.523.56.786l.082-1.052.248-3.175.098-1.268a160.185 160.185 0 0 0-1.994 1.428 5.124 5.124 0 0 0-.845-.102v1z" fill="none"/><path d="M14.817 17.992h-1.059L12.7 19.05v1.058h1.058l1.059-1.058v-1.058z" style="fill:#4d4e58"/><path style="fill:#4d4e58;fill-opacity:0;fill-rule:nonzero;stroke:none;stroke-width:.264583" d="M14.817 17.992v-1c-.26 0-.628.042-1.059.109-.162.025-.324.052-.485.081l-.145.18a66.442 66.442 0 0 0-1.168 1.505l.034.183c.065.343.136.7.206 1.058l.113.576.387-.076c.357-.07.715-.14 1.058-.205l.166-.031.043-.055c.325-.427.639-.831.927-1.19l.037-.046-.005-.031a7.57 7.57 0 0 1-.11-1.058c0 .248-.038.594-.1 1-.298.239-.657.518-1.034.807a81.752 81.752 0 0 1-.406-.078l.053-.272c.153-.116.426-.327.683-.529.321.045.597.072.805.072v-1z" fill="none"/><path d="M14.817 16.933h-1.059L12.7 15.875v3.175l1.058-1.058h1.059z" style="fill:#7b7b7b"/><path style="fill:#7b7b7b;fill-opacity:0;fill-rule:nonzero;stroke:none;stroke-width:.264583" d="M14.817 15.933h-.644l-.766-.765L11.7 13.46v8.003l1.707-1.707.766-.765H15.817v-2.059zm-1 1v.059h-.473l-.293.293-1.058 1.058 1.707.707v-3.175l-1.707.707 1.058 1.058.293.293H14.817z" fill="none"/><path d="M10.583 17.992h1.059L12.7 19.05v1.058h-1.058l-1.059-1.058Z" style="fill:#7b7b7b"/><path style="fill:#7b7b7b;fill-opacity:0;fill-rule:nonzero;stroke:none;stroke-width:.264583" d="M10.583 18.992h.644l.473.472v-.356h.356l-.473-.472v-.644zm-1-1v1.472l.293.293 1.059 1.058.292.293H13.7v-2.472l-.293-.293-1.058-1.058-.293-.293H10.583z" fill="none"/><path d="M12.7 21.167h-.794l-.264.264v.53l.793.793h.265Z" style="fill:#7b7b7b"/><path style="fill:#7b7b7b;fill-opacity:0;fill-rule:nonzero;stroke:none;stroke-width:.264583" d="M12.7 20.167h-1.208l-.293.293-.264.264-.293.293V22.375l.293.293.793.793.293.293H13.7V21.167zm-1 1v1.587l1-1h-.265l.708.293-.501-.5v-.116l-.293.707.264-.264-.707.293h.794z" fill="none"/><path d="M12.7 21.167h.794l.264.264v.53l-.793.793H12.7Z" style="fill:#4d4e58"/><path style="fill:#4d4e58;fill-opacity:0;fill-rule:nonzero;stroke:none;stroke-width:.264583" d="M12.7 21.167v1c.195 0 .47-.042.794-.11l-.63-.26c.112.043.242.086.38.129-.137-.352-.08-.204-.02-.055l-.468.675.209-.086c-.06.045-.118.087-.173.125a15.551 15.551 0 0 1-.092-1.418c0 .39-.042.942-.109 1.587l-.005.044c.039.02.077.042.114.065a3.693 3.693 0 0 1 .305.217l.168-.118c.303-.211.621-.43.939-.648l.01-.007.136-.347c.07-.178.141-.357.206-.529l-.041.108a11.09 11.09 0 0 0-.166-.607 5.644 5.644 0 0 0-.133-.395 3.017 3.017 0 0 0-.052-.125 11.08 11.08 0 0 0-.578-.136 4.312 4.312 0 0 0-.794-.11v1z" fill="none"/><path d="M10.848 8.467h.794l.793.793h.265v1.323h-1.058L9.525 12.7v3.175h-.794l-.264.265v-.265l-1.059-1.058v-1.852l1.059-1.059v-1.323l1.058-1.058h.794l.529-.53z" style="fill:#4d4e58"/><path style="fill:#7b7b7b;fill-opacity:0;fill-rule:nonzero;stroke:none;stroke-width:.264583" d="M10.848 9.467h.38l.5.5.293.293h.679l-1-1v.323h-.473l-.292.293-2.117 2.117-.293.293v3.589l1-1H8.317l-.293.293-.264.264 1.707.708v-.679l-.293-.293-.766-.766V13.38l.766-.766.293-.293v-1.322l.472-.473h.794l.293-.293.529-.53.293-.292v-.944zm-1-1v.115l.057-.057H9.11l-.293.293L7.76 9.876l-.293.293v1.323l-.766.765-.293.293v2.681l.293.293 1.059 1.058-.293-.707V18.554l1.707-1.707.264-.265-.707.293h1.794v-3.76l1.53-1.532H13.7V8.26H12.435l.708.293-.794-.793-.293-.293h-1.208zM21.167 11.583h.264l-.707-.293.236.237v1.023l-.5.501-.708.707.708.707.765.766v1.702l1-1h-.265l.708.293-1.588-1.587-.293-.293h-1.679v4.29l-.472.472h-1.059l-.292.293-2.883 2.882H12.7l1 1v-.529l-1 1h.679l.293-.293.793-.793.293-.293V21.017l-.293-.293-.264-.264-.293-.293H12.7l1 1v-.059h.473l.292-.293 1.059-1.058.293-.293v-1.472l-1.707.707 1.852 1.852.293.293h1.678v-3.91l-1 1h1.208l.293-.294 2.381-2.38.293-.294V12.7l-1 1h1.208l.293-.293.265-.264.293-.293v-2.267zm-1-1v1.852l.293-.707-.265.265.707-.293h-1.794V14.138l-1.795 1.795h-1.38v3.91l1-1h-.264l.707.294-1.852-1.852-1.707-1.708v3.059l-.473.472H11.7v3.059h1.794l-.707-.293.264.264-.293-.707v.115l-.5.501.707-.293H11.7V24.284h3.531l.293-.294 2.882-2.882h1.058l.293-.293 1.058-1.058.293-.293v-4.118l-1 1h.265l-.707-.293 1.587 1.587.293.293h1.679v-3.531l-.293-.292-.351-.352.087-.086.292-.293v-2.681l-.292-.293-.53-.529-.293-.293H21.167z" fill="none"/><path d="M21.167 10.583h.264l.53.53v1.852l-.794.793 1.058 1.059v2.38l-1.852-1.851h-.265v3.704l-1.058 1.058h-1.058l-3.175 3.175H12.7v-.529h.265l.793-.794v-.529l-.264-.264H12.7v-1.059h1.058l1.059-1.058v-1.058l1.852 1.852h.264v-2.91h.794l2.381-2.382V12.7h.794l.265-.265z" style="fill:#7b7b7b"/><path style="fill:#7b7b7b;fill-opacity:0;fill-rule:nonzero;stroke:none;stroke-width:.264583" d="M21.167 10.583v1c.08 0 .169-.002.264-.006l-.702-.29.257.248.012 1.05a395.214 395.214 0 0 0-1.146 1.2l.655.633c.266.258.539.52.817.788-.004-.297-.002-.205-.001-.113l-.353-.344-.291-.284a49.113 49.113 0 0 0-1.388.18l.006.7.032 3.397-.607.636-.73.025-.306.01a35403.669 35403.669 0 0 1-3.154 3.206l-1.832.033.632.631a235.432 235.432 0 0 0-.075-.529l-.557.557.265-.038.26-.037.107-.115.766-.82.154-.165-.013-.176-.037-.529-.016-.22-.114-.093-.291-.238-.153-.125-.134.006-.44.02-.012-.354.716-.024.13-.005.079-.082 1.032-1.083.08-.083-.004-.1-.017-.512 1.477 1.44.066.063.068-.008a56.013 56.013 0 0 1 .422-.053l-.002-.136-.03-2.791c.227-.01.45-.018.668-.025l.041-.002.026-.026c.807-.822 1.595-1.623 2.361-2.4l.02-.021v-.027l-.024-1.811c.26-.008.51-.014.751-.02h.01l.005-.006c.089-.098.173-.19.254-.275-.002-.671-.004-1.29-.004-1.857 0 .567-.002 1.186-.006 1.852l-.267.243c-.25-.005-.513-.012-.786-.02l-.041-.001v.043l-.025 1.824-2.352 2.314-.757-.029-.122-.005-.002.13-.03 2.735c.097.012.04.005-.02-.003l-1.784-1.832-.364-.374-.018.532-.03.944-.918.874-.945-.033-.32-.011-.011.342-.037 1.059-.012.35.38.018.596.028c-.056-.07-.024-.03.009.01l-.012.164-.506.473-.087-.013-.467-.066-.09.623a366.423 366.423 0 0 0-.161 1.148l.718.013 2.117.037.269.005.204-.2 2.98-2.934.78.027.286.01.238-.227 1.084-1.034.224-.214.003-.335.034-3.704-.81.81.264.034-.597-.247 1.83 1.874 1.467 1.501.028-2.12.03-2.381.004-.36-.27-.28a951.86 951.86 0 0 0-.376-.392l.149-.143.275-.265.005-.413.021-1.852.004-.386a101.936 101.936 0 0 0-1.062-1.105 8.238 8.238 0 0 0-.714-.038v1z" fill="none"/><path d="M19.05 20.637h-.265l-.793.794v1.323l.529.53h1.587l2.117-2.117v-1.059h-.265l-1.058 1.059H19.58z" style="fill:#7b7b7b"/><path style="fill:#7b7b7b;fill-opacity:0;fill-rule:nonzero;stroke:none;stroke-width:.264583" d="M19.05 19.637h-.679l-.293.293-.793.794-.293.293v2.151l.293.293.529.53.293.292h2.416l.292-.293 2.117-2.116.293-.293v-2.473h-1.679l-.293.293-.765.766h-.495l-.236-.237zm-.707 1.708.53.529.292.293h2.151l.293-.293 1.059-1.059-.708.293h.265l-1-1v.644l-1.53 1.531h-.76l.057.057v-.495l.5-.5-.707.293h.265z" fill="none"/><path d="M3.175 20.108h.265l1.058 1.059H5.82l.529-.53h.265l.793.794v1.323l-.529.53H5.292l-2.117-2.117Z" style="fill:#4d4e58"/><path style="fill:#4d4e58;fill-opacity:0;fill-rule:nonzero;stroke:none;stroke-width:.264583" d="M3.175 20.108v1c.072 0 .162-.015.265-.042l-.678-.28a95.497 95.497 0 0 0 1.432 1.277 103.225 103.225 0 0 0 1.627-.12l.4-.032a67.915 67.915 0 0 0 .602-.8l-.473.195.137-.057.497.405c.017.19.052.602.085 1.007-.033.046-.17.23-.304.407-.42.027-.937.06-1.427.088a376.183 376.183 0 0 1-2.122-2.008c-.026-.405-.041-.757-.041-1.04 0 .288-.015.647-.042 1.059l-.001.015.013.014c.631.66 1.322 1.392 2.059 2.175l.03.033.058.004c.503.029 1.035.062 1.587.099l.066.004.092-.07.605-.453.083-.061.014-.173.113-1.323.012-.14-.142-.173-.714-.874.01.01a68.692 68.692 0 0 0-.802-.34 134.827 134.827 0 0 0-.618.458l-.681-.051c-.283-.318-.55-.617-.8-.89l.065.071a2.19 2.19 0 0 0-.742-.352 1.105 1.105 0 0 0-.265-.042v1z" fill="none"/><path d="m5.027 15.346-1.852 1.852v2.91h.265l1.058 1.059H5.82l.529-.53v-.529L5.292 19.05v-3.704z" style="fill:#d99f6b"/><path style="fill:#d99f6b;fill-opacity:0;fill-rule:nonzero;stroke:none;stroke-width:.264583" d="M4.32 14.639 2.468 16.49l-.293.293v4.324H3.44l-.708-.293 1.059 1.059.293.293h2.151l.293-.293.53-.53.292-.292V19.694l-.293-.293-.765-.765v-4.29H5.027zm.707 1.707h.265l-1-1v4.118l.293.293.765.766v-.3c.215-.214.136-.135.057-.056h-.495l-.765-.766-.293-.293h-.679l1 1v-2.496l1.56-1.56z" fill="none"/><path d="M20.108 15.346v3.704l-1.058 1.058v.53l.53.529h1.322l1.058-1.059h.265v-2.91l-1.852-1.852z" style="fill:#f3e979"/><path style="fill:#f3e979;fill-opacity:0;fill-rule:nonzero;stroke:none;stroke-width:.264583" d="M19.108 15.346v3.29l-.765.765-.293.293V21.052l.293.293.53.529.292.293h2.151l.293-.293 1.059-1.059-.708.293H23.225v-4.324l-.293-.293-1.852-1.852-.293-.293h-.679zm1 1h.265l-.707-.293 1.559 1.56v2.495l1-1h-.679l-.293.293-.765.766h-.495c.214.213.135.134.057.056v.3l.765-.766.293-.293v-4.118z" fill="none"/><path d="M12.7 10.583V9.26h.265l.793-.793h.794v.529l.53.529h.793l1.058 1.058v1.323l1.059 1.059v1.852l-1.059 1.058v.265l-.264-.265h-.794v-3.44l-1.852-1.852z" style="fill:#7b7b7b"/><path style="fill:#7b7b7b;fill-opacity:0;fill-rule:nonzero;stroke:none;stroke-width:.264583" d="M13.7 10.583V9.26l-1 1h.679l.293-.292.5-.501h.38l-1-1V9.41l.293.293.53.53.292.292h.794l.472.473v1.322l.293.293.766.766v1.023l-.766.766-.293.293v.679l1.707-.708-.264-.264-.293-.293h-1.208l1 1v-3.854l-.293-.293-1.852-1.852-.293-.293H12.7zm-1 1h.909l1.266 1.267v4.025h1.794l-.707-.293.264.265 1.707 1.707V15.875l-.293.707 1.059-1.058.293-.293V12.55l-.293-.293-.766-.765v-1.323l-.293-.293-1.058-1.058-.293-.293h-.794l.057.057V7.467h-2.208l-.293.293-.794.793.708-.293H11.7v2.323z" fill="none"/><path d="M12.435 22.754h.265v.265z" style="fill:#4d4e58"/><path style="fill:#4d4e58;fill-opacity:0;fill-rule:nonzero;stroke:none;stroke-width:.264583" d="M12.435 22.754v1c.057 0 .155-.129.265-.294l.11-.166-.816-.54c.13.086.282.179.412.265l-.276-.183.778-.025c-.226.007-.416 0-.473-.057.057.057.064.246.057.473l.502-.208c.13-.086.282-.179.412-.265l-.706-.705c-.11-.166-.208-.295-.265-.295v1z" fill="none"/><path d="M4.233 10.583H3.97l-.53.53v1.852l.794.793-1.058 1.059v2.38l1.852-1.851h.265v3.704l1.058 1.058h1.058l3.175 3.175H12.7v-.529h-.265l-.793-.794v-.529l.264-.264h.794v-1.059h-1.058l-1.059-1.058v-1.058l-1.852 1.852h-.264v-2.91h-.794l-2.381-2.382V12.7h-.794l-.265-.265Z" style="fill:#4d4e58"/><path style="fill:#4d4e58;fill-opacity:0;fill-rule:nonzero;stroke:none;stroke-width:.264583" d="M4.233 9.583H3.555l-.293.293-.53.53-.292.292v2.681l.292.293c.03.028.058.057.087.086l-.351.352-.293.292v5.21l1.707-1.707 1.852-1.852-.707.293h.265l-1-1v4.118l.293.293 1.058 1.058.293.293h1.058l2.882 2.882.293.293H13.7v-2.529H12.435l.708.293-.501-.5v-.116l-.293.707.264-.264-.707.293H13.7v-3.059H12.056l-.473-.472v-3.059l-1.707 1.708-1.852 1.852.707-.293h-.264l1 1v-3.91h-1.38l-1.795-1.796V11.7H4.498l.707.293-.265-.265.293.707v-1.852zm-1 1v2.267l.293.293.265.264.293.293h1.208l-1-1v2.266l.293.293 2.38 2.381.294.293h1.208l-1-1v3.91h1.678l.293-.292 1.852-1.852-1.707-.707v1.472l.293.293 1.059 1.058.292.293h.473v.059l1-1h-1.208l-.293.293-.264.264-.293.293V22.375l.293.293.793.793.293.293h.679l-1-1v.53l1-1h-1.702L8.115 19.4l-.292-.293H6.764l-.472-.472v-4.29H4.613l-.293.293-1.852 1.852 1.707.707V15.23l.765-.766.708-.707-.708-.707-.5-.5v-1.024l.236-.237-.707.293h.264z" fill="none"/></svg>