<svg xmlns="http://www.w3.org/2000/svg" width="96" height="96" style="fill-opacity:1;color-rendering:auto;color-interpolation:auto;text-rendering:auto;stroke:#000;stroke-linecap:square;stroke-miterlimit:10;shape-rendering:auto;stroke-opacity:1;fill:#000;stroke-dasharray:none;font-weight:400;stroke-width:1;font-family:&quot;Dialog&quot;;font-style:normal;stroke-linejoin:miter;font-size:12px;stroke-dashoffset:0;image-rendering:auto">
    <g style="stroke-linecap:round;fill:#4d4e58;stroke:#4d4e58">
        <path stroke="none" d="M12 64.5v-19l5.5-5.5.5.5v8l5 5 5-5v-8l-.5-.5 4-4H36v12.5l-4 4v8l.5.5-3.5 3.5v11l-.5.5-1.5-1.5-3 3-4-4v-15l-1-1Z" style="stroke:none"/>
    </g>
    <g stroke="none" style="stroke-linecap:round;fill:#d99f6b;stroke:#d99f6b">
        <path d="M12 79.5v-15l7-7 1 1v15l4.5 4.5-7 7ZM18.5 49l-.5-.5v-8l-.5-.5 12-12H36v8h-4.5Z" style="stroke:none"/>
        <path d="m17.5 85 7-7 3.5 3.5v2L23.5 88h-3Z" style="fill:#4d4e58;stroke:none"/>
        <path d="m18.5 49 9-9 .5.5v8l-5 5Z" style="fill:#7b7b7b;stroke:none"/>
        <path d="M23 58.5v7l.5.5 4.5-4.5v-7l-.5-.5Z" style="fill:#4d4e58;stroke:none"/>
        <path d="m23.5 66-.5-.5v-7l4.5-4.5.5.5v7ZM30 77.5 28.5 76l.5-.5v-11l6.5-6.5.5.5v12l.5.5Z" style="stroke:none"/>
        <path d="m30 77.5 11-11v-13l-.5-.5 3.5-3.5v-13l-3-3v-26L44.5 4H48v17.5l3 3v7L48.5 34l-.5-.5v-11l-.5-.5-2.5 2.5v7l3 3v30l.5.5h1l5.5 5.5v7l-6 6-1-1v-17l-1-1-6 6v7l5.5 5.5h1l.5.5V89h-6.5ZM32 28V12.5L35.5 9l.5.5V28Z" style="fill:#4d4e58;stroke:none"/>
        <path d="m32.5 61-.5-.5v-8l4-4V36h2.5l2.5-2.5 3 3v13Zm4-33H36V9.5l-.5-.5 1-1H41v15.5Z" style="fill:#7b7b7b;stroke:none"/>
        <path d="M36 36v-8h.5l4.5-4.5v10L38.5 36Zm.5 35-.5-.5v-12l-.5-.5 5-5 .5.5v13Z" style="fill:#f3e979;stroke:none"/>
        <path d="M41 77.5v-7l6-6 1 1v17l1 1 6-6v-7L49.5 65h-1l-.5-.5v-30l-3-3v-7l2.5-2.5.5.5v11l.5.5 2.5-2.5v-7l-3-3V4h3.5L55 7.5v26l-3 3v13l3.5 3.5-.5.5v13l11 11L54.5 89H48v-5.5l-.5-.5h-1Z" style="fill:#7b7b7b;stroke:none"/>
        <path d="M52 49.5v-13l3-3 2.5 2.5H60v12.5l4 4v8l-.5.5Zm3-26V8h4.5l1 1-.5.5V28h-.5Z" style="fill:#4d4e58;stroke:none"/>
        <path d="M59.5 28h.5v8h-2.5L55 33.5v-10Zm1 30-.5.5v12l-.5.5-4.5-4.5v-13l.5-.5Z" style="stroke:none"/>
        <path d="M64 12.5V28h-4V9.5l.5-.5Z" style="fill:#7b7b7b;stroke:none"/>
        <path d="M60 36v-8h6.5l12 12-.5.5v8l-.5.5-13-13Z" style="fill:#f3e979;stroke:none"/>
        <path d="M60 48.5V36h4.5l4 4-.5.5v8l5 5 5-5v-8l.5-.5 5.5 5.5v19l-7-7-1 1v15l-4 4-3-3-1.5 1.5-.5-.5v-11L63.5 61l.5-.5v-8Z" style="fill:#7b7b7b;stroke:none"/>
        <path d="M67 64.5v11l.5.5-1.5 1.5-6.5-6.5.5-.5v-12l.5-.5Z" style="fill:#f3e979;stroke:none"/>
        <path d="M68 54.5v7l4.5 4.5.5-.5v-7L68.5 54Z" style="fill:#7b7b7b;stroke:none"/>
        <path d="M77.5 49 73 53.5l-5-5v-8l.5-.5Z" style="fill:#4d4e58;stroke:none"/>
        <path d="M73 58.5v7l-.5.5-4.5-4.5v-7l.5-.5Z" style="fill:#f3e979;stroke:none"/>
        <path d="M68 83.5v-2l3.5-3.5 7 7-3 3h-3Z" style="fill:#7b7b7b;stroke:none"/>
        <path d="m71.5 78 4.5-4.5v-15l1-1 7 7v15L78.5 85Z" style="fill:#f3e979;stroke:none"/>
    </g>
</svg>
