<svg xmlns="http://www.w3.org/2000/svg" width="128" height="128" style="fill-opacity:1;color-rendering:auto;color-interpolation:auto;text-rendering:auto;stroke:#000;stroke-linecap:square;stroke-miterlimit:10;shape-rendering:auto;stroke-opacity:1;fill:#000;stroke-dasharray:none;font-weight:400;stroke-width:1;font-family:&quot;Dialog&quot;;font-style:normal;stroke-linejoin:miter;font-size:12px;stroke-dashoffset:0;image-rendering:auto">
    <g style="stroke-linecap:round;fill:#4d4e58;stroke:#4d4e58">
        <path stroke="none" d="M5 76.5v-24l6.5-6.5.5.5v20l-.5.5-3-3-.5.5v5l4 4v9l-.5.5Z" style="stroke:none"/>
    </g>
    <g stroke="none" style="stroke-linecap:round;fill:#7b7b7b;stroke:#7b7b7b">
        <path d="m11.5 67 .5-.5v-20l-.5-.5 6.5-6.5v48l-1 1-5.5-5.5.5-.5v-9l-4-4v-5l.5-.5ZM18 27.5v-5l4.5-4.5h.5v4.5Z" style="stroke:none"/>
        <path d="M18 33.5v-6l5-5V18h5.5l.5.5v26l-11 11v-16l5-5v-5l-.5-.5Z" style="fill:#4d4e58;stroke:none"/>
        <path d="M18 39.5v-6l4.5-4.5.5.5v5Z" style="stroke:none"/>
        <path d="M18 69.5v-14l11-11v14Z" style="fill:#d99f6b;stroke:none"/>
        <path d="M18 70.5v-1l11-11v4l.5.5 7.5-7.5v-4l9-9v18l5.5 5.5L32 85.5v10l.5.5 6-6 .5.5v6l-7 7v13l.5.5L49 100.5v-18l-.5-.5 9.5-9.5 6 6v23l.5.5 6-6 .5.5v24l.5.5-3 3H64v-21.5L57.5 96l-.5.5v24l-.5.5-5-5h-3l-7 7h-4L23 108.5v-2l6-6v-19Z" style="fill:#4d4e58;stroke:none"/>
        <path d="M29 70.5v9l1 1 7-7v-9l-1-1Z" style="fill:#4d4e58;stroke:none"/>
        <path d="M29 44.5v-16l8-8v16Z" style="stroke:none"/>
        <path d="M29 50.5v-6l8-8v6Z" style="fill:#f3e979;stroke:none"/>
        <path d="M29 55.5v-5l8-8v5Z" style="stroke:none"/>
        <path d="m29.5 63-.5-.5v-7l8-8v8Z" style="fill:#f3e979;stroke:none"/>
        <path d="m30 80.5-1-1v-9l7-7 1 1v9Z" style="stroke:none"/>
        <path d="m32.5 96-.5-.5v-10L51.5 66l6.5 6.5-14 14v18l.5.5-12 12-.5-.5v-13l7-7v-6l-.5-.5Z" style="fill:#d99f6b;stroke:none"/>
        <path d="M37 36.5v-22l9-9v10l-5 5v12Z" style="fill:#4d4e58;stroke:none"/>
        <path d="M37 51.5v-15l4-4v-12l5-5v27Z" style="fill:#d99f6b;stroke:none"/>
        <path d="m44.5 105-.5-.5v-18l4.5-4.5.5.5v18Z" style="fill:#f3e979;stroke:none"/>
        <path d="M46 60.5v-55l.5-.5h11L52 10.5v7l.5.5 4.5-4.5v4l-5 5v7l.5.5 4.5-4.5v5l-5 5v7l.5.5 4.5-4.5v4l-5 5v7l.5.5 4.5-4.5v6l7 7v14l.5.5 5.5-5.5 9.5 9.5-.5.5v18L95.5 117l.5-.5v-13l-7-7v-6l.5-.5 6 6 .5-.5v-10L76.5 66l5.5-5.5v-18l9 9v4l7.5 7.5.5-.5v-4l11 11v1l-11 11v19l6 6v2L90.5 123h-4l-7-7h-3l-5 5-.5-.5v-24l-.5-.5-6 6-.5-.5v-23Z" style="stroke:none"/>
        <path d="m52.5 18-.5-.5v-7l5-5v8Zm0 12-.5-.5v-7l5-5v8Zm0 13-.5-.5v-7l5-5v8Zm0 12-.5-.5v-7l5-5v8ZM57 84.5v5l3.5 3.5.5-.5v-5L57.5 84Z" style="fill:#4d4e58;stroke:none"/>
        <path d="M61 87.5v5l-.5.5-3.5-3.5v-5l.5-.5Zm3 15V124h-4.5l-3-3 .5-.5v-24l.5-.5Z" style="stroke:none"/>
        <path d="m64.5 78-.5-.5v-14l7-7v-6l4.5 4.5.5-.5v-7l-5-5v-4l4.5 4.5.5-.5v-7l-5-5v-5l4.5 4.5.5-.5v-7l-5-5v-4l4.5 4.5.5-.5v-7L70.5 5h11l.5.5v55Z" style="fill:#4d4e58;stroke:none"/>
        <path d="M67 87.5v5l.5.5 3.5-3.5v-5l-.5-.5Z" style="stroke:none"/>
        <path d="m67.5 93-.5-.5v-5l3.5-3.5.5.5v5Z" style="fill:#4d4e58;stroke:none"/>
        <path d="m70 72.5 6.5-6.5L96 85.5v10l-.5.5-6-6-.5.5v6l7 7v13l-.5.5-12-12 .5-.5v-18Z" style="fill:#f3e979;stroke:none"/>
        <path d="M76 10.5v7l-.5.5-4.5-4.5v-8Zm0 12v7l-.5.5-4.5-4.5v-8Zm0 13v7l-.5.5-4.5-4.5v-8Zm0 12v7l-.5.5-4.5-4.5v-8Z" style="stroke:none"/>
        <path d="M84 86.5v18l-.5.5-4.5-4.5v-18l.5-.5Z" style="fill:#d99f6b;stroke:none"/>
        <path d="M91 14.5v22l-4-4v-12l-5-5v-10Z" style="stroke:none"/>
        <path d="M87 20.5v12l4 4v15l-9-9v-27Z" style="fill:#f3e979;stroke:none"/>
        <path d="M91 64.5v9l7 7 1-1v-9l-7-7Z" style="stroke:none"/>
        <path d="M99 28.5v16l-8-8v-16Z" style="fill:#4d4e58;stroke:none"/>
        <path d="M99 44.5v6l-8-8v-6Z" style="fill:#d99f6b;stroke:none"/>
        <path d="M99 50.5v5l-8-8v-5Z" style="fill:#4d4e58;stroke:none"/>
        <path d="M99 55.5v7l-.5.5-7.5-7.5v-8Z" style="fill:#d99f6b;stroke:none"/>
        <path d="M91 73.5v-9l1-1 7 7v9l-1 1Z" style="fill:#4d4e58;stroke:none"/>
        <path d="M99 44.5v-26l.5-.5h5.5v4.5l5 5v6l-4.5-4.5-.5.5v5l5 5v16Z" style="stroke:none"/>
        <path d="M110 55.5v14l-11-11v-14Z" style="fill:#f3e979;stroke:none"/>
        <path d="M110 22.5v5l-5-5V18h.5Zm0 11v6l-5-5v-5l.5-.5Zm6.5 12.5-.5.5v20l.5.5 3-3 .5.5v5l-4 4v9l.5.5-5.5 5.5-1-1v-48Z" style="fill:#4d4e58;stroke:none"/>
        <path d="M123 52.5v24l-6.5 6.5-.5-.5v-9l4-4v-5l-.5-.5-3 3-.5-.5v-20l.5-.5Z" style="stroke:none"/>
    </g>
</svg>
