<svg width="128" height="128" viewBox="0 0 33.867 33.867" xml:space="preserve" xmlns="http://www.w3.org/2000/svg"><g style="display:inline;fill:#7b7b7b;fill-opacity:1"><path style="fill:#7b7b7b;fill-opacity:1;stroke-width:.264583" d="M18.785 1.587h.133l1.19 1.191v1.984h-.132l-1.19-1.19V1.587"/><path style="display:inline;fill:#4d4e58;fill-opacity:1;stroke-width:.264583" d="M18.785 22.225h-.132l-.926.926v1.455h.132l.926-.926v-1.455"/><path style="display:inline;fill:#7b7b7b;fill-opacity:1;stroke-width:.264583" d="M15.081 25.4h.133l1.587 1.587h.132v5.821h-1.19l-.662-.661V25.4"/><path style="display:inline;fill:#4d4e58;fill-opacity:1;stroke-width:.264583" d="M18.785 25.4h-.132l-1.587 1.587h-.133v5.821h1.191l.661-.661V25.4M16.14 23.151l-.926-.926h-.133v1.455l.926.926h.133v-1.323h.793v3.704h-.132L15.214 25.4h-.133v6.747l-1.455-1.455h-.794l-1.852 1.852H9.922l-1.455-1.455 4.498-4.498v-5.027l2.38-2.382 1.456 1.456h.132v2.645h-.793z"/><path style="display:inline;fill:#7b7b7b;fill-opacity:1;stroke-width:.264583" d="m17.727 23.151.926-.926h.132v1.455l-.926.926h-.132v-1.323h-.794v3.704h.133l1.587-1.587h.132v6.747l1.456-1.455h.793l1.852 1.852h1.059l1.455-1.455-4.498-4.498v-5.027l-2.381-2.382-1.455 1.455h-.133v2.646h.794zM15.081 22.225h.133l.926.926v1.455h-.133l-.926-.926v-1.455M18.785 4.762h.133l1.19 1.191v1.984h-.132l-1.19-1.19V4.762M18.785 8.202h.133l1.19 1.19v1.985h-.132l-1.19-1.19V8.201M18.785 11.377h.133l1.19 1.19v1.985h-.132l-1.19-1.19v-1.985"/><path style="display:inline;fill:#4d4e58;fill-opacity:1;stroke-width:.264583" d="M13.758 4.762h.133l1.19-1.19V1.587h-.132l-1.19 1.191v1.984M13.758 7.937h.133l1.19-1.19V4.762h-.132l-1.19 1.191v1.984M13.758 11.377h.133l1.19-1.19V8.201h-.132l-1.19 1.19v1.985M13.758 14.552h.133l1.19-1.19v-1.985h-.132l-1.19 1.19v1.985"/><path style="fill:#4d4e58;fill-opacity:1;stroke-width:.264583" d="M18.785 1.323v.264h.133l1.19 1.191v1.984h-.132l-1.19-1.19v1.19h.132l1.19 1.191v1.984h-.132l-1.19-1.19v1.455h.132l1.19 1.19v1.985h-.132l-1.19-1.19v1.19h.132l1.19 1.19v1.985h-.132l-1.19-1.19v1.587l-1.853 1.852v3.836h.133l4.63-4.63V1.455l-.132-.132z"/><path style="display:inline;fill:#7b7b7b;fill-opacity:1;stroke-width:.264583" d="M15.081 1.323v.264h-.132l-1.19 1.191v1.984h.132l1.19-1.19v1.19h-.132l-1.19 1.191v1.984h.132l1.19-1.19v1.455h-.132l-1.19 1.19v1.985h.132l1.19-1.19v1.19h-.132l-1.19 1.19v1.985h.132l1.19-1.19v1.587l1.852 1.852v3.837h-.132l-4.63-4.63V1.454l.132-.132z"/><path style="fill:#d99f6b;fill-opacity:1;stroke-width:.264583" d="m20.902 21.564 1.323 1.322v5.028l-1.323-1.323v-5.027"/><path style="display:inline;fill:#f3e979;fill-opacity:1;stroke-width:.264583" d="m12.965 21.564-1.323 1.322v5.028l1.323-1.323v-5.027"/><path style="fill:#f3e979;fill-opacity:1;stroke-width:.264583" d="m18.52 19.182 3.705 3.704v5.028l3.175 3.175v-3.705l-.132-.132-1.72-1.72v-1.72h.132l1.588 1.588h.132v-2.778l-.132-.132-5.027-5.028z"/><path style="display:inline;fill:#d99f6b;fill-opacity:1;stroke-width:.264583" d="m15.346 19.182-3.704 3.704v5.028l-3.175 3.175v-3.705l.132-.132 1.72-1.72v-1.72h-.133L8.6 25.4h-.132v-2.778l.132-.132 5.027-5.028z"/><circle style="fill:#f3e979;stroke:#000;stroke-width:.264583" cx="26.204" cy="29.947" r=".001"/><path style="fill:#7b7b7b;fill-opacity:1;stroke-width:.264583" d="m25.4 31.089 2.381-2.382v-.529l-1.587-1.587v-5.027l.132-.133 2.646-2.646.132-.132v-.264l-.132-.133-2.646-2.646-.132-.132v1.19h-.133l-1.984-1.984v-1.058l-.132-.132-2.25-2.25v4.763l-1.454 1.455 5.027 5.028.132.132V25.4h-.132l-1.588-1.588h-.132v1.72l1.72 1.72.132.132z"/><path style="display:inline;fill:#4d4e58;fill-opacity:1;stroke-width:.264583" d="m8.467 31.089-2.382-2.382v-.529l1.588-1.587v-5.027l-.132-.133-2.646-2.646-.133-.132v-.264l.133-.133L7.54 15.61l.132-.132v1.323l2.117-2.117v-1.19h.132l2.249-2.25v4.763l1.455 1.455-5.027 5.028-.132.132V25.4h.132l1.587-1.588h.133v1.72l-1.72 1.72-.132.132z"/><path style="fill:#d99f6b;fill-opacity:1;stroke-width:.264583" d="M26.194 16.669h-.133l-1.984-1.985v-2.116l.132.132 1.985 1.984z"/><path style="fill:#4d4e58;fill-opacity:1;stroke-width:.264583" d="m24.077 12.568.132.132 1.985 1.984v-1.323l-.133-.132-1.984-1.984z"/><path style="fill:#d99f6b;fill-opacity:1;stroke-width:.264583" d="m24.077 9.657.132.133 1.985 1.984v1.587l-.133-.132-1.984-1.984z"/><path style="fill:#4d4e58;fill-opacity:1;stroke-width:.264583" d="m24.077 9.657.132.133 1.985 1.984V7.541l-2.117-2.117v4.233"/><path style="fill:#f3e979;fill-opacity:1;stroke-width:.264583" d="m26.194 11.774.132.132 2.646 2.646.132.132v3.705l-.132-.133-2.646-2.646-.132-.132Z"/><path style="display:inline;fill:#d99f6b;fill-opacity:1;stroke-width:.264583" d="m7.673 11.774-.132.132-2.646 2.646-.133.132v3.705l.133-.133L7.54 15.61l.132-.132z"/><path style="fill:#7b7b7b;fill-opacity:1;stroke-width:.264583" d="M27.781 4.762h-1.587v7.012l.132.132 2.646 2.646.132.132v-4.233l-.132-.132-1.19-1.19V7.672h.132l1.19 1.19v-1.72h-.132l-1.19-1.19v-1.19"/><path style="display:inline;fill:#4d4e58;fill-opacity:1;stroke-width:.264583" d="M6.085 4.763h1.588v7.011l-.132.132-2.646 2.646-.132.265V10.45l.132-.132 1.19-1.19V7.672h-.132l-1.19 1.19v-1.72h.132l1.19-1.19v-1.19"/><path style="fill:#4d4e58;fill-opacity:1;stroke-width:.264583" d="m29.104 8.864-1.19-1.191h-.133v1.455l1.19 1.19.133.133z"/><path style="display:inline;fill:#7b7b7b;fill-opacity:1;stroke-width:.264583" d="m4.762 8.864 1.191-1.191h.132v1.455l-1.19 1.19-.133.133z"/><path style="fill:#4d4e58;fill-opacity:1;stroke-width:.264583" d="M27.781 4.762v1.191l1.19 1.19h.133v-1.19l-1.19-1.19z"/><path style="display:inline;fill:#7b7b7b;fill-opacity:1;stroke-width:.264583" d="M6.085 4.762v1.191l-1.19 1.19h-.133v-1.19l1.191-1.19z"/><path style="fill:#4d4e58;fill-opacity:1;stroke-width:.264583" d="M29.104 10.583v12.7h.265l1.323-1.19v-2.646l1.058-1.058V16.8l-.926.926-.132.132v-5.82l-1.456-1.456-.132-.132"/><path style="display:inline;fill:#7b7b7b;fill-opacity:1;stroke-width:.264583" d="M4.762 10.583v12.7h-.264l-1.323-1.19v-2.646l-1.058-1.058V16.8l.926.926.132.132v-5.82l1.455-1.456.132-.132"/><path style="fill:#7b7b7b;fill-opacity:1;stroke-width:.264583" d="M30.692 17.86 31.75 16.8v1.588l-1.058 1.058v2.646l1.852-1.852v-6.35l-1.852-1.852z"/><path style="display:inline;fill:#4d4e58;fill-opacity:1;stroke-width:.264583" d="M3.175 17.86 2.117 16.8v1.588l1.058 1.058v2.646L1.323 20.24v-6.35l1.852-1.852z"/><path style="display:inline;fill:#f3e979;fill-opacity:1;stroke-width:.264583" d="M7.673 16.669v.132l2.117-2.117v-2.116l-.133.132-1.984 1.984zM9.79 9.657l-.133.133-1.984 1.984V13.361l2.117-2.116z"/><path style="display:inline;fill:#7b7b7b;fill-opacity:1;stroke-width:.264583" d="m9.79 12.568-.133.132-1.984 1.984v-1.323l.132-.132 1.985-1.984zM9.79 9.657l-.133.133-1.984 1.984V7.541L9.79 5.424v4.233"/><path style="fill:#f3e979;fill-opacity:1;stroke-width:.264583" d="m21.696 4.101 1.323 1.323v3.175l.926.926.132.132v3.969l-.132-.132-2.25-2.25V4.102"/><path style="display:inline;fill:#d99f6b;fill-opacity:1;stroke-width:.264583" d="m12.17 4.101-1.322 1.323v3.175l-.926.926-.132.132V13.626l2.38-2.381V4.1"/><path style="fill:#7b7b7b;fill-opacity:1;stroke-width:.264583" d="m21.696 1.455 2.381 2.381v5.821l-.132-.132-.926-.926V5.424l-1.323-1.323Z"/><path style="display:inline;fill:#4d4e58;fill-opacity:1;stroke-width:.264583" d="M12.17 1.455 9.79 3.836v5.821l.132-.132.926-.926V5.424l1.323-1.323z"/></g></svg>