<svg xmlns="http://www.w3.org/2000/svg" width="96" height="96" style="fill-opacity:1;color-rendering:auto;color-interpolation:auto;text-rendering:auto;stroke:#000;stroke-linecap:square;stroke-miterlimit:10;shape-rendering:auto;stroke-opacity:1;fill:#000;stroke-dasharray:none;font-weight:400;stroke-width:1;font-family:&quot;Dialog&quot;;font-style:normal;stroke-linejoin:miter;font-size:12px;stroke-dashoffset:0;image-rendering:auto">
    <g style="stroke-linecap:round;fill:#6974c4;stroke:#6974c4">
        <path stroke="none" d="M2.5 74 21 55.5l7.5 7.5L10 81.5Z" style="stroke:none"/>
    </g>
    <g stroke="none" style="stroke-linecap:round;fill:#6974c4;stroke:#6974c4">
        <path d="M3.5 53 17 39.5l7.5 7.5L11 60.5Z" style="stroke:none"/>
        <path d="m11 60.5 7.5-7.5 2.5 2.5-7.5 7.5ZM12.5 44l-.5-.5v-10l6.5-6.5L29 37.5v9l.5.5-4 4-2.5-2.5 1.5-1.5-7.5-7.5Zm4 31 10-10 5 5-10 10Z" style="fill:#4d4e58;stroke:none"/>
        <path d="m18.5 53 4.5-4.5 2.5 2.5-4.5 4.5Z" style="fill:#7b7b7b;stroke:none"/>
        <path d="M19.5 82 32 69.5l7.5 7.5L27 89.5Z" style="stroke:none"/>
        <path d="m21 55.5 4.5-4.5 7.5 7.5-4.5 4.5Z" style="fill:#8aa3f4;stroke:none"/>
        <path d="m24 32.5 5-5 8 8v19l-8-8v-9Z" style="fill:#7b7b7b;stroke:none"/>
        <path d="m25.5 51 4-4 7.5 7.5-4 4Z" style="stroke:none"/>
        <path d="m26.5 65 6.5-6.5 5 5-6.5 6.5Z" style="fill:#7b7b7b;stroke:none"/>
        <path d="M29 27.5v-14L35.5 7l.5.5v8l4 4v11l8 8V45h-.5l-5-5-.5.5v18l6 6v8l.5.5 2-2 6 6-7.5 7.5-1-1v-10l-15-15 4-4v-19Z" style="fill:#4d4e58;stroke:none"/>
        <path d="m32 69.5 6-6 7.5 7.5-6 6Z" style="fill:#8aa3f4;stroke:none"/>
        <path d="m33 83.5 6.5-6.5 7 7h1l.5.5V92h-6.5Z" style="fill:#4d4e58;stroke:none"/>
        <path d="M36 15.5v-8l-.5-.5 3-3h5l.5.5v19l4 4v10l.5.5 7.5-7.5v-11l4-4v-8l.5-.5 6.5 6.5v14l-8 8v19l4 4L48.5 73l-.5-.5v-8l-6-6v-8l5.5 5.5h.5v7.5l.5.5 5.5-5.5v-18l-.5-.5-5 5H48v-6.5l-8-8v-11Z" style="fill:#7b7b7b;stroke:none"/>
        <path d="m39.5 77 6-6 2.5 2.5v10l1 1 7.5-7.5 6.5 6.5-8.5 8.5H48v-7.5l-.5-.5h-1Z" style="fill:#7b7b7b;stroke:none"/>
        <path d="M47.5 45h.5v11h-.5L42 50.5v-10l.5-.5Z" style="stroke:none"/>
        <path d="m48 20.5 4-4v7l-4 4-4-4v-7Z" style="fill:#2c2d38;stroke:none"/>
        <path d="m48.5 38-.5-.5v-10l4-4v-19l.5-.5h5l3 3-.5.5v8l-4 4v11Z" style="fill:#4d4e58;stroke:none"/>
        <path d="M48.5 56H48V45h.5l5-5 .5.5v10Z" style="fill:#8aa3f4;stroke:none"/>
        <path d="m48.5 64-.5-.5V56h.5l5.5-5.5v8Z" style="fill:#4d4e58;stroke:none"/>
        <path d="m50.5 71 7.5-7.5 6 6-7.5 7.5Z" style="stroke:none"/>
        <path d="m56.5 77 7.5-7.5L76.5 82 69 89.5Z" style="fill:#8aa3f4;stroke:none"/>
        <path d="m58 63.5 5-5 6.5 6.5-5 5Zm1-9v-19l8-8 5 5-5 5v9Z" style="fill:#4d4e58;stroke:none"/>
        <path d="m59 54.5 7.5-7.5 4 4-7.5 7.5Z" style="fill:#8aa3f4;stroke:none"/>
        <path d="m63 58.5 7.5-7.5 4.5 4.5-7.5 7.5Z" style="stroke:none"/>
        <path d="m64.5 70 5-5 10 10-5 5Zm2-23 .5-.5v-9L77.5 27l6.5 6.5v10l-.5.5-4.5-4.5-7.5 7.5 1.5 1.5-2.5 2.5Z" style="fill:#7b7b7b;stroke:none"/>
        <path d="m67.5 63 7.5-7.5L93.5 74 86 81.5Z" style="fill:#8aa3f4;stroke:none"/>
        <path d="m70.5 51 2.5-2.5 4.5 4.5-2.5 2.5Z" style="fill:#4d4e58;stroke:none"/>
        <path d="m71.5 47 7.5-7.5L92.5 53 85 60.5Z" style="fill:#8aa3f4;stroke:none"/>
        <path d="m75 55.5 2.5-2.5 7.5 7.5-2.5 2.5Z" style="fill:#7b7b7b;stroke:none"/>
    </g>
</svg>
