<svg width="96" height="96" viewBox="0 0 25.4 25.4" xml:space="preserve" xmlns="http://www.w3.org/2000/svg"><g style="display:inline"><path style="display:inline;fill:#4d4e58;fill-opacity:1;stroke-width:.264999" d="M9.525 1.72c-.025.094-1.058 1.058-1.058 1.058v2.91L9.525 4.63v3.175l-.53.53-.131.132h.264l.662.661H7.673l.661-.661H5.69L4.233 9.922v.794l.133-.133h.264v3.704l-1.455 1.456v1.323l2.117-2.117h3.175v.794l-3.97 3.968-.131.133 1.323 1.323 4.233-4.234h.264l1.72 1.72v.265L8.6 22.225l1.852 1.852H12.7V23.02h-.926l-1.19-1.19H12.7v1.19h.926l1.19-1.19v-.53l-1.19-1.19H12.7v1.72h-2.117v-.53l1.191-1.19h.926v-3.44h-1.984l-.397-.397H12.7v.397h1.984l2.25-2.25v-1.322l-2.117-2.117v-.132H12.7v.794h.661l1.456 1.455v1.323l-1.456 1.455H12.7v.397h-2.381L8.467 14.42v.529H5.292v-1.323l-.662.661v-3.704l1.72 1.72v.265l.132-.133.53-.529h.793l.662.662v.529l1.455-1.455H8.864l-1.456-1.456v-.793l.265-.265H9.79l.793.794v.926H12.7v-.662l-.926-.926h.926v.926l2.117-2.116V6.218l-1.059 1.058v.53L12.7 8.863v.396h-.926l-1.19-1.19v-.397h1.058v.132l1.058 1.06V7.408h-1.058v.265h-1.059V5.424L9.525 6.482V3.704h4.233v1.588h1.059v.132l1.058 1.058v1.323l.661.662h.397V5.689L15.875 4.63V1.72l-.661-.662h-1.456v2.646H9.525z"/><path style="display:inline;fill:#7b7b7b;fill-opacity:1;stroke-width:.264999" d="M15.875 1.72c.025.094 1.058 1.058 1.058 1.058v2.91L15.875 4.63v3.175l.53.53.131.132h-.264l-.662.661h2.117l-.661-.661h2.645l1.456 1.455v.794l-.133-.133h-.264v3.704l1.455 1.456v1.323l-2.117-2.117h-3.175v.794l3.97 3.968.131.133-1.323 1.323-4.233-4.234h-.264l-1.72 1.72v.265l3.307 3.307-1.852 1.852H12.7V23.02h.926l1.19-1.19H12.7v1.19h-.926l-1.19-1.19v-.53l1.19-1.19h.926v1.72h2.117v-.53l-1.191-1.19H12.7v-3.44h1.984l.397-.397H12.7v.397h-1.984l-2.25-2.25v-1.322l2.117-2.117v-.132H12.7v.794h-.661l-1.456 1.455v1.323l1.456 1.455h.661v.397h2.381l1.852-1.852v.529h3.175v-1.323l.662.661v-3.704l-1.72 1.72v.265l-.132-.133-.53-.529h-.793l-.662.662v.529l-1.455-1.455h1.058l1.456-1.456v-.793l-.265-.265H15.61l-.793.794v.926H12.7v-.662l.926-.926H12.7v.926L10.583 8.07V6.218l1.059 1.058v.53L12.7 8.863v.396h.926l1.19-1.19v-.397h-1.058v.132L12.7 8.864V7.408h1.058v.265h1.059V5.424l1.058 1.058V3.704h-4.233v1.588h-1.059v.132L9.525 6.482v1.323l-.661.662h-.397V5.689L9.525 4.63V1.72l.661-.662h1.456v2.646h4.233z"/><path style="display:inline;fill:#6974c4;fill-opacity:1;stroke-width:.264999" d="M8.731 8.467h-.397l-.926.926v.793l1.059 1.059H5.292l-.662-.662h-.264l-.133.133-3.175 3.175v.264l1.72 1.72h.265l3.307-3.307v2.91l-.661-.661h-.265l-4.63 4.63v.264l1.72 1.72h.264l4.63-4.63v2.646l-2.116 2.117v.264l1.72 1.72h.264l4.63-4.63v-.265l-1.72-1.72h-.264l-2.514 2.514v-2.91l-1.058-1.06v-2.91h4.762l-.529.529v1.323l1.456 1.455h.661V13.89h4.233v1.852l.926.926.133.132v-.265l1.72-1.72h.264l.132.133v-1.323l-.132-.132-1.587-1.588h-.794l-.662.662v1.323H12.7v-2.25h-.661l-.927.927H6.35v-.265l-1.058-1.058h3.175l.397.397h1.058l.661-.662V9.922L9.128 8.467Z"/><path style="display:inline;fill:#8aa3f4;fill-opacity:1;stroke-width:.264999" d="M16.669 8.467h.397l.926.926v.793l-1.059 1.059h3.175l.662-.662h.264l.133.133 3.175 3.175v.264l-1.72 1.72h-.265l-3.307-3.307v2.91l.661-.661h.265l4.63 4.63v.264l-1.72 1.72h-.264l-4.63-4.63v2.646l2.116 2.117v.264l-1.72 1.72h-.264l-4.63-4.63v-.265l1.72-1.72h.264l2.514 2.514v-2.91l1.058-1.059v-2.91h-4.763l.53.529v1.323l-1.456 1.455H12.7v-1.984H8.467v1.852l-.926.926-.133.132v-.265l-1.72-1.72h-.264l-.132.133v-1.323l.132-.132 1.587-1.588h.794l.662.662v1.323H12.7v-2.25h.661l.926.927h4.763v-.265l1.058-1.058h-3.175l-.397.397h-1.058l-.661-.662V9.922l1.455-1.455z"/><path style="display:inline;fill:#2c2d38;fill-opacity:1;stroke-width:.264999" d="M10.583 5.292h4.234v.926l-1.059 1.058v.132h-2.116v-.132l-1.059-1.058Z"/></g></svg>