<svg width="96" height="96" viewBox="0 0 25.4 25.4" xml:space="preserve" xmlns:xlink="http://www.w3.org/1999/xlink" xmlns="http://www.w3.org/2000/svg"><defs><linearGradient id="b"><stop style="stop-color:#fff;stop-opacity:.89999998" offset=".19"/><stop style="stop-color:#fff;stop-opacity:0" offset="1"/></linearGradient><linearGradient id="a"><stop style="stop-color:#fff;stop-opacity:.89999998" offset=".431"/><stop style="stop-color:#fff;stop-opacity:0" offset="1"/></linearGradient><linearGradient xlink:href="#a" id="f" x1="10.583" y1="3.307" x2="7.276" y2="6.879" gradientUnits="userSpaceOnUse"/><linearGradient xlink:href="#b" id="d" x1="11.906" y1="5.953" x2="10.583" y2="10.319" gradientUnits="userSpaceOnUse"/><linearGradient xlink:href="#b" id="c" gradientUnits="userSpaceOnUse" x1="11.906" y1="5.953" x2="10.583" y2="10.319" gradientTransform="matrix(-1 0 0 1 25.4 0)"/><linearGradient xlink:href="#a" id="e" gradientUnits="userSpaceOnUse" x1="10.583" y1="3.307" x2="7.276" y2="6.879" gradientTransform="matrix(-1 0 0 1 25.4 0)"/></defs><g style="display:inline"><path style="display:inline;fill:url(#c);fill-opacity:1;stroke-width:.264583" d="m14.287 5.16-.264.264v.265l-.926.926H12.7v5.027h.53l.66-.794h.265l.132-.132z"/><path style="display:inline;fill:url(#d);fill-opacity:1;stroke-width:.264583" d="m11.112 5.16.265.264v.265l.926.926h.397v5.027h-.53l-.66-.794h-.265l-.133-.132z"/><path style="display:inline;fill:url(#e);fill-opacity:1;stroke-width:.264583" d="M16.933 4.233h-.661l-1.058-1.058h-.133v.794h-.132l-.132.132v.265l-.53.529v5.82l2.646-2.645z"/><path style="display:inline;fill:url(#f);fill-opacity:1;stroke-width:.264583" d="M8.467 4.233h.661l1.058-1.058h.133v.794h.132l.132.132v.265l.53.529v5.82L8.466 8.07Z"/><path style="display:inline;fill:#fff;fill-opacity:.898039;stroke-width:.264583" d="M12.7 6.615V5.292h1.058V1.058h1.456l1.72 1.72v1.455h-.662l-1.058-1.058h-.133v.794h-.132l-.132.132v.265l-.265.264-.265.265v.264l-.264.265v.265l-.265.264-.661.662zm0 0V5.292h-1.058V1.058h-1.456l-1.72 1.72v1.455h.662l1.058-1.058h.133v.794h.132l.132.132v.265l.265.264.264.265v.264l.265.265v.265l.265.264.661.662z"/></g></svg>