<svg xmlns="http://www.w3.org/2000/svg" width="32" height="32" style="fill-opacity:1;color-rendering:auto;color-interpolation:auto;text-rendering:auto;stroke:#000;stroke-linecap:square;stroke-miterlimit:10;shape-rendering:auto;stroke-opacity:1;fill:#000;stroke-dasharray:none;font-weight:400;stroke-width:1;font-family:&quot;Dialog&quot;;font-style:normal;stroke-linejoin:miter;font-size:12px;stroke-dashoffset:0;image-rendering:auto">
    <g style="stroke-linecap:round;fill:#c9a58f;stroke:#c9a58f">
        <path stroke="none" d="M4 21.5v-5L7.5 13H8v12.5l-.5-.5H7v-.5Z" style="stroke:none"/>
    </g>
    <g stroke="none" style="stroke-linecap:round;fill:#c1c3d4;stroke:#c1c3d4">
        <path d="M8 13.5v-4L11.5 6l.5.5v3l3.5 3.5h.5v4h-4.5Z" style="stroke:none"/>
        <path d="M11.5 17H16v.5l4 4v3L16.5 28l-.5-.5v-9l-.5-.5-3.5 3.5v3l4.5 4.5H11v-.5L8.5 26H8V13.5Zm.5-7.5v-3l-.5-.5 3-3H16v10h-.5Z" style="fill:#8f665b;stroke:none"/>
        <path d="M12 24.5v-3l3.5-3.5.5.5v9l.5.5 3.5-3.5v-3l-4-4V17h4.5l3.5-3.5V26h-.5l-3 3h-4ZM16.5 13H16V3h1.5l3 3-.5.5v3Z" style="fill:#c9a58f;stroke:none"/>
        <path d="M16 17v-4h.5L20 9.5v-3l.5-.5L24 9.5v4L20.5 17Z" style="fill:#f4f4f4;stroke:none"/>
        <path d="M28 16.5V22h-.5L25 24.5v.5h-.5l-.5.5v-13Z" style="fill:#8f665b;stroke:none"/>
    </g>
</svg>
