<svg xmlns="http://www.w3.org/2000/svg" width="64" height="64" style="fill-opacity:1;color-rendering:auto;color-interpolation:auto;text-rendering:auto;stroke:#000;stroke-linecap:square;stroke-miterlimit:10;shape-rendering:auto;stroke-opacity:1;fill:#000;stroke-dasharray:none;font-weight:400;stroke-width:1;font-family:&quot;Dialog&quot;;font-style:normal;stroke-linejoin:miter;font-size:12px;stroke-dashoffset:0;image-rendering:auto">
    <g style="stroke-linecap:round;fill:#6974c4;stroke:#6974c4">
        <path stroke="none" d="M7 53.5v-11l8-8v-4l4-4v3l.5.5 3.5-3.5v-11l5-5v11L25.5 24l1 1H28v3.5l-2 2v4L23.5 37l-.5-.5v-4l-.5-.5-8.5 8.5v2l5 5v4l4.5 4.5-4 4h-6Z" style="stroke:none"/>
    </g>
    <g stroke="none" style="stroke-linecap:round;fill:#6974c4;stroke:#6974c4">
        <path d="m9 50.5 6 6 4-4-6-6Z" style="stroke:none"/>
        <path d="m9 50.5 4-4 6 6-4 4Zm5-8v-2l8.5-8.5.5.5v4l.5.5-4.5 4.5v6ZM19.5 30l-.5-.5v-7l4-4v8Z" style="fill:#c1c3d4;stroke:none"/>
        <path d="M19 51.5v-10l7-7V32h6v8h-3.5L24 44.5v12Z" style="fill:#8aa3f4;stroke:none"/>
        <path d="M24 51.5v-7l4.5-4.5H32v6h-2.5Z" style="fill:#c1c3d4;stroke:none"/>
        <path d="M24 57.5v-6l5.5-5.5H32v14h-5.5Z" style="stroke:none"/>
        <path d="m26.5 25-1-1 2.5-2.5V21h4v4Zm-.5 7v-1.5l2-2V28h4v4Zm2-17.5v-6L31.5 5h.5v13h-.5Z" style="fill:#c1c3d4;stroke:none"/>
        <path d="M31.5 18h.5v3h-4v-6.5ZM28 28v-3h4v3Z" style="fill:#8aa3f4;stroke:none"/>
        <path d="M36 8.5v6L32.5 18H32V5h.5Z" style="fill:#f4f4f4;stroke:none"/>
        <path d="M32 21v-3h.5l3.5-3.5V21Z" style="stroke:none"/>
        <path d="M32 25v-4h4v.5l2.5 2.5-1 1Z" style="fill:#f4f4f4;stroke:none"/>
        <path d="M32 28v-3h4v3Z" style="stroke:none"/>
        <path d="M32 32v-4h4v.5l2 2V32Z" style="fill:#f4f4f4;stroke:none"/>
        <path d="M32 40v-8h6v2.5l7 7v10L40.5 56l-.5-.5v-11L35.5 40Z" style="stroke:none"/>
        <path d="M32 46v-6h3.5l4.5 4.5v7L34.5 46Z" style="fill:#f4f4f4;stroke:none"/>
        <path d="M32 60V46h2.5l5.5 5.5v6L37.5 60Z" style="fill:#8aa3f4;stroke:none"/>
        <path d="M41 15.5v11l3.5 3.5.5-.5v-3l4 4v4l8 8v11L50.5 60h-6l-4-4 4.5-4.5v-4l5-5v-2L41.5 32l-.5.5v4l-.5.5-2.5-2.5v-4l-2-2V25h1.5l1-1-2.5-2.5v-11Z" style="fill:#8aa3f4;stroke:none"/>
        <path d="M45 22.5v7l-.5.5-3.5-3.5v-8Zm5 18v2l-5 5v-6L40.5 37l.5-.5v-4l.5-.5Zm-5 12 6-6 4 4-6 6Z" style="fill:#f4f4f4;stroke:none"/>
        <path d="m49 56.5 6-6-4-4-6 6Z" style="fill:#8aa3f4;stroke:none"/>
    </g>
</svg>
