<svg width="64" height="64" viewBox="0 0 16.933 16.933" xml:space="preserve" xmlns="http://www.w3.org/2000/svg"><g style="fill:#f4f4f4;fill-opacity:1"><path style="fill:#f4f4f4;fill-opacity:1;stroke-width:.264583" d="M8.467 1.058h.264l.794 1.059v1.455l-.926.926h-.132v.794h.661l.926.926v.132H8.467v1.058h.397l.661.662v.397H8.467v2.116h1.455l.661.662v3.572h-.397l-.661-.662v-1.587l-1.058-1.059Z"/><path style="fill:#c1c3d4;fill-opacity:1;stroke-width:.264583" d="M8.467 1.058h-.265l-.794 1.059v1.455l.926.926h.133v.794h-.662l-.926.926v.132h1.588v1.058H8.07l-.662.662v.397h1.059v2.116H7.01l-.661.662v3.572h.397l.661-.662v-1.587l1.059-1.059z"/><path style="fill:#8aa3f4;fill-opacity:1;stroke-width:.264583" d="m9.525 2.514 1.058 1.058v1.852l1.191 1.19.132.133v.264l1.059 1.059v1.323l1.852 1.852v2.91l-1.059 1.059v-.794l-.793-.794v-.53l.529-.528v-.794l-1.19-1.19h-.795l-.793-.794H9.525V8.07l-.661-.662h-.397V6.35h1.587v-.265.133l-.926-.926h-.661v-.794h.132l.926-.926Z"/><path style="display:inline;fill:#6974c4;fill-opacity:1;stroke-width:.264583" d="M8.467 8.467h1.058V9.79h1.19l.794.793h.133v3.572l.661.662h1.455v.397l-.661.661h-1.323l-1.19-1.19v-3.44l-.662-.662H8.467Z"/><path style="fill:#8aa3f4;fill-opacity:1;stroke-width:.264583" d="M8.467 11.642h.132l.926.926v1.587l.661.662h.397v.397l-.661.661H8.467Z"/><path style="fill:#f4f4f4;fill-opacity:1;stroke-width:.264583" d="M8.467 10.583h1.455l.661.662v3.572h-.397l-.661-.662v-1.587l-.926-.926h-.132v-1.059m3.175 0h.661l1.19 1.191v.794l-.528.529v.529l.793.794v.397h-1.455l-.661-.662z"/><path style="fill:#6974c4;fill-opacity:1;stroke-width:.264583" d="M7.408 2.514 6.35 3.572v1.852l-1.19 1.19-.133.133v.264L3.97 8.07v1.323l-1.852 1.852v2.91l1.058 1.059v-.794l.794-.794v-.53l-.53-.528v-.794l1.191-1.19h.794l.794-.794h1.19V8.07l.662-.662h.397V6.35H6.879v-.265.133l.926-.926h.662v-.794h-.133l-.926-.926Z"/><path style="display:inline;fill:#8aa3f4;fill-opacity:1;stroke-width:.264583" d="M8.467 8.467H7.408V9.79h-1.19l-.794.793h-.132v3.572l-.662.662H3.175v.397l.661.661H5.16l1.191-1.19v-3.44l.661-.662h1.456z"/><path style="fill:#6974c4;fill-opacity:1;stroke-width:.264583" d="M8.467 11.642h-.133l-.926.926v1.587l-.661.662H6.35v.397l.661.661h1.456z"/><path style="fill:#c1c3d4;fill-opacity:1;stroke-width:.264583" d="M5.292 10.583H4.63l-1.19 1.191v.794l.529.529v.529l-.794.794v.397H4.63l.662-.662z"/></g></svg>