<svg width="64" height="64" viewBox="0 0 16.933 16.933" xml:space="preserve" xmlns:xlink="http://www.w3.org/1999/xlink" xmlns="http://www.w3.org/2000/svg"><defs><linearGradient id="a"><stop style="stop-color:#fff;stop-opacity:1" offset="0"/><stop style="stop-color:#fff;stop-opacity:0" offset="1"/></linearGradient><linearGradient xlink:href="#a" id="b" x1="8.467" y1="1.058" x2="8.599" y2="14.287" gradientUnits="userSpaceOnUse"/></defs><g style="display:inline"><path style="fill:url(#b);fill-opacity:1;stroke-width:.264999" d="m8.334 1.058-.926.926v1.588l.53.529-.794.794v.397h1.323V6.35H7.54l-.662.661v.397h1.588v2.117h-1.19l-.926.926v2.91l.926.926h.132v-3.571l.133-.133h1.852l.132.133v3.571h.132l.926-.926v-2.91l-.926-.926h-1.19V7.408h1.587v-.397l-.661-.661h-.926V5.292H9.79v-.397L8.996 4.1l.529-.53V1.985l-.926-.926Z"/></g></svg>