<svg width="128" height="128" viewBox="0 0 33.867 33.867" xml:space="preserve" xmlns="http://www.w3.org/2000/svg"><g style="display:inline"><path style="display:inline;fill:#ff9c5a;fill-opacity:1;stroke-width:.264583" d="M9.525 28.707 8.467 27.65v-2.91l-1.852-1.853V20.77l1.852-1.852v-3.175l1.058-1.059h2.117V4.895l.926-.926.132-.133v4.498l-1.058 1.059v2.116l1.058-1.058v4.498l.794.794v1.852l-1.852-1.852v-1.059H9.525v4.366h-.132l-2.778 2.778 2.778 2.778h.132v3.969H25.4v-.926l2.117-2.117v-2.116l.793-.794v-1.588l-.793-.793v-2.382L25.4 15.743h-2.117v-9.79l-1.058-1.058v4.498l1.058 1.058v2.117l-1.058-1.059v4.234l-1.852 1.852v1.852l2.91-2.91v-.794H25.4v3.175l1.852 1.852v2.116L25.4 24.74v3.835H9.525Z"/><path style="display:inline;fill:#7b7b7b;fill-opacity:1;stroke-width:.264583" d="m11.642 9.393-1.059 1.058v2.117l1.059-1.059z"/><path style="display:inline;fill:#4d4e58;fill-opacity:1;stroke-width:.264583" d="m29.633 10.186 1.059 1.059v16.933l-1.059 1.058v-6.085l-1.058-1.058v-1.059l1.323 1.323V20.77l-1.323-1.323v-1.588l1.323 1.323V17.86l-1.058-1.058h-4.498v2.381l-1.059-1.058v6.481h1.059v4.101l-1.059-1.058v2.91l-1.72 1.72h-1.586l3.175-3.175.132-.132v-1.323h-2.38v.265l-3.97-3.97v1.324l1.852 1.852.133.132-1.852 1.852-.133.132v1.853l-1.72-1.72h-2.778l.794.926-.661.661-1.985-1.984v1.587l1.72 1.72h1.588l-.794-.794-.53-.529.662-.661 2.117 2.116v.397h-5.16l-4.894-4.894v-6.88L3.97 22.357v-.132h-.794v5.953l-2.117-2.117V16.007l1.059-1.058v-2.117l1.058-1.058v10.451h.794V20.77l1.323-1.323v-1.588L3.97 19.182V17.86l5.556-5.556V7.276l1.058-1.058v4.498h1.059V9.393L12.7 8.334v2.117l-1.058 1.058v-.793h-1.059v5.027l-1.058-1.059L6.35 17.86v2.382l-.794.793v1.588l.794.794v2.116l3.175 3.175 1.058-1.058v-2.117l-.926-.926h-.264l-2.778-2.778 2.778-2.778h.132v.661l-2.117 2.117 2.117 2.117V19.05h.132l.926-.926v-1.588l2.91 2.91v-3.703l-.793-.794v-2.117l2.117 2.117v-1.852l-1.059-1.058V9.657L14.817 8.6V2.646H12.7v1.19l-2.117 2.117V3.307l2.25-2.249h1.322L12.7 2.514v.132h2.117V1.058h.132l.926.926v.662h3.175V1.058h.661l1.456 1.456v10.318L19.05 14.95v-1.852l1.058-1.058V9.657L19.05 8.6V2.646h-3.175v3.307l1.058 1.058v2.117l-1.058 1.058v.794l1.058 1.059v2.645l-2.645 2.646v2.25h-1.985l.397-.398-.926-.926-1.19 1.19V21.3l1.72-1.72h2.116l1.058-1.058.132-.132v4.233H12.7l-.926-.926-1.19 1.19v1.72l2.116-1.984h2.91v.794l-2.645 2.645v1.853l3.968-3.97v1.324l-1.984 1.984 1.984 1.984V14.684l2.646 2.646v2.381l-1.323-1.322v5.027l2.646 2.645v1.588h2.381v-2.117l.926-.926h-.926v.133l-.132-.133-1.984-1.984.926-.926 1.19 1.19V21.3l-2.116-2.117.926-.926 1.19 1.19v-3.703l1.059-1.059v2.117h4.498l.793-.794z"/><path style="display:inline;fill:#7b7b7b;fill-opacity:1;stroke-width:.264583" d="m4.233 10.186-1.058 1.059v16.933l1.058 1.058v-6.085l1.059-1.058v-1.059l-1.323 1.323V20.77l1.323-1.323v-1.588l-1.323 1.323V17.86l1.058-1.058h4.498v2.381l1.058-1.058v6.481H9.525v4.101l1.058-1.058v2.91l1.72 1.72h1.72l-3.307-3.175-.133-.132v-1.323h2.382v.265l3.968-3.97v1.324l-1.852 1.852-.132.132 1.852 1.852.132.132v1.853l1.72-1.72h2.778l-.794.926.662.661 1.984-1.984v1.587l-1.72 1.72h-1.587l.794-.794.529-.529-.662-.661-2.116 2.116v.397h5.16l4.894-4.894v-6.88l1.323 1.323v-.132h.794v5.953l2.116-2.117V16.007L31.75 14.95v-2.117l-1.058-1.058v10.451h-.794V20.77l-1.323-1.323v-1.588l1.323 1.323V17.86l-5.556-5.556V7.276l-1.059-1.058v4.498h-1.058V9.393l-1.058-1.059v2.117l1.058 1.058v-.793h1.058v5.027l1.059-1.059 3.175 3.175v2.382l.793.793v1.588l-.793.794v2.116l-3.175 3.175-1.059-1.058v-2.117l.926-.926h.265l2.778-2.778-2.778-2.778h-.132v.661l2.116 2.117-2.116 2.117V19.05h-.133l-.926-.926v-1.588l-2.91 2.91v-3.703l.794-.794v-2.117L19.05 14.95v-1.852l1.058-1.058V9.657L19.05 8.6V2.646h2.117v1.19l2.116 2.117V3.307l-2.249-2.249h-1.323l1.456 1.456v.132H19.05V1.058h-.132l-.926.926v.662h-3.175V1.058h-.662L12.7 2.514v10.318l2.117 2.117v-1.852l-1.059-1.058V9.657L14.817 8.6V2.646h3.175v3.307l-1.059 1.058v2.117l1.059 1.058v.794l-1.059 1.059v2.645l2.646 2.646v2.25h1.985l-.397-.398.926-.926 1.19 1.19V21.3l-1.72-1.72h-2.116l-1.058-1.058-.133-.132v4.233h2.91l.927-.926 1.19 1.19v1.853l-2.116-2.117h-2.91v.794l2.645 2.645v1.853l-3.969-3.97v1.324l1.985 1.984-1.985 1.984V14.684l-2.646 2.646v2.381l1.323-1.322v5.027l-2.645 2.645v1.588h-2.382v-2.117l-.926-.926h.926l2.117-1.984-.926-.926-1.19 1.19V21.3l2.116-2.117-.926-.926-1.19 1.19v-3.703l-1.059-1.059v2.117H5.027l-.794-.794z"/><path style="display:inline;fill:#4d4e58;fill-opacity:1;stroke-width:.264583" d="m22.225 9.393 1.058 1.058v2.117l-1.058-1.059V9.393"/><path style="fill:#ec7458;fill-opacity:1;stroke-width:.264583" d="M24.342 28.707 25.4 27.65v-2.91l1.852-1.853V20.77L25.4 18.918v-3.175l-1.058-1.059h-2.117V4.895l-.926-.926-.132-.133v4.498l1.058 1.059v2.116l-1.058-1.058v4.498l-.794.794v1.852l1.852-1.852v-1.059h2.117v4.366h.132l2.778 2.778-2.778 2.778h-.132v3.969H8.467v-.926L6.35 25.532v-2.116l-.794-.794v-1.588l.794-.793v-2.382l2.117-2.116h2.116v-9.79l1.059-1.058v4.498l-1.059 1.058v2.117l1.059-1.059v4.234l1.852 1.852v1.852l-2.91-2.91v-.794H8.466v3.175L6.615 20.77v2.116l1.852 1.853v3.836h15.875Z"/><path style="fill:#ec7458;fill-opacity:1;stroke-width:.264583" d="m9.525 23.945-2.117-2.117 2.117-2.117Z"/><path style="fill:#ff9c5a;fill-opacity:1;stroke-width:.264583" d="m24.342 23.945 2.116-2.117-2.116-2.117z"/></g></svg>