<svg width="128" height="128" viewBox="0 0 33.867 33.867" xml:space="preserve" xmlns:xlink="http://www.w3.org/1999/xlink" xmlns="http://www.w3.org/2000/svg"><defs><linearGradient id="a"><stop style="stop-color:#fff;stop-opacity:1" offset="0"/><stop style="stop-color:#fff;stop-opacity:.30208325" offset="1"/></linearGradient><linearGradient id="b"><stop style="stop-color:#fff;stop-opacity:1" offset="0"/><stop style="stop-color:#fff;stop-opacity:.3019608" offset="1"/></linearGradient><linearGradient xlink:href="#a" id="c" x1="17.198" y1="1.323" x2="23.151" y2="14.945" gradientUnits="userSpaceOnUse"/><linearGradient xlink:href="#b" id="d" gradientUnits="userSpaceOnUse" x1="17.198" y1="1.323" x2="23.151" y2="14.945" gradientTransform="matrix(-1 0 0 1 33.867 0)"/></defs><g style="display:inline"><path style="display:inline;fill:url(#c);fill-opacity:1;stroke-width:.264999" d="M16.933 6.88h.133l.926-.927V1.984l.926-.926h2.116l2.25 2.25v2.91l1.058 1.058v5.027l.264.265-.397.397h-.529l-2.38-2.382-.132.133v4.233l-.662.661h-.264l-.53.53h-.264l-.794.793h-.264l-.265.265h-1.19v-5.292h.132l.926-.926v-.794l-.926-.926h-.133z"/><path style="display:inline;fill:url(#d);fill-opacity:1;stroke-width:.264999" d="M16.933 6.88h-.132l-.926-.927V1.984l-.926-.926h-2.117l-2.249 2.25v2.91L9.525 7.276v5.027l-.265.265.397.397h.53l2.38-2.382.133.133v4.233l.661.661h.265l.53.53h.264l.794.793h.264l.265.265h1.19v-5.292h-.132l-.926-.926v-.794l.926-.926h.132z"/></g></svg>