<svg xmlns="http://www.w3.org/2000/svg" width="128" height="128" style="fill-opacity:1;color-rendering:auto;color-interpolation:auto;text-rendering:auto;stroke:#000;stroke-linecap:square;stroke-miterlimit:10;shape-rendering:auto;stroke-opacity:1;fill:#000;stroke-dasharray:none;font-weight:400;stroke-width:1;font-family:&quot;Dialog&quot;;font-style:normal;stroke-linejoin:miter;font-size:12px;stroke-dashoffset:0;image-rendering:auto">
    <g style="stroke-linecap:round;fill:#4d4e58;stroke:#4d4e58">
        <path stroke="none" d="M4 98.5v-38l4-4v-8l4-4v61l-.5.5Z" style="stroke:none"/>
    </g>
    <g stroke="none" style="stroke-linecap:round;fill:#7b7b7b;stroke:#7b7b7b">
        <path d="m11.5 106 .5-.5v-63l3.5-3.5.5.5v21l3 3-4 4v4l.5.5 4-4 .5.5v5l-5 5v5l.5.5 4-4 .5.5v3l-4 4v22l-.5.5Z" style="stroke:none"/>
        <path d="m15.5 72-.5-.5v-4l21-21v-19l4-4v36L36.5 56h-1L24 67.5v9l-3 3v6l3 3v8L35.5 108h1l3.5-3.5v-8L36.5 93h-1L25 82.5 35.5 72h1l3.5-3.5v-6L50.5 73l.5-.5v-13l-3-3v-8l7.5 7.5.5-.5v-6l-4-4v-9l4-4V4h.5L60 7.5v15l3.5 3.5h.5v9h-.5L60 38.5v3l3.5 3.5h.5v10.5l10 10v8l-.5.5-4-4-.5.5v18l10 10v6l-.5.5L64 90.5v-34l-.5-.5-9.5 9.5v8l.5.5 4-4 .5.5v18l-10 10v6l.5.5 14-14 .5.5v4l7.5 7.5-7 7-.5-.5v-13l-.5-.5-7 7 7.5 7.5v6.5h-.5l-6-6h-10l-.5.5 11 11v1.5H38.5L20 105.5v-25l-.5-.5-4 4-.5-.5v-5l5-5v-5l-.5-.5Z" style="fill:#4d4e58;stroke:none"/>
        <path d="M21 85.5v-6l3-3v-9l7.5-7.5.5.5v11l-7 7v8l7 7v10l-.5.5-7.5-7.5v-8Z" style="fill:#ec7458;stroke:none"/>
        <path d="M25 82.5v-4l7-7v-11l-.5-.5 4-4h.5v16h-.5ZM35.5 93h.5v15h-.5l-4-4 .5-.5v-10l-7-7v-4Z" style="fill:#ff9c5a;stroke:none"/>
        <path d="m35.5 90 .5-.5v-14l-.5-.5-7.5 7.5Z" style="fill:#4d4e58;stroke:none"/>
        <path d="m28 82.5 7.5-7.5.5.5v14l-.5.5Z" style="fill:#ec7458;stroke:none"/>
        <path d="M40 59.5v9L36.5 72H36V56h.5Zm0 37v8l-3.5 3.5H36V93h.5Z" style="stroke:none"/>
        <path d="M40 73.5v6l.5.5 7.5-7.5-3.5-3.5Zm0 13v6l.5.5 7.5-7.5-3.5-3.5Zm0 24v5l6.5 6.5h5l.5-.5L40.5 110Zm0-88v-10L48.5 4h5L48 9.5v5Z" style="fill:#4d4e58;stroke:none"/>
        <path d="M40 39.5v-17l3.5-3.5.5.5v16Z" style="fill:#ec7458;stroke:none"/>
        <path d="M40 47.5v-8l4-4v8Z" style="stroke:none"/>
        <path d="M40 62.5v-15l4-4v16l7 7v6l-.5.5Z" style="fill:#ec7458;stroke:none"/>
        <path d="m40.5 80-.5-.5v-6l4.5-4.5 3.5 3.5Zm0 13-.5-.5v-6l4.5-4.5 3.5 3.5ZM52 121.5l-.5.5h-5l-6.5-6.5v-5l.5-.5Z" style="stroke:none"/>
        <path d="M44 35.5v-16l-.5-.5 4.5-4.5v17Z" style="fill:#ff9c5a;stroke:none"/>
        <path d="M44 43.5v-8l4-4v8Z" style="fill:#4d4e58;stroke:none"/>
        <path d="M44 59.5v-16l4-4v17l3 3v7Z" style="fill:#ff9c5a;stroke:none"/>
        <path d="M48 48.5v-39L53.5 4H56v28.5l-4 4v9l4 4v6l-.5.5Zm1.5 56.5-.5-.5v-6l10-10v-18l-.5-.5-4 4-.5-.5v-8l9.5-9.5.5.5v34L78.5 105l.5-.5v-6l-10-10v-18l.5-.5 4 4 .5-.5v-8l-10-10V45h.5l3.5-3.5v-3L64.5 35H64v-9h.5l3.5-3.5v-15L71.5 4h.5v28.5l4 4v9l-4 4v6l.5.5 7.5-7.5v8l-3 3v13l.5.5L88 62.5v6l3.5 3.5h1L103 82.5 92.5 93h-1L88 96.5v8l3.5 3.5h1L104 96.5v-8l3-3v-6l-3-3v-9L92.5 56h-1L88 59.5v-36l4 4v19l21 21v4l-.5.5-4-4-.5.5v5l5 5v5l-.5.5-4-4-.5.5v25L89.5 124H70v-1.5l11-11-.5-.5h-10l-6 6H64v-6.5l-7.5-7.5 7-7 .5.5v13l.5.5 7-7-7.5-7.5v-4l-.5-.5Z" style="stroke:none"/>
        <path d="M72 32.5V4h2.5L80 9.5v39L72.5 56l-.5-.5v-6l4-4v-9Z" style="fill:#4d4e58;stroke:none"/>
        <path d="M74.5 4h5l8.5 8.5v10l-8-8v-5ZM76 121.5l.5.5h5l6.5-6.5v-5l-.5-.5Z" style="stroke:none"/>
        <path d="m76.5 122-.5-.5L87.5 110l.5.5v5l-6.5 6.5Z" style="fill:#4d4e58;stroke:none"/>
        <path d="M77 66.5v-7l3-3v-17l4 4v16Z" style="fill:#ec7458;stroke:none"/>
        <path d="m77.5 73-.5-.5v-6l7-7v-16l4 4v15Z" style="fill:#ff9c5a;stroke:none"/>
        <path d="m80 85.5 7.5 7.5.5-.5v-6L83.5 82Z" style="stroke:none"/>
        <path d="m84.5 19-.5.5v16l-4-4v-17Z" style="fill:#ec7458;stroke:none"/>
        <path d="M84 35.5v8l-4-4v-8Z" style="stroke:none"/>
        <path d="m80 72.5 3.5-3.5 4.5 4.5v6l-.5.5Z" style="fill:#4d4e58;stroke:none"/>
        <path d="m87.5 80 .5-.5v-6L83.5 69 80 72.5Z" style="stroke:none"/>
        <path d="m80 85.5 3.5-3.5 4.5 4.5v6l-.5.5Z" style="fill:#4d4e58;stroke:none"/>
        <path d="M88 22.5v17l-4-4v-16l.5-.5Z" style="fill:#ff9c5a;stroke:none"/>
        <path d="M88 39.5v8l-4-4v-8Zm0 29v-9l3.5-3.5h.5v16h-.5Zm0 36v-8l3.5-3.5h.5v15h-.5Z" style="fill:#4d4e58;stroke:none"/>
        <path d="M92 75.5v14l.5.5 7.5-7.5-7.5-7.5Z" style="stroke:none"/>
        <path d="m96.5 60-.5.5v11l7 7v4L92.5 72H92V56h.5Z" style="fill:#ec7458;stroke:none"/>
        <path d="M100 82.5 92.5 90l-.5-.5v-14l.5-.5Z" style="fill:#ff9c5a;stroke:none"/>
        <path d="M92.5 108H92V93h.5L103 82.5v4l-7 7v10l.5.5Z" style="fill:#ec7458;stroke:none"/>
        <path d="M104 67.5v9l3 3v6l-3 3v8l-7.5 7.5-.5-.5v-10l7-7v-8l-7-7v-11l.5-.5Z" style="fill:#ff9c5a;stroke:none"/>
        <path d="m112.5 72 .5-.5v-4l-4-4 3-3v-21l.5-.5 3.5 3.5v63l.5.5-4 4-.5-.5v-22l-4-4v-3l.5-.5 4 4 .5-.5v-5l-5-5v-5l.5-.5Z" style="fill:#4d4e58;stroke:none"/>
        <path d="M120 48.5v8l4 4v38l-7.5 7.5-.5-.5v-61Z" style="stroke:none"/>
    </g>
</svg>
