<svg width="96" height="96" viewBox="0 0 25.4 25.4" xml:space="preserve" xmlns:xlink="http://www.w3.org/1999/xlink" xmlns="http://www.w3.org/2000/svg"><defs><linearGradient id="a"><stop style="stop-color:#fff;stop-opacity:1" offset="0"/><stop style="stop-color:#fff;stop-opacity:0" offset="1"/></linearGradient><linearGradient xlink:href="#a" id="b" x1="12.7" y1="1.058" x2="12.7" y2="12.171" gradientUnits="userSpaceOnUse"/></defs><g style="display:inline"><path style="fill:url(#b);fill-opacity:1;stroke-width:.264999" d="M14.155 1.058h-2.91l-.662.662v1.323L9.525 4.1v3.97l-.265.264V8.6l.794.794.132.132h.265l.53.53h.264l.264.264.133.132v.926h2.116v-.926l.397-.397h.265l.529-.529h.265l.926-.926v-.265l-.265-.264V4.1l-1.058-1.058V1.72Z"/><path style="fill:#fff;fill-opacity:.0784314;stroke-width:.264999" d="M11.642 11.377v4.63l-.265.265v1.058l.265.265v1.058l-1.059 1.058v1.059l1.191 1.19h.265l.529-.529h.264l.53.53h.264l1.19-1.191v-1.06l-1.058-1.058v-1.058l.265-.265v-1.058l-.265-.265v-4.63z"/></g></svg>