<svg xmlns="http://www.w3.org/2000/svg" width="96" height="96" style="fill-opacity:1;color-rendering:auto;color-interpolation:auto;text-rendering:auto;stroke:#000;stroke-linecap:square;stroke-miterlimit:10;shape-rendering:auto;stroke-opacity:1;fill:#000;stroke-dasharray:none;font-weight:400;stroke-width:1;font-family:&quot;Dialog&quot;;font-style:normal;stroke-linejoin:miter;font-size:12px;stroke-dashoffset:0;image-rendering:auto">
    <g style="stroke-linecap:round;fill:#4d4e58;stroke:#4d4e58">
        <path stroke="none" d="M9 55.5v-6l3-3v-14l7.5-7.5h2l6-6 .5.5V23h-.5L20 30.5V44h-5.5l-1 1 2.5 2.5-4.5 4.5 4.5 4.5-2.5 2.5 1 1h9l4-4H32v.5l2.5 2.5h2l7.5 7.5v4l-4 4v4l5 5 2.5-2.5.5.5V85h-.5l-3 3h-16l-4-4h-6l-4-4h9l4-4h5l2.5 2.5 1-1v-7L33.5 68h-6l-4-4h-9l-1 1 2.5 2.5-4.5 4.5 4.5 4.5-2 2V80h-.5L9 75.5v-6l3-3v-8Z" style="stroke:none"/>
    </g>
    <g stroke="none" style="stroke-linecap:round;fill:#7b7b7b;stroke:#7b7b7b">
        <path d="m11.5 52 4.5-4.5 4.5 4.5-4.5 4.5Zm0 20 4.5-4.5 4.5 4.5-4.5 4.5Z" style="stroke:none"/>
        <path d="m13.5 45 1-1h9l4 4H32v8h-4.5l-4 4h-9l-1-1 7-7Zm0 20 1-1h9l4 4H32v8h-4.5l-4 4H14v-1.5l6.5-6.5Z" style="fill:#ea8878;stroke:none"/>
        <path d="M20 44V30.5l7.5-7.5h.5v11.5l-.5.5-3.5-3.5-1 1v5l5 5V48h-.5l-4-4Z" style="stroke:none"/>
        <path d="M23 37.5v-5l1-1 4.5 4.5H32v7h-4v-.5Z" style="fill:#ea8878;stroke:none"/>
        <path d="m28.5 36-1-1 .5-.5V33h5.5l2.5-2.5v-15l4-4v-5L42.5 4h1l3 3H48v2.5l8.5 8.5-1 1h-4L48 15.5v-5l-.5-.5-8 8 1 1h4l3-3 .5.5v2l8.5 8.5-1 1h-4L48 24.5v-5l-.5-.5-8 8 1 1h4l3-3 .5.5v4l12 12V59h-.5L52 66.5v4l4 4v4l-5 5-3-3v-50l-.5-.5L36 41.5v-3L33.5 36Z" style="fill:#4d4e58;stroke:none"/>
        <path d="M28 48v-5h4.5l2 2H36v5.5L33.5 48Z" style="fill:#4d4e58;stroke:none"/>
        <path d="M32.5 43H32v-7h1.5l2.5 2.5V45h-1.5ZM32 56.5V48h1.5l2.5 2.5V59h-1.5Zm.5 19.5H32v-8h1.5l2.5 2.5v7l-1 1Z" style="fill:#feb380;stroke:none"/>
        <path d="M36.5 59H36V41.5L47.5 30l.5.5v50l3 3 5-5v-4l-4-4v-4l7.5-7.5h2l2.5-2.5V56h4.5l4 4h9l1-1-2.5-2.5 4.5-4.5-4.5-4.5 2.5-2.5-1-1H76V30.5l-8-8v-4l6.5 6.5h1l.5-.5 8 8v14l3 3v6l-3 3v8l3 3v6L82.5 80H82v-1.5l-2-2 4.5-4.5-4.5-4.5 2.5-2.5-1-1h-9l-4 4h-6L60 70.5v7l1 1 2.5-2.5h5l4 4h9l-4 4h-6l-4 4h-16l-3-3H48v-3.5l-.5-.5-2.5 2.5-5-5v-4l4-4v-4Z" style="stroke:none"/>
        <path d="M40 45.5v12l3.5 3.5.5-.5v-18l-.5-.5Zm.5-26.5-1-1 8-8 .5.5v5l3.5 3.5h4l1-1L48 9.5V7h1.5l3-3h1L56 6.5v5l4 4v15l2.5 2.5H68v1.5l.5.5-1 1h-5L60 38.5v3l-12-12v-4l-.5-.5-3 3h-4l-1-1 8-8 .5.5v5l3.5 3.5h4l1-1-8.5-8.5v-2l-.5-.5-3 3Z" style="stroke:none"/>
        <path d="M40 57.5v-12l3.5-3.5.5.5v18l-.5.5Z" style="fill:#4d4e58;stroke:none"/>
        <path d="M43.5 4h9l-3 3h-3Z" style="fill:#2c2d38;stroke:none"/>
        <path d="M52 42.5v18l.5.5 3.5-3.5v-12L52.5 42Z" style="fill:#4d4e58;stroke:none"/>
        <path d="M56 45.5v12L52.5 61l-.5-.5v-18l.5-.5Z" style="stroke:none"/>
        <path d="M60 45v-6.5l2.5-2.5H64v7h-.5l-2 2Z" style="fill:#ea8878;stroke:none"/>
        <path d="M60 50.5V45h1.5l2-2H68v5h-5.5Z" style="stroke:none"/>
        <path d="M60 59v-8.5l2.5-2.5H64v8.5L61.5 59Zm1 19.5-1-1v-7l2.5-2.5H64v8h-.5Z" style="fill:#ea8878;stroke:none"/>
        <path d="M64 43v-7h3.5l4.5-4.5 1 1v5l-5 5v.5Zm0 13v-8h4.5l4-4h9l1 1-7 7 7 7-1 1h-9l-4-4Zm0 20v-8h4.5l4-4h9l1 1-7 7 6.5 6.5V80h-9.5l-4-4Z" style="fill:#feb380;stroke:none"/>
        <path d="M76 30.5V44h-3.5l-4 4H68v-5.5l5-5v-5l-1-1-3.5 3.5-.5-.5v-12ZM75.5 52l4.5-4.5 4.5 4.5-4.5 4.5Zm0 20 4.5-4.5 4.5 4.5-4.5 4.5Z" style="fill:#4d4e58;stroke:none"/>
    </g>
</svg>
