<svg width="96" height="96" viewBox="0 0 25.4 25.4" xml:space="preserve" xmlns="http://www.w3.org/2000/svg"><g style="display:inline"><path style="display:inline;fill:#ea8878;fill-opacity:1;stroke-width:.264999" d="M8.467 9.525v10.583H7.276l-1.058 1.059H3.836l-.132-.133v-.264l1.588-1.588v-.264L3.704 17.33v-.264l.132-.133h2.382l1.058 1.059h1.19v-3.175.132l-.132-.132H7.276l-1.058 1.058H3.836l-.132-.132v-.265l1.588-1.587v-.265l-1.588-1.587v-.265l.132-.132h2.382l.926 1.058h1.323v-1.323H7.54L6.085 9.922V8.599l.133-.132h.264l1.059 1.058zm7.408.661v10.32l.132.131h.265l.529-.529h.132v-2.116h-.397l-.661.661V15.61h.397l.661-.661V12.7h-.397l-.661.661v-1.455h.397l.529-.529h.132V9.525h-.397z"/><path style="display:inline;fill:#4d4e58;fill-opacity:1;stroke-width:.264999" d="m7.408 4.895-1.72 1.72H5.16L3.175 8.599v3.704l-.794.794v1.587l.794.794v2.117l-.794.794v1.587l1.19 1.19h.265l-.132-.396.662-.662H4.1l-.926-.926v-.264l.926-.926h.265l-.662-.662v-.264l.132-.133h2.382l1.058 1.059h1.588l.661.661v1.852l-.132.132h-.265l-.529-.529H7.276l-1.058 1.059H3.836l.133.132.926.926h1.587l1.059 1.058h4.233l.926-.926V21.3l-.132.132-.662.662-1.323-1.323V19.71l1.059-1.058v-1.058L9.657 15.61h-.529l-.661-.661-.133-.132H7.276l-1.058 1.058H3.836l-.132-.132v-.265l.662-.661H4.1l-.926-.926v-.265L4.1 12.7h.265l-.662-.661v-.265l.132-.132h2.382-.926 2.116V12.7h1.456l.661.661v-1.455h-.397l-.529-.529H7.541l-.133.132v.133H5.292V8.07l.661-.662.926-.926.265-.264.264-.265Z"/><path style="display:inline;fill:#feb380;fill-opacity:1;stroke-width:.264999" d="M9.525 10.186v10.32l-.132.131h-.265l-.529-.529h-.132v-2.116h.397l.661.661V15.61h-.397l-.661-.661V12.7h.397l.661.661v-1.455h-.397l-.529-.529h-.132V9.525h.397zm7.408-.661v10.583h1.191l1.058 1.059h2.382l.132-.133v-.264l-1.588-1.588v-.264l1.588-1.588v-.264l-.132-.133h-2.382l-1.058 1.059h-1.19v-3.175.132l.132-.132h1.058l1.058 1.058h2.382l.132-.132v-.265l-1.588-1.587v-.265l1.588-1.587v-.265l-.132-.132h-2.382l-.926 1.058h-1.323v-1.323h.926l1.456-1.455V8.599l-.133-.132h-.264l-1.059 1.058z"/><path style="fill:#7b7b7b;fill-opacity:1;stroke-width:.264999" d="M12.7 7.805 9.525 10.98v4.63h.132l1.985 1.985v1.058l-1.059 1.058v1.059l1.191 1.19.132.133.794-.794v-6.747h-1.058v1.588h-.133l-.926-.926v-3.175l.926-.927h.133v3.44H12.7z"/><path style="display:inline;fill:#4d4e58;fill-opacity:1;stroke-width:.264999" d="m12.7 7.805 3.175 3.175v4.63h-.132l-1.985 1.985v1.058l1.059 1.058v1.059l-1.191 1.19-.132.133-.794-.794v-6.747h1.058v1.588h.133l.926-.926v-3.175l-.926-.926h-.133v3.44H12.7z"/><path style="display:inline;fill:#7b7b7b;fill-opacity:1;stroke-width:.264999" d="M17.992 8.731v.662l-.133.132h-1.323l-.661.661v.794L12.7 7.805V6.482l.926.926h1.058l.133-.132v-.265l-1.985-1.984-.132-.132V4.1l.926.926h1.058l.133-.132V4.63L12.7 2.514v-.662h.397l.794-.794h.264l.662.662v1.323L15.875 4.1v3.97l.661.661z"/><path style="display:inline;fill:#4d4e58;fill-opacity:1;stroke-width:.264999" d="M7.408 8.731v.662l.133.132h1.323l.661.661v.794L12.7 7.805V6.482l-.926.926h-1.058l-.133-.132v-.265l1.985-1.984.132-.132V4.1l-.926.926h-1.058l-.133-.132V4.63L12.7 2.514v-.662h-.397l-.794-.794h-.264l-.662.662v1.323L9.525 4.1v3.97l-.661.661Z"/><path style="fill:#7b7b7b;fill-opacity:1;stroke-width:.264999" d="M12.7 2.514 10.583 4.63v.265l.133.132h1.058l.926-.926zm0 2.381L10.583 7.01v.265l.133.132h1.058l.926-.926z"/><path style="fill:#4d4e58;fill-opacity:1;stroke-width:.264999" d="M12.7 2.514V4.1l.926.926h1.058l.133-.132V4.63Zm0 2.381v1.587l.926.926h1.058l.133-.132v-.265Z"/><path style="fill:#7b7b7b;fill-opacity:1;stroke-width:.264999" d="M7.408 5.953v3.44l-.926-.926h-.264l-.133.132v1.323l1.456 1.455-.133.132V12.7h-.264l-.926-1.058h-.926V8.07Z"/><path style="display:inline;fill:#4d4e58;fill-opacity:1;stroke-width:.264999" d="M17.992 5.953v3.44l.926-.926h.264l.133.132v1.323l-1.456 1.455.133.132V12.7h.264l.926-1.058h.926V8.07Z"/><path style="display:inline;fill:#7b7b7b;fill-opacity:1;stroke-width:.264999" d="m17.992 4.895 1.72 1.72h.529l1.984 1.984v3.704l.794.794v1.587l-.794.794v2.117l.794.794v1.587l-1.19 1.19h-.265l.132-.396-.662-.662h.265l.926-.926v-.264l-.926-.926h-.265l.662-.662v-.264l-.132-.133h-2.382l-1.058 1.059h-1.588l-.661.661v1.852l.132.132h.265l.529-.529h1.323l1.058 1.059h2.382l-.133.132-.926.926h-1.587l-1.059 1.058h-4.233l-.926-.926V21.3l.132.132.662.662 1.323-1.323V19.71l-1.059-1.058v-1.058l1.985-1.985h.529l.661-.661.133-.132h1.058l1.058 1.058h2.382l.132-.132v-.265l-.662-.661h.265l.926-.926v-.265l-.926-.926h-.265l.662-.661v-.265l-.132-.132h-2.382.926-2.116V12.7h-1.456l-.661.661v-1.455h.397l.529-.529h1.058l.133.132v.133h2.116V8.07l-.661-.662-.926-.926-.265-.264-.264-.265Z"/><path style="fill:#7b7b7b;fill-opacity:1;stroke-width:.264999" d="m4.101 12.7-.926.926v.265l.926.926h.265l.926-.926v-.265l-.926-.926Z"/><path style="display:inline;fill:#7b7b7b;fill-opacity:1;stroke-width:.264999" d="m4.101 17.992-.926.926v.264l.926.926h.265l.926-.926v-.264l-.926-.926Z"/><path style="display:inline;fill:#4d4e58;fill-opacity:1;stroke-width:.264999" d="m21.034 17.992-.926.926v.264l.926.926h.265l.926-.926v-.264l-.926-.926zm0-5.292-.926.926v.265l.926.926h.265l.926-.926v-.265l-.926-.926z"/><path style="fill:#4d4e58;fill-opacity:1;stroke-width:.264999" d="M11.642 11.112h-.133l-.926.927v3.175l.926.926h.133z"/><path style="fill:#2c2d38;fill-opacity:1;stroke-width:.264999" d="M13.758 11.112v5.028h.133l.926-.926v-3.175l-.926-.927zM11.51 1.058l.793.794h.794l.794-.794z"/></g></svg>