<svg xmlns="http://www.w3.org/2000/svg" width="64" height="64" style="fill-opacity:1;color-rendering:auto;color-interpolation:auto;text-rendering:auto;stroke:#000;stroke-linecap:square;stroke-miterlimit:10;shape-rendering:auto;stroke-opacity:1;fill:#000;stroke-dasharray:none;font-weight:400;stroke-width:1;font-family:&quot;Dialog&quot;;font-style:normal;stroke-linejoin:miter;font-size:12px;stroke-dashoffset:0;image-rendering:auto">
    <g style="stroke-linecap:round;fill:#6974c4;stroke:#6974c4">
        <path stroke="none" d="m8.5 53-.5-.5v-10l4-4-3-3V33h.5l5-5 .5.5v3l-3 3 4.5 4.5h3l4.5 4.5-.5.5h-6Z" style="stroke:none"/>
    </g>
    <g stroke="none" style="stroke-linecap:round;fill:#c1c3d4;stroke:#c1c3d4">
        <path d="m11 50.5 3.5-3.5L25 57.5 21.5 61Z" style="stroke:none"/>
        <path d="m12 34.5 3-3v4l.5.5h2l2.5-2.5 7.5 7.5h4l.5.5v7l.5.5h2l5.5-5.5.5.5h5l-9 9h-4l-.5-.5v-3l-.5-.5h-2l-10-10h-3Z" style="fill:#8f665b;stroke:none"/>
        <path d="m15.5 36-.5-.5v-7l-.5-.5 4-4H20v9.5L17.5 36Z" style="stroke:none"/>
        <path d="m14.5 47 3-3h1l9 9h4l.5.5V60h-4.5Z" style="fill:#8f665b;stroke:none"/>
        <path d="M18.5 44h5l.5-.5 5.5 5.5h2l.5.5v3l.5.5h4l9-9h1l3 3-13 13H32v-6.5l-.5-.5h-4Z" style="fill:#c9a58f;stroke:none"/>
        <path d="M20 27.5V24h4v1.5l6.5 6.5H32v5h-2.5Z" style="fill:#6974c4;stroke:none"/>
        <path d="M29.5 37H32v3.5l.5.5h4l8-8 3.5 3.5 1-1v-4l3 3-4.5 4.5h-3l-10 10h-2l-.5-.5v-7l-.5-.5h-4L20 33.5v-6Z" style="fill:#c9a58f;stroke:none"/>
        <path d="M24 25.5v-13l4-4v-3L30.5 3H32v2.5l4 4v2L34.5 13h-2l-.5-.5v-6l-.5-.5L28 9.5v2l1.5 1.5h2l.5.5v2l.5.5h2l1.5 1.5v2L32.5 23l-.5-.5v-6l-.5-.5h-2L28 17.5v2l4 4V32h-1.5Z" style="fill:#8f665b;stroke:none"/>
        <path d="M28 11.5v-2L31.5 6l.5.5v6l.5.5h2l1.5-1.5v-2l-4-4V3h2v.5l2 2v3l4 4v13L33.5 32H32v-8.5l-4-4v-2l1.5-1.5h2l.5.5v6l.5.5 3.5-3.5v-2L34.5 16h-2l-.5-.5v-2l-.5-.5h-2Z" style="fill:#c9a58f;stroke:none"/>
        <path d="M32 37v-5h1.5l6.5-6.5V24h4v3.5L34.5 37Z" style="fill:#8aa3f4;stroke:none"/>
        <path d="m32.5 41-.5-.5V37h2.5l9.5-9.5v5l.5.5-8 8Z" style="fill:#8f665b;stroke:none"/>
        <path d="M39 57.5 49.5 47l3.5 3.5L42.5 61Z" style="fill:#f4f4f4;stroke:none"/>
        <path d="m40.5 44-.5-.5 4.5-4.5h3l4.5-4.5-3-3v-3l.5-.5 5 5h.5v2.5l-3 3 4 4v10l-.5.5-9-9Z" style="fill:#8aa3f4;stroke:none"/>
        <path d="M44 32.5V24h1.5l4 4-.5.5v7l-1 1Z" style="fill:#f4f4f4;stroke:none"/>
    </g>
</svg>
