<svg width="64" height="64" viewBox="0 0 16.933 16.933" xml:space="preserve" xmlns="http://www.w3.org/2000/svg"><g style="display:inline;fill:#8f665b;fill-opacity:1"><path style="fill:#8f665b;fill-opacity:1;stroke-width:.264583" d="m3.969 8.07-.794.794v.264l1.19 1.19h.794l.926.927v.397h.133l.397.397v1.058l-1.456-1.455H4.63L3.572 12.7H4.1l3.175 3.175h1.19v-1.852H7.54l-.926-.926h1.852v.926h.926l2.381-2.381h-1.058L9.657 12.7l-.132-.132v-.265l-.53-.529v-1.455h.662l1.985-1.985V6.35h-.53v1.455l-1.72 1.72h-.528V5.821l.661-.662V4.63l-.397-.397h-.264V3.44l.661-.662v-.264L8.467 1.455V3.44h.397v.793h-.397v1.985l.397-.397v3.704h-.397v.794h.529v1.455l-.53-.53v1.853h-1.85v-1.058l.661.661.132-.132v-.265l1.059-1.058v-.926H7.276l-.794-.794V6.879L8.07 8.467h.397v-2.25L7.408 5.16v-.53l.397-.397h.662V3.44H8.07l-.397-.397v-.794l.794-.794V.794H8.07l-.662.661v1.059l.265-.265v.794l-.265-.265v-.397h-.132l-.926.926v3.44l.132.132v2.646l-1.19-1.19v.529l-.662.661h-.529l-.132-.132Z"/><path style="display:inline;fill:#c9a58f;fill-opacity:1;stroke-width:.264583" d="m12.965 8.07.793.794v.264l-1.19 1.19h-.794l-.926.927v.397h-.132l-.397.397v1.058l1.455-1.455h.53L13.36 12.7h-.529l-3.175 3.175h-1.19v-1.852h.926l.926-.926H8.467v.926H7.54l-2.382-2.381h1.059L7.276 12.7l.132-.132v-.265l.53-.529v-1.455h-.662L5.292 8.334V6.35h.529v1.455l1.72 1.72h.529V5.821l-.662-.662V4.63l.397-.397h.265V3.44l-.662-.662v-.264l1.059-1.059V3.44H8.07v.793h.397v1.985L8.07 5.82v3.704h.397v.794h-.53v1.455l.53-.53v1.853h1.852v-1.058l-.662.661-.132-.132v-.265l-1.058-1.058v-.926h1.19l.794-.794V6.879L8.864 8.467h-.397v-2.25L9.525 5.16v-.53l-.397-.397h-.661V3.44h.397l.396-.397v-.794l-.793-.794V.794h.397l.661.661v1.059l-.265-.265v.794l.265-.265v-.397h.132l.926.926v3.44l-.132.132v2.646l1.058-1.058.133-.133v.53l.661.661h.53l.132-.132z"/><path style="fill:#6974c4;fill-opacity:1;stroke-width:.264583" d="M8.467 8.467H8.07l-1.72-1.72V6.35h-.53v1.455H3.97v-.397h-.397l-.926.926v1.059l.529.529v.264l-1.058 1.059v2.91l2.513-2.513h1.455v-.397l-.926-.926h-.793l-1.191-1.19v-.265l.794-.794v-.265h1.85l1.72 1.72h.926z"/><path style="display:inline;fill:#8aa3f4;fill-opacity:1;stroke-width:.264583" d="M8.467 8.467h.397l1.72-1.72V6.35h.528v1.455h1.853v-.397h.396l.926.926v1.059l-.529.529v.264l1.059 1.059v2.91l-2.514-2.513h-1.455v-.397l.926-.926h.794l1.19-1.19v-.265l-.793-.794v-.265h-1.853l-1.72 1.72h-.925z"/><path style="fill:#c1c3d4;fill-opacity:1;stroke-width:.264583" d="M5.292 6.35h-.397l-.926.926v2.117l.132.132h.265v3.44L4.1 12.7h-.53l-.396.397v.529l2.514 2.514h1.058l.264-.265h.265l-.132-.132-2.778-2.778v-3.44h.264l.662-.661Z"/><path style="display:inline;fill:#f4f4f4;fill-opacity:1;stroke-width:.264583" d="M11.642 6.35h.397l.926.926v2.117l-.133.132h-.264v3.44l.264-.265h.53l.396.397v.529l-2.513 2.514h-1.059l-.264-.265h-.265l.133-.132 2.778-2.778v-3.44h-.265l-.661-.661Z"/></g></svg>