<svg xmlns="http://www.w3.org/2000/svg" width="64" height="64" style="fill-opacity:1;color-rendering:auto;color-interpolation:auto;text-rendering:auto;stroke:#000;stroke-linecap:square;stroke-miterlimit:10;shape-rendering:auto;stroke-opacity:1;fill:#000;stroke-dasharray:none;font-weight:400;stroke-width:1;font-family:&quot;Dialog&quot;;font-style:normal;stroke-linejoin:miter;font-size:12px;stroke-dashoffset:0;image-rendering:auto">
    <g style="stroke-linecap:round;fill:#4d4e58;stroke:#4d4e58">
        <path stroke="none" d="M8 29.5v-5L18.5 14H20v6h-.5L16 23.5V52h-2.5L8 46.5v-7l1-1v-1l3.5-3.5Z" style="stroke:none"/>
    </g>
    <g stroke="none" style="stroke-linecap:round;fill:#7b7b7b;stroke:#7b7b7b">
        <path d="M16 44.5v-21l3.5-3.5h2l2.5 2.5V24h-1.5L20 26.5v3l2.5 2.5H24v8h-3.5Z" style="stroke:none"/>
        <path d="M16 52v-7.5l4.5-4.5H24v8.5L20.5 52Z" style="fill:#c1c3d4;stroke:none"/>
        <path d="M19 53.5V52h1.5l3.5-3.5v-20l1.5-1.5h1l.5-.5v-1l1.5-1.5 3.5 3.5v.5h-.5l-4 4 4 4h.5v4h-.5L28 43.5V60h-2.5Z" style="fill:#4d4e58;stroke:none"/>
        <path d="M20 29.5v-3l2.5-2.5H24v8h-1.5Z" style="fill:#c1c3d4;stroke:none"/>
        <path d="M28 12.5v-7L30.5 3H32v5.5l4 4v4l-4-4v-3l-.5-.5Z" style="fill:#4d4e58;stroke:none"/>
        <path d="M28 16.5v-4L31.5 9l.5.5v3l4 4v3L32.5 23l-.5-.5v-9l-.5-.5Z" style="stroke:none"/>
        <path d="M28 19.5v-3l3.5-3.5.5.5v9l.5.5 3.5-3.5v4L32.5 27l-.5-.5v-3Z" style="fill:#4d4e58;stroke:none"/>
        <path d="M32 23.5v3l.5.5 3-3 1.5 1.5v1l.5.5h1l1.5 1.5v20l3.5 3.5H45v1.5L38.5 60H36V43.5L32.5 40H32v-4h.5l4-4-4-4H32v-.5l-4-4v-4Z" style="stroke:none"/>
        <path d="m27.5 32 4-4h.5v8h-.5Zm.5 28V43.5l3.5-3.5h.5v20Z" style="fill:#c1c3d4;stroke:none"/>
        <path d="m36.5 32-4 4H32v-8h.5ZM36 43.5V60h-4V40h.5Z" style="fill:#f4f4f4;stroke:none"/>
        <path d="M36 5.5v7l-4-4V3h1.5Z" style="stroke:none"/>
        <path d="M40 24v-1.5l2.5-2.5h2l3.5 3.5v21L43.5 40H40v-8h1.5l2.5-2.5v-3L41.5 24Z" style="fill:#4d4e58;stroke:none"/>
        <path d="M40 32v-8h1.5l2.5 2.5v3L41.5 32Zm0 16.5V40h3.5l4.5 4.5V52h-4.5Z" style="fill:#f4f4f4;stroke:none"/>
        <path d="M44.5 20H44v-6h1.5L56 24.5v5L51.5 34l3.5 3.5v1l1 1v7L50.5 52H48V23.5Z" style="stroke:none"/>
    </g>
</svg>
