<svg width="64" height="64" viewBox="0 0 16.933 16.933" xml:space="preserve" xmlns="http://www.w3.org/2000/svg"><g style="display:inline"><path style="display:inline;fill:#7b7b7b;fill-opacity:1;stroke-width:.264583" d="m6.35 5.953-.661-.661h-.53l-.926.926v5.556l1.191-1.19h.926v-.662h2.117v.661h.132l.926.926v4.366h.661l2.117-2.117h-.794l-.926-.926V9.525H12.7v4.233h.661l1.456-1.455v-1.852l-.265-.265v-.264l-.794-.794v-.264l1.059-1.059V6.482l-2.778-2.778h-.397v1.588h.132l.926.926v3.307h-2.117V7.541l-.397-.397h-.264L9.79 7.01v-.264l-.265-.265v-.264l-.132.132-.53.53V5.82l.662-.66v-.794l-.661-.662V2.646l.661.661V1.455L8.864.794h-.397v1.455l.397.397v1.058l-.397-.397v2.91l.397-.396v1.058l-.397.397v.132h.132l.926.926V8.6l-.926.926h-.132v.397H6.35V6.085h1.058v.133l1.059 1.058V6.218l-.662-.662V3.97l.662-.662V2.25L7.408 3.307v1.059l.397-.397v1.587l-.397-.397v.926H6.35Z"/></g><g style="display:inline;fill:#4d4e58;fill-opacity:1"><path style="display:inline;fill:#4d4e58;fill-opacity:1;stroke-width:.264583" d="m6.35 6.085-.661-.661h-.53l-.926.926v5.556l1.191-1.19h.926v-.662h2.117v.662h.132l.926.926v4.365h.661l2.117-2.117-.794.001-.926-.926V9.657H12.7v4.234h.661l1.456-1.456v-1.852l-.265-.264v-.265l-.794-.794v-.264l1.059-1.059V6.615l-2.778-2.779h-.397v1.588h.132l.926.926v3.307h-2.117V7.673l-.397-.397h-.264l-.132-.132v-.265l-.265-.264V6.35l-.132.132-.53.53v-1.06l.662-.661v-.794l-.661-.662V2.778l.661.662V1.587L8.864.926h-.397v1.455l.397.397v1.058l-.397-.396v2.91l.397-.397v1.058l-.397.397v.133h.132l.926.926v.264l-.926.926h-.132v.397H6.35V6.218h1.058v.132l1.059 1.058V6.35l-.662-.661V4.1l.662-.661V2.38L7.408 3.44v1.058l.397-.397v1.588l-.397-.397v.926H6.35Z" transform="matrix(-1 0 0 1 16.933 -.132)"/><path style="fill:#c1c3d4;fill-opacity:1;stroke-width:.264583" d="M10.583 10.716h.926l1.191 1.19v1.985h-1.19l-.927-.926H9.525v3.042H8.467v-5.291h.132l.397.396V9.26l-.397.397h-.132V7.541h.132l.926.926v.264l-.53.53v1.851l.53.53v1.323h1.058z" transform="matrix(-1 0 0 1 16.933 -.132)"/><path style="display:inline;fill:#f4f4f4;fill-opacity:1;stroke-width:.264583" d="M6.35 10.716h-.926l-1.19 1.19v1.985h1.19l.926-.926h1.058v3.042h1.059v-5.291h-.133l-.397.396V9.26l.397.397h.133V7.541h-.133l-.926.926v.264l.53.53v1.851l-.53.53v1.323H6.35Z" transform="matrix(-1 0 0 1 16.933 -.132)"/></g><path style="fill:#f4f4f4;stroke:none;stroke-width:.264578px;stroke-linecap:butt;stroke-linejoin:miter;stroke-opacity:1;fill-opacity:1" d="M10.583 8.466h.397l.661-.66V7.01l-.661-.661h-.397z"/><path style="fill:#f4f4f4;fill-opacity:1;stroke:none;stroke-width:.264578px;stroke-linecap:butt;stroke-linejoin:miter;stroke-opacity:1" d="M6.35 8.466h-.397l-.661-.66V7.01l.661-.661h.397z"/></svg>