<svg xmlns="http://www.w3.org/2000/svg" width="32" height="32" style="fill-opacity:1;color-rendering:auto;color-interpolation:auto;text-rendering:auto;stroke:#000;stroke-linecap:square;stroke-miterlimit:10;shape-rendering:auto;stroke-opacity:1;fill:#000;stroke-dasharray:none;font-weight:400;stroke-width:1;font-family:&quot;Dialog&quot;;font-style:normal;stroke-linejoin:miter;font-size:12px;stroke-dashoffset:0;image-rendering:auto">
    <g style="stroke-linecap:round;fill:#8f665b;stroke:#8f665b">
        <path stroke="none" d="M4 23v-4.5L6.5 16H8v2.5l3 3v2l-1 1L8.5 23Z" style="stroke:none"/>
    </g>
    <g stroke="none" style="stroke-linecap:round;fill:#989aa4;stroke:#989aa4">
        <path d="m4.5 28-.5-.5V23h4.5l1.5 1.5L6.5 28ZM5 10.5v-2L4.5 8l4-4h3L16 8.5V12H6.5Z" style="stroke:none"/>
        <path d="M8 18.5V12h3.5l4 4h.5v12h-1.5l-4-4 .5-.5v-2Z" style="fill:#c1c3d4;stroke:none"/>
        <path d="M11.5 4h9L16 8.5Z" style="fill:#6e7080;stroke:none"/>
        <path d="M11.5 12H16v4h-.5Z" style="fill:#8f665b;stroke:none"/>
        <path d="M16 12V8.5L20.5 4h3l4 4-.5.5v2L25.5 12Z" style="fill:#b0bac0;stroke:none"/>
        <path d="M16.5 16H16v-4h4.5Z" style="fill:#c9a58f;stroke:none"/>
        <path d="M16 28V16h.5l4-4H24v6.5l-3 3v2l.5.5-4 4Z" style="fill:#fff;stroke:none"/>
        <path d="m22 24.5-1-1v-2l3-3V16h1.5l2.5 2.5V23h-4.5Z" style="fill:#c9a58f;stroke:none"/>
        <path d="m22 24.5 1.5-1.5H28v4.5l-.5.5h-2Z" style="fill:#b0bac0;stroke:none"/>
    </g>
</svg>
