<svg width="128" height="128" viewBox="0 0 33.867 33.867" xml:space="preserve" xmlns:xlink="http://www.w3.org/1999/xlink" xmlns="http://www.w3.org/2000/svg"><defs><linearGradient id="b"><stop style="stop-color:#fff;stop-opacity:1" offset="0"/><stop style="stop-color:#fff;stop-opacity:0" offset="1"/></linearGradient><linearGradient id="a"><stop style="stop-color:#fff;stop-opacity:1" offset="0"/><stop style="stop-color:#fff;stop-opacity:0" offset="1"/></linearGradient><linearGradient xlink:href="#a" id="c" x1="21.16" y1=".79" x2="21.167" y2="13.891" gradientUnits="userSpaceOnUse"/><linearGradient xlink:href="#b" id="d" gradientUnits="userSpaceOnUse" x1="21.16" y1=".79" x2="21.167" y2="13.891" gradientTransform="matrix(-1 0 0 1 33.867 0)"/></defs><g style="display:inline"><path style="fill:url(#c);fill-opacity:1;stroke:none;stroke-width:.265;stroke-dasharray:none" d="m19.711.794-.661.661v4.498l-.132.132h-.53l-1.322 1.323-.133.133v1.72h1.191l.926.925v.265l-.926.926h-1.19v2.381h1.455l2.248-2.249v-.264l.662-.662.794.794h.529l1.323 1.323h1.984v-.132l-.529-.53V8.07l-2.117-2.117V4.498h.133l1.058 1.058h.397v-1.72L23.283 2.25v-.794l-.661-.661Z"/><path style="display:inline;fill:url(#d);fill-opacity:1;stroke:none;stroke-width:.265;stroke-dasharray:none" d="m14.155.794.662.661v4.498l.132.132h.53L16.8 7.408l.132.133v1.72h-1.19l-.926.925v.265l.926.926h1.19v2.381h-1.455L13.23 11.51v-.264l-.661-.662-.794.794h-.53L9.923 12.7H7.938v-.132l.529-.53V8.07l2.116-2.117V4.498h-.132L9.393 5.556h-.397v-1.72l1.587-1.587v-.794l.662-.661z"/></g></svg>