<svg width="128" height="128" viewBox="0 0 33.867 33.867" xml:space="preserve" xmlns="http://www.w3.org/2000/svg"><g style="display:inline"><path style="fill:#ff9c5a;fill-opacity:1;stroke-width:.264583" d="M9.525 15.61h-.662L6.35 18.124l2.249 2.249h.926v2.646h-.662L6.35 25.532l2.249 2.25h.926v-.662l-1.588-1.588 1.588-1.587v-2.25h1.058v4.366l1.059 1.059v3.44l1.058 1.058V26.59h7.408v6.085l1.059-1.058V26.59l1.058-1.059v-4.498l-2.117 2.117v-.794l1.588-1.587-1.588-1.588h.794l1.323 1.323v-5.027l-.926-.926h-.132v.132l-1.059 1.059v2.646l.794.793h-.794v7.409H12.7l-1.058-1.059V15.478l.926-.926h.132v-4.101l-1.058 1.058v2.646l-1.059 1.059v6.482H9.525V19.71l-1.588-1.587 1.588-1.588z"/><path style="display:inline;fill:#ec7458;fill-opacity:1;stroke-width:.264583" d="M24.342 15.61h.662l2.513 2.514-2.25 2.249h-.925v2.646h.662l2.513 2.513-2.25 2.25h-.925v-.662l1.587-1.588-1.587-1.587v-2.25h-1.059v4.366l-1.058 1.059v3.44l-1.058 1.058V26.59h-7.409v6.085L12.7 31.618V26.59l-1.058-1.059v-4.498l2.116 2.117v-.794l-1.587-1.587 1.587-1.588h-.793l-1.323 1.323v-5.027l.926-.926h.132v.132l1.058 1.059v2.646l-.793.793h.793v7.409h7.409l1.058-1.059V15.478l-.926-.926h-.132v-4.101l1.058 1.058v2.646l1.058 1.059v6.482h1.059V19.71l1.587-1.587-1.587-1.588z"/><path style="display:inline;fill:#7b7b7b;fill-opacity:1;stroke-width:.264583" d="M14.817 4.366v-2.91l-.662-.662h-.397v.926L12.7 2.778V.794h-1.058v.926L12.7 2.778v.265L11.642 4.1h-1.059V2.249L8.996 3.836v1.72h.397l1.19-1.19V4.1h1.059v2.91L12.7 8.07V3.043L13.758 4.1v2.91L12.7 8.07v1.852h-1.058v-.53l-1.059-1.058v3.97l1.059 1.057v-3.44H12.7v3.837h-2.117v.662l-1.058 1.058v.132h-1.72l-2.513 2.514 2.249 2.249h1.058L6.35 18.124l2.514-2.514h.661v.926l-1.588 1.588 1.588 1.587v.794l1.058 1.059v.264l-1.058 1.058v.133h-1.72l-2.513 2.513 2.249 2.25h1.058l-2.249-2.25 2.514-2.513h.661v.926l-1.587 1.587 1.587 1.588v.794l1.058 1.058V13.758h2.25l.793.794h.265l.926-.926v5.557l.793.793v2.117l-.793.793v3.175l2.116 2.117v-2.117l-.793-.793v-.53h.793v1.323l.794-.793V23.68l-.794-.794v1.853h-.793V23.68l.793-.794v-3.704l-1.058-1.058v-.53h1.058v1.588l1.059-1.058v-1.588l-1.059-1.058-1.058 1.058 1.058-1.058v-1.852l-2.116 2.117v-2.647h2.116v.53l2.117 2.117v3.44l-.794.793-.397 2.514 1.191.396v3.175l-2.117 2.117v3.307h1.191l1.058-1.058h.926v-1.323h2.117v1.323h.397l1.323-1.323h3.969l1.455 1.455v1.588l1.323-1.323v-5.82l-2.646-2.647v-.264l1.587-1.588v-4.233L25.4 12.039v-3.97l-2.117-2.116V1.455l-.661-.661h-.397v.926l-.661.661h-.397V.794h-1.059v.926l1.059 1.058v-.397h.397l-.397.397v.265L22.225 4.1h-1.058V3.043L20.108 4.1v2.91l1.059 1.059V4.1h1.058v2.91l-1.058 1.06v2.381l1.058 1.058V9.393l1.058-1.059v3.97l-1.058 1.057v.794l1.058 1.059v-.794l1.059 1.058v.132h1.718l2.514 2.514-2.249 2.249h-1.984v.132l-1.059 1.059v.264l1.059 1.058v.133h1.719l2.514 2.513-2.249 2.25h-1.984v.132l-1.059 1.058v-2.91l-1.058 1.058v1.984h-2.117v-5.953l2.117-2.117v-.264h-.53l-1.587 1.587v-3.175l1.588 1.588h.529v-.265l-2.117-2.116v-2.646l1.059-1.059v-1.058l-.926.926h-.265l-.926-.926v-.794l1.058-1.058V9.393L19.05 8.334V6.085h-.661l-1.456 1.456v1.72h1.191l.926.925v.265l-.926.926h-1.19v1.72h-2.117v-.265l-1.059-1.058V9.393l1.059-1.059z"/><path style="display:inline;fill:#4d4e58;fill-opacity:1;stroke-width:.264583" d="M19.05 4.366v-2.91l.661-.662h.397v.926l1.059 1.058V.794h1.058v.926l-1.058 1.058v.265L22.225 4.1h1.058V2.249l1.588 1.587v1.72h-.397l-1.19-1.19V4.1h-1.059v2.91l-1.058 1.06V3.043L20.108 4.1v2.91l1.059 1.059v1.852h1.058v-.53l1.058-1.058v3.97l-1.058 1.057V9.92h-1.058v3.837h2.116v.662l1.059 1.058v.132h1.719l2.514 2.514-2.249 2.249h-1.058l2.249-2.249-2.514-2.514h-.661v.926l1.587 1.588-1.587 1.587v.794l-1.059 1.059v.264l1.059 1.058v.133h1.719l2.514 2.513-2.249 2.25h-1.058l2.249-2.25-2.514-2.513h-.661v.926l1.587 1.587-1.587 1.588v.794l-1.059 1.058V13.758h-2.249l-.793.794h-.265l-.926-.926v5.557l-.794.793v2.117l.794.793v3.175l-2.117 2.117v-2.117l.794-.793v-.53h-.794v1.323l-.793-.793V23.68l.793-.794v1.853h.794V23.68l-.794-.794v-3.704l1.059-1.058v-.53h-1.059v1.588l-1.058-1.058v-1.588l1.058-1.058v2.117h1.059v-1.059l-1.059-1.058v-1.852l2.117 2.117v-2.647h-2.117v.53l-2.116 2.117v3.44l.793.793v2.116l-.793.794v3.175l2.116 2.117v3.307h-1.19l-1.059-1.058h-.926v-1.323h-2.116v1.323h-.397l-1.323-1.323H5.953L4.498 30.56v1.588l-1.323-1.323v-5.82l2.646-2.647v-.264l-1.588-1.588v-4.233l4.234-4.233V8.07l2.116-2.116V1.455l.662-.661h.397v.926l.661.661h.397V.794h1.058v.926L12.7 2.778v-.397h-.397l.397.397v.265L11.642 4.1H12.7V3.043L13.758 4.1v2.91L12.7 8.07V4.1h-1.058v2.91L12.7 8.07v2.381l-1.058 1.058V9.393l-1.059-1.059v3.97l1.059 1.057v.794l-1.059 1.059v-.794l-1.058 1.058v.132h-1.72l-2.513 2.514 2.249 2.249h1.984v.132l1.058 1.059v.264l-1.058 1.058v.133h-1.72l-2.513 2.513 2.249 2.25h1.984v.132l1.058 1.058v-2.91l1.059 1.058v1.984h2.116v-5.953l-2.116-2.117v-.264h.529l1.587 1.587v-3.175l-1.587 1.588h-.53v-.265l2.117-2.116v-2.646L12.7 14.684v-1.058l.926.926h.265l.926-.926v-.794l-1.059-1.058V9.393l1.059-1.059V6.085h.661l1.455 1.456v1.72h-1.19l-.926.925v.265l.926.926h1.19v1.72h2.117v-.265l1.058-1.058V9.393L19.05 8.334Z"/></g></svg>