<svg xmlns="http://www.w3.org/2000/svg" width="128" height="128" style="fill-opacity:1;color-rendering:auto;color-interpolation:auto;text-rendering:auto;stroke:#000;stroke-linecap:square;stroke-miterlimit:10;shape-rendering:auto;stroke-opacity:1;fill:#000;stroke-dasharray:none;font-weight:400;stroke-width:1;font-family:&quot;Dialog&quot;;font-style:normal;stroke-linejoin:miter;font-size:12px;stroke-dashoffset:0;image-rendering:auto">
    <g style="stroke-linecap:round;fill:#4d4e58;stroke:#4d4e58">
        <path stroke="none" d="M12 116.5v-22L22.5 84 16 77.5v-16l16-16v-15l8-8v-17L42.5 3H44v3.5l4 4v1l4 4v11L48.5 30l-.5-.5v-17l-.5-.5-3.5 3.5v11l4 4v9l-4 4v-8L40.5 32l-.5.5v14l4 4v3l-4 4v-2l-.5-.5-3.5 3.5v.5h-6.5L20 68.5l8.5 8.5H36v.5l4 4v1l-4 4v.5h-6.5L20 96.5l8.5 8.5H36v.5l3.5 3.5.5-.5v-10l4 4V115h-1.5l-5-5h-15l-5.5 5.5v5l-.5.5Z" style="stroke:none"/>
    </g>
    <g stroke="none" style="stroke-linecap:round;fill:#7b7b7b;stroke:#7b7b7b">
        <path d="m20 68.5 9.5-9.5h4L24 68.5l8.5 8.5h-4Zm0 28 9.5-9.5h4L24 96.5l8.5 8.5h-4Z" style="stroke:none"/>
        <path d="m24 68.5 9.5-9.5H36v3.5l-6 6 6 6V77h-3.5Zm0 28 9.5-9.5H36v3.5l-6 6 6 6v2.5h-3.5Z" style="fill:#ff9c5a;stroke:none"/>
        <path d="m30 68.5 6-6v-4l3.5-3.5.5.5v26l-4-4v-3Zm0 28 6-6v-4l4-4v26l-.5.5-3.5-3.5v-3Zm5-75-1-1v-6l6-6v8Zm9 14v15l-4-4v-14l.5-.5Z" style="stroke:none"/>
        <path d="M40 98.5v-41l4-4v-10l4-4v15l-4 4v38l4 4v18l-.5.5-3.5-3.5v-13Z" style="fill:#ff9c5a;stroke:none"/>
        <path d="M44 6.5V3h4v6.5l.5.5L52 6.5V3h1.5L56 5.5v26l-4 4v9l4 4v3l-4 4-4-4v-21l-4-4v-11l3.5-3.5.5.5v17l.5.5 3.5-3.5v-11l-4-4v-1Z" style="stroke:none"/>
        <path d="M44 77.5v-19l3.5-3.5 4.5 4.5v10Z" style="fill:#ec7458;stroke:none"/>
        <path d="M44 79.5v-2l8-8v-10L47.5 55l.5-.5v-3l4 4 4-4v-3l-4-4v-9l4-4V23h2.5l5 5h.5v7h-4.5L56 38.5v1l3.5 3.5H64v8.5l8 8v13l-3 3v8l3 3v12l-7.5 7.5-.5-.5v-7l-3-3v-6l2.5-2.5.5.5v10l.5.5 2.5-2.5v-6l-3-3v-14l-4-4v-6l3.5-3.5.5.5v12l.5.5 3.5-3.5v-6l-4-4v-6l-.5-.5-7.5 7.5v13l3 3v8l-3 3v12l8 8V119h-4.5l-4-4H52V87.5Z" style="fill:#4d4e58;stroke:none"/>
        <path d="M52 87.5v35l-.5.5-4-4 .5-.5v-18l-4-4v-17Z" style="fill:#ec7458;stroke:none"/>
        <path d="m51.5 84 .5-.5v-10l-.5-.5-5.5 5.5Z" style="fill:#4d4e58;stroke:none"/>
        <path d="m46 78.5 5.5-5.5.5.5v10l-.5.5Z" style="fill:#ec7458;stroke:none"/>
        <path d="m48.5 10-.5-.5V3h4v3.5Z" style="fill:#4d4e58;stroke:none"/>
        <path d="M56 72.5v-13l7.5-7.5.5.5v6l4 4v6L64.5 72l-.5-.5v-12l-.5-.5-3.5 3.5v6l4 4v14l3 3v6L64.5 98l-.5-.5v-10l-.5-.5-2.5 2.5v6l3 3v7l.5.5 7.5-7.5v-12l-3-3v-8l3-3v-13l-8-8V43h4.5l4-4-4-4H64v-7h.5l5-5H72v8.5l4 4v9l-4 4v3l4 4 4-4v3l.5.5-4.5 4.5v10l8 8v2l-8 8V115h-3.5l-4 4H64v-12.5l-8-8v-12l3-3v-8Z" style="stroke:none"/>
        <path d="M72 31.5V5h.5l2-2H76v3.5l4 4v1l4 4v11L80.5 30l-.5-.5v-17l-.5-.5-3.5 3.5v11l4 4v21l-4 4-4-4v-3l4-4v-9Z" style="fill:#4d4e58;stroke:none"/>
        <path d="M76 73.5v10l.5.5 5.5-5.5-5.5-5.5Z" style="stroke:none"/>
        <path d="M76 6.5V3h4v6.5l.5.5L84 6.5V3h1.5L88 5.5v17l8 8v15l16 16v16l-6.5 6.5L116 94.5v22l-4.5 4.5-.5-.5v-5l-5.5-5.5h-15l-5 5H84v-12.5l4-4v10l.5.5 3.5-3.5v-.5h7.5l8.5-8.5-9.5-9.5H92v-.5l-4-4v-1l4-4V77h7.5l8.5-8.5-9.5-9.5H92v-.5L88.5 55l-.5.5v2l-4-4v-3l4-4v-14l-.5-.5-3.5 3.5v8l-4-4v-9l-4-4v-11l3.5-3.5.5.5v17l.5.5 3.5-3.5v-11l-4-4v-1Z" style="stroke:none"/>
        <path d="M76 69.5v-10l4.5-4.5 3.5 3.5v19Zm6 9L76.5 84l-.5-.5v-10l.5-.5Zm-6 45v-36l8-8v17l-4 4v18l.5.5Z" style="fill:#ff9c5a;stroke:none"/>
        <path d="m80.5 10-.5-.5V3h4v3.5Z" style="fill:#4d4e58;stroke:none"/>
        <path d="M84 43.5v10l4 4v41l-4 4v13l-3.5 3.5-.5-.5v-18l4-4v-38l-4-4v-15Z" style="fill:#ec7458;stroke:none"/>
        <path d="M84 50.5v-15l3.5-3.5.5.5v14Zm10-36v6l-1 1-5-5v-8Zm-2 44v4l6 6-6 6v3l-4 4v-26l.5-.5Zm0 28v4l6 6-6 6v3l-3.5 3.5-.5-.5v-26Z" style="fill:#4d4e58;stroke:none"/>
        <path d="M92 62.5V59h2.5l9.5 9.5-8.5 8.5H92v-2.5l6-6Zm0 28V87h2.5l9.5 9.5-8.5 8.5H92v-2.5l6-6Z" style="fill:#ec7458;stroke:none"/>
        <path d="M94.5 59h4l9.5 9.5-8.5 8.5h-4l8.5-8.5Zm0 28h4l9.5 9.5-8.5 8.5h-4l8.5-8.5Z" style="fill:#4d4e58;stroke:none"/>
    </g>
</svg>
