<svg xmlns="http://www.w3.org/2000/svg" width="64" height="64" style="fill-opacity:1;color-rendering:auto;color-interpolation:auto;text-rendering:auto;stroke:#000;stroke-linecap:square;stroke-miterlimit:10;shape-rendering:auto;stroke-opacity:1;fill:#000;stroke-dasharray:none;font-weight:400;stroke-width:1;font-family:&quot;Dialog&quot;;font-style:normal;stroke-linejoin:miter;font-size:12px;stroke-dashoffset:0;image-rendering:auto">
    <g style="stroke-linecap:round;fill:#4d4e58;stroke:#4d4e58">
        <path stroke="none" d="M4 35.5v-29L6.5 4H8v13.5l2.5 2.5h7l2.5-2.5v-11L22.5 4H24v13.5l2.5 2.5H32v12h-.5L28 28.5v-2L25.5 24h-5L16 28.5v3l1.5 1.5H24v3.5l-3 3-3.5-3.5h-3L8 42.5v-3Z" style="stroke:none"/>
    </g>
    <g stroke="none" style="stroke-linecap:round;fill:#4d4e58;stroke:#4d4e58">
        <path d="M8 29.5v5L9.5 36l2.5-2.5v-4l-2-2Z" style="stroke:none"/>
        <path d="M8 17.5V4h1.5L12 6.5v11l2.5 2.5h-4Zm0 17v-5l2-2 2 2v4L9.5 36Z" style="fill:#7b7b7b;stroke:none"/>
        <path d="M8 45.5v-3l3-3 .5.5h7l2.5 2.5v3L18.5 48h-8Z" style="fill:#feb380;stroke:none"/>
        <path d="m11.5 40-.5-.5 3.5-3.5h3l3.5 3.5 3-3v-6l2.5-2.5H28v13.5l.5.5-4.5 4.5v3l6.5 6.5H32v4H17.5L12 54.5V48h6.5l2.5-2.5v-3L18.5 40Z" style="fill:#ea8878;stroke:none"/>
        <path d="M12 17.5V8h8v9.5L17.5 20h-3Z" style="fill:#2c2d38;stroke:none"/>
        <path d="M16 31.5v-3l4.5-4.5h5l2.5 2.5V28h-1.5L24 30.5V33h-6.5Zm8-14V4h1.5L28 6.5v11l2.5 2.5h-4Z" style="fill:#7b7b7b;stroke:none"/>
        <path d="M24 49.5v-3l6.5-6.5H32v16h-1.5Z" style="stroke:none"/>
        <path d="M28 17.5V8h8v9.5L33.5 20h-3Z" style="fill:#2c2d38;stroke:none"/>
        <path d="M31.5 32h.5v8h-1.5l-2 2-.5-.5v-13Z" style="fill:#feb380;stroke:none"/>
        <path d="M32.5 32H32V20h5.5l2.5-2.5V4h1.5L44 6.5v11l2.5 2.5h6l3.5-3.5V4h1.5L60 6.5v29l-4 4v3L49.5 36h-3L43 39.5l-3-3V33h6.5l1.5-1.5v-3L43.5 24h-5L36 26.5v2Z" style="fill:#7b7b7b;stroke:none"/>
        <path d="M32 40v-8h.5l3.5-3.5v13l-.5.5-2-2Z" style="fill:#ea8878;stroke:none"/>
        <path d="M32 56V40h1.5l6.5 6.5v3L33.5 56Z" style="fill:#7b7b7b;stroke:none"/>
        <path d="M32 60v-4h1.5l6.5-6.5v-3L35.5 42l.5-.5V28h1.5l2.5 2.5v6l3 3 3.5-3.5h3l3.5 3.5-.5.5h-6L43 43.5v2l2.5 2.5H52v6.5L46.5 60Z" style="fill:#feb380;stroke:none"/>
        <path d="m33.5 20 2.5-2.5v-11L38.5 4H40v13.5L37.5 20Zm2.5 8v-1.5l2.5-2.5h5l4.5 4.5v3L46.5 33H40v-2.5L37.5 28Z" style="stroke:none"/>
        <path d="M43 45.5v-2l3.5-3.5h6l.5-.5 3 3v3L53.5 48h-8Z" style="fill:#ea8878;stroke:none"/>
        <path d="M44 17.5V8h8v9.5L49.5 20h-3Z" style="fill:#2c2d38;stroke:none"/>
        <path d="m49.5 20 2.5-2.5v-11L54.5 4H56v12.5L52.5 20Z" style="stroke:none"/>
        <path d="M52 29.5v4l2.5 2.5 1.5-1.5v-5l-2-2Z" style="fill:#7b7b7b;stroke:none"/>
        <path d="M52 33.5v-4l2-2 2 2v5L54.5 36Z" style="stroke:none"/>
    </g>
</svg>
