<svg width="64" height="64" viewBox="0 0 16.933 16.933" xml:space="preserve" xmlns="http://www.w3.org/2000/svg"><g style="display:inline"><path style="display:inline;fill:#4d4e58;fill-opacity:1;stroke-width:.264583" d="M14.817 1.058h-.397l-.662.662v2.91l-.661.662h.794l.926-.926zm-4.234 0h-.397l-.661.662v2.91l-.661.662h1.058l.661-.662z"/><path style="display:inline;fill:#7b7b7b;fill-opacity:1;stroke-width:.264583" d="M6.35 1.058h.397l.661.662v2.91l.662.662H7.01l-.66-.662z"/><path style="fill:#7b7b7b;fill-opacity:1;stroke-width:.264583" d="M2.117 1.058h.397l.661.662v2.91l.661.662h-.793l-.926-.926Z"/><path style="display:inline;fill:#feb380;fill-opacity:1;stroke-width:.264583" d="M3.704 10.583h3.704V7.541l.926.926h.133v1.19h1.058V7.541l.132-.133h.265l.661.662v1.587l.662.662h.264l.794-.794h.794l1.058 1.058h-1.852l-.926.926v.53l.662.661h1.72v1.72l-1.456 1.455H8.467v-1.058h.397l1.72-1.72v-.794l-1.059-1.058V9.657H8.467v.926H8.07l-.662.662v-.662H4.63l.926.926v.53l-.661.661H2.778l-.661-.661v-.794l.661-.662z"/><path style="display:inline;fill:#ea8878;fill-opacity:1;stroke-width:.264583" d="M13.23 10.583H9.524V7.541l-.926.926h-.132v1.19H7.408V7.541l-.132-.133h-.265l-.661.662v1.587l-.661.662h-.265l-.794-.794h-.794l-1.058 1.058H4.63l.926.926v.53l-.661.661h-1.72v1.72l1.455 1.455h3.837v-1.058H8.07l-1.72-1.72v-.794l1.058-1.058V9.657h1.059v.926h.397l.661.662v-.662h2.778l-.926.926v.53l.662.661h2.116l.662-.661v-.794l-.662-.662z"/><path style="fill:#4d4e58;fill-opacity:1;stroke-width:.264583" d="M8.467 6.218v.793h1.058l.661-.661h1.323L12.7 7.54v.662h1.058v-.397l.397-.397h.265l.397.397v1.323l-.397.397-.662-.661v-.662H12.7v.132l-.397.397h-1.72V8.07l-.661-.662h-.265l-.132.133v-.53H8.467v7.806H8.07l-1.72-1.72v-.794l1.72-1.72h.397V8.467h-.133l-.926-.926v-.53l-.661-.661H5.424l-1.19 1.19v.53h-1.06v-.265l-.397-.397h-.264l-.397.397v1.323l.397.397.661-.661V8.07h1.058v.264l.397.397h1.72v.926l-.661.662h-.265l-.794-.794h-.794l-1.72 1.72v-.794L1.059 9.393V1.72l.662-.662h.397v3.308l.926.926H4.63l.662-.662V1.72l.661-.662h.397V4.63l.661.662h1.456z"/><path style="fill:#7b7b7b;fill-opacity:1;stroke-width:.264583" d="M8.467 6.218v.793H7.408l-.661-.661H5.424l-1.19 1.19v.662h-1.06v-.397l-.397-.397h-.264l-.397.397v1.323l.397.397.661-.661v-.662h1.058v.132l.397.397h1.72V8.07l.661-.662h.265l.132.133v-.53h1.059v7.806h.397l1.72-1.72v-.794l-1.72-1.72h-.397V8.467h.132l.926-.926v-.53l.661-.661h1.323L12.7 7.54v.53h1.058v-.265l.397-.397h.265l.397.397v1.323l-.397.397-.662-.661V8.07H12.7v.264l-.397.397h-1.72v.926l.662.662h.264l.794-.794h.794l1.72 1.72v-.794l1.058-1.058V1.72l-.661-.662h-.397v3.308l-.926.926h-1.588l-.661-.662V1.72l-.662-.662h-.397V4.63l-.661.662H8.467Z"/><path style="display:inline;fill:#2c2d38;fill-opacity:1;stroke-width:.264583" d="M13.758 3.175V2.117H3.175V4.63l.661.662h.794l.662-.662V2.117h2.116V4.63l.662.662h.794l.661-.662V2.117h2.117V4.63l.661.662h.794l.661-.662Z"/></g></svg>