<svg width="96" height="96" viewBox="0 0 25.4 25.4" xml:space="preserve" xmlns="http://www.w3.org/2000/svg"><g style="display:inline"><path style="display:inline;fill:#c1c3d4;fill-opacity:1;stroke-width:.264583" d="M8.202 5.424v1.587L6.35 8.864h3.175l.926-.927h1.323l.132-.132v1.323l-.132-.132h-.794l-1.19 1.19v5.028l-1.985 1.984-.794-.794 1.72-1.72V9.657l.794-.793H6.35v1.322l-1.058 1.059v1.587l-1.059 1.059v-3.175l1.059-1.059V8.334Z"/><path style="display:inline;fill:#f4f4f4;fill-opacity:1;stroke-width:.264583" d="M17.198 5.424v1.587l1.852 1.853h-3.175l-.926-.927h-1.323l-.132-.132v1.323l.132-.132h.794l1.19 1.19v5.028l1.985 1.984.794-.794-1.72-1.72V9.657l-.794-.793h3.175v1.322l1.058 1.059v1.587l1.059 1.059v-3.175l-1.059-1.059V8.334Z"/><path style="display:inline;fill:#4d4e58;fill-opacity:1;stroke-width:.264583" d="M10.583 1.058h-.661l-1.72 1.72v4.233L6.35 8.864v3.175l.926-.927v2.117l-.926.926v1.588l.661.661v4.498l-.396.397-.133.132.133.133v2.778h1.19l1.19-1.191-1.322-1.323v-1.19H8.73v.132l1.323 1.323v-1.059h6.35l-1.058 1.059.926.926.132.132.132-.132 1.191-1.19V20.24l-1.058-1.059v1.588l-.265.264h-6.35v-1.058L12.7 17.33v-2.116l-1.19 1.19h-.265l-.662-.661v-1.059l1.72-1.72h.397V10.98l-1.19 1.19h-.53l-.397-.396v-.794l.794-.794H12.7v.794l1.19 1.19h.265v1.853l-1.058-1.058H12.7v2.249l1.19 1.19h.265l.662-.661v-1.059l-.662-.661V12.17h.265l.397-.397v-.265h1.852v.265l2.249 2.249.132.132V12.04l-2.381-2.382v1.852h-1.852v-.529l-1.191-1.19V7.938h1.191v-6.88h-1.323v6.747l.132.133V9.79H12.7v.396h-1.323l.397-.396h.661v-.133l-.661-.661h-.794l-1.19 1.19v5.028l-1.853 1.852v.264l.794.794v2.514H7.673v-.397l-.662.661v-4.498l1.72-1.72v-2.91l-1.455 1.455v-2.117l3.307-3.174v-.133z"/><path style="display:inline;fill:#7b7b7b;fill-opacity:1;stroke-width:.264583" d="M14.817 1.058h.661l1.72 1.72v4.233l1.852 1.853v3.175l-.926-.927v2.117l.926.926v1.588l-.661.661v4.498l.396.397.133.132-.133.133v2.778h-1.19l-1.19-1.191 1.322-1.323v-1.19H16.67v.132l-1.323 1.323v-1.059h-6.35l1.058 1.059-1.058 1.058-.132-.132-1.191-1.19V20.24l1.058-1.059v1.588l.265.264h6.35v-1.058L12.7 17.33v-2.116l1.19 1.19h.265l.662-.661v-1.059l-1.72-1.72H12.7V10.98l1.19 1.19h.53l.397-.396v-.794l-.794-.794H12.7v.794l-1.19 1.19h-.265v1.853l1.058-1.058h.397v2.249l-1.19 1.19h-.265l-.662-.661v-1.059l.662-.661V12.17h-.265l-.397-.397v-.265H8.731v.265l-2.249 2.249-.132.132V12.04l2.381-2.382v1.852h1.852v-.529l1.191-1.19V7.937h-1.191V1.058h1.323v6.747l-.132.132V9.79h.926v.396h1.323l-.397-.396h-.661v-.133l.661-.661h.794l1.19 1.19v5.028l1.852 1.852v.264l-.793.794v2.514h1.058v-.397l.662.661v-4.498l-1.72-1.72v-2.91l1.455 1.455v-2.117l-3.307-3.175v-.132Z"/><path style="fill:#6974c4;fill-opacity:1;stroke-width:.264583" d="m5.292 12.832-4.234 4.234v2.91l4.366 4.366h.132v-2.514h4.498v.265l1.058 1.058 1.588-1.587h6.085v2.778h1.059v-2.514l3.175-3.175v-.529l-2.91-2.91v-2.382l-1.059-1.058v3.969l.132-.133 2.778 2.779-3.042 3.042-.133.133H12.7V17.33l-2.646 2.646v1.852H5.556l-3.175-3.175v-.529l2.91-2.91z"/><path style="display:inline;fill:#8aa3f4;fill-opacity:1;stroke-width:.264583" d="m20.108 12.832 4.234 4.234v2.91l-4.366 4.366h-.132v-2.514h-4.498v.265l-1.059 1.058-1.587-1.587H6.615v2.778H5.556v-2.514l-3.175-3.175v-.529l2.91-2.91v-2.382l1.059-1.058v3.969l-.132-.133-2.778 2.78 3.042 3.042.133.133H12.7V17.33l2.646 2.646v1.852h4.498l3.175-3.175v-.529l-2.91-2.91z"/><path style="fill:#2c2d38;fill-opacity:1;stroke-width:.264583" d="M6.218 15.61 3.44 18.39l3.042 3.042 2.25-2.249v-1.058z"/><path style="display:inline;fill:#2c2d38;fill-opacity:1;stroke-width:.264583" d="m19.182 15.61 2.778 2.779-3.042 3.042-2.25-2.249v-1.058z"/></g></svg>