<svg xmlns="http://www.w3.org/2000/svg" width="96" height="96" style="fill-opacity:1;color-rendering:auto;color-interpolation:auto;text-rendering:auto;stroke:#000;stroke-linecap:square;stroke-miterlimit:10;shape-rendering:auto;stroke-opacity:1;fill:#000;stroke-dasharray:none;font-weight:400;stroke-width:1;font-family:&quot;Dialog&quot;;font-style:normal;stroke-linejoin:miter;font-size:12px;stroke-dashoffset:0;image-rendering:auto">
    <g style="stroke-linecap:round;fill:#6974c4;stroke:#6974c4">
        <path stroke="none" d="M4 75.5v-11l16-16v9l-11 11v2l12 12V92h-.5Z" style="stroke:none"/>
    </g>
    <g stroke="none" style="stroke-linecap:round;fill:#8aa3f4;stroke:#8aa3f4">
        <path d="M9 70.5v-2l11-11v-9l3.5-3.5h.5v13.5l-11 11 12 12V92h-4v-9.5Z" style="stroke:none"/>
        <path d="M13 69.5 23.5 59l9.5 9.5v4L24.5 81Z" style="fill:#2c2d38;stroke:none"/>
        <path d="m16.5 52-.5-.5v-11l4-4v-5l11-11v6l-7 7v5l-4 4v6Z" style="fill:#c1c3d4;stroke:none"/>
        <path d="M24.5 45H24V33.5l7-7v-16L37.5 4H40v26h-.5Z" style="fill:#4d4e58;stroke:none"/>
        <path d="M24 53.5V45h.5l8-8 .5.5v7Z" style="fill:#7b7b7b;stroke:none"/>
        <path d="m23.5 59 .5-.5v-5l9-9v11L26.5 62ZM25 92V81.5l-.5-.5 4-4 .5.5v5l5 5-4.5 4.5Z" style="fill:#4d4e58;stroke:none"/>
        <path d="m26.5 62 6.5-6.5v-18l-.5-.5 7-7H45v4h-3.5L37 38.5v19L29.5 65Z" style="fill:#c1c3d4;stroke:none"/>
        <path d="M29 82.5v-5l-.5-.5 4.5-4.5v6l5 5-4 4Z" style="fill:#7b7b7b;stroke:none"/>
        <path d="m29.5 65 7.5-7.5v-19l4.5-4.5H45v.5l2.5 2.5h-3L40 41.5v3l1.5 1.5h2l4-4 .5.5v6l.5.5h1l6.5 6.5v4l-3 3-5-5v-8l-1-1-7 7v4l3 3 4.5-4.5.5.5V66h-.5L38 75.5v8l-5-5v-10Z" style="fill:#4d4e58;stroke:none"/>
        <path d="M38 83.5v-8l9.5-9.5h.5v15.5l-6 6Z" style="fill:#6974c4;stroke:none"/>
        <path d="M40 30V4h4.5l.5.5V30Zm0 14.5v-3l4.5-4.5H48v4.5l4.5 4.5h2l1.5-1.5v-3L51.5 37h-3l2.5-2.5V34h3.5l4.5 4.5v19l7.5 7.5-3.5 3.5v10l-5 5v-8L48.5 66H48v-7.5l-.5-.5-4.5 4.5-3-3v-4l7-7 1 1v8l5 5 3-3v-4L49.5 49h-1l-.5-.5v-6l-.5-.5-4 4h-2Z" style="fill:#7b7b7b;stroke:none"/>
        <path d="M58 75.5v8l-4 4-6-6V66h.5Z" style="stroke:none"/>
        <path d="M48 41.5V37h3.5l4.5 4.5v3L54.5 46h-2ZM51 30V4.5l.5-.5H56v26Z" style="fill:#4d4e58;stroke:none"/>
        <path d="M51 34v-4h5.5l7 7-.5.5v18l6.5 6.5-3 3-7.5-7.5v-19L54.5 34Z" style="fill:#f4f4f4;stroke:none"/>
        <path d="M56.5 30H56V4h2.5l6.5 6.5v16l7 7V45h-.5Z" style="fill:#7b7b7b;stroke:none"/>
        <path d="m58 83.5 5-5v-6l4.5 4.5-.5.5v5l-5 5Z" style="fill:#4d4e58;stroke:none"/>
        <path d="m62 87.5 5-5v-5l.5-.5 4 4-.5.5V92h-4.5Z" style="fill:#7b7b7b;stroke:none"/>
        <path d="M71.5 45h.5v8.5l-9-9v-7l.5-.5Z" style="fill:#4d4e58;stroke:none"/>
        <path d="M72 53.5v5l.5.5-3 3-6.5-6.5v-11Z" style="fill:#7b7b7b;stroke:none"/>
        <path d="M63 72.5v-4l9.5-9.5L83 69.5 71.5 81Z" style="fill:#2c2d38;stroke:none"/>
        <path d="M76 31.5v5l4 4v11l-.5.5-3.5-3.5v-6l-4-4v-5l-7-7v-6Z" style="fill:#f4f4f4;stroke:none"/>
        <path d="M71 92V81.5l12-12-11-11V45h.5l3.5 3.5v9l11 11v2l-12 12V92Z" style="fill:#6974c4;stroke:none"/>
        <path d="M75.5 92H75v-9.5l12-12v-2l-11-11v-9l16 16v11Z" style="stroke:none"/>
    </g>
</svg>
