<svg xmlns="http://www.w3.org/2000/svg" width="64" height="64" style="fill-opacity:1;color-rendering:auto;color-interpolation:auto;text-rendering:auto;stroke:#000;stroke-linecap:square;stroke-miterlimit:10;shape-rendering:auto;stroke-opacity:1;fill:#000;stroke-dasharray:none;font-weight:400;stroke-width:1;font-family:&quot;Dialog&quot;;font-style:normal;stroke-linejoin:miter;font-size:12px;stroke-dashoffset:0;image-rendering:auto">
    <g style="stroke-linecap:round;fill:#8f665b;stroke:#8f665b">
        <path stroke="none" d="M8 45.5v-14l7-7V24h.5l.5-.5v4l4.5 4.5h-4L13 35.5v5l3.5 3.5h-2L12 46.5v2l-.5.5Z" style="stroke:none"/>
    </g>
    <g stroke="none" style="stroke-linecap:round;fill:#6974c4;stroke:#6974c4">
        <path d="m11.5 49 .5-.5v-2l2.5-2.5H20v5.5L17.5 52h-3Z" style="stroke:none"/>
        <path d="M13 40.5v-5l3.5-3.5H28v12H16.5Z" style="fill:#565666;stroke:none"/>
        <path d="M15 54.5V52h2.5l2.5-2.5V44h4v16h-3.5l-4-4H16v-.5Z" style="fill:#8f665b;stroke:none"/>
        <path d="M16 27.5v-7l4.5-4.5H28v4h-6.5L20 21.5v3l3.5 3.5h.5v4h-3.5Z" style="fill:#c1c3d4;stroke:none"/>
        <path d="m20 24.5.5-.5h3l.5-.5V20h4.5l3.5 3.5v1l3.5 3.5H40v4h-4.5l-3 3-.5-.5v-9l-.5-.5-3 3h-5Z" style="fill:#8f665b;stroke:none"/>
        <path d="M24 16v-2.5l3-3v-3L30.5 4H32v8.5l3.5 3.5h.5v4h-.5l-3 3-.5-.5v-9l-.5-.5-3 3Z" style="fill:#8f665b;stroke:none"/>
        <path d="M24 32v-4h4.5l3-3 .5.5v9l.5.5 3-3h.5v12h-4v-8.5L28.5 32Z" style="fill:#c9a58f;stroke:none"/>
        <path d="M24 51.5V44h4v4.5l3.5 3.5h.5v4h-3.5Z" style="fill:#c1c3d4;stroke:none"/>
        <path d="M28.5 56H32v4h-8v-8.5Z" style="stroke:none"/>
        <path d="M28.5 20H28v-4h.5l3-3 .5.5v9l.5.5 3-3H40v3.5l.5.5H44v1.5l-.5.5h-1l-2 2h-5L32 24.5v-1Z" style="fill:#c9a58f;stroke:none"/>
        <path d="M32 35.5V44h-4V32h.5Z" style="fill:#8f665b;stroke:none"/>
        <path d="M28 48.5V44h4v8h-.5Z" style="stroke:none"/>
        <path d="M32.5 52H32v-8h4v4.5Z" style="fill:#8aa3f4;stroke:none"/>
        <path d="M32 56v-4h.5l3.5-3.5V44h4v7.5L35.5 56Z" style="fill:#f4f4f4;stroke:none"/>
        <path d="M32 60v-4h3.5l4.5-4.5V60Z" style="fill:#8aa3f4;stroke:none"/>
        <path d="m37.5 8-.5.5v2l3 3V16h-4.5L32 12.5V4h1.5Z" style="fill:#c9a58f;stroke:none"/>
        <path d="M36 20v-4h7.5l4.5 4.5v7L43.5 32H40v-4h.5l2-2h1l.5-.5v-4L42.5 20Z" style="fill:#f4f4f4;stroke:none"/>
        <path d="M36 44V32h11.5l3.5 3.5v5L47.5 44Z" style="fill:#565666;stroke:none"/>
        <path d="M40 60V44h4v5.5l1.5 1.5h1l1 1H49v3h-.5l-5 5Zm3.5-28 4.5-4.5v-4l8 8v14L52.5 49l-.5-.5v-2L49.5 44h-2l3.5-3.5v-5L47.5 32Z" style="fill:#c9a58f;stroke:none"/>
        <path d="M44 49.5V44h5.5l2.5 2.5v2l.5.5-3 3h-2l-1-1h-1Z" style="fill:#8aa3f4;stroke:none"/>
    </g>
</svg>
