<svg xmlns="http://www.w3.org/2000/svg" width="128" height="128" style="fill-opacity:1;color-rendering:auto;color-interpolation:auto;text-rendering:auto;stroke:#000;stroke-linecap:square;stroke-miterlimit:10;shape-rendering:auto;stroke-opacity:1;fill:#000;stroke-dasharray:none;font-weight:400;stroke-width:1;font-family:&quot;Dialog&quot;;font-style:normal;stroke-linejoin:miter;font-size:12px;stroke-dashoffset:0;image-rendering:auto">
    <g style="stroke-linecap:round;fill:#6e7080;stroke:#6e7080">
        <path stroke="none" d="M40 73.5v-19l7-7 6 6-5 5v11L58.5 80h11l5-5 6 6-7 7h-19Z" style="stroke:none"/>
    </g>
    <g stroke="none" style="stroke-linecap:round;fill:#989aa4;stroke:#989aa4">
        <path d="m48 48.5-1-1 .5-.5.5.5Z" style="stroke:none"/>
        <path d="m47.5 47 7-7h19L88 54.5v19l-7 7-6-6 5-5v-11L69.5 48h-11l-5 5Z" style="fill:#b0bac0;stroke:none"/>
        <path d="M48 69.5v-11l5-5-6-6 .5-.5 6 6 5-5h11L80 58.5v11l-5 5 6 6-.5.5-6-6-5 5h-11Z" style="stroke:none"/>
        <path d="M52 59.5v9l7.5 7.5h9l3.5-3.5-3.5-3.5-3 3h-3L56 65.5v-3l3-3-3.5-3.5Z" style="stroke:none"/>
        <path d="M52 68.5v-9l3.5-3.5 3.5 3.5-3 3v3l6.5 6.5h3l3-3 3.5 3.5-3.5 3.5h-9Z" style="fill:#b0bac0;stroke:none"/>
        <path d="m56 55.5 3.5 3.5 3-3h3l6.5 6.5v3l-3 3 3.5 3.5 3.5-3.5v-9L68.5 52h-9Z" style="stroke:none"/>
        <path d="m56 55.5 3.5-3.5h9l7.5 7.5v9L72.5 72 69 68.5l3-3v-3L65.5 56h-3l-3 3Z" style="fill:#6e7080;stroke:none"/>
    </g>
</svg>
