<svg xmlns="http://www.w3.org/2000/svg" width="64" height="64" style="fill-opacity:1;color-rendering:auto;color-interpolation:auto;text-rendering:auto;stroke:#000;stroke-linecap:square;stroke-miterlimit:10;shape-rendering:auto;stroke-opacity:1;fill:#000;stroke-dasharray:none;font-weight:400;stroke-width:1;font-family:&quot;Dialog&quot;;font-style:normal;stroke-linejoin:miter;font-size:12px;stroke-dashoffset:0;image-rendering:auto">
    <g style="stroke-linecap:round;fill:#4a4b53;stroke:#4a4b53">
        <path stroke="none" d="M22 34.5v-5l3.5-3.5 4 4-2 2 4.5 4.5 2-2 4 4-3.5 3.5h-5Z" style="stroke:none"/>
    </g>
    <g stroke="none" style="stroke-linecap:round;fill:#989aa4;stroke:#989aa4">
        <path d="m26 25.5 3.5-3.5h5l7.5 7.5v5L38.5 38l-4-4 2-2-4.5-4.5-2 2Z" style="stroke:none"/>
        <path d="M27 27.5 25.5 26l.5-.5 1 1Z" style="fill:#6e7080;stroke:none"/>
        <path d="M29 29.5 25.5 26l.5-.5 3 3Z" style="fill:#6e7080;stroke:none"/>
        <path d="m27.5 32 2-2-4-4 .5-.5 4 4 2-2 4.5 4.5-2 2 4 4-.5.5-4-4-2 2Z" style="fill:#6e7080;stroke:none"/>
    </g>
</svg>
