<svg xmlns="http://www.w3.org/2000/svg" width="96" height="96" style="fill-opacity:1;color-rendering:auto;color-interpolation:auto;text-rendering:auto;stroke:#000;stroke-linecap:square;stroke-miterlimit:10;shape-rendering:auto;stroke-opacity:1;fill:#000;stroke-dasharray:none;font-weight:400;stroke-width:1;font-family:&quot;Dialog&quot;;font-style:normal;stroke-linejoin:miter;font-size:12px;stroke-dashoffset:0;image-rendering:auto">
    <g style="stroke-linecap:round;fill:#f8c266;stroke:#f8c266">
        <path stroke="none" d="m34.5 41 6.5-6.5 4 4v2L40.5 45h-2Z" style="stroke:none"/>
    </g>
    <g style="stroke-linecap:round;fill:#f8c266;stroke:#f8c266">
        <path stroke="none" d="m34.5 55 4-4h2l4.5 4.5v2l-4 4ZM51 40.5v-2l4-4 6.5 6.5-4 4h-2Zm0 17v-2l4.5-4.5h2l4 4-6.5 6.5Zm14-33v-4l5.5-5.5L81 25.5 75.5 31h-4Zm0 51v-4l6.5-6.5h4l5.5 5.5L70.5 81Zm20-39v-7l5.5-5.5 5 5v8l-4 4h-2Zm0 30v-7l4.5-4.5h2l4 4v8l-5 5Zm5-49v-6L92.5 9h3v14Zm0 67v-6l5.5-5.5v14h-3Z" style="stroke:none"/>
    </g>
</svg>
