<svg xmlns="http://www.w3.org/2000/svg" width="96" height="96" style="fill-opacity:1;color-rendering:auto;color-interpolation:auto;text-rendering:auto;stroke:#000;stroke-linecap:square;stroke-miterlimit:10;shape-rendering:auto;stroke-opacity:1;fill:#000;stroke-dasharray:none;font-weight:400;stroke-width:1;font-family:&quot;Dialog&quot;;font-style:normal;stroke-linejoin:miter;font-size:12px;stroke-dashoffset:0;image-rendering:auto">
    <g style="stroke-linecap:round;fill:#6e7080;stroke:#6e7080">
        <path stroke="none" d="M24 55.5v-15l8-8 5 5-5 5v11L42.5 64h11l5-5 5 5-8 8h-15Z" style="stroke:none"/>
    </g>
    <g stroke="none" style="stroke-linecap:round;fill:#989aa4;stroke:#989aa4">
        <path d="m33 33.5-1-1 .5-.5.5.5Z" style="stroke:none"/>
        <path d="M32 53.5v-11l5-5-5-5 .5-.5 5 5 5-5h11L64 42.5v11l-5 5 5 5-.5.5-5-5-5 5h-11Z" style="stroke:none"/>
        <path d="m32.5 32 8-8h15L72 40.5v15l-8 8-5-5 5-5v-11L53.5 32h-11l-5 5Z" style="fill:#b0bac0;stroke:none"/>
        <path d="M36 44.5v7l8.5 8.5h7l4-4-3-3-3 3h-3L40 49.5v-3l3-3-3-3Z" style="stroke:none"/>
        <path d="M36 51.5v-7l4-4 3 3-3 3v3l6.5 6.5h3l3-3 3 3-4 4h-7Z" style="fill:#b0bac0;stroke:none"/>
        <path d="m40.5 40 3 3 3-3h3l6.5 6.5v3l-3 3 3 3 4-4v-7L51.5 36h-7Z" style="stroke:none"/>
        <path d="m40.5 40 4-4h7l8.5 8.5v7l-4 4-3-3 3-3v-3L49.5 40h-3l-3 3Z" style="fill:#6e7080;stroke:none"/>
    </g>
</svg>
