<svg xmlns="http://www.w3.org/2000/svg" width="64" height="64" style="fill-opacity:1;color-rendering:auto;color-interpolation:auto;text-rendering:auto;stroke:#000;stroke-linecap:square;stroke-miterlimit:10;shape-rendering:auto;stroke-opacity:1;fill:#000;stroke-dasharray:none;font-weight:400;stroke-width:1;font-family:&quot;Dialog&quot;;font-style:normal;stroke-linejoin:miter;font-size:12px;stroke-dashoffset:0;image-rendering:auto">
    <g style="stroke-linecap:round;fill:#b28768;stroke:#b28768">
        <path stroke="none" d="M4 36.5v-9L7.5 24h7L12 26.5V28h-1.5L8 30.5v3l2.5 2.5H12v1.5l2.5 2.5h-7Z" style="stroke:none"/>
    </g>
    <g stroke="none" style="stroke-linecap:round;fill:#c9a58f;stroke:#c9a58f">
        <path d="M8 33.5v-3l2.5-2.5H12v8h-1.5Z" style="stroke:none"/>
        <path d="M12 37.5v-11l2.5-2.5h2l3.5 3.5v9L16.5 40h-2Z" style="fill:#8f665b;stroke:none"/>
        <path d="M24 14.5v-7L27.5 4h9L40 7.5v7L37.5 12H36v-1.5L33.5 8h-3L28 10.5V12h-1.5Z" style="fill:#b28768;stroke:none"/>
        <path d="M24 16.5v-2l2.5-2.5h11l2.5 2.5v2L36.5 20h-9Z" style="stroke:none"/>
        <path d="M24 49.5v-2l3.5-3.5h9l3.5 3.5v2L37.5 52h-11Z" style="fill:#8f665b;stroke:none"/>
        <path d="M26.5 52H28v1.5l2.5 2.5h3l2.5-2.5V52h1.5l2.5-2.5v7L36.5 60h-9L24 56.5v-7Z" style="fill:#b28768;stroke:none"/>
        <path d="M28 12v-1.5L30.5 8h3l2.5 2.5V12Z" style="fill:#8f665b;stroke:none"/>
        <path d="M28 53.5V52h8v1.5L33.5 56h-3Zm16-17v-9l3.5-3.5h2l2.5 2.5v11L49.5 40h-2Z" style="stroke:none"/>
        <path d="M49.5 24h7l3.5 3.5v9L56.5 40h-7l2.5-2.5V36h1.5l2.5-2.5v-3L53.5 28H52v-1.5Z" style="fill:#b28768;stroke:none"/>
        <path d="M52 36v-8h1.5l2.5 2.5v3L53.5 36Z" style="fill:#8f665b;stroke:none"/>
    </g>
</svg>
