<svg xmlns="http://www.w3.org/2000/svg" width="96" height="96" style="fill-opacity:1;color-rendering:auto;color-interpolation:auto;text-rendering:auto;stroke:#000;stroke-linecap:square;stroke-miterlimit:10;shape-rendering:auto;stroke-opacity:1;fill:#000;stroke-dasharray:none;font-weight:400;stroke-width:1;font-family:&quot;Dialog&quot;;font-style:normal;stroke-linejoin:miter;font-size:12px;stroke-dashoffset:0;image-rendering:auto">
    <g style="stroke-linecap:round;fill:#6e7080;stroke:#6e7080">
        <path stroke="none" d="M12 44v-2.5l4.5-4.5h8l3 3h2l8 8-8 8h-2l-3 3h-8L12 54.5V52h8.5l4-4-4-4Z" style="stroke:none"/>
    </g>
    <g stroke="none" style="stroke-linecap:round;fill:#b0bac0;stroke:#b0bac0">
        <path d="M12 52v-8h2.5l4 4-4 4Z" style="stroke:none"/>
        <path d="M14.5 44h6l4 4-4 4h-6l4-4Zm15-4h5l8 8-8 8h-5l8-8Z" style="fill:#989aa4;stroke:none"/>
        <path d="M37 24.5v-8l4.5-4.5H44v8.5l4 4 4-4V12h2.5l4.5 4.5v8l-3 3v2l-8 8-8-8v-2Z" style="stroke:none"/>
        <path d="M37 79.5v-8l3-3v-2l8-8 8 8v2l3 3v8L54.5 84H52v-8.5l-4-4-4 4V84h-2.5Z" style="fill:#6e7080;stroke:none"/>
        <path d="m48 37.5 8-8v5l-8 8-8-8v-5Zm-8 29v-5l8-8 8 8v5l-8-8Z" style="fill:#989aa4;stroke:none"/>
        <path d="M44 14.5V12h8v2.5l-4 4Z" style="fill:#6e7080;stroke:none"/>
        <path d="m48 18.5 4-4v6l-4 4-4-4v-6Zm-4 63v-6l4-4 4 4v6l-4-4Z" style="fill:#989aa4;stroke:none"/>
        <path d="M44 84v-2.5l4-4 4 4V84Z" style="stroke:none"/>
        <path d="m53.5 48 8-8h5l-8 8 8 8h-5Z" style="fill:#989aa4;stroke:none"/>
        <path d="m58.5 48 8-8h2l3-3h8l4.5 4.5V44h-8.5l-4 4 4 4H84v2.5L79.5 59h-8l-3-3h-2Z" style="stroke:none"/>
        <path d="m71.5 48 4-4h6l-4 4 4 4h-6Z" style="fill:#989aa4;stroke:none"/>
        <path d="m77.5 48 4-4H84v8h-2.5Z" style="fill:#6e7080;stroke:none"/>
    </g>
</svg>
