<svg xmlns="http://www.w3.org/2000/svg" width="96" height="96" style="fill-opacity:1;color-rendering:auto;color-interpolation:auto;text-rendering:auto;stroke:#000;stroke-linecap:square;stroke-miterlimit:10;shape-rendering:auto;stroke-opacity:1;fill:#000;stroke-dasharray:none;font-weight:400;stroke-width:1;font-family:&quot;Dialog&quot;;font-style:normal;stroke-linejoin:miter;font-size:12px;stroke-dashoffset:0;image-rendering:auto">
    <g style="stroke-linecap:round;fill:#cfcfcf;stroke:#cfcfcf">
        <path stroke="none" d="M20 65.5v-35L30.5 20h35L76 30.5v35L65.5 76h-35Z" style="stroke:none"/>
    </g>
    <g stroke="none" style="stroke-linecap:round;fill:#cfcfcf;stroke:#cfcfcf">
        <path d="m23.5 34 4.5 4.5v4l-4 4v3l4 4v4L23.5 62l10 10h2l4-4h3l4 4h3l4-4h3l4 4h2l10-10-4.5-4.5v-4l4-4v-3l-4-4v-4l4.5-4.5-10-10h-2l-4 4h-3l-4-4h-3l-4 4h-3l-4-4h-2Z" style="stroke:none"/>
        <path d="m23.5 34 10-10h2l4 4h3l4-4h3l4 4h3l4-4h2l10 10-4.5 4.5v4l4 4v3l-4 4v4l4.5 4.5-10 10h-2l-4-4h-3l-4 4h-3l-4-4h-3l-4 4h-2l-10-10 4.5-4.5v-4l-4-4v-3l4-4v-4Z" style="fill:#fff;stroke:none"/>
    </g>
</svg>
