<svg xmlns="http://www.w3.org/2000/svg" width="64" height="64" style="fill-opacity:1;color-rendering:auto;color-interpolation:auto;text-rendering:auto;stroke:#000;stroke-linecap:square;stroke-miterlimit:10;shape-rendering:auto;stroke-opacity:1;fill:#000;stroke-dasharray:none;font-weight:400;stroke-width:1;font-family:&quot;Dialog&quot;;font-style:normal;stroke-linejoin:miter;font-size:12px;stroke-dashoffset:0;image-rendering:auto">
    <g style="stroke-linecap:round;fill:#989aa4;stroke:#989aa4">
        <path stroke="none" d="M20 37.5v-11l3.5-3.5h25l.5.5v17l-.5.5h-25Z" style="stroke:none"/>
    </g>
    <g stroke="none" style="stroke-linecap:round;fill:#989aa4;stroke:#989aa4">
        <path d="M23 30.5v3l3.5 3.5 3.5-3.5v-3L26.5 27Z" style="stroke:none"/>
        <path d="M23 33.5v-3l3.5-3.5 3.5 3.5v3L26.5 37Z" style="fill:#f8c266;stroke:none"/>
        <path d="m30 26.5 5.5 5.5-5.5 5.5.5.5h10l6-6-6-6h-10Z" style="stroke:none"/>
        <path d="m30 26.5.5-.5h10l6 6-6 6h-10l-.5-.5 5.5-5.5Zm16-17 5-5 5 5-5 5Zm0 45 5-5 5 5-5 5Zm9-31v-6l4.5-4.5.5.5v14l-.5.5Zm0 23v-6l4.5-4.5.5.5v14l-.5.5Z" style="fill:#f8c266;stroke:none"/>
    </g>
</svg>
