<svg xmlns="http://www.w3.org/2000/svg" width="64" height="64" style="fill-opacity:1;color-rendering:auto;color-interpolation:auto;text-rendering:auto;stroke:#000;stroke-linecap:square;stroke-miterlimit:10;shape-rendering:auto;stroke-opacity:1;fill:#000;stroke-dasharray:none;font-weight:400;stroke-width:1;font-family:&quot;Dialog&quot;;font-style:normal;stroke-linejoin:miter;font-size:12px;stroke-dashoffset:0;image-rendering:auto">
    <g style="stroke-linecap:round;fill:#989aa4;stroke:#989aa4">
        <path stroke="none" d="M4 37.5v-11l6.5-6.5h3l3 3-4 4h-1L8 30.5v3l3.5 3.5h1l4 4-3 3h-3Z" style="stroke:none"/>
    </g>
    <g stroke="none" style="stroke-linecap:round;fill:#b0bac0;stroke:#b0bac0">
        <path d="M8 33.5v-3l3.5-3.5h.5v10h-.5Z" style="stroke:none"/>
        <path d="M12.5 37H12V27h.5l4-4 3.5 3.5v11L16.5 41Z" style="fill:#6e7080;stroke:none"/>
        <path d="M20 13.5v-3L26.5 4h11l6.5 6.5v3l-3 3-4-4v-1L33.5 8h-3L27 11.5v1l-4 4Zm0 40v-3l3-3 4 4v1l3.5 3.5h3l3.5-3.5v-1l4-4 3 3v3L37.5 60h-11Z" style="fill:#989aa4;stroke:none"/>
        <path d="m23 16.5 4-4V12h10v.5l4 4-3.5 3.5h-11Z" style="stroke:none"/>
        <path d="m23 47.5 3.5-3.5h11l3.5 3.5-4 4v.5H27v-.5ZM27 12v-.5L30.5 8h3l3.5 3.5v.5Z" style="fill:#6e7080;stroke:none"/>
        <path d="M27 52.5V52h10v.5L33.5 56h-3Zm17-15v-11l3.5-3.5 4 4h.5v10h-.5l-4 4Z" style="stroke:none"/>
        <path d="m47.5 23 3-3h3l6.5 6.5v11L53.5 44h-3l-3-3 4-4h1l3.5-3.5v-3L52.5 27h-1Z" style="fill:#989aa4;stroke:none"/>
        <path d="M56 30.5v3L52.5 37H52V27h.5Z" style="fill:#6e7080;stroke:none"/>
    </g>
</svg>
