<svg xmlns="http://www.w3.org/2000/svg" width="64" height="64" style="fill-opacity:1;color-rendering:auto;color-interpolation:auto;text-rendering:auto;stroke:#000;stroke-linecap:square;stroke-miterlimit:10;shape-rendering:auto;stroke-opacity:1;fill:#000;stroke-dasharray:none;font-weight:400;stroke-width:1;font-family:&quot;Dialog&quot;;font-style:normal;stroke-linejoin:miter;font-size:12px;stroke-dashoffset:0;image-rendering:auto">
    <g style="stroke-linecap:round;fill:#989aa4;stroke:#989aa4">
        <path stroke="none" d="M.5 3V.5H3L6.5 4h9l-5 5 3.5 3.5-1.5 1.5L9 10.5l-5 5v-9Z" style="stroke:none"/>
    </g>
    <g stroke="none" style="stroke-linecap:round;fill:#6e7080;stroke:#6e7080">
        <path d="M4 6.5V24H.5V3Z" style="stroke:none"/>
        <path d="M.5 40V24H4v16Z" style="fill:#5757c1;stroke:none"/>
        <path d="M3 .5h21V4H6.5Z" style="fill:#b0bac0;stroke:none"/>
        <path d="M4 56.5 7.5 60H24v3.5H.5V40H4Z" style="stroke:none"/>
        <path d="M4 48.5v-33l5-5 3.5 3.5L8 18.5v27L18.5 56h27l4.5-4.5 3.5 3.5-5 5h-33Z" style="fill:#b0bac0;stroke:none"/>
        <path d="M15.5 60h-8L4 56.5v-8Z" style="fill:#989aa4;stroke:none"/>
        <path d="M8 45.5v-27L18.5 8h27L56 18.5v27L45.5 56h-27Z" style="fill:#4a4b53;stroke:none"/>
        <path d="m10.5 9 5-5h33L60 15.5v33l-5 5-3.5-3.5 4.5-4.5v-27L45.5 8h-27L14 12.5Z" style="stroke:none"/>
        <path d="M24 4V.5h16V4Z" style="fill:#88a4ff;stroke:none"/>
        <path d="M40 63.5H24V60h16Z" style="fill:#5757c1;stroke:none"/>
        <path d="M40 4V.5h23.5V24H60V7.5L56.5 4Z" style="fill:#b0bac0;stroke:none"/>
        <path d="M48.5 4h8L60 7.5v8Zm0 56 5-5-3.5-3.5 1.5-1.5 3.5 3.5 5-5v9l3.5 3.5v2.5H61L57.5 60Z" style="fill:#989aa4;stroke:none"/>
        <path d="M61 63.5H40V60h17.5Z" style="stroke:none"/>
        <path d="M60 40V24h3.5v16Z" style="fill:#88a4ff;stroke:none"/>
        <path d="M60 57.5V40h3.5v21Z" style="fill:#b0bac0;stroke:none"/>
    </g>
</svg>
