<svg xmlns="http://www.w3.org/2000/svg" width="64" height="64" style="fill-opacity:1;color-rendering:auto;color-interpolation:auto;text-rendering:auto;stroke:#000;stroke-linecap:square;stroke-miterlimit:10;shape-rendering:auto;stroke-opacity:1;fill:#000;stroke-dasharray:none;font-weight:400;stroke-width:1;font-family:&quot;Dialog&quot;;font-style:normal;stroke-linejoin:miter;font-size:12px;stroke-dashoffset:0;image-rendering:auto">
    <g style="stroke-linecap:round;fill:#989aa4;stroke:#989aa4">
        <path stroke="none" d="M4 36.5v-9L7.5 24H12v2.5l2 2 2-2V24h.5l3.5 3.5v9L16.5 40H16v-2.5l-2-2-2 2V40H7.5Z" style="stroke:none"/>
    </g>
    <g stroke="none" style="stroke-linecap:round;fill:#989aa4;stroke:#989aa4">
        <path d="M8 29.5v5l2 2 2-2v-5l-2-2Z" style="stroke:none"/>
        <path d="M8 34.5v-5l2-2 2 2v5l-2 2Z" style="fill:#b0bac0;stroke:none"/>
        <path d="M12 26.5V24h4v2.5l-2 2ZM12 40v-2.5l2-2 2 2V40Z" style="fill:#6e7080;stroke:none"/>
        <path d="M24 12V7.5L27.5 4h9L40 7.5V12h-2.5l-2 2 2 2H40v.5L36.5 20h-9L24 16.5V16h2.5l2-2-2-2Z" style="stroke:none"/>
        <path d="M24 16v-4h2.5l2 2-2 2Z" style="fill:#b0bac0;stroke:none"/>
        <path d="M24 48v-.5l3.5-3.5h9l3.5 3.5v.5h-2.5l-2 2 2 2H40v4.5L36.5 60h-9L24 56.5V52h2.5l2-2-2-2Z" style="stroke:none"/>
        <path d="M24 52v-4h2.5l2 2-2 2Z" style="fill:#6e7080;stroke:none"/>
        <path d="m27.5 10 2 2h5l2-2-2-2h-5Zm0 44 2 2h5l2-2-2-2h-5Z" style="stroke:none"/>
        <path d="m27.5 10 2-2h5l2 2-2 2h-5Z" style="fill:#6e7080;stroke:none"/>
        <path d="m27.5 54 2-2h5l2 2-2 2h-5Zm8-40 2-2H40v4h-2.5Z" style="fill:#b0bac0;stroke:none"/>
        <path d="m35.5 50 2-2H40v4h-2.5Z" style="fill:#6e7080;stroke:none"/>
        <path d="M44 36.5v-9l3.5-3.5h.5v2.5l2 2 2-2V24h4.5l3.5 3.5v9L56.5 40H52v-2.5l-2-2-2 2V40h-.5Z" style="stroke:none"/>
        <path d="M48 26.5V24h4v2.5l-2 2ZM48 40v-2.5l2-2 2 2V40Z" style="fill:#b0bac0;stroke:none"/>
        <path d="m52 34.5 2 2 2-2v-5l-2-2-2 2Z" style="stroke:none"/>
        <path d="M52 34.5v-5l2-2 2 2v5l-2 2Z" style="fill:#6e7080;stroke:none"/>
    </g>
</svg>
