<svg xmlns="http://www.w3.org/2000/svg" width="100" height="100" style="fill-opacity:1;color-rendering:auto;color-interpolation:auto;text-rendering:auto;stroke:#000;stroke-linecap:square;stroke-miterlimit:10;shape-rendering:auto;stroke-opacity:1;fill:#000;stroke-dasharray:none;font-weight:400;stroke-width:1;font-family:&quot;Dialog&quot;;font-style:normal;stroke-linejoin:miter;font-size:12px;stroke-dashoffset:0;image-rendering:auto">
    <g style="stroke-linecap:round;fill:#ef993c;stroke:#ef993c">
        <path stroke="none" d="M18 54.5v-4l1-1v-1l2.5-2.5h2l1-1h1L24 46.5v1l-1 1v4l2.5 2.5h1l1 1h2l1-1H32v.5L30.5 57h-1l-2 2h-1L25 60.5 23.5 59h-2L19 56.5v-1Z" style="stroke:none"/>
    </g>
    <g stroke="none" style="stroke-linecap:round;fill:#ef9a3c;stroke:#ef9a3c">
        <path d="M22 70.5v-3l1-1v-1l2.5-2.5H27v1.5l2.5 2.5h1l1.5 1.5 1.5-1.5H36v4.5l-1 1v1L33.5 75h-1l-1 1h-5L23 72.5v-1Z" style="stroke:none"/>
        <path d="M23 52.5v-4l1-1v-1l1.5-1.5H31v.5l3 3v3l-1 1V54h-.5l-.5.5v.5h-1.5l-1 1h-2l-1-1h-1Zm4 12V59h.5l2-2h5l3.5 3.5v3l-1 1v1l-1 1v.5h-2.5L32 68.5 30.5 67h-1Z" style="fill:#f3a942;stroke:none"/>
        <path d="m27.5 45 1.5-1.5v-1l3.5-3.5 1.5 1.5-3 3V45Z" style="fill:#ee933a;stroke:none"/>
        <path d="M31 45.5v-2l3-3 .5.5h4l1.5 1.5v5L38.5 49h-1l-1 1H34v-1.5Z" style="fill:#f5b245;stroke:none"/>
        <path d="m32.5 39 .5-.5v-1l1.5-1.5h2l1.5 1.5v2L36.5 41h-2Z" style="fill:#e05624;stroke:none"/>
        <path d="M33 54v-1.5l1-1V50h2.5l1-1h1l1.5-1.5v-5L38.5 41h-2l1.5-1.5V39h1.5l2.5 2.5-1 1 .5.5H43v.5l-1 1v5l1 1-2.5 2.5h-1l-1 1Z" style="fill:#ee933a;stroke:none"/>
        <path d="M39 65.5v-3l1-1v-1l1.5-1.5h1l1-1h4l1 1h1l2 2-1 1 1.5 1.5v3L48.5 70h-1l-1 1h-2l-1-1h-1L40 67.5v-1Z" style="fill:#f1a03f;stroke:none"/>
        <path d="m41.5 43-.5-.5 1-1 1 1v.5Z" style="fill:#fdd752;stroke:none"/>
        <path d="M42 49.5v-5l1-1V43h.5l1.5-1.5 1 1v1l1 1-1 1v2l-1 1 1 1v2l1 1-.5.5h-1l-1-1h-1l-1-1 .5-.5Z" style="fill:#f2a440;stroke:none"/>
        <path d="m45 41.5 1-1v-1l1.5-1.5h1l1-1 1 1 .5-.5 2 2V42h-3.5L47 44.5l-1-1v-1Z" style="fill:#f7bb48;stroke:none"/>
        <path d="m45 48.5 1-1v-2l3.5-3.5h5l1 1h1l1.5 1.5v1l1 1v3l.5.5-1.5 1.5v1L56.5 54h-1l-1 1h-5L46 51.5v-2Z" style="fill:#f09c3d;stroke:none"/>
        <path d="M46 39.5v-3l2-2 3 3-.5.5-1-1-1 1h-1Z" style="fill:#df5323;stroke:none"/>
        <path d="M51 33.5v-2l.5-.5h2l.5.5v2L52.5 35Z" style="fill:#de4f21;stroke:none"/>
        <path d="m50.5 62 1.5-1.5v-1l.5-.5h1l1.5-1.5 1.5 1.5h1l.5.5v1l1.5 1.5-1.5 1.5v1L56.5 66h-3L52 64.5v-1Z" style="fill:#f7bb48;stroke:none"/>
        <path d="M54 56.5V55h.5l1-1h1l1 1h2l.5-.5v-1l1.5-1.5-2.5-2.5v-1l1.5 1.5h2l1 1 1-1H67v5.5l-1 1v1L64.5 59h-1l-1 1H58v-.5l-.5-.5h-1Z" style="fill:#ef9b3d;stroke:none"/>
        <path d="M56.5 43H56v-3.5l4.5-4.5h5l1 1h1l2.5 2.5v1l1 1v5l-1 1v1L68.5 49h-1l-.5.5v.5h-2.5l-1 1-1-1h-2L59 48.5v-2l-1-1v-1Z" style="fill:#ee933a;stroke:none"/>
        <path d="m57.5 55-1-1 1.5-1.5v-1l1.5-1.5 2 2-1.5 1.5v1l-.5.5Z" style="fill:#f9c64c;stroke:none"/>
        <path d="m62.5 37 1 1h2l1-1-1-1h-2Z" style="fill:#ee933a;stroke:none"/>
        <path d="m63.5 38-1-1 1-1h2l1 1-1 1Z" style="fill:#fcd351;stroke:none"/>
        <path d="m62.5 63 1-1H65v1.5l.5.5-1 1Z" style="fill:#fcd150;stroke:none"/>
        <path d="m65.5 64-.5-.5V62h1.5l.5.5Z" style="fill:#fdd652;stroke:none"/>
        <path d="M69 67.5v-5l1-1v-1l1.5-1.5h1l1-1h2l1-1 1 1h2l3.5 3.5v1l1 1v4l-2 2v1l-.5.5h-1l-1 1h-1l-1 1h-2l-1-1h-2L70 69.5v-1Z" style="fill:#ee943a;stroke:none"/>
        <path d="M74 46.5v-3l1-1v-1l1.5-1.5h5l3 3h-3L80 44.5v1L78.5 47l1.5 1.5V50h-2.5Z" style="fill:#e6712d;stroke:none"/>
        <path d="m78.5 47 1.5-1.5v-1l1.5-1.5h4l1.5 1.5v1l1.5 1.5-1.5 1.5v1L85.5 51h-4l-1-1H80v-1.5Z" style="fill:#e3662a;stroke:none"/>
    </g>
</svg>
