<svg xmlns="http://www.w3.org/2000/svg" width="100" height="100" style="fill-opacity:1;color-rendering:auto;color-interpolation:auto;text-rendering:auto;stroke:#000;stroke-linecap:square;stroke-miterlimit:10;shape-rendering:auto;stroke-opacity:1;fill:#000;stroke-dasharray:none;font-weight:400;stroke-width:1;font-family:&quot;Dialog&quot;;font-style:normal;stroke-linejoin:miter;font-size:12px;stroke-dashoffset:0;image-rendering:auto">
    <g style="stroke-linecap:round;fill:#e15b25;stroke:#e15b25">
        <path stroke="none" d="M14 51.5v-2l1.5-1.5H17v.5l-1 1v2l1 1V54h-.5Z" style="stroke:none"/>
    </g>
    <g stroke="none" style="stroke-linecap:round;fill:#e46a2b;stroke:#e46a2b">
        <path d="M16 51.5v-2l1-1v-1l1.5-1.5h4l2.5 2.5v4L22.5 55h-3l-1-1H17v-1.5Z" style="stroke:none"/>
        <path d="M21 39.5v-5l3.5-3.5h3l1 1h1l1.5 1.5v1l1 1v2l-1 1v1L28.5 42h-5Z" style="fill:#e6732e;stroke:none"/>
        <path d="m23 75.5 1-1v-1l.5-.5H26v.5l1.5 1.5h1l.5.5v2l-.5.5h-1l-1 1-1-1h-1l-.5-.5v-1Z" style="fill:#e15b25;stroke:none"/>
        <path d="M26 73.5v-5l1.5-1.5h1l1.5-1.5 1.5 1.5h1l2.5 2.5v3L31.5 76H29v-.5l-.5-.5h-1Z" style="stroke:none"/>
        <path d="M32 57.5v-2l2-2 3 3-3 3Z" style="fill:#df5423;stroke:none"/>
        <path d="M35 43.5v-5l1-1v-1l.5-.5h1l1-1h5l1 1h1l.5.5v1l1 1v5L44.5 46h-2l-1 1h-3Z" style="fill:#e87c31;stroke:none"/>
        <path d="M36 73.5v-2l2.5-2.5h3l2.5 2.5v2L41.5 76h-3Z" style="fill:#e26128;stroke:none"/>
        <path d="m41.5 52-.5-.5V47h.5l1-1h2l.5-.5 1.5 1.5h.5v4.5l-.5.5h-1L44 53.5 42.5 52Z" style="fill:#e15e26;stroke:none"/>
        <path d="m44.5 36-1-1 2-2H49v.5l1 1v1l1 1v1l1.5 1.5-1.5 1.5V47h-4.5L45 45.5l2-2v-5l-1-1v-1l-.5-.5Z" style="fill:#ef983c;stroke:none"/>
        <path d="M47 60.5v-5l4.5-4.5h5l1 1h1l2.5 2.5v2l.5.5h.5v1.5l-1 1v2L57.5 65h-6l-1-1h-1l-.5-.5v-1Z" style="fill:#ef983b;stroke:none"/>
        <path d="m48.5 48-1-1h4l.5.5-.5.5Z" style="fill:#f4ad43;stroke:none"/>
        <path d="M49 33.5v-2l1-1v-2l2.5-2.5h1l1-1h5l1 1h1l1.5 1.5v1l1 1v2l1 1-1 1v2l-1 1V38h-1.5l-2 2h-5L53 38.5l-.5.5-1.5-1.5v-1l-1-1v-1Z" style="fill:#ee943a;stroke:none"/>
        <path d="M51.5 47H51v-6.5l2-2 1.5 1.5h5l2-2h2l1.5 1.5v1l1 1v1l4 4v5l.5.5-5 5h-4l-.5-.5v-2L58.5 52h-1l-1-1h-1Z" style="fill:#eb8736;stroke:none"/>
        <path d="M51 48.5V48h.5l.5-.5 3.5 3.5h-2Z" style="fill:#f5b145;stroke:none"/>
        <path d="M55 66.5V65h2.5l2-2 .5.5v1l1 1v1l.5.5-1.5 1.5v.5h-2.5Z" style="fill:#e15c26;stroke:none"/>
        <path d="M60 64.5v-1l-.5-.5 1.5-1.5v-2l1-1V57h3.5l1.5-1.5 1.5 1.5h1l2.5 2.5v1l1 1v2L71.5 65l-1-1h-6l-3 3-.5-.5v-1Z" style="fill:#e87c31;stroke:none"/>
        <path d="M60 74.5v-6l4.5-4.5h6l1 1 .5-.5 2 2v1l1 1v6L70.5 79h-5l-1-1h-1Z" style="fill:#ee933a;stroke:none"/>
        <path d="m68.5 55-.5-.5 2.5-2.5 1 1h1l.5.5-1.5 1.5Z" style="fill:#f9c54c;stroke:none"/>
        <path d="M70 51.5v-2l2-2 2 2v3l-1 1-.5-.5h-1Z" style="fill:#df5423;stroke:none"/>
        <path d="M83 72.5v-2l2-2 1.5 1.5h1l.5.5v2L86.5 74h-2Z" style="fill:#e05623;stroke:none"/>
    </g>
</svg>
