<svg xmlns="http://www.w3.org/2000/svg" width="100" height="100" style="fill-opacity:1;color-rendering:auto;color-interpolation:auto;text-rendering:auto;stroke:#000;stroke-linecap:square;stroke-miterlimit:10;shape-rendering:auto;stroke-opacity:1;fill:#000;stroke-dasharray:none;font-weight:400;stroke-width:1;font-family:&quot;Dialog&quot;;font-style:normal;stroke-linejoin:miter;font-size:12px;stroke-dashoffset:0;image-rendering:auto">
    <g style="stroke-linecap:round;fill:#ea8234;stroke:#ea8234">
        <path stroke="none" d="M15 53.5v-4l1-1v-1l1.5-1.5H19v.5l-1 1v6l4.5 4.5h2l-1 1h-3l-1-1h-1L16 55.5v-1Z" style="stroke:none"/>
    </g>
    <g stroke="none" style="stroke-linecap:round;fill:#ed9239;stroke:#ed9239">
        <path d="M18 53.5v-6l1-1v-1l2.5-2.5h2l1-1h2l1 1h2l2.5 2.5v1l1 1v6l-4 4 .5.5h5l1 1h1l1.5 1.5v1l1 1v6l-1 1v1L36.5 72h-1l-.5.5v.5h-6.5l-1-1h-1L25 70.5v-1l-1-1v-6l1-1v-1l1.5-1.5h1l.5-.5-.5-.5h-5Z" style="stroke:none"/>
        <path d="M21 73.5v-4l1-1v-1l2-2v3l1 1v1l1.5 1.5h1l1 1H35v1.5L31.5 78h-2l-1 1-1-1h-2l-1-1h-1L22 75.5v-1Z" style="fill:#ea8234;stroke:none"/>
        <path d="M25 42v-1.5l1-1v-1l2.5-2.5h1l1-1h4l1 1h1l1.5 1.5v1l1 1v5l-1 1v1L36.5 48h-1l-1 1H33v-1.5l-1-1v-1L29.5 43h-2l-1-1Z" style="fill:#ef9a3d;stroke:none"/>
        <path d="m32.5 56-1-1 1.5-1.5V49h1.5l1-1h1l1.5-1.5v-1l1-1 1 1v1l1 1v1l1 1v2l-1 1v1L38.5 56h-2l-1 1-1-1Z" style="fill:#e87b31;stroke:none"/>
        <path d="m37 71.5 1-1v-1l1-1v-6l-1-1V61h1.5l1-1h6l4.5 4.5v6L47.5 74h-1l-1 1h-4l-1-1h-1Z" style="fill:#eb8936;stroke:none"/>
        <path d="M40 42.5v-3l1-1v-1l1.5-1.5h1l1-1h4l3.5 3.5V42h-5.5l-1 1h-1L43 44.5v1l-.5.5-1.5-1.5v-1Z" style="fill:#f1a340;stroke:none"/>
        <path d="M42 51.5v-5l1-1v-1l1.5-1.5h1l1-1h6l3.5 3.5v2l1.5 1.5-1.5 1.5v2L53.5 55h-1l-1 1h-5l-1-1h-1l-.5-.5v-1Z" style="fill:#ea8535;stroke:none"/>
        <path d="m51 37.5 1-1 .5.5h2l3.5 3.5v1l1 1V44h-2.5l-1 1-3-3H52v-3.5Z" style="fill:#ec8c37;stroke:none"/>
        <path d="M53.5 37h-1l-.5-.5.5-.5Z" style="fill:#fedb54;stroke:none"/>
        <path d="M54 58.5v1l-1 1V55h.5l2-2 1 1h3l1-1h1l.5-.5v-2l.5.5h.5v.5l4 4v4l-1 1v1l-.5.5-.5-.5v-2L62.5 57h-1l-1-1h-3l-1 1h-1Z" style="fill:#ea8334;stroke:none"/>
        <path d="M53 63.5v-3l1-1v-1l1.5-1.5h1l1-1h3l1 1h1l.5.5-.5.5h-3l-.5.5v1L57.5 61l1.5 1.5v1l.5.5H62v4h-5.5L54 65.5v-1Z" style="fill:#f1a340;stroke:none"/>
        <path d="M56 47.5v-2l-.5-.5 1-1H60v2.5l1 1v1l1 1v3l-.5.5h-1l-1 1h-3l-1-1 .5-.5v-2l1.5-1.5Z" style="fill:#f4af44;stroke:none"/>
        <path d="M58 36.5v-3l1.5-1.5h4l1.5 1.5v3L62.5 39h-2Z" style="fill:#f7bb48;stroke:none"/>
        <path d="m57.5 61 1.5-1.5v-1l.5-.5h3l.5-.5 2 2v2l.5.5-2 2h-4l-.5-.5v-1Z" style="fill:#f8bf4a;stroke:none"/>
        <path d="M59 44v-1.5l2.5-2.5h1l1-1h3l-1 1h-2L61 42.5v1l-.5.5Z" style="fill:#f4ae44;stroke:none"/>
        <path d="M60 46.5V44h.5l.5-.5v-1l2.5-2.5h2l1-1h1l1 1h1l3.5 3.5v4l-1 1v1L70.5 51h-1l-1 1h-4l-1-1h-1l-.5-.5v-1l-1-1v-1Z" style="fill:#e87b31;stroke:none"/>
        <path d="M62.5 68H62v-4h1.5l2-2 1 1h1l1.5 1.5v1l1 1-1 1v1L67.5 70h-3Z" style="fill:#f7ba48;stroke:none"/>
        <path d="M73 69.5v-3l1-1v-1l3.5-3.5h4l1 1h1l1.5 1.5v1l1 1v5L82.5 74h-5l-1-1h-1l-.5-.5v-1Z" style="fill:#e97d32;stroke:none"/>
        <path d="M81 44.5v-3l1.5-1.5h2l1.5 1.5V44h-.5l-.5.5V46h-2.5Z" style="fill:#e05925;stroke:none"/>
        <path d="m85.5 47-.5-.5v-2l.5-.5h2l1.5 1.5-1.5 1.5Z" style="fill:#de4f21;stroke:none"/>
    </g>
</svg>
