<svg xmlns="http://www.w3.org/2000/svg" width="100" height="100" style="fill-opacity:1;color-rendering:auto;color-interpolation:auto;text-rendering:auto;stroke:#000;stroke-linecap:square;stroke-miterlimit:10;shape-rendering:auto;stroke-opacity:1;fill:#000;stroke-dasharray:none;font-weight:400;stroke-width:1;font-family:&quot;Dialog&quot;;font-style:normal;stroke-linejoin:miter;font-size:12px;stroke-dashoffset:0;image-rendering:auto">
    <g style="stroke-linecap:round;fill:#f5b546;stroke:#f5b546">
        <path stroke="none" d="M24 54.5v-2l1-1v-1l1.5-1.5H29v2.5l1.5 1.5H33v1.5l-4 4-1.5-1.5h-1Z" style="stroke:none"/>
    </g>
    <g stroke="none" style="stroke-linecap:round;fill:#f5b546;stroke:#f5b546">
        <path d="M26 67.5v-3l2.5-2.5h4l1.5 1.5v1l1.5 1.5-1.5 1.5v1L32.5 70h-4Z" style="stroke:none"/>
        <path d="M29 51.5v-3l.5-.5h1l1-1 1 1h1l.5.5v3l-1 1v.5h-2.5Zm2 8v-2l-.5-.5 1.5-1.5.5.5 1-1 2.5 2.5v2L34.5 61h-2Z" style="fill:#f9c54c;stroke:none"/>
        <path d="M32 44.5v-5l2-2v3l2.5 2.5H42v.5L38.5 47h-3l-1-1h-1Z" style="fill:#f4ae44;stroke:none"/>
        <path d="M34 40.5v-5l2.5-2.5h5l2.5 2.5v5l-2 2v.5h-5.5Z" style="fill:#e6712e;stroke:none"/>
        <path d="m37.5 49 2.5-2.5 2.5 2.5-2.5 2.5Z" style="fill:#fbcd4f;stroke:none"/>
        <path d="m38.5 53 2.5-2.5.5.5h2l.5.5v2l.5.5-1 1h-3Z" style="fill:#df5523;stroke:none"/>
        <path d="m41.5 51-.5-.5 1.5-1.5-1-1 1-1h2l2.5 2.5v2L44.5 54l-.5-.5v-2l-.5-.5Z" style="fill:#f8bf4a;stroke:none"/>
        <path d="m43.5 61 1.5-1.5v-1l.5-.5h1l1.5-1.5 1.5 1.5h1l.5.5v1l1.5 1.5-1 1-1.5-1.5-1.5 1.5 1.5 1.5-.5.5h-4l-.5-.5v-1Z" style="fill:#f7bc49;stroke:none"/>
        <path d="M45 41.5v-3l2-2 1 1v1l1.5 1.5H52v1.5l1 1 1-1-1.5-1.5H55v1.5l.5.5-3 3h-4Z" style="fill:#e56e2d;stroke:none"/>
        <path d="m47.5 29-.5-.5v-2l2-2 2 2v2l-.5.5Z" style="fill:#df5122;stroke:none"/>
        <path d="M47 36.5v-2l3.5-3.5h2l1 1h1l1.5 1.5-2 2v3l1 1v.5h-5.5L48 38.5v-1Z" style="fill:#e46a2b;stroke:none"/>
        <path d="M50 63.5 48.5 62l1.5-1.5 1.5 1.5Zm4-22-1 1-1-1V40h.5Z" style="fill:#fdd652;stroke:none"/>
        <path d="M52 49.5v-3l2.5-2.5h3l2.5 2.5v3L57.5 52h-3Z" style="fill:#f6b847;stroke:none"/>
        <path d="M55 36.5v3l-1-1v-3l2-2 1 1Z" style="fill:#df5523;stroke:none"/>
        <path d="M55 41.5v-5l2-2 .5.5 1.5-1.5.5.5h1l1 1h1l1.5 1.5v1l1.5 1.5-1.5 1.5v1L61.5 44h-4Z" style="fill:#f4ae44;stroke:none"/>
        <path d="m58 34.5-1-1 1-1 1 1Z" style="fill:#dc451d;stroke:none"/>
        <path d="m58.5 45 .5-.5V44h4.5l1.5 1.5v4L62.5 52h-2L59 50.5l1-1v-3Z" style="fill:#f6b647;stroke:none"/>
        <path d="m60 59.5-1-1 1-1 1 1Z" style="fill:#dc441d;stroke:none"/>
        <path d="M66 48.5v-3l1-1v-1l3.5-3.5h1l1-1h4l1 1h1l2 2h-4L73 45.5v6l1 1v1l.5.5h1l1 1h-5l-1-1h-1L67 51.5v-2Z" style="fill:#ec8d37;stroke:none"/>
        <path d="m66.5 62 1.5-1.5v-1l1.5-1.5h1l1-1h2l1 1h1l.5.5v1l1 1v3l-1 1v1l-.5.5h-1l-1 1h-3L68 64.5v-1Z" style="fill:#f4b044;stroke:none"/>
        <path d="M69 80.5v-2l.5-.5h2l2 2-2.5 2.5Z" style="fill:#de5021;stroke:none"/>
        <path d="M73 51.5v-6l3.5-3.5h6l3.5 3.5v1l1 1v2l-1 1v2L83.5 55h-1l-1 1h-3l-1-1h-1l-1-1h-1l-.5-.5v-1Z" style="fill:#ea8234;stroke:none"/>
    </g>
</svg>
