<svg xmlns="http://www.w3.org/2000/svg" width="100" height="100" style="fill-opacity:1;color-rendering:auto;color-interpolation:auto;text-rendering:auto;stroke:#000;stroke-linecap:square;stroke-miterlimit:10;shape-rendering:auto;stroke-opacity:1;fill:#000;stroke-dasharray:none;font-weight:400;stroke-width:1;font-family:&quot;Dialog&quot;;font-style:normal;stroke-linejoin:miter;font-size:12px;stroke-dashoffset:0;image-rendering:auto">
    <g style="stroke-linecap:round;fill:#e3662a;stroke:#e3662a">
        <path stroke="none" d="m13.5 51 1.5-1.5v-1l1.5-1.5h.5v1.5L15.5 50l1.5 1.5v2l1.5 1.5h-2L15 53.5v-1Z" style="stroke:none"/>
    </g>
    <g stroke="none" style="stroke-linecap:round;fill:#e7762f;stroke:#e7762f">
        <path d="m15.5 50 1.5-1.5V47h.5l2-2h5l1 1h1l.5.5v1l1 1v4L24.5 56h-4l-1-1h-1L17 53.5v-2Z" style="stroke:none"/>
        <path d="M21 39.5v-3l1-1v-1l1.5-1.5h1l1-1h6l2.5 2.5v1l1 1v3l-1 1v1L30.5 45h-5L22 41.5v-1Z" style="fill:#e97f33;stroke:none"/>
        <path d="M23 76.5v-4l1.5-1.5 4 4H31v1.5L29.5 78h-1L27 79.5 25.5 78h-1Z" style="fill:#e3672a;stroke:none"/>
        <path d="m24.5 71 .5-.5v-3l1-1v-1l1.5-1.5h6l2.5 2.5v6L34.5 74h-1l-1 1h-4Z" style="stroke:none"/>
        <path d="M31 55.5v-2l2.5-2.5h2l2.5 2.5v3L36.5 58h-3Z" style="fill:#e26027;stroke:none"/>
        <path d="M35 43.5v-5l1-1v-1l1.5-1.5h1l1-1h1l1-1h2l1 1h1l1 1h1l1.5 1.5v1l1 1v5l-1 1V46h-.5l-1-1h-4L41 47.5v.5h-1.5l-1-1h-1L36 45.5v-1Z" style="fill:#eb8736;stroke:none"/>
        <path d="M36 72.5v-3l1-1v-1l.5-.5h1l1-1h3l1 1h1l.5.5v1l1 1v3L42.5 76h-3Z" style="fill:#e56d2c;stroke:none"/>
        <path d="M41 50.5v-3l2.5-2.5h4l1 1h.5v.5l1.5 1.5-.5.5v3L48.5 53h-1l-1 1h-2l-1-1h-1l-.5-.5v-1Z" style="fill:#e4692b;stroke:none"/>
        <path d="m46.5 35-1-1h3l1 1h1l2.5 2.5v1l.5.5-2.5 2.5v2l-1 1V46h-1v-1.5l1-1v-5l-1-1v-1L47.5 35Z" style="fill:#f1a440;stroke:none"/>
        <path d="m49.5 35-1-1h2l1.5 1.5-.5.5-1-1Z" style="fill:#f8c04a;stroke:none"/>
        <path d="M49 46.5V46h1.5l.5.5v1l-.5.5Z" style="fill:#f6b948;stroke:none"/>
        <path d="M50.5 46H50v-1.5l1-1v-2l3.5-3.5 1 1h1l1 1h2l1-1h1l1-1 3 3h1l1 1h1l.5.5v1l1 1V46h-1.5L67 47.5v3l2 2-2.5 2.5h-1l-1 1H62v-.5L60.5 54h-1l-1-1h-1l-1-1h-2l-4-4 .5-.5v-1Z" style="fill:#ee933a;stroke:none"/>
        <path d="m49.5 59 1.5-1.5v-2l1.5-1.5h1l1-1h4l1 1h1l1.5 1.5v2l1.5 1.5-1.5 1.5v1l-1 1v1l-.5.5h-1l-1 1h-3l-.5.5-1.5-1.5h-1l-.5-.5v-1l-1-1v-1Z" style="fill:#f1a340;stroke:none"/>
        <path d="M52 35.5v-5l3.5-3.5h5l1 1h1l1.5 1.5v1l1 1v3l-1 1v1L61.5 39h-1l-1 1h-2l-1-1h-1Z" style="fill:#f1a03e;stroke:none"/>
        <path d="m54.5 38-1 1-.5-.5v-1l.5-.5Z" style="fill:#e6712d;stroke:none"/>
        <path d="m55 65.5.5-.5h1l2.5 2.5-.5.5h-1Z" style="fill:#e4682a;stroke:none"/>
        <path d="M56.5 65h2l1-1h1l.5-.5v-1l1-1v-1l1.5-1.5-1.5-1.5V56h2.5l1-1h1l1 1h1l2.5 2.5v1l1 1v4l-.5.5-1-1h-1l-1-1h-3l-1 1h-1L61 66.5v2l-.5.5Z" style="fill:#eb8836;stroke:none"/>
        <path d="m60 69.5 1-1v-2l2.5-2.5h1l1-1h3l1 1h1l2.5 2.5v1l1 1v2l-1 1v2L71.5 75h-1l-1 1h-5l-1-1h-1l-.5-.5v-1l-1-1v-2Z" style="fill:#f09e3e;stroke:none"/>
        <path d="M67 50.5v-3l1.5-1.5h4l1.5 1.5v3L71.5 53h-2Z" style="fill:#e26027;stroke:none"/>
        <path d="M69 55.5 67.5 54l1.5-1.5.5.5h.5v1.5Z" style="fill:#fcd050;stroke:none"/>
        <path d="M80 71.5v-2l2.5-2.5h3l1.5 1.5v4L85.5 74h-4l-.5-.5v-1Z" style="fill:#e26128;stroke:none"/>
    </g>
</svg>
