<svg xmlns="http://www.w3.org/2000/svg" width="100" height="100" style="fill-opacity:1;color-rendering:auto;color-interpolation:auto;text-rendering:auto;stroke:#000;stroke-linecap:square;stroke-miterlimit:10;shape-rendering:auto;stroke-opacity:1;fill:#000;stroke-dasharray:none;font-weight:400;stroke-width:1;font-family:&quot;Dialog&quot;;font-style:normal;stroke-linejoin:miter;font-size:12px;stroke-dashoffset:0;image-rendering:auto">
    <g style="stroke-linecap:round;fill:#f8c14a;stroke:#f8c14a">
        <path stroke="none" d="M27 54.5v-2l1.5-1.5h3l1.5 1.5V55h-.5L30 57.5Z" style="stroke:none"/>
    </g>
    <g stroke="none" style="stroke-linecap:round;fill:#f8c14b;stroke:#f8c14b">
        <path d="M28 66.5v-3l1.5-1.5h3l1.5 1.5v3L32.5 68h-3Z" style="stroke:none"/>
        <path d="m31.5 50 1.5-1.5 1 1v2l-.5.5Zm1 8-.5-.5v-1l-.5-.5 1-1h2l.5.5v2l-.5.5Z" style="fill:#fcd050;stroke:none"/>
        <path d="M33.5 40H33v-.5l.5-.5h.5v.5Z" style="fill:#f7ba48;stroke:none"/>
        <path d="m33.5 41-.5-.5V40h.5l.5-.5 1 1-.5.5Z" style="fill:#dc451d;stroke:none"/>
        <path d="M34 39.5v-4l3.5-3.5h1l1-1h2l1 1h1l3 3-.5.5v2l-1 1v4L43.5 44h-6l-3-3 .5-.5Z" style="fill:#e97d32;stroke:none"/>
        <path d="M37.5 44h-2L34 42.5V41h.5Z" style="fill:#f7ba48;stroke:none"/>
        <path d="m41 52.5-1 1v-3l.5-.5.5.5Z" style="fill:#fbcb4e;stroke:none"/>
        <path d="M40 54.5v-1l1-1V51h1.5l1-1h1l1 1h1l.5.5v1l1.5 1.5-1.5 1.5v1l-.5.5h-1L44 58.5 42.5 57h-1l-.5-.5v-1Z" style="fill:#e26128;stroke:none"/>
        <path d="M42 51h-1v-.5l-.5-.5h1l.5.5Z" style="fill:#fed953;stroke:none"/>
        <path d="M42.5 51H42v-.5l-.5-.5h2Z" style="fill:#fbcb4e;stroke:none"/>
        <path d="m46 39.5 3.5 3.5h4l1-1h1l1-1h.5v2.5L53.5 47h-5l-4-4 .5-.5v-4l1-1Z" style="fill:#e87a31;stroke:none"/>
        <path d="M46 39.5v-4l1-1v-1l1.5-1.5h2l1-1H53v.5l.5.5h1l1.5 1.5v.5h-2.5L51 36.5v2l2.5 2.5h3l-1 1h-1l-1 1h-4Z" style="fill:#e7762f;stroke:none"/>
        <path d="M47 29.5v-3l1.5-1.5h3l3 3-1.5 1.5V31h-1.5l-1 1-1-1h-1Z" style="fill:#e15d26;stroke:none"/>
        <path d="M47 60.5v-3l.5-.5h2l1.5 1.5v2l-2 2Z" style="fill:#fac74d;stroke:none"/>
        <path d="M51 38.5v-2l2.5-2.5H56v.5l-2 2v2l1 1V41h-1.5Z" style="fill:#e26128;stroke:none"/>
        <path d="M54 38.5v-2l2-2V34h4v.5l2 2v2L59.5 41H55v-1.5Z" style="fill:#f7ba48;stroke:none"/>
        <path d="M55 49.5v-3l1.5-1.5H59v.5l1 1v3L58.5 51h-2Z" style="fill:#f9c44b;stroke:none"/>
        <path d="m56.5 34 1-1h2l.5.5v.5Zm1 23 2-2h2l.5.5v3l-.5.5h-2Z" style="fill:#de5022;stroke:none"/>
        <path d="M59 45.5v-2l.5-.5h1l1.5-1.5 3.5 3.5-1.5 1.5v1l-.5.5H60v-1.5Z" style="fill:#f8c24b;stroke:none"/>
        <path d="M65 50.5v-4l1-1v-1l2.5-2.5h1l1-1h4l.5.5-1.5 1.5h-1L71 44.5v1l-1 1v6l2 2v.5h-2.5l-1-1h-1L66 52.5v-1Z" style="fill:#ef983c;stroke:none"/>
        <path d="M67 62.5v-3l2.5-2.5h2l2.5 2.5v3L72.5 64h-4Z" style="fill:#f7bc49;stroke:none"/>
        <path d="M67 79.5v-2l2.5-2.5h2l1.5 1.5v4l-.5.5h-1l-1 1-1-1h-1Z" style="fill:#e15c26;stroke:none"/>
        <path d="M70 52.5v-6l1-1v-1l1.5-1.5h1l1.5-1.5.5.5 1-1h3l1 1h1l1 1h1l1.5 1.5v1l1 1v6l-1 1v1L83.5 56h-1l-1 1h-1l-1 1h-3l-1-1h-1l-1-1h-1l-.5-.5v-1Z" style="fill:#ec8e38;stroke:none"/>
        <path d="m77.5 63-1 1-1-1 1-1Z" style="fill:#dc451d;stroke:none"/>
    </g>
</svg>
