<svg xmlns="http://www.w3.org/2000/svg" width="100" height="100" style="fill-opacity:1;color-rendering:auto;color-interpolation:auto;text-rendering:auto;stroke:#000;stroke-linecap:square;stroke-miterlimit:10;shape-rendering:auto;stroke-opacity:1;fill:#000;stroke-dasharray:none;font-weight:400;stroke-width:1;font-family:&quot;Dialog&quot;;font-style:normal;stroke-linejoin:miter;font-size:12px;stroke-dashoffset:0;image-rendering:auto">
    <g style="stroke-linecap:round;fill:#dc441d;stroke:#dc441d">
        <path stroke="none" d="m19 31.5-1-1 1-1 1 1Z" style="stroke:none"/>
    </g>
    <g stroke="none" style="stroke-linecap:round;fill:#fac84d;stroke:#fac84d">
        <path d="m29.5 56-.5-.5v-3l.5-.5h3l.5.5v3l-.5.5Z" style="stroke:none"/>
        <path d="m29.5 66-.5-.5v-2l1.5-1.5h2l.5.5v1l1 1-1.5 1.5Z" style="fill:#fac94d;stroke:none"/>
        <path d="m33.5 42-1-1 1.5-1.5V39h1.5l.5.5V42Z" style="fill:#de4d20;stroke:none"/>
        <path d="m35 50.5-1 1-1.5-1.5 1-1ZM32.5 56l.5-.5V55h1.5l.5.5-.5.5Z" style="fill:#fed853;stroke:none"/>
        <path d="M34 39v-2.5l1-1v-1l1-1v-1l.5-.5h1l1-1h2l1-1 1 1h2l1 1h1l1 1-1.5 1.5v1l-1 1v7L43.5 45h-4l-1-1h-1L36 42.5v-3l-.5-.5Z" style="fill:#ea8535;stroke:none"/>
        <path d="m40.5 54-.5-.5v-2l.5-.5H42v1.5Z" style="fill:#fcd351;stroke:none"/>
        <path d="M41 55.5v-1l-.5-.5 1.5-1.5V51h1.5l1-1h2l1 1h1l.5.5v1l1 1v3L47.5 59h-3l-1-1h-1l-.5-.5v-1Z" style="fill:#e4682a;stroke:none"/>
        <path d="M45 40.5v-4l1-1v-1l2.5-2.5 1 1h3l1.5-1.5 1 1-.5.5h-1l-1 1h-1L50 35.5v4l2.5 2.5H57v.5l-.5.5h-1l-1 1h-1l-1 1h-2l-1-1h-1Z" style="fill:#e97e32;stroke:none"/>
        <path d="M48.5 44h1l1 1h2l1-1h1l1-1h1l.5-.5v-1l1-1V40h.5l.5.5v2l-1 1V46h-.5l-2 2h-1l-1 1h-3l-1-1h-1l-1-1h-1l-.5-.5v-1L44.5 44l.5-.5v-3Z" style="fill:#ea8234;stroke:none"/>
        <path d="M47 30.5v-3l2.5-2.5h4l1.5 1.5v4L52.5 33h-3Z" style="fill:#e36529;stroke:none"/>
        <path d="m48.5 60-1-1 2.5-2.5 1 1v2l-.5.5Z" style="fill:#fbcf50;stroke:none"/>
        <path d="M50 39.5v-4l1.5-1.5h1l1-1h1l.5-.5 1 1-2 2v3l.5.5h1l1 1H58v.5l-1 1v.5h-4.5Z" style="fill:#e4692a;stroke:none"/>
        <path d="m54.5 39-.5-.5v-3l2-2 .5.5h2l1.5 1.5v2l-2 2v.5h-1.5l-1-1Z" style="fill:#f8c24b;stroke:none"/>
        <path d="m55.5 48 2-2h2l.5.5v2l-2 2Z" style="fill:#fbcc4e;stroke:none"/>
        <path d="m56.5 34 1.5-1.5 3 3v2L59.5 39l-.5-.5 1-1v-2L58.5 34ZM58 57.5v-3l1.5-1.5h2l1.5 1.5v3L61.5 59h-2Z" style="fill:#e05824;stroke:none"/>
        <path d="M60 44.5v-2l.5-.5h3l.5.5v2l-2 2Z" style="fill:#faca4e;stroke:none"/>
        <path d="m63.5 49 1.5-1.5v-2l2.5-2.5h2l1.5-1.5 2 2-3 3v2L68.5 50l1.5 1.5v2l1 1-.5.5h-2l-1-1h-1l-.5-.5v-1l-1-1v-1Z" style="fill:#f1a03f;stroke:none"/>
        <path d="M66 78.5v-3l1.5-1.5h1l1.5-1.5 1.5 1.5h1l.5.5v1l1 1v2L71.5 81h-4l-.5-.5v-1Z" style="fill:#e36429;stroke:none"/>
        <path d="M67 61.5v-3l1.5-1.5h2l1.5 1.5v3L70.5 63h-2Z" style="fill:#f9c34b;stroke:none"/>
        <path d="m68.5 50 1.5-1.5v-2l3.5-3.5h2l1.5-1.5 1.5 1.5h2l3.5 3.5v7L80.5 57h-7L70 53.5v-2Z" style="fill:#ee953b;stroke:none"/>
        <path d="m73.5 64-1-1 2.5-2.5 1 1v2l-.5.5Z" style="fill:#de4d20;stroke:none"/>
    </g>
</svg>
