<svg xmlns="http://www.w3.org/2000/svg" width="100" height="100" style="fill-opacity:1;color-rendering:auto;color-interpolation:auto;text-rendering:auto;stroke:#000;stroke-linecap:square;stroke-miterlimit:10;shape-rendering:auto;stroke-opacity:1;fill:#000;stroke-dasharray:none;font-weight:400;stroke-width:1;font-family:&quot;Dialog&quot;;font-style:normal;stroke-linejoin:miter;font-size:12px;stroke-dashoffset:0;image-rendering:auto">
    <g style="stroke-linecap:round;fill:#e25e27;stroke:#e25e27">
        <path stroke="none" d="M14 51.5v-2l2.5-2.5h.5v1.5l-1 1v2l1 1V54h-.5Z" style="stroke:none"/>
    </g>
    <g stroke="none" style="stroke-linecap:round;fill:#e56e2c;stroke:#e56e2c">
        <path d="M16 51.5v-2l1-1V47h.5l1-1h1l1-1h2l1 1h1l.5.5v1l1 1v4L23.5 55h-5l-1-1H17v-1.5Z" style="stroke:none"/>
        <path d="M21 39.5v-4l1-1v-1l1.5-1.5h1l1-1h2l1 1h1l3.5 3.5v3l-1 1v1L29.5 43h-5Z" style="fill:#e77730;stroke:none"/>
        <path d="m22.5 75 1.5-1.5v-1l1-1 1 1v1l1.5 1.5h2l1 1-3.5 3.5-1.5-1.5h-1l-.5-.5v-1Z" style="fill:#e25f27;stroke:none"/>
        <path d="M25 71.5v-2l1-1v-1l1.5-1.5h2l1-1 1 1h2l.5.5v1l1 1v4L32.5 75h-1l-1 1-1-1h-2L26 73.5v-1Z" style="stroke:none"/>
        <path d="m32.5 58-.5-.5v-3l1.5-1.5h2l1.5 1.5v3l-.5.5h-1l-1 1-1-1Z" style="fill:#e05824;stroke:none"/>
        <path d="M35 43.5v-5l1-1v-1l.5-.5h1l2-2h4l1 1 .5-.5 2 2v1l1 1v5l-1 1V46h-4.5L41 47.5v.5h-1.5l-2-2h-1l-.5-.5v-1Z" style="fill:#e98033;stroke:none"/>
        <path d="M36 72.5v-2l2.5-2.5h4l1.5 1.5v1l1 1-1 1v2l-.5.5h-1l-1 1h-3L37 74.5v-1Z" style="fill:#e36529;stroke:none"/>
        <path d="M41 50.5v-3l1.5-1.5H47v.5l1 1v4L46.5 53h-3Z" style="fill:#e26228;stroke:none"/>
        <path d="m45 34.5.5-.5h1l1-1H50v1.5l1 1v1l1.5 1.5-1.5 1.5v2l-1 1v3l1 1v.5h-2.5l-.5.5-1-1v-2l1-1v-5l-1-1v-1Z" style="fill:#f09c3d;stroke:none"/>
        <path d="M48 48v-.5l.5-.5H51v.5l-.5.5Z" style="fill:#f5b145;stroke:none"/>
        <path d="M48 59.5v-3l1-1v-1l2.5-2.5h2l1.5-1.5 1.5 1.5h2l2.5 2.5v1l1 1v4l-1 1v1l-2 2-.5-.5-1 1h-5l-1-1h-1l-.5-.5v-1l-1-1v-1Z" style="fill:#f09b3d;stroke:none"/>
        <path d="M50 34.5v-4l1-1v-1l2.5-2.5h2l1-1h2l1 1h1l1 1h1l.5.5v1l1 1v1l1 1v2l-1 1v2L61.5 39h-1l-1 1h-4l-1-1h-1L51 36.5v-1Z" style="fill:#ef983c;stroke:none"/>
        <path d="M50 45.5v-3l1-1v-2l1.5-1.5 1 1h1l1 1h4l1-1h1l1.5-1.5 3 3v1l4 4v1l1 1-.5.5h-1l-.5.5v3l1 1-4.5 4.5H62v-.5l-1-1v-1L58.5 52h-2L55 50.5l-.5.5-3.5-3.5v-1Z" style="fill:#ec8b37;stroke:none"/>
        <path d="M52 49.5 50.5 48l.5-.5 1 1Z" style="fill:#f5b546;stroke:none"/>
        <path d="M55 66.5V65h2.5l1-1 1.5 1.5v1l1 1-.5.5h-4Z" style="fill:#e26027;stroke:none"/>
        <path d="m59 64.5 2-2v-1l1-1V57h3.5l1.5-1.5.5.5h1l3.5 3.5V65h-.5l-1-1h-2l-1-1-1 1h-2l-1 1h-1l-2 2-.5-.5v-1Z" style="fill:#e98033;stroke:none"/>
        <path d="M60 72.5V68h.5l.5-.5-.5-.5 2-2h1l1-1h2l1-1 1 1h2l1 1h1l.5.5v1l1 1v1l1 1v3l-1 1v1L70.5 78h-6L61 74.5v-1Z" style="fill:#ee973b;stroke:none"/>
        <path d="m68.5 55-.5-.5 2-2 .5.5H72v1.5l-.5.5Z" style="fill:#fac84d;stroke:none"/>
        <path d="M69 51.5v-3l.5-.5h1l1-1 1 1h1l.5.5v3L72.5 53h-2Z" style="fill:#e05824;stroke:none"/>
        <path d="M82 72.5v-2l2.5-2.5 1 1h1l1.5 1.5v2L86.5 74h-3Z" style="fill:#e05925;stroke:none"/>
    </g>
</svg>
