<svg xmlns="http://www.w3.org/2000/svg" width="100" height="100" style="fill-opacity:1;color-rendering:auto;color-interpolation:auto;text-rendering:auto;stroke:#000;stroke-linecap:square;stroke-miterlimit:10;shape-rendering:auto;stroke-opacity:1;fill:#000;stroke-dasharray:none;font-weight:400;stroke-width:1;font-family:&quot;Dialog&quot;;font-style:normal;stroke-linejoin:miter;font-size:12px;stroke-dashoffset:0;image-rendering:auto">
    <g style="stroke-linecap:round;fill:#f2a540;stroke:#f2a540">
        <path stroke="none" d="M21 55.5v-5l3.5-3.5H26v1.5L24.5 50l1.5 1.5v1l1.5 1.5H32v2h-.5L29 58.5l-.5-.5-1 1h-2l-1-1h-1Z" style="stroke:none"/>
    </g>
    <g stroke="none" style="stroke-linecap:round;fill:#f2a641;stroke:#f2a641">
        <path d="M24 69.5v-4l3.5-3.5H29v.5l2.5 2.5h2l1-1h.5v2.5l1.5 1.5-1.5 1.5v1L32.5 73h-1l-1 1h-2l-1-1h-1L25 71.5v-1Z" style="stroke:none"/>
        <path d="m24.5 50 1.5-1.5V47h.5l1-1h4l2.5 2.5v3l-2 2v.5h-4.5L26 52.5v-1Zm3 10 4-4h3l2.5 2.5v3l-1 1v1l-.5.5h-1l-1 1h-2L29 62.5v-1Z" style="fill:#f5b546;stroke:none"/>
        <path d="M30 46v-4.5l2.5-2.5 3 3h3l1.5-1.5v-1l.5-.5 1.5 1.5v1l1 1v2l-1 1v1l-1 1v-2L38.5 43h-2L34 45.5v2l2.5 2.5h2l2.5-2.5V50h-1.5l-1 1H34v-2.5L31.5 46Z" style="fill:#f09e3e;stroke:none"/>
        <path d="m32.5 39 .5-.5v-1l1-1v-1l.5-.5h1l1.5-1.5 4 4v1l-1 1v1L38.5 42h-3Z" style="fill:#e26228;stroke:none"/>
        <path d="M34 47.5v-2l2.5-2.5h2l2.5 2.5v2L38.5 50h-2Z" style="fill:#f7be49;stroke:none"/>
        <path d="m39 53.5-1-1V51h.5l.5-.5 1.5 1.5Z" style="fill:#dc451e;stroke:none"/>
        <path d="M41.5 50H41v-2.5l1-1v-1l1-1V44h4.5l2 2-1.5 1.5v2l1 1v1l.5.5-1 1h-5L42 51.5v-1Z" style="fill:#f4b044;stroke:none"/>
        <path d="M41 63.5v-2l3.5-3.5h4l1 1h1l1 1-2 2 2.5 2.5-3.5 3.5h-4L42 65.5v-1Z" style="fill:#f3ac43;stroke:none"/>
        <path d="M46 40.5v-4l.5-.5h1l1-1 2 2h1l1.5 1.5v.5h-3.5L48 40.5V42h-.5Z" style="fill:#e25f27;stroke:none"/>
        <path d="M48.5 42H48v-1.5l1.5-1.5H53v4h-1.5l-1 1Z" style="fill:#f9c64c;stroke:none"/>
        <path d="M48 49.5v-2l1.5-1.5-.5-.5 2.5-2.5h5l2.5 2.5v5l-1 1V53h-1.5l-1 1h-3l-1-1h-1L49 51.5v-1Z" style="fill:#f3a842;stroke:none"/>
        <path d="m48.5 35 .5-.5v-1l2.5-2.5h2l1.5 1.5v3L53.5 37h-3Z" style="fill:#e15b25;stroke:none"/>
        <path d="m49.5 62 2-2h3l.5.5v3l-.5.5h-1l-1 1Z" style="fill:#f9c64c;stroke:none"/>
        <path d="M55 43v-3.5l1-1v-1l2.5-2.5h6l3.5 3.5v5l-1 1v1l-1 1v.5h-1.5l-1 1h-3L59 46.5v-1L56.5 43Z" style="fill:#f09e3e;stroke:none"/>
        <path d="M57 55h-.5l-1-1 1-1h.5Z" style="fill:#f2a741;stroke:none"/>
        <path d="m57.5 36-.5-.5.5-.5h1Z" style="fill:#dc451e;stroke:none"/>
        <path d="m58 55.5-.5-.5H57v-2h1.5l1 1Z" style="fill:#fcd251;stroke:none"/>
        <path d="M58.5 53H58v-1.5l1-1v-4l1.5 1.5h3l1-1H66v2.5l1.5 1.5-1.5 1.5v1L63.5 56h-5l-.5-.5 1.5-1.5Z" style="fill:#f2a741;stroke:none"/>
        <path d="M68 65.5v-3l1-1v-1l2.5-2.5h1l1-1h2l1 1h1l3.5 3.5v4l-1 1v1L77.5 70h-5l-1-1h-1L69 67.5v-1Z" style="fill:#f1a03f;stroke:none"/>
        <path d="M71 48.5v-5l1-1v-1l1.5-1.5h2l1-1h2l1 1h1l1.5 1.5-1.5 1.5h-1L77 45.5v1L75.5 48l1.5 1.5v1l1 1-.5.5h-3Z" style="fill:#e97d32;stroke:none"/>
        <path d="m75.5 48 1.5-1.5v-1l2.5-2.5h1l1.5-1.5 1.5 1.5h1l2.5 2.5v5L84.5 53h-5L77 50.5v-1Z" style="fill:#e6722e;stroke:none"/>
    </g>
</svg>
