<svg xmlns="http://www.w3.org/2000/svg" width="128" height="128" style="fill-opacity:1;color-rendering:auto;color-interpolation:auto;text-rendering:auto;stroke:#000;stroke-linecap:square;stroke-miterlimit:10;shape-rendering:auto;stroke-opacity:1;fill:#000;stroke-dasharray:none;font-weight:400;stroke-width:1;font-family:&quot;Dialog&quot;;font-style:normal;stroke-linejoin:miter;font-size:12px;stroke-dashoffset:0;image-rendering:auto">
    <g style="stroke-linecap:round;fill:#6e7080;stroke:#6e7080">
        <path stroke="none" d="M38 51v-9.5l3.5-3.5h18l3 3H64v9.5l.5.5H90v5.5l-4 4v21L73.5 94l-2-2-6 6H64v-7h.5l4.5-4.5v-5l4-4v-13L65.5 57H64v-5.5l-.5-.5Z" style="stroke:none"/>
    </g>
    <g stroke="none" style="stroke-linecap:round;fill:#4a4b53;stroke:#4a4b53">
        <path d="M38 56.5V51h25.5l.5.5V57h-1.5L55 64.5v13l4 4v5l4.5 4.5h.5v7h-1.5l-6-6-2 2L42 81.5v-21Z" style="stroke:none"/>
        <path d="M55 67.5v-3l7.5-7.5H64v18h-1.5Z" style="fill:#869cbe;stroke:none"/>
        <path d="M62.5 75H64v5h-.5L59 84.5v-3l-4-4v-10Z" style="fill:#6e7080;stroke:none"/>
        <path d="M59 86.5v-2l4.5-4.5h.5v11h-.5Z" style="fill:#869cbe;stroke:none"/>
        <path d="M64 75V57h1.5l7.5 7.5v3L65.5 75Z" style="fill:#fff;stroke:none"/>
        <path d="M64.5 80H64v-5h1.5l7.5-7.5v10l-4 4v3Z" style="stroke:none"/>
        <path d="M69 84.5v2L64.5 91H64V80h.5Z" style="fill:#fff;stroke:none"/>
        <path d="m64.5 51-.5-.5V41h1.5l3-3h18l3.5 3.5V51Z" style="stroke:none"/>
    </g>
</svg>
