<svg xmlns="http://www.w3.org/2000/svg" width="128" height="128" style="fill-opacity:1;color-rendering:auto;color-interpolation:auto;text-rendering:auto;stroke:#000;stroke-linecap:square;stroke-miterlimit:10;shape-rendering:auto;stroke-opacity:1;fill:#000;stroke-dasharray:none;font-weight:400;stroke-width:1;font-family:&quot;Dialog&quot;;font-style:normal;stroke-linejoin:miter;font-size:12px;stroke-dashoffset:0;image-rendering:auto">
    <g style="stroke-linecap:round;fill:#4a4b53;stroke:#4a4b53">
        <path stroke="none" d="M8 103.5v-6l3.5-3.5h2l11 11-6 6h-3Z" style="stroke:none"/>
    </g>
    <g stroke="none" style="stroke-linecap:round;fill:#869cbe;stroke:#869cbe">
        <path d="m9.5 46-.5-.5v-7l6.5-6.5.5.5v7Zm0 13-.5-.5v-7l6.5-6.5.5.5v7Z" style="stroke:none"/>
        <path d="M9 75.5v-11l3.5-3.5h3l.5-.5-4-4 4-4v-7l-.5-.5-3 3-.5-.5v-3l-.5-.5 4.5-4.5v-7l-.5-.5 2.5-2.5v-8L30.5 9l.5.5V20h-2.5L21 27.5v17l.5.5 9.5-9.5v10l-7 7v5L35.5 69l-.5.5v8L24.5 88l5 5 5.5-5.5 6.5 6.5-3.5 3.5v10l1.5 1.5 11-11 3.5 3.5v7l-8.5 8.5h-4l-4-4h-3l-4 4h-5l-6-6h6l4.5-4.5v-3l-13-13v-9l-.5-.5h-2Z" style="fill:#4a4b53;stroke:none"/>
        <path d="M13.5 94h6l.5-.5 10 10v3l-4.5 4.5h-7l6-6ZM16 61.5l.5-.5h5l5.5 5.5v10L22.5 81h-5l-.5-.5 5-5v-8Z" style="fill:#6e7080;stroke:none"/>
        <path d="M22 67.5v8l-5 5 .5.5h5l4.5-4.5v-10L21.5 61h-5l-.5.5Z" style="fill:#4a4b53;stroke:none"/>
        <path d="m21.5 45-.5-.5v-17l7.5-7.5H31v15.5Z" style="stroke:none"/>
        <path d="M24 57.5v-5l7-7v-10l7-7v21l-9 9v3l-.5.5Z" style="fill:#6e7080;stroke:none"/>
        <path d="M24.5 88 35 77.5v10L29.5 93Z" style="stroke:none"/>
        <path d="M31.5 20H31V9.5l-.5-.5 2-2h2l3.5 3.5v3Z" style="fill:#6e7080;stroke:none"/>
        <path d="M31 35.5V20h.5l6.5-6.5v15Z" style="fill:#fff;stroke:none"/>
        <path d="M35 77.5v-8l7-7v8Z" style="fill:#6e7080;stroke:none"/>
        <path d="M35 87.5v-10l7-7v10Z" style="fill:#fff;stroke:none"/>
        <path d="m35 87.5 6.5-6.5 13 13-6.5 6.5Z" style="fill:#6e7080;stroke:none"/>
        <path d="M38 39.5v-14l9.5-9.5.5.5v13Z" style="fill:#4a4b53;stroke:none"/>
        <path d="M38 49.5v-10l9.5-9.5 5 5Z" style="stroke:none"/>
        <path d="M38 56.5v-7L51.5 36l.5.5v4L62.5 51h1l.5.5V57h-1.5L55 64.5v13l4 4v5l4.5 4.5h.5v7h-1.5l-6-6-2 2-13-13 .5-.5v-14l12-12v-8l-.5-.5L42 57.5v3Z" style="fill:#4a4b53;stroke:none"/>
        <path d="M38 107.5v-10l3.5-3.5 6.5 6.5-8.5 8.5Zm4-41v-9L53.5 46l.5.5v8Z" style="stroke:none"/>
        <path d="M48 29.5v-13l-.5-.5 1-1h2l5.5 5.5v1Z" style="fill:#6e7080;stroke:none"/>
        <path d="m47.5 30 8.5-8.5v9l.5.5-4 4Z" style="fill:#fff;stroke:none"/>
        <path d="M52 40.5v-4l-.5-.5 5-5 2.5 2.5v4l3.5 3.5H64v9.5l1 1 11-11v-4l.5-.5L90 49.5v7l-4 4v-3L74.5 46l-.5.5v8l12 12v14l.5.5-13 13-2-2-6 6H64v-7h.5l4.5-4.5v-5l4-4v-13L65.5 57H64v-5.5l-.5-.5h-1Z" style="fill:#6e7080;stroke:none"/>
        <path d="M55 67.5v-3l7.5-7.5H64v18h-1.5Z" style="stroke:none"/>
        <path d="M62.5 75H64v5h-.5L59 84.5v-3l-4-4v-10Z" style="fill:#6e7080;stroke:none"/>
        <path d="M59 86.5v-2l4.5-4.5h.5v11h-.5Z" style="stroke:none"/>
        <path d="M64 75V57h1.5l7.5 7.5v3L65.5 75Z" style="fill:#fff;stroke:none"/>
        <path d="M64.5 80H64v-5h1.5l7.5-7.5v10l-4 4v3Z" style="fill:#4a4b53;stroke:none"/>
        <path d="M69 84.5v2L64.5 91H64V80h.5Z" style="fill:#fff;stroke:none"/>
        <path d="m65 51.5-1-1V41h1.5l3.5-3.5v-4l2.5-2.5 5 5-.5.5v4Zm7-30v-1l5.5-5.5h2l1 1-.5.5v13Z" style="fill:#4a4b53;stroke:none"/>
        <path d="m80.5 30-5 5-4-4 .5-.5v-9Z" style="stroke:none"/>
        <path d="M86 57.5v9l-12-12v-8l.5-.5Z" style="fill:#fff;stroke:none"/>
        <path d="m73.5 94 13-13 6.5 6.5-13 13Z" style="fill:#4a4b53;stroke:none"/>
        <path d="M74 108.5v-7l3.5-3.5 11 11 1.5-1.5v-10L86.5 94l6.5-6.5 5.5 5.5 5-5L93 77.5v-8l-.5-.5L104 57.5v-5l-7-7v-10l9.5 9.5.5-.5v-17L99.5 20H97V9.5l.5-.5L110 21.5v8l2.5 2.5-.5.5v7l4.5 4.5-.5.5v3l-.5.5-3-3-.5.5v7l4 4-4 4 .5.5h3l3.5 3.5v11l-5.5 5.5h-2l-.5.5v9l-13 13v3l4.5 4.5h6l-6 6h-5l-4-4h-3l-4 4h-4Z" style="fill:#6e7080;stroke:none"/>
        <path d="m75.5 35 5-5 9.5 9.5v10Z" style="fill:#fff;stroke:none"/>
        <path d="M90 25.5v14l-10-10v-13l.5-.5Z" style="fill:#6e7080;stroke:none"/>
        <path d="m80 100.5 6.5-6.5 3.5 3.5v10l-1.5 1.5Z" style="fill:#fff;stroke:none"/>
        <path d="M93 69.5v8l-7-7v-8Z" style="fill:#4a4b53;stroke:none"/>
        <path d="M93 77.5v10l-7-7v-10Z" style="stroke:none"/>
        <path d="M90 13.5v-3L93.5 7h2l2 2-.5.5V20h-.5Z" style="fill:#4a4b53;stroke:none"/>
        <path d="M96.5 20h.5v15.5l-7-7v-15Z" style="stroke:none"/>
        <path d="M97 35.5v10l7 7v5L99.5 62l-.5-.5v-3l-9-9v-21Z" style="fill:#4a4b53;stroke:none"/>
        <path d="m103.5 88-5 5-5.5-5.5v-10ZM97 35.5V20h2.5l7.5 7.5v17l-.5.5Z" style="fill:#fff;stroke:none"/>
        <path d="M98 106.5v-3l10-10 .5.5h6l-11 11 5.5 5.5v.5h-6.5Z" style="fill:#4a4b53;stroke:none"/>
        <path d="M101 66.5v10l4.5 4.5h5l.5-.5-5-5v-8l6-6-.5-.5h-5Z" style="fill:#6e7080;stroke:none"/>
        <path d="M101 76.5v-10l5.5-5.5h5l.5.5-6 6v8l5 5-.5.5h-5Z" style="fill:#4a4b53;stroke:none"/>
        <path d="m103.5 105 11-11h2l3.5 3.5v6l-7.5 7.5H109v-.5Z" style="fill:#6e7080;stroke:none"/>
        <path d="M119 38.5v7l-.5.5-6.5-6.5v-7l.5-.5Zm0 13v7l-.5.5-6.5-6.5v-7l.5-.5Z" style="fill:#fff;stroke:none"/>
    </g>
</svg>
