<svg xmlns="http://www.w3.org/2000/svg" width="32" height="32" style="fill-opacity:1;color-rendering:auto;color-interpolation:auto;text-rendering:auto;stroke:#000;stroke-linecap:square;stroke-miterlimit:10;shape-rendering:auto;stroke-opacity:1;fill:#000;stroke-dasharray:none;font-weight:400;stroke-width:1;font-family:&quot;Dialog&quot;;font-style:normal;stroke-linejoin:miter;font-size:12px;stroke-dashoffset:0;image-rendering:auto">
    <g style="stroke-linecap:round;fill:#9e78dc;stroke:#9e78dc">
        <path stroke="none" d="M4 26v-5.5l4-4V8h.5l4-4h8L26 9.5 12.5 23h-3l-3 3Z" style="stroke:none"/>
    </g>
    <g stroke="none" style="stroke-linecap:round;fill:#7457ce;stroke:#7457ce">
        <path d="m4.5 28-.5-.5V26h2.5l3-3h3L26 9.5l2 2v3L20.5 22h-2l-3 3h-5l-3 3Z" style="stroke:none"/>
        <path d="m7.5 28 3-3h5l3-3h2l7.5-7.5v5L22.5 25h-2l-3 3Z" style="fill:#5541b1;stroke:none"/>
        <path d="m11.5 14 2.5 2.5 6.5-6.5L18 7.5Z" style="fill:#9e78dc;stroke:none"/>
        <path d="M11.5 14 18 7.5l2.5 2.5-6.5 6.5Z" style="stroke:none"/>
    </g>
</svg>
