<svg xmlns="http://www.w3.org/2000/svg" width="32" height="32" style="fill-opacity:1;color-rendering:auto;color-interpolation:auto;text-rendering:auto;stroke:#000;stroke-linecap:square;stroke-miterlimit:10;shape-rendering:auto;stroke-opacity:1;fill:#000;stroke-dasharray:none;font-weight:400;stroke-width:1;font-family:&quot;Dialog&quot;;font-style:normal;stroke-linejoin:miter;font-size:12px;stroke-dashoffset:0;image-rendering:auto">
    <g style="stroke-linecap:round;fill:#d99f6b;stroke:#d99f6b">
        <path stroke="none" d="M1 14.5v-1l3-3 15 15 5.5-5.5h2l1 1-9 9h-2Z" style="stroke:none"/>
    </g>
    <g stroke="none" style="stroke-linecap:round;fill:#e8d174;stroke:#e8d174">
        <path d="M4 10.5 13.5 1h3L31 15.5v2L27.5 21l-1-1h-2L19 25.5Z" style="stroke:none"/>
        <path d="m7.5 10 2.5 2.5L14.5 8l11 11 1.5-1.5v-3L16.5 4h-3Z" style="stroke:none"/>
        <path d="m7.5 10 6-6h3L27 14.5v3L25.5 19l-11-11-4.5 4.5Z" style="fill:#fcf387;stroke:none"/>
        <path d="m14.5 17 3 3 2-2-3-3Z" style="stroke:none"/>
        <path d="m14.5 17 2-2 3 3-2 2Z" style="fill:#fcf387;stroke:none"/>
    </g>
</svg>
