<svg xmlns="http://www.w3.org/2000/svg" width="32" height="32" style="fill-opacity:1;color-rendering:auto;color-interpolation:auto;text-rendering:auto;stroke:#000;stroke-linecap:square;stroke-miterlimit:10;shape-rendering:auto;stroke-opacity:1;fill:#000;stroke-dasharray:none;font-weight:400;stroke-width:1;font-family:&quot;Dialog&quot;;font-style:normal;stroke-linejoin:miter;font-size:12px;stroke-dashoffset:0;image-rendering:auto">
    <g style="stroke-linecap:round;fill:#3a8f64;stroke:#3a8f64">
        <path stroke="none" d="M1 17.5v-2L4.5 12l.5.5v1L7.5 16h2l9-9 .5.5 4-4 6 6-3.5 3.5h-3L20 10.5 14.5 16l4 4-5 5h-2l-1-1h-2L4 28.5l-2-2v-2l3-3Z" style="stroke:none"/>
    </g>
    <g stroke="none" style="stroke-linecap:round;fill:#3a5651;stroke:#3a5651">
        <path d="M4 28.5 8.5 24h2l1 1h2l5-5-4-4 5.5-5.5 2.5 2.5h3L29 9.5l2 2v2L27.5 17h-5L21 18.5v2l3 3v2l-6 6-4.5-4.5-4 4h-3Z" style="stroke:none"/>
        <path d="M5 13.5v-1l-.5-.5L14 2.5 18.5 7l-9 9h-2Z" style="fill:#92dd7e;stroke:none"/>
    </g>
</svg>
