<svg xmlns="http://www.w3.org/2000/svg" width="32" height="32" style="fill-opacity:1;color-rendering:auto;color-interpolation:auto;text-rendering:auto;stroke:#000;stroke-linecap:square;stroke-miterlimit:10;shape-rendering:auto;stroke-opacity:1;fill:#000;stroke-dasharray:none;font-weight:400;stroke-width:1;font-family:&quot;Dialog&quot;;font-style:normal;stroke-linejoin:miter;font-size:12px;stroke-dashoffset:0;image-rendering:auto">
    <g style="stroke-linecap:round;fill:#3a3a50;stroke:#3a3a50">
        <path stroke="none" d="M5 22.5v-9l3-3v8l5.5 5.5h9l3-3 .5.5V24h-.5l-4 4h-11Z" style="stroke:none"/>
    </g>
    <g stroke="none" style="stroke-linecap:round;fill:#767a84;stroke:#767a84">
        <path d="M8 18.5v-9L13.5 4h4L16 5.5v3l4 4v3l3.5 3.5.5-.5v-10L19.5 4h3L28 9.5v9L22.5 24h-4l1.5-1.5v-3l-4-4v-3L12.5 9l-.5.5v10l4.5 4.5h-3Z" style="stroke:none"/>
        <path d="M16 12.5v3l4 4v3L18.5 24h-2L12 19.5v-10l.5-.5Zm0-4v-3L17.5 4h2L24 8.5v10l-.5.5-3.5-3.5v-3Z" style="fill:#8e9097;stroke:none"/>
    </g>
</svg>
