<svg xmlns="http://www.w3.org/2000/svg" width="32" height="32" style="fill-opacity:1;color-rendering:auto;color-interpolation:auto;text-rendering:auto;stroke:#000;stroke-linecap:square;stroke-miterlimit:10;shape-rendering:auto;stroke-opacity:1;fill:#000;stroke-dasharray:none;font-weight:400;stroke-width:1;font-family:&quot;Dialog&quot;;font-style:normal;stroke-linejoin:miter;font-size:12px;stroke-dashoffset:0;image-rendering:auto">
    <g style="stroke-linecap:round;fill:#e0b28d;stroke:#e0b28d">
        <path stroke="none" d="M4 9.5V5h.5l1-1h5L12 5.5v1L6.5 12Z" style="stroke:none"/>
    </g>
    <g stroke="none" style="stroke-linecap:round;fill:#9b928b;stroke:#9b928b">
        <path d="M4 26.5v-6l4-4V16h.5l3.5-3.5v2l1.5 1.5h4l10-10L29 7.5v1L19.5 18h-3L12 22.5v2L8.5 28H5v-.5ZM6.5 12 12 6.5V11h-.5l-1 1Z" style="stroke:none"/>
        <path d="M12 14.5V12h.5l8-8h5l2 2-10 10h-4Z" style="fill:#e0b28d;stroke:none"/>
        <path d="M12 24v-1.5l4.5-4.5h3L29 8.5v5L18.5 24Z" style="fill:#666;stroke:none"/>
    </g>
</svg>
