<svg xmlns="http://www.w3.org/2000/svg" width="32" height="32" style="fill-opacity:1;color-rendering:auto;color-interpolation:auto;text-rendering:auto;stroke:#000;stroke-linecap:square;stroke-miterlimit:10;shape-rendering:auto;stroke-opacity:1;fill:#000;stroke-dasharray:none;font-weight:400;stroke-width:1;font-family:&quot;Dialog&quot;;font-style:normal;stroke-linejoin:miter;font-size:12px;stroke-dashoffset:0;image-rendering:auto">
    <g style="stroke-linecap:round;fill:#fff3d6;stroke:#fff3d6">
        <path stroke="none" d="M3 10v-.5L8.5 4h5l-6 6Z" style="stroke:none"/>
    </g>
    <g stroke="none" style="stroke-linecap:round;fill:#ffd59e;stroke:#ffd59e">
        <path d="M3 13v-3h4.5l6-6h.5v.5L15.5 6l-7 7Z" style="stroke:none"/>
        <path d="M3 13.5V13h5.5l7-7 2 2-10 10Z" style="fill:#f19583;stroke:none"/>
        <path d="M3 25v-2.5l7.5-7.5.5.5v1l1 1 15-15 .5.5h.5v2.5L8.5 25Z" style="stroke:none"/>
        <path d="M3 26.5V25h5.5L28 5.5v4L14.5 23l2 2h5l6.5-6.5v5L22.5 29h-6L13 25.5 9.5 29h-4Z" style="fill:#f19583;stroke:none"/>
        <path d="m12 17.5-1-1v-1l-.5-.5 7-7-1-1 5-5h6Z" style="fill:#fff3d6;stroke:none"/>
        <path d="m14.5 23 2.5-2.5.5.5h4l6.5-6.5v4L21.5 25h-5Z" style="stroke:none"/>
        <path d="m17.5 21-.5-.5 9-9 2 2v1L21.5 21Z" style="fill:#fff3d6;stroke:none"/>
    </g>
</svg>
