<svg xmlns="http://www.w3.org/2000/svg" width="32" height="32" style="fill-opacity:1;color-rendering:auto;color-interpolation:auto;text-rendering:auto;stroke:#000;stroke-linecap:square;stroke-miterlimit:10;shape-rendering:auto;stroke-opacity:1;fill:#000;stroke-dasharray:none;font-weight:400;stroke-width:1;font-family:&quot;Dialog&quot;;font-style:normal;stroke-linejoin:miter;font-size:12px;stroke-dashoffset:0;image-rendering:auto">
    <g style="stroke-linecap:round;fill:#4c5878;stroke:#4c5878">
        <path stroke="none" d="M4 16.5v-3L7.5 10l3 3 2.5-2.5 3 3-7 7-.5-.5h-1Z" style="stroke:none"/>
    </g>
    <g stroke="none" style="stroke-linecap:round;fill:#4c5878;stroke:#4c5878">
        <path d="M6 27.5v-4l1-1 3.5 3.5h2l3-3h2l2 2-6 6h-4Z" style="stroke:none"/>
        <path d="m7 22.5 6.5-6.5.5.5v2l3 3 3-3 3 3-3.5 3.5-2-2h-2l-3 3h-2ZM7.5 10l3-3 3.5 3.5L16.5 8l2.5 2.5-3 3-3-3-2.5 2.5Z" style="fill:#768a9a;stroke:none"/>
        <path d="m10.5 7 5-5h4L23 5.5v3l5 5v3l-5 5-3-3-3 3-3-3v-2l-.5-.5 5.5-5.5L16.5 8 14 10.5Z" style="fill:#a0b0c8;stroke:none"/>
    </g>
</svg>
