<svg xmlns="http://www.w3.org/2000/svg" width="32" height="32" style="fill-opacity:1;color-rendering:auto;color-interpolation:auto;text-rendering:auto;stroke:#000;stroke-linecap:square;stroke-miterlimit:10;shape-rendering:auto;stroke-opacity:1;fill:#000;stroke-dasharray:none;font-weight:400;stroke-width:1;font-family:&quot;Dialog&quot;;font-style:normal;stroke-linejoin:miter;font-size:12px;stroke-dashoffset:0;image-rendering:auto">
    <g style="stroke-linecap:round;fill:#f9a3c7;stroke:#f9a3c7">
        <path stroke="none" d="M2 11.5v-5L5.5 3h5L13 5.5v3L7.5 14h-2l-.5.5Z" style="stroke:none"/>
    </g>
    <g stroke="none" style="stroke-linecap:round;fill:#cb8ebf;stroke:#cb8ebf">
        <path d="m5 14.5.5-.5h2L13 8.5V8h3v2.5l7 7 6-6v3l-4 4v3L18.5 28h-4l-4-4h5l4.5-4.5v-2L15.5 13h-3L7 18.5v-2Z" style="stroke:none"/>
        <path d="M7 20.5v-2l5.5-5.5h3l4.5 4.5v2L15.5 24h-5Zm9-10v-3L20.5 3h4L29 7.5v4l-6 6Z" style="fill:#f9a3c7;stroke:none"/>
    </g>
</svg>
