<svg xmlns="http://www.w3.org/2000/svg" width="32" height="32" style="fill-opacity:1;color-rendering:auto;color-interpolation:auto;text-rendering:auto;stroke:#000;stroke-linecap:square;stroke-miterlimit:10;shape-rendering:auto;stroke-opacity:1;fill:#000;stroke-dasharray:none;font-weight:400;stroke-width:1;font-family:&quot;Dialog&quot;;font-style:normal;stroke-linejoin:miter;font-size:12px;stroke-dashoffset:0;image-rendering:auto">
    <g style="stroke-linecap:round;fill:#50477b;stroke:#50477b">
        <path stroke="none" d="M1 16.5v-2l4-4L8.5 14 7 15.5l5 5 4-4 3 3-2 2 2 2 4-4 3.5 3.5-7.5 7.5-5-5-2 2Z" style="stroke:none"/>
    </g>
    <g stroke="none" style="stroke-linecap:round;fill:#89769a;stroke:#89769a">
        <path d="M5 10.5 8.5 7 11 9.5l3-3 3.5 3.5 2-2 2.5 2.5-4 4 2.5 2.5 5.5-5.5 1.5 1.5-3.5 3.5 3.5 3.5 3.5-3.5v2L26.5 23 23 19.5l-4 4-2-2 2-2-3-3-4 4-5-5L8.5 14Z" style="stroke:none"/>
        <path d="M8.5 7 14 1.5 18.5 6 23 1.5 29.5 8l-9 9-2.5-2.5 4-4L19.5 8l-2 2L14 6.5l-3 3Z" style="fill:#c9a5c8;stroke:none"/>
        <path d="m10 13.5 3.5 3.5 3.5-3.5-3.5-3.5Z" style="stroke:none"/>
        <path d="m10 13.5 3.5-3.5 3.5 3.5-3.5 3.5Zm14 3 3.5-3.5 3.5 3.5-3.5 3.5Z" style="fill:#c9a5c8;stroke:none"/>
    </g>
</svg>
