<svg xmlns="http://www.w3.org/2000/svg" width="32" height="32" style="fill-opacity:1;color-rendering:auto;color-interpolation:auto;text-rendering:auto;stroke:#000;stroke-linecap:square;stroke-miterlimit:10;shape-rendering:auto;stroke-opacity:1;fill:#000;stroke-dasharray:none;font-weight:400;stroke-width:1;font-family:&quot;Dialog&quot;;font-style:normal;stroke-linejoin:miter;font-size:12px;stroke-dashoffset:0;image-rendering:auto">
    <g style="stroke-linecap:round;fill:#a0b380;stroke:#a0b380">
        <path stroke="none" d="M3 22.5v-4L4.5 17l.5.5v2l3 3 3-3v-3l-2-2v-5l5 5v8l5.5 5.5h-11Z" style="stroke:none"/>
    </g>
    <g stroke="none" style="stroke-linecap:round;fill:#e4ffd6;stroke:#e4ffd6">
        <path d="M5 19.5v-2l-.5-.5 3-3H9v.5l2 2v3l-3 3Zm4-10v-1L12.5 5h7L22 7.5v1l6 6v9L23.5 28h-4L14 22.5v-8Z" style="stroke:none"/>
        <path d="M19 16.5v3l3 3 3-3v-3l-3-3Z" style="stroke:none"/>
        <path d="M19 19.5v-3l3-3 3 3v3l-3 3Z" style="fill:#a0b380;stroke:none"/>
    </g>
</svg>
