<svg xmlns="http://www.w3.org/2000/svg" width="32" height="32" style="fill-opacity:1;color-rendering:auto;color-interpolation:auto;text-rendering:auto;stroke:#000;stroke-linecap:square;stroke-miterlimit:10;shape-rendering:auto;stroke-opacity:1;fill:#000;stroke-dasharray:none;font-weight:400;stroke-width:1;font-family:&quot;Dialog&quot;;font-style:normal;stroke-linejoin:miter;font-size:12px;stroke-dashoffset:0;image-rendering:auto">
    <g style="stroke-linecap:round;fill:#626f9b;stroke:#626f9b">
        <path stroke="none" d="M4 23.5v-15l4-4v4L23.5 24H27v1h-.5l-3 3h-15Z" style="stroke:none"/>
    </g>
    <g stroke="none" style="stroke-linecap:round;fill:#626f9b;stroke:#626f9b">
        <path d="M8 16.5v5l2.5 2.5h5l.5-.5v-2L10.5 16h-2Z" style="stroke:none"/>
        <path d="M8 8.5V4h4v2.5l2 2 2-2V4h7.5L28 8.5V16h-2.5l-2 2 2 2H28v2.5l-1 1v.5h-3.5Zm0 13v-5l.5-.5h2l5.5 5.5v2l-.5.5h-5Z" style="fill:#95abd9;stroke:none"/>
        <path d="M12 6.5V4h4v2.5l-2 2ZM23.5 18l2-2H28v4h-2.5Z" style="stroke:none"/>
        <path d="M27.5 24H27v-.5l1-1v1Z" style="fill:#6b77a1;stroke:none"/>
    </g>
</svg>
