<svg xmlns="http://www.w3.org/2000/svg" width="32" height="32" style="fill-opacity:1;color-rendering:auto;color-interpolation:auto;text-rendering:auto;stroke:#000;stroke-linecap:square;stroke-miterlimit:10;shape-rendering:auto;stroke-opacity:1;fill:#000;stroke-dasharray:none;font-weight:400;stroke-width:1;font-family:&quot;Dialog&quot;;font-style:normal;stroke-linejoin:miter;font-size:12px;stroke-dashoffset:0;image-rendering:auto">
    <g style="stroke-linecap:round;fill:#f6bb64;stroke:#f6bb64">
        <path stroke="none" d="M6 12.5v-2L12.5 4h6L23 8.5V11h-.5l-1 1h-3l-3 3H8v-.5Z" style="stroke:none"/>
    </g>
    <g stroke="none" style="stroke-linecap:round;fill:#af3a30;stroke:#af3a30">
        <path d="M7 25.5v-3L8.5 21H9v1.5l3.5 3.5h4l2.5-2.5v-1l5-5v-3L21.5 12l1-1h3l3.5 3.5v4L24.5 23h-2L21 24.5v1L17.5 29h-7Z" style="stroke:none"/>
        <path d="M8 17.5V15h7.5l3-3h3l2.5 2.5v3L19.5 22l-3-3h-5l-1 1Z" style="fill:#df824d;stroke:none"/>
        <path d="M9 22.5V21h.5l2-2h5l3 3-.5.5v1L16.5 26h-4Z" style="fill:#f6bb64;stroke:none"/>
    </g>
</svg>
