<svg xmlns="http://www.w3.org/2000/svg" width="32" height="32" style="fill-opacity:1;color-rendering:auto;color-interpolation:auto;text-rendering:auto;stroke:#000;stroke-linecap:square;stroke-miterlimit:10;shape-rendering:auto;stroke-opacity:1;fill:#000;stroke-dasharray:none;font-weight:400;stroke-width:1;font-family:&quot;Dialog&quot;;font-style:normal;stroke-linejoin:miter;font-size:12px;stroke-dashoffset:0;image-rendering:auto">
    <g style="stroke-linecap:round;fill:#b8705c;stroke:#b8705c">
        <path stroke="none" d="M2 16.5v-7l1-1V8h.5L5 9.5l-.5.5 15 15h1l1 1h3l.5.5-2.5 2.5h-8Z" style="stroke:none"/>
    </g>
    <g stroke="none" style="stroke-linecap:round;fill:#d99d73;stroke:#d99d73">
        <path d="M5 9.5 3.5 8l6-6h6l1 1-1 1h-1l-1 1h-1l-1 1h-1l-1 1h-1l-1 1h-1Z" style="stroke:none"/>
        <path d="m4.5 10 2-2h1l1-1h1l1-1h1l1-1h1l1-1h1l1-1 4 4-1 1h-1l-1 1h-1l-1 1h-1l-1 1h-1l-1 1h-1l-1 1h-1l-.5.5Z" style="fill:#eac2a9;stroke:none"/>
        <path d="m8 13.5.5-.5h1l1-1h1l1-1h1l1-1h1l1-1h1l1-1h1l1-1 5 5h-2l-1 1h-1l-1 1h-1l-1 1h-1l-1 1h-1l-1 1h-1l-1 1Z" style="stroke:none"/>
        <path d="m12.5 18 1-1h1l1-1h1l1-1h1l1-1h1l1-1h1l1-1h2l4 4h-2l-1 1h-1l-1 1h-1l-1 1h-1l-1 1h-1l-1 1h-1l-1 1Z" style="fill:#eac2a9;stroke:none"/>
        <path d="m16.5 22 1-1h1l1-1h1l1-1h1l1-1h1l1-1h1l1-1H30v5h-1.5l-1 1h-1l-1 1h-1l-1 1h-1L21 25.5l-.5-.5h-1Z" style="stroke:none"/>
        <path d="m21.5 26-.5-.5 1.5-1.5h1l1-1h1l1-1h1l1-1H30v.5l-5 5-.5-.5Z" style="fill:#eac2a9;stroke:none"/>
    </g>
</svg>
