<svg xmlns="http://www.w3.org/2000/svg" width="32" height="32" style="fill-opacity:1;color-rendering:auto;color-interpolation:auto;text-rendering:auto;stroke:#000;stroke-linecap:square;stroke-miterlimit:10;shape-rendering:auto;stroke-opacity:1;fill:#000;stroke-dasharray:none;font-weight:400;stroke-width:1;font-family:&quot;Dialog&quot;;font-style:normal;stroke-linejoin:miter;font-size:12px;stroke-dashoffset:0;image-rendering:auto">
    <g style="stroke-linecap:round;fill:#c85c51;stroke:#c85c51">
        <path stroke="none" d="M4 23.5v-15L8.5 4h4L23 14.5v6L16.5 27l-.5-.5v-4l-3-3v-2l3.5-3.5-3.5-3.5v-5l-1-1-4 4v2l3.5 3.5L8 17.5v2l8.5 8.5h-8Z" style="stroke:none"/>
    </g>
    <g style="stroke-linecap:round;fill:#ff795e;stroke:#ff795e">
        <path stroke="none" d="M8 10.5v-2l4-4 1 1v5l3.5 3.5-3.5 3.5v2l3 3v4l.5.5 6.5-6.5v-6L12.5 4h11L28 8.5v15L23.5 28h-7L8 19.5v-2l3.5-3.5Z" style="stroke:none"/>
    </g>
</svg>
