<svg xmlns="http://www.w3.org/2000/svg" width="32" height="32" style="fill-opacity:1;color-rendering:auto;color-interpolation:auto;text-rendering:auto;stroke:#000;stroke-linecap:square;stroke-miterlimit:10;shape-rendering:auto;stroke-opacity:1;fill:#000;stroke-dasharray:none;font-weight:400;stroke-width:1;font-family:&quot;Dialog&quot;;font-style:normal;stroke-linejoin:miter;font-size:12px;stroke-dashoffset:0;image-rendering:auto">
    <g style="stroke-linecap:round;fill:#5e988d;stroke:#5e988d">
        <path stroke="none" d="m3 14.5 2-2 3 3L18.5 5l2 2L8 19.5Z" style="stroke:none"/>
    </g>
    <g stroke="none" style="stroke-linecap:round;fill:#4a6949;stroke:#4a6949">
        <path d="M8 19.5 20.5 7 23 9.5l-14 14-6-6v-3Z" style="stroke:none"/>
        <path d="M5 12.5 14.5 3h2l2 2L8 15.5Z" style="fill:#8bbeb0;stroke:none"/>
        <path d="m7.5 25 3.5-3.5 2.5 2.5 4-4-2.5-2.5 3.5-3.5 2.5 2.5 5.5-5.5 2 2L12 29.5Z" style="fill:#5e988d;stroke:none"/>
        <path d="m11 21.5 4-4 2.5 2.5-4 4Z" style="fill:#8bbeb0;stroke:none"/>
        <path d="M12 29.5 28.5 13l3 3-15 15h-3Z" style="stroke:none"/>
        <path d="M18.5 14 24 8.5l2.5 2.5-5.5 5.5Z" style="fill:#8bbeb0;stroke:none"/>
    </g>
</svg>
