<svg xmlns="http://www.w3.org/2000/svg" width="32" height="32" style="fill-opacity:1;color-rendering:auto;color-interpolation:auto;text-rendering:auto;stroke:#000;stroke-linecap:square;stroke-miterlimit:10;shape-rendering:auto;stroke-opacity:1;fill:#000;stroke-dasharray:none;font-weight:400;stroke-width:1;font-family:&quot;Dialog&quot;;font-style:normal;stroke-linejoin:miter;font-size:12px;stroke-dashoffset:0;image-rendering:auto">
    <g style="stroke-linecap:round;fill:#5ec1bf;stroke:#5ec1bf">
        <path stroke="none" d="M3 18.5v-5l1-1v-2l1-1v-1l.5-.5 5 5-.5.5v5l1 1v1l3.5 3.5h1l1 1h4l1.5-1.5 2.5 2.5-2 2h-1l-1 1h-1l-1 1h-5l-1-1h-1l-1-1h-1L5 23.5v-1l-1-1v-2Z" style="stroke:none"/>
    </g>
    <g style="stroke-linecap:round;fill:#8deebb;stroke:#8deebb">
        <path stroke="none" d="m5.5 8 3-3h1l1-1h1l1-1h7l1 1h1l1 1h1L26 7.5v1l1 1v1l1 1v5l-1 1v1L25.5 20h-1l-1 1h-1l-1 1h-5L13 18.5v-4l1-1v-1l1.5-1.5h2l1.5 1.5 1-1L17.5 9h-3l-1 1h-1L11 11.5v1l-.5.5Z" style="stroke:none"/>
    </g>
</svg>
