<svg xmlns="http://www.w3.org/2000/svg" width="32" height="32" style="fill-opacity:1;color-rendering:auto;color-interpolation:auto;text-rendering:auto;stroke:#000;stroke-linecap:square;stroke-miterlimit:10;shape-rendering:auto;stroke-opacity:1;fill:#000;stroke-dasharray:none;font-weight:400;stroke-width:1;font-family:&quot;Dialog&quot;;font-style:normal;stroke-linejoin:miter;font-size:12px;stroke-dashoffset:0;image-rendering:auto">
    <g style="stroke-linecap:round;fill:#6586b0;stroke:#6586b0">
        <path stroke="none" d="M5 24.5v-6l1-1v-1L9.5 13h1l1.5-1.5v2l-2 2v1l-1 1v1l-1 1v2l1 1v1l2.5 2.5h1l1 1h5l1-1h1l1-1h1l2.5-2.5v2l-1 1v1L20.5 30h-1l-1 1h-7l-1-1h-1L6 26.5v-1Z" style="stroke:none"/>
    </g>
    <g stroke="none" style="stroke-linecap:round;fill:#87ceeb;stroke:#87ceeb">
        <path d="M8 3.5V2h.5l1-1h2l1 1h1l1 1h1L20 7.5v1l2 2v1l1 1v1l1 1v1l1 1v6L22.5 25h-1l-1 1h-1l-1 1h-5l-1-1h-1L9 23.5v-1l-1-1v-2l1-1v-1l1-1v-1l2-2v-4l-1-1v-2Z" style="stroke:none"/>
        <path d="m13.5 14 1.5 1.5v1l2.5 2.5h1l1.5 1.5 2-2v-4L19.5 12h-4Z" style="stroke:none"/>
        <path d="m13.5 14 2-2h4l2.5 2.5v4l-2 2-1.5-1.5h-1L15 16.5v-1Z" style="fill:#c0ecff;stroke:none"/>
    </g>
</svg>
