<svg xmlns="http://www.w3.org/2000/svg" width="32" height="32" style="fill-opacity:1;color-rendering:auto;color-interpolation:auto;text-rendering:auto;stroke:#000;stroke-linecap:square;stroke-miterlimit:10;shape-rendering:auto;stroke-opacity:1;fill:#000;stroke-dasharray:none;font-weight:400;stroke-width:1;font-family:&quot;Dialog&quot;;font-style:normal;stroke-linejoin:miter;font-size:12px;stroke-dashoffset:0;image-rendering:auto">
    <g style="stroke-linecap:round;fill:#9e172c;stroke:#9e172c">
        <path stroke="none" d="M3 27.5v-3l2-2v-1L6.5 20 5 18.5v-1l-1-1v-3L6.5 11h2l1 1H11v.5l1 1v1l-3 3v1l-1 1v2l1 1v1l1.5 1.5h1l3 3-1 1h-1L11 30.5l-.5-.5-1 1H6v-.5Z" style="stroke:none"/>
    </g>
    <g stroke="none" style="stroke-linecap:round;fill:#e05438;stroke:#e05438">
        <path d="M8 21.5v-2l1-1v-1l3-3v-5l-1-1v-2l-1-1v-1L8.5 3l2-2h3L20 7.5v1l2 2v1l1 1v1l1 1v1l1 1v7L23.5 22h-2L17 26.5V28h-2.5l-3-3h-1L9 23.5v-1Z" style="stroke:none"/>
        <path d="m10.5 21 3 3h2l3-3-3-3h-2Z" style="stroke:none"/>
        <path d="m10.5 21 3-3h2l3 3-3 3h-2Z" style="fill:#9e172c;stroke:none"/>
        <path d="m13.5 14 3 3h1l1.5 1.5 3.5-3.5-3-3h-4Z" style="stroke:none"/>
        <path d="m13.5 14 2-2h4l3 3-3.5 3.5-1.5-1.5h-1Z" style="fill:#f98f4a;stroke:none"/>
        <path d="M17 28.5v-2l4.5-4.5h2l1.5 1.5v2l-1 1v1L21.5 30h-3Z" style="fill:#9e172c;stroke:none"/>
    </g>
</svg>
