<svg xmlns="http://www.w3.org/2000/svg" width="64" height="64" style="fill-opacity:1;color-rendering:auto;color-interpolation:auto;text-rendering:auto;stroke:#000;stroke-linecap:square;stroke-miterlimit:10;shape-rendering:auto;stroke-opacity:1;fill:#000;stroke-dasharray:none;font-weight:400;stroke-width:1;font-family:&quot;Dialog&quot;;font-style:normal;stroke-linejoin:miter;font-size:12px;stroke-dashoffset:0;image-rendering:auto">
    <g style="stroke-linecap:round;fill:#989aa4;stroke:#989aa4">
        <path stroke="none" d="M.5 2V.5H2L7.5 6l2-2h45L60 9.5v45l-2 2 5.5 5.5v1.5H62L56.5 58l-2 2h-45L4 54.5v-45l2-2Z" style="stroke:none"/>
    </g>
    <g stroke="none" style="stroke-linecap:round;fill:#6e7080;stroke:#6e7080">
        <path d="m6 7.5-2 2v45L9.5 60h45l2-2 5.5 5.5H.5V2Z" style="stroke:none"/>
        <path d="M2 .5h61.5V62L58 56.5l2-2v-45L54.5 4h-45l-2 2Z" style="fill:#b0bac0;stroke:none"/>
        <path d="m6.5 14 3.5 3.5 7.5-7.5L14 6.5Zm0 36 7.5 7.5 3.5-3.5-7.5-7.5Z" style="fill:#989aa4;stroke:none"/>
        <path d="M6.5 14 14 6.5l3.5 3.5-7.5 7.5Zm0 36 3.5-3.5 7.5 7.5-3.5 3.5Z" style="fill:#b0bac0;stroke:none"/>
        <path d="M12 19.5v25l7.5 7.5h25l3.5-3.5-6-6-1.5 1.5h-17L20 40.5v-17l1.5-1.5-6-6Z" style="fill:#989aa4;stroke:none"/>
        <path d="M12 44.5v-25l3.5-3.5 6 6-1.5 1.5v17l3.5 3.5h17l1.5-1.5 6 6-3.5 3.5h-25Z" style="stroke:none"/>
        <path d="m16 15.5 6 6 1.5-1.5h17l3.5 3.5v17L42.5 42l6 6 3.5-3.5v-25L44.5 12h-25Z" style="fill:#989aa4;stroke:none"/>
        <path d="m16 15.5 3.5-3.5h25l7.5 7.5v25L48.5 48l-6-6 1.5-1.5v-17L40.5 20h-17L22 21.5Z" style="fill:#b0bac0;stroke:none"/>
        <path d="M24 27.5v9l3.5 3.5h9l3.5-3.5v-9L36.5 24h-9Z" style="fill:#989aa4;stroke:none"/>
        <path d="M24 36.5v-9l3.5-3.5h9l3.5 3.5v9L36.5 40h-9Z" style="fill:#b0bac0;stroke:none"/>
        <path d="m46.5 10 7.5 7.5 3.5-3.5L50 6.5Zm0 44 3.5 3.5 7.5-7.5-3.5-3.5Z" style="fill:#989aa4;stroke:none"/>
        <path d="M46.5 10 50 6.5l7.5 7.5-3.5 3.5Zm0 44 7.5-7.5 3.5 3.5-7.5 7.5Z" style="fill:#b0bac0;stroke:none"/>
    </g>
</svg>
