<svg xmlns="http://www.w3.org/2000/svg" width="192" height="192" style="fill-opacity:1;color-rendering:auto;color-interpolation:auto;text-rendering:auto;stroke:#000;stroke-linecap:square;stroke-miterlimit:10;shape-rendering:auto;stroke-opacity:1;fill:#000;stroke-dasharray:none;font-weight:400;stroke-width:1;font-family:&quot;Dialog&quot;;font-style:normal;stroke-linejoin:miter;font-size:12px;stroke-dashoffset:0;image-rendering:auto">
    <g style="stroke-linecap:round;fill:#4a4b53;stroke:#4a4b53">
        <path stroke="none" d="M.5 51V14L7 7.5 18.5 19 15 22.5v14L27.5 49h8l2-2-7.5-7.5v-5l2-2 20 20-3 3v2l5.5 5.5L42 75.5v4L58.5 96 42 112.5v4L54.5 129l-5.5 5.5v2l6.5 6.5h2l5.5-5.5L75.5 150h4L96 133.5l16.5 16.5h4l12.5-12.5 5.5 5.5h2l3-3 20 20-2 2h-5l-7.5-7.5-2 2v8l12.5 12.5h14l3.5-3.5 11.5 11.5-6.5 6.5h-37l-5.5-5.5h-5l-5.5 5.5h-6l-6-6-6 6H85l-6-6-6 6h-6l-5.5-5.5h-5l-5.5 5.5H14L.5 178v-37l5.5-5.5v-5L.5 125v-6l6-6-6-6V85l6-6-6-6v-6L6 61.5v-5Z" style="stroke:none"/>
    </g>
    <g stroke="none" style="stroke-linecap:round;fill:#6e7080;stroke:#6e7080">
        <path d="m8 8.5-1-1 .5-.5.5.5Z" style="stroke:none"/>
        <path d="M7.5 7 14 .5h37L56.5 6h5L67 .5h6l6 6 6-6h22l6 6 6-6h6l5.5 5.5h5L141 .5h37L191.5 14v37l-5.5 5.5v5l5.5 5.5v6l-6 6 6 6v22l-6 6 6 6v6l-5.5 5.5v5l5.5 5.5v37l-6.5 6.5-11.5-11.5 3.5-3.5v-14L164.5 143h-8l-2 2 7.5 7.5v5l-2 2-20-20 3-3v-2l-5.5-5.5 12.5-12.5v-4L133.5 96 150 79.5v-4L137.5 63l5.5-5.5v-2l-6.5-6.5h-2l-5.5 5.5L116.5 42h-4L96 58.5 79.5 42h-4L63 54.5 57.5 49h-2l-3 3-20-20 2-2h5l7.5 7.5 2-2v-8L36.5 15h-14L19 18.5Z" style="fill:#989aa4;stroke:none"/>
        <path d="m10 10.5-3-3 .5-.5L10 9.5Z" style="stroke:none"/>
        <path d="m12 12.5-5-5 .5-.5 4.5 4.5Z" style="stroke:none"/>
        <path d="m14 14.5-7-7 .5-.5 6.5 6.5Z" style="stroke:none"/>
        <path d="m13.5 59 6 6-4.5 4.5v5l5 5v8l8.5 8.5-8.5 8.5v8l-5 5v5l4.5 4.5-6 6 4.5 4.5 3.5-3.5h10l7-7L28 116.5v-11l9.5-9.5-9.5-9.5v-11L38.5 65l-7-7h-10L18 54.5Z" style="fill:#4a4b53;stroke:none"/>
        <path d="m13.5 59 4.5-4.5 3.5 3.5h10l7 7L28 75.5v11l9.5 9.5-9.5 9.5v11L38.5 127l-7 7h-10l-3.5 3.5-4.5-4.5 6-6-4.5-4.5v-5l5-5v-8l8.5-8.5-8.5-8.5v-8l-5-5v-5l4.5-4.5Z" style="stroke:none"/>
        <path d="M15 155.5v14l7.5 7.5h14L49 164.5v-8l-2-2-7.5 7.5h-5l-4.5-4.5v-5l7.5-7.5-2-2h-8Z" style="fill:#4a4b53;stroke:none"/>
        <path d="m16 16.5-9-9 .5-.5 8.5 8.5Z" style="stroke:none"/>
        <path d="M15 36.5v-14l3.5-3.5L7 7.5l.5-.5L19 18.5l3.5-3.5h14L49 27.5v8l-2 2-7.5-7.5h-5l-2 2 20 20 3-3h2l5.5 5.5L75.5 42h4L96 58.5 112.5 42h4L129 54.5l5.5-5.5h2l6.5 6.5v2l-5.5 5.5L150 75.5v4L133.5 96l16.5 16.5v4L137.5 129l5.5 5.5v2l-3 3 20 20 2-2v-5l-7.5-7.5 2-2h8l12.5 12.5v14l-3.5 3.5 11.5 11.5-.5.5-11.5-11.5-3.5 3.5h-14L143 164.5v-8l2-2 7.5 7.5h5l2-2-20-20-3 3h-2l-5.5-5.5-12.5 12.5h-4L96 133.5 79.5 150h-4L63 137.5l-5.5 5.5h-2l-6.5-6.5v-2l5.5-5.5L42 116.5v-4L58.5 96 42 79.5v-4L54.5 63 49 57.5v-2l3-3-20-20-2 2v5l7.5 7.5-2 2h-8Zm0 133v-14L27.5 143h8l2 2-7.5 7.5v5l4.5 4.5h5l7.5-7.5 2 2v8L36.5 177h-14Z" style="stroke:none"/>
        <path d="M51 77.5v2L67.5 96 51 112.5v2l9 9 3.5-3.5h2l6.5 6.5v2l-3.5 3.5 9 9h2L96 124.5l16.5 16.5h2l9-9-3.5-3.5v-2l3-3-12.5-12.5-3 3-7-7h-9l-7 7-6.5-6.5 7-7v-9l-7-7 3-3L68.5 69l-3 3h-2L60 68.5Z" style="stroke:none"/>
        <path d="M51 79.5v-2l9-9 3.5 3.5h2l3-3L81 81.5l-3 3 7 7v9l-7 7 6.5 6.5 7-7h9l7 7 3-3 12.5 12.5-3 3v2l3.5 3.5-9 9h-2L96 124.5 79.5 141h-2l-9-9 3.5-3.5v-2l-6.5-6.5h-2l-3.5 3.5-9-9v-2L67.5 96Z" style="fill:#4a4b53;stroke:none"/>
        <path d="m54.5 18 3.5 3.5v10l7 7L75.5 28h11l9.5 9.5 9.5-9.5h11L127 38.5l7-7v-10l3.5-3.5-4.5-4.5-6 6-4.5-4.5h-5l-5 5h-8L96 28.5 87.5 20h-8l-5-5h-5L65 19.5l-6-6Z" style="fill:#989aa4;stroke:none"/>
        <path d="m54.5 174 4.5 4.5 6-6 4.5 4.5h5l5-5h8l8.5-8.5 8.5 8.5h8l5 5h5l4.5-4.5 6 6 4.5-4.5-3.5-3.5v-10l-7-7-10.5 10.5h-11l-9.5-9.5-9.5 9.5h-11L65 153.5l-7 7v10Z" style="fill:#4a4b53;stroke:none"/>
        <path d="m54.5 18 4.5-4.5 6 6 4.5-4.5h5l5 5h8l8.5 8.5 8.5-8.5h8l5-5h5l4.5 4.5 6-6 4.5 4.5-3.5 3.5v10l-7 7L116.5 28h-11L96 37.5 86.5 28h-11L65 38.5l-7-7v-10Zm0 156 3.5-3.5v-10l7-7L75.5 164h11l9.5-9.5 9.5 9.5h11l10.5-10.5 7 7v10l3.5 3.5-4.5 4.5-6-6-4.5 4.5h-5l-5-5h-8l-8.5-8.5-8.5 8.5h-8l-5 5h-5l-4.5-4.5-6 6Zm14-114 3.5 3.5v2l-3 3L81.5 81l3-3 7 7h9l7-7 6.5 6.5-7 7v9l7 7-3 3 12.5 12.5 3-3h2l3.5 3.5 9-9v-2L124.5 96 141 79.5v-2l-9-9-3.5 3.5h-2l-6.5-6.5v-2l3.5-3.5-9-9h-2L96 67.5 79.5 51h-2Z" style="stroke:none"/>
        <path d="m68.5 60 9-9h2L96 67.5 112.5 51h2l9 9-3.5 3.5v2l6.5 6.5h2l3.5-3.5 9 9v2L124.5 96l16.5 16.5v2l-9 9-3.5-3.5h-2l-3 3-12.5-12.5 3-3-7-7v-9l7-7-6.5-6.5-7 7h-9l-7-7-3 3L69 68.5l3-3v-2ZM143 27.5v8l2 2 7.5-7.5h5l4.5 4.5v5l-7.5 7.5 2 2h8L177 36.5v-14l-7.5-7.5h-14Z" style="fill:#989aa4;stroke:none"/>
        <path d="M143 35.5v-8L155.5 15h14l7.5 7.5v14L164.5 49h-8l-2-2 7.5-7.5v-5l-4.5-4.5h-5l-7.5 7.5Z" style="stroke:none"/>
        <path d="M153.5 65 164 75.5v11l-9.5 9.5 9.5 9.5v11L153.5 127l7 7h10l3.5 3.5 4.5-4.5-6-6 4.5-4.5v-5l-5-5v-8l-8.5-8.5 8.5-8.5v-8l5-5v-5l-4.5-4.5 6-6-4.5-4.5-3.5 3.5h-10Z" style="fill:#989aa4;stroke:none"/>
        <path d="m153.5 65 7-7h10l3.5-3.5 4.5 4.5-6 6 4.5 4.5v5l-5 5v8l-8.5 8.5 8.5 8.5v8l5 5v5l-4.5 4.5 6 6-4.5 4.5-3.5-3.5h-10l-7-7 10.5-10.5v-11l-9.5-9.5 9.5-9.5v-11Z" style="stroke:none"/>
    </g>
</svg>
