<svg xmlns="http://www.w3.org/2000/svg" width="128" height="60" style="fill-opacity:1;color-rendering:auto;color-interpolation:auto;text-rendering:auto;stroke:#000;stroke-linecap:square;stroke-miterlimit:10;shape-rendering:auto;stroke-opacity:1;fill:#000;stroke-dasharray:none;font-weight:400;stroke-width:1;font-family:&quot;Dialog&quot;;font-style:normal;stroke-linejoin:miter;font-size:12px;stroke-dashoffset:0;image-rendering:auto">
    <g style="stroke-linecap:round;fill:#6e7080;stroke:#6e7080">
        <path stroke="none" d="m104.5 22-.5-.5v-12l8.5-8.5h7l1.5 1.5v1L107.5 17l4.5 4.5v.5Z" style="stroke:none"/>
    </g>
    <g stroke="none" style="stroke-linecap:round;fill:#6e7080;stroke:#6e7080">
        <path d="M104 50.5v-12l.5-.5h7.5v.5l-4.5 4.5L121 56.5v1l-1.5 1.5h-7Z" style="stroke:none"/>
        <path d="m107.5 17 5-5 .5.5v9l-.5.5h-.5v-.5Zm0 26 4.5-4.5V38h.5l.5.5v9l-.5.5Z" style="fill:#989aa4;stroke:none"/>
        <path d="M112.5 38h-.5V22h.5l.5-.5v-9l-.5-.5 8.5-8.5v6l.5.5h1l3.5 3.5v5l-3.5 3.5h-1l-.5.5v15l.5.5h1l3.5 3.5v5l-3.5 3.5h-1l-.5.5v6l-8.5-8.5.5-.5v-9Z" style="fill:#b0bac0;stroke:none"/>
        <path d="M116 13.5v5l4 4 1-1v-11l-1-1Zm0 28v5l4 4 1-1v-11l-1-1Z" style="fill:#b0bac0;stroke:none"/>
        <path d="M116 18.5v-5l4-4 1 1v11l-1 1Zm0 28v-5l4-4 1 1v11l-1 1Z" style="fill:#989aa4;stroke:none"/>
    </g>
</svg>
