<svg xmlns="http://www.w3.org/2000/svg" width="160" height="160" style="fill-opacity:1;color-rendering:auto;color-interpolation:auto;text-rendering:auto;stroke:#000;stroke-linecap:square;stroke-miterlimit:10;shape-rendering:auto;stroke-opacity:1;fill:#000;stroke-dasharray:none;font-weight:400;stroke-width:1;font-family:&quot;Dialog&quot;;font-style:normal;stroke-linejoin:miter;font-size:12px;stroke-dashoffset:0;image-rendering:auto">
    <g style="stroke-linecap:round;fill:#9d7f7f;stroke:#9d7f7f">
        <path stroke="none" d="M9.5 48H16v12H7.5l-7-7V39Z" style="stroke:none"/>
    </g>
    <g stroke="none" style="stroke-linecap:round;fill:#9d7f7f;stroke:#9d7f7f">
        <path d="M.5 89V71l7-7H16v12H8.5l-4 4 4 4H16v12H7.5Zm0 32v-14l7-7H16v12H9.5Z" style="stroke:none"/>
        <path d="M16 60V48h16v12Zm0 16V64h8.5l3.5 3.5v25L24.5 96H16V84h5.5l4-4-4-4Zm0 36v-12h16v12Z" style="fill:#dcc6c6;stroke:none"/>
        <path d="M28 92V68h16v24Zm4-32V48h3.5l6-6 8.5 8.5-9.5 9.5Zm0 52v-12h8.5L60 119.5v8.5H48v-3.5L35.5 112Z" style="stroke:none"/>
        <path d="M39 .5h14l7 7V16H48V9.5Zm3 41 6-6V32h12v8.5L50.5 50Z" style="fill:#fff;stroke:none"/>
        <path d="M43 43.5 41.5 42l.5-.5 1 1Z" style="fill:#dcc6c6;stroke:none"/>
        <path d="M45 45.5 41.5 42l.5-.5 3 3ZM44 92V68h1.5L68 45.5V44h24v1.5L114.5 68h1.5v24h-1.5L92 114.5v1.5H68v-1.5L45.5 92Z" style="fill:#dcc6c6;stroke:none"/>
        <path d="M47 47.5 41.5 42l.5-.5 5 5ZM48 32V16h12v16Z" style="fill:#dcc6c6;stroke:none"/>
        <path d="M49 49.5 41.5 42l.5-.5 7 7ZM48 144v-16h12v16Zm4-70.5v13L73.5 108h13L108 86.5v-13L86.5 52h-13Z" style="fill:#dcc6c6;stroke:none"/>
        <path d="M52 84v-8h6.5l8.5-8.5 5 5-4 4v7l8.5 8.5h7l4-4 5 5-8.5 8.5v6.5h-8v-6.5L58.5 84Zm1 75.5H39l9-9V144h12v8.5Z" style="stroke:none"/>
        <path d="M64 16V7.5l7-7h18l7 7V16H84V8.5l-4-4-4 4V16Z" style="fill:#fff;stroke:none"/>
        <path d="M64 24.5V16h12v5.5l4 4 4-4V16h12v8.5L92.5 28h-25ZM64 144v-8.5l3.5-3.5h25l3.5 3.5v8.5H84v-5.5l-4-4-4 4v5.5Z" style="fill:#dcc6c6;stroke:none"/>
        <path d="M64 152.5V144h12v7.5l4 4 4-4V144h12v8.5l-7 7H71Z" style="stroke:none"/>
        <path d="m68 68.5-1-1 .5-.5.5.5Z" style="fill:#dcc6c6;stroke:none"/>
        <path d="M68 44V28h24v16Zm-.5 23 8.5-8.5V52h8v6.5L101.5 76h6.5v8h-6.5L93 92.5l-5-5 4-4v-7L83.5 68h-7l-4 4Z" style="fill:#fff;stroke:none"/>
        <path d="M68 83.5v-7l4-4-5-5 .5-.5 5 5 4-4h7l8.5 8.5v7l-4 4 5 5-.5.5-5-5-4 4h-7Z" style="fill:#dcc6c6;stroke:none"/>
        <path d="M68 132v-16h24v16Z" style="stroke:none"/>
        <path d="m74.5 76 9.5 9.5 4-4v-3L81.5 72h-3Z" style="fill:#dcc6c6;stroke:none"/>
        <path d="m74.5 76 4-4h3l6.5 6.5v3l-4 4ZM100 16V7.5l7-7h14l-9 9V16Z" style="fill:#fff;stroke:none"/>
        <path d="M100 32V16h12v16Z" style="fill:#dcc6c6;stroke:none"/>
        <path d="M100 40.5V32h12v3.5L124.5 48h3.5v12h-8.5Z" style="fill:#fff;stroke:none"/>
        <path d="M100 128v-8.5l9.5-9.5 8.5 8.5-6 6v3.5Z" style="stroke:none"/>
        <path d="M100 144v-16h12v16Z" style="fill:#dcc6c6;stroke:none"/>
        <path d="M100 152.5V144h12v6.5l9 9h-14Z" style="stroke:none"/>
        <path d="m110 109.5 9.5-9.5h8.5v12h-3.5l-6 6Z" style="fill:#fff;stroke:none"/>
        <path d="m111 111.5-1.5-1.5.5-.5 1 1Z" style="fill:#dcc6c6;stroke:none"/>
        <path d="m113 113.5-3.5-3.5.5-.5 3 3Z" style="fill:#dcc6c6;stroke:none"/>
        <path d="m115 115.5-5.5-5.5.5-.5 5 5Z" style="fill:#dcc6c6;stroke:none"/>
        <path d="M116 92V68h16v24Z" style="fill:#fff;stroke:none"/>
        <path d="m117 117.5-7.5-7.5.5-.5 7 7ZM128 60V48h16v12Zm0 52v-12h16v12Zm4-19.5v-25l3.5-3.5h8.5v12h-5.5l-4 4 4 4h5.5v12h-8.5Z" style="fill:#dcc6c6;stroke:none"/>
        <path d="M144 60V48h6.5l9-9v14l-7 7Zm0 16V64h8.5l7 7v18l-7 7H144V84h7.5l4-4-4-4Zm0 36v-12h8.5l7 7v14l-9-9Z" style="fill:#fff;stroke:none"/>
    </g>
</svg>
