<svg xmlns="http://www.w3.org/2000/svg" width="96" height="96" style="fill-opacity:1;color-rendering:auto;color-interpolation:auto;text-rendering:auto;stroke:#000;stroke-linecap:square;stroke-miterlimit:10;shape-rendering:auto;stroke-opacity:1;fill:#000;stroke-dasharray:none;font-weight:400;stroke-width:1;font-family:&quot;Dialog&quot;;font-style:normal;stroke-linejoin:miter;font-size:12px;stroke-dashoffset:0;image-rendering:auto">
    <g style="stroke-linecap:round;fill:#989aa4;stroke:#989aa4">
        <path stroke="none" d="M.5 2V.5H2l9 9L12.5 8h71l4.5 4.5v71L86.5 85l9 9v1.5H94l-9-9-1.5 1.5h-71L8 83.5v-71L9.5 11Z" style="stroke:none"/>
    </g>
    <g stroke="none" style="stroke-linecap:round;fill:#6e7080;stroke:#6e7080">
        <path d="M9.5 11 8 12.5v71l4.5 4.5h71l1.5-1.5 9 9H.5V2Z" style="stroke:none"/>
        <path d="M2 .5h93.5V94l-9-9 1.5-1.5v-71L83.5 8h-71L11 9.5Z" style="fill:#b0bac0;stroke:none"/>
        <path d="M12 17.5v8l3 3v4l3.5 3.5.5-.5v-1l2-2 6.5 6.5-2.5 2.5v13l2.5 2.5-6.5 6.5-2-2v-1l-.5-.5-3.5 3.5v4l-3 3v8l5.5 5.5h7l3-3h5l3.5-3.5-.5-.5h-1l-2-2 6.5-6.5 2.5 2.5h13l2.5-2.5 6.5 6.5-2 2h-1l-.5.5 3.5 3.5h4l3 3h8l5.5-5.5v-7l-3-3v-5L77.5 60l-.5.5v1l-2 2-6.5-6.5 2.5-2.5v-13L68.5 39l6.5-6.5 2 2v1l.5.5 3.5-3.5v-4l3-3v-8L78.5 12h-7l-3 3h-5L60 18.5l.5.5h1l2 2-6.5 6.5-2.5-2.5h-13L39 27.5 32.5 21l2-2h1l.5-.5-3.5-3.5h-5l-3-3h-7Z" style="fill:#989aa4;stroke:none"/>
        <path d="M12 25.5v-8l5.5-5.5h7l3 3h5l3.5 3.5-.5.5h-1l-2 2 6.5 6.5 2.5-2.5h13l2.5 2.5 6.5-6.5-2-2h-1l-.5-.5 3.5-3.5h5l3-3h7l5.5 5.5v8l-3 3v4L77.5 36l-.5-.5v-1l-2-2-6.5 6.5 2.5 2.5v13L68.5 57l6.5 6.5 2-2v-1l.5-.5 3.5 3.5v5l3 3v7L78.5 84h-8l-3-3h-4L60 77.5l.5-.5h1l2-2-6.5-6.5-2.5 2.5h-13L39 68.5 32.5 75l2 2h1l.5.5-3.5 3.5h-5l-3 3h-7L12 78.5v-8l3-3v-4l3.5-3.5.5.5v1l2 2 6.5-6.5-2.5-2.5v-13l2.5-2.5-6.5-6.5-2 2v1l-.5.5-3.5-3.5v-4Z" style="fill:#b0bac0;stroke:none"/>
        <path d="M20 22.5v3l2.5 2.5h3l2.5-2.5v-3L25.5 20h-3Zm0 48v3l2.5 2.5h3l2.5-2.5v-3L25.5 68h-3Z" style="fill:#b0bac0;stroke:none"/>
        <path d="M20 25.5v-3l2.5-2.5h3l2.5 2.5v3L25.5 28h-3Zm0 48v-3l2.5-2.5h3l2.5 2.5v3L25.5 76h-3Z" style="stroke:none"/>
        <path d="M29 38.5v19l9.5 9.5h19l9.5-9.5v-19L57.5 29h-19Z" style="fill:#b0bac0;stroke:none"/>
        <path d="M29 57.5v-19l4.5-4.5L62 62.5 57.5 67h-19Z" style="stroke:none"/>
        <path d="m33.5 34 5-5h19l9.5 9.5v19l-5 5Z" style="fill:#989aa4;stroke:none"/>
        <path d="M68 22.5v3l2.5 2.5h3l2.5-2.5v-3L73.5 20h-3Zm0 48v3l2.5 2.5h3l2.5-2.5v-3L73.5 68h-3Z" style="fill:#b0bac0;stroke:none"/>
        <path d="M68 25.5v-3l2.5-2.5h3l2.5 2.5v3L73.5 28h-3Zm0 48v-3l2.5-2.5h3l2.5 2.5v3L73.5 76h-3Z" style="stroke:none"/>
    </g>
</svg>
