<svg width="160" height="160" viewBox="0 0 42.333 42.333" xml:space="preserve" xmlns="http://www.w3.org/2000/svg"><g style="display:inline"><path style="display:inline;fill:#a04553;fill-opacity:1;fill-rule:evenodd;stroke-width:0;stroke-linejoin:round" d="M0 10.186v3.705l1.984 1.984h2.25V12.7h-1.72Zm10.98.926L9.393 12.7h-.926v3.175h2.249l2.513-2.514zm3.969 3.97-2.91 2.91H7.54l-.133-.133v6.615l.133-.132h4.498l5.953 5.953v4.498l-1.059 1.058v4.498l1.985 1.984h4.498L25.4 40.35v-4.498l-1.058-1.058v-4.498l2.91-2.91zm-12.965 1.85L0 18.918v4.498L1.984 25.4h2.25v-3.175H2.248L1.19 21.167l1.058-1.059h1.984v-3.175zm0 9.525L0 28.443v3.704l2.514-2.514h1.72v-3.175zm6.483 0v3.175h.926L12.7 32.94v6.879l-2.514 2.513h3.705l1.984-1.984v-8.731l-5.16-5.16zm20.505 2.646-2.514 2.514v8.731l1.985 1.984h3.704l-2.514-2.513v-6.88l1.588-1.587zm-7.805 6.482 1.058 1.059v3.44l-1.058 1.058-1.059-1.059v-3.44Z"/><path style="display:inline;fill:#f15454;fill-opacity:1;fill-rule:evenodd;stroke-width:0;stroke-linejoin:round" d="M12.7 4.233v5.16l-1.72 1.72 2.25 2.248 2.645-2.645V4.233Zm4.233 0v2.25l1.059 1.058v4.498l-5.953 5.953h-.397v6.35h.397l5.953 5.953v.397h6.35v-.397l5.953-5.953h4.498L35.85 25.4h2.25v-3.175h-1.455l-1.059-1.058 1.059-1.059H38.1v-3.175h-2.249l-1.058 1.059h-4.498l-5.953-5.953V7.54L25.4 6.482V4.233h-3.175V5.69l-1.058 1.058-1.059-1.058V4.233Zm9.525 0v6.483l5.16 5.159H38.1V12.7h-5.16l-3.307-3.307v-5.16ZM4.233 12.7v3.175h4.234V12.7zm0 4.233v3.175H5.69l1.058 1.059-1.058 1.058H4.233V25.4h2.25l1.058-1.058v-6.35l-1.059-1.059Zm13.494.926 1.323 1.323-1.058 1.059v1.852l2.249 2.249h1.852l1.058-1.059 1.323 1.323-2.249 2.25v1.719h-2.117v-1.72l-4.63-4.63h-1.72v-2.117h1.72zm-13.494 8.6v3.174h4.234v-3.175zm27.385 0-2.646 2.645 2.249 2.25 1.72-1.72H38.1v-3.176zM12.7 33.866V38.1h3.175v-4.233zm13.758 0V38.1h3.175v-4.233zm-8.466.926-1.059 1.058v2.25h3.175v-1.455l1.059-1.059 1.058 1.059V38.1H25.4v-2.249l-1.058-1.058z"/><g style="stroke-width:1.00012494;stroke-dasharray:none;fill:#fc8e6c;fill-opacity:1"><path style="display:inline;fill:#fc8e6c;fill-opacity:1;fill-rule:evenodd;stroke-width:1.00012494;stroke-linejoin:round;stroke-dasharray:none" d="M10.186 0 12.7 2.514v1.72h3.175v-2.25L13.891 0h-3.705zm8.732 0-1.985 1.984v2.25h3.175V2.248l1.059-1.058 1.058 1.058v1.984H25.4V1.984L23.416 0h-4.498zm9.525 0-1.985 1.984v2.25h3.175v-1.72L32.147 0h-3.704zM17.859 7.408l.133.133v4.1h6.35v-4.1l.132-.133h-6.615zM12.7 8.467v.926l-1.588 1.587 2.25 2.25 2.513-2.514v-2.25H12.7zm13.758 0v2.249l5.16 5.159h2.249V12.7h-.926l-3.308-3.307v-.926h-3.175zm15.875 1.72L39.82 12.7H38.1v3.175h2.249l1.984-1.984v-3.705zm-22.886 3.571-2.778 2.778 2.513 2.514 1.059-1.058h1.852l2.249 2.249v1.852l-1.059 1.058 2.514 2.514 2.778-2.779v-3.44l-5.689-5.688h-3.44zM38.1 16.933v3.175h1.984l1.059 1.059-1.059 1.058H38.1V25.4h2.249l1.984-1.984v-4.498l-1.984-1.985H38.1zm-3.175.926-.132.133h-4.101v6.35h4.1l.133.132v-6.615zm-3.307 8.6-2.514 2.513 2.25 2.249 1.587-1.588h.926v-3.175h-2.25zm6.482 0v3.174h1.72l2.513 2.514v-3.704l-1.984-1.985H38.1z"/><path style="opacity:1;fill:#fc8e6c;fill-opacity:1;fill-rule:evenodd;stroke-width:1.00012494;stroke-linejoin:round;stroke-dasharray:none" d="m19.844 20.24 2.249 2.25h.264l.926-.926v-.794l-1.72-1.72h-.793l-.926.926z"/></g></g></svg>