<svg xmlns="http://www.w3.org/2000/svg" width="160" height="160" style="fill-opacity:1;color-rendering:auto;color-interpolation:auto;text-rendering:auto;stroke:#000;stroke-linecap:square;stroke-miterlimit:10;shape-rendering:auto;stroke-opacity:1;fill:#000;stroke-dasharray:none;font-weight:400;stroke-width:1;font-family:&quot;Dialog&quot;;font-style:normal;stroke-linejoin:miter;font-size:12px;stroke-dashoffset:0;image-rendering:auto">
    <g style="stroke-linecap:round;fill:#989aa4;stroke:#989aa4">
        <path stroke="none" d="M.5 2V.5H2L16.5 15l3-3h11l4 4h91l4-4h11l7.5 7.5v11l-4 4v91l4 4v11l-3 3 14.5 14.5v1.5H158L144.5 146h-2l-2 2h-11l-4-4h-91l-4 4h-11l-7.5-7.5v-11l4-4v-91l-4-4v-11l3-3Z" style="stroke:none"/>
    </g>
    <g stroke="none" style="stroke-linecap:round;fill:#6e7080;stroke:#6e7080">
        <path d="m15 16.5-3 3v11l4 4v91l-4 4v11l7.5 7.5h11l4-4h91l4 4h11l2-2h2l13.5 13.5H.5V2Z" style="stroke:none"/>
        <path d="M2 .5h157.5V158L145 143.5l3-3v-11l-4-4v-91l4-4v-11l-7.5-7.5h-11l-4 4h-91l-4-4h-11l-3 3Z" style="fill:#b0bac0;stroke:none"/>
        <path d="M16 22.5v2l4 4v13l2.5 2.5h8L44 30.5v-8L41.5 20h-13l-4-4h-2Zm0 113v2l6.5 6.5h2l4-4h13l2.5-2.5v-8L30.5 116h-8l-2.5 2.5v13Z" style="fill:#989aa4;stroke:none"/>
        <path d="M16 24.5v-2l6.5-6.5h2l4 4h13l2.5 2.5v8L30.5 44h-8L20 41.5v-13Zm0 113v-2l4-4v-13l2.5-2.5h8L44 129.5v8l-2.5 2.5h-13l-4 4h-2Z" style="fill:#b0bac0;stroke:none"/>
        <path d="m25.5 32 4.5 4.5 6.5-6.5-4.5-4.5Zm0 96 6.5 6.5 4.5-4.5-6.5-6.5Z" style="fill:#b0bac0;stroke:none"/>
        <path d="m25.5 32 6.5-6.5 4.5 4.5-6.5 6.5Zm0 96 4.5-4.5 6.5 6.5-4.5 4.5ZM32 59.5v41L59.5 128h41l13.5-13.5-7.5-7.5-9 9h-35L44 97.5v-35l9-9-7.5-7.5Z" style="fill:#989aa4;stroke:none"/>
        <path d="M32 100.5v-41L45.5 46l7.5 7.5-9 9v35L62.5 116h35l9-9 7.5 7.5-13.5 13.5h-41Z" style="stroke:none"/>
        <path d="m46 45.5 7.5 7.5 9-9h35L116 62.5v35l-9 9 7.5 7.5 13.5-13.5v-41L100.5 32h-41Z" style="fill:#989aa4;stroke:none"/>
        <path d="M46 45.5 59.5 32h41L128 59.5v41L114.5 114l-7.5-7.5 9-9v-35L97.5 44h-35l-9 9Z" style="fill:#b0bac0;stroke:none"/>
        <path d="M52 73.5v13L73.5 108h13L97 97.5 92.5 93l-8 8h-9L59 84.5v-9l8-8-4.5-4.5Z" style="fill:#989aa4;stroke:none"/>
        <path d="M52 86.5v-13L62.5 63l4.5 4.5-8 8v9L75.5 101h9l8-8 4.5 4.5L86.5 108h-13Z" style="stroke:none"/>
        <path d="m63 62.5 4.5 4.5 8-8h9L101 75.5v9l-8 8 4.5 4.5L108 86.5v-13L86.5 52h-13Z" style="fill:#989aa4;stroke:none"/>
        <path d="M63 62.5 73.5 52h13L108 73.5v13L97.5 97 93 92.5l8-8v-9L84.5 59h-9l-8 8Z" style="fill:#b0bac0;stroke:none"/>
        <path d="M116 22.5v8L129.5 44h8l2.5-2.5v-13l4-4v-2l-6.5-6.5h-2l-4 4h-13Zm0 107v8l2.5 2.5h13l4 4h2l6.5-6.5v-2l-4-4v-13l-2.5-2.5h-8Z" style="fill:#989aa4;stroke:none"/>
        <path d="M116 30.5v-8l2.5-2.5h13l4-4h2l6.5 6.5v2l-4 4v13l-2.5 2.5h-8Zm0 107v-8l13.5-13.5h8l2.5 2.5v13l4 4v2l-6.5 6.5h-2l-4-4h-13Z" style="fill:#b0bac0;stroke:none"/>
        <path d="m123.5 30 6.5 6.5 4.5-4.5-6.5-6.5Zm0 100 4.5 4.5 6.5-6.5-4.5-4.5Z" style="fill:#b0bac0;stroke:none"/>
        <path d="m123.5 30 4.5-4.5 6.5 6.5-4.5 4.5Zm0 100 6.5-6.5 4.5 4.5-6.5 6.5Z" style="fill:#989aa4;stroke:none"/>
    </g>
</svg>
