<svg xmlns="http://www.w3.org/2000/svg" width="96" height="96" style="fill-opacity:1;color-rendering:auto;color-interpolation:auto;text-rendering:auto;stroke:#000;stroke-linecap:square;stroke-miterlimit:10;shape-rendering:auto;stroke-opacity:1;fill:#000;stroke-dasharray:none;font-weight:400;stroke-width:1;font-family:&quot;Dialog&quot;;font-style:normal;stroke-linejoin:miter;font-size:12px;stroke-dashoffset:0;image-rendering:auto">
    <g style="stroke-linecap:round;fill:#4a4b53;stroke:#4a4b53">
        <path stroke="none" d="M.5 86V10L5 5.5l6 6-3 3v3l6 6v13l-6 6v11l6 6v13l-6 6v3l6.5 6.5h3l6-6h13l6 6h11l6-6h13l6 6h3l3-3 6 6-4.5 4.5H10Z" style="stroke:none"/>
    </g>
    <g stroke="none" style="stroke-linecap:round;fill:#6e7080;stroke:#6e7080">
        <path d="m6 6.5-1-1 .5-.5.5.5Z" style="stroke:none"/>
        <path d="M5.5 5 10 .5h76l9.5 9.5v76L91 90.5l-6-6 3-3v-3l-6-6v-13l6-6v-11l-6-6v-13l6-6v-3L81.5 8h-3l-6 6h-13l-6-6h-11l-6 6h-13l-6-6h-3l-3 3Z" style="fill:#989aa4;stroke:none"/>
        <path d="m8 8.5-3-3 .5-.5L8 7.5Z" style="stroke:none"/>
        <path d="M8 17.5v-3l3-3-6-6 .5-.5 6 6 3-3h3l6 6h13l6-6h11l6 6h13l6-6h3l6.5 6.5v3l-6 6v13l6 6v11l-6 6v13l6 6v3l-3 3 6 6-.5.5-6-6-3 3h-3l-6-6h-13l-6 6h-11l-6-6h-13l-6 6h-3L8 81.5v-3l6-6v-13l-6-6v-11l6-6v-13Z" style="stroke:none"/>
        <path d="m11.5 16 5.5 5.5 2-2-5.5-5.5Zm0 64 4.5 4.5 5.5-5.5-4.5-4.5Z" style="stroke:none"/>
        <path d="m11.5 16 2-2 5.5 5.5-2 2Zm0 64 5.5-5.5 4.5 4.5-5.5 5.5Z" style="fill:#4a4b53;stroke:none"/>
        <path d="m14 13.5 5.5 5.5 2-2-5.5-5.5Zm0 31v7l5 5v13l7.5 7.5h13l5 5h7l5-5h13l3.5-3.5-8.5-8.5-4 4h-5l-4 4h-7l-4-4h-5L27 60.5v-5l-4-4v-7l4-4v-5l4-4-8.5-8.5-3.5 3.5v13Z" style="stroke:none"/>
        <path d="m14 13.5 2-2 5.5 5.5-2 2Z" style="fill:#989aa4;stroke:none"/>
        <path d="M14 51.5v-7l5-5v-13l3.5-3.5 8.5 8.5-4 4v5l-4 4v7l4 4v5l8.5 8.5h5l4 4h7l4-4h5l4-4 8.5 8.5-3.5 3.5h-13l-5 5h-7l-5-5h-13L19 69.5v-13Z" style="fill:#4a4b53;stroke:none"/>
        <path d="m23 22.5 8.5 8.5 4-4h5l4-4h7l4 4h5l8.5 8.5v5l4 4v7l-4 4v5l-4 4 8.5 8.5 3.5-3.5v-13l5-5v-7l-5-5v-13L69.5 19h-13l-5-5h-7l-5 5h-13Z" style="stroke:none"/>
        <path d="m23 22.5 3.5-3.5h13l5-5h7l5 5h13l7.5 7.5v13l5 5v7l-5 5v13L73.5 73 65 64.5l4-4v-5l4-4v-7l-4-4v-5L60.5 27h-5l-4-4h-7l-4 4h-5l-4 4Z" style="fill:#989aa4;stroke:none"/>
        <path d="M31 36.5v2l2.5 2.5h2l5.5-5.5v-2L38.5 31h-2Zm0 21v2l5.5 5.5h2l2.5-2.5v-2L35.5 55h-2Z" style="stroke:none"/>
        <path d="M31 38.5v-2l5.5-5.5h2l2.5 2.5v2L35.5 41h-2Zm0 21v-2l2.5-2.5h2l5.5 5.5v2L38.5 65h-2Z" style="fill:#989aa4;stroke:none"/>
        <path d="M36 45.5v5l9.5 9.5h5l9.5-9.5v-5L50.5 36h-5Z" style="stroke:none"/>
        <path d="M36 50.5v-5l9.5-9.5h5l9.5 9.5v5L50.5 60h-5Z" style="fill:#989aa4;stroke:none"/>
        <path d="M55 33.5v2l5.5 5.5h2l2.5-2.5v-2L59.5 31h-2Zm0 27v2l2.5 2.5h2l5.5-5.5v-2L62.5 55h-2Z" style="stroke:none"/>
        <path d="M55 35.5v-2l2.5-2.5h2l5.5 5.5v2L62.5 41h-2Zm0 27v-2l5.5-5.5h2l2.5 2.5v2L59.5 65h-2Z" style="fill:#989aa4;stroke:none"/>
        <path d="m74.5 17 4.5 4.5 5.5-5.5-4.5-4.5Zm0 62 5.5 5.5 2-2-5.5-5.5Z" style="stroke:none"/>
        <path d="m74.5 17 5.5-5.5 4.5 4.5-5.5 5.5Z" style="fill:#989aa4;stroke:none"/>
        <path d="m74.5 79 2-2 5.5 5.5-2 2Z" style="fill:#4a4b53;stroke:none"/>
        <path d="m77 76.5 5.5 5.5 2-2-5.5-5.5Z" style="stroke:none"/>
        <path d="m77 76.5 2-2 5.5 5.5-2 2Z" style="fill:#989aa4;stroke:none"/>
    </g>
</svg>
