<svg xmlns="http://www.w3.org/2000/svg" width="64" height="64" style="fill-opacity:1;color-rendering:auto;color-interpolation:auto;text-rendering:auto;stroke:#000;stroke-linecap:square;stroke-miterlimit:10;shape-rendering:auto;stroke-opacity:1;fill:#000;stroke-dasharray:none;font-weight:400;stroke-width:1;font-family:&quot;Dialog&quot;;font-style:normal;stroke-linejoin:miter;font-size:12px;stroke-dashoffset:0;image-rendering:auto">
    <g style="stroke-linecap:round;fill:#4a4b53;stroke:#4a4b53">
        <path stroke="none" d="M.5 55V9l4-4 5 5L6 13.5v11l3 3v9l-3 3v11l7.5 7.5h11l3-3h9l3 3h11l3.5-3.5 5 5-4 4H9Z" style="stroke:none"/>
    </g>
    <g stroke="none" style="stroke-linecap:round;fill:#989aa4;stroke:#989aa4">
        <path d="m5 4.5 4-4h46L63.5 9v46l-4 4-5-5 3.5-3.5v-11l-3-3v-9l3-3v-11L50.5 6h-11l-3 3h-9l-3-3h-11L10 9.5Z" style="stroke:none"/>
        <path d="M6 6.5 4.5 5l.5-.5 1 1Z" style="fill:#6e7080;stroke:none"/>
        <path d="M6 24.5v-11L9.5 10l-5-5 .5-.5 5 5L13.5 6h11l3 3h9l3-3h11l7.5 7.5v11l-3 3v9l3 3v11L54.5 54l5 5-.5.5-5-5-3.5 3.5h-11l-3-3h-9l-3 3h-11L6 50.5v-11l3-3v-9Z" style="fill:#6e7080;stroke:none"/>
        <path d="M10 15.5v5l2.5 2.5h4l3-3-7-7Zm0 28v5l5.5 5.5h5l2.5-2.5v-4L16.5 41h-4Z" style="fill:#6e7080;stroke:none"/>
        <path d="M10 20.5v-5l2.5-2.5 7 7-3 3h-4Zm0 28v-5l2.5-2.5h4l6.5 6.5v4L20.5 54h-5Z" style="fill:#4a4b53;stroke:none"/>
        <path d="m13 12.5 7 7 3-3v-4L20.5 10h-5Z" style="fill:#6e7080;stroke:none"/>
        <path d="m13 12.5 2.5-2.5h5l2.5 2.5v4l-3 3Z" style="stroke:none"/>
        <path d="M17 28.5v7L28.5 47h7l5.5-5.5-4.5-4.5-3 3h-3L24 33.5v-3l3-3-4.5-4.5Z" style="fill:#6e7080;stroke:none"/>
        <path d="M17 35.5v-7l5.5-5.5 4.5 4.5-3 3v3l6.5 6.5h3l3-3 4.5 4.5-5.5 5.5h-7Z" style="fill:#4a4b53;stroke:none"/>
        <path d="m23 22.5 4.5 4.5 3-3h3l6.5 6.5v3l-3 3 4.5 4.5 5.5-5.5v-7L35.5 17h-7Z" style="fill:#6e7080;stroke:none"/>
        <path d="m23 22.5 5.5-5.5h7L47 28.5v7L41.5 41 37 36.5l3-3v-3L33.5 24h-3l-3 3Z" style="stroke:none"/>
        <path d="M41 12.5v4l6.5 6.5h4l2.5-2.5v-5L48.5 10h-5Zm0 35v4l2.5 2.5h5l2.5-2.5-7-7Z" style="fill:#6e7080;stroke:none"/>
        <path d="M41 16.5v-4l2.5-2.5h5l5.5 5.5v5L51.5 23h-4Z" style="stroke:none"/>
        <path d="M41 51.5v-4l3-3 7 7-2.5 2.5h-5Z" style="fill:#4a4b53;stroke:none"/>
        <path d="m44.5 44 7 7 2.5-2.5v-5L51.5 41h-4Z" style="fill:#6e7080;stroke:none"/>
        <path d="m44.5 44 3-3h4l2.5 2.5v5L51.5 51Z" style="stroke:none"/>
    </g>
</svg>
