<svg xmlns="http://www.w3.org/2000/svg" width="32" height="32" style="fill-opacity:1;color-rendering:auto;color-interpolation:auto;text-rendering:auto;stroke:#000;stroke-linecap:square;stroke-miterlimit:10;shape-rendering:auto;stroke-opacity:1;fill:#000;stroke-dasharray:none;font-weight:400;stroke-width:1;font-family:&quot;Dialog&quot;;font-style:normal;stroke-linejoin:miter;font-size:12px;stroke-dashoffset:0;image-rendering:auto">
    <g style="stroke-linecap:round;fill:#989aa4;stroke:#989aa4">
        <path stroke="none" d="M.5 1V.5H1l6 6 6-6h6L31.5 13v6l-6 6 6 6v.5H31l-6-6-6 6h-6L.5 19v-6l6-6Z" style="stroke:none"/>
    </g>
    <g stroke="none" style="stroke-linecap:round;fill:#6e7080;stroke:#6e7080">
        <path d="m6.5 7-6 6V1ZM13 31.5H.5V19Z" style="stroke:none"/>
        <path d="M1 .5h12l-6 6Z" style="fill:#b0bac0;stroke:none"/>
        <path d="M4 14.5v3L6.5 20h2l3.5 3.5v2l2.5 2.5h3l2.5-2.5v-2l3.5-3.5h2l2.5-2.5v-3L25.5 12h-2L20 8.5v-2L17.5 4h-3L12 6.5v2L8.5 12h-2Z" style="fill:#989aa4;stroke:none"/>
        <path d="M4 17.5v-3L6.5 12H8v8H6.5Z" style="fill:#d4816b;stroke:none"/>
        <path d="M8.5 20H8v-8h.5L12 8.5V8h8v.5l3.5 3.5h.5v8h-.5L20 23.5v.5h-8v-.5Z" style="stroke:none"/>
        <path d="M12 14.5v3l2.5 2.5h3l2.5-2.5v-3L17.5 12h-3Z" style="stroke:none"/>
        <path d="M12 8V6.5L14.5 4h3L20 6.5V8Z" style="fill:#ffd37f;stroke:none"/>
        <path d="M12 17.5v-3l2.5-2.5h3l2.5 2.5v3L17.5 20h-3Z" style="fill:#eab678;stroke:none"/>
        <path d="M12 25.5V24h8v1.5L17.5 28h-3Z" style="fill:#d4816b;stroke:none"/>
        <path d="M19 .5h12.5V13Z" style="fill:#b0bac0;stroke:none"/>
        <path d="M24 20v-8h1.5l2.5 2.5v3L25.5 20Z" style="fill:#ffd37f;stroke:none"/>
        <path d="M31 31.5H19l6-6Z" style="stroke:none"/>
        <path d="m25.5 25 6-6v12Z" style="fill:#b0bac0;stroke:none"/>
    </g>
</svg>
