<svg xmlns="http://www.w3.org/2000/svg" width="96" height="96" style="fill-opacity:1;color-rendering:auto;color-interpolation:auto;text-rendering:auto;stroke:#000;stroke-linecap:square;stroke-miterlimit:10;shape-rendering:auto;stroke-opacity:1;fill:#000;stroke-dasharray:none;font-weight:400;stroke-width:1;font-family:&quot;Dialog&quot;;font-style:normal;stroke-linejoin:miter;font-size:12px;stroke-dashoffset:0;image-rendering:auto">
    <g style="stroke-linecap:round;fill:#9d7f7f;stroke:#9d7f7f">
        <path stroke="none" d="M.5 64V32H8v8H2.5l-.5.5L5.5 44H8v8H5.5L2 55.5l.5.5H8v8Z" style="stroke:none"/>
    </g>
    <g stroke="none" style="stroke-linecap:round;fill:#dcc6c6;stroke:#dcc6c6">
        <path d="M8 40v-8h5.5l5.5 5.5v2l-.5.5Zm0 12v-8h4.5l2.5 2.5v3L12.5 52Zm0 12v-8h10.5l.5.5v2L13.5 64Zm12.5-12-.5-.5v-7l.5-.5H24v8Z" style="stroke:none"/>
        <path d="M24 52v-8h7.5l.5.5-3.5 3.5 3.5 3.5-.5.5Z" style="fill:#9d7f7f;stroke:none"/>
        <path d="M32 8V.5h32V8h-8V5.5L52.5 2l-.5.5V8h-8V2.5l-.5-.5L40 5.5V8Z" style="fill:#fff;stroke:none"/>
        <path d="M32 13.5V8h8v10.5l-.5.5h-2ZM32 88v-5.5l5.5-5.5h2l.5.5V88Z" style="stroke:none"/>
        <path d="m40 90.5 3.5 3.5.5-.5V88h8v5.5l.5.5 3.5-3.5V88h8v7.5H32V88h8Z" style="fill:#9d7f7f;stroke:none"/>
        <path d="M44 13.5V8h8v5.5L49.5 16h-3ZM44 24v-3.5l.5-.5h7l.5.5V24Z" style="stroke:none"/>
        <path d="m44.5 32-.5-.5V24h8v7.5l-.5.5-3.5-3.5Z" style="fill:#fff;stroke:none"/>
        <path d="m48 67.5 3.5-3.5.5.5V72h-8v-7.5l.5-.5Z" style="fill:#9d7f7f;stroke:none"/>
        <path d="m44.5 76-.5-.5V72h8v3.5l-.5.5ZM44 88v-5.5l2.5-2.5h3l2.5 2.5V88Zm12.5-69-.5-.5V8h8v5.5L58.5 19ZM56 88V77.5l.5-.5h2l5.5 5.5V88Z" style="stroke:none"/>
        <path d="m64 44.5.5-.5H72v8h-7.5l-.5-.5 3.5-3.5Z" style="fill:#fff;stroke:none"/>
        <path d="M72 52v-8h3.5l.5.5v7l-.5.5Zm5.5-12-.5-.5v-2l5.5-5.5H88v8ZM77 58.5v-2l.5-.5H88v8h-5.5Zm4-9v-3l2.5-2.5H88v8h-4.5Z" style="stroke:none"/>
        <path d="M88 40v-8h7.5v32H88v-8h5.5l.5-.5-3.5-3.5H88v-8h2.5l3.5-3.5-.5-.5Z" style="fill:#fff;stroke:none"/>
    </g>
</svg>
